<?xml version="1.0" encoding="UTF-8"?><svg id="_レイヤー_2" xmlns="http://www.w3.org/2000/svg" xmlns:xlink="http://www.w3.org/1999/xlink" viewBox="0 0 253 199"><defs><style>.cls-1{fill:#f3baab;}.cls-2{fill:#f9ddd6;}.cls-3{fill:#f8f7f6;}.cls-4{fill:url(#_名称未設定グラデーション_14-3);}.cls-5{fill:url(#_名称未設定グラデーション_14-2);}.cls-6{fill:url(#_名称未設定グラデーション_14);}.cls-7{fill:none;stroke:#666;stroke-miterlimit:10;}.cls-8{fill:#ccc7c5;opacity:.8;}</style><linearGradient id="_名称未設定グラデーション_14" x1="112.5" y1="36.26" x2="112.5" y2="53.7" gradientUnits="userSpaceOnUse"><stop offset=".27" stop-color="#f8f7f6"/><stop offset="1" stop-color="#0071bc"/></linearGradient><linearGradient id="_名称未設定グラデーション_14-2" x1="126.5" x2="126.5" xlink:href="#_名称未設定グラデーション_14"/><linearGradient id="_名称未設定グラデーション_14-3" x1="141.5" x2="141.5" xlink:href="#_名称未設定グラデーション_14"/></defs><g id="_レイヤー_1-2"><g><rect class="cls-8" width="253" height="31"/><g><path d="m77.79,14.18c-.08.08-.17.11-.28.11-.13,0-.24-.05-.32-.14-.07-.07-.11-.17-.11-.29,0-.13.05-.24.14-.32.42-.42.79-.88,1.12-1.39.33-.51.59-1,.8-1.46.1-.22.27-.34.5-.34.13,0,.24.04.31.13.08.08.12.18.12.28,0,.04,0,.08-.03.14-.21.51-.51,1.07-.91,1.66-.4.59-.85,1.14-1.34,1.63Zm1.25,8.19c-.12,0-.23-.04-.31-.13s-.13-.19-.13-.31v-5.15s-.01-.06-.04-.07c-.02,0-.04,0-.06.03-.11.12-.22.24-.34.36-.11.12-.22.23-.34.33-.07.07-.16.1-.27.1-.14,0-.25-.06-.34-.17-.07-.08-.1-.18-.1-.31,0-.16.06-.29.17-.38.51-.47,1-1.01,1.46-1.64.46-.62.85-1.26,1.17-1.92.1-.18.24-.27.42-.27.14,0,.25.05.34.14s.13.2.13.31c0,.06-.01.11-.04.17-.15.32-.33.65-.55.99-.22.34-.45.68-.69,1.02-.02.04-.03.07-.03.1v6.37c0,.12-.04.22-.13.31-.09.08-.19.13-.32.13Zm1.36-.15c-.16-.06-.24-.18-.24-.38,0-.06.01-.12.04-.18.32-.58.59-1.19.83-1.83.23-.64.42-1.26.57-1.86.15-.59.26-1.1.32-1.53.02-.11.08-.2.17-.27.1-.06.2-.08.3-.06.13.04.23.11.31.21.07.1.1.22.08.35-.04.26-.09.53-.15.81-.06.28-.13.56-.2.84,0,.03,0,.07.03.11.33.48.64.9.93,1.26s.61.67.96.91c.06.05.1.03.1-.06v-6.34c0-.06-.03-.08-.08-.08h-2.87c-.12,0-.22-.04-.29-.12-.08-.08-.11-.18-.11-.29,0-.12.04-.22.12-.29.08-.07.17-.11.29-.11h3.29s.07-.01.1-.04c.3-.37.57-.78.83-1.22.25-.44.46-.89.62-1.34.08-.22.23-.34.45-.34.13,0,.23.04.31.12s.11.17.11.27c0,.06,0,.1-.01.13-.12.39-.28.78-.48,1.16-.2.38-.42.77-.69,1.16-.05.06-.03.1.06.1h2.39c.12,0,.22.04.3.12.08.08.12.17.12.29,0,.12-.04.22-.13.29-.08.08-.18.11-.29.11h-3.04c-.06,0-.08.03-.08.08v2.44c0,.06.03.08.08.08h2.23c.12,0,.22.04.29.12.07.08.11.17.11.29s-.04.21-.11.29c-.08.08-.17.12-.29.12h-2.23c-.06,0-.08.03-.08.08v3.42s.02.08.06.08c.23.07.48.12.74.16.26.04.55.06.87.06h1.46c.13,0,.24.04.32.13.08.08.12.19.12.31s-.04.22-.13.3-.19.12-.31.12h-1.46c-.65,0-1.22-.06-1.69-.19-.47-.13-.89-.31-1.25-.55-.36-.24-.69-.52-.99-.86-.3-.34-.6-.71-.91-1.13-.05-.06-.08-.05-.11.03-.17.49-.34.95-.52,1.38-.18.43-.34.8-.48,1.09-.1.2-.26.29-.48.29-.07,0-.14-.01-.21-.04Zm3.46-9.46c-.06.02-.1.03-.14.03-.18,0-.3-.08-.38-.25-.22-.52-.49-.98-.8-1.36-.06-.07-.1-.17-.1-.28,0-.15.06-.26.17-.32.08-.06.18-.08.29-.08.2,0,.34.08.42.24.13.22.27.47.41.74.14.27.26.52.36.76.02.06.03.1.03.14,0,.19-.09.32-.27.39Z"/><path d="m97.99,22.37c-.12,0-.22-.04-.31-.13-.08-.08-.13-.19-.13-.31v-3.29s-.01-.06-.03-.07c-.02,0-.04,0-.06.03-.4.44-.88.88-1.43,1.31-.55.43-1.11.83-1.68,1.18-.57.36-1.08.63-1.54.84-.06.03-.11.04-.17.04-.11,0-.21-.04-.31-.13s-.14-.19-.14-.32c0-.21.1-.35.31-.45.38-.16.8-.37,1.25-.64s.91-.57,1.36-.9c.45-.33.87-.67,1.24-1.02.37-.34.67-.67.88-.98.05-.07.03-.1-.06-.1h-4.48c-.12,0-.22-.04-.31-.13-.08-.08-.13-.19-.13-.31,0-.11.04-.21.13-.29.08-.08.19-.13.31-.13h4.77c.06,0,.08-.03.08-.08v-3.4c0-.05-.03-.08-.08-.08h-3.96c-.12,0-.22-.04-.31-.12-.08-.08-.13-.19-.13-.31s.04-.22.13-.3c.08-.08.19-.12.31-.12h3.96c.06,0,.08-.03.08-.08v-1.19c0-.12.04-.22.13-.31.08-.08.19-.13.31-.13s.22.04.31.12.13.18.13.32v1.19c0,.06.03.08.08.08h4.07c.12,0,.22.04.31.13.08.08.13.18.13.29,0,.12-.04.22-.13.31-.08.08-.19.12-.31.12h-4.07c-.06,0-.08.03-.08.08v3.4c0,.06.03.08.08.08h4.89c.13,0,.24.04.31.13.08.08.12.18.12.29,0,.12-.04.22-.13.31-.08.08-.19.13-.31.13h-4.58c-.08,0-.1.03-.06.1.23.34.54.68.93,1.03s.81.69,1.27,1.02c.46.33.91.63,1.37.89.46.26.87.47,1.25.63.2.08.29.23.29.43,0,.06,0,.11-.01.14-.09.21-.24.32-.43.32-.04,0-.08,0-.14-.03-.35-.14-.74-.33-1.17-.57-.42-.24-.85-.51-1.29-.82-.43-.31-.85-.63-1.25-.97-.4-.34-.75-.68-1.06-1.03-.02-.03-.04-.04-.06-.03-.02,0-.04.03-.04.07v3.3c0,.12-.04.22-.12.31-.08.08-.18.13-.31.13Zm-1.74-6.13c-.06.03-.11.04-.17.04-.19,0-.32-.08-.39-.25-.3-.67-.73-1.3-1.29-1.88-.08-.08-.13-.18-.13-.29,0-.14.06-.25.17-.34.1-.08.21-.11.31-.11.17,0,.3.07.41.2.21.26.43.57.67.92s.46.72.64,1.11c.03.06.04.12.04.2,0,.18-.09.31-.27.41Zm3.36-.06c-.09-.05-.14-.15-.14-.28,0-.11.03-.2.1-.27.24-.27.47-.57.68-.9s.4-.68.58-1.06c.09-.18.23-.27.41-.27.14,0,.25.04.33.13.08.09.12.19.12.3,0,.07-.01.13-.04.18-.16.31-.36.67-.62,1.07s-.49.75-.73,1.03c-.08.11-.2.17-.35.17-.1,0-.21-.04-.34-.11Z"/><path d="m113.58,21.22c-.13,0-.25-.03-.36-.11-.11-.08-.17-.2-.17-.35,0-.11.03-.21.1-.3.07-.09.17-.14.29-.16,1.19-.19,2.1-.59,2.73-1.21.63-.62.95-1.4.95-2.37,0-.62-.15-1.18-.46-1.65s-.7-.85-1.2-1.13c-.5-.28-1.04-.41-1.63-.41-.07,0-.12.04-.14.11-.18.8-.39,1.6-.64,2.38-.25.78-.55,1.5-.9,2.16-.78,1.46-1.6,2.18-2.44,2.18-.05,0-.1,0-.15,0-.05,0-.1-.01-.15-.02-.43-.1-.75-.36-.97-.78s-.32-.91-.32-1.48c0-.52.1-1.08.29-1.66.19-.58.47-1.13.85-1.65.53-.73,1.18-1.27,1.95-1.62.77-.35,1.55-.52,2.35-.52.64,0,1.26.11,1.84.34.58.23,1.09.56,1.53,1,.44.44.75.98.94,1.64.06.18.1.36.12.56.02.2.04.4.04.6,0,.49-.09.97-.26,1.45-.17.48-.44.93-.8,1.34s-.82.77-1.38,1.06-1.23.48-2.02.59Zm-4.41-2.11c.16.25.34.38.53.38s.42-.12.66-.35c.23-.23.47-.55.71-.95.24-.4.46-.85.68-1.34.21-.49.41-1.01.58-1.55.17-.54.31-1.05.41-1.55v-.03c0-.08-.04-.12-.13-.1-.62.1-1.18.34-1.7.71-.52.37-.94.83-1.27,1.38-.22.38-.39.79-.51,1.23-.12.43-.18.83-.18,1.2,0,.41.07.74.21.98Z"/><path d="m128.84,20.27c-.99.62-1.85.92-2.58.92-.57,0-1.02-.19-1.34-.58s-.49-.95-.48-1.69v-6.5c0-.13.05-.24.14-.34.09-.09.2-.14.32-.14.13,0,.24.05.34.14.09.09.14.21.14.34v6.36c0,.96.33,1.44.98,1.44.49,0,1.17-.26,2.03-.77.58-.34,1.19-.78,1.85-1.31s1.31-1.12,1.96-1.77c.08-.08.19-.13.31-.13.14,0,.25.05.34.15.08.09.13.21.13.34,0,.15-.06.28-.17.38-.71.69-1.4,1.3-2.08,1.82s-1.3.97-1.88,1.33Z"/><path d="m138.62,16.93c-.12,0-.23-.04-.31-.13-.09-.09-.13-.19-.13-.31,0-.13.04-.24.13-.32s.19-.13.31-.13h8.74c.12,0,.23.04.31.13.09.08.13.19.13.32,0,.12-.04.23-.13.31-.08.09-.19.13-.32.13h-8.74Z"/><path d="m157.14,21.87c-.07.04-.14.06-.2.06-.18,0-.31-.09-.41-.27-.03-.06-.04-.12-.04-.18,0-.2.08-.34.25-.42.82-.45,1.43-.96,1.84-1.54.41-.58.68-1.24.83-1.97.14-.74.23-1.56.24-2.46,0-.08-.04-.13-.13-.13h-3.09c-.08,0-.13.04-.13.13,0,.65.01,1.22.03,1.71s.09.94.2,1.36c0,.03.01.07.01.12,0,.21-.09.34-.28.41-.03,0-.06.02-.08.02-.03,0-.06,0-.08,0-.22,0-.36-.1-.42-.29-.12-.38-.2-.87-.24-1.45-.04-.58-.06-1.21-.07-1.88,0-.08-.04-.13-.13-.13-.4,0-.78.02-1.15.02-.36,0-.7.02-1.01.04-.13,0-.24-.03-.33-.12-.09-.09-.13-.2-.13-.32s.04-.22.13-.31.18-.13.29-.14c.33,0,.67-.02,1.04-.02.37,0,.75,0,1.15,0,.08,0,.13-.04.13-.13,0-.14,0-.28,0-.42,0-.14,0-.28,0-.42,0-.48-.01-.94-.04-1.39,0-.13.03-.24.13-.32s.2-.13.32-.13c.13,0,.24.04.32.13s.13.19.14.32c.03.84.04,1.58.04,2.21,0,.08.04.13.13.13h1.57c.53,0,1.04,0,1.53-.01.08,0,.13-.04.13-.13v-1.85c0-.21,0-.43.01-.66,0-.12.05-.23.14-.31s.2-.13.32-.13.22.04.31.13.13.19.13.31c0,.43-.02.85-.02,1.27,0,.42,0,.83,0,1.23,0,.08.06.13.18.13.85,0,1.54-.01,2.09-.04.13,0,.24.03.33.12.09.09.13.2.13.33,0,.12-.04.22-.12.31-.08.08-.18.13-.3.14-.29,0-.62.02-.99.03-.37,0-.77.01-1.2.01-.08,0-.13.04-.13.13-.02.73-.08,1.42-.17,2.08-.09.66-.26,1.27-.49,1.84-.23.57-.57,1.09-1.01,1.58-.44.48-1.02.91-1.74,1.29Zm5.85-8.67s-.08.04-.14.04c-.08,0-.16-.04-.24-.13-.15-.23-.32-.48-.52-.74-.2-.26-.39-.48-.58-.66-.07-.07-.1-.14-.1-.21,0-.08.03-.14.08-.18.06-.06.13-.1.21-.1s.15.03.18.08c.21.21.43.44.64.71s.4.53.57.78c.03.04.04.08.04.14,0,.11-.05.2-.14.25Zm1.06-.62s-.08.04-.14.04c-.1,0-.18-.04-.24-.13-.15-.23-.32-.48-.52-.73-.2-.25-.39-.47-.57-.64-.06-.06-.08-.12-.08-.2s.03-.13.08-.17c.06-.06.14-.1.21-.1.08,0,.14.03.18.08.21.21.42.44.62.69.2.26.38.51.55.76.03.04.04.08.04.14,0,.1-.04.18-.13.24Z"/><path d="m168.58,16.93c-.12,0-.23-.04-.31-.13-.09-.09-.13-.19-.13-.31,0-.13.04-.24.13-.32.09-.08.19-.13.31-.13h8.74c.12,0,.23.04.31.13s.13.19.13.32c0,.12-.04.23-.13.31-.08.09-.19.13-.32.13h-8.74Z"/></g><g><path d="m56.43,185.94c-2.73-.56-4.62-2.16-5.68-4.82-.03-.07-.07-.07-.11-.03-.29.26-.6.52-.93.76-.33.25-.68.48-1.04.71-.04,0-.06.04-.06.1v1.93c0,.07.03.09.1.08.35-.07.71-.17,1.08-.29.36-.12.71-.24,1.04-.37.06-.03.11-.04.17-.04.11,0,.21.04.28.12.07.08.11.18.11.31,0,.22-.11.38-.32.48-.35.12-.75.25-1.22.39s-.93.25-1.39.34c-.19.04-.35,0-.5-.14-.15-.13-.22-.3-.22-.5v-1.79c0-.08-.03-.11-.1-.07-.57.27-1.15.5-1.74.7-.03,0-.07.01-.13.01-.11,0-.21-.04-.3-.12s-.13-.18-.13-.31c0-.21.1-.36.31-.43.99-.34,1.82-.7,2.48-1.1s1.23-.8,1.7-1.21c.03-.02.04-.04.03-.06,0-.02-.03-.04-.07-.04h-3.82c-.12,0-.22-.04-.31-.13s-.13-.19-.13-.31.04-.22.13-.31.19-.13.31-.13h4.63c.06,0,.08-.03.08-.08v-1.09c0-.06-.03-.08-.08-.08h-3.15c-.11,0-.21-.04-.29-.12-.08-.08-.13-.18-.13-.3s.04-.22.13-.3.18-.12.29-.12h3.15c.06,0,.08-.03.08-.08v-1.09c0-.06-.03-.08-.08-.08h-3.82c-.12,0-.22-.04-.31-.12s-.13-.18-.13-.3.04-.22.13-.31.19-.13.31-.13h3.82c.06,0,.08-.03.08-.08v-.8c0-.12.04-.22.13-.31s.19-.13.31-.13c.13,0,.24.04.32.13.08.08.12.19.12.31v.8c0,.06.03.08.08.08h3.82c.13,0,.24.04.32.13.08.08.12.19.12.31s-.04.22-.13.3-.19.12-.31.12h-3.82c-.06,0-.08.03-.08.08v1.09c0,.06.03.08.08.08h3.15c.12,0,.22.04.3.13s.12.18.12.29c0,.12-.04.22-.12.3-.08.08-.18.12-.3.12h-3.15c-.06,0-.08.03-.08.08v1.09c0,.06.03.08.08.08h4.63c.13,0,.24.04.31.13s.12.19.12.31-.04.22-.13.31-.19.13-.31.13h-4.7c-.07,0-.08.03-.06.1.36.94.81,1.72,1.37,2.34.04.04.08.04.13.01.34-.19.7-.43,1.08-.73.39-.3.71-.62.97-.98.08-.12.2-.18.35-.18.08,0,.16.02.24.07.14.09.21.22.21.38,0,.09-.03.18-.08.25-.23.32-.54.63-.93.95-.39.32-.78.6-1.17.85-.06.05-.06.08-.01.11.81.65,1.82,1.11,3.01,1.36.21.05.32.18.32.41,0,.15-.06.27-.18.35-.12.08-.25.12-.38.1Z"/><path d="m71.38,186.04c-1.67-.3-3.13-.9-4.38-1.79-.04-.03-.08-.03-.11,0-.67.48-1.4.86-2.17,1.15s-1.55.5-2.34.63c-.13.02-.25-.01-.35-.1-.1-.08-.15-.2-.15-.35,0-.1.04-.2.1-.29.07-.09.16-.14.27-.16.77-.14,1.49-.33,2.13-.57.65-.24,1.23-.53,1.76-.87.06-.04.06-.08.01-.12-.4-.36-.77-.75-1.11-1.18-.34-.43-.65-.89-.95-1.37-.04-.05-.06-.11-.06-.2,0-.08.02-.15.06-.22.04-.07.1-.13.18-.17.04-.02.07-.03.1-.04.03,0,.06-.01.1-.01.18,0,.31.08.41.24.56.95,1.23,1.76,2,2.42.04.04.08.04.11,0,.85-.74,1.5-1.67,1.95-2.79.04-.07.02-.1-.06-.1h-6.26c-.06,0-.08.03-.08.08-.07.97-.18,1.93-.35,2.88s-.43,1.84-.78,2.67c-.08.16-.21.24-.39.24-.06,0-.12-.01-.2-.04-.17-.08-.25-.23-.25-.43,0-.07.01-.13.04-.2.18-.39.33-.82.47-1.28.13-.46.25-1,.34-1.61s.17-1.33.22-2.15c.05-.82.08-1.79.08-2.9v-.87c0-.21.08-.39.22-.54.15-.14.33-.22.53-.22h3.32c.06,0,.08-.03.08-.08v-1.13c0-.13.04-.24.13-.32s.19-.13.31-.13c.13,0,.24.04.32.13s.13.19.13.32v1.13c0,.06.03.08.08.08h3.61c.16,0,.29.06.41.17.11.11.17.24.17.39v.07s0,.05-.01.07c-.17.58-.37,1.1-.62,1.57-.08.18-.23.27-.45.27-.15,0-.26-.05-.34-.14-.08-.09-.12-.2-.12-.32,0-.05,0-.09.01-.14,0-.05.03-.09.06-.13.08-.13.16-.27.22-.41.06-.14.13-.29.18-.44.04-.07.02-.1-.06-.1h-3.07c-.06,0-.08.03-.08.08v2.45c0,.06.03.08.08.08h2.63c.16,0,.29.05.4.16.11.11.16.24.16.39,0,.03,0,.08-.03.15-.24.75-.56,1.42-.95,2.02-.39.6-.83,1.12-1.33,1.58-.05.05-.05.08,0,.11,1.07.73,2.34,1.23,3.79,1.5.11.02.2.07.27.15s.1.17.1.27c0,.14-.05.25-.15.34-.1.09-.22.12-.35.1Zm-8.72-6.78h3.14c.06,0,.08-.03.08-.08v-2.45c0-.06-.03-.08-.08-.08h-3.11c-.06,0-.08.03-.08.08v1.56c0,.29,0,.59-.03.89,0,.06.03.08.08.08Z"/><path d="m77.42,185.07c-.21,0-.35-.1-.42-.31-.2-.61-.34-1.28-.43-2.03-.09-.75-.14-1.5-.14-2.27,0-.83.05-1.64.15-2.44.1-.8.26-1.51.46-2.14.03-.1.09-.18.17-.24.09-.06.18-.08.29-.08.13,0,.24.04.32.13s.12.19.12.31c0,.06,0,.1-.01.13-.19.6-.33,1.27-.43,2.02-.1.75-.15,1.51-.15,2.29,0,.73.04,1.44.13,2.14s.21,1.34.38,1.92c0,.03.01.07.01.13,0,.12-.04.23-.13.32-.08.09-.19.13-.32.13Zm8.39-1.08c-.39.13-.82.24-1.3.32-.47.08-.95.13-1.45.13-.71,0-1.41-.1-2.11-.31-.7-.21-1.3-.56-1.83-1.06-.09-.09-.14-.2-.14-.32s.05-.23.14-.32c.08-.08.18-.13.28-.13.12,0,.23.04.32.13.43.37.94.65,1.53.84.59.19,1.22.28,1.88.28.39,0,.79-.03,1.2-.1.41-.07.82-.17,1.22-.31.06-.02.1-.03.14-.03.11,0,.21.04.29.13s.13.19.13.32c0,.21-.11.36-.32.43Zm-5.91-6.09c-.1-.02-.19-.07-.26-.15-.07-.08-.11-.18-.11-.28,0-.15.05-.27.14-.35.09-.08.21-.12.34-.1.37.06.76.1,1.16.13.4.03.8.04,1.2.04.47,0,.92-.02,1.36-.06.44-.04.84-.09,1.2-.17.13-.02.25.01.34.1s.15.19.15.32c0,.1-.03.2-.1.29s-.16.15-.27.17c-.81.16-1.74.24-2.77.24-.4,0-.8-.01-1.2-.04s-.79-.07-1.18-.14Z"/><path d="m92.2,186.07c-.12,0-.22-.04-.29-.12-.08-.08-.11-.18-.11-.29v-5.43s-.01-.06-.04-.06-.04.01-.06.05c-.12.33-.26.65-.41.97-.15.32-.33.62-.51.9-.06.09-.14.14-.27.14-.09,0-.17-.03-.24-.1-.09-.09-.14-.21-.14-.35,0-.11.03-.21.08-.31.24-.38.46-.81.65-1.27.19-.47.35-.93.48-1.4s.21-.9.25-1.29c-.03-.05-.06-.07-.08-.07h-.88c-.11,0-.21-.04-.29-.12-.08-.08-.13-.18-.13-.3s.04-.22.13-.3.18-.12.29-.12h1.09c.06,0,.08-.03.08-.08v-1.9c0-.11.04-.21.12-.28.08-.08.17-.11.29-.11s.21.04.29.12c.08.08.12.17.12.27v1.9c0,.06.03.08.08.08h.59c.12,0,.22.04.3.13.08.08.12.18.12.29,0,.12-.04.22-.12.3-.08.08-.18.12-.3.12h-.59c-.06,0-.08.03-.08.08v.62s0,.06.03.1c.16.21.3.48.43.79.13.31.25.63.36.97s.19.63.25.9c.02.09,0,.18-.04.26-.05.08-.12.13-.22.16,0,0-.02,0-.03,0,0,0-.02,0-.04,0-.15,0-.24-.08-.27-.24-.04-.2-.09-.41-.15-.64-.07-.23-.14-.45-.21-.67,0-.05-.03-.07-.06-.06-.03,0-.04.03-.04.07v5.87c0,.12-.04.22-.13.29-.08.07-.18.11-.28.11Zm1.93-.25c-.12,0-.22-.04-.3-.12s-.12-.18-.12-.29c0-.12.04-.22.12-.29.08-.08.18-.11.3-.11h7.34c.11,0,.21.04.29.11s.12.17.12.29-.04.22-.12.29c-.08.07-.17.11-.29.11h-7.34Zm2.21-1.54c-.12,0-.22-.04-.3-.13-.08-.09-.12-.19-.12-.31,0-.11.04-.21.12-.29s.18-.12.3-.12c.33,0,.56-.04.71-.11.15-.07.25-.18.29-.33s.06-.34.06-.56v-4.47c0-.06-.03-.08-.08-.08h-.8c-.13,0-.24-.05-.32-.15-.08-.1-.13-.21-.13-.33,0-.03,0-.06,0-.08,0-.03.01-.06.02-.08.1-.26.2-.56.29-.89.09-.33.17-.64.24-.93,0-.07-.03-.1-.08-.1h-2.34c-.12,0-.22-.04-.29-.12-.08-.08-.11-.18-.11-.29,0-.12.04-.22.12-.29s.17-.11.29-.11h7.15c.11,0,.21.04.29.12.08.08.12.17.12.29s-.04.21-.12.29c-.08.08-.18.12-.29.12h-3.78s-.07.02-.08.07c-.06.26-.12.54-.2.84-.07.3-.15.55-.22.76-.02.06,0,.1.07.1h.31c.21,0,.39.07.54.22s.22.32.22.54v4.65c0,.63-.15,1.09-.44,1.38-.29.28-.77.42-1.43.41Zm-1.57-1.3c-.21,0-.39-.08-.54-.22-.14-.15-.22-.33-.22-.53v-3.11c0-.21.08-.39.22-.54.15-.14.33-.22.53-.22h.85c.21,0,.39.08.54.22s.22.33.22.53v3.11c0,.21-.07.38-.22.53s-.32.22-.54.22h-.85Zm.08-.71h.7c.06,0,.08-.03.08-.08v-3.02c0-.06-.03-.08-.08-.08h-.7c-.06,0-.08.03-.08.08v3.02c0,.06.03.08.08.08Zm6.68,1.92c-.22-.16-.44-.36-.66-.61s-.42-.52-.62-.82c-.05-.07-.08-.07-.11,0-.17.24-.34.47-.52.67-.18.21-.36.39-.55.56-.07.05-.14.07-.21.07-.13,0-.23-.06-.31-.17-.06-.08-.08-.18-.08-.28,0-.14.06-.27.17-.38.21-.21.4-.42.57-.64.18-.22.34-.45.49-.69,0-.04,0-.08,0-.11-.24-.48-.45-.95-.62-1.41s-.28-.87-.35-1.22c-.02-.1,0-.2.08-.29.07-.09.17-.14.29-.14.2,0,.32.1.36.31.06.27.14.56.25.88.11.32.24.63.38.95.02.04.04.06.06.06s.04-.02.05-.06c.35-.81.57-1.71.67-2.7.02-.06,0-.08-.07-.08h-1.81c-.1,0-.19-.04-.27-.11-.08-.07-.12-.17-.12-.28,0-.1.04-.19.12-.27s.17-.12.27-.12h2.09c.21,0,.39.08.53.22.14.15.2.33.18.53-.07.69-.2,1.36-.41,2.01-.21.65-.45,1.25-.74,1.8-.02.05-.01.09.01.14.18.29.36.56.55.8.19.25.38.45.55.61.14.12.21.27.21.43,0,.12-.04.21-.1.28-.07.07-.15.1-.23.1-.05,0-.09-.01-.14-.04Z"/><path d="m105.43,183.08c-.1-.08-.15-.2-.15-.35,0-.1.03-.2.08-.28.92-1.35,1.55-2.91,1.89-4.68.07-.23.21-.35.43-.35.16,0,.28.06.36.17.08.11.11.23.09.36-.09.54-.24,1.12-.43,1.72-.2.61-.43,1.2-.71,1.78s-.6,1.1-.95,1.57c-.08.1-.19.15-.32.15-.08,0-.18-.03-.28-.1Zm3.71,2.93c-.12,0-.22-.06-.29-.14-.08-.08-.11-.18-.11-.29,0-.15.05-.27.15-.36.1-.09.21-.13.34-.12.1,0,.2.02.28.02s.16,0,.24,0c.26,0,.46-.05.6-.15.14-.1.21-.3.21-.59v-9.67c0-.12.04-.23.13-.32.09-.09.2-.13.33-.13s.24.04.32.13c.08.09.13.19.13.32v9.67c0,1.09-.63,1.64-1.89,1.64h-.21c-.08,0-.15,0-.22-.01Zm7.29-2.9c-.09.07-.19.1-.28.1-.16,0-.28-.07-.36-.2-.31-.48-.6-1.01-.88-1.6s-.52-1.19-.73-1.8c-.21-.61-.38-1.16-.5-1.65-.04-.13-.01-.25.08-.36.09-.11.2-.17.34-.17.25,0,.41.12.46.36.34,1.58,1.01,3.12,1.99,4.63.06.08.08.18.08.28,0,.17-.07.3-.2.41Z"/><path d="m126.56,184.92c-.13,0-.25-.03-.36-.11-.11-.08-.17-.2-.17-.35,0-.11.04-.21.11-.3s.17-.14.29-.16c1.18-.19,2.09-.59,2.73-1.2s.95-1.4.95-2.37c0-.62-.15-1.18-.46-1.65-.3-.48-.71-.85-1.2-1.13-.5-.27-1.04-.41-1.63-.41-.07,0-.12.04-.14.11-.18.8-.39,1.6-.64,2.38-.25.78-.55,1.5-.9,2.16-.78,1.46-1.6,2.18-2.44,2.18-.05,0-.1,0-.15,0-.05,0-.1-.01-.15-.02-.43-.1-.75-.36-.97-.78-.21-.42-.32-.91-.32-1.48,0-.52.1-1.08.29-1.66.19-.58.47-1.13.85-1.64.53-.73,1.18-1.27,1.95-1.62.77-.35,1.55-.53,2.35-.53.64,0,1.26.11,1.84.34.58.23,1.09.56,1.53,1,.44.44.75.99.94,1.64.06.18.1.36.12.56s.04.4.04.6c0,.49-.09.97-.26,1.45-.17.48-.44.93-.8,1.34-.36.42-.82.77-1.38,1.06-.56.29-1.23.49-2.02.59Zm-4.41-2.11c.16.25.34.38.53.38s.42-.12.66-.35.47-.55.71-.95.46-.85.68-1.34.41-1.01.58-1.55c.17-.54.31-1.05.41-1.55v-.03c0-.08-.04-.12-.13-.1-.62.1-1.18.34-1.7.71-.52.37-.94.83-1.27,1.38-.22.38-.39.79-.51,1.22-.12.43-.17.83-.17,1.2,0,.41.07.74.21.98Z"/><path d="m135.66,185.86s-.1.06-.17.06c-.17,0-.29-.09-.35-.27,0-.03-.02-.06-.02-.08,0-.03,0-.06,0-.08,0-.23.1-.42.31-.55.45-.3.89-.72,1.32-1.25.43-.54.82-1.15,1.15-1.85.33-.7.57-1.43.72-2.19.02-.11.08-.2.17-.27s.2-.08.3-.04c.13.04.23.11.3.21.07.1.09.22.08.35-.15.79-.41,1.57-.78,2.34-.37.77-.82,1.47-1.34,2.1-.52.63-1.08,1.14-1.69,1.52Zm.42-6.24c-.12,0-.23-.04-.31-.13-.09-.09-.13-.19-.13-.31v-2.18c0-.21.08-.39.22-.54.15-.14.33-.22.53-.22h4.07c.06,0,.08-.03.08-.08v-1.57c0-.13.04-.24.13-.32s.19-.13.32-.13c.13,0,.24.04.32.13s.13.19.13.32v1.57c0,.06.03.08.08.08h4.07c.21,0,.39.07.54.22.15.15.22.33.22.53v2.18c0,.12-.04.23-.13.31-.08.09-.19.13-.31.13s-.23-.04-.31-.13c-.09-.09-.13-.19-.13-.31v-1.97c0-.06-.03-.08-.08-.08h-8.79c-.06,0-.08.03-.08.08v1.97c0,.12-.04.23-.13.31-.08.09-.19.13-.31.13Zm10.14,6.22c-.6-.4-1.15-.91-1.66-1.53-.51-.62-.96-1.32-1.34-2.1s-.69-1.61-.92-2.49c0-.03-.01-.07-.01-.11,0-.11.04-.21.12-.3.08-.09.19-.13.33-.13.22,0,.36.11.41.32.17.63.41,1.29.71,1.98.31.69.69,1.33,1.13,1.94s.96,1.12,1.54,1.53c.18.13.27.3.27.5,0,.14-.04.25-.12.33-.08.08-.17.12-.27.12-.08,0-.14-.02-.18-.06Z"/><path d="m155.54,185.42c-1.47,0-2.32-.41-2.58-1.22-.07-.19-.1-.38-.1-.57,0-.5.25-1,.75-1.48.5-.49,1.29-1.01,2.37-1.58.08-.05.09-.1.06-.17-.21-.38-.57-.57-1.06-.57s-1.08.18-1.78.55c-.04.02-.08.05-.13.1l-.27.21c-.06.05-.13.07-.22.07-.18,0-.31-.07-.39-.21-.06-.08-.08-.17-.08-.25,0-.14.07-.27.21-.39.64-.5,1.19-1.16,1.64-1.99,0-.02.01-.04.01-.07,0-.07-.04-.09-.11-.07-.65.08-1.23.14-1.74.17-.12,0-.23-.03-.32-.12-.09-.09-.13-.19-.13-.31,0-.13.04-.24.13-.32s.2-.13.33-.14c.35-.02.72-.04,1.08-.08.37-.03.74-.08,1.13-.15.07-.02.12-.06.13-.11.2-.49.36-1.03.5-1.62.07-.23.21-.35.43-.35.13,0,.24.04.33.13.09.09.13.19.13.3,0,.06,0,.1-.01.13-.06.2-.11.39-.17.57-.06.19-.12.37-.18.56,0,0,0,.02,0,.03,0,0,0,.02,0,.03,0,.07.05.1.14.07.29-.07.57-.16.85-.25.28-.09.55-.19.81-.29.06-.03.12-.04.18-.04.2,0,.32.09.38.27.03.06.04.12.04.18,0,.2-.09.33-.28.41-.36.15-.76.28-1.18.41-.42.12-.84.23-1.27.32-.07,0-.11.04-.14.1-.11.24-.22.47-.34.69-.11.22-.23.43-.36.62-.02.04-.03.06-.03.07,0,.05.04.07.13.06.27-.06.51-.08.73-.08.42,0,.77.09,1.05.27.28.18.49.42.64.71.05.07.1.09.17.06.35-.19.72-.39,1.11-.62.38-.22.79-.49,1.23-.8.08-.06.16-.08.25-.08.16,0,.28.07.36.2.06.08.08.17.08.25,0,.17-.07.3-.21.39-.32.21-.61.4-.88.56-.27.16-.53.31-.8.46-.27.15-.58.31-.94.48-.07.03-.09.08-.08.15.07.42.11,1.03.14,1.82,0,.12-.04.23-.13.32s-.19.13-.32.13c-.12,0-.23-.04-.32-.13s-.14-.19-.15-.32c-.02-.5-.05-.96-.08-1.36,0-.11-.05-.14-.15-.08-1.56.81-2.34,1.54-2.34,2.2,0,.09.01.19.04.29.09.23.27.4.53.51.26.11.68.16,1.25.16.42,0,.94-.03,1.55-.08.62-.06,1.36-.13,2.24-.22.15-.02.28.02.38.12s.16.22.16.37c0,.12-.04.23-.13.33-.08.1-.19.15-.32.16-.38.04-.92.08-1.61.12-.69.04-1.48.06-2.37.06Z"/><path d="m171.29,185.7c-.12,0-.22-.03-.31-.11s-.13-.19-.13-.31.04-.23.13-.32c.09-.09.19-.14.31-.15.41-.03.83-.09,1.26-.2.43-.1.83-.25,1.21-.45.38-.2.7-.44.96-.74.35-.41.53-.9.53-1.46,0-.42-.11-.82-.34-1.21-.22-.39-.57-.69-1.04-.92-.07-.03-.12-.02-.17.03l-3.47,3.57c-.54.57-1.04.97-1.49,1.19-.45.22-.86.34-1.21.34-.32,0-.59-.06-.81-.19-.22-.13-.4-.26-.53-.41-.26-.33-.39-.7-.39-1.13s.14-.9.41-1.37c.27-.46.66-.9,1.15-1.32.5-.42,1.06-.77,1.71-1.07.08-.03.1-.08.08-.15-.04-.23-.07-.47-.08-.71s-.04-.47-.06-.71c0-.09-.04-.13-.13-.11-.49.06-.96.11-1.43.14-.47.03-.93.04-1.37.04-.11,0-.21-.04-.29-.12s-.13-.18-.13-.3.04-.23.12-.32c.08-.09.18-.13.31-.13.5,0,.99-.02,1.45-.05s.91-.08,1.35-.15c.08-.02.11-.06.11-.13.02-.32.05-.63.08-.94.04-.31.08-.61.14-.9.05-.21.18-.32.41-.32.15,0,.26.06.34.17.08.11.11.24.09.38-.05.23-.09.47-.12.71-.03.24-.06.49-.08.73v.03c0,.07.04.1.13.08.47-.1.93-.22,1.39-.36s.92-.3,1.4-.48c.06-.02.1-.03.14-.03.11,0,.21.04.29.13s.13.19.13.32c0,.21-.1.35-.31.45-.97.38-2,.67-3.08.87-.08.02-.11.06-.11.13,0,.21.02.43.04.63s.04.41.08.62c.02.08.07.11.14.08.72-.22,1.49-.34,2.31-.34h.27c.09,0,.18,0,.27.01.66.06,1.23.24,1.71.56s.85.71,1.11,1.18c.26.47.39.97.39,1.49,0,.56-.17,1.11-.5,1.64-.33.53-.86.98-1.58,1.36s-1.67.61-2.83.7Zm-3.71-1.61c.33,0,.65-.1.97-.29.32-.2.69-.51,1.1-.95l.31-.32s.06-.1.03-.17c-.13-.3-.25-.61-.35-.93-.1-.32-.19-.65-.27-.99,0-.04-.03-.06-.1-.06s-.15.03-.27.08c-.83.46-1.43.93-1.79,1.43-.36.49-.55.93-.55,1.32,0,.26.08.47.25.64.16.16.38.24.67.24Zm3.25-2.45l1.88-1.95s.04-.06.04-.08c0-.05-.03-.07-.1-.07-.05,0-.1,0-.15,0s-.1,0-.15,0c-.3,0-.62.03-.97.09-.34.06-.72.16-1.12.3-.07.03-.09.09-.08.18.07.27.15.53.22.78.07.25.16.49.25.71.02.05.04.08.08.08.03,0,.06,0,.09-.04Z"/><path d="m182.44,184.82c-.09,0-.18-.03-.26-.08s-.13-.12-.16-.22c-.23-.8-.4-1.58-.51-2.32s-.16-1.45-.16-2.13c0-.97.08-1.86.25-2.67s.37-1.52.6-2.15c.06-.18.18-.27.38-.27.13,0,.24.04.31.13s.12.19.12.31c0,.03,0,.06,0,.08,0,.03-.01.06-.02.08-.26.68-.46,1.38-.59,2.1s-.2,1.46-.2,2.23c0,1.39.21,2.83.64,4.31,0,.03.01.07.01.13,0,.12-.04.23-.11.32-.08.09-.18.13-.31.13Zm3.12.45s-.05.02-.08.02-.05,0-.08,0c-.12,0-.23-.05-.32-.14-.09-.09-.14-.21-.14-.34,0-.21.1-.36.29-.43.55-.22,1.01-.48,1.38-.77.37-.29.66-.65.88-1.07.21-.42.36-.95.45-1.56.08-.62.12-1.36.11-2.23,0-.1-.04-.14-.13-.13-.45.03-.9.04-1.34.04s-.88-.01-1.33-.04-.89-.07-1.33-.11c-.11-.02-.21-.07-.28-.15-.07-.08-.11-.17-.11-.29,0-.13.05-.24.15-.32s.21-.12.33-.1c.4.05.82.09,1.27.12s.9.05,1.38.05c.41,0,.83-.01,1.25-.04.08-.02.12-.07.11-.14-.03-.38-.07-.75-.11-1.11s-.11-.77-.18-1.22c-.02-.13.02-.25.11-.35.09-.1.2-.15.33-.15.12,0,.22.04.31.11.08.08.13.16.15.27.06.34.12.7.15,1.09.04.39.07.82.08,1.29,0,.08.04.12.13.11.27-.04.54-.08.81-.13.27-.05.54-.11.8-.17.13-.03.25,0,.35.07.1.07.15.19.15.34,0,.25-.13.41-.38.48-.27.06-.55.11-.83.15-.29.04-.57.08-.86.12-.08,0-.13.06-.13.14,0,.11,0,.22,0,.34s0,.22,0,.34c0,.96-.09,1.83-.27,2.59-.18.77-.52,1.43-1,1.99-.49.56-1.18,1.01-2.07,1.36Z"/><path d="m200.71,185.55c-.58,0-1.04-.08-1.38-.24-.34-.16-.58-.36-.73-.61-.15-.25-.22-.5-.22-.75,0-.13.02-.26.06-.39s.08-.25.14-.35c.26-.45.59-.67.98-.67.18,0,.36.04.56.13.34.15.68.39,1.03.74.35.34.67.69.96,1.04.05.06.1.07.17.04.37-.14.72-.32,1.04-.53s.58-.46.78-.76c.23-.33.35-.7.35-1.12,0-.31-.07-.6-.22-.89-.14-.29-.36-.53-.65-.74s-.66-.33-1.11-.38c-.09-.02-.19-.03-.28-.03h-.29c-.72,0-1.44.17-2.16.51-.72.34-1.48.87-2.28,1.59-.08.07-.19.11-.32.11-.1,0-.19-.02-.27-.07-.1-.07-.15-.17-.15-.29,0-.08.02-.15.06-.2.77-1.14,1.51-2.15,2.21-3.04s1.36-1.65,2-2.28c.08-.08.07-.11-.04-.08-.24.07-.58.12-1.02.16-.43.04-.88.06-1.35.06h-.34c-.11,0-.22,0-.32-.01-.11,0-.21-.06-.29-.15-.08-.09-.12-.19-.12-.3,0-.13.05-.24.14-.33.09-.09.21-.13.34-.12.38.03.75.04,1.11.04.49,0,.95-.03,1.39-.09.44-.06.87-.16,1.3-.3.03,0,.06-.02.08-.02s.06,0,.08,0c.22,0,.37.1.45.29.04.07.06.16.06.25,0,.2-.08.36-.22.49-.5.45-.93.87-1.29,1.26-.37.39-.72.8-1.05,1.21s-.68.89-1.06,1.42c-.02.04-.03.07-.03.08,0,.07.05.09.14.04.54-.3,1.11-.54,1.7-.73.59-.19,1.17-.28,1.73-.28.72,0,1.33.17,1.83.5.5.33.84.78,1.02,1.35.09.29.14.59.14.91,0,.64-.2,1.23-.6,1.76s-.95.96-1.64,1.27c-.7.32-1.5.48-2.4.48Zm.5-.83c.06,0,.09-.02.11-.06s0-.07-.04-.11c-.24-.3-.51-.57-.81-.83-.3-.25-.57-.38-.81-.38-.14,0-.26.04-.35.13-.09.09-.14.2-.14.34,0,.07.01.13.04.21.09.21.25.37.46.48.21.1.45.17.73.19s.55.03.82.02Z"/></g><rect class="cls-7" x=".6" y="160.16" width="251.8" height="38.34" rx="4.68" ry="4.68"/><g><rect class="cls-2" x="45.5" y="68" width="162" height="82"/><rect class="cls-1" x="45.5" y="68" width="162" height="5"/><g><circle class="cls-3" cx="114" cy="70.5" r="11.43"/><circle class="cls-3" cx="140" cy="70.5" r="11.43"/></g><g><polygon class="cls-6" points="113.5 58.72 113.5 36.06 111.5 36.06 111.5 58.72 108.58 58.72 112.5 66.06 116.42 58.72 113.5 58.72"/><polygon class="cls-5" points="127.5 58.72 127.5 36.06 125.5 36.06 125.5 58.72 122.58 58.72 126.5 66.06 130.42 58.72 127.5 58.72"/><polygon class="cls-4" points="142.5 58.72 142.5 36.06 140.5 36.06 140.5 58.72 137.58 58.72 141.5 66.06 145.42 58.72 142.5 58.72"/></g><g><path d="m75.6,108.59c-2.73-.56-4.62-2.17-5.68-4.82-.03-.06-.07-.07-.11-.03-.29.26-.6.52-.93.76-.33.25-.68.48-1.04.71-.04,0-.06.04-.06.1v1.93c0,.06.03.09.1.08.35-.08.71-.17,1.08-.29.36-.12.71-.24,1.04-.37.06-.03.11-.04.17-.04.11,0,.21.04.28.12.07.08.11.19.11.32,0,.22-.11.38-.32.48-.35.12-.75.25-1.22.39-.47.14-.93.25-1.39.34-.19.04-.35,0-.5-.14-.15-.13-.22-.3-.22-.5v-1.79c0-.08-.03-.11-.1-.07-.57.27-1.15.5-1.74.7-.03,0-.07.01-.13.01-.11,0-.21-.04-.3-.12s-.13-.18-.13-.32c0-.21.1-.36.31-.43.99-.34,1.82-.7,2.48-1.1.67-.4,1.23-.8,1.7-1.21.03-.02.04-.04.03-.06,0-.02-.03-.04-.07-.04h-3.82c-.12,0-.22-.04-.31-.13s-.13-.19-.13-.31.04-.22.13-.31.19-.12.31-.12h4.63c.06,0,.08-.03.08-.08v-1.09c0-.06-.03-.08-.08-.08h-3.15c-.11,0-.21-.04-.29-.12-.08-.08-.13-.18-.13-.3s.04-.22.13-.3.18-.12.29-.12h3.15c.06,0,.08-.03.08-.08v-1.09c0-.06-.03-.08-.08-.08h-3.82c-.12,0-.22-.04-.31-.12s-.13-.18-.13-.3.04-.22.13-.31.19-.13.31-.13h3.82c.06,0,.08-.03.08-.08v-.8c0-.12.04-.22.13-.31s.19-.13.31-.13c.13,0,.24.04.32.13.08.08.12.19.12.31v.8c0,.06.03.08.08.08h3.82c.13,0,.24.04.32.13.08.08.12.19.12.31s-.04.22-.13.3-.19.12-.31.12h-3.82c-.06,0-.08.03-.08.08v1.09c0,.06.03.08.08.08h3.15c.12,0,.22.04.3.13s.12.18.12.29c0,.12-.04.22-.12.3-.08.08-.18.12-.3.12h-3.15c-.06,0-.08.03-.08.08v1.09c0,.05.03.08.08.08h4.63c.13,0,.24.04.31.12s.12.19.12.31-.04.22-.13.31-.19.13-.31.13h-4.7c-.07,0-.08.03-.06.1.36.94.81,1.72,1.37,2.34.04.04.08.04.13.01.34-.19.7-.43,1.08-.73.39-.3.71-.62.97-.98.08-.12.2-.18.35-.18.08,0,.16.02.24.07.14.09.21.22.21.38,0,.09-.03.18-.08.25-.23.32-.54.63-.93.95-.39.32-.78.6-1.17.85-.06.05-.06.08-.01.11.81.65,1.82,1.11,3.01,1.36.21.05.32.18.32.41,0,.15-.06.27-.18.35-.12.08-.25.12-.38.1Z"/><path d="m90.56,108.69c-1.67-.3-3.13-.9-4.38-1.79-.04-.03-.08-.03-.11,0-.67.48-1.4.86-2.17,1.15s-1.55.5-2.34.63c-.13.02-.25-.01-.35-.1-.1-.08-.15-.2-.15-.35,0-.1.04-.2.1-.29.07-.09.16-.14.27-.16.77-.14,1.49-.33,2.13-.57.65-.24,1.23-.53,1.76-.87.06-.04.06-.08.01-.13-.4-.35-.77-.75-1.11-1.18-.34-.43-.65-.89-.95-1.37-.04-.05-.06-.11-.06-.2,0-.07.02-.15.06-.22.04-.08.1-.13.18-.17.04-.02.07-.03.1-.04.03,0,.06-.01.1-.01.18,0,.31.08.41.24.56.95,1.23,1.76,2,2.42.04.04.08.04.11,0,.85-.74,1.5-1.67,1.95-2.79.04-.07.02-.1-.06-.1h-6.26c-.06,0-.08.03-.08.08-.07.97-.18,1.93-.35,2.88-.17.95-.43,1.84-.78,2.67-.08.16-.21.24-.39.24-.06,0-.12-.01-.2-.04-.17-.08-.25-.23-.25-.43,0-.07.01-.13.04-.2.18-.39.33-.82.47-1.28.13-.46.25-1,.34-1.61.09-.61.17-1.33.22-2.15.05-.82.08-1.79.08-2.9v-.87c0-.21.08-.39.22-.54.15-.14.33-.22.53-.22h3.32c.06,0,.08-.03.08-.08v-1.13c0-.13.04-.24.13-.32s.19-.13.31-.13c.13,0,.24.04.32.13s.13.19.13.32v1.13c0,.06.03.08.08.08h3.61c.16,0,.29.06.41.17.11.11.17.24.17.39v.07s0,.05-.01.07c-.17.58-.37,1.1-.62,1.57-.08.18-.23.27-.45.27-.15,0-.26-.05-.34-.14-.08-.09-.12-.2-.12-.32,0-.05,0-.09.01-.14,0-.05.03-.09.06-.12.08-.13.16-.27.22-.41.06-.14.13-.29.18-.44.04-.07.02-.1-.06-.1h-3.07c-.06,0-.08.03-.08.08v2.45c0,.05.03.08.08.08h2.63c.16,0,.29.05.4.16s.16.24.16.38c0,.03,0,.08-.03.15-.24.75-.56,1.42-.95,2.02-.39.6-.83,1.12-1.33,1.58-.05.05-.05.08,0,.11,1.07.73,2.34,1.23,3.79,1.5.11.02.2.07.27.15.07.08.1.17.1.27,0,.14-.05.25-.15.34-.1.09-.22.12-.35.11Zm-8.72-6.78h3.14c.06,0,.08-.03.08-.08v-2.45c0-.06-.03-.08-.08-.08h-3.11c-.06,0-.08.03-.08.08v1.56c0,.29,0,.59-.03.89,0,.05.03.08.08.08Z"/><path d="m100.79,107.57c-.13,0-.25-.03-.36-.11-.11-.08-.17-.2-.17-.35,0-.11.04-.21.11-.3.07-.09.17-.14.29-.16,1.18-.19,2.09-.59,2.73-1.2s.95-1.4.95-2.37c0-.62-.15-1.18-.46-1.65-.3-.48-.71-.85-1.2-1.13s-1.04-.41-1.63-.41c-.07,0-.12.04-.14.11-.18.8-.39,1.6-.64,2.38-.25.78-.55,1.5-.9,2.16-.78,1.46-1.6,2.18-2.44,2.18-.05,0-.1,0-.15,0-.05,0-.1-.01-.15-.02-.43-.1-.75-.36-.97-.78-.21-.42-.32-.91-.32-1.48,0-.52.1-1.08.29-1.66s.47-1.13.85-1.65c.53-.73,1.18-1.27,1.95-1.62.77-.35,1.55-.52,2.35-.52.64,0,1.26.11,1.84.34s1.09.56,1.53,1c.44.44.75.98.94,1.64.06.18.1.37.12.56.02.2.04.4.04.6,0,.49-.09.97-.26,1.45-.17.48-.44.93-.8,1.34-.36.42-.82.77-1.38,1.06-.56.29-1.23.49-2.02.59Zm-4.41-2.11c.16.25.34.38.53.38s.42-.12.66-.35.47-.55.71-.95c.24-.4.46-.85.68-1.34s.41-1.01.58-1.55.31-1.05.41-1.55v-.03c0-.08-.04-.12-.13-.1-.62.1-1.18.34-1.7.71-.52.37-.94.83-1.27,1.38-.22.38-.39.79-.51,1.23-.12.43-.17.83-.17,1.2,0,.41.07.74.21.98Z"/><path d="m112.4,108.24c-.07.04-.14.06-.22.06-.17,0-.29-.07-.38-.21-.04-.07-.06-.14-.06-.21,0-.17.08-.3.22-.39.77-.46,1.47-.94,2.09-1.45.62-.51,1.16-1.03,1.64-1.56.05-.07.05-.13,0-.18-.22-.32-.52-.62-.88-.9s-.74-.51-1.13-.68c-.18-.08-.27-.21-.27-.39,0-.07.01-.12.04-.15.1-.2.26-.29.46-.29.07,0,.13.01.2.04.43.18.83.42,1.2.73s.69.62.95.92c.06.07.11.07.17,0,.24-.32.46-.63.64-.94.19-.31.35-.61.5-.9.18-.35.27-.68.27-.96,0-.59-.37-.88-1.12-.88h-1.97c-.06,0-.11.03-.15.08-.43.59-.92,1.16-1.46,1.73-.55.56-1.12,1.07-1.71,1.52-.08.07-.17.1-.25.1-.13,0-.25-.06-.35-.2-.06-.08-.08-.17-.08-.25,0-.14.06-.26.18-.36.77-.61,1.44-1.22,1.99-1.84.55-.62,1-1.21,1.36-1.76s.62-1.01.81-1.39c.09-.18.23-.27.42-.27.13,0,.24.04.31.13.08.09.12.18.12.29,0,.08-.01.14-.04.2-.07.17-.16.34-.26.5s-.2.34-.3.52c-.02.04-.03.06-.03.07,0,.06.04.08.11.08h1.32c.51,0,.92.07,1.22.22.3.14.51.33.64.57s.2.5.2.78c0,.24-.04.49-.11.76-.08.26-.17.51-.29.76-.4.79-.87,1.54-1.41,2.23-.54.69-1.18,1.36-1.92,1.99-.74.64-1.63,1.28-2.67,1.91Zm7.48-8.69s-.08.04-.14.04c-.1,0-.18-.04-.24-.13-.15-.23-.33-.48-.53-.74-.21-.26-.4-.48-.59-.66-.07-.07-.1-.14-.1-.21,0-.08.03-.14.08-.18.06-.07.13-.1.21-.1.08,0,.14.03.2.08.21.21.41.44.62.71.21.27.4.53.57.78.03.04.04.09.04.15,0,.1-.04.18-.13.24Zm1.05-.62s-.08.04-.14.04c-.1,0-.18-.04-.24-.13-.15-.23-.32-.48-.52-.73-.2-.25-.39-.47-.57-.64-.05-.07-.07-.13-.07-.18,0-.07.02-.13.07-.18.07-.06.14-.1.21-.1s.14.03.2.08c.21.21.41.44.6.69.2.26.38.51.55.76.03.04.04.08.04.14,0,.1-.04.18-.13.24Z"/><path d="m126.72,107.85c-.07.04-.13.06-.21.06-.19,0-.33-.08-.42-.25-.04-.07-.06-.14-.06-.24,0-.19.08-.32.24-.41.84-.49,1.61-1.03,2.3-1.64.7-.61,1.32-1.27,1.87-1.99.02-.02.03-.05.03-.08,0-.05-.02-.07-.07-.08-.41-.21-.84-.4-1.3-.57-.46-.16-.94-.31-1.46-.44-.11-.03-.2-.09-.27-.17s-.1-.18-.1-.29c0-.18.07-.31.2-.4.13-.09.27-.12.41-.09.53.12,1.06.28,1.58.49.52.21,1.01.44,1.49.7.04.02.07.03.08.03.04,0,.07-.02.1-.07.39-.63.74-1.3,1.04-2s.55-1.44.76-2.21c.02-.1.07-.19.16-.25s.18-.1.29-.1c.15,0,.27.05.36.14.09.09.13.2.13.32,0,.06,0,.1-.01.13-.18.78-.43,1.55-.76,2.29-.33.74-.71,1.46-1.15,2.15-.02.04-.03.06-.03.07,0,.05.03.08.08.11.77.5,1.44,1.02,2.03,1.58.12.12.18.26.18.42,0,.12-.04.23-.11.34-.08.11-.2.17-.34.17-.1,0-.2-.04-.29-.11-.68-.65-1.36-1.2-2.03-1.62-.07-.06-.12-.05-.17.03-.61.8-1.3,1.54-2.07,2.22-.77.68-1.6,1.27-2.49,1.79Z"/><path d="m140.82,103.27c-.12,0-.23-.04-.31-.13s-.13-.19-.13-.32c0-.13.04-.24.13-.32.09-.08.19-.13.31-.13h8.74c.12,0,.23.04.31.13s.13.19.13.32c0,.12-.04.23-.13.32-.08.09-.19.13-.32.13h-8.74Z"/><path d="m157.97,103.48c-.32-.14-.68-.25-1.08-.34-.41-.09-.78-.14-1.13-.16-.12,0-.22-.05-.31-.13-.08-.08-.13-.17-.13-.29,0-.14.05-.26.14-.35.09-.09.2-.14.32-.14.38.02.8.08,1.27.17s.88.23,1.27.41c.18.08.27.21.27.42,0,.14-.04.25-.13.34s-.19.13-.31.13c-.05,0-.11-.01-.18-.04Zm.83-3.02c-.68-.44-1.45-.71-2.3-.83-.12-.02-.21-.07-.28-.15s-.1-.17-.1-.27c0-.14.05-.26.16-.35s.22-.13.34-.11c.44.05.88.15,1.33.3s.86.35,1.23.59c.15.09.22.23.22.42,0,.09-.02.18-.06.25-.08.13-.19.2-.35.2-.07,0-.14-.02-.21-.06Zm-1.99,7.52s-.07.01-.13.01c-.13,0-.25-.05-.35-.14s-.15-.21-.15-.36c0-.23.12-.38.35-.45.6-.17,1.24-.41,1.92-.73.68-.32,1.36-.71,2.04-1.17.68-.46,1.33-.99,1.94-1.58s1.15-1.24,1.6-1.95c.08-.13.21-.2.38-.2.1,0,.19.03.25.08.15.09.22.24.22.43,0,.11-.03.21-.08.29-.37.58-.85,1.16-1.43,1.75-.58.59-1.22,1.15-1.94,1.68-.71.53-1.46,1-2.25,1.4-.79.4-1.58.7-2.37.91Zm7.59-7.9s-.08.04-.14.04c-.1,0-.18-.04-.24-.12-.15-.23-.32-.48-.52-.74-.2-.26-.39-.48-.58-.66-.07-.07-.1-.13-.1-.21,0-.06.03-.12.08-.18s.13-.08.21-.08c.07,0,.13.02.18.07.21.21.43.44.64.71s.4.53.57.78c.03.04.04.08.04.14,0,.11-.05.2-.14.25Zm1.06-.6s-.08.04-.14.04c-.1,0-.18-.04-.24-.13-.15-.23-.32-.48-.52-.74-.2-.26-.39-.47-.57-.65-.06-.06-.08-.12-.08-.18,0-.08.03-.14.08-.18.06-.06.12-.08.2-.08.09,0,.16.03.2.08.21.21.42.43.62.69s.38.5.55.76c.03.04.04.08.04.14,0,.09-.04.18-.13.25Z"/></g><path d="m186.61,107.31c.3.14.45.39.45.74,0,.24-.08.43-.23.57-.16.14-.33.21-.52.21-.12,0-.22-.02-.31-.07-.66-.31-1.31-.73-1.95-1.25-.64-.52-1.25-1.1-1.83-1.75-.58-.64-1.1-1.31-1.58-2-.48-.69-.89-1.37-1.22-2.03-.01-.04-.03-.05-.06-.05s-.06.03-.08.07c-.43.97-1,1.91-1.71,2.82-.71.91-1.49,1.72-2.33,2.44-.85.72-1.71,1.3-2.6,1.75-.1.05-.21.07-.34.07-.14,0-.28-.04-.41-.12s-.23-.2-.29-.35c-.05-.1-.07-.2-.07-.31,0-.34.15-.58.45-.74.77-.4,1.51-.89,2.21-1.49s1.35-1.26,1.93-1.98c.58-.72,1.06-1.46,1.47-2.22.4-.76.68-1.5.84-2.22v-.04c0-.06-.04-.09-.11-.09h-5.69c-.22,0-.4-.07-.56-.22-.16-.15-.23-.33-.23-.55s.08-.4.23-.55c.16-.15.34-.22.56-.22h5.81c.07,0,.11-.04.11-.11v-3.62c0-.2.08-.39.23-.55.16-.16.34-.24.56-.24.22.01.4.1.56.25s.23.34.23.54v3.62c0,.07.04.11.11.11h5.81c.22,0,.4.07.56.22.16.15.23.33.23.55s-.08.4-.23.55c-.16.15-.34.22-.56.22h-5.76c-.08,0-.11.06-.07.18.25.86.63,1.71,1.12,2.53.5.82,1.06,1.58,1.67,2.29.62.7,1.24,1.32,1.87,1.84s1.21.93,1.74,1.21Z"/></g></g></g></svg>