<?xml version="1.0" encoding="UTF-8"?><svg id="_レイヤー_2" xmlns="http://www.w3.org/2000/svg" xmlns:xlink="http://www.w3.org/1999/xlink" viewBox="0 0 253 199"><defs><style>.cls-1{fill:#f3baab;}.cls-2{fill:#f9ddd6;}.cls-3{fill:#f8f7f6;}.cls-4{fill:url(#_名称未設定グラデーション_15-2);}.cls-5{fill:url(#_名称未設定グラデーション_15-3);}.cls-6{fill:url(#_名称未設定グラデーション_15);}.cls-7{fill:none;stroke:#ff991f;stroke-miterlimit:10;}.cls-8{fill:#afddd2;opacity:.8;}</style><linearGradient id="_名称未設定グラデーション_15" x1="112" y1="36.26" x2="112" y2="53.7" gradientUnits="userSpaceOnUse"><stop offset=".27" stop-color="#f8f7f6"/><stop offset="1" stop-color="#ff991f"/></linearGradient><linearGradient id="_名称未設定グラデーション_15-2" x1="141" x2="141" xlink:href="#_名称未設定グラデーション_15"/><linearGradient id="_名称未設定グラデーション_15-3" x1="126" x2="126" xlink:href="#_名称未設定グラデーション_15"/></defs><g id="_レイヤー_1-2"><g><rect class="cls-8" width="253" height="31"/><g><path d="m64.81,21.63c-.96,0-1.66-.22-2.09-.63-.43-.41-.62-1.07-.59-1.97v-6.69c0-.13.04-.24.13-.33.09-.09.2-.13.33-.13s.24.04.33.13c.09.09.13.2.13.33v3.07c0,.08.04.12.13.11,1.07-.07,2.1-.22,3.09-.45.98-.22,1.99-.54,3-.94.03-.02.06-.03.08-.03h.08c.21,0,.34.09.41.28,0,.03.02.05.02.08,0,.03,0,.05,0,.08,0,.22-.11.38-.32.47-.99.37-2.01.68-3.07.92-1.06.24-2.16.41-3.3.49-.08,0-.13.06-.13.14v2.45c0,.5.04.87.16,1.1.12.23.31.38.57.45.27.07.61.11,1.03.13.1,0,.21.01.33.01h.37c.45,0,.94-.01,1.49-.04.55-.02,1.08-.05,1.6-.09.52-.04.97-.08,1.34-.14.13-.02.25.02.36.1.11.09.16.2.16.33,0,.12-.04.23-.11.32-.08.09-.18.15-.31.17-.3.04-.66.07-1.09.1-.43.03-.89.06-1.38.08-.49.02-.98.04-1.46.05s-.92.02-1.32.02Zm5.35-8.12c-.39,0-.72-.13-.99-.41-.27-.27-.41-.6-.41-.99s.14-.71.41-.99.6-.41.99-.41.71.14.99.41c.27.28.41.6.41.99s-.14.72-.41.99c-.28.27-.6.41-.99.41Zm0-.39c.27,0,.51-.1.71-.29.2-.2.3-.43.3-.71s-.1-.51-.3-.71c-.2-.2-.44-.3-.71-.3s-.52.1-.71.3c-.2.2-.29.44-.29.71s.1.52.29.71c.2.2.43.29.71.29Z"/><path d="m77.58,21c-.13,0-.24-.05-.33-.14s-.13-.2-.13-.32c0-.13.04-.24.13-.33.09-.09.2-.13.33-.13h5.12c.47,0,.82-.15,1.07-.46.25-.3.37-.73.37-1.28v-2.72c0-.95-.47-1.43-1.4-1.43h-5.22c-.13,0-.24-.04-.33-.13-.09-.09-.13-.2-.13-.33s.04-.24.13-.33c.09-.09.2-.13.33-.13h5.28c.73,0,1.3.21,1.71.63.41.42.62.99.62,1.72v2.72c0,.81-.21,1.46-.64,1.94-.43.48-1,.72-1.72.72h-5.18Z"/><path d="m94,21.64c-.06.03-.12.04-.18.04-.21,0-.35-.1-.42-.29-.03-.06-.04-.12-.04-.18,0-.21.1-.36.31-.45,1.53-.65,2.74-1.44,3.64-2.37.9-.93,1.54-2.05,1.93-3.38.12-.39.18-.72.18-.99,0-.31-.09-.54-.27-.69-.18-.15-.48-.25-.89-.29-.21-.02-.41-.04-.62-.05-.21-.01-.43-.02-.67-.02-1.31,0-2.87.2-4.69.59-.12.02-.24-.01-.35-.1-.11-.08-.17-.19-.17-.32,0-.3.14-.48.41-.53.48-.1,1-.19,1.56-.27.57-.07,1.14-.13,1.73-.17s1.14-.06,1.65-.06c.24,0,.47,0,.69.02.22.01.42.03.61.05.51.07.91.19,1.2.38.28.19.48.41.59.66.11.26.17.53.17.8,0,.21-.02.43-.07.64s-.1.42-.15.6c-.46,1.47-1.18,2.73-2.18,3.77s-2.32,1.91-3.97,2.62Z"/><path d="m109.09,21.73c-.13.03-.25,0-.36-.09-.11-.09-.16-.21-.16-.36,0-.1.04-.2.1-.29.07-.09.16-.15.27-.17.94-.21,1.75-.51,2.41-.9.66-.4,1.21-.85,1.65-1.35s.78-1.01,1.04-1.53c.1-.22.19-.42.25-.59s.1-.31.1-.43c0-.19-.08-.31-.24-.38-.16-.07-.43-.1-.81-.1s-.86.03-1.47.08-1.27.11-1.99.17-1.44.08-2.17.08c-.09,0-.19,0-.28,0-.09,0-.19,0-.29,0-.12,0-.23-.06-.32-.15-.09-.09-.13-.19-.13-.31,0-.13.05-.24.14-.34.09-.09.21-.14.35-.13.19,0,.37.02.56.02s.37,0,.55,0c1.07,0,2.06-.05,2.95-.14.9-.09,1.66-.14,2.28-.14.67,0,1.14.11,1.41.32.27.21.41.49.41.85,0,.23-.05.49-.14.77-.09.28-.21.57-.36.88-.29.6-.68,1.18-1.17,1.74-.49.57-1.11,1.07-1.85,1.51-.75.44-1.66.77-2.73.99Zm-1.09-8.85c-.12,0-.23-.04-.32-.13-.09-.09-.14-.19-.14-.32,0-.13.04-.24.13-.32s.2-.13.33-.13h5.94c.13,0,.24.04.33.13s.13.19.13.32c0,.12-.04.23-.13.32s-.2.13-.33.13h-5.94Z"/><path d="m123.95,21.8c-.06.03-.12.04-.2.04-.2,0-.33-.09-.41-.27-.03-.06-.04-.12-.04-.2,0-.21.09-.35.28-.43,1.02-.5,1.87-1.04,2.55-1.65.69-.6,1.24-1.22,1.67-1.85.43-.63.76-1.25.99-1.83.08-.21.15-.41.2-.58s.07-.32.07-.44c0-.45-.3-.67-.9-.67h-2.52c-.06,0-.11.03-.15.08-.4.67-.85,1.32-1.34,1.93-.49.62-.97,1.13-1.44,1.54-.07.06-.17.1-.28.1-.16,0-.29-.06-.38-.18-.07-.08-.1-.17-.1-.28,0-.17.06-.3.17-.39.41-.37.81-.78,1.19-1.25.38-.47.74-.96,1.07-1.46.33-.5.62-1,.88-1.49.26-.49.46-.94.61-1.34.08-.2.21-.29.42-.29.15,0,.27.05.35.15s.13.21.13.34v.09s0,.06-.03.09c-.08.21-.17.42-.27.64-.1.22-.21.44-.33.66,0,.02-.01.04-.01.07,0,.06.03.08.1.08h1.96c.66,0,1.13.15,1.41.44.27.29.41.66.41,1.1s-.12.93-.35,1.44c-1.17,2.59-3.08,4.52-5.73,5.81Z"/><path d="m138.77,17.14c-.32-.14-.68-.25-1.08-.34-.41-.09-.78-.14-1.13-.16-.12,0-.22-.05-.31-.13s-.13-.17-.13-.29c0-.14.05-.26.14-.35.09-.09.2-.14.32-.14.38.02.8.07,1.27.17.46.09.88.23,1.27.41.18.07.27.21.27.42,0,.14-.04.25-.13.34s-.19.12-.31.12c-.05,0-.11-.01-.18-.04Zm.83-3.02c-.68-.44-1.45-.71-2.3-.83-.12-.02-.21-.07-.28-.15-.06-.08-.1-.17-.1-.27,0-.14.05-.26.16-.35.11-.09.22-.13.34-.11.44.05.88.15,1.33.3s.86.35,1.23.6c.15.09.22.23.22.42,0,.09-.02.18-.06.25-.08.13-.19.2-.35.2-.07,0-.14-.02-.21-.06Zm-1.99,7.52s-.07.01-.13.01c-.13,0-.25-.05-.35-.14-.1-.09-.15-.21-.15-.36,0-.23.12-.38.35-.45.6-.17,1.24-.41,1.92-.73.68-.32,1.36-.71,2.04-1.17.68-.46,1.33-.99,1.94-1.57.61-.59,1.15-1.24,1.6-1.95.08-.13.21-.2.38-.2.1,0,.19.03.25.08.15.09.22.24.22.43,0,.11-.03.21-.08.29-.37.58-.85,1.16-1.43,1.75s-1.22,1.15-1.94,1.68c-.71.53-1.47,1-2.25,1.4-.79.4-1.58.7-2.37.91Z"/><path d="m158.61,21.43c-.12,0-.22-.04-.31-.12s-.13-.19-.13-.31c0-.05-.04-.07-.13-.07h-4.94c-.12,0-.22-.04-.31-.12s-.13-.19-.13-.31c0-.11.04-.21.13-.29s.19-.13.31-.13h4.94c.08,0,.13-.04.13-.13v-1.41c0-.07-.03-.11-.1-.14-.16-.07-.33-.12-.52-.15-.19-.02-.4-.03-.63-.03-.13,0-.34-.01-.64-.01h-2c-.34,0-.63,0-.88.01-.12,0-.22-.04-.29-.12-.07-.08-.11-.18-.11-.29s.04-.21.12-.29c.08-.08.17-.12.27-.12h3.54c.2,0,.38.02.57.04.18.01.36.04.53.09h.03c.07,0,.11-.04.11-.11v-.9c0-.33-.02-.56-.07-.71-.05-.15-.14-.25-.29-.29-.14-.04-.37-.05-.67-.04-.27,0-.57.02-.91.03-.34,0-.69.01-1.05.01s-.71,0-1.08-.01c-.36,0-.71-.02-1.04-.03-.11,0-.21-.04-.29-.13-.08-.09-.12-.19-.12-.3,0-.12.06-.22.14-.3s.19-.11.31-.1c.63.03,1.26.04,1.88.04.8,0,1.51-.01,2.13-.04.07,0,.13-.01.18-.01h.15c.58,0,.99.14,1.22.43.23.29.35.77.35,1.46v4.48c0,.12-.04.22-.13.31s-.18.12-.29.12Z"/><path d="m167.95,21.81s-.07.01-.11.01c-.12,0-.23-.04-.33-.13-.1-.09-.15-.2-.15-.34,0-.22.11-.37.34-.45.74-.23,1.35-.58,1.83-1.03s.86-1.04,1.12-1.77c.26-.73.42-1.63.48-2.7,0-.09-.04-.14-.13-.14-1.29.03-2.79.07-4.49.13-.12,0-.23-.03-.32-.12-.09-.09-.14-.19-.15-.32,0-.13.04-.24.13-.33s.19-.14.31-.15l4.55-.14c.08,0,.13-.04.13-.13,0-.78-.04-1.64-.13-2.58,0-.14.03-.26.13-.36.09-.1.2-.15.32-.15s.23.04.32.12c.09.08.14.19.15.31.03.43.05.86.08,1.3s.04.88.04,1.32c0,.08.08.13.22.13.65-.02,1.24-.03,1.75-.04.51,0,.96-.01,1.33-.01.13,0,.24.04.33.13.09.09.13.2.13.33,0,.12-.06.23-.14.31s-.19.13-.32.13c-.38,0-.84,0-1.37.02-.53.01-1.14.03-1.82.05-.08,0-.13.04-.13.13-.04.72-.13,1.41-.27,2.08-.14.67-.36,1.29-.67,1.85-.31.57-.72,1.07-1.23,1.5-.51.43-1.16.77-1.93,1.02Z"/><path d="m181.01,21.55c-.07.05-.14.07-.21.07-.16,0-.28-.07-.35-.21-.05-.07-.07-.15-.07-.24,0-.16.07-.29.2-.39.63-.5,1.14-1.06,1.53-1.7.38-.64.67-1.4.85-2.27.18-.88.27-1.92.27-3.12,0-.12.04-.23.13-.31.08-.09.19-.13.31-.13.13,0,.25.05.34.14s.14.21.13.34c-.05,1.09-.14,2.05-.27,2.86-.14.82-.32,1.53-.56,2.13-.24.61-.55,1.14-.92,1.6-.38.46-.83.87-1.37,1.25Zm9.28-2.96c-.49.63-.97,1.11-1.46,1.42s-.93.47-1.33.47c-.46,0-.83-.21-1.13-.62-.29-.42-.44-1.03-.43-1.84v-5.3c0-.13.05-.24.14-.34.09-.09.2-.14.32-.14.13,0,.24.05.34.14s.14.21.14.34v5.18c0,1.06.24,1.6.71,1.6s1.14-.5,1.99-1.51c.27-.32.52-.66.75-1.02s.44-.75.64-1.15c.09-.19.24-.28.43-.28.14,0,.25.05.34.14.09.09.13.2.13.32,0,.07-.01.13-.04.18-.22.46-.47.89-.73,1.29-.27.4-.54.78-.82,1.13Z"/></g><g><path d="m34.4,186.04c-1.67-.3-3.13-.9-4.38-1.79-.04-.03-.08-.03-.11,0-.67.48-1.4.86-2.17,1.15s-1.55.5-2.34.63c-.13.02-.25-.01-.35-.1-.1-.08-.15-.2-.15-.35,0-.1.04-.2.1-.29.07-.09.16-.14.27-.16.77-.14,1.49-.33,2.13-.57.65-.24,1.23-.53,1.76-.87.06-.04.06-.08.01-.12-.4-.36-.77-.75-1.11-1.18-.34-.43-.65-.89-.95-1.37-.04-.05-.06-.11-.06-.2,0-.08.02-.15.06-.22.04-.07.1-.13.18-.17.04-.02.07-.03.1-.04.03,0,.06-.01.1-.01.18,0,.31.08.41.24.56.95,1.23,1.76,2,2.42.04.04.08.04.11,0,.85-.74,1.5-1.67,1.95-2.79.04-.07.02-.1-.06-.1h-6.26c-.06,0-.08.03-.08.08-.07.97-.18,1.93-.35,2.88s-.43,1.84-.78,2.67c-.08.16-.21.24-.39.24-.06,0-.12-.01-.2-.04-.17-.08-.25-.23-.25-.43,0-.07.01-.13.04-.2.18-.39.33-.82.47-1.28.13-.46.25-1,.34-1.61s.17-1.33.22-2.15c.05-.82.08-1.79.08-2.9v-.87c0-.21.08-.39.22-.54.15-.14.33-.22.53-.22h3.32c.06,0,.08-.03.08-.08v-1.13c0-.13.04-.24.13-.32s.19-.13.31-.13c.13,0,.24.04.32.13s.13.19.13.32v1.13c0,.06.03.08.08.08h3.61c.16,0,.29.06.41.17.11.11.17.24.17.39v.07s0,.05-.01.07c-.17.58-.37,1.1-.62,1.57-.08.18-.23.27-.45.27-.15,0-.26-.05-.34-.14-.08-.09-.12-.2-.12-.32,0-.05,0-.09.01-.14,0-.05.03-.09.06-.13.08-.13.16-.27.22-.41.06-.14.13-.29.18-.44.04-.07.02-.1-.06-.1h-3.07c-.06,0-.08.03-.08.08v2.45c0,.06.03.08.08.08h2.63c.16,0,.29.05.4.16.11.11.16.24.16.39,0,.03,0,.08-.03.15-.24.75-.56,1.42-.95,2.02-.39.6-.83,1.12-1.33,1.58-.05.05-.05.08,0,.11,1.07.73,2.34,1.23,3.79,1.5.11.02.2.07.27.15s.1.17.1.27c0,.14-.05.25-.15.34-.1.09-.22.12-.35.1Zm-8.72-6.78h3.14c.06,0,.08-.03.08-.08v-2.45c0-.06-.03-.08-.08-.08h-3.11c-.06,0-.08.03-.08.08v1.56c0,.29,0,.59-.03.89,0,.06.03.08.08.08Z"/><path d="m38.8,185.74c-.12,0-.22-.04-.3-.11-.08-.08-.12-.17-.12-.28,0-.04,0-.08.03-.14.27-.72.48-1.63.62-2.72.14-1.1.21-2.35.21-3.77v-2.21c0-.19.07-.35.2-.48s.3-.2.48-.2h3.25c.06,0,.08-.03.08-.08v-1.19c0-.12.04-.22.12-.3.08-.08.18-.12.3-.12.11,0,.21.04.29.12s.13.18.13.3v.11c0,.06.03.08.08.08h3.67c.1,0,.18.03.25.1.06.07.09.14.09.24s-.03.17-.1.23c-.07.06-.15.09-.24.09h-3.67c-.06,0-.08.03-.08.08v.25c0,.06.03.08.08.08h4.73c.16,0,.29.05.39.15.1.1.15.22.15.35,0,.04,0,.08-.03.14-.07.18-.14.36-.22.55-.08.19-.17.36-.25.52-.1.2-.27.29-.49.29-.07,0-.14-.01-.21-.04-.14-.05-.21-.14-.21-.28,0-.07.02-.12.06-.17.15-.24.27-.45.35-.63.04-.07.01-.1-.07-.1h-5.08c-.06,0-.08.03-.08.08v.49c0,.06.03.08.08.07.52-.05,1.04-.1,1.57-.15.52-.06.99-.12,1.4-.18.11-.02.21,0,.29.08.08.07.13.16.13.26,0,.08-.03.16-.08.23-.06.07-.13.12-.21.13-.44.07-.92.13-1.46.19s-1.06.12-1.58.16c-.08.02-.1.05-.06.1.09.11.29.18.59.22.3.03.78.05,1.44.05.6,0,1.06-.01,1.38-.04.32-.02.62-.1.89-.22.05-.02.09-.03.13-.04.04,0,.07-.01.11-.01.16,0,.28.06.36.17.06.07.08.15.08.24,0,.13-.05.21-.14.25-.46.24-1.02.36-1.68.36h-2.18c-1.07,0-1.69-.3-1.85-.91-.02-.06-.05-.08-.1-.07-.21,0-.4.02-.58.04-.18.02-.36.03-.53.03-.09,0-.18-.04-.25-.11-.08-.07-.11-.16-.11-.25,0-.08.03-.16.09-.22.06-.07.14-.1.23-.11l1.13-.08c.06-.02.08-.05.08-.1v-.56c0-.06-.03-.08-.08-.08h-2.13c-.06,0-.08.03-.08.08v2.03c0,1.39-.06,2.65-.19,3.77-.13,1.12-.34,2.1-.64,2.93-.07.21-.23.32-.48.32Zm2.95-3.7c-.2,0-.36-.07-.49-.2-.13-.13-.2-.3-.2-.48v-1.27c0-.19.07-.35.2-.48s.3-.2.48-.2h6.36c.19,0,.35.07.48.2s.2.3.2.48v1.27c0,.19-.07.35-.2.48s-.3.2-.48.2h-6.36Zm.41,4.02c-.11,0-.21-.04-.29-.12-.08-.08-.13-.18-.13-.29v-2.55c0-.19.07-.35.21-.48.14-.13.3-.2.48-.2h5.01c.19,0,.35.07.48.2.13.14.2.3.2.48v1.9c0,.38-.11.65-.32.81-.21.16-.55.22-1.03.2-.1,0-.19-.05-.25-.13-.07-.08-.1-.17-.1-.27,0-.09.05-.17.13-.24.08-.07.16-.1.25-.1h.18c.21,0,.31-.05.31-.14v-.13c0-.06-.03-.08-.08-.08h-4.56c-.06,0-.08.03-.08.08v.64c0,.11-.04.21-.12.29-.08.08-.18.12-.29.12Zm-.17-5.6h2.52c.06,0,.08-.03.08-.08v-.29c0-.06-.03-.08-.08-.08h-2.52c-.06,0-.08.03-.08.08v.29c0,.06.03.08.08.08Zm0,.98h2.52c.06,0,.08-.03.08-.08v-.29c0-.06-.03-.08-.08-.08h-2.52c-.06,0-.08.03-.08.08v.29c0,.06.03.08.08.08Zm.66,2.04h4.56c.06,0,.08-.03.08-.08v-.27c0-.06-.03-.08-.08-.08h-4.56c-.06,0-.08.03-.08.08v.27c0,.06.03.08.08.08Zm0,.92h4.56c.06,0,.08-.03.08-.08v-.25c0-.06-.03-.08-.08-.08h-4.56c-.06,0-.08.03-.08.08v.25c0,.06.03.08.08.08Zm2.73-3.95h2.49c.06,0,.08-.03.08-.08v-.29c0-.06-.03-.08-.08-.08h-2.49c-.06,0-.08.03-.08.08v.29c0,.06.03.08.08.08Zm0,.98h2.49c.06,0,.08-.03.08-.08v-.29c0-.06-.03-.08-.08-.08h-2.49c-.06,0-.08.03-.08.08v.29c0,.06.03.08.08.08Z"/><path d="m59.62,184.92c-.13,0-.25-.03-.36-.11-.11-.08-.17-.2-.17-.35,0-.11.04-.21.11-.3s.17-.14.29-.16c1.18-.19,2.09-.59,2.73-1.2s.95-1.4.95-2.37c0-.62-.15-1.18-.46-1.65-.3-.48-.71-.85-1.2-1.13-.5-.27-1.04-.41-1.63-.41-.07,0-.12.04-.14.11-.18.8-.39,1.6-.64,2.38-.25.78-.55,1.5-.9,2.16-.78,1.46-1.6,2.18-2.44,2.18-.05,0-.1,0-.15,0-.05,0-.1-.01-.15-.02-.43-.1-.75-.36-.97-.78-.21-.42-.32-.91-.32-1.48,0-.52.1-1.08.29-1.66.19-.58.47-1.13.85-1.64.53-.73,1.18-1.27,1.95-1.62.77-.35,1.55-.53,2.35-.53.64,0,1.26.11,1.84.34.58.23,1.09.56,1.53,1,.44.44.75.99.94,1.64.06.18.1.36.12.56s.04.4.04.6c0,.49-.09.97-.26,1.45-.17.48-.44.93-.8,1.34-.36.42-.82.77-1.38,1.06-.56.29-1.23.49-2.02.59Zm-4.41-2.11c.16.25.34.38.53.38s.42-.12.66-.35.47-.55.71-.95.46-.85.68-1.34.41-1.01.58-1.55c.17-.54.31-1.05.41-1.55v-.03c0-.08-.04-.12-.13-.1-.62.1-1.18.34-1.7.71-.52.37-.94.83-1.27,1.38-.22.38-.39.79-.51,1.22-.12.43-.17.83-.17,1.2,0,.41.07.74.21.98Z"/><path d="m69.26,186.08c-.12,0-.23-.04-.31-.13s-.13-.19-.13-.32v-8.51c0-.21.08-.39.22-.54.15-.14.33-.22.53-.22h3.95c.06,0,.08-.03.08-.08v-1.71c0-.12.04-.23.13-.32s.19-.13.32-.13c.13,0,.24.04.32.13s.13.19.13.32v1.71c0,.06.03.08.08.08h3.95c.21,0,.38.07.53.22s.22.32.22.54v7.43c0,1.07-.71,1.58-2.11,1.53-.11,0-.21-.06-.3-.15-.09-.09-.13-.2-.13-.33s.05-.24.14-.32c.09-.08.21-.12.34-.11.46.02.77-.01.93-.1s.25-.26.25-.52v-7.22c0-.06-.03-.08-.08-.08h-3.7c-.06,0-.08.03-.07.1.08.36.23.75.44,1.18.21.43.46.86.76,1.29.29.43.62.83.97,1.2.35.37.71.68,1.08.92.18.1.27.26.27.46,0,.14-.05.25-.14.33-.09.08-.19.12-.29.12-.08,0-.15-.02-.2-.06-.45-.28-.88-.64-1.29-1.07-.41-.43-.78-.9-1.12-1.4s-.62-.99-.85-1.48c0-.04-.03-.06-.05-.06s-.04.02-.06.06c-.22.55-.52,1.08-.88,1.6-.36.51-.76.97-1.2,1.38-.43.41-.87.74-1.31,1-.08.04-.14.06-.18.06-.17,0-.3-.08-.39-.25-.03-.06-.04-.12-.04-.18,0-.19.08-.33.25-.42.34-.21.68-.49,1.04-.82.35-.33.69-.71,1-1.12s.58-.86.8-1.33c.22-.47.37-.94.44-1.42.02-.06,0-.08-.07-.08h-3.71c-.06,0-.08.03-.08.08v8.3c0,.12-.04.23-.13.32-.09.09-.19.13-.32.13Z"/><path d="m84.68,186.07c-.12,0-.22-.04-.31-.12-.08-.08-.13-.18-.13-.3v-6.24s-.01-.06-.04-.07-.04,0-.06.04l-.42.57c-.08.1-.19.15-.32.15-.11,0-.21-.04-.29-.12-.09-.09-.14-.21-.14-.34s.04-.25.13-.36c.53-.63.98-1.36,1.36-2.21.37-.85.63-1.73.78-2.63.05-.23.17-.35.38-.35.16,0,.28.06.37.17s.12.23.1.36c-.08.5-.21,1.01-.37,1.52-.16.51-.36,1.01-.6,1.5-.02.03-.03.07-.03.11v7.9c0,.12-.04.22-.13.3-.08.08-.18.12-.29.12Zm1.26-.13c-.06.02-.1.03-.13.03-.09,0-.18-.04-.26-.11-.08-.07-.12-.18-.12-.31,0-.18.08-.31.24-.39.33-.2.6-.41.83-.64s.44-.5.62-.81c.08-.16.22-.24.41-.24.13,0,.23.04.31.12.08.08.11.18.11.28,0,.06-.01.11-.04.17-.23.41-.52.79-.88,1.13-.35.34-.72.59-1.1.76Zm1.44-2.87c-.21,0-.39-.08-.54-.22-.14-.15-.22-.33-.22-.53v-6.97c0-.21.08-.39.22-.54.15-.14.33-.22.53-.22h2.23c.21,0,.39.08.54.22.14.15.22.33.22.53v6.97c0,.21-.08.39-.22.54-.15.14-.33.22-.53.22h-2.23Zm.15-5.95h1.9c.06,0,.08-.03.08-.08v-1.54c0-.06-.03-.08-.08-.08h-1.9c-.06,0-.08.03-.08.08v1.54c0,.06.03.08.08.08Zm0,2.51h1.9c.06,0,.08-.03.08-.08v-1.54c0-.06-.03-.08-.08-.08h-1.9c-.06,0-.08.03-.08.08v1.54c0,.06.03.08.08.08Zm0,2.62h1.9c.06,0,.08-.03.08-.08v-1.64c0-.06-.03-.08-.08-.08h-1.9c-.06,0-.08.03-.08.08v1.64c0,.06.03.08.08.08Zm2.97,3.57c-.07,0-.15-.02-.22-.07-.08-.05-.13-.11-.17-.2-.12-.28-.25-.53-.39-.76-.14-.23-.3-.45-.49-.67-.06-.08-.08-.15-.08-.24,0-.14.06-.24.17-.31.08-.06.18-.08.28-.08.15,0,.28.07.38.2.39.53.69,1.06.9,1.57.02.06.03.11.03.15,0,.1-.04.2-.11.28s-.17.13-.29.13Zm1.36-2.07c-.12,0-.22-.04-.29-.12-.08-.08-.11-.18-.11-.3v-7.83c0-.11.04-.21.11-.29.07-.08.17-.12.29-.12.11,0,.21.04.29.12.08.08.13.17.13.29v7.83c0,.12-.04.22-.13.3s-.18.12-.29.12Zm.66,2.3c-.11,0-.21-.05-.29-.13s-.13-.18-.13-.3c0-.13.04-.24.12-.32.08-.08.18-.12.3-.11.08,0,.17.02.25.02.08,0,.15,0,.22,0,.21,0,.38-.03.51-.09s.19-.17.19-.32v-10.16c0-.13.04-.24.13-.32.08-.08.18-.12.29-.12.12,0,.22.04.3.12.08.08.12.19.12.32v10.16c0,.46-.16.78-.48.98-.32.2-.83.29-1.53.27Z"/><path d="m100.36,185.07c-.21,0-.35-.1-.42-.31-.2-.61-.34-1.28-.43-2.03-.09-.75-.14-1.5-.14-2.27,0-.83.05-1.64.15-2.44.1-.8.26-1.51.46-2.14.03-.1.09-.18.17-.24.09-.06.18-.08.29-.08.13,0,.24.04.32.13s.12.19.12.31c0,.06,0,.1-.01.13-.19.6-.33,1.27-.43,2.02-.1.75-.15,1.51-.15,2.29,0,.73.04,1.44.13,2.14s.21,1.34.38,1.92c0,.03.01.07.01.13,0,.12-.04.23-.13.32-.08.09-.19.13-.32.13Zm8.39-1.08c-.39.13-.82.24-1.3.32-.47.08-.95.13-1.45.13-.71,0-1.41-.1-2.11-.31-.7-.21-1.3-.56-1.83-1.06-.09-.09-.14-.2-.14-.32s.05-.23.14-.32c.08-.08.18-.13.28-.13.12,0,.23.04.32.13.43.37.94.65,1.53.84.59.19,1.22.28,1.88.28.39,0,.79-.03,1.2-.1.41-.07.82-.17,1.22-.31.06-.02.1-.03.14-.03.11,0,.21.04.29.13s.13.19.13.32c0,.21-.11.36-.32.43Zm-5.91-6.09c-.1-.02-.19-.07-.26-.15-.07-.08-.11-.18-.11-.28,0-.15.05-.27.14-.35.09-.08.21-.12.34-.1.37.06.76.1,1.16.13.4.03.8.04,1.2.04.47,0,.92-.02,1.36-.06.44-.04.84-.09,1.2-.17.13-.02.25.01.34.1s.15.19.15.32c0,.1-.03.2-.1.29s-.16.15-.27.17c-.81.16-1.74.24-2.77.24-.4,0-.8-.01-1.2-.04s-.79-.07-1.18-.14Z"/><path d="m113.78,185.79c-.12,0-.22-.04-.31-.13s-.13-.19-.13-.31.04-.22.13-.31.19-.13.31-.13h4.68c.06,0,.08-.03.08-.08v-2.45c0-.06-.03-.08-.08-.08h-3.26c-.12,0-.22-.04-.31-.13s-.13-.19-.13-.31c0-.11.05-.21.13-.29.08-.08.18-.13.3-.13h7.59c.12,0,.22.04.3.13s.12.18.13.29c0,.12-.04.22-.13.31s-.19.13-.31.13h-3.28c-.06,0-.08.03-.08.08v2.45c0,.06.03.08.08.08h4.69c.13,0,.24.04.32.13.08.08.12.19.12.31s-.04.22-.13.31-.19.13-.31.13h-10.42Zm.29-7.67c-.12,0-.23-.04-.31-.13-.09-.08-.13-.19-.13-.31v-1.51c0-.21.08-.38.22-.53.15-.15.33-.22.53-.21h4.07c.06,0,.08-.03.08-.08v-.87c0-.13.04-.24.13-.32s.19-.13.32-.13c.13,0,.24.04.32.13s.13.19.13.32v.85c0,.06.03.08.08.08h4.07c.21,0,.39.07.54.22.15.15.22.33.22.53v1.51c0,.12-.04.22-.13.31s-.19.13-.31.13-.23-.04-.31-.13c-.09-.08-.13-.19-.13-.31v-1.32c0-.06-.03-.08-.08-.08h-8.79c-.06,0-.08.03-.08.08v1.32c0,.12-.04.22-.13.31s-.19.13-.31.13Zm.59,2.83s-.07.01-.13.01c-.11,0-.21-.04-.29-.11-.08-.07-.13-.18-.13-.32,0-.21.1-.34.29-.42,1.47-.52,2.45-1.48,2.91-2.87.07-.21.21-.31.41-.31.14,0,.25.05.34.14.08.09.13.2.13.31,0,.05,0,.1-.03.15-.28.82-.72,1.52-1.32,2.11-.6.58-1.33,1.02-2.18,1.31Zm7.04-.59c-.8,0-1.39-.14-1.76-.43-.37-.29-.56-.74-.56-1.34v-1.16c0-.12.04-.23.13-.31.08-.09.19-.13.31-.13s.22.04.31.13.13.19.13.32v1.16c0,.35.1.58.31.71.21.13.59.2,1.15.2.45,0,.83-.04,1.13-.12.31-.08.59-.21.85-.38.08-.06.18-.08.28-.08.16,0,.27.06.34.17.06.08.08.18.08.28,0,.17-.06.29-.18.38-.4.26-.8.43-1.2.51s-.83.12-1.3.12Z"/><path d="m130.09,179.32c-.23-.13-.5-.25-.8-.37s-.6-.22-.9-.32c-.11-.03-.2-.09-.27-.17s-.1-.18-.1-.29c0-.12.04-.22.13-.3.08-.08.18-.12.29-.12.05,0,.08,0,.11.01.3.08.61.18.93.3.32.12.62.24.89.37.21.08.31.25.31.49,0,.13-.04.24-.12.32-.08.08-.18.13-.29.13-.07,0-.13-.02-.2-.06Zm-1.67,6.76c-.17-.05-.25-.16-.25-.34,0-.06.01-.11.04-.17.34-.65.65-1.38.94-2.18.29-.8.52-1.59.7-2.35.02-.1.07-.19.16-.25s.18-.1.27-.1c.15,0,.27.06.36.17.09.11.11.23.08.36-.08.3-.17.65-.28,1.05-.11.4-.24.81-.38,1.24-.14.42-.3.84-.46,1.24-.16.4-.32.75-.48,1.05-.11.21-.29.31-.52.31-.04,0-.07,0-.1,0-.03,0-.06-.01-.08-.02Zm1.86-9.98c-.24-.13-.52-.25-.82-.36-.3-.11-.6-.21-.9-.29-.09-.02-.17-.07-.24-.15-.07-.08-.1-.17-.1-.27,0-.13.04-.24.13-.32.09-.08.19-.13.3-.13.06,0,.1,0,.13.01.57.16,1.15.37,1.75.64.1.04.18.1.23.19.05.09.08.18.08.29,0,.13-.04.24-.11.32-.07.08-.16.12-.27.12-.07,0-.13-.01-.18-.04Zm1.67,9.98c-.12,0-.23-.04-.32-.13-.09-.09-.13-.19-.13-.32v-10.47c0-.21.07-.39.22-.54s.33-.22.53-.22h6.38c.21,0,.39.07.54.22s.22.32.22.54v9.52c0,.95-.65,1.41-1.96,1.36-.11,0-.21-.06-.29-.14s-.13-.19-.13-.31c0-.13.04-.24.13-.32s.19-.12.32-.11c.38,0,.65-.02.81-.09.16-.07.24-.2.24-.38v-9.34c0-.06-.03-.08-.08-.08h-5.95c-.06,0-.08.03-.08.08v10.29c0,.12-.04.23-.13.32-.09.09-.19.13-.31.13Zm1.67-8.26c-.11,0-.21-.04-.29-.12-.08-.08-.13-.18-.13-.3,0-.11.04-.21.12-.29s.18-.12.3-.12h3.67c.12,0,.22.04.3.12.08.08.12.18.12.3s-.04.22-.12.3-.18.12-.3.12h-3.67Zm.77,5.49c-.21,0-.38-.08-.53-.22s-.22-.33-.22-.53v-2.48c0-.21.07-.39.22-.54s.33-.22.53-.22h2.13c.21,0,.39.07.54.22.14.15.22.33.22.53v2.48c0,.21-.07.39-.22.54-.14.15-.32.22-.54.22h-2.13Zm.2-.83h1.75c.06,0,.08-.03.08-.08v-2.16c0-.06-.03-.08-.08-.08h-1.75c-.06,0-.08.03-.08.08v2.16c0,.06.03.08.08.08Z"/><path d="m148.52,185.42c-1.47,0-2.32-.41-2.58-1.22-.07-.19-.1-.38-.1-.57,0-.5.25-1,.75-1.48.5-.49,1.29-1.01,2.37-1.58.08-.05.09-.1.06-.17-.21-.38-.57-.57-1.06-.57s-1.08.18-1.78.55c-.04.02-.08.05-.13.1l-.27.21c-.06.05-.13.07-.22.07-.18,0-.31-.07-.39-.21-.06-.08-.08-.17-.08-.25,0-.14.07-.27.21-.39.64-.5,1.19-1.16,1.64-1.99,0-.02.01-.04.01-.07,0-.07-.04-.09-.11-.07-.65.08-1.23.14-1.74.17-.12,0-.23-.03-.32-.12-.09-.09-.13-.19-.13-.31,0-.13.04-.24.13-.32s.2-.13.33-.14c.35-.02.72-.04,1.08-.08.37-.03.74-.08,1.13-.15.07-.02.12-.06.13-.11.2-.49.36-1.03.5-1.62.07-.23.21-.35.43-.35.13,0,.24.04.33.13.09.09.13.19.13.3,0,.06,0,.1-.01.13-.06.2-.11.39-.17.57-.06.19-.12.37-.18.56,0,0,0,.02,0,.03,0,0,0,.02,0,.03,0,.07.05.1.14.07.29-.07.57-.16.85-.25.28-.09.55-.19.81-.29.06-.03.12-.04.18-.04.2,0,.32.09.38.27.03.06.04.12.04.18,0,.2-.09.33-.28.41-.36.15-.76.28-1.18.41-.42.12-.84.23-1.27.32-.07,0-.11.04-.14.1-.11.24-.22.47-.34.69-.11.22-.23.43-.36.62-.02.04-.03.06-.03.07,0,.05.04.07.13.06.27-.06.51-.08.73-.08.42,0,.77.09,1.05.27.28.18.49.42.64.71.05.07.1.09.17.06.35-.19.72-.39,1.11-.62.38-.22.79-.49,1.23-.8.08-.06.16-.08.25-.08.16,0,.28.07.36.2.06.08.08.17.08.25,0,.17-.07.3-.21.39-.32.21-.61.4-.88.56-.27.16-.53.31-.8.46-.27.15-.58.31-.94.48-.07.03-.09.08-.08.15.07.42.11,1.03.14,1.82,0,.12-.04.23-.13.32s-.19.13-.32.13c-.12,0-.23-.04-.32-.13s-.14-.19-.15-.32c-.02-.5-.05-.96-.08-1.36,0-.11-.05-.14-.15-.08-1.56.81-2.34,1.54-2.34,2.2,0,.09.01.19.04.29.09.23.27.4.53.51.26.11.68.16,1.25.16.42,0,.94-.03,1.55-.08.62-.06,1.36-.13,2.24-.22.15-.02.28.02.38.12s.16.22.16.37c0,.12-.04.23-.13.33-.08.1-.19.15-.32.16-.38.04-.92.08-1.61.12-.69.04-1.48.06-2.37.06Z"/><path d="m158.61,180.37c-.07.04-.13.06-.21.06s-.15-.02-.22-.06c-.08-.04-.13-.1-.17-.18-.03-.07-.04-.14-.04-.21,0-.19.08-.33.25-.43.35-.21.71-.44,1.08-.71.36-.27.73-.56,1.09-.88,0,0-.01,0-.01-.01-.14-.24-.31-.48-.52-.72-.21-.24-.42-.45-.64-.64-.1-.08-.15-.19-.15-.32,0-.1.03-.19.1-.25.09-.12.22-.18.39-.18.11,0,.21.03.28.1.44.36.82.82,1.15,1.36.04.06.08.06.13.01.33-.3.63-.61.92-.94s.55-.66.78-.99c.05-.07.03-.1-.06-.1h-2.91c-.11,0-.21-.04-.29-.12s-.13-.18-.13-.3c0-.13.04-.24.13-.31s.18-.12.29-.12h3.86c.12,0,.22.05.3.13.08.08.12.17.12.27,0,.06-.01.11-.04.17-.25.45-.58.92-.97,1.41-.4.49-.84.98-1.33,1.46-.49.48-1.01.94-1.55,1.37s-1.08.81-1.62,1.13Zm.1,5.66c-.12.04-.23.01-.34-.07-.1-.08-.15-.2-.15-.34,0-.1.04-.2.1-.29.07-.09.16-.15.26-.18.47-.15.94-.36,1.41-.62.48-.26.9-.58,1.26-.95.36-.37.62-.78.76-1.24.02-.06,0-.1-.07-.1h-3.07c-.12,0-.22-.04-.3-.12-.08-.08-.12-.17-.12-.29,0-.12.04-.22.13-.29.08-.07.18-.11.29-.11h3.15c.06,0,.08-.03.08-.08v-1.76c0-.06-.03-.08-.08-.08h-.66c-.12,0-.22-.04-.3-.12-.08-.08-.12-.17-.12-.29,0-.12.04-.22.13-.29.08-.07.18-.11.29-.11h5.12c.12,0,.22.04.3.12.08.08.12.18.12.29,0,.12-.04.22-.13.29-.08.08-.18.11-.29.11h-.7c-.06,0-.08.03-.08.08v1.76c0,.06.03.08.08.08h3.19c.12,0,.22.04.3.12.08.08.12.18.12.29,0,.12-.04.22-.13.29-.08.08-.18.11-.29.11h-3.19c-.06,0-.08.03-.08.08v2c0,.24.04.42.13.54s.24.19.48.23c.23.04.57.06,1.02.06.37,0,.69-.02.96-.06.27-.04.52-.17.78-.38.08-.08.19-.13.31-.13s.21.04.28.13c.08.08.11.19.11.32,0,.14-.05.25-.14.34-.26.21-.54.37-.83.46-.29.09-.62.14-1.01.14h-1.32c-.51,0-.92-.13-1.21-.39-.29-.26-.44-.62-.44-1.08v-2.17c0-.06-.03-.08-.08-.08h-1.74s-.07.02-.08.07c-.1.49-.3.93-.58,1.33-.29.4-.63.76-1.02,1.06s-.82.57-1.27.79c-.45.22-.9.39-1.34.53Zm4.37-4.59h1.67c.06,0,.08-.03.08-.08v-1.76c0-.06-.03-.08-.08-.08h-1.67c-.06,0-.08.03-.08.08v1.76c0,.06.03.08.08.08Zm6.37-.94c-.7-.37-1.36-.82-1.98-1.33-.62-.51-1.19-1.06-1.7-1.64s-.97-1.13-1.37-1.67c-.07-.1-.1-.19-.1-.27,0-.15.06-.27.2-.35.08-.06.16-.08.25-.08.16,0,.28.06.36.18.08.1.17.21.25.31.08.1.16.21.23.31.04.04.08.04.13.01.25-.17.49-.36.73-.58.23-.22.44-.45.62-.68.1-.14.23-.21.39-.21.08,0,.15.02.22.07.14.09.21.21.21.35,0,.08-.03.15-.08.21-.22.29-.47.56-.74.82s-.53.48-.8.67c-.04.04-.04.08-.01.13.28.31.54.58.78.83.04.04.08.04.11.01.31-.21.61-.47.91-.76s.54-.57.73-.84c.09-.12.21-.18.34-.18.08,0,.15.02.2.06.14.08.21.21.21.38,0,.07-.02.15-.07.22-.21.35-.48.67-.78.97-.31.3-.6.54-.87.73-.05.04-.04.08.01.14.32.27.62.51.92.72.3.21.59.39.88.55.21.11.32.29.32.53,0,.07,0,.12-.01.15-.03.19-.14.28-.32.28-.06,0-.11-.01-.15-.04Z"/><path d="m173.69,185.69c-.12,0-.22-.04-.31-.12s-.13-.19-.13-.31.04-.22.13-.31.19-.13.31-.13h4.72c.06,0,.08-.03.08-.08v-3.09c0-.06-.03-.08-.08-.08h-3.04c-.12,0-.22-.04-.31-.13s-.13-.19-.13-.31.04-.22.13-.31.19-.13.31-.13h3.04c.06,0,.08-.03.08-.08v-2.76c0-.06-.03-.08-.08-.08h-3.04c-.06,0-.09.02-.1.06-.21.34-.43.66-.67.97-.24.31-.5.59-.77.85-.07.06-.15.1-.27.1-.13,0-.24-.05-.32-.15-.07-.07-.1-.17-.1-.29,0-.14.05-.26.15-.36.4-.38.75-.81,1.05-1.27s.55-.95.74-1.44c.2-.49.34-.96.43-1.41.02-.1.07-.19.15-.25.08-.07.17-.1.27-.1.16,0,.28.06.37.18.09.12.12.25.09.39-.07.27-.15.56-.25.85-.1.3-.22.6-.37.91-.03.07,0,.1.07.1h2.55c.06,0,.08-.03.08-.08v-2.16c0-.13.04-.24.13-.32s.19-.13.32-.13c.13,0,.24.04.32.13s.13.19.13.32v2.16c0,.06.03.08.08.08h3.65c.12,0,.22.04.31.12s.13.19.13.31-.04.22-.13.31c-.08.08-.19.13-.31.13h-3.65c-.06,0-.08.03-.08.08v2.76c0,.06.03.08.08.08h2.98c.12,0,.22.04.31.12.08.08.13.18.13.32,0,.12-.04.22-.12.31-.08.08-.18.13-.32.13h-2.98c-.06,0-.08.03-.08.08v3.09c0,.06.03.08.08.08h4.66c.13,0,.24.04.32.13s.12.19.12.31-.04.22-.12.31-.18.12-.32.12h-10.44Z"/><path d="m196.79,185.11c-.55.14-1.06.24-1.54.3-.48.06-.92.09-1.33.09-1.07,0-1.9-.18-2.48-.55s-.94-.79-1.08-1.29c-.03-.08-.05-.17-.06-.26,0-.09-.01-.17-.01-.26,0-.39.12-.76.36-1.1.24-.34.57-.63,1-.86.43-.23.92-.37,1.47-.42.09,0,.18-.02.27-.02s.18,0,.27,0c.44,0,.88.05,1.33.15.45.1.88.24,1.3.41,0,0,.02,0,.03,0,0,0,.02,0,.03,0,.08,0,.1-.04.07-.13-.13-.43-.33-.92-.59-1.48-.26-.55-.55-1.12-.85-1.69-.04-.06-.09-.08-.17-.07-.61.14-1.24.25-1.89.32-.65.07-1.3.1-1.93.1h-.37c-.13,0-.25,0-.39-.01-.09,0-.18-.05-.26-.13s-.12-.17-.12-.28.04-.21.12-.29.18-.12.3-.11h.49c.66,0,1.29-.03,1.89-.08.6-.05,1.16-.13,1.68-.24.11-.02.13-.07.07-.15-.22-.38-.45-.74-.67-1.07-.22-.33-.43-.62-.63-.86-.07-.07-.1-.14-.1-.24,0-.14.06-.24.17-.31.09-.06.19-.1.29-.1.15,0,.28.06.38.18.23.28.47.61.71.97s.5.78.76,1.22c.04.07.09.09.17.07.32-.1.62-.21.9-.33s.55-.25.81-.4c.07-.04.14-.06.21-.06.17,0,.29.07.36.2.04.07.06.14.06.22,0,.18-.07.3-.21.38-.49.28-1.06.51-1.69.7-.09.03-.12.08-.07.17l.11.22c.34.68.65,1.35.91,1.99.26.65.46,1.23.6,1.73,0,.03.01.07.01.11,0,.17-.08.29-.24.38-.09.06-.21.08-.34.08-.1,0-.21-.02-.32-.07-.55-.27-1.07-.46-1.55-.57-.49-.11-.93-.17-1.34-.17-.53,0-.99.08-1.36.24-.38.16-.67.36-.87.61-.2.25-.3.51-.3.78,0,.24.1.48.29.71s.49.42.9.56c.41.14.93.22,1.57.22.52,0,.97-.03,1.36-.08.38-.06.8-.14,1.26-.27.03,0,.06-.01.11-.01.12,0,.23.04.32.12.09.08.13.18.13.3,0,.22-.1.36-.31.41Z"/><path d="m212.43,185.21c-.78.08-1.47.14-2.06.19-.59.05-1.1.08-1.53.08-.49,0-.88-.04-1.19-.11-.31-.08-.57-.2-.78-.38-.36-.31-.59-.69-.67-1.16s-.13-.99-.13-1.59v-2.95c0-.09-.04-.13-.13-.11-.35,0-.69.02-1.03.04s-.68.02-1.03.01c-.11,0-.21-.05-.29-.13-.08-.08-.13-.18-.13-.29,0-.13.04-.24.13-.32s.19-.13.32-.13c.35,0,.7,0,1.04,0,.34-.01.67-.03.99-.04.08-.02.13-.07.13-.14v-2.53c0-.13.04-.24.13-.32s.19-.13.31-.13.23.04.32.13c.09.08.13.19.13.32v2.46c0,.08.04.12.13.11.58-.06,1.14-.12,1.69-.18.55-.07,1.09-.13,1.62-.2.08-.02.13-.06.13-.14,0-.5-.02-.98-.04-1.44-.02-.47-.03-.84-.04-1.13,0-.13.04-.24.13-.33.09-.09.2-.13.33-.13.12,0,.22.04.31.13s.13.19.13.31c0,.29.02.66.04,1.11s.03.92.04,1.41c0,.08.04.12.13.11.3-.03.6-.05.9-.07.3-.02.6-.03.9-.03.07,0,.15,0,.24,0,.08,0,.17,0,.25,0,.11,0,.21.05.29.13s.12.17.12.29c0,.12-.04.23-.13.31-.09.09-.2.13-.33.13-.08,0-.15,0-.23,0-.08,0-.16,0-.23,0-.29,0-.58,0-.88.03s-.59.04-.89.06c-.08,0-.13.06-.13.14.02.41.03.78.04,1.11,0,.33,0,.58,0,.74,0,1.33-.57,2-1.71,2-.31,0-.64-.05-1.01-.14-.09-.02-.17-.07-.22-.15-.06-.08-.08-.17-.08-.26,0-.14.05-.25.15-.34.1-.08.21-.13.33-.13.06,0,.1,0,.13.01.25.07.48.1.67.1.38,0,.62-.11.71-.34.09-.22.14-.49.14-.8,0-.14,0-.37,0-.68s-.02-.66-.04-1.04c0-.1-.04-.14-.13-.13-.54.07-1.09.13-1.65.19-.55.06-1.12.12-1.69.18-.08,0-.13.06-.13.14v3.46c0,.49.05.87.15,1.16.1.28.28.49.55.6.27.12.66.17,1.18.17.41,0,.91-.03,1.48-.09.58-.06,1.26-.13,2.06-.22.13,0,.25.03.34.11.1.08.15.19.15.32,0,.12-.04.23-.12.32-.08.09-.18.15-.32.17Z"/><path d="m223.65,185.55c-.58,0-1.04-.08-1.38-.24-.34-.16-.58-.36-.73-.61-.15-.25-.22-.5-.22-.75,0-.13.02-.26.06-.39s.08-.25.14-.35c.26-.45.59-.67.98-.67.18,0,.36.04.56.13.34.15.68.39,1.03.74.35.34.67.69.96,1.04.05.06.1.07.17.04.37-.14.72-.32,1.04-.53s.58-.46.78-.76c.23-.33.35-.7.35-1.12,0-.31-.07-.6-.22-.89-.14-.29-.36-.53-.65-.74s-.66-.33-1.11-.38c-.09-.02-.19-.03-.28-.03h-.29c-.72,0-1.44.17-2.16.51-.72.34-1.48.87-2.28,1.59-.08.07-.19.11-.32.11-.1,0-.19-.02-.27-.07-.1-.07-.15-.17-.15-.29,0-.08.02-.15.06-.2.77-1.14,1.51-2.15,2.21-3.04s1.36-1.65,2-2.28c.08-.08.07-.11-.04-.08-.24.07-.58.12-1.02.16-.43.04-.88.06-1.35.06h-.34c-.11,0-.22,0-.32-.01-.11,0-.21-.06-.29-.15-.08-.09-.12-.19-.12-.3,0-.13.05-.24.14-.33.09-.09.21-.13.34-.12.38.03.75.04,1.11.04.49,0,.95-.03,1.39-.09.44-.06.87-.16,1.3-.3.03,0,.06-.02.08-.02s.06,0,.08,0c.22,0,.37.1.45.29.04.07.06.16.06.25,0,.2-.08.36-.22.49-.5.45-.93.87-1.29,1.26-.37.39-.72.8-1.05,1.21s-.68.89-1.06,1.42c-.02.04-.03.07-.03.08,0,.07.05.09.14.04.54-.3,1.11-.54,1.7-.73.59-.19,1.17-.28,1.73-.28.72,0,1.33.17,1.83.5.5.33.84.78,1.02,1.35.09.29.14.59.14.91,0,.64-.2,1.23-.6,1.76s-.95.96-1.64,1.27c-.7.32-1.5.48-2.4.48Zm.5-.83c.06,0,.09-.02.11-.06s0-.07-.04-.11c-.24-.3-.51-.57-.81-.83-.3-.25-.57-.38-.81-.38-.14,0-.26.04-.35.13-.09.09-.14.2-.14.34,0,.07.01.13.04.21.09.21.25.37.46.48.21.1.45.17.73.19s.55.03.82.02Z"/></g><rect class="cls-7" x=".6" y="160.16" width="251.8" height="38.34" rx="4.68" ry="4.68"/><g><rect class="cls-2" x="45.5" y="68" width="162" height="82"/><rect class="cls-1" x="45.5" y="68" width="162" height="5"/><g><polygon class="cls-6" points="113 58.72 113 36.06 111 36.06 111 58.72 108.08 58.72 112 66.06 115.92 58.72 113 58.72"/><polygon class="cls-4" points="142 58.72 142 36.06 140 36.06 140 58.72 137.08 58.72 141 66.06 144.92 58.72 142 58.72"/><polygon class="cls-5" points="127 58.72 127 36.06 125 36.06 125 58.72 122.08 58.72 126 66.06 129.92 58.72 127 58.72"/></g><g><path d="m75.6,108.59c-2.73-.56-4.62-2.17-5.68-4.82-.03-.06-.07-.07-.11-.03-.29.26-.6.52-.93.76-.33.25-.68.48-1.04.71-.04,0-.06.04-.06.1v1.93c0,.06.03.09.1.08.35-.08.71-.17,1.08-.29.36-.12.71-.24,1.04-.37.06-.03.11-.04.17-.04.11,0,.21.04.28.12.07.08.11.19.11.32,0,.22-.11.38-.32.48-.35.12-.75.25-1.22.39-.47.14-.93.25-1.39.34-.19.04-.35,0-.5-.14-.15-.13-.22-.3-.22-.5v-1.79c0-.08-.03-.11-.1-.07-.57.27-1.15.5-1.74.7-.03,0-.07.01-.13.01-.11,0-.21-.04-.3-.12s-.13-.18-.13-.32c0-.21.1-.36.31-.43.99-.34,1.82-.7,2.48-1.1.67-.4,1.23-.8,1.7-1.21.03-.02.04-.04.03-.06,0-.02-.03-.04-.07-.04h-3.82c-.12,0-.22-.04-.31-.13s-.13-.19-.13-.31.04-.22.13-.31.19-.12.31-.12h4.63c.06,0,.08-.03.08-.08v-1.09c0-.06-.03-.08-.08-.08h-3.15c-.11,0-.21-.04-.29-.12-.08-.08-.13-.18-.13-.3s.04-.22.13-.3.18-.12.29-.12h3.15c.06,0,.08-.03.08-.08v-1.09c0-.06-.03-.08-.08-.08h-3.82c-.12,0-.22-.04-.31-.12s-.13-.18-.13-.3.04-.22.13-.31.19-.13.31-.13h3.82c.06,0,.08-.03.08-.08v-.8c0-.12.04-.22.13-.31s.19-.13.31-.13c.13,0,.24.04.32.13.08.08.12.19.12.31v.8c0,.06.03.08.08.08h3.82c.13,0,.24.04.32.13.08.08.12.19.12.31s-.04.22-.13.3-.19.12-.31.12h-3.82c-.06,0-.08.03-.08.08v1.09c0,.06.03.08.08.08h3.15c.12,0,.22.04.3.13s.12.18.12.29c0,.12-.04.22-.12.3-.08.08-.18.12-.3.12h-3.15c-.06,0-.08.03-.08.08v1.09c0,.05.03.08.08.08h4.63c.13,0,.24.04.31.12s.12.19.12.31-.04.22-.13.31-.19.13-.31.13h-4.7c-.07,0-.08.03-.06.1.36.94.81,1.72,1.37,2.34.04.04.08.04.13.01.34-.19.7-.43,1.08-.73.39-.3.71-.62.97-.98.08-.12.2-.18.35-.18.08,0,.16.02.24.07.14.09.21.22.21.38,0,.09-.03.18-.08.25-.23.32-.54.63-.93.95-.39.32-.78.6-1.17.85-.06.05-.06.08-.01.11.81.65,1.82,1.11,3.01,1.36.21.05.32.18.32.41,0,.15-.06.27-.18.35-.12.08-.25.12-.38.1Z"/><path d="m90.56,108.69c-1.67-.3-3.13-.9-4.38-1.79-.04-.03-.08-.03-.11,0-.67.48-1.4.86-2.17,1.15s-1.55.5-2.34.63c-.13.02-.25-.01-.35-.1-.1-.08-.15-.2-.15-.35,0-.1.04-.2.1-.29.07-.09.16-.14.27-.16.77-.14,1.49-.33,2.13-.57.65-.24,1.23-.53,1.76-.87.06-.04.06-.08.01-.13-.4-.35-.77-.75-1.11-1.18-.34-.43-.65-.89-.95-1.37-.04-.05-.06-.11-.06-.2,0-.07.02-.15.06-.22.04-.08.1-.13.18-.17.04-.02.07-.03.1-.04.03,0,.06-.01.1-.01.18,0,.31.08.41.24.56.95,1.23,1.76,2,2.42.04.04.08.04.11,0,.85-.74,1.5-1.67,1.95-2.79.04-.07.02-.1-.06-.1h-6.26c-.06,0-.08.03-.08.08-.07.97-.18,1.93-.35,2.88-.17.95-.43,1.84-.78,2.67-.08.16-.21.24-.39.24-.06,0-.12-.01-.2-.04-.17-.08-.25-.23-.25-.43,0-.07.01-.13.04-.2.18-.39.33-.82.47-1.28.13-.46.25-1,.34-1.61.09-.61.17-1.33.22-2.15.05-.82.08-1.79.08-2.9v-.87c0-.21.08-.39.22-.54.15-.14.33-.22.53-.22h3.32c.06,0,.08-.03.08-.08v-1.13c0-.13.04-.24.13-.32s.19-.13.31-.13c.13,0,.24.04.32.13s.13.19.13.32v1.13c0,.06.03.08.08.08h3.61c.16,0,.29.06.41.17.11.11.17.24.17.39v.07s0,.05-.01.07c-.17.58-.37,1.1-.62,1.57-.08.18-.23.27-.45.27-.15,0-.26-.05-.34-.14-.08-.09-.12-.2-.12-.32,0-.05,0-.09.01-.14,0-.05.03-.09.06-.12.08-.13.16-.27.22-.41.06-.14.13-.29.18-.44.04-.07.02-.1-.06-.1h-3.07c-.06,0-.08.03-.08.08v2.45c0,.05.03.08.08.08h2.63c.16,0,.29.05.4.16s.16.24.16.38c0,.03,0,.08-.03.15-.24.75-.56,1.42-.95,2.02-.39.6-.83,1.12-1.33,1.58-.05.05-.05.08,0,.11,1.07.73,2.34,1.23,3.79,1.5.11.02.2.07.27.15.07.08.1.17.1.27,0,.14-.05.25-.15.34-.1.09-.22.12-.35.11Zm-8.72-6.78h3.14c.06,0,.08-.03.08-.08v-2.45c0-.06-.03-.08-.08-.08h-3.11c-.06,0-.08.03-.08.08v1.56c0,.29,0,.59-.03.89,0,.05.03.08.08.08Z"/><path d="m100.79,107.57c-.13,0-.25-.03-.36-.11-.11-.08-.17-.2-.17-.35,0-.11.04-.21.11-.3.07-.09.17-.14.29-.16,1.18-.19,2.09-.59,2.73-1.2s.95-1.4.95-2.37c0-.62-.15-1.18-.46-1.65-.3-.48-.71-.85-1.2-1.13s-1.04-.41-1.63-.41c-.07,0-.12.04-.14.11-.18.8-.39,1.6-.64,2.38-.25.78-.55,1.5-.9,2.16-.78,1.46-1.6,2.18-2.44,2.18-.05,0-.1,0-.15,0-.05,0-.1-.01-.15-.02-.43-.1-.75-.36-.97-.78-.21-.42-.32-.91-.32-1.48,0-.52.1-1.08.29-1.66s.47-1.13.85-1.65c.53-.73,1.18-1.27,1.95-1.62.77-.35,1.55-.52,2.35-.52.64,0,1.26.11,1.84.34s1.09.56,1.53,1c.44.44.75.98.94,1.64.06.18.1.37.12.56.02.2.04.4.04.6,0,.49-.09.97-.26,1.45-.17.48-.44.93-.8,1.34-.36.42-.82.77-1.38,1.06-.56.29-1.23.49-2.02.59Zm-4.41-2.11c.16.25.34.38.53.38s.42-.12.66-.35.47-.55.71-.95c.24-.4.46-.85.68-1.34s.41-1.01.58-1.55.31-1.05.41-1.55v-.03c0-.08-.04-.12-.13-.1-.62.1-1.18.34-1.7.71-.52.37-.94.83-1.27,1.38-.22.38-.39.79-.51,1.23-.12.43-.17.83-.17,1.2,0,.41.07.74.21.98Z"/><path d="m112.4,108.24c-.07.04-.14.06-.22.06-.17,0-.29-.07-.38-.21-.04-.07-.06-.14-.06-.21,0-.17.08-.3.22-.39.77-.46,1.47-.94,2.09-1.45.62-.51,1.16-1.03,1.64-1.56.05-.07.05-.13,0-.18-.22-.32-.52-.62-.88-.9-.36-.29-.74-.51-1.13-.68-.18-.08-.27-.21-.27-.39,0-.07.01-.12.04-.15.1-.2.26-.29.46-.29.07,0,.13.01.2.04.43.18.83.42,1.2.73s.69.62.95.92c.06.07.11.07.17,0,.24-.32.46-.63.64-.94.19-.31.35-.61.5-.9.18-.35.27-.68.27-.96,0-.59-.37-.88-1.12-.88h-1.97c-.06,0-.11.03-.15.08-.43.59-.92,1.16-1.46,1.73-.55.56-1.12,1.07-1.71,1.52-.08.07-.17.1-.25.1-.13,0-.25-.06-.35-.2-.06-.08-.08-.17-.08-.25,0-.14.06-.26.18-.36.77-.61,1.44-1.22,1.99-1.84.55-.62,1-1.21,1.36-1.76s.62-1.01.81-1.39c.09-.18.23-.27.42-.27.13,0,.24.04.31.13.08.09.12.18.12.29,0,.08-.01.14-.04.2-.07.17-.16.34-.26.5s-.2.34-.3.52c-.02.04-.03.06-.03.07,0,.06.04.08.11.08h1.32c.51,0,.92.07,1.22.22.3.14.51.33.64.57s.2.5.2.78c0,.24-.04.49-.11.76-.08.26-.17.51-.29.76-.4.79-.87,1.54-1.41,2.23-.54.69-1.18,1.36-1.92,1.99-.74.64-1.63,1.28-2.67,1.91Zm7.48-8.69s-.08.04-.14.04c-.1,0-.18-.04-.24-.13-.15-.23-.33-.48-.53-.74-.21-.26-.4-.48-.59-.66-.07-.07-.1-.14-.1-.21,0-.08.03-.14.08-.18.06-.07.13-.1.21-.1.08,0,.14.03.2.08.21.21.41.44.62.71.21.27.4.53.57.78.03.04.04.09.04.15,0,.1-.04.18-.13.24Zm1.05-.62s-.08.04-.14.04c-.1,0-.18-.04-.24-.13-.15-.23-.32-.48-.52-.73-.2-.25-.39-.47-.57-.64-.05-.07-.07-.13-.07-.18,0-.07.02-.13.07-.18.07-.06.14-.1.21-.1s.14.03.2.08c.21.21.41.44.6.69.2.26.38.51.55.76.03.04.04.08.04.14,0,.1-.04.18-.13.24Z"/><path d="m126.72,107.85c-.07.04-.13.06-.21.06-.19,0-.33-.08-.42-.25-.04-.07-.06-.14-.06-.24,0-.19.08-.32.24-.41.84-.49,1.61-1.03,2.3-1.64.7-.61,1.32-1.27,1.87-1.99.02-.02.03-.05.03-.08,0-.05-.02-.07-.07-.08-.41-.21-.84-.4-1.3-.57-.46-.16-.94-.31-1.46-.44-.11-.03-.2-.09-.27-.17s-.1-.18-.1-.29c0-.18.07-.31.2-.4.13-.09.27-.12.41-.09.53.12,1.06.28,1.58.49.52.21,1.01.44,1.49.7.04.02.07.03.08.03.04,0,.07-.02.1-.07.39-.63.74-1.3,1.04-2s.55-1.44.76-2.21c.02-.1.07-.19.16-.25s.18-.1.29-.1c.15,0,.27.05.36.14.09.09.13.2.13.32,0,.06,0,.1-.01.13-.18.78-.43,1.55-.76,2.29-.33.74-.71,1.46-1.15,2.15-.02.04-.03.06-.03.07,0,.05.03.08.08.11.77.5,1.44,1.02,2.03,1.58.12.12.18.26.18.42,0,.12-.04.23-.11.34-.08.11-.2.17-.34.17-.1,0-.2-.04-.29-.11-.68-.65-1.36-1.2-2.03-1.62-.07-.06-.12-.05-.17.03-.61.8-1.3,1.54-2.07,2.22-.77.68-1.6,1.27-2.49,1.79Z"/><path d="m140.82,103.27c-.12,0-.23-.04-.31-.13s-.13-.19-.13-.32c0-.13.04-.24.13-.32.09-.08.19-.13.31-.13h8.74c.12,0,.23.04.31.13s.13.19.13.32c0,.12-.04.23-.13.32-.08.09-.19.13-.32.13h-8.74Z"/><path d="m157.97,103.48c-.32-.14-.68-.25-1.08-.34-.41-.09-.78-.14-1.13-.16-.12,0-.22-.05-.31-.13-.08-.08-.13-.17-.13-.29,0-.14.05-.26.14-.35.09-.09.2-.14.32-.14.38.02.8.08,1.27.17s.88.23,1.27.41c.18.08.27.21.27.42,0,.14-.04.25-.13.34s-.19.13-.31.13c-.05,0-.11-.01-.18-.04Zm.83-3.02c-.68-.44-1.45-.71-2.3-.83-.12-.02-.21-.07-.28-.15s-.1-.17-.1-.27c0-.14.05-.26.16-.35s.22-.13.34-.11c.44.05.88.15,1.33.3.45.15.86.35,1.23.59.15.09.22.23.22.42,0,.09-.02.18-.06.25-.08.13-.19.2-.35.2-.07,0-.14-.02-.21-.06Zm-1.99,7.52s-.07.01-.13.01c-.13,0-.25-.05-.35-.14s-.15-.21-.15-.36c0-.23.12-.38.35-.45.6-.17,1.24-.41,1.92-.73.68-.32,1.36-.71,2.04-1.17.68-.46,1.33-.99,1.94-1.58s1.15-1.24,1.6-1.95c.08-.13.21-.2.38-.2.1,0,.19.03.25.08.15.09.22.24.22.43,0,.11-.03.21-.08.29-.37.58-.85,1.16-1.43,1.75-.58.59-1.22,1.15-1.94,1.68-.71.53-1.46,1-2.25,1.4-.79.4-1.58.7-2.37.91Zm7.59-7.9s-.08.04-.14.04c-.1,0-.18-.04-.24-.12-.15-.23-.32-.48-.52-.74-.2-.26-.39-.48-.58-.66-.07-.07-.1-.13-.1-.21,0-.06.03-.12.08-.18s.13-.08.21-.08c.07,0,.13.02.18.07.21.21.43.44.64.71s.4.53.57.78c.03.04.04.08.04.14,0,.11-.05.2-.14.25Zm1.06-.6s-.08.04-.14.04c-.1,0-.18-.04-.24-.13-.15-.23-.32-.48-.52-.74-.2-.26-.39-.47-.57-.65-.06-.06-.08-.12-.08-.18,0-.08.03-.14.08-.18.06-.06.12-.08.2-.08.09,0,.16.03.2.08.21.21.42.43.62.69s.38.5.55.76c.03.04.04.08.04.14,0,.09-.04.18-.13.25Z"/></g><path d="m171.99,105.01c-.19-.16-.29-.36-.29-.61,0-.17.05-.33.14-.49,1.18-1.69,1.98-3.67,2.41-5.92.02-.19.11-.34.25-.46.14-.11.31-.17.49-.17.26,0,.47.1.63.29.16.19.22.41.18.65-.12.7-.31,1.44-.57,2.24-.26.8-.57,1.58-.94,2.33-.37.76-.78,1.43-1.23,2.03-.17.19-.37.29-.59.29-.17,0-.33-.06-.49-.18Zm4.88,3.82c-.22-.01-.39-.1-.52-.25-.13-.16-.2-.34-.2-.54,0-.24.09-.44.26-.6s.38-.23.6-.21c.13.01.25.02.37.03.11,0,.22,0,.31,0,.28,0,.48-.05.6-.14s.19-.29.19-.59v-12.44c0-.22.08-.4.24-.56.16-.16.35-.23.57-.23s.4.08.56.23c.16.16.23.34.23.56v12.44c0,1.55-.88,2.32-2.65,2.32h-.28c-.1,0-.2,0-.3-.02Zm9.54-3.76c-.14.11-.31.16-.49.16-.3,0-.52-.12-.67-.36-.4-.61-.77-1.31-1.13-2.08-.36-.77-.68-1.55-.95-2.34-.28-.79-.5-1.5-.67-2.13-.01-.02-.02-.05-.02-.09v-.09c0-.21.08-.38.22-.54.15-.16.34-.23.57-.23.18,0,.34.06.5.18.15.12.25.28.3.47.44,1.99,1.28,3.95,2.52,5.87.1.14.14.31.14.5,0,.28-.11.5-.32.68Z"/><g><circle class="cls-3" cx="113.67" cy="129.35" r="11.43"/><circle class="cls-3" cx="139.67" cy="129.35" r="11.43"/></g></g></g></g></svg>