<?xml version="1.0" encoding="UTF-8"?><svg id="_レイヤー_2" xmlns="http://www.w3.org/2000/svg" xmlns:xlink="http://www.w3.org/1999/xlink" viewBox="0 0 253 109"><defs><style>.cls-1{fill:#0071bc;}.cls-2{fill:#4a2700;}.cls-3{fill:url(#_名称未設定グラデーション_14-4);}.cls-4{fill:url(#_名称未設定グラデーション_14-5);}.cls-5{fill:url(#_名称未設定グラデーション_14-6);}.cls-6{fill:url(#_名称未設定グラデーション_14-3);}.cls-7{fill:url(#_名称未設定グラデーション_14-2);}.cls-8{fill:url(#_名称未設定グラデーション_14);}.cls-9{fill:#ccc7c5;opacity:.8;}</style><linearGradient id="_名称未設定グラデーション_14" x1="18.72" y1="35.31" x2="18.72" y2="62.05" gradientUnits="userSpaceOnUse"><stop offset=".27" stop-color="#f8f7f6"/><stop offset="1" stop-color="#0071bc"/></linearGradient><linearGradient id="_名称未設定グラデーション_14-2" x1="32.72" x2="32.72" xlink:href="#_名称未設定グラデーション_14"/><linearGradient id="_名称未設定グラデーション_14-3" x1="47.72" y1="35.31" x2="47.72" y2="62.05" xlink:href="#_名称未設定グラデーション_14"/><linearGradient id="_名称未設定グラデーション_14-4" x1="108.72" x2="108.72" xlink:href="#_名称未設定グラデーション_14"/><linearGradient id="_名称未設定グラデーション_14-5" x1="122.72" x2="122.72" xlink:href="#_名称未設定グラデーション_14"/><linearGradient id="_名称未設定グラデーション_14-6" x1="137.72" x2="137.72" xlink:href="#_名称未設定グラデーション_14"/></defs><g id="_レイヤー_1-2"><g><rect class="cls-9" width="253" height="31"/><g><path d="m75.79,14.18c-.08.07-.17.11-.28.11-.13,0-.24-.05-.32-.14-.07-.07-.11-.17-.11-.29,0-.13.05-.24.14-.32.42-.42.79-.88,1.12-1.39.33-.51.59-1,.8-1.46.1-.22.27-.34.5-.34.13,0,.24.04.31.13.08.08.12.18.12.28,0,.04,0,.08-.03.14-.21.51-.51,1.07-.91,1.66s-.85,1.14-1.34,1.63Zm1.25,8.19c-.12,0-.23-.04-.31-.13s-.13-.19-.13-.31v-5.15s-.01-.06-.04-.07-.04,0-.06.03c-.11.12-.22.24-.34.36-.11.12-.22.23-.34.33-.07.07-.16.1-.27.1-.14,0-.25-.06-.34-.17-.07-.07-.1-.18-.1-.31,0-.16.06-.28.17-.38.51-.47,1-1.01,1.46-1.64.46-.62.85-1.26,1.17-1.92.1-.18.24-.27.42-.27.14,0,.25.05.34.14s.13.2.13.31c0,.06-.01.11-.04.17-.15.32-.33.65-.55.99-.22.34-.45.68-.69,1.02-.02.04-.03.07-.03.1v6.37c0,.12-.04.22-.13.31-.09.08-.19.13-.32.13Zm1.36-.15c-.16-.06-.24-.18-.24-.38,0-.07.01-.13.04-.18.32-.58.59-1.19.83-1.83.23-.64.42-1.26.57-1.85s.26-1.1.32-1.53c.02-.11.08-.2.17-.27.1-.07.2-.08.3-.06.13.04.23.11.31.21.07.1.1.22.08.35-.04.26-.09.53-.15.81-.06.28-.13.56-.2.84,0,.03,0,.07.03.11.33.48.64.9.93,1.26.29.36.61.67.96.91.06.05.1.03.1-.06v-6.34c0-.06-.03-.08-.08-.08h-2.87c-.12,0-.22-.04-.29-.12-.08-.08-.11-.18-.11-.29,0-.12.04-.22.12-.29.08-.07.17-.11.29-.11h3.29s.07-.01.1-.04c.3-.37.57-.78.83-1.22.25-.44.46-.89.62-1.34.08-.22.23-.34.45-.34.13,0,.23.04.31.12.07.08.11.17.11.27,0,.06,0,.1-.01.13-.12.39-.28.78-.48,1.16-.2.38-.42.77-.69,1.16-.05.07-.03.1.06.1h2.39c.12,0,.22.04.3.12.08.08.12.18.12.29,0,.12-.04.22-.13.29-.08.07-.18.11-.29.11h-3.04c-.06,0-.08.03-.08.08v2.44c0,.06.03.08.08.08h2.23c.12,0,.22.04.29.12.07.08.11.18.11.29s-.04.21-.11.29c-.08.08-.17.12-.29.12h-2.23c-.06,0-.08.03-.08.08v3.42s.02.08.06.08c.23.07.48.12.74.16.26.04.55.06.87.06h1.46c.13,0,.24.04.32.13.08.08.12.19.12.31s-.04.22-.13.3c-.08.08-.19.12-.31.12h-1.46c-.65,0-1.22-.06-1.69-.19-.47-.13-.89-.31-1.25-.55-.36-.24-.69-.52-.99-.86-.3-.34-.6-.71-.91-1.13-.05-.06-.08-.05-.11.03-.17.49-.34.94-.52,1.38s-.34.8-.48,1.08c-.1.2-.26.29-.48.29-.07,0-.14-.01-.21-.04Zm3.46-9.46c-.06.02-.1.03-.14.03-.18,0-.3-.08-.38-.25-.22-.52-.49-.98-.8-1.36-.06-.07-.1-.17-.1-.28,0-.15.06-.26.17-.32.08-.06.18-.08.29-.08.2,0,.34.08.42.24.13.22.27.47.41.74.14.27.26.52.36.76.02.06.03.1.03.14,0,.19-.09.32-.27.39Z"/><path d="m95.99,22.37c-.12,0-.22-.04-.31-.13-.08-.08-.13-.19-.13-.31v-3.29s-.01-.06-.03-.07c-.02,0-.04,0-.06.03-.4.44-.88.88-1.43,1.31-.55.43-1.11.83-1.68,1.18-.57.35-1.08.63-1.54.84-.06.03-.11.04-.17.04-.11,0-.21-.04-.31-.13s-.14-.19-.14-.32c0-.21.1-.35.31-.45.38-.16.8-.37,1.25-.64.45-.27.91-.57,1.36-.9.45-.33.87-.67,1.24-1.02.37-.34.67-.67.88-.98.05-.06.03-.1-.06-.1h-4.48c-.12,0-.22-.04-.31-.13-.08-.08-.13-.19-.13-.31,0-.11.04-.21.13-.29.08-.08.19-.13.31-.13h4.77c.06,0,.08-.03.08-.08v-3.4c0-.06-.03-.08-.08-.08h-3.96c-.12,0-.22-.04-.31-.13-.08-.08-.13-.19-.13-.31s.04-.22.13-.3c.08-.08.19-.12.31-.12h3.96c.06,0,.08-.03.08-.08v-1.19c0-.12.04-.22.13-.31.08-.08.19-.13.31-.13s.22.04.31.12c.08.08.13.18.13.31v1.19c0,.06.03.08.08.08h4.07c.12,0,.22.04.31.13.08.08.13.18.13.29,0,.12-.04.22-.13.31-.08.08-.19.13-.31.13h-4.07c-.06,0-.08.03-.08.08v3.4c0,.06.03.08.08.08h4.89c.13,0,.24.04.31.13.08.08.12.18.12.29,0,.12-.04.22-.13.31-.08.08-.19.13-.31.13h-4.58c-.08,0-.1.03-.06.1.23.34.54.68.93,1.03s.81.69,1.27,1.02c.46.33.91.63,1.37.89.46.26.87.47,1.25.63.2.08.29.23.29.43,0,.07,0,.11-.01.14-.09.21-.24.32-.43.32-.04,0-.08,0-.14-.03-.35-.14-.74-.33-1.17-.57-.42-.24-.85-.51-1.29-.82-.43-.31-.85-.63-1.25-.97-.4-.34-.75-.68-1.06-1.03-.02-.03-.04-.04-.06-.03-.02,0-.04.03-.04.07v3.3c0,.12-.04.22-.12.31-.08.08-.18.13-.31.13Zm-1.74-6.13c-.06.03-.11.04-.17.04-.19,0-.32-.08-.39-.25-.3-.67-.73-1.3-1.29-1.88-.08-.08-.13-.18-.13-.29,0-.14.06-.25.17-.34.1-.07.21-.11.31-.11.17,0,.3.07.41.2.21.26.43.57.67.92.24.35.46.72.64,1.11.03.06.04.12.04.2,0,.18-.09.31-.27.41Zm3.36-.06c-.09-.06-.14-.15-.14-.28,0-.11.03-.2.1-.27.24-.27.47-.57.68-.9.21-.33.4-.68.58-1.06.09-.18.23-.27.41-.27.14,0,.25.04.33.13.08.09.12.19.12.3,0,.07-.01.13-.04.18-.16.31-.36.67-.62,1.07-.25.41-.49.75-.73,1.03-.08.11-.2.17-.35.17-.1,0-.21-.04-.34-.11Z"/><path d="m111.58,21.22c-.13,0-.25-.03-.36-.11-.11-.08-.17-.2-.17-.35,0-.11.03-.21.1-.3.07-.09.17-.14.29-.16,1.19-.19,2.1-.59,2.73-1.2.63-.62.95-1.4.95-2.37,0-.62-.15-1.18-.46-1.65s-.7-.85-1.2-1.13c-.5-.28-1.04-.41-1.63-.41-.07,0-.12.04-.14.11-.18.8-.39,1.6-.64,2.38-.25.78-.55,1.5-.9,2.16-.78,1.46-1.6,2.18-2.44,2.18-.05,0-.1,0-.15,0-.05,0-.1-.01-.15-.02-.43-.1-.75-.36-.97-.78-.21-.42-.32-.91-.32-1.48,0-.52.1-1.08.29-1.66.19-.58.47-1.13.85-1.65.53-.73,1.18-1.27,1.95-1.62.77-.35,1.55-.52,2.35-.52.64,0,1.26.11,1.84.34.58.23,1.09.56,1.53,1,.44.44.75.98.94,1.64.06.18.1.36.12.56.02.2.04.4.04.6,0,.49-.09.97-.26,1.45-.17.48-.44.93-.8,1.34-.36.42-.82.77-1.38,1.06-.56.29-1.23.49-2.02.59Zm-4.41-2.11c.16.25.34.38.53.38s.42-.12.66-.35c.23-.23.47-.55.71-.95.24-.4.46-.85.68-1.34s.41-1.01.58-1.55.31-1.05.41-1.55v-.03c0-.08-.04-.12-.13-.1-.62.1-1.18.34-1.7.71-.52.37-.94.83-1.27,1.38-.22.38-.39.79-.51,1.23s-.18.83-.18,1.2c0,.41.07.74.21.98Z"/><path d="m126.84,20.27c-.99.62-1.85.92-2.58.92-.57,0-1.02-.19-1.34-.58s-.49-.95-.48-1.69v-6.5c0-.13.05-.24.14-.34s.2-.14.32-.14c.13,0,.24.05.34.14s.14.21.14.34v6.36c0,.96.33,1.44.98,1.44.49,0,1.17-.26,2.03-.77.58-.34,1.19-.78,1.85-1.31s1.31-1.12,1.96-1.77c.08-.08.19-.13.31-.13.14,0,.25.05.34.15.08.09.13.21.13.34,0,.15-.06.28-.17.38-.71.69-1.4,1.3-2.08,1.82-.68.52-1.3.97-1.88,1.33Z"/><path d="m136.62,16.93c-.12,0-.23-.04-.31-.13-.09-.09-.13-.19-.13-.31,0-.13.04-.24.13-.32s.19-.13.31-.13h8.74c.12,0,.23.04.31.13.09.08.13.19.13.32,0,.12-.04.23-.13.31-.08.09-.19.13-.32.13h-8.74Z"/><path d="m155.14,21.87c-.07.04-.14.06-.2.06-.18,0-.31-.09-.41-.27-.03-.06-.04-.12-.04-.18,0-.2.08-.34.25-.42.82-.45,1.43-.96,1.84-1.54.41-.58.68-1.24.83-1.97.14-.74.23-1.56.24-2.46,0-.08-.04-.13-.13-.13h-3.09c-.08,0-.13.04-.13.13,0,.65.01,1.22.03,1.71s.09.94.2,1.36c0,.03.01.07.01.13,0,.21-.09.34-.28.41-.03,0-.06.02-.08.02-.03,0-.06,0-.08,0-.22,0-.36-.1-.42-.29-.12-.38-.2-.87-.24-1.45-.04-.58-.06-1.21-.07-1.88,0-.08-.04-.13-.13-.13-.4,0-.78.02-1.15.02-.36,0-.7.02-1.01.04-.13,0-.24-.03-.33-.13-.09-.09-.13-.2-.13-.32s.04-.22.13-.31c.08-.08.18-.13.29-.14.33,0,.67-.02,1.04-.02s.75,0,1.15,0c.08,0,.13-.04.13-.13,0-.14,0-.28,0-.42,0-.14,0-.28,0-.42,0-.48-.01-.94-.04-1.39,0-.13.03-.24.13-.32s.2-.13.32-.13c.13,0,.24.04.32.13.08.09.13.19.14.32.03.84.04,1.58.04,2.21,0,.08.04.13.13.13h1.57c.53,0,1.04,0,1.53-.01.08,0,.13-.04.13-.13v-1.85c0-.21,0-.43.01-.66,0-.12.05-.23.14-.31s.2-.13.32-.13.22.04.31.13.13.19.13.31c0,.43-.02.85-.02,1.27,0,.42,0,.83,0,1.23,0,.08.06.13.18.13.85,0,1.54-.01,2.09-.04.13,0,.24.03.33.12.09.09.13.2.13.33,0,.12-.04.22-.12.31-.08.08-.18.13-.3.14-.29,0-.62.02-.99.03-.37,0-.77.01-1.2.01-.08,0-.13.04-.13.13-.02.73-.08,1.42-.17,2.08-.09.66-.26,1.27-.49,1.84-.23.57-.57,1.09-1.01,1.58-.44.48-1.02.91-1.74,1.29Zm5.85-8.67s-.08.04-.14.04c-.08,0-.16-.04-.24-.13-.15-.23-.32-.48-.52-.74-.2-.26-.39-.48-.58-.66-.07-.07-.1-.14-.1-.21,0-.08.03-.14.08-.18.06-.06.13-.1.21-.1s.15.03.18.08c.21.21.43.44.64.71.21.27.4.53.57.78.03.04.04.08.04.14,0,.11-.05.2-.14.25Zm1.06-.62s-.08.04-.14.04c-.1,0-.18-.04-.24-.13-.15-.23-.32-.48-.52-.73-.2-.25-.39-.47-.57-.64-.06-.06-.08-.12-.08-.2s.03-.13.08-.17c.06-.06.14-.1.21-.1.08,0,.14.03.18.08.21.21.42.44.62.69.2.26.38.51.55.76.03.04.04.08.04.14,0,.1-.04.18-.13.24Z"/><path d="m166.58,16.93c-.12,0-.23-.04-.31-.13-.09-.09-.13-.19-.13-.31,0-.13.04-.24.13-.32.09-.08.19-.13.31-.13h8.74c.12,0,.23.04.31.13s.13.19.13.32c0,.12-.04.23-.13.31-.08.09-.19.13-.32.13h-8.74Z"/></g><circle class="cls-2" cx="33" cy="78.5" r="30.5"/><g><circle class="cls-2" cx="103.56" cy="89.44" r="15.56"/><circle class="cls-2" cx="148.21" cy="94.85" r="8.79"/><circle class="cls-2" cx="124.53" cy="99.59" r="5.41"/><circle class="cls-2" cx="148.88" cy="72.53" r="5.41"/><circle class="cls-2" cx="111.68" cy="62.38" r="8.79"/><circle class="cls-2" cx="131.29" cy="80.65" r="10.82"/></g><g><circle class="cls-2" cx="197.06" cy="89.44" r="15.56"/><circle class="cls-2" cx="241.71" cy="94.85" r="8.79"/><circle class="cls-2" cx="218.03" cy="99.59" r="5.41"/><circle class="cls-2" cx="242.38" cy="72.53" r="5.41"/><circle class="cls-2" cx="205.18" cy="62.38" r="8.79"/><circle class="cls-2" cx="224.79" cy="80.65" r="10.82"/></g><polygon class="cls-1" points="79.27 79.71 72.23 87.43 72.23 72 79.27 79.71"/><polygon class="cls-1" points="172.77 79.71 165.73 87.43 165.73 72 172.77 79.71"/><g><polygon class="cls-8" points="19.72 73.66 19.72 35 17.72 35 17.72 73.66 14.8 73.66 18.72 81 22.65 73.66 19.72 73.66"/><polygon class="cls-7" points="33.72 73.66 33.72 35 31.72 35 31.72 73.66 28.8 73.66 32.72 81 36.65 73.66 33.72 73.66"/><polygon class="cls-6" points="48.72 73.66 48.72 35 46.72 35 46.72 73.66 43.8 73.66 47.72 81 51.65 73.66 48.72 73.66"/></g><g><polygon class="cls-3" points="109.72 73.66 109.72 35 107.72 35 107.72 73.66 104.8 73.66 108.72 81 112.65 73.66 109.72 73.66"/><polygon class="cls-4" points="123.72 73.66 123.72 35 121.72 35 121.72 73.66 118.8 73.66 122.72 81 126.65 73.66 123.72 73.66"/><polygon class="cls-5" points="138.72 73.66 138.72 35 136.72 35 136.72 73.66 133.8 73.66 137.72 81 141.65 73.66 138.72 73.66"/></g></g></g></svg>