<?xml version="1.0" encoding="UTF-8"?><svg id="_レイヤー_2" xmlns="http://www.w3.org/2000/svg" xmlns:xlink="http://www.w3.org/1999/xlink" viewBox="0 0 253.22 167"><defs><style>.cls-1{fill:#ff991f;}.cls-2{fill:#4a2700;}.cls-3{fill:url(#_名称未設定グラデーション_13-6);}.cls-4{fill:url(#_名称未設定グラデーション_13-5);}.cls-5{fill:url(#_名称未設定グラデーション_13-4);}.cls-6{fill:url(#_名称未設定グラデーション_13-3);}.cls-7{fill:url(#_名称未設定グラデーション_13-2);}.cls-8{fill:url(#_名称未設定グラデーション_13);}.cls-9{fill:none;stroke:#ff991f;stroke-miterlimit:10;}.cls-10{fill:#afddd2;opacity:.8;}</style><linearGradient id="_名称未設定グラデーション_13" x1="47.14" y1="35.31" x2="47.14" y2="62.05" gradientUnits="userSpaceOnUse"><stop offset=".27" stop-color="#f8f7f6"/><stop offset="1" stop-color="#ff991f"/></linearGradient><linearGradient id="_名称未設定グラデーション_13-2" x1="33.14" x2="33.14" xlink:href="#_名称未設定グラデーション_13"/><linearGradient id="_名称未設定グラデーション_13-3" x1="19.14" x2="19.14" xlink:href="#_名称未設定グラデーション_13"/><linearGradient id="_名称未設定グラデーション_13-4" x1="141.14" x2="141.14" xlink:href="#_名称未設定グラデーション_13"/><linearGradient id="_名称未設定グラデーション_13-5" x1="127.14" x2="127.14" xlink:href="#_名称未設定グラデーション_13"/><linearGradient id="_名称未設定グラデーション_13-6" x1="113.14" x2="113.14" xlink:href="#_名称未設定グラデーション_13"/></defs><g id="_レイヤー_1-2"><g><g><rect class="cls-10" width="253" height="31"/><g><path d="m85.81,21.63c-.96,0-1.66-.22-2.09-.63-.43-.41-.62-1.07-.59-1.97v-6.69c0-.13.04-.24.13-.33s.2-.13.33-.13.24.04.33.13.13.2.13.33v3.07c0,.08.04.12.13.11,1.07-.07,2.1-.22,3.09-.45.98-.22,1.99-.54,3-.94.03-.02.06-.03.08-.03h.08c.21,0,.34.09.41.28,0,.03.02.06.02.08,0,.03,0,.06,0,.08,0,.22-.11.38-.32.48-.99.37-2.01.68-3.07.92s-2.16.41-3.3.49c-.08,0-.13.06-.13.14v2.45c0,.5.04.87.16,1.1.12.23.31.38.57.45.27.07.61.11,1.03.13.1,0,.21.01.33.01h.37c.45,0,.95-.01,1.49-.04.55-.02,1.08-.05,1.6-.09.52-.04.97-.08,1.34-.14.13-.02.25.02.36.1.11.09.16.2.16.33,0,.12-.04.23-.11.32-.07.09-.18.15-.31.17-.3.04-.66.07-1.09.1-.43.03-.89.06-1.38.08-.49.02-.98.04-1.46.05-.48.01-.92.02-1.32.02Zm5.35-8.12c-.39,0-.72-.14-.99-.41-.27-.27-.41-.6-.41-.99s.13-.71.41-.99c.27-.27.6-.41.99-.41s.71.14.99.41c.28.28.41.6.41.99s-.14.72-.41.99c-.28.27-.6.41-.99.41Zm0-.39c.27,0,.51-.1.71-.29.2-.2.3-.43.3-.71s-.1-.51-.3-.71c-.2-.2-.44-.3-.71-.3s-.52.1-.71.3c-.2.2-.29.44-.29.71s.1.52.29.71c.2.2.43.29.71.29Z"/><path d="m98.58,21c-.13,0-.24-.05-.33-.14-.09-.09-.13-.2-.13-.32,0-.13.04-.24.13-.33.09-.09.2-.13.33-.13h5.12c.47,0,.82-.15,1.07-.46.25-.3.37-.73.37-1.28v-2.72c0-.95-.47-1.43-1.4-1.43h-5.22c-.13,0-.24-.04-.33-.13-.09-.09-.13-.2-.13-.33s.04-.24.13-.33.2-.13.33-.13h5.28c.73,0,1.3.21,1.71.63.41.42.62.99.62,1.72v2.72c0,.81-.21,1.46-.64,1.94-.43.48-1,.72-1.72.72h-5.18Z"/><path d="m115.98,21.81c-.13,0-.24-.05-.33-.14s-.13-.2-.13-.32v-9.49c0-.13.04-.24.13-.34.09-.09.2-.14.33-.14s.24.05.34.14c.09.09.14.21.14.34v3.28c0,.07.04.12.13.14.61.07,1.19.22,1.75.45.56.24,1.08.53,1.57.88.49.35.92.72,1.29,1.12.09.09.14.21.14.35s-.05.26-.14.36c-.07.08-.16.13-.29.13-.11,0-.21-.04-.29-.13-.61-.66-1.23-1.18-1.88-1.54-.65-.36-1.36-.61-2.12-.73h-.03c-.07,0-.11.04-.11.11v5.07c0,.13-.05.24-.14.33s-.21.13-.34.13Z"/><path d="m127.64,16.93c-.12,0-.23-.04-.32-.13-.09-.09-.13-.19-.13-.31,0-.13.04-.24.13-.32s.19-.13.32-.13h8.74c.12,0,.23.04.31.13s.13.19.13.32c0,.12-.04.23-.13.31-.08.09-.19.13-.32.13h-8.74Z"/><path d="m142.44,20.75c-.12-.02-.22-.07-.29-.16-.08-.09-.11-.19-.11-.32,0-.15.05-.27.16-.36.11-.09.24-.12.38-.1.31.04.68.06,1.11.08.43.01.9.02,1.39.02.55,0,1.12,0,1.72-.02.6-.01,1.19-.03,1.76-.05.58-.02,1.12-.04,1.62-.06s.93-.03,1.29-.04c.15,0,.27.05.37.15s.15.22.15.37c0,.12-.05.23-.14.32-.09.09-.21.14-.34.14-1.47,0-2.79,0-3.96.06s-2.19.07-3.09.07c-.38,0-.74,0-1.08-.02s-.66-.04-.96-.08Zm1.16-6.01c-.11,0-.21-.06-.28-.15-.07-.09-.11-.19-.11-.3,0-.14.05-.26.15-.35s.22-.13.35-.11c.48.03,1,.04,1.57.04s1.15,0,1.74-.03c.59-.02,1.15-.04,1.69-.06.54-.02,1.01-.03,1.42-.03.13,0,.24.04.32.13.08.09.13.2.13.33,0,.12-.04.23-.13.31-.09.09-.2.14-.33.15-.4,0-.87,0-1.41.03s-1.11.04-1.7.06c-.59.02-1.17.03-1.73.03-.31,0-.6,0-.88-.01-.28,0-.54-.02-.78-.04Z"/><path d="m160.95,15.39c-.09.09-.2.14-.32.14s-.24-.05-.36-.15c-.32-.29-.69-.53-1.11-.73-.42-.2-.88-.33-1.38-.41-.12-.02-.22-.07-.3-.16-.08-.09-.12-.19-.12-.31,0-.16.06-.29.17-.38.11-.1.23-.14.36-.12.61.08,1.18.26,1.72.53.54.27.98.56,1.33.85.1.09.15.21.15.36s-.05.28-.14.38Zm-3.07,5.81c-.12.03-.24,0-.35-.09-.11-.09-.17-.21-.17-.36,0-.12.04-.23.12-.33.08-.1.18-.16.3-.19.63-.15,1.32-.37,2.04-.67.73-.3,1.47-.68,2.23-1.13s1.49-1,2.21-1.63c.72-.63,1.38-1.35,1.97-2.15.1-.13.23-.2.39-.2.09,0,.19.03.28.1.13.11.2.25.2.42,0,.11-.03.21-.1.31-.5.67-1.1,1.32-1.79,1.95-.69.63-1.43,1.21-2.23,1.74-.8.53-1.63.99-2.5,1.37-.87.38-1.74.67-2.62.85Z"/><path d="m174.7,21.81c-.06.03-.12.04-.18.04-.21,0-.35-.09-.43-.28-.03-.06-.04-.12-.04-.18,0-.21.1-.36.29-.46,1.02-.49,1.87-1.03,2.55-1.63.69-.6,1.24-1.22,1.67-1.85.43-.63.76-1.25.99-1.83.08-.21.15-.41.2-.57s.07-.32.07-.45c0-.45-.3-.67-.9-.67h-2.52c-.06,0-.11.03-.15.08-.41.67-.86,1.32-1.34,1.93-.49.62-.97,1.13-1.44,1.54-.07.07-.15.1-.27.1-.16,0-.29-.06-.38-.18-.08-.09-.11-.19-.11-.29,0-.14.06-.26.18-.36.41-.37.81-.79,1.19-1.26s.74-.95,1.07-1.46c.33-.51.62-1.01.88-1.5.25-.49.46-.94.62-1.34.07-.2.21-.29.41-.29.07,0,.13.01.18.04.2.09.29.24.29.45,0,.08,0,.15-.03.18-.08.21-.16.42-.27.64-.1.22-.21.44-.32.67-.02.04-.03.07-.03.08,0,.05.04.07.11.07h1.96c.66,0,1.13.15,1.41.45.28.3.41.67.41,1.11,0,.22-.03.46-.1.7s-.15.49-.25.73c-1.16,2.57-3.07,4.51-5.73,5.82Zm7.13-8.3s-.08.04-.14.04c-.1,0-.18-.05-.24-.14-.15-.23-.33-.48-.53-.73s-.4-.48-.59-.67c-.06-.06-.08-.13-.08-.21,0-.06.02-.12.07-.18.07-.06.14-.08.21-.08s.13.02.2.07c.21.21.43.44.64.71s.39.53.55.78c.03.06.04.11.04.17,0,.1-.04.18-.13.24Zm1.05-.62s-.08.04-.14.04c-.09,0-.17-.04-.22-.13-.15-.23-.32-.48-.52-.73-.2-.25-.39-.47-.57-.64-.06-.06-.08-.12-.08-.2s.02-.14.07-.18c.07-.06.14-.08.21-.08.07,0,.14.03.2.08.21.21.41.43.61.69.2.25.38.5.54.76.03.04.04.09.04.15,0,.1-.04.18-.13.24Z"/></g><g><circle class="cls-2" cx="33" cy="78.5" r="30.5"/><g><circle class="cls-2" cx="103.56" cy="89.44" r="15.56"/><circle class="cls-2" cx="148.21" cy="94.85" r="8.79"/><circle class="cls-2" cx="124.53" cy="99.59" r="5.41"/><circle class="cls-2" cx="148.88" cy="72.53" r="5.41"/><circle class="cls-2" cx="111.68" cy="62.38" r="8.79"/><circle class="cls-2" cx="131.29" cy="80.65" r="10.82"/></g><circle class="cls-2" cx="199.43" cy="63.09" r="3.55"/><circle class="cls-2" cx="235.63" cy="68.29" r="3.55"/><circle class="cls-2" cx="248.63" cy="85.49" r="3.55"/><circle class="cls-2" cx="203.03" cy="90.69" r="3.55"/><circle class="cls-2" cx="207.03" cy="79.69" r="3.55"/><circle class="cls-2" cx="218.63" cy="72.69" r="3.55"/><circle class="cls-2" cx="187.43" cy="81.09" r="3.55"/><circle class="cls-2" cx="194.63" cy="99.09" r="3.55"/><circle class="cls-2" cx="235.43" cy="85.89" r="3.55"/><circle class="cls-2" cx="224.63" cy="81.09" r="2.21"/><circle class="cls-2" cx="196.63" cy="73.09" r="2.21"/><circle class="cls-2" cx="197.03" cy="82.29" r="1.31"/><circle class="cls-2" cx="207.83" cy="71.49" r="1.31"/><circle class="cls-2" cx="233.03" cy="77.49" r="1.31"/><circle class="cls-2" cx="227.03" cy="91.89" r="1.31"/><circle class="cls-2" cx="219.83" cy="89.89" r="1.31"/><circle class="cls-2" cx="212.83" cy="99.89" r="1.31"/><circle class="cls-2" cx="212.63" cy="91.89" r="1.31"/><circle class="cls-2" cx="216.23" cy="83.49" r="1.31"/><circle class="cls-2" cx="213.83" cy="64.29" r="1.31"/><circle class="cls-2" cx="227.03" cy="72.69" r="1.31"/><circle class="cls-2" cx="242.23" cy="92.89" r="1.31"/><circle class="cls-2" cx="191.03" cy="90.69" r="2.21"/><circle class="cls-2" cx="204.23" cy="100.29" r="2.21"/><circle class="cls-2" cx="234.43" cy="96.09" r="2.21"/><circle class="cls-2" cx="242.23" cy="77.89" r="2.21"/><circle class="cls-2" cx="224.63" cy="63.29" r="2.21"/><circle class="cls-2" cx="222.03" cy="99.09" r="3.55"/><polygon class="cls-1" points="79.27 79.71 72.23 87.43 72.23 72 79.27 79.71"/><polygon class="cls-1" points="172.77 79.71 165.73 87.43 165.73 72 172.77 79.71"/></g><g><polygon class="cls-8" points="48.14 73.66 48.14 35 46.14 35 46.14 73.66 43.22 73.66 47.14 81 51.07 73.66 48.14 73.66"/><polygon class="cls-7" points="34.14 73.66 34.14 35 32.14 35 32.14 73.66 29.22 73.66 33.14 81 37.07 73.66 34.14 73.66"/><polygon class="cls-6" points="20.14 73.66 20.14 35 18.14 35 18.14 73.66 15.22 73.66 19.14 81 23.07 73.66 20.14 73.66"/></g><g><polygon class="cls-5" points="142.14 73.66 142.14 35 140.14 35 140.14 73.66 137.22 73.66 141.14 81 145.07 73.66 142.14 73.66"/><polygon class="cls-4" points="128.14 73.66 128.14 35 126.14 35 126.14 73.66 123.22 73.66 127.14 81 131.07 73.66 128.14 73.66"/><polygon class="cls-3" points="114.14 73.66 114.14 35 112.14 35 112.14 73.66 109.22 73.66 113.14 81 117.07 73.66 114.14 73.66"/></g></g><g><path d="m32.29,154.08c-.12,0-.22-.04-.3-.12s-.12-.18-.12-.3v-4.65c0-.07-.03-.1-.08-.08-.24.04-.49.07-.73.09-.24.02-.48.04-.7.06-.16,0-.29-.04-.38-.15-.1-.11-.15-.23-.15-.37,0-.19.08-.34.25-.46.42-.27.83-.64,1.23-1.12.04-.04.04-.07.01-.11-.17-.24-.35-.48-.55-.72-.2-.24-.39-.44-.58-.61-.17-.16-.25-.35-.25-.57,0-.18.06-.34.17-.48.23-.3.44-.63.61-.99.17-.36.32-.73.44-1.11.07-.21.2-.32.41-.32.15,0,.27.06.35.17.08.11.11.23.07.35-.11.39-.26.78-.45,1.16s-.42.77-.7,1.16c-.03.05-.02.09.01.13.16.15.32.32.5.52.17.2.34.4.5.62.04.08.07.08.11,0,.28-.41.54-.86.78-1.36s.44-1.03.59-1.6c.02-.1.07-.18.15-.24.08-.06.17-.08.26-.08.15,0,.27.06.35.18.08.12.11.24.07.37-.22.82-.56,1.63-1.02,2.42-.46.79-1.01,1.52-1.65,2.18-.03.03-.04.05-.02.07.01.02.04.02.08.01.34-.05.68-.1,1.02-.17.34-.06.64-.13.88-.2.06,0,.07-.05.06-.11-.05-.12-.09-.23-.14-.33-.05-.1-.09-.19-.14-.29-.03-.06-.04-.11-.04-.17,0-.2.08-.33.25-.39.06-.03.12-.04.18-.04.21,0,.36.1.43.29.11.28.23.6.34.95.12.35.22.72.31,1.11.02.12,0,.24-.08.35-.07.11-.18.17-.32.17-.22,0-.36-.11-.41-.34l-.08-.39c0-.06-.05-.07-.11-.06-.14.04-.29.07-.44.11-.15.04-.31.08-.47.11-.05.02-.07.05-.07.08v4.83c0,.12-.04.22-.13.3s-.18.12-.29.12Zm-2.02-.31c-.12,0-.21-.04-.28-.11-.07-.08-.1-.16-.1-.25,0-.06,0-.1.01-.13.19-.51.33-1.03.42-1.55.09-.52.16-1.06.21-1.63.02-.12.07-.22.15-.29s.18-.11.28-.11c.13,0,.24.05.32.14.08.09.12.2.1.32-.05.52-.11,1.06-.2,1.61-.09.55-.23,1.11-.43,1.67-.04.09-.1.17-.2.24-.09.07-.19.1-.29.1Zm3.77-.73c-.1,0-.2-.02-.29-.08-.09-.06-.14-.15-.16-.27-.02-.19-.06-.43-.11-.74-.06-.31-.12-.61-.18-.91-.07-.3-.13-.52-.18-.67-.03-.06-.04-.11-.04-.17,0-.1.04-.2.13-.29s.19-.13.31-.13c.09,0,.18.03.26.08.08.06.13.13.16.22.05.15.1.38.17.7.06.32.13.64.18.96s.1.58.13.78c.03.12,0,.23-.06.33-.07.1-.17.16-.3.19Zm1.86.87c-.21,0-.38-.08-.53-.22-.15-.15-.22-.33-.22-.53v-9.35c0-.21.07-.39.22-.54s.33-.22.53-.22h4.52c.21,0,.39.07.54.22.14.15.22.32.22.54v9.35c0,.21-.07.38-.22.53-.15.15-.33.22-.54.22h-4.52Zm.2-6.29h1.54c.06,0,.08-.03.08-.08v-3.57c0-.06-.03-.08-.08-.08h-1.54c-.06,0-.08.03-.08.08v3.57c0,.06.03.08.08.08Zm0,5.45h1.54c.06,0,.08-.03.08-.08v-4.4c0-.06-.03-.08-.08-.08h-1.54c-.06,0-.08.03-.08.08v4.4c0,.06.03.08.08.08Zm2.56-5.45h1.57c.06,0,.08-.03.08-.08v-3.57c0-.06-.03-.08-.08-.08h-1.57c-.06,0-.08.03-.08.08v3.57c0,.06.03.08.08.08Zm0,5.45h1.57c.06,0,.08-.03.08-.08v-4.4c0-.06-.03-.08-.08-.08h-1.57c-.06,0-.08.03-.08.08v4.4c0,.06.03.08.08.08Z"/><path d="m45.37,153.41c-.12-.08-.18-.21-.18-.36,0-.07.02-.16.07-.25.61-.91,1.13-1.91,1.58-3,.45-1.08.82-2.18,1.11-3.29,0,0,0-.02,0-.02,0,0,0-.01,0-.02,0-.07-.04-.1-.13-.08-.21.04-.41.06-.6.08-.2.01-.4.02-.62.02-.11,0-.22,0-.34,0-.11,0-.23-.01-.36-.02-.09,0-.18-.05-.25-.13-.08-.08-.11-.18-.11-.29,0-.13.05-.24.15-.32.1-.08.22-.12.35-.11.25.03.49.04.71.04.41,0,.85-.05,1.33-.14.07,0,.1-.05.11-.11.09-.44.17-.87.24-1.28.06-.42.12-.82.15-1.23.02-.12.07-.22.15-.29.08-.07.18-.11.3-.11.13,0,.24.05.32.14.08.09.11.2.09.32-.04.35-.09.72-.15,1.08s-.14.74-.21,1.13v.03c0,.08.04.11.13.1.14-.02.28-.03.41-.04.13,0,.26-.01.38-.01.75,0,1.3.18,1.65.55s.5.92.43,1.67c-.04.48-.09.96-.17,1.45-.07.49-.16.94-.25,1.34-.09.4-.17.71-.23.94-.35,1.23-.99,1.85-1.92,1.85-.47,0-1.01-.15-1.62-.46-.16-.07-.24-.21-.24-.41,0-.14.05-.25.14-.33.09-.08.2-.12.31-.12.04,0,.07,0,.1.01.03,0,.07.02.11.04.49.27.9.41,1.2.41.33,0,.59-.16.8-.47.21-.31.38-.82.52-1.53.14-.71.27-1.64.39-2.81,0-.04.01-.08.01-.12v-.12c0-.16-.03-.32-.09-.48-.06-.16-.18-.3-.37-.42s-.47-.17-.85-.17c-.13,0-.28,0-.44.02-.16.01-.34.04-.53.09-.07,0-.12.05-.14.13-.21.84-.46,1.68-.75,2.52s-.62,1.65-.97,2.42c-.36.77-.74,1.47-1.16,2.11-.08.12-.19.18-.34.18-.08,0-.17-.03-.25-.08Zm10.71-2.51c-.06.02-.1.03-.14.03-.1,0-.2-.03-.28-.1-.08-.07-.14-.16-.17-.26-.17-.62-.39-1.21-.67-1.79-.28-.58-.59-1.12-.93-1.62s-.68-.93-1.03-1.28c-.07-.08-.11-.19-.11-.32,0-.15.05-.26.15-.34.1-.09.22-.14.36-.14.16,0,.29.06.38.18.25.29.51.64.78,1.05s.53.84.79,1.3c.26.46.49.91.7,1.37.21.46.38.88.5,1.27.02.08.03.13.03.15,0,.23-.12.4-.36.49Z"/><path d="m63.61,152.47c-.36,0-.73-.12-1.08-.37s-.68-.59-.97-1.04c-.29-.44-.52-.96-.69-1.55-.17-.59-.26-1.23-.26-1.91,0-.48.05-.96.15-1.46.1-.5.25-1.01.47-1.52.08-.18.22-.27.41-.27.13,0,.24.04.32.13.08.09.12.19.12.31,0,.06-.01.12-.04.2-.21.46-.35.91-.43,1.34-.08.44-.13.86-.13,1.27,0,.57.07,1.09.21,1.57.14.48.32.9.54,1.26.22.36.46.64.71.84s.5.3.73.3c.2,0,.37-.08.53-.25.16-.16.28-.42.35-.76.02-.13.07-.23.17-.31.09-.07.2-.11.31-.11.14,0,.25.05.34.16.09.11.12.23.09.36-.28,1.2-.89,1.79-1.82,1.79Zm6.65-2.65c-.15,0-.27-.06-.37-.17-.1-.12-.15-.25-.15-.41,0-.73-.19-1.35-.57-1.86-.38-.51-.91-.86-1.6-1.04-.12-.03-.22-.09-.29-.18-.07-.09-.1-.19-.1-.29,0-.15.05-.27.15-.36.1-.09.21-.13.33-.13.06,0,.1,0,.13.01.54.14,1.04.4,1.51.77s.84.84,1.11,1.4.38,1.19.32,1.88c0,.1-.06.19-.15.27s-.19.12-.31.12Z"/><path d="m77.11,153.2c-.07.04-.13.06-.21.06-.19,0-.33-.08-.42-.25-.04-.07-.06-.14-.06-.24,0-.19.08-.32.24-.41.84-.49,1.61-1.03,2.3-1.64.7-.61,1.32-1.27,1.87-1.99.02-.02.03-.05.03-.08,0-.05-.02-.07-.07-.08-.41-.21-.84-.4-1.3-.57-.46-.16-.94-.31-1.46-.44-.11-.03-.2-.09-.27-.18-.07-.09-.1-.18-.1-.29,0-.18.07-.31.2-.4.13-.09.27-.12.41-.09.53.12,1.06.28,1.58.49.52.21,1.01.44,1.49.7.04.02.07.03.08.03.04,0,.07-.02.1-.07.39-.63.74-1.3,1.04-2s.55-1.44.76-2.21c.02-.1.07-.19.16-.25s.18-.1.29-.1c.15,0,.27.05.36.14.09.09.13.2.13.32,0,.06,0,.1-.01.13-.18.78-.43,1.55-.76,2.29-.33.74-.71,1.46-1.15,2.15-.02.04-.03.06-.03.07,0,.05.03.08.08.11.77.49,1.44,1.02,2.03,1.58.12.12.18.26.18.42,0,.12-.04.23-.11.34-.08.11-.2.17-.34.17-.1,0-.2-.04-.29-.11-.68-.65-1.36-1.19-2.03-1.62-.07-.06-.12-.05-.17.03-.61.8-1.3,1.54-2.07,2.22-.77.68-1.6,1.27-2.49,1.79Z"/><path d="m93.66,153.42c-.13.03-.25,0-.36-.09s-.16-.21-.16-.36c0-.1.03-.2.1-.29.07-.09.16-.15.27-.18.94-.21,1.75-.51,2.41-.9.66-.4,1.21-.85,1.65-1.35s.78-1.01,1.04-1.53c.1-.22.19-.42.25-.59s.1-.31.1-.43c0-.19-.08-.31-.24-.38-.16-.07-.43-.11-.81-.11s-.86.03-1.47.08c-.61.06-1.27.11-1.99.17s-1.44.08-2.17.08c-.09,0-.19,0-.28,0-.09,0-.19,0-.29,0-.12,0-.23-.06-.31-.15-.09-.09-.13-.19-.13-.31,0-.13.05-.24.14-.34.09-.09.21-.14.35-.13.19,0,.37.02.56.02.19,0,.37,0,.55,0,1.07,0,2.06-.05,2.95-.14.9-.09,1.66-.14,2.28-.14.67,0,1.14.1,1.41.31.27.21.41.49.41.85,0,.23-.05.49-.14.77-.09.28-.21.57-.36.88-.29.6-.68,1.18-1.17,1.74-.49.56-1.11,1.07-1.86,1.5-.75.44-1.66.77-2.73.99Zm-1.09-8.85c-.12,0-.23-.04-.32-.13-.09-.09-.14-.19-.14-.32,0-.13.04-.24.13-.32.09-.08.2-.13.33-.13h5.94c.13,0,.24.04.33.13s.13.19.13.32c0,.12-.04.23-.13.32-.09.09-.2.13-.33.13h-5.94Z"/><path d="m106,152.44c-.12-.02-.22-.07-.29-.16-.08-.09-.11-.19-.11-.32,0-.15.05-.27.16-.36.11-.09.24-.12.38-.11.31.04.68.06,1.11.08.43.01.9.02,1.39.02.55,0,1.12,0,1.72-.02.6-.01,1.18-.03,1.76-.05.58-.02,1.12-.04,1.62-.06.5-.02.93-.03,1.29-.04.15,0,.27.05.37.15.1.1.15.22.15.37,0,.12-.05.23-.14.32-.09.09-.21.14-.34.14-1.47,0-2.79,0-3.96.06-1.16.05-2.19.07-3.09.07-.38,0-.74,0-1.08-.02s-.66-.04-.96-.08Zm1.16-6.01c-.11,0-.21-.06-.28-.15-.08-.09-.11-.19-.11-.3,0-.14.05-.26.15-.35.1-.09.22-.13.35-.11.48.03,1,.04,1.57.04s1.15,0,1.74-.03,1.15-.04,1.69-.06,1.01-.03,1.42-.03c.13,0,.24.04.32.13.08.09.13.2.13.33,0,.12-.04.23-.13.32-.09.09-.2.14-.33.15-.4,0-.87,0-1.41.03s-1.11.04-1.7.06c-.59.02-1.17.03-1.73.03-.31,0-.6,0-.88-.01-.28,0-.54-.02-.78-.04Z"/><path d="m124.51,147.08c-.09.09-.2.14-.32.14s-.24-.05-.36-.15c-.32-.29-.69-.53-1.11-.73-.42-.2-.88-.33-1.38-.41-.12-.02-.22-.07-.3-.16-.08-.09-.12-.19-.12-.31,0-.16.06-.29.17-.38.11-.1.23-.14.36-.12.61.08,1.18.26,1.72.53.54.27.98.56,1.33.85.1.09.15.21.15.36s-.05.28-.14.38Zm-3.07,5.81c-.12.03-.24,0-.35-.09-.11-.09-.17-.21-.17-.36,0-.12.04-.23.12-.33.08-.1.18-.16.3-.19.63-.15,1.32-.37,2.04-.67.73-.3,1.47-.68,2.23-1.13s1.49-1,2.21-1.63c.72-.63,1.38-1.35,1.97-2.15.1-.13.23-.2.39-.2.09,0,.19.03.28.1.13.11.2.25.2.42,0,.11-.03.21-.1.31-.5.67-1.1,1.32-1.79,1.95-.69.63-1.43,1.21-2.23,1.74s-1.63.99-2.5,1.37-1.74.67-2.62.85Z"/><path d="m138.22,153.95c-.6,0-1.07-.15-1.41-.46-.35-.3-.52-.72-.52-1.24v-5.78c0-.21.07-.39.22-.54.15-.14.33-.22.53-.22h2.81s.07-.01.1-.04c.35-.32.68-.67.97-1.07.29-.4.53-.76.71-1.1.04-.06.02-.1-.06-.1h-2.87s-.08.02-.11.06c-.24.38-.55.77-.91,1.16-.36.39-.77.75-1.2,1.08s-.9.61-1.39.83c-.06.03-.11.04-.15.04-.1,0-.2-.04-.28-.13s-.13-.19-.13-.32c0-.19.09-.34.28-.45.54-.27,1.06-.62,1.55-1.05.49-.43.93-.9,1.3-1.41.32-.45.72-.67,1.22-.67h3.42c.14,0,.26.05.35.14.09.09.14.2.14.32,0,.06-.01.12-.04.2-.41.91-.92,1.71-1.53,2.42-.05.07-.03.1.06.1h2.9c.21,0,.39.07.54.22.14.15.22.32.22.54v2.84c0,.21-.07.39-.22.54-.14.14-.32.22-.54.22h-6.92c-.06,0-.08.03-.08.08v2.11c0,.26.09.46.27.59.18.14.44.2.76.2h5.1c.53,0,.95-.07,1.24-.22.29-.15.53-.33.72-.55.1-.12.23-.18.38-.18.08,0,.17.03.25.08.13.08.2.2.2.35,0,.08-.03.17-.1.25-.34.4-.72.69-1.14.88s-.94.27-1.55.27h-5.1Zm-.95-4.73h2.8c.06,0,.08-.03.08-.08v-2.46c0-.06-.03-.08-.08-.08h-2.8c-.06,0-.08.03-.08.08v2.46c0,.06.03.08.08.08Zm3.85,0h2.84c.06,0,.08-.03.08-.08v-2.46c0-.06-.03-.08-.08-.08h-2.84c-.06,0-.08.03-.08.08v2.46c0,.06.03.08.08.08Z"/><path d="m155.48,154.08c-.12,0-.23-.04-.32-.13-.09-.09-.13-.19-.13-.32v-2.18c0-.06-.03-.08-.08-.08-.69.05-1.37.09-2.03.12-.66.03-1.27.06-1.82.08-.13,0-.23-.04-.3-.13-.07-.08-.1-.18-.1-.28,0-.11.04-.22.1-.32.07-.1.17-.16.32-.19.22-.05.45-.1.67-.15.22-.05.44-.11.66-.17.07-.02.08-.06.03-.11-.1-.1-.21-.21-.32-.31-.11-.1-.23-.2-.35-.29-.11-.1-.17-.22-.17-.36,0-.1.03-.19.08-.27.05-.08.12-.14.22-.18.38-.16.78-.34,1.2-.55s.77-.43,1.06-.67l.04-.03c.08-.06.07-.1-.03-.1h-4.02c-.12,0-.22-.04-.3-.13-.08-.08-.12-.18-.12-.29,0-.12.04-.22.13-.3s.18-.12.29-.12h4.77c.06,0,.08-.03.08-.08v-.77c0-.06-.03-.08-.08-.08h-3.23c-.11,0-.21-.04-.29-.12-.08-.08-.12-.18-.12-.29,0-.12.04-.22.12-.29.08-.07.17-.11.29-.11h3.23c.06,0,.08-.03.08-.08v-.73c0-.06-.03-.08-.08-.08h-3.84c-.12,0-.22-.04-.3-.13s-.12-.18-.12-.29c0-.12.04-.22.13-.3.08-.08.18-.12.29-.12h3.84c.06,0,.08-.03.08-.08v-.48c0-.13.04-.24.13-.32s.19-.13.32-.13c.13,0,.24.04.32.13s.13.19.13.32v.48c0,.06.03.08.08.08h3.84c.12,0,.22.04.3.12.08.08.12.18.12.3,0,.11-.04.21-.12.29s-.18.13-.3.13h-3.84c-.06,0-.08.03-.08.08v.73c0,.06.03.08.08.08h3.23c.11,0,.21.04.29.12s.12.17.12.29c0,.12-.04.22-.12.29-.08.07-.17.11-.29.11h-3.23c-.06,0-.08.03-.08.08v.77c0,.06.03.08.08.08h4.77c.12,0,.22.04.3.13.08.08.12.18.12.29,0,.12-.04.22-.13.3-.08.08-.18.12-.29.12h-5.91s-.07,0-.1,0c-.03,0-.04.01-.03.02.02,0,.04.03.07.06.1.08.15.18.15.32,0,.11-.04.21-.11.28-.29.27-.59.49-.9.67-.31.17-.65.34-1.04.5-.06.03-.06.06-.01.11.1.08.19.17.27.25s.16.17.23.27c.03.04.06.05.11.03.69-.26,1.32-.56,1.89-.89s1.05-.68,1.44-1.06c.09-.09.21-.14.34-.14.12,0,.22.04.29.11.1.08.15.19.15.32,0,.11-.04.21-.11.28-.21.2-.47.41-.8.64-.33.23-.67.46-1.04.67-.36.21-.71.4-1.04.56-.04.02-.05.04-.05.06,0,.02.03.03.06.03.6-.05,1.22-.09,1.86-.13.64-.04,1.24-.09,1.78-.15.08-.02.09-.06.04-.11-.1-.11-.21-.22-.32-.32-.08-.08-.13-.18-.13-.29,0-.13.05-.23.15-.31.12-.08.24-.11.36-.11.19,0,.34.07.45.21.22.27.46.59.72.95s.47.71.64,1.04c.03.06.04.11.04.15,0,.1-.04.2-.13.29s-.19.14-.32.14c-.2,0-.34-.1-.45-.29-.04-.09-.08-.18-.13-.26-.05-.08-.11-.17-.16-.26-.03-.04-.07-.06-.11-.06-.45.04-.92.08-1.43.13s-1.02.09-1.55.14c-.06,0-.08.03-.08.08v2.24c0,.12-.04.23-.13.32-.08.09-.19.13-.32.13Zm-5.1-.21c-.12.04-.24.01-.34-.07s-.16-.19-.16-.32c0-.22.12-.37.35-.43.42-.13.85-.29,1.3-.48.45-.19.81-.39,1.09-.6.11-.08.23-.13.35-.13.1,0,.2.04.29.11.09.08.14.19.14.32,0,.1-.04.19-.13.27-.32.26-.73.51-1.23.74-.5.23-1.06.43-1.67.59Zm10.07-.01c-1.14-.32-2.11-.82-2.93-1.5-.08-.08-.11-.16-.11-.27,0-.11.04-.2.13-.27.08-.08.19-.13.32-.13.12,0,.23.03.32.1.68.5,1.42.87,2.23,1.13.13.05.24.13.32.24.08.11.13.23.13.36,0,.11-.04.2-.13.27-.08.07-.18.08-.28.06Z"/><path d="m166.82,153.07c-.21,0-.35-.1-.42-.31-.2-.61-.34-1.28-.43-2.03-.09-.75-.14-1.5-.14-2.27,0-.83.05-1.64.15-2.44.1-.8.26-1.51.46-2.14.03-.1.09-.18.17-.24.09-.06.18-.08.29-.08.13,0,.24.04.32.13s.12.19.12.31c0,.06,0,.1-.01.13-.19.6-.33,1.27-.43,2.02-.1.75-.15,1.51-.15,2.29,0,.73.04,1.44.13,2.14s.21,1.34.38,1.92c0,.03.01.07.01.13,0,.12-.04.23-.13.31-.08.09-.19.13-.32.13Zm8.39-1.08c-.39.13-.82.24-1.3.32-.47.08-.95.13-1.45.13-.71,0-1.41-.1-2.11-.31-.7-.21-1.3-.56-1.83-1.06-.09-.09-.14-.2-.14-.32s.05-.23.14-.32c.08-.08.18-.13.28-.13.12,0,.23.04.32.13.43.37.94.65,1.53.84.59.19,1.22.28,1.88.28.39,0,.79-.03,1.2-.1.41-.07.82-.17,1.22-.31.06-.02.1-.03.14-.03.11,0,.21.04.29.13s.13.19.13.32c0,.21-.11.36-.32.43Zm-5.91-6.09c-.1-.02-.19-.07-.26-.15-.07-.08-.11-.18-.11-.28,0-.15.05-.27.14-.35.09-.08.21-.12.34-.1.37.06.76.1,1.16.13s.8.04,1.2.04c.47,0,.92-.02,1.36-.06.44-.04.84-.09,1.2-.17.13-.02.25.01.34.1s.15.19.15.32c0,.1-.03.2-.1.29-.07.09-.16.15-.27.18-.81.16-1.74.24-2.77.24-.4,0-.8-.01-1.2-.04-.4-.03-.79-.07-1.18-.14Z"/><path d="m183.38,146.53c-.23-.1-.51-.22-.83-.36-.32-.14-.6-.28-.85-.42-.16-.07-.24-.21-.24-.39,0-.08.02-.16.07-.25.07-.14.2-.21.38-.21.09,0,.17.02.24.06.49.27.99.52,1.51.76.2.08.29.21.29.42,0,.13-.04.24-.13.32-.09.08-.18.12-.29.12-.05,0-.1,0-.15-.03Zm1.27,6.13c-.21-.3-.35-.63-.43-.99-.08-.36-.12-.76-.12-1.18,0-.07-.04-.12-.11-.14-.65-.09-1.16-.23-1.53-.41-.26-.13-.46-.3-.59-.5s-.2-.4-.2-.61.06-.39.19-.57c.13-.19.31-.35.55-.49.06-.03.11-.04.17-.04.16,0,.29.07.38.22.02.03.03.06.04.08,0,.03.01.06.01.1,0,.13-.06.25-.17.35-.15.12-.22.24-.22.36,0,.15.12.28.37.4.25.12.59.21,1.01.29h.03c.07,0,.11-.04.13-.11.05-.58.11-1.19.19-1.84.08-.65.12-1.3.12-1.95,0-.39-.02-.78-.06-1.18-.04-.39-.12-.78-.23-1.16,0-.03-.01-.07-.01-.13,0-.12.04-.23.12-.31.08-.09.19-.13.34-.13.21,0,.35.11.42.32.13.44.22.87.27,1.29.05.42.08.84.08,1.25,0,.69-.04,1.36-.13,2.02s-.15,1.29-.2,1.9v.03c0,.07.04.1.11.1.08,0,.17,0,.25,0,.08,0,.17,0,.25,0,.12,0,.25,0,.38-.01s.26-.01.39-.01c.1,0,.19.04.27.11.08.07.12.16.12.27,0,.14-.04.26-.13.35s-.2.14-.33.14c-.21,0-.42,0-.62,0-.2,0-.39-.01-.58-.02h-.03c-.08,0-.11.04-.1.13,0,.1,0,.21.02.32s.03.21.04.31c.07.49.27.84.57,1.06.31.22.65.34,1.02.34.28,0,.55-.06.81-.17.26-.12.49-.28.67-.5.19-.22.3-.48.35-.78.03-.17.04-.33.04-.49,0-.5-.14-.96-.42-1.37s-.71-.8-1.29-1.16c-.15-.1-.22-.23-.22-.39,0-.09.02-.16.06-.21.08-.15.21-.22.38-.22.08,0,.14.02.21.06.35.22.7.51,1.05.86.35.35.65.75.88,1.21.23.46.31.97.26,1.54-.06.61-.23,1.1-.51,1.48-.29.38-.63.66-1.03.84s-.82.27-1.25.27-.8-.08-1.17-.24c-.37-.16-.66-.38-.88-.67Z"/><path d="m205.85,154.05c-1.64-.31-3.11-1.05-4.4-2.23-.04-.04-.08-.04-.11,0-.68.56-1.4,1.02-2.16,1.38s-1.5.63-2.22.82c-.12.04-.24.01-.36-.08-.12-.09-.17-.21-.17-.36,0-.1.03-.19.1-.27.07-.08.14-.13.24-.15.77-.19,1.5-.45,2.16-.78.67-.33,1.27-.72,1.81-1.17.05-.05.05-.09.01-.13-.36-.41-.7-.86-1.01-1.34-.31-.48-.58-.99-.83-1.53-.03-.06-.04-.11-.04-.17,0-.21.1-.36.29-.43.06-.03.12-.04.18-.04.19,0,.33.1.42.29.22.51.47.99.74,1.42.27.43.56.84.88,1.21.05.05.08.05.11,0,.44-.46.82-.96,1.16-1.5.33-.54.59-1.11.79-1.72.02-.07,0-.1-.07-.1h-6.26c-.06,0-.08.03-.08.08-.06.99-.17,2.03-.34,3.11-.17,1.08-.46,2.19-.86,3.33-.08.23-.24.35-.49.35-.13,0-.24-.04-.32-.13-.08-.09-.13-.19-.13-.3,0-.07.01-.13.04-.18.3-.68.54-1.44.73-2.28.19-.84.32-1.8.41-2.87.09-1.07.13-2.3.13-3.67v-1.26c0-.21.07-.39.22-.54s.33-.22.53-.22h8.12c.13,0,.24.04.31.13.08.08.12.19.12.31,0,.11-.04.21-.12.29-.08.08-.18.13-.31.13h-7.91c-.06,0-.08.03-.08.08v1.88c0,.27,0,.55-.03.83,0,.06.03.08.08.08h6.71c.17,0,.31.06.43.17.12.11.17.25.17.41v.07s0,.05-.01.07c-.21.82-.52,1.57-.93,2.25-.42.68-.89,1.29-1.42,1.83-.03.05-.03.08,0,.11,1.07.99,2.37,1.64,3.89,1.95.23.07.35.21.35.43,0,.13-.05.24-.15.33-.1.09-.21.12-.34.1Z"/><path d="m210.12,153.98c-.11,0-.21-.04-.29-.12-.08-.08-.12-.18-.12-.3,0-.06,0-.1.01-.13.23-.69.4-1.45.51-2.28.11-.83.18-1.69.22-2.58s.06-1.75.06-2.6v-1.75c0-.21.08-.39.22-.54.15-.14.33-.22.53-.22h3.95c.06,0,.08-.03.08-.08v-.85c0-.13.04-.24.13-.32.09-.08.19-.12.31-.12.13,0,.24.04.32.13.08.08.12.19.12.31v.85c0,.06.03.08.08.08h4.24c.12,0,.22.04.31.13s.13.19.13.31-.04.22-.13.31-.19.13-.31.13h-9.04c-.06,0-.08.03-.08.08v1.55c0,1.69-.06,3.16-.18,4.42s-.31,2.33-.56,3.21c-.07.25-.25.38-.52.38Zm1.62-.49c-.08-.02-.15-.06-.2-.13-.05-.07-.08-.14-.08-.21,0-.04,0-.08.03-.14.18-.47.33-.97.45-1.52.12-.55.21-1.08.25-1.6.02-.1.07-.19.15-.26.08-.07.17-.1.27-.1.13,0,.24.05.33.15.09.1.13.21.12.34-.05.43-.13.93-.25,1.51-.12.57-.28,1.12-.46,1.64-.04.12-.11.21-.23.27-.12.06-.24.08-.37.05Zm4.45.45c-.72,0-1.27-.18-1.67-.53-.39-.35-.59-.86-.59-1.51v-4.42c0-.12.04-.22.13-.31s.19-.13.31-.13.22.04.31.13.13.19.13.31v4.38c0,.41.11.71.33.9.22.19.57.28,1.06.28h1.09c.44,0,.78-.06,1.02-.19.24-.13.46-.36.64-.69.09-.16.23-.24.41-.24.14,0,.25.05.33.14.08.09.12.2.12.31,0,.04,0,.07-.01.1,0,.03-.02.07-.04.11-.28.49-.61.85-.98,1.06-.37.21-.87.31-1.48.31h-1.09Zm1.25-7.27c-.47-.18-.96-.32-1.47-.44-.51-.12-1.04-.2-1.58-.25-.1-.02-.19-.07-.27-.14-.08-.07-.11-.16-.11-.27,0-.15.05-.27.15-.36.1-.09.21-.12.34-.1.53.06,1.08.15,1.65.27s1.1.28,1.58.46c.2.07.29.22.29.43,0,.12-.04.22-.13.3s-.19.12-.31.12c-.03,0-.08,0-.15-.03Zm3.43,5.71s-.07.01-.11.01c-.09,0-.17-.03-.25-.08-.07-.06-.11-.13-.13-.22-.15-.62-.33-1.18-.54-1.69s-.41-.93-.59-1.25c-.05-.08-.07-.15-.07-.24,0-.16.07-.27.21-.34.08-.04.16-.06.25-.06.21,0,.35.08.43.25.15.26.29.57.43.92.14.35.27.72.4,1.08s.23.71.3,1.03c.03.12.01.24-.05.34s-.16.18-.29.23Z"/></g><rect class="cls-9" x=".92" y="128.16" width="251.8" height="38.34" rx="4.68" ry="4.68"/></g></g></svg>