<?xml version="1.0" encoding="UTF-8"?><svg id="_レイヤー_2" xmlns="http://www.w3.org/2000/svg" xmlns:xlink="http://www.w3.org/1999/xlink" viewBox="0 0 405.5 188"><defs><style>.cls-1{fill:#f9ddd6;}.cls-2{fill:#ff991f;}.cls-3{fill:#606060;}.cls-4{stroke:#000;}.cls-4,.cls-5{fill:none;stroke-miterlimit:10;}.cls-5{stroke:#ff991f;}.cls-6{fill:#afddd2;}.cls-6,.cls-7{opacity:.8;}.cls-7{fill:#ccc7c5;}.cls-8{fill:url(#_名称未設定グラデーション_7);}.cls-9{fill:url(#_名称未設定グラデーション_6);}</style><linearGradient id="_名称未設定グラデーション_6" x1="66.18" y1="160.02" x2="66.82" y2="85.75" gradientUnits="userSpaceOnUse"><stop offset="0" stop-color="#fff" stop-opacity="0"/><stop offset=".72" stop-color="#f7931e" stop-opacity=".4"/></linearGradient><linearGradient id="_名称未設定グラデーション_7" x1="140.11" y1="159.88" x2="140.89" y2="85.16" gradientUnits="userSpaceOnUse"><stop offset="0" stop-color="#fff" stop-opacity="0"/><stop offset=".89" stop-color="#f7931e" stop-opacity=".4"/></linearGradient></defs><g id="_レイヤー_1-2"><g><g><rect class="cls-1" y="82" width="207" height="106"/><g><ellipse class="cls-3" cx="139.88" cy="56.5" rx="18" ry="5.5"/><rect class="cls-9" x="45" y="82" width="43" height="81"/><rect class="cls-8" x="119" y="82" width="43" height="81"/><path class="cls-6" d="m121.88,0v57h.08c.83,2.8,8.53,5,17.92,5s17.09-2.2,17.92-5h.08V0h-36Z"/><g><rect class="cls-2" x="128.88" y="58" width="22" height="2"/><rect class="cls-2" x="129.3" y="62.33" width="21.14" height="2"/><rect class="cls-2" x="129.73" y="66.67" width="20.29" height="2"/><rect class="cls-2" x="130.16" y="71" width="19.43" height="2"/><rect class="cls-2" x="130.59" y="75.33" width="18.57" height="2"/><rect class="cls-2" x="131.02" y="79.67" width="17.71" height="2"/><rect class="cls-2" x="131.45" y="84" width="16.86" height="2"/><rect class="cls-2" x="131.88" y="88.33" width="16" height="2"/><rect class="cls-2" x="132.3" y="92.67" width="15.14" height="2"/><rect class="cls-2" x="132.73" y="97" width="14.29" height="2"/><rect class="cls-2" x="133.16" y="101.33" width="13.43" height="2"/><rect class="cls-2" x="133.59" y="105.67" width="12.57" height="2"/><rect class="cls-2" x="134.02" y="110" width="11.71" height="2"/><rect class="cls-2" x="134.45" y="114.33" width="10.86" height="2"/><rect class="cls-2" x="134.87" y="118.67" width="10" height="2"/><rect class="cls-2" x="135.3" y="123" width="9.14" height="2"/><rect class="cls-2" x="135.73" y="127.33" width="8.29" height="2"/><rect class="cls-2" x="136.16" y="131.67" width="7.43" height="2"/><rect class="cls-2" x="136.59" y="136" width="6.57" height="2"/><rect class="cls-2" x="137.02" y="140.33" width="5.71" height="2"/><rect class="cls-2" x="137.45" y="144.67" width="4.86" height="2"/><rect class="cls-2" x="137.88" y="149" width="4" height="2"/></g><circle class="cls-2" cx="139.88" cy="157" r="4"/><ellipse class="cls-3" cx="67" cy="56.5" rx="18" ry="5.5"/><path class="cls-7" d="m49,0v57h.08c.83,2.8,8.53,5,17.92,5s17.09-2.2,17.92-5h.08V0h-36Z"/><g><rect class="cls-2" x="56" y="57.5" width="22" height="4"/><rect class="cls-2" x="56.69" y="64.23" width="20.62" height="4"/><rect class="cls-2" x="57.38" y="70.96" width="19.23" height="4"/><rect class="cls-2" x="58.08" y="77.69" width="17.85" height="4"/><rect class="cls-2" x="58.77" y="84.42" width="16.46" height="4"/><rect class="cls-2" x="59.46" y="91.15" width="15.08" height="4"/><rect class="cls-2" x="60.15" y="97.88" width="13.69" height="4"/><rect class="cls-2" x="60.85" y="104.62" width="12.31" height="4"/><rect class="cls-2" x="61.54" y="111.35" width="10.92" height="4"/><rect class="cls-2" x="62.23" y="118.08" width="9.54" height="4"/><rect class="cls-2" x="62.92" y="124.81" width="8.15" height="4"/><rect class="cls-2" x="63.62" y="131.54" width="6.77" height="4"/><rect class="cls-2" x="64.31" y="138.27" width="5.38" height="4"/><rect class="cls-2" x="65" y="145" width="4" height="4"/></g><circle class="cls-2" cx="67" cy="157" r="6"/></g></g><g><path d="m50.1,17.81s-.07.01-.11.01c-.12,0-.23-.04-.33-.13-.1-.09-.15-.2-.15-.34,0-.22.11-.37.34-.45.74-.23,1.35-.58,1.83-1.03.48-.45.86-1.04,1.12-1.77.26-.73.42-1.63.48-2.7,0-.09-.04-.14-.13-.14-1.29.03-2.79.07-4.49.13-.12,0-.23-.03-.32-.12-.09-.09-.14-.19-.15-.31,0-.13.04-.24.13-.33s.19-.14.31-.15l4.55-.14c.08,0,.13-.04.13-.13,0-.78-.04-1.64-.13-2.58,0-.14.03-.26.13-.36.09-.1.2-.15.32-.15s.23.04.32.13c.09.08.14.19.15.31.03.43.05.86.08,1.3.02.44.03.88.03,1.32,0,.08.07.13.22.13.65-.02,1.24-.03,1.75-.04.51,0,.96-.01,1.33-.01.13,0,.24.04.33.13.09.09.13.2.13.33,0,.12-.06.23-.14.32-.08.09-.19.13-.32.13-.38,0-.84,0-1.37.02-.53.01-1.14.03-1.82.05-.08,0-.13.04-.13.13-.04.72-.13,1.41-.27,2.08s-.36,1.29-.67,1.85-.72,1.07-1.23,1.5c-.51.43-1.16.77-1.93,1.02Z"/><path d="m64.45,17.25s-.06.02-.08.02c-.03,0-.06,0-.08,0-.11,0-.21-.04-.31-.12-.09-.08-.14-.19-.14-.34,0-.22.11-.38.32-.48.9-.37,1.69-.81,2.37-1.31.67-.5,1.25-1.03,1.74-1.6.49-.57.89-1.15,1.23-1.74.33-.59.61-1.17.83-1.72.22-.56.41-1.07.56-1.53.06-.21.21-.32.45-.32.14,0,.25.05.34.15.09.1.13.21.13.34,0,.06,0,.1-.01.13-.4,1.3-.93,2.5-1.6,3.61-.66,1.11-1.47,2.08-2.42,2.92-.95.84-2.06,1.5-3.32,2Z"/><path d="m79.76,18.37c-.11,0-.21-.04-.29-.12s-.13-.18-.13-.3v-4.68s-.01-.07-.04-.08c-.02,0-.04.01-.06.05-.21.43-.44.86-.71,1.28s-.55.82-.85,1.2c-.07.08-.16.13-.28.13s-.22-.05-.31-.14c-.04-.05-.07-.1-.08-.16-.02-.06-.03-.12-.03-.17,0-.16.05-.29.14-.39.35-.39.66-.83.94-1.3.28-.48.52-.96.71-1.45.2-.49.34-.94.43-1.35-.04,0-.07-.01-.1-.01h-1.47c-.11,0-.21-.04-.29-.12s-.13-.18-.13-.3.04-.22.13-.3c.08-.08.18-.12.29-.12h1.61c.06,0,.08-.03.08-.08v-1.74c0-.07-.03-.09-.1-.08-.23.05-.47.08-.7.11s-.46.05-.67.07c-.12,0-.23-.03-.32-.12-.09-.09-.14-.19-.14-.31,0-.11.04-.21.12-.29.08-.08.17-.13.29-.14.63-.06,1.25-.15,1.87-.29.62-.14,1.14-.29,1.56-.45.03,0,.05-.02.08-.02.02,0,.05,0,.08,0,.1,0,.19.04.27.11.08.07.12.18.12.31,0,.09-.02.18-.07.27-.05.08-.12.15-.22.18-.18.07-.37.13-.58.2-.21.07-.43.13-.67.2-.05.02-.07.05-.07.08v1.93c0,.06.03.08.08.08h1.26c.12,0,.22.04.3.13.08.08.12.18.12.29,0,.12-.04.22-.13.3s-.18.12-.29.12h-1.26c-.06,0-.08.03-.08.08v.57s.01.07.04.1c.65.69,1.12,1.53,1.41,2.51,0,.03.01.08.01.14,0,.21-.1.36-.31.46-.06.02-.1.03-.13.03-.18,0-.29-.09-.34-.27-.07-.25-.15-.5-.25-.74-.1-.24-.22-.46-.35-.68-.02-.04-.04-.05-.06-.05-.02,0-.04.03-.04.08v4.84c0,.12-.04.22-.12.3s-.18.12-.3.12Zm2.3-.08c-.06.03-.11.04-.17.04-.1,0-.2-.04-.3-.13-.1-.08-.15-.2-.15-.34,0-.19.09-.33.28-.42.83-.41,1.57-.92,2.23-1.53.65-.61,1.19-1.28,1.62-2.02.43-.74.72-1.51.87-2.31.03-.11.09-.2.19-.26.1-.06.2-.08.3-.05.13.04.23.11.29.21.06.1.09.22.07.35-.14.71-.38,1.4-.72,2.06-.34.66-.75,1.28-1.24,1.85s-1.01,1.07-1.57,1.5c-.56.43-1.13.78-1.71,1.03Zm.2-6.15c-.07.07-.15.1-.25.1-.17,0-.29-.07-.38-.2-.06-.08-.08-.17-.08-.27,0-.16.07-.31.21-.45.35-.35.64-.79.86-1.3.22-.51.37-.99.44-1.43.05-.22.17-.34.38-.34.16,0,.28.06.36.19s.12.26.1.4c-.12.59-.32,1.18-.6,1.78-.28.6-.63,1.1-1.04,1.5Zm1.69,1.29c-.11,0-.21-.04-.28-.12s-.11-.18-.11-.29c0-.12.04-.23.13-.31s.19-.13.31-.13c.3,0,.46-.05.5-.15.03-.1.05-.24.05-.41v-5.08c0-.12.04-.22.13-.31s.19-.13.31-.13c.13,0,.24.04.32.13.08.08.12.19.12.31v5.08c0,.51-.11.88-.32,1.09-.21.21-.6.32-1.15.33Zm4.45-1.4c-.35-.34-.71-.79-1.1-1.35-.39-.56-.71-1.19-.96-1.87,0-.03-.02-.05-.02-.08,0-.02,0-.05,0-.08,0-.1.04-.2.12-.3.08-.1.19-.15.34-.15.2,0,.33.1.41.29.19.49.42.97.71,1.44s.59.91.93,1.29c.11.11.17.25.17.41,0,.11-.03.21-.08.29-.08.12-.17.18-.29.18-.08,0-.15-.03-.21-.08Z"/><path d="m48.28,33.99c-.08.07-.17.1-.28.1-.16,0-.28-.06-.36-.18-.07-.08-.1-.17-.1-.28,0-.17.06-.3.18-.39.65-.55,1.18-1.1,1.57-1.65s.7-1.09.92-1.62.4-1.03.55-1.5c.06-.21.21-.32.45-.32.14,0,.25.05.34.14.09.09.13.21.13.34,0,.06,0,.1-.01.13-.2.64-.43,1.26-.71,1.85s-.63,1.16-1.05,1.72c-.42.56-.97,1.12-1.63,1.68Zm9.72.15c-.12.02-.23,0-.34-.08-.1-.07-.16-.18-.18-.31-.1-.63-.29-1.21-.56-1.71s-.58-.98-.93-1.4c-.35-.42-.7-.82-1.04-1.18s-.65-.71-.91-1.05c-.05-.06-.07-.14-.07-.24,0-.18.07-.31.21-.39.07-.05.16-.07.25-.07.16,0,.29.07.41.21.25.32.55.66.9,1.02.35.36.7.77,1.06,1.22.36.45.69.95.98,1.52.29.56.5,1.2.62,1.91.02.13,0,.25-.08.36-.07.11-.18.18-.32.2Zm-1.18-6.36c-.38,0-.71-.14-.99-.41-.28-.27-.41-.6-.41-.99s.14-.71.41-.99c.27-.28.6-.41.99-.41s.72.14.99.41c.27.28.41.6.41.99s-.14.71-.41.99c-.27.28-.6.41-.99.41Zm0-.39c.28,0,.52-.1.71-.3.2-.2.29-.44.29-.71s-.1-.51-.29-.71c-.2-.2-.43-.3-.71-.3s-.52.1-.71.3c-.2.2-.29.44-.29.71s.1.52.3.71.44.29.71.29Z"/><path d="m63.16,35.54c-.07.05-.15.07-.21.07-.16,0-.28-.07-.35-.21-.05-.08-.07-.15-.07-.24,0-.16.06-.29.2-.39.63-.49,1.14-1.06,1.53-1.7.38-.64.67-1.4.85-2.28.18-.88.27-1.92.27-3.12,0-.12.04-.23.13-.31.08-.09.19-.13.31-.13.13,0,.25.05.34.14.1.09.14.21.13.34-.05,1.09-.14,2.05-.27,2.86-.14.82-.32,1.53-.56,2.14-.24.61-.55,1.14-.92,1.6-.38.46-.83.87-1.36,1.25Zm9.28-2.95c-.49.63-.97,1.11-1.46,1.42-.49.31-.93.47-1.33.47-.46,0-.83-.21-1.13-.62-.29-.42-.44-1.03-.43-1.84v-5.31c0-.13.05-.24.14-.34s.2-.14.32-.14c.13,0,.24.05.34.14.09.09.14.21.14.34v5.18c0,1.06.24,1.6.71,1.6s1.14-.5,1.99-1.51c.27-.32.52-.66.75-1.02.23-.36.44-.75.64-1.15.09-.19.24-.28.43-.28.14,0,.25.05.34.14.09.09.13.2.13.32,0,.07-.01.13-.04.18-.22.46-.47.89-.73,1.29-.27.4-.54.78-.82,1.13Z"/><path d="m88.01,35.67c-.08.07-.17.1-.25.1-.14,0-.26-.07-.36-.2-.31-.45-.67-.87-1.09-1.27-.42-.4-.86-.75-1.33-1.07-.47-.32-.93-.57-1.39-.76-.07-.03-.12-.02-.17.03-.6.56-1.29,1.11-2.06,1.66s-1.66,1.04-2.65,1.49c-.03.02-.08.03-.15.03-.1,0-.2-.04-.29-.13s-.14-.19-.14-.32c0-.22.11-.38.32-.48.92-.41,1.75-.88,2.48-1.39.73-.52,1.36-1.05,1.91-1.6.55-.55,1-1.07,1.36-1.56.36-.49.62-.91.79-1.26.08-.19.16-.37.22-.54s.09-.33.09-.48c0-.18-.06-.32-.17-.43-.11-.11-.3-.16-.57-.16h-.19c-.06,0-.13,0-.2.03-.32.05-.74.09-1.27.14-.53.05-1.1.08-1.73.11-.63.03-1.24.04-1.85.04-.11,0-.21-.04-.29-.13s-.13-.19-.13-.31c0-.13.04-.24.13-.33.08-.09.2-.13.34-.13h.63c.83,0,1.61-.03,2.34-.08.73-.06,1.3-.12,1.7-.2.2-.03.37-.04.53-.04.52,0,.92.13,1.2.41.28.27.42.63.42,1.09,0,.21-.03.42-.08.66-.06.23-.15.48-.28.74-.16.33-.37.68-.62,1.06s-.56.77-.92,1.18c-.02.02-.03.05-.03.08s.02.07.07.1c.49.22.97.51,1.44.85.48.35.92.72,1.33,1.13s.76.81,1.04,1.21c.06.11.1.21.1.29,0,.17-.07.31-.21.42Z"/></g><g><path d="m123.82,17.62c-.96,0-1.66-.22-2.09-.63-.43-.41-.62-1.07-.59-1.97v-6.69c0-.13.04-.24.13-.33.09-.09.2-.13.33-.13s.24.04.33.13c.09.09.13.2.13.33v3.07c0,.08.04.12.13.11,1.07-.07,2.1-.22,3.09-.45s1.99-.54,3-.94c.03-.02.06-.03.08-.03h.08c.21,0,.34.09.41.28,0,.03.02.06.02.08,0,.03,0,.06,0,.08,0,.22-.11.38-.32.48-.99.37-2.01.68-3.07.92-1.06.24-2.16.41-3.3.49-.08,0-.13.06-.13.14v2.45c0,.5.04.87.16,1.1s.31.38.57.45c.27.07.61.11,1.03.13.1,0,.21.01.33.01h.37c.45,0,.94-.01,1.49-.03.55-.02,1.08-.05,1.6-.09.52-.04.97-.08,1.34-.14.13-.02.25.02.36.1.11.09.16.2.16.33,0,.12-.04.23-.11.32-.08.09-.18.15-.31.17-.3.04-.66.07-1.09.1s-.89.06-1.38.08-.98.03-1.46.05c-.48.01-.92.02-1.32.02Zm5.35-8.12c-.39,0-.72-.13-.99-.41s-.41-.6-.41-.99.14-.71.41-.99.6-.41.99-.41.71.14.99.41c.27.28.41.6.41.99s-.14.72-.41.99c-.28.27-.61.41-.99.41Zm0-.39c.27,0,.51-.1.71-.29.2-.2.3-.43.3-.71s-.1-.51-.3-.71c-.2-.2-.44-.3-.71-.3s-.52.1-.71.3c-.2.2-.29.44-.29.71s.1.52.29.71c.2.2.43.29.71.29Z"/><path d="m136.59,16.99c-.13,0-.24-.05-.33-.14-.09-.09-.13-.2-.13-.32,0-.13.04-.24.13-.33.09-.09.2-.13.33-.13h5.12c.47,0,.82-.15,1.07-.46.25-.3.37-.73.37-1.28v-2.72c0-.95-.47-1.43-1.4-1.43h-5.22c-.13,0-.24-.04-.33-.13-.09-.09-.13-.2-.13-.33s.04-.24.13-.33c.09-.09.2-.13.33-.13h5.28c.73,0,1.3.21,1.71.63.41.42.62.99.62,1.72v2.72c0,.81-.21,1.46-.64,1.94-.43.48-1,.72-1.72.72h-5.18Z"/><path d="m151.76,18.37c-.11,0-.21-.04-.29-.12s-.13-.18-.13-.3v-4.68s-.01-.07-.04-.08c-.02,0-.04.01-.06.05-.21.43-.44.86-.71,1.28-.27.42-.55.82-.85,1.2-.07.08-.16.13-.28.13s-.22-.05-.31-.14c-.04-.05-.07-.1-.08-.16-.02-.06-.03-.12-.03-.17,0-.16.05-.29.14-.39.34-.39.66-.83.94-1.3.28-.48.52-.96.71-1.45.2-.49.34-.94.43-1.35-.04,0-.07-.01-.1-.01h-1.47c-.11,0-.21-.04-.29-.12s-.13-.18-.13-.3.04-.22.13-.3c.08-.08.18-.12.29-.12h1.61c.06,0,.08-.03.08-.08v-1.74c0-.07-.03-.09-.1-.08-.23.05-.47.08-.7.11-.23.03-.46.05-.67.07-.12,0-.23-.03-.32-.12-.09-.09-.14-.19-.14-.31,0-.11.04-.21.12-.29.08-.08.18-.13.29-.14.62-.06,1.25-.15,1.87-.29.62-.14,1.14-.29,1.56-.45.03,0,.05-.02.08-.02.02,0,.05,0,.08,0,.1,0,.19.04.27.11.08.07.12.18.12.31,0,.09-.02.18-.07.27s-.12.15-.22.18c-.18.07-.37.13-.58.2-.21.07-.43.13-.67.2-.05.02-.07.05-.07.08v1.93c0,.06.03.08.08.08h1.26c.12,0,.22.04.3.13.08.08.12.18.12.29,0,.12-.04.22-.13.3s-.18.12-.29.12h-1.26c-.06,0-.08.03-.08.08v.57s.01.07.04.1c.65.69,1.12,1.53,1.41,2.51,0,.03.01.08.01.14,0,.21-.1.36-.31.46-.06.02-.1.03-.13.03-.18,0-.29-.09-.34-.27-.07-.25-.15-.5-.25-.74-.1-.24-.22-.46-.35-.68-.02-.04-.04-.05-.06-.05-.02,0-.04.03-.04.08v4.84c0,.12-.04.22-.12.3s-.18.12-.3.12Zm2.3-.08c-.06.03-.11.04-.17.04-.1,0-.2-.04-.3-.13s-.15-.2-.15-.34c0-.19.09-.33.28-.42.83-.41,1.57-.92,2.23-1.53.65-.61,1.19-1.28,1.62-2.02s.72-1.51.87-2.31c.03-.11.09-.2.19-.26.1-.06.2-.08.3-.05.13.04.23.11.29.21.06.1.09.22.07.35-.14.71-.38,1.4-.72,2.06-.34.66-.75,1.28-1.24,1.85-.48.57-1.01,1.07-1.57,1.5-.56.43-1.13.78-1.71,1.03Zm.2-6.15c-.06.07-.15.1-.25.1-.17,0-.29-.07-.38-.2-.06-.08-.08-.17-.08-.27,0-.16.07-.31.21-.45.36-.35.64-.79.86-1.3.22-.51.37-.99.44-1.43.05-.22.17-.34.38-.34.16,0,.28.06.36.19s.12.26.1.4c-.12.59-.32,1.18-.6,1.78-.28.6-.63,1.1-1.04,1.5Zm1.7,1.29c-.11,0-.21-.04-.28-.12-.07-.08-.11-.18-.11-.29,0-.12.04-.23.13-.31s.19-.13.31-.13c.3,0,.46-.05.5-.15.03-.1.05-.24.05-.41v-5.08c0-.12.04-.22.13-.31s.19-.13.31-.13c.13,0,.24.04.32.13s.12.19.12.31v5.08c0,.51-.11.88-.32,1.09-.21.21-.6.32-1.15.33Zm4.45-1.4c-.35-.34-.71-.79-1.1-1.35-.39-.56-.71-1.19-.96-1.87,0-.03-.02-.05-.02-.08,0-.02,0-.05,0-.08,0-.1.04-.2.12-.3.08-.1.19-.15.34-.15.2,0,.33.1.41.29.19.49.42.97.71,1.44s.59.91.93,1.29c.11.11.17.25.17.41,0,.11-.03.21-.08.29-.07.12-.17.18-.29.18-.08,0-.15-.03-.21-.08Z"/><path d="m120.28,33.99c-.08.07-.17.1-.28.1-.16,0-.28-.06-.36-.18-.07-.08-.1-.17-.1-.28,0-.17.06-.3.18-.39.65-.55,1.18-1.1,1.57-1.65.39-.55.7-1.09.92-1.62.22-.53.4-1.03.55-1.5.06-.21.21-.32.45-.32.14,0,.25.05.34.14.09.09.13.21.13.34,0,.06,0,.1-.01.13-.2.64-.43,1.26-.71,1.85s-.62,1.16-1.05,1.72c-.43.56-.97,1.12-1.63,1.68Zm9.71.15c-.12.02-.23,0-.34-.08-.1-.07-.16-.18-.18-.31-.1-.63-.29-1.21-.56-1.71-.27-.51-.58-.98-.93-1.4-.35-.42-.7-.82-1.04-1.18s-.65-.71-.91-1.05c-.05-.06-.07-.14-.07-.24,0-.18.07-.31.21-.39.08-.05.16-.07.25-.07.16,0,.29.07.41.21.25.32.55.66.9,1.02.35.36.7.77,1.06,1.22.36.45.69.95.98,1.52.29.56.5,1.2.62,1.91.02.13,0,.25-.08.36-.07.11-.18.18-.32.2Zm-1.18-6.36c-.38,0-.71-.14-.99-.41-.28-.27-.41-.6-.41-.99s.14-.71.41-.99c.27-.28.6-.41.99-.41s.72.14.99.41c.27.28.41.6.41.99s-.14.71-.41.99c-.27.28-.6.41-.99.41Zm0-.39c.28,0,.52-.1.71-.3.2-.2.29-.44.29-.71s-.1-.51-.29-.71c-.2-.2-.43-.3-.71-.3s-.52.1-.71.3c-.2.2-.29.44-.29.71s.1.52.3.71c.2.2.44.29.71.29Z"/><path d="m135.16,35.54c-.07.05-.14.07-.21.07-.16,0-.28-.07-.35-.21-.05-.08-.07-.15-.07-.24,0-.16.06-.29.2-.39.63-.49,1.14-1.06,1.53-1.7.38-.64.67-1.4.85-2.28.18-.88.27-1.92.27-3.12,0-.12.04-.23.12-.31.08-.09.19-.13.31-.13.13,0,.25.05.34.14.1.09.14.21.13.34-.05,1.09-.14,2.05-.27,2.86-.14.82-.32,1.53-.56,2.14-.24.61-.55,1.14-.92,1.6-.38.46-.83.87-1.37,1.25Zm9.28-2.95c-.49.63-.97,1.11-1.46,1.42-.49.31-.93.47-1.33.47-.46,0-.83-.21-1.13-.62-.29-.42-.44-1.03-.43-1.84v-5.31c0-.13.05-.24.14-.34.09-.09.2-.14.32-.14.13,0,.24.05.34.14.09.09.14.21.14.34v5.18c0,1.06.24,1.6.71,1.6s1.14-.5,1.99-1.51c.27-.32.52-.66.75-1.02.23-.36.44-.75.64-1.15.09-.19.24-.28.43-.28.14,0,.25.05.34.14.09.09.13.2.13.32,0,.07-.01.13-.04.18-.22.46-.47.89-.73,1.29s-.54.78-.82,1.13Z"/><path d="m160.01,35.67c-.08.07-.17.1-.25.1-.14,0-.26-.07-.36-.2-.31-.45-.67-.87-1.09-1.27-.42-.4-.86-.75-1.33-1.07-.47-.32-.93-.57-1.39-.76-.06-.03-.12-.02-.17.03-.6.56-1.29,1.11-2.06,1.66s-1.66,1.04-2.65,1.49c-.03.02-.08.03-.15.03-.1,0-.2-.04-.29-.13-.09-.08-.14-.19-.14-.32,0-.22.11-.38.32-.48.92-.41,1.75-.88,2.48-1.39.73-.52,1.37-1.05,1.91-1.6.54-.55,1-1.07,1.36-1.56.36-.49.62-.91.79-1.26.08-.19.16-.37.22-.54s.09-.33.09-.48c0-.18-.06-.32-.17-.43s-.3-.16-.57-.16h-.19c-.06,0-.13,0-.2.03-.32.05-.74.09-1.27.14-.53.05-1.1.08-1.73.11-.62.03-1.24.04-1.85.04-.11,0-.21-.04-.29-.13s-.12-.19-.12-.31c0-.13.04-.24.12-.33.08-.09.2-.13.34-.13h.63c.83,0,1.61-.03,2.34-.08.73-.06,1.3-.12,1.7-.2.2-.03.37-.04.53-.04.52,0,.92.13,1.2.41.28.27.42.63.42,1.09,0,.21-.03.42-.08.66-.05.23-.15.48-.28.74-.16.33-.37.68-.62,1.06s-.56.77-.92,1.18c-.02.02-.03.05-.03.08s.02.07.07.1c.49.22.97.51,1.44.85.48.35.92.72,1.33,1.13.41.41.76.81,1.04,1.21.06.11.1.21.1.29,0,.17-.07.31-.21.42Z"/></g><polyline class="cls-4" points="143.88 157 168 132 219 132"/><g><path d="m237.53,124.17c-.32-.14-.68-.25-1.08-.34s-.78-.14-1.13-.16c-.12,0-.22-.05-.31-.13-.08-.08-.13-.18-.13-.29,0-.14.05-.26.14-.35s.2-.14.32-.14c.38.02.8.08,1.27.17.46.09.88.23,1.27.41.18.07.27.21.27.42,0,.14-.04.25-.13.34s-.19.13-.31.13c-.05,0-.11-.01-.18-.04Zm.83-3.02c-.68-.44-1.45-.71-2.3-.83-.12-.02-.21-.07-.28-.15s-.1-.17-.1-.27c0-.14.05-.26.16-.35.11-.09.22-.13.34-.11.44.05.88.15,1.33.3.45.15.86.35,1.23.59.15.09.22.23.22.42,0,.09-.02.18-.06.25-.08.13-.19.2-.35.2-.07,0-.14-.02-.21-.06Zm-1.99,7.52s-.07.01-.13.01c-.13,0-.25-.05-.35-.14s-.15-.21-.15-.36c0-.23.12-.38.35-.45.6-.17,1.24-.41,1.92-.73.68-.32,1.36-.71,2.04-1.17.68-.46,1.33-.99,1.94-1.58s1.15-1.24,1.6-1.95c.08-.13.21-.2.38-.2.1,0,.19.03.25.08.15.09.22.24.22.43,0,.11-.03.21-.08.29-.37.58-.85,1.16-1.43,1.75-.58.59-1.22,1.15-1.94,1.68-.71.53-1.46,1-2.25,1.4-.79.4-1.58.71-2.37.91Z"/><path d="m257.61,128.89c-.87-.52-1.84-.94-2.91-1.25-1.07-.31-2.17-.49-3.28-.55-.12,0-.22-.06-.31-.14s-.13-.19-.13-.31c0-.16.06-.29.17-.39.11-.1.24-.14.39-.13.74.04,1.48.14,2.23.3.75.16,1.49.38,2.21.64.72.26,1.39.56,2,.91.09.04.16.1.21.19.05.09.07.18.07.29,0,.09-.02.18-.06.25-.08.16-.21.24-.39.24-.08,0-.15-.02-.21-.06Zm-.27-8.48c-.53-.03-1.12-.09-1.78-.18-.65-.09-1.29-.21-1.92-.34-.63-.14-1.18-.28-1.66-.43-.21-.07-.32-.21-.32-.43,0-.13.05-.24.14-.33s.2-.13.32-.13c.03,0,.07,0,.13.03.49.16,1.05.3,1.66.43.61.13,1.23.24,1.85.32s1.19.13,1.7.16c.11,0,.21.05.28.13.07.08.11.17.11.29,0,.14-.05.26-.15.36-.1.1-.22.14-.36.13Zm-.52,4.09c-.65-.31-1.35-.56-2.09-.75s-1.52-.32-2.34-.4c-.11,0-.21-.06-.29-.14-.08-.08-.12-.18-.12-.29,0-.14.05-.26.15-.35.1-.09.21-.13.34-.11.52.05,1.06.13,1.61.24.55.11,1.09.25,1.62.41.53.16,1,.34,1.42.53.2.09.29.25.29.46,0,.13-.04.24-.13.31-.09.08-.19.12-.3.12-.03,0-.06,0-.08,0-.03,0-.06-.01-.08-.02Z"/><path d="m264.26,127.4s-.07.01-.11.01c-.1,0-.2-.04-.28-.13s-.13-.19-.13-.31c0-.1.03-.2.1-.28.06-.08.15-.14.25-.17.21-.07.41-.13.62-.19.21-.06.4-.12.59-.19.05-.02.07-.05.07-.1v-7.83c0-.13.04-.24.13-.32s.19-.13.32-.13c.13,0,.24.04.32.13s.13.19.13.32v7.45c0,.08.03.1.1.07.43-.19.84-.38,1.24-.59.4-.21.77-.43,1.11-.67.07-.04.13-.06.2-.06.14,0,.25.06.32.18.05.09.07.18.07.27,0,.16-.06.29-.18.39-.26.2-.59.4-.99.61s-.83.41-1.29.6c-.46.19-.91.37-1.36.52-.45.16-.85.29-1.22.39Zm10.79,1.97s-.09.04-.15.04c-.16,0-.28-.09-.36-.27-.31-.77-.67-1.47-1.07-2.1-.41-.62-.79-1.14-1.14-1.54-.04-.06-.07-.06-.11,0-.51.64-1.09,1.2-1.72,1.65s-1.32.85-2.04,1.18c-.73.33-1.49.63-2.3.89-.03,0-.07.01-.13.01-.1,0-.2-.04-.29-.11-.09-.07-.13-.18-.13-.31,0-.22.11-.38.34-.46,1.34-.44,2.49-.96,3.44-1.56.95-.6,1.73-1.31,2.34-2.13s1.07-1.78,1.38-2.88.49-2.37.55-3.81c0-.13.04-.24.13-.32s.19-.13.32-.13.22.04.31.13.13.19.13.31c-.07,1.47-.25,2.74-.54,3.83-.29,1.09-.69,2.03-1.18,2.84-.03.04-.03.06-.01.08.39.43.82.98,1.29,1.66.47.68.87,1.47,1.22,2.39.03.06.04.12.04.18,0,.19-.1.33-.29.42Zm-4.73-6.52c-.06.02-.1.03-.14.03-.19,0-.31-.1-.38-.31-.15-.54-.38-1.1-.69-1.69-.31-.58-.66-1.14-1.06-1.66-.06-.07-.08-.16-.08-.25,0-.15.06-.26.2-.34.08-.05.17-.07.28-.07.19,0,.33.07.42.21.21.28.42.62.65,1.02.23.4.44.81.64,1.25.2.43.36.84.47,1.22.02.06.03.1.03.14,0,.21-.11.35-.34.45Z"/><path d="m279.45,129.31c-.07.05-.13.07-.2.07-.14,0-.25-.07-.32-.21-.04-.07-.06-.14-.06-.22,0-.19.07-.33.22-.43.71-.54,1.35-1.13,1.91-1.77.56-.64,1.05-1.3,1.46-1.98.03-.04.03-.07,0-.11-.2-.22-.41-.45-.64-.67-.23-.22-.47-.43-.71-.62-.12-.09-.18-.21-.18-.35,0-.07.02-.15.07-.22.09-.12.21-.18.35-.18.08,0,.15.02.22.07.53.37.97.77,1.3,1.18.05.06.08.05.11-.01.3-.57.54-1.13.73-1.69s.35-1.1.47-1.63v-.03s-.03-.07-.08-.07h-2.28c-.06,0-.09.02-.1.06-.29.58-.63,1.14-1.02,1.69s-.84,1.06-1.33,1.53c-.07.07-.14.1-.24.1-.13,0-.23-.06-.31-.18-.06-.1-.08-.2-.08-.29,0-.16.07-.3.2-.43.76-.75,1.37-1.58,1.85-2.48.48-.91.83-1.79,1.06-2.64.07-.23.21-.35.45-.35.15,0,.26.06.34.17.08.11.1.23.07.36-.07.25-.14.5-.23.75s-.18.5-.29.76c-.03.07,0,.1.07.1h2.21c.2,0,.36.08.49.22.13.15.18.32.14.5-.21,1.19-.58,2.33-1.1,3.44-.52,1.11-1.16,2.14-1.94,3.09-.78.95-1.65,1.78-2.62,2.49Zm7.25.03c-.12,0-.23-.04-.32-.13-.09-.09-.13-.19-.13-.32v-5.73s-.02-.07-.07-.08c-.29-.06-.56-.1-.81-.13-.1-.02-.19-.07-.25-.14s-.1-.16-.1-.25c0-.16.05-.28.16-.37s.23-.12.37-.1c.1,0,.21.02.31.04.1.02.2.04.29.06h.03s.07-.03.07-.08v-4.1c0-.13.04-.24.13-.33s.19-.13.32-.13c.13,0,.24.04.32.13s.13.2.13.33v4.34s.03.07.08.08c.53.14,1.06.31,1.58.5.52.19,1.01.4,1.47.62.13.07.23.16.29.29.06.13.08.27.05.42,0,.07-.04.14-.11.18-.06.05-.13.07-.2.07-.06,0-.11-.01-.17-.04-.46-.25-.93-.47-1.42-.67-.49-.19-.98-.35-1.48-.48-.07-.02-.1,0-.1.07v5.5c0,.12-.04.23-.13.32-.08.09-.19.13-.32.13Z"/><path d="m300.2,128.26c-.13,0-.25-.03-.36-.11-.11-.08-.17-.2-.17-.35,0-.11.04-.21.11-.3s.17-.14.29-.16c1.18-.19,2.09-.59,2.73-1.2s.95-1.4.95-2.37c0-.62-.15-1.18-.46-1.65-.3-.48-.71-.85-1.2-1.13-.5-.27-1.04-.41-1.63-.41-.07,0-.12.04-.14.11-.18.8-.39,1.6-.64,2.38-.25.78-.55,1.5-.9,2.16-.78,1.46-1.6,2.18-2.44,2.18-.05,0-.1,0-.15,0-.05,0-.1-.01-.15-.02-.43-.1-.75-.36-.97-.78-.21-.42-.32-.91-.32-1.48,0-.52.1-1.08.29-1.66.19-.58.47-1.13.85-1.65.53-.73,1.18-1.27,1.95-1.62.77-.35,1.55-.53,2.35-.53.64,0,1.26.11,1.84.34.58.23,1.09.56,1.53,1,.44.44.75.99.94,1.64.06.18.1.36.12.56.02.2.04.4.04.6,0,.49-.09.97-.26,1.45-.17.48-.44.93-.8,1.34-.36.42-.82.77-1.38,1.06-.56.29-1.23.49-2.02.59Zm-4.41-2.11c.16.25.34.38.53.38s.42-.12.66-.35.47-.55.71-.95.46-.85.68-1.34.41-1.01.58-1.55c.17-.54.31-1.05.41-1.55v-.03c0-.08-.04-.12-.13-.1-.62.1-1.18.34-1.7.71-.52.37-.94.83-1.27,1.38-.22.38-.39.79-.51,1.22-.12.43-.17.83-.17,1.2,0,.41.07.74.21.98Z"/><path d="m311.27,129.42c-.12,0-.22-.04-.3-.12s-.12-.18-.12-.3v-4.65c0-.07-.03-.1-.08-.08-.24.04-.49.07-.73.09-.24.02-.48.04-.7.06-.16,0-.29-.04-.38-.15-.1-.11-.15-.23-.15-.37,0-.19.08-.34.25-.46.42-.27.83-.64,1.23-1.12.04-.04.04-.07.01-.11-.17-.24-.35-.48-.55-.72-.2-.24-.39-.44-.58-.61-.17-.16-.25-.35-.25-.57,0-.18.06-.34.17-.48.23-.3.44-.63.61-.99.17-.36.32-.73.44-1.11.07-.21.2-.32.41-.32.15,0,.27.06.35.17.08.11.11.23.07.35-.11.39-.26.78-.45,1.16s-.42.77-.7,1.16c-.03.05-.02.09.01.13.16.15.32.32.5.52.17.2.34.4.5.62.04.08.07.08.11,0,.28-.41.54-.86.78-1.36s.44-1.03.59-1.6c.02-.1.07-.18.15-.24.08-.06.17-.08.26-.08.15,0,.27.06.35.18.08.12.11.24.07.37-.22.82-.56,1.63-1.02,2.42-.46.79-1.01,1.52-1.65,2.18-.03.03-.04.05-.02.07.01.02.04.02.08.01.34-.05.68-.1,1.02-.17.34-.06.64-.13.88-.2.06,0,.07-.05.06-.11-.05-.12-.09-.23-.14-.33-.05-.1-.09-.19-.14-.29-.03-.06-.04-.11-.04-.17,0-.2.08-.33.25-.39.06-.03.12-.04.18-.04.21,0,.36.1.43.29.11.28.23.6.34.95.12.35.22.72.31,1.11.02.12,0,.24-.08.35-.07.11-.18.17-.32.17-.22,0-.36-.11-.41-.34l-.08-.39c0-.06-.05-.07-.11-.06-.14.04-.29.07-.44.11-.15.04-.31.08-.47.11-.05.02-.07.05-.07.08v4.83c0,.12-.04.22-.13.3s-.18.12-.29.12Zm-2.02-.31c-.12,0-.21-.04-.28-.11-.07-.08-.1-.16-.1-.25,0-.06,0-.1.01-.13.19-.51.33-1.03.42-1.55.09-.52.16-1.06.21-1.63.02-.12.07-.22.15-.29s.18-.11.28-.11c.13,0,.24.05.32.14.08.09.12.2.1.32-.05.52-.11,1.06-.2,1.61-.09.55-.23,1.11-.43,1.67-.04.09-.1.17-.2.24-.09.07-.19.1-.29.1Zm3.77-.73c-.1,0-.2-.02-.29-.08-.09-.06-.14-.15-.16-.27-.02-.19-.06-.43-.11-.74-.06-.31-.12-.61-.18-.91-.07-.3-.13-.52-.18-.67-.03-.06-.04-.11-.04-.17,0-.1.04-.2.13-.29s.19-.13.31-.13c.09,0,.18.03.26.08.08.06.13.13.16.22.05.15.1.38.17.7.06.32.13.64.18.96s.1.58.13.78c.03.12,0,.23-.06.33-.07.1-.17.16-.3.19Zm1.86.87c-.21,0-.38-.08-.53-.22-.15-.15-.22-.33-.22-.53v-9.35c0-.21.07-.39.22-.54s.33-.22.53-.22h4.52c.21,0,.39.07.54.22.14.15.22.32.22.54v9.35c0,.21-.07.38-.22.53-.15.15-.33.22-.54.22h-4.52Zm.2-6.29h1.54c.06,0,.08-.03.08-.08v-3.57c0-.06-.03-.08-.08-.08h-1.54c-.06,0-.08.03-.08.08v3.57c0,.06.03.08.08.08Zm0,5.45h1.54c.06,0,.08-.03.08-.08v-4.4c0-.06-.03-.08-.08-.08h-1.54c-.06,0-.08.03-.08.08v4.4c0,.06.03.08.08.08Zm2.56-5.45h1.57c.06,0,.08-.03.08-.08v-3.57c0-.06-.03-.08-.08-.08h-1.57c-.06,0-.08.03-.08.08v3.57c0,.06.03.08.08.08Zm0,5.45h1.57c.06,0,.08-.03.08-.08v-4.4c0-.06-.03-.08-.08-.08h-1.57c-.06,0-.08.03-.08.08v4.4c0,.06.03.08.08.08Z"/><path d="m324.24,129.46c-.12,0-.22-.04-.29-.13-.07-.09-.1-.19-.08-.32.23-1.42.37-2.8.41-4.16s.06-2.6.06-3.75v-2.59c0-.21.08-.39.22-.54.15-.14.33-.22.53-.22h1.71c.21,0,.39.08.54.22.14.15.22.33.22.53v9.8c0,.4-.1.69-.3.85-.2.17-.54.25-1.03.24-.12,0-.22-.04-.31-.13-.08-.08-.13-.19-.13-.32,0-.1.04-.19.11-.27.07-.08.16-.12.27-.12.24,0,.4-.01.46-.03.07-.02.1-.1.1-.22v-3.46c0-.06-.03-.08-.08-.08h-1.46c-.06,0-.08.03-.08.08-.03.68-.07,1.37-.13,2.08-.06.71-.15,1.42-.27,2.14-.02.11-.07.21-.16.28-.09.08-.19.11-.3.11Zm.98-5.54h1.43c.06,0,.08-.03.08-.08v-2.06c0-.06-.03-.08-.08-.08h-1.4c-.06,0-.08.02-.08.07v1.02c0,.35,0,.7-.03,1.06,0,.06.03.08.08.08Zm.03-3.08h1.4c.06,0,.08-.03.08-.08v-2.04c0-.06-.03-.08-.08-.08h-1.4c-.06,0-.08.03-.08.08v2.04c0,.06.03.08.08.08Zm7.36,6.15c-.11-.02-.21-.08-.29-.18-.08-.1-.12-.21-.12-.33,0-.13.05-.24.15-.31s.22-.11.35-.11c.4.02.71-.06.91-.22s.35-.47.45-.9c.13-.73.21-1.51.25-2.35s.06-1.71.06-2.62c0-.06-.03-.08-.08-.08h-4.31s-.08.02-.11.06c-.17.26-.35.5-.54.72-.19.22-.38.42-.57.61-.07.07-.15.1-.25.1-.14,0-.25-.06-.34-.17-.06-.08-.08-.18-.08-.28,0-.15.06-.28.17-.39.8-.78,1.35-1.73,1.65-2.83.07-.21.2-.32.41-.32.16,0,.28.06.37.18.09.12.11.25.08.38-.04.17-.09.34-.15.5s-.13.33-.2.49c-.03.07,0,.1.07.1h4.02c.21,0,.39.07.54.22s.22.32.22.54c0,.96-.02,1.89-.06,2.79-.04.9-.13,1.74-.27,2.53-.1.63-.36,1.12-.76,1.44-.41.33-.93.47-1.56.43Zm-2.14,2.31c-.61,0-1.05-.15-1.34-.44-.29-.29-.43-.74-.43-1.35v-2.74c0-.21.07-.39.22-.54.15-.14.33-.22.53-.22h2.17c.06,0,.08-.03.08-.08v-1.64c0-.06-.03-.08-.08-.08h-1.99c-.12,0-.22-.04-.3-.13s-.12-.19-.12-.31c0-.11.04-.21.12-.29s.18-.13.3-.13h2.18c.21,0,.39.07.54.22.14.15.22.32.22.54v2c0,.21-.07.38-.22.53-.15.15-.33.22-.54.22h-2.18c-.06,0-.08.03-.08.08v2.53c0,.31.05.55.15.72.1.17.37.26.8.26h2.53c.39,0,.73-.06,1-.17.28-.11.53-.29.75-.53.1-.1.21-.15.34-.15.1,0,.19.03.25.08.11.09.17.21.17.36,0,.11-.03.2-.1.27-.58.65-1.38.98-2.41.98h-2.56Z"/><path d="m340.94,128.41c-.21,0-.35-.1-.42-.31-.2-.61-.34-1.28-.43-2.03-.09-.75-.14-1.5-.14-2.27,0-.83.05-1.64.15-2.44.1-.8.26-1.51.46-2.14.03-.1.09-.18.17-.24.09-.06.18-.08.29-.08.13,0,.24.04.32.13s.12.19.12.31c0,.06,0,.1-.01.13-.19.6-.33,1.27-.43,2.02-.1.75-.15,1.51-.15,2.29,0,.73.04,1.44.13,2.14s.21,1.34.38,1.92c0,.03.01.07.01.13,0,.12-.04.23-.13.31-.08.09-.19.13-.32.13Zm8.39-1.08c-.39.13-.82.24-1.3.32-.47.08-.95.13-1.45.13-.71,0-1.41-.1-2.11-.31-.7-.21-1.3-.56-1.83-1.06-.09-.09-.14-.2-.14-.32s.05-.23.14-.32c.08-.08.18-.13.28-.13.12,0,.23.04.32.13.43.37.94.65,1.53.84.59.19,1.22.28,1.88.28.39,0,.79-.03,1.2-.1.41-.07.82-.17,1.22-.31.06-.02.1-.03.14-.03.11,0,.21.04.29.13s.13.19.13.32c0,.21-.11.36-.32.43Zm-5.91-6.09c-.1-.02-.19-.07-.26-.15-.07-.08-.11-.18-.11-.28,0-.15.05-.27.14-.35.09-.08.21-.12.34-.1.37.06.76.1,1.16.13s.8.04,1.2.04c.47,0,.92-.02,1.36-.06.44-.04.84-.09,1.2-.17.13-.02.25.01.34.1s.15.19.15.32c0,.1-.03.2-.1.29-.07.09-.16.15-.27.18-.81.16-1.74.24-2.77.24-.4,0-.8-.01-1.2-.04-.4-.03-.79-.07-1.18-.14Z"/><path d="m358.14,129.31c-.11-.02-.21-.07-.28-.15-.08-.08-.11-.18-.11-.29,0-.13.05-.24.14-.34.09-.09.21-.13.34-.11.38.03.72.04,1.02.04.6,0,1.07-.08,1.43-.24.35-.16.59-.47.71-.92.06-.21.12-.44.17-.71.05-.27.1-.55.16-.86v-.03s-.03-.07-.08-.07h-7.48c-.12,0-.22-.04-.31-.13s-.13-.18-.13-.29c0-.13.04-.24.13-.31.08-.08.19-.12.31-.12h7.62s.08-.02.1-.07c.07-.49.12-.98.17-1.5.02-.06,0-.08-.07-.08h-5.45c-.13,0-.24-.05-.34-.15-.09-.1-.14-.21-.14-.34,0-.06.01-.13.04-.18.21-.62.42-1.33.62-2.14.2-.81.35-1.65.46-2.52.02-.13.07-.23.16-.31.09-.08.19-.11.32-.11.13,0,.24.05.32.15s.12.21.1.34c-.04.24-.08.49-.11.75s-.08.51-.14.76c0,.07.03.1.08.1h5.74c.13,0,.24.04.31.13s.12.19.12.31-.04.22-.13.31-.19.13-.31.13h-5.95s-.07.02-.08.07c-.18.77-.34,1.36-.49,1.75-.03.07,0,.1.07.1h5.07c.21,0,.38.08.52.22s.2.32.18.52c-.03.26-.06.54-.08.83-.03.29-.06.58-.1.87,0,.06.01.08.07.08h2.13c.12,0,.22.04.3.12.08.08.12.18.12.31,0,.11-.04.21-.12.29s-.18.13-.3.13h-2.24s-.08.02-.1.07c-.07.35-.13.7-.19,1.02s-.13.61-.2.85c-.14.47-.36.83-.67,1.08-.3.26-.67.43-1.08.53-.42.1-.88.15-1.39.15-.31,0-.63-.01-.97-.04Z"/><path d="m375.84,128.84c-.61-.07-1.08-.25-1.41-.57-.34-.31-.5-.71-.5-1.18,0-.13.02-.27.05-.42.03-.15.08-.3.13-.45.04-.08.06-.17.08-.26.01-.09.02-.17.02-.25,0-.2-.05-.36-.15-.5-.1-.14-.25-.21-.44-.21-.12,0-.27.04-.45.11-.18.07-.37.19-.59.37-.41.43-.82.9-1.24,1.4s-.8,1.06-1.16,1.67c-.11.16-.25.24-.42.24-.13,0-.24-.04-.31-.13-.08-.09-.12-.19-.12-.3,0-.07.02-.15.06-.21.39-.67.84-1.31,1.35-1.92.51-.61,1.02-1.17,1.53-1.69.51-.52.98-.98,1.39-1.37.41-.4.72-.72.92-.97.03-.03.04-.06.04-.08,0-.07-.05-.09-.15-.06-.28.09-.64.17-1.08.22s-.92.08-1.43.08c-.25,0-.51,0-.77-.03-.26-.02-.52-.05-.78-.08-.1-.02-.19-.07-.25-.15s-.1-.17-.1-.27c0-.14.05-.25.15-.34.1-.08.22-.12.36-.1.47.06.93.08,1.39.08.61,0,1.19-.05,1.74-.14.55-.09,1.03-.23,1.43-.41.12-.05.23-.07.34-.07.19,0,.34.06.45.18.13.15.2.3.2.46,0,.1-.03.21-.1.32-.22.35-.5.71-.83,1.07-.33.36-.7.73-1.1,1.13-.04.04-.06.07-.06.08,0,.03.03.05.1.07.32.07.56.23.74.48.17.26.26.56.26.92,0,.33-.08.66-.22.99-.07.14-.1.28-.1.43,0,.29.14.52.43.68.29.16.64.24,1.06.24.47,0,.96-.1,1.49-.31s1-.55,1.42-1.02c.08-.09.19-.14.31-.14s.21.04.28.11c.1.1.15.22.15.36,0,.11-.04.22-.13.32-.49.51-1.03.91-1.64,1.19-.61.28-1.22.42-1.83.42-.08,0-.15,0-.23,0-.08,0-.16-.01-.23-.02Zm-.27-9.49c-.38-.19-.8-.32-1.26-.39s-.89-.11-1.3-.11c-.09,0-.19,0-.29,0-.1,0-.2,0-.28,0-.13,0-.24-.04-.31-.13-.08-.08-.12-.18-.12-.29,0-.13.04-.24.13-.33.08-.09.19-.14.31-.15.08,0,.15-.01.24-.01h.25c.54,0,1.09.05,1.65.15.55.1,1.02.25,1.39.43.07.04.13.09.17.17s.06.15.06.22c0,.08-.02.16-.06.22-.07.16-.2.24-.38.24-.06,0-.12-.01-.2-.04Z"/><path d="m389.34,128.89c-.58,0-1.04-.08-1.38-.24s-.58-.36-.73-.61c-.15-.25-.22-.5-.22-.75,0-.13.02-.26.06-.39.04-.13.08-.25.14-.35.26-.45.59-.67.98-.67.18,0,.36.04.56.13.34.15.68.39,1.03.74.35.34.67.69.96,1.04.05.06.1.07.17.04.37-.14.72-.32,1.04-.53s.58-.46.78-.76c.23-.33.35-.7.35-1.12,0-.31-.07-.6-.22-.89s-.36-.53-.65-.73-.66-.33-1.11-.38c-.09-.02-.19-.03-.28-.03h-.29c-.72,0-1.44.17-2.16.51-.72.34-1.48.87-2.28,1.59-.08.07-.19.11-.32.11-.1,0-.19-.02-.27-.07-.1-.07-.15-.17-.15-.29,0-.08.02-.15.06-.2.77-1.14,1.51-2.15,2.21-3.04.7-.89,1.36-1.65,2-2.28.08-.08.07-.11-.04-.08-.24.07-.58.12-1.02.16-.43.04-.88.06-1.35.06h-.34c-.11,0-.22,0-.32-.01-.11,0-.21-.06-.29-.15-.08-.09-.12-.19-.12-.3,0-.13.05-.24.14-.33.09-.09.21-.13.34-.12.38.03.75.04,1.11.04.49,0,.95-.03,1.39-.09.44-.06.87-.16,1.3-.3.03,0,.06-.02.08-.02s.06,0,.08,0c.22,0,.37.1.45.29.04.07.06.16.06.25,0,.2-.08.36-.22.49-.5.45-.93.87-1.29,1.26-.37.39-.72.8-1.05,1.21-.33.42-.68.89-1.06,1.42-.02.04-.03.07-.03.08,0,.07.05.09.14.04.54-.3,1.11-.54,1.7-.73s1.17-.28,1.73-.28c.72,0,1.33.17,1.83.5.5.33.84.78,1.02,1.35.09.29.14.59.14.91,0,.64-.2,1.23-.6,1.76-.4.53-.95.96-1.64,1.27-.7.32-1.5.48-2.4.48Zm.5-.83c.06,0,.09-.02.11-.06s0-.07-.04-.11c-.24-.3-.51-.57-.81-.83-.3-.25-.57-.38-.81-.38-.14,0-.26.04-.35.13-.09.09-.14.2-.14.34,0,.07.01.14.04.21.09.21.25.37.46.48.21.1.45.17.73.19.28.02.55.03.82.02Z"/><path d="m234.29,149.32s-.09.04-.15.04c-.18,0-.3-.09-.38-.28,0-.03-.02-.06-.02-.08,0-.03,0-.06,0-.08,0-.19.08-.33.25-.43.75-.43,1.34-.92,1.79-1.47.09-.12.21-.18.36-.18.11,0,.2.03.27.1.12.12.18.25.18.39,0,.12-.04.22-.13.31-.29.31-.63.62-1.04.94-.4.32-.78.57-1.13.76Zm-.06-6.08c-.09.04-.19.02-.29-.04s-.15-.15-.15-.27c0-.1.03-.2.08-.29.06-.09.13-.15.24-.19.33-.14.62-.33.88-.58.26-.25.44-.51.55-.79.04-.07.02-.1-.06-.1h-1.23c-.1,0-.19-.04-.26-.11-.07-.07-.1-.16-.1-.25,0-.1.04-.19.1-.27.07-.07.16-.11.26-.11h2.06c.06,0,.08-.03.08-.08v-.84c0-.06-.03-.08-.08-.08h-1.41c-.1,0-.19-.04-.27-.11-.08-.07-.11-.16-.11-.27s.04-.19.11-.27.16-.11.27-.11h1.41c.06,0,.08-.03.08-.08v-.43c0-.12.04-.22.13-.31s.19-.13.31-.13c.13,0,.24.04.32.13s.12.19.12.31v.43c0,.06.03.08.08.08h1.43c.1,0,.19.04.26.11.07.08.11.16.11.27s-.04.19-.11.27c-.07.07-.16.11-.26.11h-1.43c-.06,0-.08.03-.08.08v.84c0,.06.03.08.08.08h2c.1,0,.19.04.27.1.08.07.11.16.11.27,0,.09-.04.18-.11.25-.07.07-.16.11-.27.11h-1.05c-.06,0-.08.03-.08.08v.55c0,.28.16.42.48.42h.55c.1,0,.19.03.25.1.07.07.1.15.1.25,0,.09-.03.18-.1.25-.07.07-.15.11-.25.11h-.62c-.8,0-1.2-.37-1.2-1.12v-.55c0-.06-.03-.08-.08-.08h-.9s-.07.02-.08.07c-.14.49-.39.93-.76,1.31s-.82.67-1.37.88Zm.06,3.16c-.11,0-.21-.02-.29-.1s-.13-.17-.13-.29c0-.1.04-.19.11-.27.07-.08.16-.12.27-.13.36-.04.72-.08,1.07-.12s.7-.1,1.04-.16c.05-.02.07-.05.07-.1v-1.05c0-.06-.03-.08-.08-.08h-1.44c-.09,0-.18-.03-.25-.1-.08-.07-.11-.16-.11-.27,0-.1.04-.19.11-.26.07-.07.16-.1.25-.1h1.44c.06,0,.08-.03.08-.08v-.73c0-.12.04-.22.12-.3.08-.08.17-.12.29-.12.12,0,.22.04.3.13.08.08.12.18.12.29v.73c0,.06.03.08.08.08h1.43c.1,0,.19.03.27.1.08.07.11.16.11.26s-.04.19-.11.27c-.07.07-.16.11-.27.11h-1.43c-.06,0-.08.03-.08.08v.87c0,.07.03.09.1.08.25-.06.5-.12.76-.19s.5-.14.74-.2c.03,0,.07-.01.11-.01.08,0,.16.03.23.08.07.05.11.11.12.19,0,.03.01.07.01.11,0,.21-.1.35-.29.41-.7.21-1.45.39-2.25.54-.8.15-1.63.26-2.5.36Zm5.45,3.02c-.22,0-.38-.1-.46-.29-.3-.67-.63-1.25-1.01-1.72-.07-.07-.1-.16-.1-.27,0-.15.06-.26.18-.34.1-.06.2-.08.29-.08.2,0,.34.07.43.22.18.27.36.58.55.93.19.35.35.69.5,1.02.02.06.03.1.03.14,0,.09-.04.18-.11.27-.07.08-.18.13-.31.13Zm4.72-3.07c-.43,0-.76-.14-.99-.43-.23-.28-.34-.7-.34-1.24v-4.12c0-.06-.03-.08-.08-.08h-.71c-.06,0-.08.03-.08.08,0,.53-.04,1.02-.1,1.46-.06.44-.13.85-.21,1.21,0,.02,0,.06.01.11.17.27.33.54.48.81.15.27.29.52.4.76.03.06.04.11.04.17,0,.17-.08.29-.24.38-.06.03-.11.04-.17.04-.15,0-.25-.07-.31-.21-.07-.16-.15-.31-.24-.47-.08-.15-.17-.31-.25-.46-.05-.07-.09-.07-.13,0-.2.46-.44.84-.72,1.14-.29.3-.6.57-.96.79-.05.04-.11.06-.2.06-.16,0-.28-.07-.35-.22-.04-.05-.06-.11-.06-.2,0-.17.07-.3.22-.41.41-.27.74-.59.97-.95.24-.36.43-.75.57-1.15,0-.03,0-.07-.01-.11-.21-.31-.42-.6-.63-.88s-.42-.52-.6-.75c-.05-.05-.07-.12-.07-.21,0-.12.05-.22.15-.29.09-.05.18-.07.27-.07.16,0,.29.06.39.2.09.12.2.26.31.41.12.15.24.31.36.49.02.04.04.05.06.04s.04-.03.05-.07c.04-.28.06-.56.07-.83,0-.28.01-.54.01-.79,0-.06-.03-.08-.08-.08h-.9c-.11,0-.21-.04-.29-.12-.08-.08-.12-.17-.12-.29s.04-.21.11-.29c.07-.08.17-.12.29-.12h.9c.06,0,.08-.03.08-.08v-1.88c0-.11.04-.21.12-.29.08-.08.18-.13.3-.13s.22.04.31.12c.08.08.13.18.13.3v1.88c0,.06.03.08.08.08h.88c.21,0,.39.07.54.22s.22.33.22.53v4.26c0,.31.04.53.11.66.08.13.2.2.38.2.19,0,.32-.03.4-.1.08-.07.16-.22.23-.46.05-.18.17-.27.36-.27.04,0,.08,0,.14.03.19.09.28.24.28.43,0,.03,0,.05,0,.08,0,.02-.01.05-.02.08-.13.35-.31.61-.52.78-.22.16-.51.25-.86.25Zm-1.92,3.05c-.21,0-.35-.1-.45-.29-.16-.3-.34-.6-.53-.9-.2-.3-.39-.56-.59-.78-.08-.08-.11-.19-.11-.32,0-.16.05-.27.15-.34.12-.07.23-.11.34-.11.18,0,.31.07.41.21.2.28.4.6.62.95s.4.7.55,1.02c.03.06.04.11.04.17,0,.09-.04.18-.11.27-.08.08-.18.13-.31.13Zm2.73.01c-.21,0-.36-.1-.45-.29-.15-.3-.31-.59-.48-.88-.17-.28-.35-.53-.54-.75-.07-.07-.1-.17-.1-.28,0-.16.06-.27.17-.34.08-.06.18-.08.29-.08.19,0,.33.07.42.21.19.26.38.56.57.89s.36.66.51.97c.03.06.04.11.04.15,0,.09-.04.18-.12.27s-.18.13-.31.13Z"/><path d="m251.88,148.93c-.07.04-.14.06-.22.06-.17,0-.29-.07-.38-.21-.04-.07-.06-.14-.06-.21,0-.17.08-.3.22-.39.77-.46,1.47-.94,2.09-1.45.62-.51,1.16-1.03,1.64-1.56.05-.07.05-.13,0-.18-.22-.32-.52-.62-.88-.9-.36-.29-.74-.51-1.13-.68-.18-.08-.27-.21-.27-.39,0-.07.01-.12.04-.15.1-.2.26-.29.46-.29.07,0,.13.01.2.04.43.18.83.42,1.2.73.37.31.69.62.95.92.06.07.11.07.17,0,.24-.32.46-.63.64-.95.19-.31.35-.61.5-.9.18-.35.27-.68.27-.97,0-.59-.37-.88-1.12-.88h-1.97c-.06,0-.11.03-.15.08-.43.59-.92,1.17-1.46,1.73s-1.12,1.07-1.71,1.52c-.08.07-.17.1-.25.1-.13,0-.25-.06-.35-.2-.06-.08-.08-.17-.08-.25,0-.14.06-.26.18-.36.77-.61,1.44-1.22,1.99-1.84.55-.62,1-1.21,1.36-1.76s.62-1.01.81-1.39c.09-.18.23-.27.42-.27.13,0,.24.04.31.13.08.09.12.18.12.29,0,.08-.01.14-.04.2-.07.17-.16.34-.26.5s-.2.34-.3.52c-.02.04-.03.06-.03.07,0,.06.04.08.11.08h1.32c.51,0,.92.07,1.22.22.3.15.51.33.64.57s.2.5.2.78c0,.24-.04.49-.11.76-.08.26-.17.51-.29.76-.4.79-.87,1.54-1.41,2.23s-1.18,1.36-1.92,1.99c-.74.64-1.63,1.28-2.67,1.91Zm7.48-8.69s-.08.04-.14.04c-.1,0-.18-.04-.24-.13-.15-.23-.33-.48-.53-.74-.21-.26-.4-.48-.59-.66-.07-.07-.1-.14-.1-.21,0-.08.03-.14.08-.18.06-.06.13-.1.21-.1.08,0,.14.03.2.08.21.21.41.44.62.71.21.27.4.53.57.78.03.04.04.09.04.15,0,.1-.04.18-.13.24Zm1.05-.62s-.08.04-.14.04c-.1,0-.18-.04-.24-.13-.15-.23-.32-.48-.52-.73-.2-.25-.39-.47-.57-.64-.05-.07-.07-.13-.07-.18,0-.07.02-.14.07-.18.07-.07.14-.1.21-.1s.14.03.2.08c.21.21.41.44.6.69.2.26.38.51.55.76.03.04.04.08.04.14,0,.1-.04.18-.13.24Z"/><path d="m266.21,148.54c-.07.04-.13.06-.21.06-.19,0-.33-.08-.42-.25-.04-.07-.06-.14-.06-.24,0-.19.08-.32.24-.41.84-.49,1.61-1.03,2.3-1.64.7-.61,1.32-1.27,1.87-1.99.02-.02.03-.05.03-.08,0-.05-.02-.07-.07-.08-.41-.21-.84-.4-1.3-.57-.46-.16-.94-.31-1.46-.44-.11-.03-.2-.09-.27-.18-.07-.09-.1-.18-.1-.29,0-.18.07-.31.2-.4.13-.09.27-.12.41-.09.53.12,1.06.28,1.58.49.52.21,1.01.44,1.49.7.04.02.07.03.08.03.04,0,.07-.02.1-.07.39-.63.74-1.3,1.04-2s.55-1.44.76-2.21c.02-.1.07-.19.16-.25s.18-.1.29-.1c.15,0,.27.05.36.14.09.09.13.2.13.32,0,.06,0,.1-.01.13-.18.78-.43,1.55-.76,2.29-.33.74-.71,1.46-1.15,2.15-.02.04-.03.06-.03.07,0,.05.03.08.08.11.77.49,1.44,1.02,2.03,1.58.12.12.18.26.18.42,0,.12-.04.23-.11.34-.08.11-.2.17-.34.17-.1,0-.2-.04-.29-.11-.68-.65-1.36-1.19-2.03-1.62-.07-.06-.12-.05-.17.03-.61.8-1.3,1.54-2.07,2.22-.77.68-1.6,1.27-2.49,1.79Z"/><path d="m280.3,143.96c-.12,0-.23-.04-.31-.13-.09-.09-.13-.19-.13-.32,0-.13.04-.24.13-.32.09-.08.19-.13.31-.13h8.74c.12,0,.23.04.31.13s.13.19.13.32c0,.12-.04.23-.13.32s-.19.13-.32.13h-8.74Z"/><path d="m297.45,144.17c-.32-.14-.68-.25-1.08-.34s-.78-.14-1.13-.16c-.12,0-.22-.05-.31-.13-.08-.08-.13-.18-.13-.29,0-.14.05-.26.14-.35s.2-.14.32-.14c.38.02.8.08,1.27.17.46.09.88.23,1.27.41.18.07.27.21.27.42,0,.14-.04.25-.13.34s-.19.13-.31.13c-.05,0-.11-.01-.18-.04Zm.83-3.02c-.68-.44-1.45-.71-2.3-.83-.12-.02-.21-.07-.28-.15s-.1-.17-.1-.27c0-.14.05-.26.16-.35.11-.09.22-.13.34-.11.44.05.88.15,1.33.3.45.15.86.35,1.23.59.15.09.22.23.22.42,0,.09-.02.18-.06.25-.08.13-.19.2-.35.2-.07,0-.14-.02-.21-.06Zm-1.99,7.52s-.07.01-.13.01c-.13,0-.25-.05-.35-.14s-.15-.21-.15-.36c0-.23.12-.38.35-.45.6-.17,1.24-.41,1.92-.73.68-.32,1.36-.71,2.04-1.17.68-.46,1.33-.99,1.94-1.58s1.15-1.24,1.6-1.95c.08-.13.21-.2.38-.2.1,0,.19.03.25.08.15.09.22.24.22.43,0,.11-.03.21-.08.29-.37.58-.85,1.16-1.43,1.75-.58.59-1.22,1.15-1.94,1.68-.71.53-1.46,1-2.25,1.4-.79.4-1.58.71-2.37.91Zm7.59-7.9s-.08.04-.14.04c-.1,0-.18-.04-.24-.13-.15-.23-.32-.48-.52-.73-.2-.26-.39-.48-.58-.67-.07-.07-.1-.14-.1-.21,0-.07.03-.13.08-.18s.13-.08.21-.08c.07,0,.13.02.18.07.21.21.43.44.64.71.21.27.4.53.57.78.03.04.04.08.04.14,0,.11-.05.2-.14.25Zm1.06-.6s-.08.04-.14.04c-.1,0-.18-.04-.24-.13-.15-.23-.32-.48-.52-.74-.2-.26-.39-.47-.57-.65-.06-.06-.08-.12-.08-.18,0-.08.03-.14.08-.18.06-.06.12-.08.2-.08.09,0,.16.03.2.08.21.21.42.43.62.69s.38.5.55.76c.03.04.04.08.04.14,0,.09-.04.18-.13.25Z"/><path d="m314.2,148.76c-1.47,0-2.32-.41-2.58-1.22-.07-.19-.1-.38-.1-.57,0-.5.25-1,.75-1.48.5-.48,1.29-1.01,2.37-1.58.08-.05.09-.1.06-.17-.21-.38-.57-.57-1.06-.57s-1.08.18-1.78.55c-.04.02-.08.05-.13.1l-.27.21c-.06.05-.13.07-.22.07-.18,0-.31-.07-.39-.21-.06-.08-.08-.17-.08-.25,0-.14.07-.27.21-.39.64-.49,1.19-1.16,1.64-1.99,0-.02.01-.04.01-.07,0-.07-.04-.09-.11-.07-.65.08-1.23.14-1.74.17-.12,0-.23-.03-.32-.12-.09-.09-.13-.19-.13-.31,0-.13.04-.24.13-.32s.2-.13.33-.14c.35-.02.72-.04,1.08-.08.37-.03.74-.08,1.13-.15.07-.02.12-.06.13-.11.2-.49.36-1.03.5-1.62.07-.23.21-.35.43-.35.13,0,.24.04.33.13.09.09.13.19.13.3,0,.06,0,.1-.01.13-.06.2-.11.39-.17.57-.06.19-.12.37-.18.56,0,0,0,.02,0,.03,0,0,0,.02,0,.03,0,.07.05.1.14.07.29-.07.57-.16.85-.25.28-.09.55-.19.81-.29.06-.03.12-.04.18-.04.2,0,.32.09.38.27.03.06.04.12.04.18,0,.2-.09.33-.28.41-.36.15-.76.28-1.18.41-.42.12-.84.23-1.27.32-.07,0-.11.04-.14.1-.11.24-.22.47-.34.69-.11.22-.23.43-.36.62-.02.04-.03.06-.03.07,0,.05.04.06.13.06.27-.06.51-.08.73-.08.42,0,.77.09,1.05.27.28.18.49.42.64.71.05.07.1.09.17.06.35-.19.72-.39,1.11-.62.38-.22.79-.49,1.23-.8.08-.06.16-.08.25-.08.16,0,.28.07.36.2.06.08.08.17.08.25,0,.17-.07.3-.21.39-.32.21-.61.4-.88.56s-.53.31-.8.46c-.27.15-.58.31-.94.48-.07.03-.09.08-.08.15.07.42.11,1.03.14,1.82,0,.12-.04.23-.13.32s-.19.13-.32.13c-.12,0-.23-.04-.32-.13s-.14-.19-.15-.32c-.02-.5-.05-.96-.08-1.36,0-.11-.05-.14-.15-.08-1.56.81-2.34,1.54-2.34,2.2,0,.09.01.19.04.29.09.23.27.4.53.51.26.11.68.16,1.25.16.42,0,.94-.03,1.55-.08.62-.06,1.36-.13,2.24-.22.15-.02.28.02.38.12.11.1.16.22.16.37,0,.12-.04.23-.13.33-.08.1-.19.15-.32.16-.38.04-.92.08-1.61.12-.69.04-1.48.06-2.37.06Z"/><path d="m326.29,149.42c-.12,0-.22-.04-.31-.13s-.13-.18-.13-.29v-1.33c0-.06-.03-.08-.08-.08h-1.57c-.12,0-.22-.04-.3-.13s-.12-.19-.12-.31c0-.13.04-.24.12-.31s.18-.12.3-.12h1.57c.06,0,.08-.03.08-.08v-.98c0-.06-.03-.08-.08-.08h-.99c-.21,0-.38-.07-.53-.22-.15-.15-.22-.33-.22-.53v-3.46c0-.21.07-.39.22-.54.15-.14.33-.22.53-.22h.99c.06,0,.08-.03.08-.08v-.87c0-.06-.03-.08-.08-.08h-1.54c-.12,0-.22-.04-.31-.13s-.13-.19-.13-.31c0-.13.04-.24.13-.31s.19-.12.31-.12h1.54c.06,0,.08-.03.08-.08v-.64c0-.13.04-.24.13-.31.08-.08.19-.12.31-.12.11,0,.21.04.29.13s.13.19.13.31v.64c0,.06.03.08.08.08h1.64c.12,0,.22.04.31.12s.13.18.13.31c0,.12-.04.22-.13.31s-.19.13-.31.13h-1.64c-.06,0-.08.03-.08.08v.87c0,.06.03.08.08.08h1.01c.21,0,.39.07.54.22.14.15.22.32.22.54v3.46c0,.21-.08.38-.22.53-.15.15-.33.22-.53.22h-1.01c-.06,0-.08.03-.08.08v.98c0,.06.03.08.08.08h1.65c.13,0,.24.04.32.13.08.08.12.19.12.31s-.04.22-.13.31c-.08.08-.19.13-.31.13h-1.65c-.06,0-.08.03-.08.08v1.33c0,.12-.04.22-.13.3s-.18.12-.29.12Zm-1.39-6.87h.91c.06,0,.08-.03.08-.08v-.95c0-.06-.03-.08-.08-.08h-.91c-.06,0-.08.03-.08.08v.95c0,.06.03.08.08.08Zm0,2.2h.91c.06,0,.08-.03.08-.08v-1.18c0-.06-.03-.08-.08-.08h-.91c-.06,0-.08.03-.08.08v1.18c0,.06.03.08.08.08Zm1.86-2.2h.88c.06,0,.08-.03.08-.08v-.95c0-.06-.03-.08-.08-.08h-.88c-.06,0-.08.03-.08.08v.95c0,.06.03.08.08.08Zm0,2.2h.88c.06,0,.08-.03.08-.08v-1.18c0-.06-.03-.08-.08-.08h-.88c-.06,0-.08.03-.08.08v1.18c0,.06.03.08.08.08Zm2.42,4.51c-.12,0-.22-.04-.31-.13s-.13-.19-.13-.31.04-.22.13-.3c.08-.08.19-.12.31-.12h2.37c.06,0,.08-.03.08-.08v-2.41c0-.06-.03-.08-.08-.08h-1.85c-.12,0-.22-.04-.3-.13s-.12-.19-.12-.31.04-.22.12-.31.18-.13.3-.13h1.85c.06,0,.08-.03.08-.08v-1.39c0-.13.04-.24.13-.32s.19-.13.31-.13c.13,0,.24.04.32.13s.13.19.13.32v1.39c0,.06.03.08.08.08h1.96c.12,0,.22.04.31.12.08.08.13.18.13.31,0,.12-.04.22-.13.31s-.19.13-.31.13h-1.96c-.06,0-.08.03-.08.08v2.41c0,.06.03.08.08.08h2.42c.12,0,.22.04.31.12.08.08.13.18.13.3s-.04.22-.12.31c-.08.08-.18.13-.32.13h-5.84Zm5.87-5.45c-.4-.14-.86-.34-1.38-.61-.52-.27-1.03-.59-1.53-.96-.04-.03-.08-.03-.11,0-.46.35-.9.66-1.34.92-.43.26-.82.46-1.17.62-.06.03-.11.04-.15.04-.1,0-.2-.04-.29-.13s-.13-.19-.13-.31c0-.19.09-.33.28-.42.33-.15.67-.34,1.03-.56.36-.22.71-.47,1.06-.73.05-.05.05-.08,0-.11-.23-.21-.45-.44-.66-.67-.21-.23-.39-.48-.56-.73-.05-.07-.07-.14-.07-.21,0-.15.07-.26.21-.34.08-.05.15-.07.24-.07.15,0,.28.07.39.21.35.47.72.88,1.13,1.25.04.04.08.04.11,0,.34-.3.65-.6.94-.91.29-.31.52-.6.7-.88.02-.03.02-.05,0-.07-.01-.02-.04-.03-.06-.03h-4.12c-.12,0-.22-.04-.31-.12s-.13-.18-.13-.3.04-.22.13-.31.19-.13.31-.13h4.96c.14,0,.25.04.34.13.09.09.13.19.13.32,0,.06-.01.12-.04.2-.26.49-.58.97-.95,1.41-.37.45-.77.86-1.19,1.25-.04.04-.04.08,0,.13.37.26.76.49,1.16.7.4.21.81.38,1.24.52.11.04.2.1.27.2s.1.19.1.29c0,.12-.04.22-.13.3s-.18.12-.28.12c-.06,0-.1,0-.13-.01Z"/><path d="m340.35,142.54c-.19-.14-.41-.28-.67-.43-.26-.15-.52-.27-.77-.36-.1-.04-.19-.1-.25-.19-.07-.09-.1-.18-.1-.27,0-.12.04-.22.13-.29.08-.07.17-.11.27-.11.06,0,.1,0,.13.01.27.09.55.21.83.35.28.14.54.29.78.45.17.1.25.26.25.48,0,.04,0,.08-.01.11,0,.04-.02.08-.04.13-.06.13-.16.2-.32.2-.07,0-.13-.02-.21-.07Zm.01-3.08c-.2-.13-.41-.25-.65-.37-.24-.12-.46-.22-.68-.31-.2-.07-.29-.21-.29-.42,0-.12.04-.22.13-.3.08-.08.18-.12.29-.12.04,0,.08,0,.14.03.21.07.44.15.67.26.23.11.46.22.67.34.2.12.29.29.29.52,0,.07-.01.15-.04.22-.06.14-.16.21-.32.21-.08,0-.15-.02-.21-.06Zm-1.18,9.97c-.12,0-.22-.03-.31-.1-.08-.07-.13-.16-.13-.26,0-.05.01-.1.04-.15.29-.68.55-1.42.79-2.21.24-.79.43-1.57.57-2.34.02-.12.08-.21.18-.27.1-.06.2-.08.31-.06.13.04.23.1.29.2s.09.21.07.34c-.08.42-.18.9-.33,1.44-.14.54-.3,1.08-.47,1.63-.17.55-.34,1.03-.52,1.46-.1.21-.27.32-.5.32Zm10.23-.07c-.71,0-1.26-.67-1.67-2.02-.02-.07-.06-.08-.11-.03-.18.18-.36.35-.55.51s-.39.31-.59.46c-.23.16-.48.31-.74.45s-.52.27-.79.38c-.06.02-.1.03-.14.03-.09,0-.18-.04-.27-.12-.08-.08-.13-.18-.13-.3,0-.2.09-.34.28-.42,1.06-.46,1.97-1.13,2.72-2.02.03-.03.04-.06.03-.1-.04-.23-.08-.48-.11-.73s-.08-.52-.13-.8c-.17-1.27-.29-2.79-.38-4.56,0-.06-.03-.08-.08-.08h-4.09c-.06,0-.08.03-.08.08v.64c0,.89,0,1.69-.01,2.42,0,.73-.04,1.41-.08,2.04-.05.63-.13,1.23-.25,1.81-.12.57-.28,1.16-.5,1.74-.08.21-.24.32-.48.32-.12,0-.22-.04-.3-.13s-.12-.18-.12-.28c0-.03,0-.05,0-.08,0-.02.01-.05.02-.08.21-.51.38-1.03.49-1.56.11-.53.19-1.09.25-1.69.05-.6.08-1.27.09-2.01,0-.74.01-1.57.01-2.51v-.88c0-.19.07-.35.2-.48s.29-.2.49-.2h4.33c.06,0,.08-.03.08-.08l-.04-1.16c0-.11.03-.21.11-.29s.17-.13.29-.13c.12,0,.22.04.3.12s.12.18.13.3l.04,1.16c0,.06.03.08.08.08h2.27c.13,0,.24.04.31.13s.12.18.12.29c0,.12-.04.22-.13.3-.08.08-.19.12-.31.12h-2.24c-.06,0-.08.03-.08.08.08,1.73.21,3.21.38,4.45l.08.6s.03.06.05.06.04-.01.06-.05c.47-.78.82-1.67,1.05-2.66.03-.11.09-.2.2-.26.1-.06.21-.08.31-.05.13.04.23.11.29.21.06.1.08.21.05.34-.17.68-.4,1.33-.69,1.96-.29.62-.63,1.2-1.04,1.72-.03.05-.04.09-.03.13.13.55.27,1,.42,1.34.15.35.31.55.48.62.06.02.1.03.14.03.18,0,.36-.12.56-.35.08-.1.18-.15.29-.15.1,0,.18.04.24.11.09.12.14.24.14.36,0,.14-.05.25-.15.34-.36.35-.71.52-1.08.52Zm-5.85-7.13c-.11,0-.21-.04-.28-.11-.08-.07-.11-.17-.11-.28s.04-.21.11-.28c.07-.07.17-.11.28-.11h2.48c.11,0,.21.04.28.11.07.07.11.17.11.28s-.04.21-.11.28c-.08.07-.17.11-.28.11h-2.48Zm.52,4.7c-.19,0-.35-.07-.48-.2-.13-.14-.2-.3-.2-.48v-2.44c0-.2.07-.36.2-.49.14-.13.3-.2.48-.2h1.46c.2,0,.36.07.49.2.13.14.2.3.2.48v2.44c0,.19-.07.35-.2.48-.13.13-.29.2-.49.2h-1.46Zm.21-.67h1.05c.06,0,.08-.03.08-.08v-2.31c0-.06-.03-.08-.08-.08h-1.05c-.06,0-.08.03-.08.08v2.31c0,.06.03.08.08.08Zm4.94-7.42c-.15-.12-.3-.24-.45-.34s-.3-.2-.46-.27c-.14-.08-.21-.2-.21-.35,0-.12.04-.21.13-.28s.17-.1.27-.1c.08,0,.15.02.2.06.15.09.31.19.48.3.17.11.33.22.48.33.11.08.17.2.17.34,0,.08-.03.17-.08.25-.08.1-.17.15-.28.15-.08,0-.15-.03-.22-.08Z"/></g><rect class="cls-5" x="219" y="105.5" width="186" height="53.5" rx="4.68" ry="4.68"/></g></g></svg>