<?xml version="1.0" encoding="UTF-8"?><svg id="_レイヤー_2" xmlns="http://www.w3.org/2000/svg" width="127" height="130" xmlns:xlink="http://www.w3.org/1999/xlink" viewBox="0 0 127 130"><defs><clipPath id="clippath"><circle cx="63.5" cy="63.5" r="62.5" fill="none"/></clipPath></defs><g id="_レイヤー_1-2"><g><g clip-path="url(#clippath)"><rect x="23" y="110" width="86" height="20" fill="#fff"/><g><g><path d="m30.0698,81.8349l.0877.4093c-.1462.2924-.0585.8011-.0585,1.1286v.2281l-12.1457-.0702.0058-.6082v-.4561l.0585-.2222v-.2807l-.0409-.1696-.0877-2.0525,1.4327.0351,9.6429.2222,1.0292.0234.076,1.8128Z" fill="#fff"/><path d="m27.4792,61.5199l-.0117.3041c-.7953-.0409-1.5789-.0585-2.1695-.1403h-.0175l.0175-.2339c-.1053-.8187-.5088-1.3391-1.0292-1.6023l.0468-.0936c-.1696-1.076-1.0175-5.2512-1.6315-7.5962-.4386-1.6608,1.1988-2.9005,2.3859-.2281.5321,1.1988,2.4093,9.5903,2.4093,9.5903Z" fill="#fff"/><path d="m26.8301,64.6894c1.3157,1.3625.9649,5.6723-.959,3.6899l-.4093.0234c-.4035-1.1637-1.152-3.0584-2.0701-4.4618l1.2163-.2631c.1345.1871.2924.3333.4503.3918.2456.0877,1.035.3158,1.7952.5321l-.0234.0877Z" fill="#fff"/><path d="m25.298,61.4497l-.0175.2339c-1.3742-.1871-1.1871,1.2514-.6725,1.9941l-1.2163.2631c-.731-1.1169-1.573-1.9297-2.4385-1.8303-.193-1.9122,1.9648-2.9531,3.3157-2.2631.5204.2631.9239.7836,1.0292,1.6023Z" fill="#fff"/><path d="m20.9532,62.1105c.8655-.0994,1.7075.7134,2.4385,1.8303.9181,1.4035,1.6666,3.2981,2.0701,4.4618.1053.2865.1813.5321.2398.7134.3684,1.1578-.9415,1.7719-1.4678,1.2222.0234-.117.0292-.2398.0117-.3801-.1403-1.0818-3.38-5.07-5.3857-5.8243l.1754-.4269c.1988-.5497.9005-1.1403,1.3918-1.421.1754-.0994.3509-.1579.5263-.1754Z" fill="#fff"/><path d="m19.579,76.8409c-.7076-.8011-1.2163-1.959-1.6783-2.9122-1.5263-3.1812-3.5905-6.7717-.1696-9.7306.2748-.2398.6725-.2398,1.1286-.0643,2.0058.7544,5.2454,4.7425,5.3857,5.8243.0175.1403.0117.2631-.0117.3801.5263.5497,1.8362-.0643,1.4678-1.2222-.0585-.1813-.1345-.4269-.2398-.7134l.4093-.0234c1.9239,1.9824,2.2748-2.3274.959-3.6899l.0234-.0877c-.7602-.2164-1.5496-.4444-1.7952-.5321-.1579-.0585-.3158-.2047-.4503-.3918-.5146-.7427-.7017-2.1812.6725-1.9941h.0175c.5906.0819,1.3742.0994,2.1695.1403,1.3918.076,2.8128.2515,3.2396,1.0467,1.5029,2.8128,1.0935,10.7832-.269,12.3504-1.0175,1.1695-1.3274,2.9999-1.4736,4.7016v.076l-9.6429-.2222v-.1111l.1462-2.7309.1111-.0936Z" fill="#fff"/><path d="m54.2618,48.731l-.5848-.0994c-4.5729,0-6.5962-7.6371-2.8478-8.3856.538-.1053,1.1929-.076,1.9765.152l.0526-.1871h.1988l4.5144,1.1462.1871.076c-.1345.2924-.2164.6316-.2339,1.0175-.0819,1.7602.7193,4.0934,3.8887,3.9647,2.6315-.1053,3.6782-1.7602,3.6373-3.9297-.0058-.1637-.0175-.3216-.0468-.4678l.0468-.0117,4.3507-.0468.1111.0058c-.0117.1053-.0234.2222-.0234.3392-.0409,2.1695,1,3.8244,3.6373,3.9297,3.1695.1228,3.9647-2.2046,3.8829-3.9647-.0117-.2865-.0643-.5497-.1462-.7836l.2398-.0877,3.6548-1.3508.2982-.1111.0819.1053c.8772-.6023,1.8069-.4912,2.573,0,.8479.538,1.4912,1.5438,1.6198,2.5555.4327,3.2806-1.6608,5.1167-4.4501,6.45l-.4854-.0585c-.421,2.0292-1.3976,5.146-3.6314,7.6605-1.959,2.2163-4.8887,3.9764-9.2686,4.1226-3.2162.1111-5.6898-.9064-7.5903-2.4268-3.5145-2.8011-5.0524-7.3155-5.643-9.6136Z" fill="#fff"/><path d="m77.0094,42.2692c.0819,1.7602-.7134,4.0876-3.8829,3.9647-2.6373-.1053-3.6782-1.7602-3.6373-3.9297,0-.117.0117-.2339.0234-.3392.2281-1.9707,2.1052-2.4619,3.8595-2.4268,1.3742.0234,3.0057.4971,3.4911,1.9473.0819.2339.1345.4971.1462.7836Zm-2.7075-.117c.0585-.6257-.4503-1.1812-1.1345-1.2456s-1.2865.3918-1.3391,1.0175c-.0585.6257.4503,1.1812,1.1286,1.2456.6842.0643,1.2865-.3918,1.345-1.0175Z" fill="#fff"/><path d="m65.0508,42.4856c.0409,2.1695-1.0058,3.8244-3.6373,3.9297-3.1695.1286-3.9706-2.2046-3.8887-3.9647.0175-.3859.0994-.7251.2339-1.0175.5789-1.2631,2.111-1.69,3.4092-1.7134,1.7134-.0351,3.5496.4386,3.8361,2.2982.0292.1462.0409.3041.0468.4678Zm-3.1929.6842c.6842-.0643,1.1871-.6199,1.1345-1.2456-.0585-.6257-.6608-1.0818-1.345-1.0175s-1.1929.6199-1.1345,1.2456.6608,1.0818,1.345,1.0175Z" fill="#fff"/><path d="m46.1442,115.4699c11.2384-.849,22.4772-1.4727,33.7286-2.0982,10.0298-.5576,21.5225-3.7148,31.9319-2.3814-1.9614-12.9786-5.4773-25.7709-8.2234-32.781-2.029-5.1986-15.8472-10.0639-19.5254-11.2217l-.0468.1228c-.4386-.1754-.918-.3099-1.3742-.538l-.6024.2047c1.5731,2.8186,1.9592,9.0698,1.6609,12.5316-.1345,1.538-1.0235,6.146-1.0235,6.146l-.0467.2164c4.608.9882,3.3506,13.2275,3.1637,16.1982-.1405,2.1929-1.3918,2.8186-2.0643,3.2455l.2924.8245c.1227.3333-.0411.7017-.3568.8245l-1.5906.614c-.3157.1228-.6666-.0527-.7895-.3859l-.4327-1.2281c-.0408-.1052-.0467-.2222-.035-.3275l-1.1578-.269-.6666,1.1169c-.1812.3099-.5613.4094-.8478.2281l-1.4445-.9064c-.2865-.1813-.3685-.5731-.1871-.883l.1871-.3158c-.1227-.1461-1.6315-1.9648-1.4443-4.146.2397-2.8069,1.2865-6.76,2.6958-9.8534l-.3451-.158c1.6725-3.7015,2.9123-6.567,2.9123-6.7132,0-.7894-2.1052-5.3038-2.1052-5.3038,0,0,2.9004-.3684,2.9004-1.269,0-1.1987.3977-7.2219-1.1344-11.4732-.6609-1.8361-1.6783-3.339-3.2397-3.9881h-.1403v3.8946l.2047-.0936v.1989c.1638,8.374-1.4677,16.8531-3.8888,24.4786-1.0524,3.3156-2.2513,6.4617-3.5203,9.3738l-1.2572-.9824s-2.1987-5.0057-4.3975-11.5726c-.9766-2.9005-1.9473-6.105-2.7309-9.3154l-1.4385.0819s-4.7893.2164-4.7893-.6842c0-1.2163.2457-7.7715,1.8538-11.6077l-.1462-.0643c-.9825,0-1.6784.2047-2.4678.5965l.0468.1111c-5.5787,2.3098-14.0579,2.5379-18.5431,9.3504-4.5729,6.9529-4.4736,8.4149-4.4736,8.4149l-.2222.0292-.0175-.1052-.9064-.0058-12.1457-.0702-1.1696-.0058s-1.7235,18.5845-.7385,32.867c10.038-.2997,20.0597-.1635,30.099-.9219Zm9.2169-24.0331c2.3333.2104,4.0466,2.2747,3.8361,4.6021-.2104,2.3333-2.2747,4.0466-4.6021,3.8361-2.3333-.2105-4.0466-2.2748-3.8361-4.6021.2105-2.3333,2.2748-4.0466,4.6021-3.8361Z" fill="#fff"/><path d="m82.6232,85.671c4.608.9883,3.3507,13.2275,3.1636,16.1982-.1403,2.1929-1.3918,2.8186-2.0642,3.2455l-.1403-.4035c-.117-.3333-.4737-.5088-.7894-.3859l-1.5906.614c-.2164.076-.3567.2748-.3918.4971l-1.1578-.269c.1813-.3041.0936-.7017-.193-.883l-1.4444-.9064c-.2865-.1813-.6666-.0819-.8479.2281l-.4737.8011c-.1228-.1462-1.6315-1.9648-1.4444-4.146.2398-2.8069,1.2865-6.76,2.6958-9.8534,1.3216-2.8888,2.9531-5.0232,4.5437-4.7659.0468.0058.0877.0175.1345.0292Z" fill="#fff"/><path d="m73.8224,27.1704c-1.9765.0409-3.725.2164-5.6781-.7602l-.1111-.1871c-4.2747-2.1344-8.3564-.1637-10.3855,2.9297-2.5379,3.8653-2.6432,9.4967-4.7893,11.058l-.0526.1871c-.7836-.2281-1.4385-.2573-1.9765-.152l-.117-.5263s-2.7894-7.7658-1.497-11.8709c2.0467-6.526,8.2979-9.1985,12.8182-11.9118,5.07-3.0408,14.7187.076,15.4789,5.2337,1.9064-.6666,5.2571.6316,6.9588,5.3273,1.7192,4.7717-.7485,13.5258-.7485,13.5258l-.0117.0175c-.7661-.4912-1.6958-.6023-2.573,0l-.0819-.1053-.2982.1111-.1871-.5146c-2.8771-.6842-1.9707-12.3504-5.567-12.3504l-1.1812-.0117Z" fill="#decec6"/><path d="m83.7225,105.1146l.2924.8245c.1228.3333-.0409.7017-.3567.8245l-1.5906.614c-.3158.1228-.6666-.0526-.7894-.3859l-.4327-1.228c-.0409-.1053-.0468-.2222-.0351-.3275.0351-.2222.1754-.421.3918-.4971l1.5906-.614c.3158-.1228.6725.0526.7894.3859l.1403.4035Z" fill="#a48a81"/><path d="m82.0326,66.777c1.573,2.8186,1.959,9.0698,1.6608,12.5317-.1345,1.5379-1.0233,6.1459-1.0233,6.1459l-.0468.2164c-.0468-.0117-.0877-.0234-.1345-.0292-1.5906-.2573-3.2221,1.8771-4.5437,4.7659l-.345-.1579c1.6724-3.7016,2.9122-6.567,2.9122-6.7132,0-.7894-2.1052-5.3039-2.1052-5.3039,0,0,2.9005-.3684,2.9005-1.269,0-1.1988.3976-7.2219-1.1345-11.4732l.3392-.1228c.5965.152,1.0994.6549,1.5204,1.4093Z" fill="#fff"/><path d="m75.0036,27.1821c3.5963,0,2.6899,11.6662,5.567,12.3504l.1871.5146-3.6548,1.3508-.2398.0877c-.4854-1.4502-2.1169-1.9239-3.4911-1.9473-1.7543-.0351-3.6314.4561-3.8595,2.4268l-.1111-.0058-4.3507.0468-.0468.0117c-.2865-1.8596-2.1227-2.3332-3.8361-2.2982-1.2982.0234-2.8303.4503-3.4092,1.7134l-.1871-.076-4.5144-1.1462h-.1988c2.1461-1.5613,2.2514-7.1927,4.7893-11.058,2.0292-3.0934,6.1109-5.0641,10.3855-2.9297l.1111.1871c1.9531.9766,3.7016.8011,5.6781.7602l1.1812.0117Z" fill="#fff"/><path d="m76.6936,104.407l.4737-.8011c.1813-.3099.5614-.4093.8479-.2281l1.4444.9064c.2865.1813.3743.5789.193.883l-.6666,1.1169c-.1813.3099-.5614.4093-.8479.2281l-1.4444-.9064c-.2865-.1813-.3684-.5731-.1871-.883l.1871-.3158Z" fill="#a48a81"/><path d="m72.1616,72.9113l-3.8829-3.4326.0526-.2281,8.4616-3.8536.2047-.0936v.1988c.1637,8.3739-1.4678,16.8531-3.8887,24.4785l-.193-.0585-2.9589-12.8708,1.7952-3.6782.4093-.462Z" fill="#fff"/><path d="m76.793,61.5024v3.8946l-8.4616,3.8536-8.4558-3.5203v-.2748s.0058-1.3567.0058-2.9589c.0058-1.4502.0117-3.0934.0117-4.1343l.0117-.0175c1.9005,1.5204,4.3741,2.5379,7.5903,2.4268,4.3799-.1462,7.3096-1.9064,9.2686-4.1226l.0292.0234v4.8302Z" fill="#fff"/><path d="m73.1674,40.9067c.6842.0643,1.1929.6199,1.1345,1.2456s-.6608,1.0818-1.345,1.0175c-.6783-.0643-1.1871-.6199-1.1286-1.2456.0526-.6257.6549-1.0818,1.3391-1.0175Z" fill="#a48a81"/><path d="m72.916,89.9223l.193.0585c-1.0526,3.3157-2.2514,6.4617-3.5203,9.3739l-1.2573-.9824s-2.1987-5.0056-4.3975-11.5726l.0292-.0117c.5263-1.1111,2.7192-9.7364,2.7192-9.7364l-.5906-1.2046-1.2046-2.4736-.4093-.4503,3.801-3.4443,3.8829,3.4326-.4093.462-1.7952,3.6782,2.9589,12.8708Z" fill="#decec6"/><path d="m64.4777,72.923l.4093.4503,1.2046,2.4736.5906,1.2046s-2.1929,8.6254-2.7192,9.7364l-.0292.0117c-.9766-2.9005-1.9473-6.105-2.7309-9.3154-1.0058-4.0992-1.7075-8.2102-1.7075-11.7188l.3801-.0351,8.4558,3.5203-.0526.2281-3.801,3.4443Z" fill="#fff"/><path d="m62.9924,41.9242c.0526.6257-.4503,1.1812-1.1345,1.2456s-1.2865-.3918-1.345-1.0175.4503-1.1812,1.1345-1.2456,1.2865.3918,1.345,1.0175Z" fill="#a48a81"/><path d="m61.203,77.4842l-1.4385.0819s-4.7893.2164-4.7893-.6842c0-1.2163.2456-7.7716,1.8537-11.6077.6549-1.5555,1.5379-2.6666,2.7133-2.7777h.3392c0,1.6023-.0058,2.9589-.0058,2.9589v.2748l-.3801.0351c0,3.5086.7017,7.6196,1.7075,11.7188Z" fill="#fff"/><path d="m55.3611,91.4368c2.3332.2105,4.0466,2.2748,3.8361,4.6022-.2105,2.3332-2.2748,4.0466-4.6022,3.8361-2.3332-.2105-4.0466-2.2748-3.8361-4.6022.2105-2.3332,2.2748-4.0466,4.6022-3.8361Zm1.2397,4.3682c.076-.8947-.5789-1.69-1.4736-1.766-.8947-.0819-1.69.5731-1.7719,1.4678s.5789,1.69,1.4736,1.7719,1.69-.5789,1.7719-1.4736Z" fill="#d9d9d9"/><path d="m55.1272,94.039c.8947.076,1.5496.8713,1.4736,1.766-.0819.8947-.8772,1.5555-1.7719,1.4736s-1.5555-.8772-1.4736-1.7719.8772-1.5496,1.7719-1.4678Z" fill="#a48a81"/></g><g><path d="m98.12,111.1788c-.4349-7.2697-.7153-12.1414-.7315-13.1457-.0062-.404-.3609-.7121-.743-.7193-.4032.0066-.7251.3392-.7189.7427.0168,1.0314.3003,5.9569.7391,13.2918.4847-.0591.9695-.1156,1.4543-.1695Z" fill="#a48a81"/><path d="m38.8055,115.8753c.6656-7.7169,1.1682-12.5648,1.4982-14.4286.0708-.3975-.1947-.7767-.5922-.8472-.3958-.0713-.7766.1947-.8469.5925-.3451,1.9474-.8517,6.8204-1.5328,14.7465.4913-.017.9825-.0437,1.4738-.0632Z" fill="#a48a81"/><path d="m83.8364,67.6847c5.8564,1.8435,17.3782,6.4713,19.0639,10.7912,2.6856,6.8551,6.1917,19.4911,8.1587,32.4249.5036.0541,1.0042.1198,1.5025.1947-1.976-13.2042-5.5599-26.1574-8.2996-33.1522-2.3186-5.9411-18.1851-11.0861-19.9869-11.6531-.3867-.1208-.7954.0928-.9164.4777-.1212.3852.0924.7955.4778.9168Z" fill="#a48a81"/><path d="m31.2448,84.4138c-.3815,0-.7024-.2955-.7287-.6813-.0274-.4006.2233-2.2237,4.5919-8.8664,3.4144-5.1867,8.9817-6.71,13.8935-8.054,1.8017-.4928,3.5029-.9582,4.9803-1.5701.1165-.0465.2233-.0891.3306-.1371.3661-.1673.8006-.0026.9668.3655.1656.3681.0023.8009-.3661.9668-.1268.0577-.2541.1088-.3815.1593-1.5533.643-3.2973,1.1204-5.1442,1.6255-4.6628,1.2758-9.9474,2.722-13.0586,7.4478-4.0717,6.1912-4.3372,7.8767-4.3527,8.018-.0023.3792-.297.6981-.6813.7241-.0171.0011-.0337.0017-.0503.0017Z" fill="#a48a81"/><path d="m76.793,66.4612c-.4037,0-.731-.3272-.731-.731v-9.058c0-.4037.3272-.731.731-.731s.731.3272.731.731v9.058c0,.4037-.3272.731-.731.731Z" fill="#a48a81"/><path d="m59.8757,66.1865h-.0029c-.4037-.0017-.7298-.3304-.7281-.7341,0-.0006.0057-1.3557.0057-2.9558.0057-1.4522.0114-3.0943.0114-4.1345,0-.4037.3272-.731.731-.731s.731.3272.731.731c0,1.0419-.0057,2.6863-.0114,4.1374,0,1.601-.0057,2.9593-.0057,2.9593-.0017.4026-.3289.7278-.731.7278Z" fill="#a48a81"/><path d="m16.7845,116.3724c-.7422-10.8617.0107-24.7174.6667-32.1135l12.9221.0746,4.4952,31.6744c.4901-.0134.9801-.026,1.4703-.0414l-4.595-32.3757-.0177-.1054c-.0589-.3504-.3609-.6076-.7161-.6099l-14.223-.0817h-.0034c-.3774,0-.6927.2872-.7281.6633-.0097.1097-1.0176,11.0933-1.0468,22.5296-.0098,3.8859.0922,7.3613.3048,10.4241.4904-.0158.9805-.025,1.4709-.0386Z" fill="#a48a81"/><path d="m54.8361,91.5889c-.032,0-.064-.002-.0959-.0063-.4003-.0523-.6824-.4194-.6299-.8198.0777-.5928-.2558-2.845-.6093-5.2292-1.3477-9.1002-2.3402-17.472.2912-19.9282.2941-.2755.7572-.2601,1.0331.0354.2753.2952.2593.7578-.036,1.0331-2.2877,2.1361-.6967,12.8758.1582,18.6453.4706,3.1794.7121,4.8738.6122,5.6338-.048.3681-.3621.6359-.7235.6359Z" fill="#a48a81"/><path d="m54.9857,100.6238c-.1519,0-.3038-.0069-.4563-.0206-1.3226-.1194-2.5184-.7472-3.3681-1.7677-.848-1.0191-1.2495-2.3077-1.1301-3.6286.1194-1.3223.747-2.5181,1.7674-3.3676,1.0194-.8489,2.3111-1.2495,3.628-1.1307,1.3226.1194,2.5184.7472,3.3681,1.7677.8486,1.0191,1.2501,2.3077,1.1307,3.6283-.1194,1.3223-.7475,2.5184-1.768,3.3679-.9011.7504-2.0136,1.1513-3.1717,1.1513Zm-.0126-8.4735c-.8183,0-1.603.2827-2.2391.8123-.7201.5993-1.1627,1.4431-1.2466,2.3759v.0003c-.0845.9323.1987,1.842.7978,2.5615.599.7198,1.4431,1.1627,2.3756,1.2466.9354.0828,1.8423-.199,2.5612-.7981.7201-.5993,1.1633-1.4431,1.2472-2.3756.0845-.9326-.1993-1.8423-.7983-2.5615-.599-.7201-1.4431-1.163-2.3756-1.2469-.1079-.0097-.2153-.0146-.3221-.0146Zm-4.2139,3.1226h.0057-.0057Z" fill="#a48a81"/><path d="m82.6704,86.1855c-.0457,0-.0925-.0043-.1393-.0131-.3963-.0765-.6556-.46-.5791-.8563.0091-.0457.8834-4.5882,1.0131-6.071.2907-3.3764-.0931-9.4648-1.571-12.1117-.233-.4183-.607-.9411-1.0628-1.0576-.3912-.0997-.627-.4977-.5271-.8889.0999-.3915.4945-.6296.8891-.5274.7698.1964,1.4351.7889,1.9776,1.7615,1.6938,3.0341,2.0456,9.5214,1.7503,12.9506-.1359,1.5584-.9971,6.0319-1.0336,6.2215-.0674.3495-.3735.5925-.7173.5925Z" fill="#a48a81"/><path d="m83.7229,105.8456c-.2416,0-.4786-.1199-.6179-.3392-.2164-.3409-.1154-.7926.2256-1.0091l.1473-.0917c.6562-.406,1.4722-.9114,1.5796-2.5832.0137-.217.0331-.4843.0554-.7929.6687-9.1973-.2204-14.1242-2.6429-14.6438l.0674-.7355-.1502.7153c-1.0331-.167-2.4744,1.4993-3.7776,4.3464-1.3334,2.9267-2.3911,6.7897-2.632,9.6113-.1582,1.8474,1.1284,3.4384,1.2758,3.614.2598.3089.2199.7701-.0897,1.0296-.3101.2595-.7709.219-1.0296-.0897-.3055-.3632-1.8171-2.2968-1.6127-4.6785.253-2.9718,1.362-7.0287,2.7582-10.0939,1.6864-3.6839,3.5309-5.4751,5.3263-5.1844.0423.0046.1062.0188.1742.0365,4.335.93,4.303,9.1348,3.7907,16.1789-.0217.303-.0411.5656-.0548.7795-.1553,2.4253-1.5299,3.2762-2.2688,3.7333l-.1331.0834c-.1216.0768-.257.1136-.3912.1136Z" fill="#a48a81"/><path d="m68.3321,99.1033c-.2815,0-.5494-.1633-.6699-.4372-.0223-.0505-2.238-5.1113-4.4218-11.6343-1.1096-3.2959-2.0341-6.4502-2.7474-9.3743-1.1473-4.6747-1.7286-8.6759-1.7286-11.8922,0-.4037.3272-.731.731-.731s.731.3272.731.731c0,3.0989.5676,6.983,1.6864,11.5447.7041,2.8847,1.6173,5.9988,2.7137,9.2564,2.1621,6.4579,4.3527,11.4619,4.3744,11.5115.1622.3698-.0057.8009-.3752.9634-.0959.042-.1953.062-.2935.062Z" fill="#a48a81"/><path d="m61.9295,114.4051c2.7884-3.6209,5.8115-8.9684,8.3288-14.7584,1.3426-3.0806,2.5361-6.2583,3.5474-9.4446,2.7537-8.6751,4.0736-16.9903,3.9227-24.7143-.0079-.4035-.3472-.7118-.7452-.7167-.4038.008-.7247.3418-.7167.7453.1479,7.5641-1.1484,15.7206-3.8541,24.2431-.9964,3.1386-2.1717,6.2686-3.4944,9.3035-2.5292,5.818-5.5684,11.1778-8.3369,14.705-.1688.2153-.187.4924-.0894.7283.4793-.0298.9585-.0619,1.4378-.0912Z" fill="#a48a81"/><path d="m65.5481,100.8753c-.265,0-.5202-.1445-.6504-.396-8.7293-16.9232-8.7293-17.2979-8.7293-17.5217,0-.6853,1.1159-2.7131,2.2717-4.6296-1.5173-.0009-3.2705-.1368-3.8701-.7098-.2096-.2007-.3255-.4623-.3255-.7364,0-.0734.0822-7.5284,1.9108-11.8902.8463-2.0107,1.9628-3.0946,3.3185-3.2228.3918-.0371.7584.2567.7961.659.0383.402-.257.7587-.659.7966-.9685.0914-1.6812,1.3194-2.1078,2.3334-1.414,3.373-1.7617,9.1922-1.7937,11.0544.5859.1964,2.3385.2987,4.022.2239.2861-.0171.5265.1268.6641.3609.1371.2341.1331.5251-.0103.7555-1.1958,1.9208-2.5264,4.269-2.7331,4.9457.5722,1.3617,5.3526,10.7212,8.5454,16.9107.185.3589.044.7998-.3147.9848-.1074.0554-.2216.0817-.3346.0817Z" fill="#a48a81"/><path d="m69.0802,108.1499c-.2684,0-.5265-.1482-.6544-.4043-.1668-.3338-.0543-.7344.249-.9357.7241-.7549,4.1813-7.8113,8.2588-16.8604,1.6875-3.7345,2.6423-5.9654,2.8371-6.4867-.1199-.611-1.1181-2.9744-2.0261-4.9212-.0988-.2116-.0902-.4574.0223-.6616.1125-.2044.3164-.3429.5477-.3723.9582-.1228,1.989-.4243,2.2626-.6544.0023-.1451.0074-.3349.0137-.5636.052-1.9025.1907-6.9559-1.105-10.5513-.6693-1.86-1.6224-3.0578-2.8325-3.5609-.3729-.155-.5494-.5828-.3946-.9557.1548-.3723.5831-.5497.9554-.3943,1.6058.6676,2.8331,2.1532,3.6468,4.4155,1.3894,3.855,1.2455,9.1088,1.1912,11.0867-.0074.275-.0137.4903-.0137.6342,0,1.0476-1.3477,1.5716-2.5681,1.8314.7298,1.6073,1.7732,4.03,1.7732,4.7416,0,.159,0,.4254-2.9775,7.0141-5.0528,11.2134-8.0338,17.1088-8.8595,17.5217-.1045.0523-.2164.0774-.3261.0774Zm-.3272-1.3851l-.0017.0009.0017-.0009Z" fill="#a48a81"/><path d="m68.3315,69.9815c-.0954,0-.1907-.0186-.281-.0562l-8.4558-3.5203c-.3729-.155-.5488-.5831-.394-.9557.1553-.372.5808-.5497.956-.3937l8.1617,3.3978,8.3747-3.8144c.3672-.1693.8001-.0071.9691.3601.1679.3669.0069.8009-.3603.9688l-8.6671,3.9481c-.0965.0437-.1999.0657-.3032.0657Z" fill="#a48a81"/><path d="m80.5712,40.2638c-.056,0-.1131-.0066-.1696-.02-1.8017-.4286-2.3317-3.1951-2.9461-6.3988-.5065-2.6429-1.1364-5.9319-2.4516-5.9319-.0674,0-.1462.01-.2484.0314-.3918.0828-.7829-.1702-.8652-.5656-.0828-.3952.1707-.7826.5659-.8655.2027-.0425.3769-.0622.5477-.0622,2.523,0,3.2168,3.6188,3.8878,7.1186.4077,2.1278.9662,5.0419,1.848,5.2515.3929.0937.6356.4877.5419.8803-.0799.3361-.3798.5622-.7104.5622Z" fill="#a48a81"/><path d="m83.7229,40.7547c-.0657,0-.1325-.0089-.1987-.0274-.3883-.1096-.615-.5131-.5054-.9017.024-.0854,2.3842-8.5857.7647-13.0797-1.5516-4.2807-4.4629-5.4337-6.0293-4.8852-.0206.0071-.0405.0134-.0611.0186-.3718.1271-.7915-.0531-.9343-.42-.1456-.3732.0217-.7881.3935-.9374.0497-.0203.1005-.0383.1513-.0523,3.5418-1.2061,6.7197,2.6472,7.8544,5.7795,1.7794,4.9366-.6287,13.6065-.7321,13.9731-.0908.3221-.3843.5325-.703.5325Zm-6.0647-18.8674c-.0023.0003-.0051.0009-.0074.0014.0023-.0006.0051-.0011.0074-.0014Z" fill="#a48a81"/><path d="m52.8591,40.9417c-.2261,0-.4489-.1042-.5916-.301-.2376-.3264-.1656-.7835.161-1.0211.9206-.6696,1.4739-2.5624,2.0604-4.5665.5985-2.0464,1.2769-4.3658,2.5475-6.3014,2.1038-3.2054,6.5438-5.569,11.3231-3.1825.3609.1802.5077.6193.3272.9805-.1805.3606-.6185.508-.9805.3272-3.9792-1.9867-7.6871-.0057-9.4477,2.6769-1.1513,1.7535-1.7971,3.9615-2.3665,5.91-.687,2.3477-1.2798,4.3752-2.6035,5.338-.1296.0945-.2804.1399-.4294.1399Z" fill="#a48a81"/><path d="m70.1384,26.5974c-.4037,0-.731-.3272-.731-.731,0-.5679-1.0999-1.3157-1.7486-1.3157-.4037,0-.731-.3272-.731-.731s.3272-.731.731-.731c1.2626,0,3.2105,1.1927,3.2105,2.7777,0,.4037-.3272.731-.731.731Z" fill="#a48a81"/><path d="m72.7818,27.814c-.0662,0-.1336-.0091-.2004-.0283-.3883-.1105-.6139-.5148-.5031-.9031.3289-1.1556.0857-2.2845-.7235-3.3559-1.6315-2.1609-4.9083-3.3562-6.5496-3.3562-.4037,0-.731-.3272-.731-.731s.3272-.731.731-.731c2.2905,0,5.9379,1.5821,7.7162,3.9372,1.0845,1.4362,1.4174,3.0395.9628,4.6371-.0914.3212-.3843.5311-.7024.5311Z" fill="#a48a81"/><path d="m50.7124,40.4509c-.2998,0-.5808-.1859-.6881-.4843-.1171-.3264-2.857-8.0466-1.5065-12.3373,1.844-5.8794,7.007-8.8135,11.1552-11.1712.6841-.3892,1.3511-.7681,1.9839-1.1478,3.4504-2.069,8.3079-1.4271,11.5898.1262,2.8416,1.3449,4.6599,3.3961,4.9888,5.6279.0588.3992-.217.7707-.6162.8298-.3997.0571-.7709-.2167-.8298-.6168-.257-1.7398-1.776-3.3873-4.1682-4.5194-3.4675-1.6418-7.6671-1.7209-10.2124-.1942-.6419.3855-1.3186.7704-2.0136,1.1653-4.1299,2.3471-8.811,5.0074-10.4831,10.3386-1.2044,3.8267,1.4608,11.3297,1.4882,11.405.1365.3798-.0611.7983-.4409.9348-.0817.0294-.165.0434-.2473.0434Z" fill="#a48a81"/><path d="m67.0198,61.5106c-2.8719,0-5.4177-.8717-7.5718-2.5952-3.6354-2.8976-5.2532-7.5107-5.8945-10.0022-.2347-.9163-.3209-1.4962-.3244-1.5205-.0588-.3992.217-.7701.6162-.8289.3929-.0588.7704.2164.8298.6159.0011.0051.0811.5357.2947,1.3697.5951,2.3142,2.0872,6.5904,5.3909,9.2236,1.9982,1.5987,4.3806,2.3619,7.1092,2.268,3.6377-.1216,6.5798-1.4257,8.7464-3.8764,2.0964-2.3602,3.0404-5.2858,3.4635-7.3248.2473-1.1915.2952-1.9959.2958-2.0039.0228-.4026.3729-.707.7709-.6881.4032.0228.711.3672.6887.7701-.0023.0365-.0531.9117-.3244,2.2189-.4591,2.2132-1.4911,5.3971-3.8004,7.9975-2.4419,2.7625-5.7369,4.2325-9.7909,4.3678-.1679.0057-.3341.0086-.4997.0086Z" fill="#a48a81"/><path d="m53.6768,49.3626c-3.0912,0-5.2264-2.909-5.5045-5.7215-.2124-2.1503.7738-3.7648,2.5133-4.112.6978-.1356,1.4773-.0794,2.3248.167.0548.0097.169.0403.2844.0788.3826.1282.5893.5422.4614.9251-.1279.382-.5408.5899-.9251.4614-.0605-.0203-.1211-.0365-.1776-.0485-.6733-.1942-1.2232-.2401-1.6846-.1496-1.4088.2812-1.4077,1.866-1.3414,2.5341.2096,2.1175,1.8171,4.4032,4.0494,4.4032.4037,0,.731.3272.731.731s-.3272.731-.731.731Z" fill="#a48a81"/><path d="m80.8813,49.7781c-.273,0-.5345-.1533-.6602-.416-.1742-.3641-.02-.8006.3444-.9748,3.1591-1.5105,4.3675-3.2137,4.0403-5.695-.1005-.7935-.6179-1.6095-1.2866-2.0341-.615-.394-1.2089-.3977-1.768-.0143-.1131.0774-.2004.1485-.2764.2241-.2855.2855-.7481.2855-1.0336,0s-.2855-.7481,0-1.0336c.1411-.1413.2947-.2673.4837-.3966,1.0428-.715,2.2757-.7201,3.3807-.012,1.0291.653,1.7954,1.8622,1.9502,3.0786.5425,4.1131-2.5138,6.0801-4.8598,7.202-.1016.0485-.209.0717-.3147.0717Z" fill="#a48a81"/><path d="m66.9187,48.1914c-.3952,0-.7772-.0762-1.1016-.2304-.2912-.1388-.4157-.4877-.277-.7792.1382-.2915.4877-.4163.7795-.2773.3849.1833.9862.151,1.4619-.076.2924-.1393.6413-.0146.7795.2773.1388.2915.0143.6405-.277.7792-.4289.2036-.9063.3064-1.3654.3064Z" fill="#a48a81"/><path d="m67.1979,56.2548c-.3957,0-.7784-.0757-1.1039-.229-.2924-.1373-.4174-.4857-.2804-.7781.1376-.2915.4854-.418.7784-.2801.3883.1825.9931.1513,1.4711-.0751.293-.1396.6407-.0137.7789.2775.1388.2918.0143.6407-.2775.7789-.4283.2033-.9069.3058-1.3666.3058Z" fill="#a48a81"/><path d="m67.2648,53.6145c-1.6806,0-3.7456-.4214-4.5074-1.6053-.2181-.3395-.1199-.7918.2199-1.0102.3392-.2187.7909-.1208,1.0102.2193.2912.4531,1.5385.9343,3.2768.9343h.004c1.7058-.0006,2.8993-.4703,3.1968-.9337.2176-.3406.671-.4386,1.0102-.2201.3392.2181.438.6701.2199,1.0099-.956,1.4888-3.6297,1.6056-4.4263,1.6058h-.004Z" fill="#a48a81"/><path d="m74.3129,37.6963c-.1108,0-.2233-.0314-.3227-.0974h0c-.0097-.0063-.9891-.6265-1.6818-.2584-.2838.1528-.639.0445-.7909-.2401-.1525-.285-.0445-.6393.2404-.7912,1.3243-.7078,2.8176.2741,2.8805.3161.2684.1796.3409.5428.161.8112-.1125.1687-.2975.2598-.4865.2598Z" fill="#a48a81"/><path d="m60.0939,37.6952c-.1896,0-.3758-.0917-.4883-.2613-.1776-.2684-.1062-.6296.1616-.8086.0628-.042,1.5567-1.0228,2.885-.3169.2855.1516.394.5057.2421.7909-.1513.285-.5054.3932-.7904.2421-.6967-.3715-1.6789.2513-1.6886.2576-.0994.0651-.2113.0962-.3215.0962Z" fill="#a48a81"/><path d="m73.3672,46.8237c-.0868,0-.1742-.0017-.2633-.0054-2.7206-.1085-4.251-1.7577-4.1996-4.5248,0-.1276.0131-.2664.0268-.3915.2233-1.9271,1.8463-2.9955,4.4526-2.9484,2.0438.0348,3.5515.9108,4.0329,2.3428.1034.2981.1633.617.177.9483.064,1.3774-.3621,2.6355-1.1695,3.449-.7447.7504-1.7726,1.1299-3.0569,1.1301Zm-.1685-6.7023c-1.3546,0-2.9239.3461-3.1055,1.9111-.0086.0814-.0194.1767-.0194.2718-.04,2.1404.9954,3.2622,3.0763,3.3456,1.0673.0354,1.8891-.2213,2.4436-.7801.8201-.826.8549-2.075.8315-2.5735-.0091-.2204-.0474-.4272-.1142-.6179-.0006-.0023-.0017-.0049-.0023-.0071-.4677-1.398-2.3733-1.5385-2.9461-1.5482-.0543-.0011-.1091-.0017-.1639-.0017Z" fill="#a48a81"/><path d="m61.1629,47.0053c-1.2792,0-2.3043-.3786-3.0483-1.1273-.8103-.8149-1.2381-2.0741-1.1741-3.4547.0206-.4509.1176-.8666.2872-1.2349.828-1.8046,3.0238-2.037,3.9301-2.0536,2.5041-.0437,4.1425.9665,4.424,2.7939.0274.1353.0451.3087.0531.5365.0531,2.776-1.4773,4.4255-4.1979,4.5343-.0925.0037-.1839.0057-.2741.0057Zm.1845-6.7029c-.056,0-.1119.0009-.1673.002-.5357.0094-2.3231.1371-2.8896,1.3723,0,.0006-.0006.0009-.0006.0011-.1062.231-.1673.5-.181.7995-.0234.4988.012,1.748.8349,2.5761.5568.5596,1.3808.8169,2.4464.7778,2.0815-.0834,3.1163-1.2052,3.0758-3.3345-.004-.1214-.0126-.2478-.0354-.3646-.2319-1.501-1.7674-1.8297-3.0832-1.8297Zm-3.5886,1.1307h.0057-.0057Z" fill="#a48a81"/><path d="m57.5721,41.9416c-.048,0-.0959-.0057-.1445-.018l-4.5143-1.1461c-.3129-.0794-.5025-.3977-.4232-.7107.0794-.3135.3969-.5031.711-.4229l4.5143,1.1461c.3129.0794.5025.3977.4232.7107-.0674.2647-.3055.4409-.5665.4409Z" fill="#a48a81"/><path d="m77.1031,41.983c-.2376,0-.4614-.1462-.5482-.3823-.1125-.303.0428-.6393.3455-.7512l3.9512-1.4614c.3021-.1122.6396.0411.7527.3438.1125.3027-.0417.6393-.3438.7521l-3.9546,1.4625c-.0668.0248-.1353.0365-.2027.0365Z" fill="#a48a81"/><path d="m65.0507,42.5909c-.3204,0-.5813-.2576-.5848-.5785-.0034-.3229.2553-.5876.5785-.5911l4.351-.0468h.0063c.3204,0,.5813.2576.5848.5785.0034.3229-.2553.5876-.5785.5911l-4.351.0468h-.0063Z" fill="#a48a81"/><path d="m74.302,75.5369c-.1725,0-.3455-.0605-.4843-.1836l-5.5325-4.8935-5.1482,4.6602c-.2992.271-.7612.2478-1.0325-.052-.2707-.2995-.2473-.7618.0525-1.0325l5.6307-5.0985c.2764-.2504.6967-.2524.9754-.006l6.023,5.3275c.3027.2675.3306.7295.0628,1.0319-.1439.163-.3455.2464-.5471.2464Z" fill="#a48a81"/><path d="m72.9155,90.6535c-.3329,0-.6339-.229-.7115-.5674l-2.9593-12.871c-.0377-.163-.0183-.3341.0554-.4845l1.7954-3.6782c.177-.3629.6145-.5131.9771-.3364.3632.1773.5134.6148.3364.9777l-1.6818,3.4458,2.901,12.6188c.0908.3935-.1548.7858-.5482.8763-.0554.0126-.1102.0188-.1645.0188Z" fill="#a48a81"/><path d="m63.9623,87.5192c-.1051,0-.2113-.0228-.3124-.0708-.3649-.1727-.5202-.6085-.3478-.9734.3552-.7492,1.7263-5.8985,2.6052-9.3435l-1.6778-3.4384c-.1765-.3629-.0257-.8003.3375-.9774.3621-.1756.8006-.0254.9771.3372l1.7943,3.6765c.0765.1559.0948.3338.0525.502-.2267.8897-2.226,8.727-2.7674,9.8694-.1251.2638-.3878.4183-.6613.4183Z" fill="#a48a81"/><path d="m28.5259,65.7711c-.1308,0-.261-.0348-.3763-.1042-.3306-.1727-.4911-.5736-.3489-.9251.1513-.374.5676-.5599.9394-.4089.0919.0365.233.1208.3027.1905.2855.2855.2855.7481,0,1.0336-.1428.1428-.3295.2141-.5168.2141Z" fill="#a48a81"/><path d="m28.9651,80.6536c-.0206,0-.0417-.0009-.0634-.0026-.402-.0345-.7001-.3886-.6653-.7909.1428-1.6644.4597-3.7502,1.6504-5.1187,1.057-1.2158,1.6001-8.8604.1759-11.5264-.1896-.3529-1.0765-.5759-2.6349-.6613l-.5568-.026c-.5968-.0266-1.161-.0517-1.6367-.1151-.0188-.0011-.0377-.0026-.0525-.0046-.1468-.0208-.2239-.0043-.241.0031-.0246.078.0348.514.2678.8503.0582.0805.1096.1231.1239.1316.1536.0528.7418.227,1.7206.5054.8555.2367,1.4351.3883,1.5681.4169.3592.0465.6385.3532.6385.7247,0,.4037-.3244.731-.7281.731-.1182,0-.1924,0-1.8731-.4651-1.0576-.3007-1.6253-.4691-1.8457-.5479-.2992-.1105-.5648-.3292-.7978-.6527-.4826-.6958-.7315-1.7663-.2895-2.4873.1845-.3007.6362-.7806,1.6161-.6636.0206.0014.0411.0029.0571.0051.4157.0577.9605.0819,1.5373.1076l.5694.0266c1.535.0842,3.2225.271,3.8461,1.4311,1.539,2.8813,1.3089,11.254-.3615,13.1756-.9137,1.0505-1.1735,2.8416-1.2975,4.2847-.0326.3809-.3518.6684-.7275.6684Z" fill="#a48a81"/><path d="m27.4786,62.2513c-.3346,0-.6367-.2316-.7127-.5716-.7481-3.3447-1.9953-8.6225-2.3642-9.4534-.4397-.9897-.8395-1.1373-.884-1.1207-.0754.0266-.2638.3486-.1268.8655.6362,2.4307,1.4836,6.6364,1.6464,7.6691.0628.3989-.209.7732-.6082.836-.3906.0614-.7727-.2093-.8355-.6082-.1599-1.0116-.9914-5.1367-1.6167-7.5252-.3095-1.1704.1445-2.296,1.0559-2.6163.3769-.1328,1.6864-.3869,2.7051,1.9065.5459,1.2298,2.2608,8.8615,2.4544,9.7275.0879.394-.1599.7849-.5539.8729-.0537.012-.1074.018-.1599.018Z" fill="#a48a81"/><path d="m20.9588,62.9c-.3849,0-.7001-.2975-.7287-.675-.0023-.0188-.0046-.0368-.0057-.0543-.1051-1.0865.3592-2.0678,1.2758-2.6943.948-.6482,2.1649-.7578,3.1009-.2801.7881.3983,1.294,1.1658,1.422,2.1598.052.4006-.2307.7669-.631.8186-.4015.0483-.7669-.2307-.8183-.6313-.0662-.5134-.2798-.8643-.6345-1.0436-.4557-.2321-1.117-.1556-1.6138.1836-.273.1865-.7201.6105-.6447,1.3537,0,.0054.0006.0109.0011.0163.0051.0417.008.0811.008.1156,0,.4037-.3272.731-.731.731Z" fill="#a48a81"/><path d="m26.7562,69.6195c-.3838,0-.8652-.1699-1.4094-.731-.2815-.2898-.2747-.7524.0148-1.0336.2907-.2812.7527-.2738,1.0336.0154.1451.1493.249.223.3118.259.0691-.1268.1605-.4135.1747-.8677.0257-.8226-.217-1.6909-.5779-2.0644-.2804-.2904-.2724-.753.0183-1.0336.2901-.2798.7538-.2718,1.0336.0183,1.153,1.1941,1.3369,4.0808.3221,5.0634-.0965.0931-.4283.3743-.9217.3743Z" fill="#a48a81"/><path d="m24.7472,71.2736c-.3946,0-.7698-.1459-1.0416-.43-.2164-.203-.3666-.5177-.4089-.8843-.0457-.4012.2421-.7635.6436-.8092.3906-.0517.7629.2416.8092.643.0091.0257.1234.006.209-.0842.0303-.0323.1234-.1299.0463-.3712l-.0263-.0817c-.0514-.1625-.1165-.3672-.2027-.6008-.2832-.8172-1.0348-2.8456-1.9959-4.3141-.6596-1.0076-1.298-1.5556-1.7435-1.5045-.0834.0086-.1633.0365-.249.0851-.4626.2644-.9611.7478-1.0645,1.0336-.1382.38-.5591.5762-.936.4389-.3798-.1371-.5762-.5562-.4391-.9357.2975-.8232,1.2192-1.5233,1.7166-1.8074.2661-.1508.5402-.2404.8161-.2678,1.0588-.1253,2.1061.6048,3.1226,2.1572,1.0125,1.5473,1.7812,3.5603,2.1489,4.6228.0902.2438.1622.4694.2193.6482l.0263.0811c.2724.8577-.028,1.6935-.7658,2.1315-.2821.1673-.5893.2496-.8846.2496Z" fill="#a48a81"/><path d="m18.5323,70.1568c-.1902,0-.3803-.074-.5237-.221-.2815-.2895-.2753-.7521.0137-1.0339.1382-.1339.2593-.7124.3249-1.0231.0571-.2718.1108-.5285.1902-.7567.1319-.3815.5499-.5828.9297-.4511.3815.1325.5836.5488.4511.9303-.0485.1405-.0931.3529-.1405.5782-.1308.621-.2781,1.3252-.7355,1.7703-.1422.1382-.3261.207-.51.207Z" fill="#a48a81"/><path d="m20.9416,69.5901c-.0839,0-.1696-.0146-.253-.0454-.1205-.0445-.2221-.1171-.3004-.2079-.1308-.0591-.4066-.1622-.9777-.3424-.0902-.0286-.157-.05-.1879-.0608-.3792-.1348-.5768-.5508-.4426-.9308.1336-.38.5505-.5796.932-.4469l.1382.0443c1.2638.3989,1.5739.5602,1.7446.9089.0885.1796.1016.4152.0326.6028-.1091.2952-.3883.4783-.6859.4783Zm-.4723-.2122h.0057-.0057Zm-.2141-.7709c-.0143.0388-.0246.0768-.0314.1139.0074-.038.0177-.0762.0314-.1139Zm.0006-.0011s0,.0009-.0006.0011c.0006-.0003.0006-.0009.0006-.0011Z" fill="#a48a81"/><path d="m19.9006,77.9756c-.0845,0-.1702-.0148-.2536-.0457-.1907-.0705-.3346-.2124-.4123-.384-.0137-.012-.0257-.0234-.0371-.0348-.0685-.0682-.1353-.1442-.1942-.2196-.6613-.747-1.1553-1.7803-1.5916-2.692l-.454-.9411c-1.4888-3.0601-3.3407-6.8682.2952-10.0131.2695-.2356.8749-.5762,1.8691-.1936,1.6093.605,5.6079,4.5574,5.8477,6.4128.0274.2153.0211.4166-.0194.6173-.1154.5905-.5317,1.0559-1.1136,1.2415-.6419.2044-1.35.0357-1.8497-.4403-.261-.2456-.4746-.5265-.6807-.7981-.213-.2804-.414-.5451-.6259-.709-.3192-.2473-.3775-.7064-.1302-1.0256s.7076-.3766,1.0256-.1302c.3638.2821.6339.637.8943.9805.1782.2341.3461.4554.5214.6202.1388.1319.3021.1413.4009.1096.1045-.0331.1176-.1002.1239-.1325.0069-.0337.0126-.0774.0034-.1485-.1154-.7447-3.0506-4.5294-4.918-5.2315-.2513-.0968-.3701-.0797-.3895-.07-2.7897,2.4128-1.4054,5.2584.06,8.271l.4586.95c.3946.8252.8418,1.7606,1.3957,2.3879.0514.0631.0771.0928.1034.1194.5185.3863.422.8437.3558,1.0219-.1091.295-.3883.4774-.6853.4774Z" fill="#a48a81"/><path d="m26.264,45.6961c-.0268,0-.0531-.0014-.0805-.0043-.4009-.0437-.691-.4043-.647-.8058.0206-.1933.1331-1.1795.2861-1.6258.1308-.3815.5442-.5859.9286-.4546.382.1308.5853.5465.4546.9286-.0737.2141-.1725.9083-.2164,1.31-.0405.3743-.3575.6519-.7253.6519Z" fill="#a48a81"/><path d="m22.391,47.5909c-.3261,0-.623-.2196-.7076-.5499l-.4386-1.7132c-.0999-.3912.1359-.7892.5271-.8894s.7892.1359.8891.5268l.4386,1.7132c.0999.3912-.1359.7892-.5271.8894-.0605.0157-.1216.0231-.1816.0231Z" fill="#a48a81"/><path d="m18.5786,49.4443c-.1211,0-.2438-.03-.3569-.0934-.2576-.1445-.7441-.4012-.952-.4751-.3803-.1353-.5791-.5536-.4437-.9337.1353-.3809.5534-.5785.9337-.4437.3838.1368,1.0479.5048,1.177.5773.3523.1976.4774.643.2798.9951-.1336.239-.382.3735-.6379.3735Z" fill="#a48a81"/><path d="m19.3221,80.3963c-.0131,0-.0263-.0003-.0394-.0011-.4032-.0214-.7127-.3658-.691-.7689l.1462-2.7308c.0211-.4029.3712-.7144.7687-.6907.4032.0214.7127.3658.691.7689l-.1462,2.7308c-.0206.3898-.3432.6918-.7293.6918Z" fill="#a48a81"/><path d="m40.3493,92.8167c-.3769,0-.6967-.289-.7281-.671l-1.3157-15.9816c-.0331-.4023.2661-.7552.6687-.7884.4112-.0317.7555.2664.7886.6684l1.3157,15.9816c.0331.4023-.2661.7552-.6687.7884-.0206.0017-.0405.0026-.0605.0026Z" fill="#a48a81"/><path d="m98.3896,91.2731c-.0274,0-.0554-.0014-.0828-.0046-.4015-.0454-.6898-.4072-.6447-.8083l1.3043-11.5669c.0457-.4009.4163-.6901.8081-.6444.4015.0454.6898.4072.6447.8083l-1.3043,11.5669c-.0423.3732-.3586.649-.7253.649Z" fill="#a48a81"/><path d="m30.069,82.5658c-.3895,0-.7133-.3075-.7298-.7004l-.0474-1.1281-10.6395-.2461.0548,1.2715c.0171.4035-.2958.7444-.699.7618-.4043.0083-.7441-.2955-.7618-.699l-.0879-2.0527c-.0086-.2024.0668-.3992.209-.5437.1416-.1442.3289-.2324.5391-.2184l12.1037.2807c.3855.0086.6978.3149.7138.7001l.076,1.8128c.0166.4032-.2964.7441-.6996.7609-.0109.0003-.0211.0006-.0314.0006Z" fill="#a48a81"/></g></g></g><circle cx="63.5" cy="63.5" r="62.5" fill="none" stroke="#a48a81" stroke-linecap="round" stroke-miterlimit="10" stroke-width="2"/><circle cx="63.5" cy="63.5" r="62.5" fill="none" stroke="#a48a81" stroke-linecap="round" stroke-miterlimit="10" stroke-width="2"/></g></g></svg>