<?xml version="1.0" encoding="UTF-8"?><svg id="_レイヤー_2" xmlns="http://www.w3.org/2000/svg" width="131.8447" height="127" xmlns:xlink="http://www.w3.org/1999/xlink" viewBox="0 0 131.8447 127"><defs><pattern id="_10_dpi_20_3" x="0" y="0" width="28.7998" height="28.8008" patternTransform="translate(-3561.9003 -1599.3924) scale(.5975)" patternUnits="userSpaceOnUse" viewBox="0 0 28.7998 28.8008"><g><rect x="0" y="0" width="28.7998" height="28.8008" fill="none"/><g><path d="m28.8001,30.2403c.795,0,1.4395-.6445,1.4395-1.4394s-.6445-1.4395-1.4395-1.4395c-.7959,0-1.4404.6445-1.4404,1.4395s.6445,1.4394,1.4404,1.4394Z" fill="#a48a81"/><path d="m14.3997,30.2403c.795,0,1.4405-.6445,1.4405-1.4394s-.6455-1.4395-1.4405-1.4395c-.7959,0-1.4394.6445-1.4394,1.4395s.6435,1.4394,1.4394,1.4394Z" fill="#a48a81"/><path d="m28.8001,15.8419c.795,0,1.4395-.6465,1.4395-1.4414s-.6445-1.4395-1.4395-1.4395c-.7959,0-1.4404.6445-1.4404,1.4395s.6445,1.4414,1.4404,1.4414Z" fill="#a48a81"/><path d="m14.3997,15.8419c.795,0,1.4405-.6465,1.4405-1.4414s-.6455-1.4395-1.4405-1.4395c-.7959,0-1.4394.6445-1.4394,1.4395s.6435,1.4414,1.4394,1.4414Z" fill="#a48a81"/><path d="m7.1995,23.0411c.7949,0,1.4404-.6445,1.4404-1.4395,0-.7969-.6455-1.4414-1.4404-1.4414-.7959,0-1.4395.6446-1.4395,1.4414,0,.7949.6436,1.4395,1.4395,1.4395Z" fill="#a48a81"/><path d="m21.5999,23.0411c.795,0,1.4405-.6445,1.4405-1.4395,0-.7969-.6455-1.4414-1.4405-1.4414-.7959,0-1.4404.6446-1.4404,1.4414,0,.7949.6445,1.4395,1.4404,1.4395Z" fill="#a48a81"/><path d="m7.1995,8.6407c.7949,0,1.4404-.6445,1.4404-1.4395,0-.7968-.6455-1.4414-1.4404-1.4414-.7959,0-1.4395.6446-1.4395,1.4414,0,.795.6436,1.4395,1.4395,1.4395Z" fill="#a48a81"/><path d="m21.5999,8.6407c.795,0,1.4405-.6445,1.4405-1.4395,0-.7968-.6455-1.4414-1.4405-1.4414-.7959,0-1.4404.6446-1.4404,1.4414,0,.795.6445,1.4395,1.4404,1.4395Z" fill="#a48a81"/></g><g><path d="m.0003,30.2403c.795,0,1.4395-.6445,1.4395-1.4394S.7953,27.3614.0003,27.3614c-.7959,0-1.4404.6445-1.4404,1.4395S-.7956,30.2403.0003,30.2403Z" fill="#a48a81"/><path d="m.0003,15.8419c.795,0,1.4395-.6465,1.4395-1.4414S.7953,12.961.0003,12.961c-.7959,0-1.4404.6445-1.4404,1.4395S-.7956,15.8419.0003,15.8419Z" fill="#a48a81"/></g><g><path d="m28.8001,1.4395c.795,0,1.4395-.6445,1.4395-1.4394s-.6445-1.4395-1.4395-1.4395c-.7959,0-1.4404.6445-1.4404,1.4395s.6445,1.4394,1.4404,1.4394Z" fill="#a48a81"/><path d="m14.3997,1.4395C15.1947,1.4395,15.8402.795,15.8402,0s-.6455-1.4395-1.4405-1.4395C13.6038-1.4394,12.9603-.7948,12.9603,0s.6435,1.4394,1.4394,1.4394Z" fill="#a48a81"/></g><path d="m.0003,1.4395C.7953,1.4395,1.4398.795,1.4398,0S.7953-1.4394.0003-1.4394C-.7956-1.4394-1.4401-.7948-1.4401,0S-.7956,1.4395.0003,1.4395Z" fill="#a48a81"/></g></pattern><clipPath id="clippath"><path d="m14.503,93.1807l52.8417-30.5082V2.0254C33.8948,2.5636,6.8447,29.9243,6.8447,63.5c0,10.7578,2.7843,20.8744,7.6583,29.6807Z" fill="none"/></clipPath></defs><g id="_レイヤー_1-2"><g><g><path d="m68.373,64.4943c-.01.0003-.0183.0057-.0284.0057-.0433,0-.0802-.0193-.1221-.0247l-52.7217,30.439c10.7409,17.9993,30.4037,30.0857,52.8438,30.0857,22.4174,0,42.0641-12.0616,52.8122-30.0309l-52.7838-30.4749Z" fill="#decec6"/><path d="m129.8447,63.5c0-33.5757-27.0501-60.9364-60.5-61.4746v60.7201l52.8102,30.4901c4.8931-8.8193,7.6898-18.9552,7.6898-29.7355Z" fill="url(#_10_dpi_20_3)"/><g clip-path="url(#clippath)"><path d="m60.7197,11.25c-1.3283-1.9004-3.9636-2.4575-6-2-2.985.6707-5.737,3.7581-5,7,.7607,3.346,4.8602,5.1944,8,4,3.5433-1.3478,4.943-6.2202,3-9Z" fill="#decec6"/><path d="m43.7197,39.25c-1.3283-1.9004-3.9636-2.4575-6-2-2.985.6707-5.737,3.7581-5,7,.7607,3.346,4.8602,5.1944,8,4,3.5433-1.3478,4.943-6.2202,3-9Z" fill="#decec6"/><path d="m28.7197,62.25c-1.3283-1.9004-3.9636-2.4575-6-2-2.985.6707-5.737,3.7581-5,7,.7607,3.346,4.8602,5.1944,8,4,3.5433-1.3478,4.943-6.2202,3-9Z" fill="#decec6"/><path d="m33.7197,14.25c4.2099,1.0248,10.3481,4.5508,10,9-.3027,3.869-5.3376,6.2305-8,7-4.137,1.1956-11.607,1.1661-14-4-1.6658-3.5961-.3473-8.5497,3-11,3.2711-2.3945,7.1758-1.4441,9-1Z" fill="#decec6"/><path d="m13.7197,38.25c4.2099,1.0248,10.3481,4.5508,10,9-.3027,3.869-5.3376,6.2305-8,7-4.137,1.1956-11.607,1.1661-14-4-1.6658-3.5961-.3473-8.5497,3-11,3.2711-2.3945,7.1758-1.4441,9-1Z" fill="#decec6"/><path d="m12.7197,77.25c4.2099,1.0248,10.3481,4.5508,10,9-.3027,3.869-5.3376,6.2305-8,7-4.137,1.1956-11.607,1.1661-14-4-1.6658-3.5961-.3473-8.5497,3-11,3.2711-2.3945,7.1758-1.4441,9-1Z" fill="#decec6"/><path d="m51.7197,54.25c4.2099,1.0248,10.3481,4.5508,10,9-.3027,3.869-5.3376,6.2305-8,7-4.137,1.1956-11.607,1.1661-14-4-1.6658-3.5961-.3473-8.5497,3-11,3.2711-2.3945,7.1758-1.4441,9-1Z" fill="#decec6"/><path d="m62.7197,29.25c4.2099,1.0248,10.3481,4.5508,10,9-.3027,3.869-5.3376,6.2305-8,7-4.137,1.1956-11.607,1.1661-14-4-1.6658-3.5961-.3473-8.5497,3-11,3.2711-2.3945,7.1758-1.4441,9-1Z" fill="#decec6"/></g></g><path d="m68.3447,0C33.3305,0,4.8447,28.4858,4.8447,63.5s28.4858,63.5,63.5,63.5,63.5-28.4858,63.5-63.5S103.3588,0,68.3447,0Zm61.5,63.5c0,10.7803-2.7968,20.9163-7.6898,29.7355l-52.8102-30.4901V2.0254c33.4499.5382,60.5,27.8989,60.5,61.4746ZM67.3447,2.0254v60.6471l-52.8417,30.5082c-4.874-8.8063-7.6583-18.9229-7.6583-29.6807C6.8447,29.9243,33.8948,2.5636,67.3447,2.0254Zm1,122.9746c-22.44,0-42.1028-12.0864-52.8438-30.0857l52.7217-30.439c.0419.0053.0788.0247.1221.0247.0101,0,.0184-.0054.0284-.0057l52.7838,30.4749c-10.748,17.9693-30.3948,30.0309-52.8122,30.0309Z" fill="#a48a81"/></g></g></svg>