<?xml version="1.0" encoding="UTF-8"?><svg id="_レイヤー_2" xmlns="http://www.w3.org/2000/svg" viewBox="0 0 395 119.1"><defs><style>.cls-1{fill:#fff;}.cls-2{fill:#a48a81;}.cls-3{fill:#af9890;opacity:.9;}</style></defs><g id="_レイヤー_1-2"><g><path class="cls-3" d="m72,0h323v19c0,39.74-32.26,72-72,72H0v-19C0,32.26,32.26,0,72,0Z"/><g><path class="cls-1" d="m146.27,54.45h-12.75c2.18,4,6.57,5.98,13.18,6.64-.5.5-1.09,1.42-1.35,2.05-7.2-.96-11.76-3.5-14.11-8.69h-.36c-1.62,4.33-5.15,7.2-14.04,8.66-.17-.59-.73-1.52-1.12-1.98,7.7-1.12,11.1-3.27,12.75-6.67h-12.36v-2.02h13.08c.3-.99.46-2.08.63-3.27h-13.54v-2.05h13.68v-3.01h-10.41v-1.95h10.41v-2.91h-12.19v-2.05h7.17c-.5-1.26-1.62-2.87-2.68-4.03l1.85-.79c1.29,1.26,2.51,3.04,3.01,4.29l-1.16.53h9.65c-.33-.17-.66-.33-.89-.4,1.02-1.19,2.34-3.1,3.07-4.43l2.61,1.02c-.1.2-.33.26-.66.26-.73,1.02-1.88,2.44-2.87,3.53h7.73v2.05h-12.39v2.91h10.7v1.95h-10.7v3.01h13.81v2.05h-13.28c-.07.17-.33.3-.66.36-.17,1.02-.33,1.98-.56,2.91h14.77v2.02Z"/><path class="cls-1" d="m170.64,33.63v26.73c0,2.71-1.39,2.74-5.58,2.74-.07-.56-.36-1.55-.66-2.15.83.03,1.59.03,2.21.03q1.92,0,1.92-.66v-8.62h-5.65c-.3,4-.96,8.23-2.51,11.43-.4-.36-1.29-.89-1.82-1.09,2.31-4.72,2.48-11.43,2.48-16.39v-12.02h9.61Zm-7.57,12.02c0,1.22-.03,2.54-.07,3.93h5.52v-5.98h-5.45v2.05Zm5.45-9.91h-5.45v5.78h5.45v-5.78Zm16.39,22.53c0,1.92.03,2.08.83,2.08,1.32,0,1.49,0,1.72-.23.46-.46.46-3.67.46-5.78.46.43,1.19.83,1.82,1.02-.03,1.78-.13,4.06-.3,4.86-.17,1.09-.63,2.21-2.54,2.21h-1.65c-.63,0-1.32-.23-1.82-.63-.53-.46-.69-1.02-.69-3.83v-22.2h-6.18v10.17c0,5.25-.46,12.45-3.67,17.21-.36-.4-1.29-.99-1.82-1.26,3.04-4.53,3.3-11,3.3-15.92v-12.36h10.54v24.64Z"/><path class="cls-1" d="m202.85,41.73c2.25.73,5.12,2.05,6.57,3.14l-1.26,1.92c-1.39-1.09-4.23-2.51-6.54-3.34l1.22-1.72Zm-.13,19.39c1.82-2.58,4.43-7.04,6.34-10.84,1.32,1.16,1.49,1.32,1.65,1.45-1.75,3.53-4.1,7.7-5.78,10.27.1.17.17.3.17.43s-.07.26-.17.4l-2.21-1.72Zm1.95-28.48c2.28.86,5.02,2.35,6.44,3.53l-1.32,1.88c-1.35-1.22-4.06-2.81-6.34-3.73l1.22-1.68Zm16.65.56c-.13.23-.4.36-.79.36-1.16,3.14-2.94,7.43-4.62,10.6,3.57-.1,7.7-.23,11.79-.4-1.29-1.82-2.78-3.67-4.16-5.22l1.92-.99c2.78,2.94,5.78,6.94,7.14,9.58l-2.01,1.16c-.4-.76-.93-1.65-1.52-2.61-6.48.36-13.35.66-17.58.83-.07.26-.26.4-.5.43l-.83-2.61,3.37-.1c1.75-3.3,3.73-8.26,4.82-11.86l2.97.83Zm-8.09,29.96v-13.45h16.25v13.31h-2.21v-1.39h-11.86v1.52h-2.18Zm14.04-11.36h-11.86v7.76h11.86v-7.76Z"/><path class="cls-1" d="m275.42,37.6h-23.82v8.82c0,5.12-.63,12.12-4.72,16.75-.33-.43-1.16-1.19-1.59-1.49,2.68-3.01,3.67-6.87,4.03-10.57-1.39.86-2.68,1.62-3.67,2.18.03.23-.1.46-.33.56l-.96-2.25c1.35-.63,3.17-1.59,5.12-2.64.03-.89.03-1.72.03-2.54v-10.77h10.97v-3.24l2.97.2c-.03.23-.23.4-.66.46v2.58h12.62v1.95Zm-28.81.89c1.06,2.08,2.02,4.76,2.25,6.44-1.35.63-1.59.69-1.82.79-.23-1.72-1.12-4.46-2.15-6.57l1.72-.66Zm20.88,4.06c.73.99,1.59,1.98,2.58,2.84.93-.76,2.05-1.82,2.68-2.51l1.75,1.26c-.1.13-.33.2-.63.17-.66.56-1.69,1.42-2.58,2.08,1.35,1.02,2.84,1.85,4.33,2.41-.46.36-1.06,1.09-1.35,1.59-1.02-.43-2.02-1.02-3.01-1.68v6.9h-6.57v5.29c0,2.15-1.02,2.25-5.55,2.25-.1-.59-.46-1.32-.73-1.85.73.03,1.39.03,1.98.03,2.15,0,2.15-.03,2.15-.5v-5.22h-6.38v-6.84c-.89.63-1.88,1.22-2.94,1.75-.3-.5-.92-1.16-1.39-1.49,1.62-.76,3.04-1.65,4.26-2.64-.79-.76-1.85-1.62-2.77-2.25l1.25-1.06c.92.59,2.02,1.42,2.84,2.15.89-.86,1.65-1.75,2.31-2.68h-6.61v-1.82h7.76c.53-1.02.92-2.02,1.22-3.01l2.61.3c-.07.26-.23.43-.66.43-.26.76-.56,1.52-.96,2.28h11.79v1.82h-7.4Zm-8,14.7c-.1.2-.3.3-.66.26-1.32,1.82-3.44,3.73-5.35,4.96-.36-.36-1.09-.96-1.55-1.29,1.85-1.09,3.93-2.91,5.12-4.79l2.44.86Zm9.75-6.94v-2.21h-11.13v2.21h11.13Zm0,3.77v-2.28h-11.13v2.28h11.13Zm-7.14-11.53c-.86,1.39-1.95,2.74-3.3,4.03h9.88c-1.29-1.22-2.41-2.61-3.27-4.03h-3.3Zm10.8,20.09c-1.06-1.49-3.3-3.77-5.25-5.32l1.65-.89c1.92,1.52,4.2,3.7,5.32,5.15l-1.72,1.06Z"/></g><g><path class="cls-2" d="m145.7,112.46c-.28-.18-.8-.45-1.48-.45-.84,0-1.29.52-1.29,1.13,0,.66.43.97,1.41,1.39,1.23.5,1.95,1.15,1.95,2.3,0,1.36-1.04,2.26-2.7,2.26-.76,0-1.48-.21-2-.52l.32-.9c.41.24,1.06.52,1.72.52,1.02,0,1.53-.55,1.53-1.23s-.41-1.11-1.42-1.51c-1.29-.52-1.95-1.23-1.95-2.16,0-1.19.95-2.17,2.49-2.17.73,0,1.34.21,1.75.46l-.34.88Z"/><path class="cls-2" d="m154.69,118.93h-1.43l-2.63-3.77-.7.8v2.97h-1.16v-11.21h1.16v7.13h.03c.18-.27.45-.6.66-.85l2.28-2.7h1.4l-2.87,3.15,3.26,4.48Z"/><path class="cls-2" d="m156.99,109.95c-.45,0-.76-.35-.76-.8s.32-.78.77-.78.76.35.76.78c0,.49-.32.8-.77.8Zm.59,8.98h-1.16v-7.63h1.16v7.63Z"/><path class="cls-2" d="m166.7,118.93h-1.16v-4.51c0-1.25-.45-2.34-1.78-2.34-.99,0-2,.84-2,2.17v4.68h-1.16v-5.67c0-.78-.03-1.36-.06-1.98h1.04l.07,1.25h.03c.38-.74,1.26-1.42,2.45-1.42.95,0,2.58.57,2.58,3.17v4.65Z"/><path class="cls-2" d="m173.92,109.91l1.15-.39v1.78h1.98v.91h-1.98v4.41c0,.97.29,1.5,1.04,1.5.35,0,.59-.04.78-.11l.07.9c-.25.11-.64.18-1.13.18-1.85,0-1.91-1.68-1.91-2.49v-4.38h-1.18v-.91h1.18v-1.39Z"/><path class="cls-2" d="m182.75,112.28c-.13-.01-.25-.03-.42-.03-1.26,0-1.91,1.25-1.91,2.54v4.15h-1.16v-5.35c0-.81-.01-1.55-.06-2.28h1.02l.06,1.47h.04c.34-.95,1.13-1.64,2.07-1.64.13,0,.22.03.35.04v1.11Z"/><path class="cls-2" d="m190.22,118.61c-.43.21-1.23.48-2.4.48-2.23,0-3.56-1.57-3.56-3.85,0-2.4,1.34-4.12,3.4-4.12,2.35,0,2.96,2.16,2.96,3.49,0,.27-.01.46-.03.64h-5.2c.01,2.12,1.22,2.91,2.59,2.91.95,0,1.53-.2,2-.39l.22.84Zm-.74-4.23c.01-1.04-.42-2.38-1.92-2.38-1.4,0-2.02,1.33-2.13,2.38h4.05Z"/><path class="cls-2" d="m198.06,117.11c0,.63.01,1.29.11,1.82h-1.06l-.11-.98h-.04c-.39.6-1.18,1.15-2.26,1.15-1.46,0-2.23-1.06-2.23-2.17,0-1.83,1.6-2.83,4.43-2.82,0-.64,0-2.1-1.74-2.1-.66,0-1.34.18-1.86.55l-.28-.8c.62-.41,1.47-.64,2.33-.64,2.16,0,2.72,1.53,2.72,3.04v2.96Zm-1.15-2.14c-1.44,0-3.25.21-3.25,1.82,0,.98.62,1.41,1.32,1.41,1.13,0,1.93-.87,1.93-1.79v-1.44Z"/><path class="cls-2" d="m201.3,109.91l1.15-.39v1.78h1.98v.91h-1.98v4.41c0,.97.29,1.5,1.04,1.5.35,0,.59-.04.78-.11l.07.9c-.25.11-.64.18-1.13.18-1.85,0-1.91-1.68-1.91-2.49v-4.38h-1.18v-.91h1.18v-1.39Z"/><path class="cls-2" d="m217.04,118.93h-1.15v-4.41c0-1.48-.53-2.44-1.68-2.44-.94,0-1.79.88-1.79,2.04v4.8h-1.15v-4.71c0-1.22-.52-2.14-1.6-2.14-1,0-1.88.98-1.88,2.17v4.68h-1.15v-5.67c0-.78-.03-1.34-.06-1.98h1.02l.07,1.23h.04c.42-.74,1.12-1.4,2.33-1.4.99,0,1.76.62,2.09,1.53h.03c.5-.91,1.27-1.53,2.45-1.53.94,0,2.42.6,2.42,3.22v4.59Z"/><path class="cls-2" d="m225.4,118.61c-.43.21-1.23.48-2.4.48-2.23,0-3.56-1.57-3.56-3.85,0-2.4,1.34-4.12,3.4-4.12,2.35,0,2.96,2.16,2.96,3.49,0,.27-.01.46-.03.64h-5.2c.01,2.12,1.22,2.91,2.59,2.91.95,0,1.53-.2,2-.39l.22.84Zm-.74-4.23c.01-1.04-.42-2.38-1.92-2.38-1.4,0-2.02,1.33-2.13,2.38h4.05Z"/><path class="cls-2" d="m234.34,118.93h-1.16v-4.51c0-1.25-.45-2.34-1.78-2.34-1,0-2,.84-2,2.17v4.68h-1.16v-5.67c0-.78-.03-1.36-.06-1.98h1.04l.07,1.25h.03c.38-.74,1.26-1.42,2.45-1.42.95,0,2.58.57,2.58,3.17v4.65Z"/><path class="cls-2" d="m237.6,109.91l1.15-.39v1.78h1.97v.91h-1.97v4.41c0,.97.29,1.5,1.04,1.5.35,0,.59-.04.79-.11l.07.9c-.25.11-.64.18-1.13.18-1.85,0-1.91-1.68-1.91-2.49v-4.38h-1.18v-.91h1.18v-1.39Z"/></g></g></g></svg>