<?xml version="1.0" encoding="UTF-8"?><svg id="_レイヤー_2" xmlns="http://www.w3.org/2000/svg" width="89.9207" height="26.75" viewBox="0 0 89.9207 26.75"><g id="_レイヤー_1-2"><g><polygon points="75.631 26.375 .375 26.375 .375 .375 75.631 .375 89.375 13.375 75.631 26.375" fill="none" stroke="#000" stroke-miterlimit="10" stroke-width=".75"/><g><path d="m19.1636,18.6206c-.1128,0-.208-.0391-.2861-.1172-.0776-.0781-.1167-.1733-.1167-.2861v-5.8237c0-.0435-.0112-.0669-.0327-.0718-.0215-.0039-.041.0112-.0586.0459-.0864.1299-.1709.2534-.2534.3701-.0825.1172-.167.2363-.2534.3579-.0693.0864-.1606.1299-.2729.1299-.0957,0-.1865-.0435-.2729-.1299-.0869-.0869-.1299-.1953-.1299-.3252,0-.1211.0386-.2339.1167-.3379.8667-1.1265,1.5122-2.6519,1.937-4.5762.0176-.104.0649-.186.1431-.2471.0781-.0605.1602-.0908.2471-.0908.147,0,.2598.0498.3379.1494s.1084.2104.0908.3315c-.0864.4507-.1968.8906-.3311,1.3193-.1348.4292-.2886.8472-.4619,1.2549-.0083.0259-.0127.0605-.0127.104v7.5396c0,.1128-.0371.208-.1108.2861s-.1665.1172-.2793.1172Zm2.2749-.2603c-.1904,0-.3555-.0693-.4937-.208-.1392-.1387-.208-.3032-.208-.4937v-5.356c0-.1997.0688-.3662.208-.5005.1382-.1343.3032-.2017.4937-.2017h1.5732c.0518,0,.0776-.0259.0776-.0781v-2.2749c0-.0522-.0259-.0781-.0776-.0781h-2.0669c-.1128,0-.2104-.041-.293-.1235-.082-.082-.123-.1797-.123-.2925,0-.1211.041-.2207.123-.2988.0825-.0781.1802-.1172.293-.1172h7.0977c.1216,0,.2212.0415.2993.1235.0776.0825.1167.1802.1167.2925,0,.1128-.0391.2104-.1167.2925-.0781.0825-.1777.1235-.2993.1235h-2.0801c-.0518,0-.0776.0259-.0776.0781v2.2749c0,.0522.0259.0781.0776.0781h1.5864c.1992,0,.3657.0674.5005.2017.1343.1343.2012.3008.2012.5005v5.356c0,.1904-.0669.355-.2012.4937-.1348.1387-.3013.208-.5005.208h-6.1104Zm.1953-.8057h1.3779c.0518,0,.0776-.0264.0776-.0781v-4.9922c0-.0518-.0259-.0776-.0776-.0776h-1.3779c-.0522,0-.0781.0259-.0781.0776v4.9922c0,.0518.0259.0781.0781.0781Zm2.314-5.9541h1.0786c.0522,0,.0781-.0259.0781-.0781v-2.2749c0-.0522-.0259-.0781-.0781-.0781h-1.0786c-.0522,0-.0781.0259-.0781.0781v2.2749c0,.0522.0259.0781.0781.0781Zm0,5.9541h1.0786c.0522,0,.0781-.0264.0781-.0781v-4.9922c0-.0518-.0259-.0776-.0781-.0776h-1.0786c-.0522,0-.0781.0259-.0781.0776v4.9922c0,.0518.0259.0781.0781.0781Zm2.0146,0h1.3911c.0522,0,.0781-.0264.0781-.0781v-4.9922c0-.0518-.0259-.0776-.0781-.0776h-1.3911c-.0518,0-.0776.0259-.0776.0776v4.9922c0,.0518.0259.0781.0776.0781Z"/><path d="m33.5029,18.6206c-.1128,0-.2061-.0391-.2798-.1172s-.1104-.1689-.1104-.2729v-4.5371c0-.043-.0112-.0669-.0327-.0713s-.041.0107-.0581.0454c-.2432.5894-.5249,1.1357-.8452,1.6382-.0781.1211-.1909.1816-.3379.1816-.0869,0-.165-.0259-.2339-.0776-.1128-.0781-.1694-.1909-.1694-.3384,0-.0864.0264-.1689.0781-.2466.2686-.3989.5073-.8301.7148-1.2935.208-.4639.3813-.9277.52-1.3911.1387-.4639.2344-.8989.2861-1.3066.0176-.0518-.0044-.0781-.0649-.0781h-1.0791c-.104,0-.1948-.0366-.2729-.1104s-.1167-.167-.1167-.2793c0-.1128.0386-.2061.1167-.2798.0781-.0732.1689-.1104.2729-.1104h1.144c.0522,0,.0781-.0259.0781-.0781v-1.8979c0-.1123.0391-.208.1172-.2861.0776-.0776.1689-.1167.2729-.1167.1211,0,.2188.0391.2925.1167.0732.0781.1104.1738.1104.2861v1.8979c0,.0522.0259.0781.0781.0781h.8447c.1128,0,.2061.0371.2798.1104.0732.0737.1104.167.1104.2798,0,.1123-.0371.2056-.1104.2793-.0737.0737-.167.1104-.2798.1104h-.8447c-.0522,0-.0781.0132-.0781.0391,0,.0347.0083.061.0259.0781.2256.2773.4375.6436.6372,1.0986.1992.4546.355.9253.4678,1.4102.0176.0957,0,.1885-.0518.2798-.0522.0908-.1299.1538-.2339.1885-.0869.0259-.1694.0127-.2471-.0391-.0781-.0522-.126-.1255-.1431-.2212-.0435-.2163-.0977-.4243-.1626-.624-.0649-.1992-.1323-.3809-.2017-.5459-.0088-.043-.0259-.0625-.0518-.0586-.0259.0049-.0391.0283-.0391.0718v5.7979c0,.1128-.0391.2061-.1172.2798-.0776.0732-.1733.1104-.2856.1104Zm1.8848-3.6919c-.0518.0171-.0952.0259-.1299.0259-.0957,0-.1821-.0391-.2603-.1172-.0776-.0781-.1167-.1733-.1167-.2856,0-.0781.0234-.1538.0713-.2275s.1147-.1279.2017-.1626c1.2046-.52,2.2446-1.1875,3.1201-2.002.043-.0435.043-.0781,0-.104-.4507-.5635-.8281-1.1182-1.1313-1.6641-.0259-.0605-.0605-.0649-.104-.0132-.2168.2515-.4399.4922-.6694.7217s-.4614.4312-.6953.6045c-.061.0435-.126.0649-.1953.0649-.1387,0-.2427-.0649-.3115-.1948-.0352-.0605-.0522-.1343-.0522-.2212,0-.1646.0649-.29.1948-.377.3813-.2944.7261-.624,1.0337-.9883.3076-.3638.5806-.7388.8188-1.124.2383-.3857.4312-.7476.5786-1.0859.0864-.1729.2124-.2598.377-.2598.1216,0,.2212.0435.2993.1299.0776.0869.1167.1777.1167.2729,0,.0522-.0127.104-.0391.1562-.0347.0864-.0757.1753-.1235.2666-.0474.0908-.0972.1841-.1494.2793-.0259.0605-.0088.0908.0522.0908h2.522c.1299,0,.2383.0459.3247.1367.0869.0908.1304.1973.1304.3184v.0845c0,.0308-.0088.0586-.0264.0845-.4419,1.0229-1.0269,1.9414-1.7549,2.7563-.0347.0347-.0347.0693,0,.104.3813.3813.8018.7363,1.2612,1.0659.459.3291.9531.5894,1.4819.7798.1992.0693.2988.2036.2988.4033,0,.1211-.0391.2188-.1172.2925-.0776.0737-.1689.1104-.2729.1104-.0518,0-.0908-.0044-.1167-.0132-.5723-.1992-1.1206-.4829-1.6445-.8516-.5244-.3682-1.0034-.7734-1.4365-1.2153-.0347-.0347-.0693-.0347-.104,0-.9966.9272-2.1406,1.647-3.4321,2.1582Zm1.5991,3.5747c-.1909,0-.3555-.0693-.4941-.208s-.208-.3032-.208-.4937v-2.6001c0-.1992.0693-.3662.208-.5005s.3032-.2017.4941-.2017h3.4058c.1992,0,.3662.0674.5005.2017s.2017.3013.2017.5005v2.6001c0,.1992-.0674.3657-.2017.5005-.1343.1343-.3013.2012-.5005.2012h-3.4058Zm.1821-.7798h3.042c.0518,0,.0776-.0259.0776-.0781v-2.2881c0-.0518-.0259-.0781-.0776-.0781h-3.042c-.0522,0-.0781.0264-.0781.0781v2.2881c0,.0522.0259.0781.0781.0781Zm1.6509-6.2402c.0347.0522.0693.0522.104,0,.5112-.5806.9404-1.2134,1.2871-1.8979.0171-.0259.0195-.0474.0063-.0649-.0132-.0171-.0327-.0259-.0586-.0259h-2.4048c-.0435,0-.0737.0127-.0913.0391-.0259.0259-.0259.0605,0,.104.1216.2773.2798.5718.4746.8838s.4224.6328.6826.9619Z"/><path d="m48.1924,11.4966c-.1909,0-.3555-.0693-.4941-.208s-.208-.3032-.208-.4941v-1.0659c0-.0518-.0259-.0781-.0776-.0781h-1.5732c-.1128,0-.2061-.0391-.2793-.1167-.0737-.0781-.1108-.1733-.1108-.2861s.0371-.208.1108-.2861c.0732-.0781.1665-.1167.2793-.1167h1.5732c.0518,0,.0776-.0264.0776-.0781v-.6499c0-.1128.0391-.208.1172-.2861s.1733-.1172.2861-.1172c.1211,0,.2188.0391.2925.1172.0732.0781.1104.1733.1104.2861v.6499c0,.0518.0259.0781.0781.0781h2.002c.0518,0,.0781-.0264.0781-.0781v-.8579c0-.1128.0391-.208.1167-.2861.0781-.0781.1733-.1172.2861-.1172.1211,0,.2188.0391.2925.1172s.1104.1733.1104.2861v.8579c0,.0518.0264.0781.0781.0781h2.002c.0522,0,.0781-.0264.0781-.0781v-.6499c0-.1128.0391-.208.1172-.2861.0776-.0781.1729-.1172.2856-.1172.1216,0,.2188.0391.2925.1172.0737.0781.1108.1733.1108.2861v.6499c0,.0518.0259.0781.0776.0781h1.5732c.1123,0,.208.0386.2861.1167.0776.0781.1167.1733.1167.2861s-.0391.208-.1167.2861c-.0781.0776-.1738.1167-.2861.1167h-1.5732c-.0518,0-.0776.0264-.0776.0781v1.0659c0,.1909-.0674.3555-.2017.4941s-.3013.208-.5005.208h-5.3301Zm-2.002,3.5229c-.1128,0-.2104-.0391-.2925-.1172-.0825-.0776-.1235-.1729-.1235-.2856v-1.5342c0-.1992.0693-.3662.208-.5005s.3032-.2017.4941-.2017h8.7617c.1992,0,.3662.0674.5005.2017s.2017.3013.2017.5005v1.5342c0,.1128-.0391.208-.1172.2856-.0776.0781-.1733.1172-.2856.1172-.1128,0-.2104-.0391-.2925-.1172-.0825-.0776-.1235-.1729-.1235-.2856v-1.3784c0-.0518-.0264-.0776-.0781-.0776h-8.3721c-.0518,0-.0781.0259-.0781.0776v1.3784c0,.1128-.0391.208-.1167.2856-.0781.0781-.1738.1172-.2861.1172Zm4.667,3.6011c-.1128,0-.208-.0391-.2861-.1172-.0776-.0781-.1167-.1689-.1167-.2729v-2.873c0-.0518-.0264-.0781-.0781-.0781h-2.002c-.0522,0-.0781.0264-.0781.0781v2.314c0,.104-.0371.1953-.1104.2729-.0737.0781-.167.1172-.2798.1172s-.2056-.0391-.2793-.1172c-.0737-.0776-.1104-.1689-.1104-.2729v-2.4697c0-.1992.0688-.3662.208-.5005.1382-.1343.3032-.2017.4937-.2017h2.1582c.0518,0,.0781-.0259.0781-.0781v-.481c0-.1123.0391-.208.1167-.2861.0781-.0776.1733-.1167.2861-.1167.1211,0,.2188.0391.2925.1167.0737.0781.1104.1738.1104.2861v.481c0,.0522.0264.0781.0781.0781h2.1582c.1992,0,.3657.0674.5005.2017.1343.1343.2012.3013.2012.5005v1.8457c0,.3384-.1167.5898-.3506.7544-.2344.1641-.6025.2466-1.1055.2466-.1123,0-.208-.041-.2856-.1235-.0781-.082-.1172-.1797-.1172-.2925,0-.104.0391-.1924.1172-.2661.0776-.0737.1733-.1108.2856-.1108.2773,0,.4595-.0215.5464-.0649.0864-.043.1299-.1343.1299-.2729v-1.5601c0-.0518-.0259-.0781-.0781-.0781h-2.002c-.0518,0-.0781.0264-.0781.0781v2.873c0,.1128-.0391.2061-.1167.2798-.0781.0732-.1738.1104-.2861.1104Zm-2.4829-7.8652h2.002c.0518,0,.0781-.0259.0781-.0776v-.9492c0-.0518-.0264-.0781-.0781-.0781h-2.002c-.0522,0-.0781.0264-.0781.0781v.9492c0,.0518.0259.0776.0781.0776Zm2.9639,0h2.002c.0522,0,.0781-.0259.0781-.0776v-.9492c0-.0518-.0259-.0781-.0781-.0781h-2.002c-.0518,0-.0781.0264-.0781.0781v.9492c0,.0518.0264.0776.0781.0776Z"/></g></g></g></svg>