<?xml version="1.0" encoding="UTF-8"?><svg id="_レイヤー_2" xmlns="http://www.w3.org/2000/svg" width="192" height="205" viewBox="0 0 192 205"><g id="_レイヤー_1-2"><g><g><circle cx="96" cy="109" r="96" fill="#fff"/><g><path d="m85.0792,135.5327c5.2185,5,16.6992,5,21.9177,0,.8963-.8587-6.623-2.8089-11.4807-3" fill="#fed9d0"/><path d="m106.9969,134.7535c.8963-.6364-6.1392-3.0792-10.9969-3.2208-4.6003-.1341-11.8849,3.3716-11,4,5.2185,3.7056,16.7784,2.9264,21.9969-.7792Z" fill="#fecdc0"/><path d="m141.4039,190.6377c-.3106.0394-.6212.1132-.9319.1132-29.6939.0007-59.3878-.004-89.0818-.0128-.342-.0002-.6841-.0603-1.0261-.0924.5235-.306,1.0558-.5981,1.5692-.9202,3.3777-2.1191,6.8268-4.1353,10.1068-6.3965,3.9177-2.7008,6.9965-6.1831,8.9964-10.5741,1.1656-2.5594,2.0922-5.1873,2.8472-7.8921,1.4175-5.0778,1.7417-10.2363,1.2949-15.4641-.0318-.3719-.0971-.741-.1469-1.1113.059-.0318.1181-.0634.1771-.0951.2259.1589.4595.3082.6765.4785,1.1824.9286,2.3318,1.9019,3.546,2.7866,3.3707,2.4561,6.8569,4.7126,10.788,6.2082,2.7484,1.0457,5.5597,1.286,8.4384.8074,1.8385-.3057,3.555-1.0058,5.2235-1.8108,4.2192-2.0355,8.0087-4.726,11.6201-7.683.3496-.2863.6973-.5749,1.1355-.9362-.0745,1.3692-.1255,2.5811-.2092,3.7907-.1844,2.6671-.0884,5.3412.3756,7.954.4881,2.749,1.1961,5.4725,1.9996,8.1495,2.0992,6.9945,6.1732,12.5569,12.3963,16.458,3.3783,2.1179,6.8017,4.164,10.2047,6.2425Z" fill="#fefefe"/><path d="m141.4039,190.6376c-3.403-2.0785-6.8264-4.1245-10.2047-6.2424-6.2231-3.9011-10.2971-9.4635-12.3963-16.458-.8035-2.6771-1.5115-5.4005-1.9996-8.1495-.464-2.6128-.56-5.2869-.3756-7.954.0837-1.2095.1347-2.4214.2092-3.7907-.4381.3614-.7859.6499-1.1355.9362-3.6115,2.957-7.4009,5.6475-11.6201,7.683-1.6685.8049-3.385,1.505-5.2235,1.8108-2.8787.4787-5.6899.2383-8.4384-.8074-3.9311-1.4956-7.4173-3.7522-10.788-6.2082-1.2142-.8847-2.3636-1.858-3.546-2.7866-.217-.1703-.4506-.3196-.6765-.4785-.059.0317-.1181.0633-.1771.0951.0497.3703.115.7394.1469,1.1113.4468,5.2278.1225,10.3863-1.2949,15.4641-.7551,2.7049-1.6816,5.3327-2.8472,7.8921-1.9999,4.391-5.0787,7.8733-8.9964,10.5741-3.28,2.2611-6.7291,4.2774-10.1068,6.3965-.5134.3221-1.0457.6142-1.5693.9202-.1834.0812-.3735.1503-.5492.246-.8118.4419-1.1948.3696-1.5771-.3094-.2746-.4877-.0528-.9666.6604-1.3774.9448-.5442,1.9078-1.0576,2.8429-1.6179,1.92-1.1505,3.8451-2.2942,5.7326-3.4966,1.3991-.8912,2.7927-1.8064,4.0956-2.8294,1.2134-.9528,2.3162-2.0491,3.4458-3.1056,2.035-1.9035,3.3736-4.2771,4.5351-6.7705,1.4274-3.064,2.3726-6.2801,3.056-9.5793.2434-1.1748.4864-2.3521.6592-3.5385.1321-.9069.1952-1.8289.2145-2.7457.031-1.4734.0454-2.9499-.0164-4.4216-.0637-1.5179-.2142-3.0328-.3596-4.5458-.0219-.2273-.1705-.5053-.35-.6448-1.6293-1.2669-2.8822-2.8871-4.2275-4.4227-3.0319-3.4606-5.3778-7.377-7.5878-11.3832-.9048-1.6402-1.7962-3.2888-2.6419-4.9598-.2317-.458-.53-.7037-.9937-.8435-2.1738-.6554-4.108-1.7918-5.9178-3.1192-2.1167-1.5524-3.6797-3.6066-5.0426-5.8374-1.4119-2.3106-2.3224-4.8201-2.9888-7.4119-.4926-1.9161-.6478-3.8923-.6281-5.8864.0172-1.7378.2405-3.4198.8506-5.0265-1.8607-.8883-2.5914-2.4841-2.898-4.3422-.2795-1.6937.28-3.2326.9905-4.7224.1703-.3573.1226-.6256-.0218-.9645-.817-1.917-1.2915-3.9086-1.3399-6.0057-.0667-2.8937.4669-5.6513,1.7473-8.2519.456-.926,1.0523-1.7946,1.4098-2.7544.374-1.0045.5493-2.0847.7781-3.139.0255-.1178-.1635-.2845-.2576-.4256-.6911-1.0356-.8781-2.1907-.6908-3.3884.3163-2.0226,1.2821-3.7332,2.6857-5.2031.6521-.6831,1.3339-1.3378,1.9824-2.0242.1515-.1605.2484-.3877.3259-.6005.659-1.8086,1.1846-3.6779,1.99-5.418,1.0501-2.2686,2.2225-4.4939,3.8803-6.411.9763-1.129,1.8561-2.355,2.9239-3.3878,1.4999-1.4509,2.9759-2.9669,4.9388-3.8418.1529-.0682.2923-.2493.361-.4107.6769-1.5917,1.7104-2.9607,2.9221-4.1417,2.4333-2.3717,5.2286-4.2019,8.545-5.1492.5098-.1456,1.0196-.386,1.4523-.6917,3.7144-2.624,7.9034-4.0973,12.2975-5.0302,1.6575-.3518,3.3584-.5513,5.05-.6711,1.0515-.0745,2.1224.1374,3.1856.206.311.0201.642.0519.9355-.0272,3.7437-1.0085,7.4727-.9506,11.1693.1904,1.2625.3897,2.495.8916,3.7087,1.4173.5983.2592,1.17.4515,1.8272.4044,1.5598-.1117,2.9589.3447,4.2425,1.2219.7929.5419,1.2399,1.3485,1.7525,2.1158.1393.2085.4039.459.6218.4697,1.9833.0971,3.6661.9367,5.2564,2.0312,2.2901,1.5761,3.9767,3.6345,5.1759,6.1521.3806.7993,1.0769,1.5022,1.7641,2.0917,2.1949,1.883,3.9333,4.1249,5.4688,6.5514,1.8662,2.9492,3.0716,6.1923,4.2981,9.4317.1851.4888.5287.9607.9092,1.3254,1.9656,1.8829,3.3926,4.0955,4.0226,6.744.5245,2.2046.601,4.4575.1667,6.6976-.0767.3955.018.6399.2429.9371,1.3643,1.8032,2.5441,3.705,3.2034,5.8987.6733,2.2401.942,4.4998.4827,6.8124-.2297,1.1564-.5007,2.3046-.7309,3.4609-.0466.2343-.0759.5314.0263.7264.7641,1.4575.5554,2.9165.0114,4.3569-.1719.4551-.1381.7992.0594,1.2219,1.2898,2.7618,1.1987,5.4633-.4196,8.08-.0303.0491-.0431.12-.0856.1487-1.1182.7543-1.0231,1.8324-1.0004,3.0241.1137,5.9765-1.7421,11.3596-5.3168,16.1131-2.0361,2.7075-4.7762,4.6268-7.9099,5.8539-1.418.5552-2.269,1.3373-2.9614,2.6951-2.2676,4.4464-4.7691,8.768-7.7411,12.7954-1.7204,2.3312-3.6974,4.4357-5.8017,6.4188-.5712.5385-.8046,1.1118-.8088,1.9007-.0149,2.7435-.1605,5.4868-.1469,8.2297.0149,3.0156.6975,5.9377,1.4452,8.8458.904,3.5161,2.2509,6.8543,4.0865,9.9748,1.2044,2.0475,2.7989,3.8013,4.6083,5.3579,4.0513,3.4855,8.68,6.0847,13.2898,8.7155.3508.2002.7048.3953,1.0492.606.6699.4099.8829,1.0073.5511,1.5144-.2952.4511-.8841.5041-1.5352.1311-.1228-.0704-.2317-.1649-.3471-.2483Zm-7.1945-119.626c-1.9096-2.9202-3.8066-5.8487-5.741-8.7524-.3235-.4858-.8089-.8637-1.2195-1.2915-.3876-.4221-.7894-.8324-1.1594-1.2694-.429-.5068-.78-1.0889-1.2526-1.5479-1.6146-1.5683-3.2748-3.0894-4.9038-4.643-1.4668-1.399-2.9821-2.7257-4.7951-3.6764-.4344-.2278-.8087-.5702-1.2106-.86,1.0773.3726,2.1837.6795,3.2227,1.1387.8129.3594,1.5157.9608,2.3142,1.3616,2.2207,1.1145,4.4549,2.2036,6.704,3.2598,2.8282,1.3282,5.7153,2.5144,8.7188,3.3963.3008.0883.6099.1481.9151.2212-.0372-.2387-.1154-.3185-.2078-.3748-3.4066-2.0769-6.82-4.1426-10.2204-6.2294-2.5564-1.5689-5.2357-2.8174-8.2009-3.4118-1.1491-.2303-2.365.1722-3.4708-.4112-.1073-.0566-.2838.0102-.4266.0306-.3714.0529-.7421.1118-1.113.1684-.3242-.1562-.8421.2284-1.0108-.3618,1.6763-.5398,3.3557-1.0709,5.0284-1.6215,3.1368-1.0327,6.218-2.1907,8.9576-4.0932,1.4027-.9741,2.7763-1.9808,3.8456-3.3405.5412-.6883.781-1.451.7563-2.3344-.0278-.9935-.3598-1.8244-.941-2.6336-1.7823-2.4812-3.8591-4.6043-6.696-5.8706-.5962-.2662-1.1988-.5305-1.9007-.4489.0508.4256.1073.7935.1371,1.1636.2035,2.5376-.3311,4.9408-1.3445,7.2525-1.0679,2.4363-2.6658,4.5301-4.353,6.5497-.773.9253-1.6876,1.7386-2.5834,2.5528-.4937.4487-1.0706.8279-1.9368.6472.4053-.369.7391-.6376,1.0319-.9453,2.1039-2.21,3.8381-4.6979,5.4052-7.3031,1.0346-1.7199,1.7809-3.5683,2.1665-5.5448.2554-1.309.4209-2.6342.0503-3.9472-.0735-.2604-.3168-.5332-.556-.6751-.6931-.411-1.4298-.7478-2.1389-1.133-1.3679-.743-2.7285-1.4993-4.0921-2.2501l-.9121-.5032c-.4296-.2238-.8458-.4796-1.2911-.6657-1.9575-.8179-4.0144-1.2615-6.103-1.582-.4987-.0765-.9056.0384-1.2355.4356-.903,1.087-1.9125,2.1002-2.7026,3.2631-1.8498,2.7226-2.8615,5.767-3.2279,9.0435-.3196,2.8584-.1495,5.6489.9133,8.3434.142.3601.3719.7451.6719.9721.8933.676,1.8446,1.2751,2.7665,1.9139.1826.1266.3352.2965.5016.4464-.6497.34-1.2364-.0434-1.8463-.1606-.0836-.0779-.1569-.1725-.2523-.2311-3.0521-1.8772-5.2926-4.456-6.6476-7.7741-1.2578-3.08-1.8275-6.2536-1.1345-9.572.0329-.1572.0042-.3272.0042-.5066-.0976.0329-.1767.035-.1973.0707-.1144.1987-.229.3997-.3176.6108-.7811,1.8594-1.1109,3.8081-1.2554,5.8137-.2791,3.8732.6111,7.3732,3.0829,10.4236.1468.1812.188.4476.2784.6744-.0713.053-.1425.1061-.2138.159-.339-.2458-.754-.4325-1.0018-.7496-.584-.7474-1.2218-1.4981-1.5991-2.3529-1.026-2.3241-2.0335-4.6669-2.8543-7.0685-1.1596-3.3936-1.0322-6.8313.2224-10.1909.3643-.9757.9376-1.8734,1.4267-2.8297-2.4418.3822-4.8155,1.0873-7.1389,1.9673-2.2539.8537-4.4246,1.8916-6.2964,3.4273-1.1888.9753-1.9907,2.2627-2.1694,3.8274-.1876,1.6422.135,3.209.8124,4.7256,1.5167,3.3953,4.1803,5.5536,7.5089,6.9577,2.5859,1.0907,5.2632,1.9258,8.015,2.5113.2958.0629.5543.3014.8301.4584-.1063.0149-.2127.0296-.319.0444-3.9054.0358-7.5678-.9405-10.9547-2.8342-3.6095-2.0182-6.018-5.016-6.8291-9.1436-.1682-.8558-.1274-1.7527-.1873-2.7009-.5382.4237-.4234,1.2593-1.2298,1.5834-.2787-1.707.7504-2.9018,1.3679-4.2241-2.9986,1.4403-5.6059,3.3035-7.7206,5.8365-1.2855,1.5397-1.9634,3.1565-1.5821,5.2405.4599,2.5137,1.5619,4.5703,3.5682,6.1411.1444.1131.348.1507.524.2234.0093-.2376-.0443-.3419-.1277-.4095-2.9731-2.4103-3.7411-8.2869-1.2711-11.8667.1797-.2605.4413-.4646.6649-.6949.0624.0371.1249.0742.1874.1114-.0801.3543-.1121.7285-.249,1.0593-.5017,1.2124-.8714,2.4594-.9222,3.7713-.0861,2.2255.3183,4.3483,1.8269,6.0707.9091,1.0381,1.9736,1.944,2.9985,2.876,1.3936,1.2672,3.0365,1.8643,4.9324,1.7201.142-.0108.2887.0401.4653.0673-.0639.1035-.073.1391-.093.1469-.1055.041-.2115.0851-.3213.11-1.7384.3924-3.4511.2307-5.1371-.2794-.6015-.182-1.17-.1965-1.7776-.019-4.2023,1.2279-8.2947,2.7296-12.1551,4.8168-4.3343,2.3435-7.6775,5.6322-9.6197,10.2181-.4921,1.1619-.8504,2.3806-1.2703,3.5731.0632.0284.1263.0567.1894.085.1632-.155.3333-.3033.4885-.4659,2.5287-2.6526,5.3811-4.8933,8.4876-6.8383,5.149-3.2239,10.7287-5.682,15.8386-8.9772,1.2913-.8327,2.797-1.2392,4.323-1.4887.7593-.1241.9335.0167.956.7444l-.4718.2313c-1.2855.4216-2.6257.7247-3.8451,1.289-2.678,1.2393-4.9358,3.1047-7.0607,5.1268-1.6343,1.5553-3.2214,3.161-4.8758,4.6942-2.227,2.0638-4.4989,4.0792-6.7506,6.1164-.1969.1781-.3864.3644-.5793.5469.0616.0658.1231.1316.1846.1974,6.7129-3.6469,12.1082-8.885,17.3264-14.6489.0495,1.1073-.5482,1.7758-.8635,2.5367-.5929.6724-1.191,1.3404-1.7759,2.0199-.1865.2165-.3772.4446-.4989.6994-.958,2.0053-1.8684,4.034-2.8533,6.026-2.0248,4.0955-4.0818,8.1747-6.6508,11.9704-.2518.3722-.3998.828-.5342,1.2641-.8794,2.8553-1.2325,5.8164-1.7459,8.7459-.4142,2.3637-.7038,4.825-2.0485,6.8462-1.0334,1.5533-.9116,2.97-.57,4.6279,1.2252,5.9458,2.7188,11.8068,4.6748,17.5628,2.5041,7.3691,6.083,14.1758,10.4818,20.5526,4.5698,6.6246,10.583,11.747,17.3193,16.0623,2.1232,1.3601,4.3473,2.5239,6.7263,3.379,2.1665.7787,4.3846.979,6.6597.6453,2.0599-.3022,3.9559-1.0864,5.7753-2.0382,6.6878-3.4986,12.489-8.1537,17.4836-13.7846,4.6459-5.2378,8.0696-11.2898,10.9602-17.6123,4.0105-8.7721,6.3209-18.0773,8.0733-27.5283.045-.2425-.0649-.5588-.1994-.7825-1.3923-2.3168-2.5185-4.7526-3.1954-7.3715-.8962-3.4675-1.7781-6.9401-2.5816-10.4299-1.0374-4.5055-2.932-8.6242-5.4096-12.4984.062-.1449.124-.2899.2795-.6538.651.9016,1.2228,1.6462,1.7437,2.4247,1.0747,1.606,2.1222,3.2303,3.1809,4.8471.9922,1.7278,1.9509,3.476,2.9841,5.179,1.7401,2.8684,3.5044,5.7287,6.0863,7.953,1.8314,1.5778,3.7714,2.9954,6.0433,3.9066.6228-2.25-.0866-3.4901-1.6181-4.2488-.4391-.2175-.9063-.3778-1.3514-.5839-.5756-.2666-1.1714-.5057-1.7075-.839-2.3804-1.4801-4.4568-3.317-6.1152-5.5772-1.4349-1.9556-2.7701-3.9842-4.1493-5.9806Zm-6.6008-10.9769l-.0697.1383c.1483.1669.2884.3419.4463.499.5494.547,1.1862,1.0275,1.6428,1.6425,1.2908,1.7386,2.5273,3.5186,3.7505,5.306,1.5175,2.2173,2.9792,4.4729,4.503,6.6858,2.3665,3.4365,5.3586,6.195,9.0478,8.1728.3412.1829.7108.3126,1.247.5451-.0991-1.6771-.1624-3.1694-.2839-4.657-.082-1.0049-.1682-2.0205-.3864-3.0015-1.2681-5.7045-4.4003-10.0887-9.3962-13.1442-.5207-.3186-1.0267-.478-1.6293-.4322-2.832.2153-5.5111-.3887-8.089-1.5305-.2458-.1089-.5213-.1511-.783-.2242Zm-63.6811,1.7653c-.053-.0451-.1059-.0902-.1588-.1354-.1335.0801-.2829.1419-.398.2428-1.0427.9139-2.0765,1.8379-3.1183,2.7529-2.8666,2.5176-6.0189,4.5856-9.5732,6.0026-1.6766.6684-3.4372,1.1326-5.2334.9742-.8322-.0733-1.1334.1955-1.4461.7984-1.793,3.4574-2.5435,7.0963-1.9312,10.9741.1463.9265.3209,1.8486.5043,2.8969.9576-.933,1.8336-1.7231,2.6378-2.5807,3.4779-3.709,6.9866-7.3912,10.3811-11.1757,2.2542-2.5132,4.3651-5.1579,6.4748-7.7959.7223-.9031,1.2463-1.9649,1.8609-2.9542Zm53.5028-14.718c.0088.0725.0176.145.0263.2176.2082.06.4138.1312.6249.1784,2.4741.5544,4.8104,1.4586,6.9762,2.7805,4.586,2.7992,9.1411,5.6503,13.7562,8.4006,3.194,1.9034,5.7534,4.3422,7.2765,7.7809.0357.0806.1341.1334.2596.253.1321-1.6152-.2134-3.0805-.4593-4.5594-.5181-3.1162-1.9402-5.7285-4.3348-7.7861-1.8221-1.5657-3.7412-2.9931-5.8892-4.1075-4.7672-2.4734-9.7442-4.1193-15.1892-3.8492-1.0247.0508-2.0319.4518-3.0471.6912Zm-66.6751,54.8269c.0415-.0048.0829-.0096.1243-.0144-.377-1.7727-.7662-3.5431-1.122-5.3201-.0821-.4101-.3123-.5683-.6713-.6809-1.6494-.5174-3.0632.0887-3.8098,1.6659-.6059,1.28-.7763,2.6604-.8155,4.0485-.1219,4.3176.9836,8.3461,2.9902,12.1408,1.8982,3.5898,4.6747,6.2803,8.3531,8.0244.3506.1663.7077.319,1.0618.4781-.437-1.6017-.9826-3.0769-1.5571-4.5408-.0624-.1591-.272-.2964-.4448-.3707-1.6837-.724-3.0421-1.8974-4.2768-3.1997-1.8651-1.9673-2.9187-4.3488-3.2799-7.0299-.0535-.3965-.1767-.857.3485-1.2657.1629.2866.329.5085.4213.7575.1501.4052.2496.829.3743,1.2437.5281,1.7573,1.2567,3.4182,2.4192,4.856,1.0335,1.2783,2.3202,2.2606,3.7124,3.1231-.0361-.2274-.1185-.4051-.228-.5642-.6554-.9515-1.2696-1.9365-1.9884-2.838-.9243-1.1594-.9829-2.3464-.3716-3.6387.1207-.2551.2936-.5685.2393-.8091-.2344-1.0376-.3742-2.1503-.8678-3.0628-.708-1.3088-1.6942-2.467-2.6562-3.8228-.4137.5333-.7411.9554-1.0684,1.3774-.2021.2607-.4305.5342-.7888.3189-.4109-.2469-.2644-.6106-.0528-.9003.3716-.5087.7831-.9881,1.2313-1.5461-.199-.1507-.4573-.317-.6782-.5235-.1465-.137-.2393-.3313-.3562-.5.1821-.1218.3979-.3762.5398-.3402.3979.1012.8564.2339,1.1274.513.7418.7632,1.3995,1.608,2.0905,2.4204Zm84.0072,20.2223c.0472.0429.0943.0859.1415.1289.5436-.2619,1.1068-.4902,1.6266-.793.8978-.5229,1.8024-1.0454,2.6446-1.6507,2.5545-1.8362,4.3348-4.3205,5.6631-7.1228,1.7335-3.6571,2.6936-7.508,2.4009-11.5831-.0817-1.1367-.3914-2.2682-.6998-3.3732-.1954-.6999-.6559-1.2898-1.3299-1.6496-.8725-.466-1.8003-.4856-2.6806-.1138-.6331.2675-.5915.9834-.7162,1.5599-.0182.0846-.0508.1661-.0688.2507-.2779,1.304-.5546,2.6083-.8315,3.9126.0492.0307.0984.0613.1475.0921.1855-.2002.3773-.395.555-.6017.5087-.5917.9739-1.2277,1.5337-1.7655.2627-.2523.6934-.3705,1.0688-.4451.1517-.0301.3588.2184.5408.3402-.1199.1687-.2182.3598-.3647.5006-.213.2047-.4609.3732-.6602.5305.4487.5583.8411,1.0172,1.1982,1.502.2117.2875.3822.651-.0046.914-.3951.2686-.6271-.0576-.8443-.3419-.3081-.4033-.6222-.802-1.0112-1.3023-1.3723,1.9134-2.9719,3.4855-3.335,5.8275-.1177.7594-.2439,1.4361.1204,2.1622.5397,1.0758.407,2.0931-.3251,3.0829-.8518,1.1517-1.6227,2.3633-2.4826,3.6282.2386-.0884.4383-.1195.5865-.2237,2.0388-1.4348,3.8317-3.0988,4.7939-5.467.4448-1.0947.7873-2.2307,1.1855-3.3447.1186-.3318.1305-.7573.6052-.8396.2859.5598.3172.8634.1415,1.7593-.8685,4.4277-3.441,7.5436-7.3928,9.6022-.2144.1116-.4717.2807-.5533.4852-.5739,1.4371-1.1071,2.8904-1.6533,4.3386ZM50.2579,53.9218c2.5874-1.7163,5.1171-3.1881,7.8523-4.2828,2.7312-1.0931,5.5504-1.8834,8.552-2.5434-3.2443-2.4065-4.7658-5.5141-4.4828-9.5091-5.6219,4.2005-9.4794,9.6245-11.9215,16.3353Zm96.4623,41.8407c.638-.0825.6653-.079.73-.5776.215-1.6574.4408-3.3148.5863-4.9788.0336-.3846-.1328-.889-.3898-1.1729-.3953-.4365-.9141-.7957-1.4409-1.0729-2.3736-1.2486-4.6076-2.6888-6.2251-4.8702-1.3217-1.7824-2.5194-3.6566-3.7691-5.4921-.1828-.2685-.3486-.5485-.5223-.8232-.0899.3505-.0356.6252.0367.8951.3139,1.1706.6331,2.3397.9503,3.5094,1.0253,3.7817,1.7204,7.6703,3.6451,11.1597.4693.8507.9004,1.7223,1.2711,2.4344,1.0671-.2398,1.9916-.6521,2.8844-.5921.9396.063,1.9248.4715,2.2434,1.5812Zm-23.1184-50.6233c2.9488.101,5.7318.8689,8.4525,1.9124,2.7591,1.0582,5.4001,2.3444,7.8311,4.0776.0632-2.4365-5.2069-11.5358-7.4148-12.9454-.3542.7934-.5739,1.7111-1.1085,2.3755-.6744.838-1.5457,1.5567-2.4394,2.1705-1.6053,1.1024-3.4225,1.7842-5.3208,2.4094Zm-78.6048,49.9669c2.9662-1.2676,5.1043-3.2502,6.5834-5.8399,1.4699-2.5739,2.4299-5.3623,2.5213-8.3964-.2586.1676-.452.3674-.6299.58-1.7661,2.1101-3.8885,3.7707-6.3255,5.0398-1.0253.5339-2.0835.8776-3.2637.583.3756,2.7073.7402,5.3357,1.1144,8.0335ZM100.9712,20.9879c-2.1824.1404-4.191.492-6.1041,1.2809-.2354.0971-.4441.3697-.567.611-.9794,1.9231-1.6767,3.9668-1.8909,6.0989-.3852,3.8352.55,7.4033,2.6279,10.6591.1361.2131.3298.3894.4968.5828-1.2637-7.2845.338-13.6543,5.4373-19.2327Zm-55.7223,49.4414c1.3697-.2287,2.7432-.3738,4.0101-.9634.1279-.0596.252-.1417.3555-.2376.8873-.8218,1.7771-1.6414,2.6521-2.4763,3.0137-2.8755,6.0225-5.7563,9.0305-8.6379.2269-.2175.4326-.4571.6481-.6865-.2187-.0691-.328-.0399-.4224.0149-4.4058,2.5517-8.8551,5.0388-12.6168,8.5427-1.3992,1.3033-2.6613,2.719-3.6571,4.4442Zm13.6448.7999c-.1138-.1148-.2278-.2295-.3416-.3442-.1057.2028-.1726.4413-.3225.6028-2.6953,2.9036-5.4053,5.7936-8.1022,8.6958-1.6708,1.7981-3.3264,3.6104-4.9854,5.4193-.2648.2888-.512.5939-.7673.8914,6.8001-3.2609,10.8541-9.0811,14.519-15.2651Zm29.5253-37.3708c.0942-.2328.1367-.2997.148-.3715.1647-1.051.3108-2.1051.4893-3.1537.5538-3.2526,2.0337-5.9788,4.6025-8.0929.2138-.1759.3096-.4951.5782-.9455-1.1419.075-2.0597.1101-2.9701.2112-.2545.0283-.5755.1912-.7147.3954-.5667.8307-1.19,1.6519-1.5818,2.5669-1.0595,2.4738-1.1973,5.0876-.8928,7.733.0582.506.2036,1.0019.3414,1.6571Zm34.1301,20.3357c4.1556,4.9086,10.4992,7.1888,16.0588,5.9113-5.762-.9889-10.9018-3.4736-16.0588-5.9113Zm-74.6854,3.7797c-2.3203,1.7206-4.0988,5.5141-3.0814,7.1187.6674-1.9995,1.6144-3.8354,2.712-5.6048.2292-.3695.2244-.884.3694-1.5139Zm100.4531,14.1488c.5054,1.7807.9297,3.5707.9754,5.4242.046,1.8694.1565,3.7537-.6555,5.5944.2496.1179.458.2163.7635.3605.7188-3.9902.8719-7.7942-1.0834-11.3792Zm-99.6377,22.1263c.6027.1603,1.26.335,1.9017.5057.8308-1.0561,1.8029-3.4203,1.7972-4.2708-1.2071,1.2287-2.449,2.4929-3.6989,3.7651Zm-5.6976-5.1299c-1.3663,1.8717-.753,5.7309,1.0929,6.4716-.2797-1.0764-.6248-2.1083-.802-3.1682-.1825-1.0916-.2016-2.2106-.2909-3.3035Zm84.2422-46.7422c2.813-.8504,5.0202-4.2646,3.7202-5.8723.0284,2.8253-2.0146,4.2288-3.7202,5.8723Zm22.2637,49.9177c-.3565,1.4714-.6896,2.9573-1.087,4.4259-.1375.5082-.1505.946.1985,1.4822.9218-1.9607,1.6568-3.8549.8884-5.9082Zm-9.9233-30.7106c1.1313.8228,2.182,1.587,3.2327,2.3511.0469-.0564.0937-.1129.1406-.1693-.6466-.6382-1.3016-1.2681-1.9368-1.9174-.4099-.4191-.8634-.4799-1.4365-.2643Zm-88.9501-5.9381c-.7927.1906-1.292.67-1.4841,1.425.6011-.2083,1.1957-.7792,1.4841-1.425Z" fill="#a1725a"/><path d="m104.1935,45.8275c-.9413-.1258-1.8826-.2515-2.8239-.3773-.1664-.1499-.319-.3198-.5016-.4464-.9219-.6388-1.8732-1.2379-2.7665-1.9139-.3-.227-.5299-.612-.6719-.9721-1.0628-2.6945-1.2328-5.485-.9133-8.3434.3664-3.2764,1.3781-6.3209,3.2279-9.0435.7901-1.1629,1.7996-2.1761,2.7026-3.2631.3299-.3972.7368-.5121,1.2355-.4356,2.0886.3205,4.1455.764,6.103,1.582.4453.186.8615.4419,1.2911.6657.0448.2154.0464.4522.1417.6423.4001.7987.8565,1.5698,1.2396,2.3761.6337,1.3342,1.1811,2.7122,1.2723,4.2021.2535,4.1392-1.0658,7.7143-3.9248,10.7282-1.2665,1.3353-2.7467,2.3719-4.3348,3.2784-.5441.3106-1.1264.6153-1.2768,1.3205Z" fill="#e2bdb0"/><path d="m99.5233,45.2895c-1.7331.0075-3.4676-.0236-5.1989.0357-1.235.0424-2.4657.2065-3.6984.3162-.2757-.157-.5342-.3955-.8301-.4584-2.7518-.5855-5.4291-1.4206-8.015-2.5113-3.3285-1.404-5.9922-3.5623-7.5089-6.9577-.6775-1.5166-1-3.0835-.8124-4.7256.1787-1.5647.9807-2.8521,2.1694-3.8274,1.8718-1.5357,4.0425-2.5735,6.2964-3.4273,2.3234-.88,4.6971-1.5851,7.1389-1.9673-.4892.9563-1.0624,1.854-1.4267,2.8297-1.2546,3.3595-1.382,6.7973-.2224,10.1909.8208,2.4017,1.8282,4.7445,2.8543,7.0685.3773.8547,1.0151,1.6055,1.5991,2.3529.2478.3171.6628.5038,1.0018.7496.0713-.053.1425-.106.2138-.159-.0904-.2268-.1316-.4933-.2784-.6744-2.4718-3.0504-3.362-6.5504-3.0829-10.4236.1445-2.0057.4743-3.9543,1.2554-5.8137.0887-.211.2032-.412.3176-.6108.0206-.0357.0997-.0378.1973-.0707,0,.1795.0286.3495-.0042.5066-.693,3.3184-.1233,6.492,1.1345,9.572,1.355,3.3181,3.5955,5.8968,6.6476,7.7741.0954.0586.1687.1532.2523.2311Z" fill="#e2bdb0"/><path d="m90.307,45.6859c-.759.1029-1.5286.1566-2.2747.3186-1.6726.3633-3.3334.7805-4.9991,1.1758-1.6063-.7206-3.2195-1.4265-4.8172-2.1658-1.7754-.8216-3.1843-2.0938-4.2808-3.6956-1.3368-1.953-2.3801-4.028-2.4447-6.4721-.0084-.3202-.1408-.637-.2549-1.1217-.1949.2792-.3302.3842-.3375.4973-.0543.8565-.2207,1.7358-.0923,2.5679.2719,1.7623,1.0659,3.3508,2.0047,4.8554,1.3351,2.1398,3.0811,3.8153,5.4895,4.7057,1.1073.4093,2.2236.7942,3.3359,1.1902-2.1318.5312-4.1019,1.4334-5.9579,2.597-.0225-.7276-.1967-.8685-.956-.7444-1.526.2495-3.0317.6559-4.323,1.4887-5.1098,3.2952-10.6895,5.7533-15.8386,8.9772-3.1065,1.945-5.9589,4.1857-8.4876,6.8383-.1551.1627-.3253.311-.4885.4659-.0631-.0284-.1263-.0567-.1894-.085.4198-1.1926.7781-2.4112,1.2703-3.5731,1.9422-4.586,5.2854-7.8746,9.6197-10.2181,3.8603-2.0872,7.9528-3.5889,12.1551-4.8168.6076-.1775,1.1761-.163,1.7776.019,1.686.5101,3.3987.6717,5.1371.2794.1099-.0248.2159-.0689.3213-.11.0199-.0078.0291-.0434.093-.1469-.1767-.0272-.3234-.0781-.4653-.0673-1.8959.1442-3.5388-.4528-4.9324-1.7201-1.0249-.932-2.0894-1.8379-2.9985-2.876-1.5086-1.7224-1.913-3.8452-1.8269-6.0707.0508-1.3119.4206-2.5589.9222-3.7713.1369-.3308.1688-.705.249-1.0593-.0625-.0372-.125-.0743-.1874-.1114-.2235.2303-.4852.4343-.6649.6949-2.47,3.5799-1.702,9.4564,1.2711,11.8667.0834.0676.137.1719.1277.4095-.176-.0727-.3796-.1103-.524-.2234-2.0063-1.5707-3.1083-3.6273-3.5682-6.1411-.3813-2.084.2965-3.7007,1.5821-5.2405,2.1147-2.533,4.722-4.3962,7.7206-5.8365-.6174,1.3223-1.6466,2.517-1.3679,4.2241.8064-.3241.6916-1.1597,1.2298-1.5834.0599.9482.0191,1.845.1873,2.7009.8111,4.1276,3.2196,7.1255,6.8291,9.1436,3.3869,1.8938,7.0494,2.87,10.9547,2.8342Z" fill="#e2bdb0"/><path d="m111.152,47.7585c-.1959-.113-.3788-.2712-.5897-.3321-1.8939-.5462-3.7928-1.0754-5.6903-1.6096.3686-.1645.7342-.3356,1.1059-.4925,2.3964-1.0118,4.4122-2.5369,5.9468-4.6288,1.1262-1.5352,2.1575-3.1435,3.1684-4.7584.8975-1.4337,1.492-3.006,1.6753-4.6971.1718-1.586-.0805-3.111-.9428-4.4854-.2038-.3247-.431-.695-1.0546-.6706.0652.3299.1112.6206.1809.9054.2121.8669.4828,1.7228.6375,2.5994.1705.9655-.0046,1.9063-.5032,2.7931-.1326-.4762-.1612-.9493-.1274-1.4177.128-1.7759-.401-3.3687-1.3443-4.8381-.5133-.7994-1.0822-1.5633-1.626-2.3431,1.3636.7508,2.7242,1.5071,4.0921,2.2501.7091.3852,1.4458.722,2.1389,1.133.2393.1419.4826.4147.556.6751.3706,1.313.2051,2.6381-.0503,3.9472-.3855,1.9765-1.1318,3.825-2.1665,5.5448-1.567,2.6051-3.3013,5.0931-5.4052,7.3031-.2928.3077-.6266.5763-1.0319.9453.8662.1807,1.4431-.1985,1.9368-.6472.8958-.8141,1.8104-1.6275,2.5834-2.5528,1.6871-2.0195,3.2851-4.1134,4.353-6.5497,1.0134-2.3117,1.548-4.7149,1.3445-7.2525-.0297-.3701-.0862-.738-.1371-1.1636.7019-.0817,1.3045.1827,1.9007.4489,2.8369,1.2663,4.9137,3.3893,6.696,5.8706.5812.8091.9132,1.6401.941,2.6336.0247.8834-.2151,1.6461-.7563,2.3344-1.0693,1.3597-2.443,2.3665-3.8456,3.3405-2.7396,1.9025-5.8208,3.0605-8.9576,4.0932-1.6728.5506-3.3521,1.0817-5.0284,1.6215Z" fill="#e2bdb0"/><path d="m127.6086,60.0348c.2616.0731.5371.1153.783.2242,2.5779,1.1418,5.257,1.7457,8.089,1.5305.6026-.0458,1.1085.1137,1.6293.4322,4.9959,3.0554,8.1281,7.4396,9.3962,13.1442.2181.9811.3044,1.9966.3864,3.0015.1215,1.4876.1848,2.9799.2839,4.657-.5363-.2324-.9058-.3621-1.247-.5451-3.6892-1.9778-6.6812-4.7364-9.0478-8.1728-1.5239-2.2129-2.9855-4.4685-4.503-6.6858-1.2232-1.7875-2.4597-3.5674-3.7505-5.306-.4565-.615-1.0934-1.0955-1.6428-1.6425-.1579-.1572-.298-.3322-.4463-.499l.0697-.1383Z" fill="#e2bdb0"/><path d="m63.9275,61.8001c-.6146.9893-1.1386,2.051-1.8609,2.9542-2.1097,2.6381-4.2206,5.2828-6.4748,7.7959-3.3945,3.7844-6.9032,7.4667-10.3811,11.1757-.8042.8576-1.6802,1.6478-2.6378,2.5807-.1833-1.0483-.358-1.9704-.5043-2.8969-.6123-3.8777.1382-7.5166,1.9312-10.9741.3127-.6029.6139-.8717,1.4461-.7984,1.7961.1584,3.5567-.3058,5.2334-.9742,3.5543-1.417,6.7066-3.485,9.5732-6.0026,1.0418-.915,2.0757-1.839,3.1183-2.7529.1151-.1009.2645-.1627.398-.2428.0529.0452.1058.0903.1588.1354Z" fill="#e2bdb0"/><path d="m117.4303,47.0821c1.0152-.2394,2.0225-.6405,3.0471-.6912,5.445-.2701,10.422,1.3758,15.1892,3.8492,2.1481,1.1144,4.0672,2.5419,5.8892,4.1075,2.3946,2.0576,3.8167,4.6699,4.3348,7.7861.2459,1.4789.5914,2.9442.4593,4.5594-.1255-.1196-.2239-.1725-.2596-.253-1.523-3.4387-4.0825-5.8775-7.2765-7.7809-4.6151-2.7503-9.1702-5.6014-13.7562-8.4006-2.1658-1.3219-4.5021-2.2261-6.9762-2.7805-.211-.0473-.4167-.1184-.6249-.1784-.0088-.0725-.0176-.145-.0263-.2176Z" fill="#e2bdb0"/><path d="m50.7552,101.9091c-.691-.8124-1.3487-1.6572-2.0905-2.4204-.2711-.279-.7295-.4118-1.1274-.513-.142-.0361-.3577.2184-.5398.3402.1169.1687.2097.363.3562.5.2208.2065.4792.3729.6782.5235-.4482.558-.8597,1.0374-1.2313,1.5461-.2116.2897-.3582.6534.0528.9003.3582.2153.5867-.0582.7888-.3189.3273-.422.6547-.8441,1.0684-1.3774.962,1.3558,1.9482,2.5141,2.6562,3.8228.4936.9125.6334,2.0252.8678,3.0628.0544.2406-.1186.554-.2393.8091-.6114,1.2923-.5527,2.4793.3716,3.6387.7188.9015,1.333,1.8864,1.9884,2.838.1095.1591.1919.3368.228.5642-1.3922-.8624-2.6788-1.8448-3.7124-3.1231-1.1626-1.4378-1.8912-3.0987-2.4192-4.856-.1247-.4147-.2242-.8385-.3743-1.2437-.0923-.2491-.2584-.4709-.4213-.7575-.5251.4087-.4019.8692-.3485,1.2657.3612,2.681,1.4148,5.0625,3.2799,7.0299,1.2347,1.3023,2.5931,2.4757,4.2768,3.1997.1728.0743.3824.2116.4448.3707.5744,1.4639,1.1201,2.9391,1.5571,4.5408-.3541-.1591-.7112-.3118-1.0618-.4781-3.6783-1.7441-6.4549-4.4346-8.3531-8.0244-2.0066-3.7947-3.1121-7.8232-2.9902-12.1408.0392-1.3881.2096-2.7685.8155-4.0485.7466-1.5772,2.1604-2.1833,3.8098-1.6659.359.1126.5892.2708.6713.6809.3558,1.7771.745,3.5474,1.122,5.3201-.0414.0048-.0828.0096-.1243.0144Z" fill="#fefefe"/><path d="m134.7624,122.1314c.5462-1.4482,1.0793-2.9015,1.6533-4.3386.0817-.2045.3389-.3735.5533-.4852,3.9518-2.0586,6.5242-5.1745,7.3928-9.6022.1757-.8959.1443-1.1996-.1415-1.7593-.4747.0823-.4866.5078-.6052.8396-.3982,1.1139-.7407,2.25-1.1855,3.3447-.9622,2.3681-2.7551,4.0322-4.7939,5.467-.1482.1042-.3479.1353-.5865.2237.8599-1.2649,1.6308-2.4765,2.4826-3.6282.732-.9898.8648-2.007.3251-3.0829-.3643-.7261-.2382-1.4028-.1204-2.1622.3631-2.342,1.9628-3.9141,3.335-5.8275.389.5003.7031.899,1.0112,1.3023.2172.2844.4492.6105.8443.3419.3868-.2631.2163-.6266.0046-.914-.3572-.4848-.7495-.9437-1.1982-1.502.1993-.1573.4472-.3258.6602-.5305.1465-.1409.2448-.332.3647-.5006-.1819-.1218-.3891-.3703-.5408-.3402-.3753.0746-.806.1927-1.0688.4451-.5598.5378-1.025,1.1738-1.5337,1.7655-.1778.2067-.3696.4015-.555.6017-.0492-.0307-.0984-.0614-.1475-.0921.2769-1.3043.5536-2.6086.8315-3.9126.018-.0846.0506-.1661.0688-.2507.1247-.5766.083-1.2925.7162-1.5599.8803-.3718,1.8081-.3523,2.6806.1138.674.3599,1.1345.9498,1.3299,1.6496.3084,1.1051.6181,2.2366.6998,3.3732.2927,4.075-.6674,7.926-2.4009,11.5831-1.3283,2.8023-3.1085,5.2867-5.6631,7.1228-.8422.6054-1.7468,1.1278-2.6446,1.6507-.5198.3028-1.0829.5311-1.6266.793-.0471-.043-.0942-.086-.1415-.1289Z" fill="#fefefe"/><path d="m50.2579,53.9218c2.442-6.7108,6.2995-12.1348,11.9215-16.3353-.283,3.995,1.2385,7.1027,4.4828,9.5091-3.0016.66-5.8208,1.4503-8.552,2.5434-2.7352,1.0947-5.2649,2.5664-7.8523,4.2828Z" fill="#e2bdb0"/><path d="m146.7203,95.7625c-.3186-1.1097-1.3038-1.5182-2.2434-1.5812-.8928-.06-1.8173.3523-2.8844.5921-.3707-.7121-.8018-1.5837-1.2711-2.4344-1.9247-3.4894-2.6198-7.378-3.6451-11.1597-.3171-1.1698-.6364-2.3388-.9503-3.5094-.0724-.2699-.1267-.5446-.0367-.8951.1737.2747.3396.5548.5223.8232,1.2497,1.8356,2.4474,3.7098,3.7691,5.4921,1.6175,2.1814,3.8515,3.6216,6.2251,4.8702.5268.2772,1.0456.6363,1.4409,1.0729.257.2838.4234.7883.3898,1.1729-.1454,1.6641-.3713,3.3214-.5863,4.9788-.0647.4986-.092.4951-.73.5776Z" fill="#e2bdb0"/><path d="m123.6019,45.1392c1.8983-.6252,3.7155-1.307,5.3208-2.4094.8938-.6138,1.7651-1.3325,2.4394-2.1705.5347-.6644.7543-1.5821,1.1085-2.3755,2.2079,1.4096,7.478,10.5088,7.4148,12.9454-2.431-1.7331-5.072-3.0194-7.8311-4.0776-2.7206-1.0434-5.5037-1.8114-8.4525-1.9124Z" fill="#e2bdb0"/><path d="m44.997,95.1061c-.3742-2.6978-.7389-5.3262-1.1144-8.0335,1.1802.2947,2.2384-.0491,3.2637-.583,2.4371-1.2692,4.5594-2.9298,6.3255-5.0398.1779-.2127.3713-.4125.6299-.58-.0915,3.0341-1.0514,5.8225-2.5213,8.3964-1.479,2.5897-3.6172,4.5724-6.5834,5.8399Z" fill="#e2bdb0"/><path d="m100.9712,20.9879c-5.0994,5.5785-6.701,11.9482-5.4373,19.2327-.167-.1934-.3607-.3697-.4968-.5828-2.078-3.2558-3.0131-6.824-2.6279-10.6591.2142-2.1321.9115-4.1758,1.8909-6.0989.1229-.2413.3316-.5139.567-.611,1.9131-.7889,3.9217-1.1405,6.1041-1.2809Z" fill="#e2bdb0"/><path d="m111.9885,23.783c.5438.7798,1.1127,1.5437,1.626,2.3431.9433,1.4694,1.4723,3.0622,1.3443,4.8381-.0338.4685-.0052.9415.1274,1.4177.4986-.8868.6737-1.8276.5032-2.7931-.1547-.8766-.4255-1.7325-.6375-2.5994-.0697-.2849-.1157-.5755-.1809-.9054.6236-.0244.8508.3459,1.0546.6706.8623,1.3744,1.1146,2.8994.9428,4.4854-.1833,1.6911-.7778,3.2634-1.6753,4.6971-1.0109,1.6149-2.0422,3.2232-3.1684,4.7584-1.5345,2.0919-3.5503,3.617-5.9468,4.6288-.3717.1569-.7374.328-1.1059.4925-.2262.0035-.4522.0071-.6784.0106.1504-.7052.7327-1.0099,1.2768-1.3205,1.5881-.9065,3.0683-1.9431,4.3348-3.2784,2.859-3.014,4.1783-6.589,3.9248-10.7282-.0912-1.4899-.6385-2.8679-1.2723-4.2021-.3831-.8063-.8395-1.5774-1.2396-2.3761-.0953-.1901-.097-.427-.1417-.6423l.9121.5032Z" fill="#a2725a"/><path d="m113.9274,48.9711c-.5882-.2836-1.1764-.5672-1.7646-.8508.3709-.0566.7416-.1155,1.113-.1684.1428-.0204.3193-.0872.4266-.0306,1.1057.5834,2.3217.1809,3.4708.4112,2.9652.5945,5.6445,1.8429,8.2009,3.4118,3.4004,2.0868,6.8138,4.1526,10.2204,6.2294.0925.0563.1707.1361.2078.3748-.3052-.0731-.6143-.1328-.9151-.2212-3.0036-.8819-5.8906-2.0681-8.7188-3.3963-2.2491-1.0562-4.4833-2.1453-6.704-3.2598-.7985-.4007-1.5012-1.0022-2.3142-1.3616-1.039-.4592-2.1454-.7661-3.2227-1.1387Z" fill="#e2bdb0"/><path d="m45.2489,70.4292c.9958-1.7251,2.2578-3.1409,3.6571-4.4442,3.7617-3.5039,8.2109-5.9909,12.6168-8.5427.0944-.0547.2037-.0839.4224-.0149-.2155.2294-.4212.4691-.6481.6865-3.008,2.8816-6.0168,5.7624-9.0305,8.6379-.875.8349-1.7647,1.6545-2.6521,2.4763-.1035.0959-.2276.1779-.3555.2376-1.2669.5896-2.6403.7347-4.0101.9634Z" fill="#e2bdb0"/><path d="m75.2063,50.37c-1.9028,1.3737-3.6666,2.9045-5.2589,4.6315-.3884.4212-.8027.8186-1.2051,1.227.3153-.7609.913-1.4295.8635-2.5367-5.2183,5.7639-10.6135,11.0019-17.3264,14.6489-.0615-.0658-.123-.1316-.1846-.1974.193-.1825.3825-.3688.5793-.5469,2.2517-2.0373,4.5236-4.0526,6.7506-6.1164,1.6544-1.5332,3.2415-3.1389,4.8758-4.6942,2.1249-2.0221,4.3827-3.8875,7.0607-5.1268,1.2194-.5643,2.5597-.8674,3.8451-1.289Z" fill="#e2bdb0"/><path d="m134.2095,71.0116c1.3792,1.9964,2.7145,4.025,4.1493,5.9806,1.6584,2.2602,3.7348,4.0971,6.1152,5.5772.536.3333,1.1318.5723,1.7075.839.4452.2061.9123.3664,1.3514.5839,1.5315.7587,2.2409,1.9988,1.6181,4.2488-2.2719-.9112-4.2118-2.3288-6.0433-3.9066-2.5819-2.2243-4.3461-5.0847-6.0863-7.953-1.0332-1.703-1.992-3.4512-2.9841-5.179.0573-.0636.1148-.1273.1722-.1909Z" fill="#e2bdb0"/><path d="m58.8938,71.2291c-3.6648,6.184-7.7189,12.0042-14.519,15.2651.2553-.2975.5024-.6026.7673-.8914,1.659-1.809,3.3146-3.6213,4.9854-5.4193,2.6968-2.9021,5.4068-5.7922,8.1022-8.6958.1499-.1616.2169-.4001.3225-.6028.1138.1148.2278.2295.3416.3442Z" fill="#e2bdb0"/><path d="m88.419,33.8582c-.1377-.6553-.2832-1.1512-.3414-1.6571-.3045-2.6454-.1667-5.2592.8928-7.733.3918-.915,1.0151-1.7362,1.5818-2.5669.1393-.2042.4602-.3671.7147-.3954.9104-.1011,1.8282-.1362,2.9701-.2112-.2686.4505-.3645.7696-.5782.9455-2.5688,2.1141-4.0488,4.8403-4.6025,8.0929-.1785,1.0487-.3246,2.1027-.4893,3.1537-.0112.0718-.0538.1388-.148.3715Z" fill="#e2bdb0"/><path d="m122.5491,54.1939c5.157,2.4377,10.2968,4.9224,16.0588,5.9113-5.5596,1.2775-11.9032-1.0027-16.0588-5.9113Z" fill="#e2bdb0"/><path d="m48.679,94.2488c1.2499-1.2722,2.4918-2.5364,3.6989-3.7651.0057.8505-.9664,3.2147-1.7972,4.2708-.6418-.1707-1.2991-.3454-1.9017-.5057Z" fill="#e1bcaf"/><path d="m134.2095,71.0116c-.0574.0636-.1149.1273-.1722.1909-1.0587-1.6168-2.1063-3.2411-3.1809-4.8471-.5209-.7786-1.0927-1.5231-1.7437-2.4247-.1556.3638-.2176.5088-.2795.6538-.0741-1.0354-.7125-1.819-1.185-2.6788-.1628-.2963-.2678-.6243-.3991-.9378.4106.4278.896.8057,1.2195,1.2915,1.9344,2.9037,3.8315,5.8322,5.741,8.7524Z" fill="#e0bbad"/><path d="m127.2236,42.3767c1.7056-1.6435,3.7486-3.047,3.7202-5.8723,1.3,1.6077-.9073,5.0218-3.7202,5.8723Z" fill="#e0bbae"/><path d="m139.564,61.5837c.5731-.2155,1.0266-.1548,1.4365.2643.6352.6493,1.2902,1.2792,1.9368,1.9174-.0469.0564-.0937.1129-.1406.1693-1.0507-.7641-2.1014-1.5283-3.2327-2.3511Z" fill="#deb8ab"/><path d="m50.6139,55.6456c-.2884.6458-.883,1.2166-1.4841,1.425.1921-.7549.6914-1.2344,1.4841-1.425Z" fill="#dbb5a6"/><path d="m72.0438,101.3371c-.3853.1816-.7705.3631-1.224.5768-.6053-2.2148-.1794-4.1124,1.3419-5.8613-.3326-.0192-.5325-.0749-.7102-.0341-1.5906.3647-3.1056.9189-4.3972,1.9487-1.2236.9755-1.619,2.268-1.3367,3.7853.0633.3403.1892.6744.2077,1.0156.0145.2669-.0062.6458-.1705.7801-.1552.1269-.5582.081-.7833-.0294-1.3203-.6474-2.0251-1.7534-2.238-3.1878-.0288-.1941-.004-.396-.004-.6125-1.1803-.359-2.4858-.2498-3.4078-1.1748-.1599-.1604-.1931-.4468-.3229-.7699,1.0693-.0448,2.0202-.1422,2.9667-.1095,1.1605.0402,2.1876-.1083,2.7609-1.2361-.7064-.2581-1.458-.5211-2.1995-.8103-.2391-.0932-.4851-.2208-.6651-.3968-.1419-.1388-.1874-.376-.2757-.5695.1756-.0742.3564-.2221.5258-.21.8057.0574,1.6117.1342,2.4112.249,1.4769.2121,2.863.1928,4.2829-.5143,3.2362-1.6115,6.6475-1.4553,10.0784-.666,2.462.5665,4.5788,1.736,6.3174,3.5654.3534.3719.6564.8113.8925,1.2665.1059.204-.0102.5233-.0255.7903-.2317-.0611-.4892-.0766-.6912-.1905-1.6072-.9072-3.2023-1.8359-4.8062-2.749-.1657-.0943-.365-.1296-.6979-.2431,1.4472,1.45,2.0368,3.0731,1.8819,4.9406-.121,1.4592-.6465,2.7539-1.8058,3.7191-2.5319,2.1079-6.742,1.6212-8.0173-.5269.3903-.1625.772-.3214,1.1537-.4804.242.1575.4817.3187.7265.472,2.2524,1.4106,5.9132.2661,6.4976-2.5262.199-.9505.1767-1.901-.14-2.822-1.0269-2.9857-5.1018-3.9097-7.0574-1.6477-1.1054,1.2786-1.4167,2.6624-1.0689,4.2585Z" fill="#a1725a"/><path d="m111.9797,101.3399c-.3655.1687-.731.3372-1.1809.5447-.5119-2.2249.003-4.1031,1.6078-5.8843-.3577.1192-.5652.1536-.7368.2511-1.5306.8697-3.0554,1.7497-4.5802,2.6295-.1247.0719-.2282.1843-.3572.2439-.3664.1692-.6842-.0386-.5717-.4273.1166-.4035.3314-.8058.5952-1.135,1.4935-1.8629,3.4412-3.1002,5.702-3.767,2.9738-.8771,6.0071-1.2395,9.0623-.38.8303.2336,1.6778.5046,2.4197.9291,1.0146.5804,2.0419.5195,3.1096.3847.7735-.0977,1.5451-.2284,2.3216-.2761.2669-.0164.5464.174.8201.2699-.189.232-.3315.5584-.5755.6784-.7725.3798-1.5829.6825-2.3829,1.0167.5522.9364,1.3558,1.3541,2.5217,1.2557.9412-.0794,1.9003.0519,2.8459.0896.1591.6778-.2357,1.0018-.6986,1.182-.6139.2389-1.2665.3813-1.9066.549-.3014.079-.6127.1202-.966.1873.0721,1.2692-.5062,2.2518-1.3514,3.0849-.2979.2936-.6939.5349-1.0894.6714-.5766.1988-.8621-.1046-.8094-.7204.0637-.7433.2179-1.5022.1311-2.2304-.2127-1.7842-1.0704-3.166-2.8514-3.792-.9427-.3313-1.9082-.5973-2.9245-.8071,1.514,1.6304,1.9512,3.5041,1.5408,5.5865-.301,1.5271-1.0063,2.8568-2.342,3.719-2.1123,1.3633-5.9017.9112-7.3628-1.1692.355-.1458.6979-.2865,1.0408-.4272.4961.2311.9892.4688,1.4888.6921,2.08.9297,4.4101.2152,5.3637-1.7139.5011-1.0137.6644-2.0898.529-3.2688-.1838-1.6012-1.9018-3.2258-3.2454-3.4547-1.7527-.2985-3.6697.596-4.5508,2.05-.6566,1.0835-.6341,2.2526-.6166,3.4379Z" fill="#a1725a"/><path d="m73.9255,83.5373c3.9172.1524,7.806.3659,11.609,1.3722.2792.0738.5624.134.8383.2184.7662.2343,1.0574.5526,1.0192,1.0942-.0403.5711-.6108,1.208-1.2376,1.2713-.6875.0693-1.3914.1289-2.0748.0598-2.3839-.241-4.7687-.4924-7.141-.8264-4.3638-.6144-8.6929-.6159-12.9907.4773-.8375.2131-1.6918.3621-2.5411.5262-.2235.0432-.4641.0738-.6854.0387-.5825-.0925-.7429-.4787-.3436-.9066.2894-.31.6592-.5642,1.0321-.7739,1.9093-1.0738,3.9556-1.7891,6.1289-2.0345,2.1214-.2394,4.2573-.3496,6.3868-.5167Z" fill="#bd896e"/><path d="m117.8584,83.5908c2.956.0609,5.9154.1157,8.7601.9919,1.3957.4299,2.7207,1.1035,4.0499,1.7265.4435.2078,1.063.5417.8231,1.1415-.2178.5443-.8406.3525-1.3206.2526-1.5248-.3173-3.0406-.6841-4.5739-.9525-2.3394-.4097-4.7012-.626-7.0745-.3658-2.9837.3273-5.959.7325-8.9445,1.0407-1.2023.1241-2.4219.083-3.6338.1089-.1714.0036-.349-.0199-.515-.0638-.5607-.1481-1.0997-.7988-1.0959-1.3181.0048-.6619.4942-.8686,1.0079-1.0187,2.3091-.6744,4.6706-1.0757,7.0659-1.2518,1.8145-.1334,3.634-.1969,5.4514-.2914Z" fill="#bd896e"/><path d="m111.9797,101.3399c-.0175-1.1853-.04-2.3544.6166-3.4379.8812-1.454,2.7982-2.3486,4.5508-2.05,1.3436.229,3.0616,1.8535,3.2454,3.4547.1354,1.179-.028,2.2551-.529,3.2688-.9536,1.9291-3.2837,2.6435-5.3637,1.7139-.4996-.2233-.9927-.461-1.4888-.6921.3774-.2526.7846-.4712,1.1238-.7675.3325-.2903.5423-.6787.3564-1.1534-.1953-.4984-.6017-.7045-1.0969-.6479-.4772.0545-.9435.2038-1.4146.3115Zm4.0781-.0606c.569.0076,1.0462-.4481,1.0788-1.0302.0312-.5576-.4653-1.1024-.998-1.0952-.6068.0082-1.1827.5044-1.1884,1.0238-.0064.5799.5099,1.0936,1.1076,1.1016Z" fill="#d1a48e"/><path d="m72.0438,101.3371c-.3478-1.5962-.0365-2.9799,1.0689-4.2585,1.9556-2.262,6.0304-1.3381,7.0574,1.6477.3167.921.339,1.8715.14,2.822-.5844,2.7924-4.2452,3.9369-6.4976,2.5262-.2447-.1533-.4844-.3145-.7265-.472.3955-.2766.8645-.4921,1.1621-.85.2192-.2637.3326-.7313.2808-1.0762-.0709-.4716-.5188-.6929-.9849-.6451-.5052.0519-1.0006.1998-1.5002.3059Zm4.242-.0587c.5902.0198,1.1509-.4825,1.1578-1.0373.0068-.5494-.5039-1.0394-1.1312-1.0856-.5462-.0402-1.0693.4332-1.091.9874-.0225.5723.4873,1.116,1.0645,1.1355Z" fill="#d1a48e"/><path d="m85.2581,135.0014c-.1655.1535-.3623.2848-.4897.4651-.2425.3431-.2424.7578.0797,1.003.2317.1763.6117.2331.9178.2148.2932-.0176.5766-.2007.8642-.3112.5165-.1741,1.033-.3482,1.5495-.5223.4279-.154.8464-.4022,1.2853-.4461,1.9776-.1978,3.8184-.8716,5.6532-1.5609.5214-.1958.9734-.2211,1.4937-.0164,1.8809.7402,3.7878,1.3901,5.8175,1.6127.3826.0419.7454.2648,1.1173.4041.5146.1742,1.0291.3484,1.5435.5225.1905.054.4001.074.5679.1683.4345.2442.8683.3979,1.2495-.0405.398-.4577.2428-.9047-.1247-1.3114l-1.2164-.6567c-.8056-.1867-1.6113-.3734-2.4169-.5601-1.2493-.186-2.5945-.1428-3.7236-.6156-1.4296-.5985-2.8407-.667-4.3043-.6113-.6825.0259-1.4336.0389-2.0245.3246-1.3964.6752-2.8923.6823-4.3613.8971-.2294-.007-.4587-.014-.688-.021-.9299.3538-1.8597.7075-2.7896,1.0613Z" fill="#a2725a"/><path d="m64.397,93.8472c.4622-.3195.9007-.6821,1.3905-.9514,3.4264-1.8834,7.1245-2.4636,10.9782-2.184,2.4276.1761,4.827.543,7.0881,1.5098.6081.26,1.1958.5784,1.763.9197.3092.186.6392.4329.4485,1.0275-.2828-.0773-.5844-.111-.8406-.237-3.7379-1.839-7.7215-2.3337-11.8155-2.0842-2.1139.1289-4.147.7233-6.1429,1.43-.8901.3153-1.799.5779-2.6994.8644-.0567-.0982-.1133-.1965-.17-.2947Z" fill="#a2725b"/><path d="m127.6319,94.1305c-1.2379-.4106-2.3742-.7908-3.5127-1.1645-5.7801-1.8977-11.4316-1.5362-16.9644.9602-.288.13-.6624.4783-.8828.0404-.0789-.1568.222-.6294.4619-.8007,1.2905-.9214,2.7826-1.4154,4.3026-1.7668,3.8482-.8896,7.7268-1.1368,11.5776-.0653,1.3522.3762,2.6406.994,3.9365,1.5517.3804.1638.6971.4881,1.0182.7673.071.0617.0369.2442.0632.4777Z" fill="#a2725b"/><path d="m81.6359,47.5416c-1.1122-.396-2.2285-.7809-3.3359-1.1902-2.4084-.8904-4.1544-2.5659-5.4895-4.7057-.9388-1.5046-1.7327-3.0931-2.0047-4.8554-.1284-.8321.038-1.7114.0923-2.5679.0073-.1132.1426-.2181.3375-.4973.1141.4847.2464.8015.2549,1.1217.0646,2.4441,1.1079,4.5191,2.4447,6.4721,1.0965,1.6017,2.5054,2.874,4.2808,3.6956,1.5977.7393,3.2109,1.4452,4.8172,2.1658.1216.1233.2431.2465.3647.3698-.0286.0723-.0573.1446-.0859.2169-.5587-.0751-1.1173-.1502-1.6761-.2253Z" fill="#a2725a"/><path d="m94.4749,122.2387c-.2056.0401-.318.0983-.362.0653-.8244-.6189-1.6808-1.2051-2.4349-1.9017-.2356-.2176-.324-.7701-.2436-1.1141.1279-.5466.4138-1.0722.7163-1.5544.1228-.1957.4732-.3587.7037-.3396.1652.0136.3783.3333.4408.5532.2904,1.0232.5294,2.0609.8007,3.0898.1044.3961.2456.7825.379,1.2015Z" fill="#a2735c"/><path d="m99.4372,120.3841c.319.1741.6608.2697.6672.3838.0118.2111-.1168.5494-.2855.6309-.7987.3862-1.6234.7233-2.4571,1.0282-.1589.0582-.5412-.0676-.5717-.1775-.055-.1982.0064-.581.1442-.6554.8224-.4438,1.6806-.8215,2.5029-1.2101Z" fill="#a57760"/><path d="m93.9847,139.1898c.2059-.1611.4156-.4638.6169-.4584.779.021,1.5577.1234,2.3314.2314.295.0412.5766.179.8642.2729-.355.1417-.6989.3535-1.0671.4116-.9553.1507-1.8913.0592-2.7455-.4575Z" fill="#c18d74"/><path d="m125.9419,105.8002c-.1388.0463-.389.2185-.5054.153-.4959-.2792-.9682-.6089-1.4122-.9659-.1168-.0938-.1833-.3864-.1246-.5245.06-.1409.2951-.2694.4669-.2894.6152-.0718,1.5772.8455,1.5753,1.6267Z" fill="#a77a63"/><path d="m66.0397,106.1512c-.4052-.6928-.0714-1.1099.2724-1.404.3219-.2754.7689-.487,1.186-.5445.3774-.0521.583.4881.2779.7418-.5303.4409-1.1329.7949-1.7364,1.2067Z" fill="#a77a63"/><path d="m123.3438,106.8878c-.5726-.0667-1.1451-.4822-1.2118-.919-.0247-.1626.059-.4321.1802-.502.1307-.0753.4288-.0427.5396.0627.3767.3586.6532.7863.492,1.3583Z" fill="#ae846f"/><path d="m69.7764,105.9276c-.3588.3458-.6883.6774-1.0448.9769-.0262.022-.3767-.2425-.3594-.284.1594-.3846.3441-.7645.575-1.11.0604-.0904.3306-.1151.4614-.0627.1249.0502.1937.2403.3679.4799Z" fill="#aa7f69"/><path d="m116.0578,101.2794c-.5977-.008-1.114-.5217-1.1076-1.1016.0057-.5195.5816-1.0156,1.1884-1.0238.5327-.0072,1.0291.5375.998,1.0952-.0326.5821-.5098,1.0378-1.0788,1.0302Z" fill="#a2735b"/><path d="m76.2857,101.2784c-.5772-.0194-1.087-.5631-1.0645-1.1355.0218-.5543.5449-1.0276,1.091-.9874.6273.0463,1.138.5363,1.1312,1.0856-.0068.5548-.5675,1.0571-1.1578,1.0373Z" fill="#a3735b"/><path d="m106.0337,132.7222c.3278.637.6679,1.5469.9663,2.8105.2286.968.5028,1.9183.6615,2.6823" fill="none" stroke="#a2725a" stroke-linecap="round" stroke-miterlimit="10" stroke-width="1.5"/><path d="m99.6153,136.2946c-.3117-.4362-1.2245-.25-1.7462,0-.1931.0925-.8809.4222-.8731.8731.0092.5278.9695,1.1129,1.7462.8731.6212-.1918.8575-.829.8731-.8731.0548-.1551.2064-.5843,0-.8731Z" fill="#fff"/></g></g><circle cx="31" cy="29" r="29" fill="#fff7a4"/><g><path d="m24.1714,19.1938c-.27.1602-.5576.2979-.8623.4126-.3052.1147-.6274.2124-.9673.2925-.0601.0098-.1001.0552-.1201.1348-.2803,1.3604-.6675,2.6577-1.1626,3.8926-.4951,1.2354-1.0376,2.3428-1.6274,3.3228-.0601.1001-.1401.1772-.2402.2324s-.2051.0825-.3149.0825c-.1401,0-.2603-.0352-.3599-.105-.21-.1401-.3149-.3301-.3149-.5703,0-.1299.0298-.2446.0898-.3447.5898-1,1.0952-2.0151,1.5151-3.0449.4199-1.0303.7549-2.085,1.0049-3.165v-.0303c0-.0996-.0449-.1396-.1348-.1201-.7402.0806-1.4951.1104-2.2651.0903-.1704-.0098-.3174-.0776-.4424-.2026-.1255-.125-.1875-.2725-.1875-.4424,0-.1899.0649-.3501.1948-.48s.29-.1899.48-.1802c.1299.0103.2573.0151.3823.0151h.3828c.2998,0,.5947-.0073.8848-.0225s.5752-.0425.855-.0825c.0801-.0098.125-.0547.1353-.1353.0601-.3496.1074-.707.1426-1.0723.0347-.3647.062-.7324.0825-1.1025.0098-.1699.0796-.3198.21-.4502.1299-.1299.2798-.1948.4497-.1948.2002,0,.3652.0649.4951.1948.1299.1304.1899.2954.1802.4951-.0103.29-.0278.5801-.0527.8701s-.0576.5801-.0977.8701v.0298c0,.1001.0454.1299.1353.0898.27-.0996.54-.2246.8101-.375.1099-.0596.2251-.0898.3447-.0898.2402,0,.4302.0952.5703.2852.0796.1099.1201.23.1201.3599,0,.23-.1055.4102-.3154.54Zm5.2803,7.3052c0,.1499-.0449.29-.1353.4199-.0898.1299-.2148.2197-.375.27-.3599.1001-.7197.1748-1.0796.2251-.3604.0498-.7202.0747-1.0801.0747-.7305,0-1.4429-.105-2.1377-.3149-.6953-.21-1.3574-.5298-1.9873-.96-.1904-.1299-.2852-.3052-.2852-.5249,0-.1401.0449-.27.1348-.3901.1201-.1802.2949-.27.5254-.27.1196,0,.2446.04.375.1201,1.02.6699,2.1348,1.0049,3.3447,1.0049.6299,0,1.2651-.0898,1.9053-.27.0396-.0098.0947-.0151.165-.0151.1699,0,.3174.0576.4424.1729.125.1147.1875.2676.1875.4575Zm-5.8052-6.1802c0-.1699.0552-.3174.165-.4424s.2451-.1973.4053-.2178c.1895-.02.3799-.0347.5698-.0449.1899-.0098.3799-.0151.5698-.0151.6099,0,1.2051.0503,1.7852.1504.5796.1001,1.1001.25,1.5601.4497.1201.0503.2148.1328.2852.2476.0698.1152.105.2378.105.3677,0,.1899-.063.3447-.1875.4648-.1255.1201-.2729.1802-.4429.1802-.1099,0-.2051-.02-.2847-.0601-.8501-.3701-1.7954-.5552-2.835-.5552-.1602,0-.3252.0054-.4951.0151-.1704.0103-.3403.0249-.5103.0449-.1797.02-.3398-.0273-.48-.1426-.1401-.1147-.21-.2622-.21-.4424Z"/><path d="m38.2866,27.9389c-.6602,0-1.1851-.0952-1.5752-.2852-.3896-.1899-.6675-.4326-.8325-.7275s-.2476-.5923-.2476-.8926c0-.1699.02-.3271.0601-.4722s.0952-.2778.165-.3975c.3101-.5503.7002-.8252,1.1699-.8252.7402,0,1.6802.6748,2.8203,2.0249.0498.0601.1099.0752.1797.0449.3804-.1396.7178-.3174,1.0127-.5322s.5376-.4575.7275-.7275c.2397-.3501.3599-.73.3599-1.1401,0-.4502-.1626-.8672-.4873-1.2524-.3252-.3848-.8174-.6123-1.4775-.6826-.1001-.0098-.1948-.0171-.2852-.0225-.0898-.0049-.1851-.0073-.2847-.0073-.7603,0-1.5176.1797-2.2729.54-.7549.3599-1.5522.915-2.3921,1.665-.1401.1099-.2954.165-.4653.165-.1499,0-.2749-.0352-.375-.1055-.1699-.1099-.2549-.2646-.2549-.4648,0-.1099.0303-.21.0898-.2998.6304-.9502,1.2876-1.875,1.9727-2.7749.6851-.9004,1.3774-1.7202,2.0776-2.4604.0298-.0498.0449-.0796.0449-.0898,0-.0601-.04-.0801-.1201-.0601-.25.04-.5322.0679-.8472.0825-.3154.0151-.6328.0225-.9526.0225h-.4053c-.1401,0-.2749-.0049-.4048-.0146-.1704-.0103-.3149-.0801-.4351-.21s-.1802-.2852-.1802-.4653c0-.1899.0698-.3472.21-.4722s.3052-.1826.4951-.1729c.4102.0303.8052.0449,1.1851.0449.5,0,.9824-.0298,1.4478-.0898.4648-.0601.917-.165,1.3574-.3149.0796-.0298.1548-.0449.2251-.0449.3096,0,.5298.1401.6597.4199.0498.1201.0752.2349.0752.3452,0,.2598-.1001.48-.3003.6597-.6396.5601-1.2124,1.125-1.7173,1.6953-.5049.5698-.9927,1.1846-1.4624,1.8447-.02.04-.0303.0654-.0303.0752,0,.0801.0503.0952.1504.0449.5498-.2598,1.0796-.4502,1.5898-.5698.5098-.1201.9849-.1802,1.4248-.1802.8501,0,1.5649.1899,2.145.5698.5801.3804.9648.8901,1.1553,1.5303.1099.3799.165.73.165,1.0498,0,.7202-.2227,1.3779-.6675,1.9727-.4453.5947-1.0552,1.0698-1.8301,1.4248-.7754.355-1.6626.5327-2.6626.5327Zm.165-1.23c.0601,0,.0977-.02.1123-.0601.0151-.04-.0024-.0801-.0522-.1201-.3203-.3696-.5928-.625-.8179-.7651-.2246-.1396-.4072-.21-.5474-.21-.1099,0-.1924.0352-.2476.105-.0547.0703-.0825.1499-.0825.2402,0,.0298.0024.0601.0078.0898.0049.0303.0122.0601.0225.0898.0796.2002.2646.3555.5547.4653s.6401.165,1.0503.165Z"/><path d="m29.3467,39.4389c.2495.1401.375.355.375.645,0,.2002-.0601.3574-.1802.4722-.1201.1152-.2603.1729-.4199.1729-.0898,0-.1851-.0249-.2852-.0752-.2598-.1401-.5225-.2749-.7871-.4048-.2651-.1299-.5327-.2554-.8027-.375-.02-.0103-.04-.0151-.0601-.0151-.0503,0-.0898.0249-.1201.0747-.3398.7705-.8101,1.4775-1.4097,2.1226-.6001.645-1.3301,1.2329-2.1899,1.7627-.1001.0601-.2104.0898-.3301.0898-.1001,0-.2026-.0298-.3076-.0898s-.1826-.145-.2324-.2549c-.0503-.1201-.0752-.2251-.0752-.3149,0-.25.1099-.4448.3301-.585.7998-.5,1.4351-1.0278,1.9048-1.5825.4702-.5552.8301-1.1025,1.0801-1.6426.0098-.02.0151-.04.0151-.0601,0-.0601-.0298-.0952-.0898-.105-.54-.2002-1.0601-.3677-1.5601-.5024-.5-.1353-.9653-.2378-1.395-.3076h-.0449c-.0601,0-.105.0298-.1353.0898-.5698,1.1201-1.1323,2.0024-1.6875,2.6475-.5547.645-1.1274.9678-1.7173.9678-.3203,0-.6553-.105-1.0049-.3149-.2305-.1504-.4102-.3604-.54-.6304-.1304-.27-.1953-.5645-.1953-.8848,0-.3599.0825-.73.2476-1.1099s.4199-.73.7651-1.0503c.3447-.3198.7896-.5796,1.335-.7798.5449-.2002,1.1973-.3003,1.9575-.3003.0801,0,.1348-.0347.165-.105.1997-.4097.4126-.8721.6372-1.3872.2251-.5151.3877-.9727.4878-1.3726,0-.0098.0024-.0176.0073-.0225s.0078-.0127.0078-.0225c0-.0801-.0503-.1099-.1504-.0903-.4102.1104-.8696.1978-1.3799.2627-.5098.0649-.98.0977-1.4102.0977-.1699,0-.3174-.0625-.4424-.1875s-.1875-.2778-.1875-.4575c0-.1802.0649-.335.1953-.4653.1294-.1299.2896-.1948.48-.1948.4697-.0098.9248-.0474,1.3647-.1123s.8452-.1475,1.2148-.2476c.2104-.0601.4102-.0903.6001-.0903.4702,0,.7852.165.9453.4951.0796.1802.1196.3853.1196.6152,0,.6699-.3599,1.7603-1.0796,3.27-.0103.02-.0151.0449-.0151.0747,0,.0503.0298.0854.0898.105.4199.0703.8599.1704,1.3198.3003s.9302.2847,1.4102.4648c.0098,0,.0176.0024.0225.0073.0049.0054.0127.0078.0225.0078.0601,0,.1001-.04.1201-.1201.0601-.3501.0947-.6772.105-.9824.0098-.3052.0098-.5825,0-.8325,0-.1899.0625-.3525.1875-.4878.125-.1348.2827-.2021.4727-.2021.1797,0,.335.0601.4648.1797.1299.1201.2002.27.21.4502.02.4302.0098.8428-.0298,1.2373-.04.3955-.1001.7827-.1802,1.1626v.0449c0,.0503.0249.0903.0752.1201.2896.1201.5747.25.855.3901.2798.1401.5649.2852.855.4351Zm-10.5151.4648c-.0601.1499-.0898.2949-.0898.4351,0,.1499.0376.2773.1123.3823.0752.105.1777.1577.3076.1577.1997,0,.4727-.165.8174-.4951.3452-.3301.7373-.9248,1.1777-1.7852.0098-.0195.0146-.0449.0146-.0747,0-.0698-.0498-.1001-.1499-.0903-.54.0405-.9976.1855-1.3726.4351-.375.2505-.6475.5952-.8174,1.0352Z"/></g></g></g></svg>