<?xml version="1.0" encoding="UTF-8"?><svg id="_レイヤー_2" xmlns="http://www.w3.org/2000/svg" width="89" height="26" viewBox="0 0 89 26"><g id="_レイヤー_1-2"><g><polygon points="78.256 26 0 26 0 0 75.256 0 89 13 78.256 26"/><g><path d="m24.7817,17.6997c-.832,0-1.4648-.2427-1.8979-.728-.061-.0605-.0913-.1387-.0913-.2344,0-.1382.0522-.251.1562-.3379.0605-.0605.1431-.0908.2471-.0908.1299,0,.2383.0391.3247.1167.1904.1562.3945.271.6113.3447.2163.0737.4331.1104.6499.1104.3291,0,.6348-.0693.9165-.208.2812-.1382.5112-.3315.689-.5781.1772-.2471.2666-.5269.2666-.8389v-.1299c0-.0435-.0049-.082-.0132-.1172-.104-.6064-.3813-1.0659-.832-1.3779s-.9966-.4678-1.6382-.4678c-.3896,0-.8057.0586-1.248.1753-.4419.1172-.8926.2969-1.3516.5396-.061.0347-.0913.0825-.0913.1431.0088.4419.0044.8818-.0127,1.3193-.0176.438-.0479.8691-.0913,1.2935-.0864.7021-.4116,1.0532-.9751,1.0532-.2427,0-.5327-.0649-.8706-.1948-.3989-.1733-.7368-.3618-1.0142-.5659-.2773-.2031-.416-.4526-.416-.7471,0-.1992.0737-.4204.2212-.6631.147-.2427.394-.52.7407-.832.2515-.2251.5024-.4331.7539-.624.2515-.1904.5073-.3643.7671-.52.0522-.0435.0781-.0908.0781-.1431-.0088-.3901-.0239-.771-.0454-1.144-.022-.3726-.0503-.7407-.0845-1.105-.0088-.0693-.0522-.0996-.1304-.0908-.7363.1387-1.5034.2295-2.3008.2729-.1128.0088-.208-.0303-.2861-.1172-.0776-.0864-.1167-.186-.1167-.2988,0-.104.0391-.1929.1167-.2666.0781-.0732.1689-.1147.2729-.1235.3813-.0171.7607-.0474,1.1377-.0908s.7432-.0996,1.0986-.1689c.0864-.0176.1211-.0649.104-.1431-.0522-.3813-.1128-.7451-.1821-1.0923-.0693-.3462-.1387-.6582-.208-.936-.0088-.0259-.0132-.0601-.0132-.104,0-.1123.0371-.2056.1108-.2793.0732-.0737.1665-.1104.2793-.1104.0952,0,.1821.0283.2603.0845.0776.0562.1255.1323.1426.2275.0693.2686.1367.5742.2017.9165s.1279.7085.1885,1.0981c.0088.0869.0522.1172.1299.0913.2256-.0605.4443-.1255.6567-.1953.2124-.0688.418-.1426.6177-.2207.0518-.0259.1079-.0391.1689-.0391.1729,0,.2988.0825.377.2471.0259.0518.0391.104.0391.1558,0,.1821-.0781.3037-.2344.3643-.4766.1904-.9922.3599-1.5469.5068-.0781.0176-.1084.061-.0908.1299.0342.312.0625.6309.0845.9556.0215.3252.041.6567.0586.9946,0,.0347.0146.0605.0454.0781.0303.0176.0669.0127.1104-.0132.8843-.3813,1.7378-.5718,2.561-.5718.1992,0,.3984.0107.5981.0322.1992.022.394.0586.585.1108.4766.1299.8711.3291,1.1831.5977.312.269.5435.5742.6953.9165.1514.3428.2275.6958.2275,1.0596,0,.4336-.104.8472-.312,1.2417s-.5117.7148-.9102.9619-.8882.3706-1.4688.3706Zm-5.499-1.1963c.2856.1387.5112.2471.6758.3252s.2905.1167.377.1167c.104,0,.1714-.0474.2017-.1426.0303-.0957.0498-.2383.0586-.4292.0171-.1821.0303-.4438.0391-.7866.0083-.3423.0171-.6694.0259-.9814v-.0259c0-.0435-.0132-.0718-.0391-.0845-.0259-.0132-.0566-.002-.0908.0322-.2515.165-.481.334-.689.5073s-.3989.3467-.5723.52c-.1216.1299-.208.2402-.2598.3315-.0522.0908-.0781.1709-.0781.2402,0,.0869.0366.1606.1104.2212s.1538.1128.2407.1558Zm8.0728-4.6797c-.3379-.2427-.7192-.4399-1.144-.5918-.4248-.1514-.8755-.2446-1.3521-.2793-.1123-.0088-.2036-.0522-.2729-.1299-.0693-.0781-.104-.1646-.104-.2603,0-.1299.0459-.2358.1367-.3184s.1929-.1147.3057-.0977c.5371.0347,1.0571.1411,1.5596.3184.5029.1777.9492.4097,1.3394.6958.1123.0864.1689.1948.1689.3247,0,.104-.0308.1909-.0913.2603-.0605.104-.1646.1558-.312.1558-.0776,0-.1558-.0259-.2339-.0776Z" fill="#fff"/><path d="m31.5156,12.3174c-.1128,0-.2012-.0342-.2666-.104-.0649-.0693-.0972-.147-.0972-.2339,0-.0518.0044-.0908.0127-.1172.104-.312.1909-.6367.2603-.9746.0693-.3384.1172-.6846.1431-1.04.0083-.0864.0454-.1606.1104-.2212s.1406-.0908.2275-.0908c.1299,0,.2358.0454.3184.1362.0825.0913.1147.1973.0977.3188-.0259.3379-.0737.6758-.1431,1.0137s-.1558.6763-.2598,1.0142c-.061.1992-.1953.2988-.4033.2988Zm1.4434,5.9409c-.1128,0-.2061-.0386-.2798-.1167s-.1104-.1733-.1104-.2861V7.6245c0-.1123.0391-.208.1167-.2861.0781-.0776.1694-.1167.2734-.1167.1211,0,.2188.0391.2925.1167.0732.0781.1104.1738.1104.2861v10.231c0,.1128-.0391.208-.1172.2861-.0776.0781-.1733.1167-.2856.1167Zm1.3779-7.189c-.0957.0176-.1846-.002-.2666-.0581-.0825-.0566-.1323-.1323-.1494-.2275-.0347-.2256-.0825-.4531-.1431-.6826-.061-.2295-.1348-.457-.2212-.6826-.0088-.0259-.0127-.0649-.0127-.1167,0-.0869.0303-.1646.0908-.2344.0605-.0693.1475-.104.2598-.104.208,0,.3467.1001.416.2993.0605.1904.1191.4009.1758.6304.0562.2295.1104.457.1626.6826.0171.104-.0024.2036-.0586.2988-.0566.0957-.1411.1606-.2534.1948Zm1.8066-.5977c-.1816,0-.2944-.0869-.3379-.2603-.104-.3726-.2256-.7363-.3638-1.0918-.1387-.3555-.2778-.6631-.416-.9233-.0264-.0518-.0391-.1079-.0391-.1689,0-.1646.0693-.2729.208-.3247.0347-.0088.0649-.0151.0908-.0195s.0562-.0063.0913-.0063c.2163,0,.3638.0908.4419.2729.1211.2598.2534.5762.3965.9487.1431.373.2578.7236.3442,1.0532.0347.1211.0107.2383-.0713.3511-.0825.1123-.1973.1689-.3447.1689Zm-.4287,7.6958c-.1909,0-.3555-.0693-.4941-.208s-.208-.3032-.208-.4941v-5.5117c0-.104.0391-.1953.1172-.2729.0776-.0781.1733-.1172.2856-.1172.1128,0,.2061.0391.2798.1172.0732.0776.1104.1689.1104.2729v5.3428c0,.0522.0259.0781.0781.0781h4.9658c.0522,0,.0781-.0259.0781-.0781v-5.3301c0-.1123.0391-.208.1172-.2856.0776-.0781.1733-.1172.2856-.1172.1128,0,.208.0391.2861.1172.0781.0776.1172.1733.1172.2856v5.499c0,.1909-.0698.3555-.208.4941-.1387.1387-.3037.208-.4941.208h-5.3169Zm.8838-1.5728c-.0347.0259-.0825.0386-.1431.0386-.1558,0-.2642-.0776-.3247-.2339-.0088-.0259-.0151-.0518-.0195-.0781-.0044-.0259-.0063-.0518-.0063-.0776,0-.1646.0776-.3032.2339-.416.6323-.3813,1.2046-.8452,1.7158-1.3911.0347-.0347.0347-.0693,0-.104-.4419-.4419-.9146-.8188-1.417-1.1309-.0781-.0435-.1362-.0996-.1753-.1689s-.0586-.1387-.0586-.208c0-.1216.041-.2188.1235-.2925.082-.0737.1665-.1108.2534-.1108.0347,0,.0649.0044.0908.0132.0264.0088.0522.0215.0781.0391.2515.1558.5156.3403.793.5522.2773.2124.5459.4443.8062.6958.043.0347.082.0347.1167,0,.1909-.2686.3643-.5396.52-.8125.1562-.2729.2817-.5439.3774-.8125.0688-.1821.1948-.2729.377-.2729.1211,0,.2163.0435.2856.1299s.104.1777.104.2729c0,.0518-.0044.0908-.0127.1172-.1128.3291-.2666.6606-.4614.9941-.1953.334-.4185.6567-.6699.9688-.0259.0347-.0215.0693.0132.104.3643.4248.6758.8623.936,1.313.0347.0605.0518.1255.0518.1948,0,.1733-.0737.2988-.2207.377-.0435.0347-.104.0522-.1821.0522-.1646,0-.2817-.0737-.3511-.2212-.2168-.3813-.4678-.7451-.7539-1.0918-.0347-.0522-.0693-.0522-.104,0-.312.3291-.6367.6284-.9751.897-.3379.2686-.6714.4897-1.001.6631Zm1.7549-6.4351c-.0259.0088-.0649.0127-.1167.0127-.1733,0-.2905-.0864-.3511-.2598-.104-.3726-.2339-.752-.3901-1.1377-.1558-.3853-.3032-.7129-.4419-.9814-.0088-.0347-.0195-.0649-.0322-.0908-.0132-.0259-.0195-.0562-.0195-.0913,0-.1558.0732-.2554.2207-.2988.0522-.0259.1128-.0391.1821-.0391.1992,0,.3423.0869.4292.2603.1382.2856.2856.626.4419,1.0205.1558.3945.2773.7559.3638,1.0854.0088.0259.0132.0605.0132.104,0,.208-.0996.3467-.2993.416Zm1.6514.585c-.1304-.0605-.1953-.1646-.1953-.312,0-.0605.0176-.1216.0522-.1821.2251-.3813.4312-.8188.6177-1.313.186-.4941.3311-.936.4351-1.3262.0605-.1992.1909-.2988.3901-.2988.1128,0,.2061.0391.2798.1172.0732.0776.1104.1646.1104.2598,0,.0435-.0044.0781-.0132.104-.0605.2686-.1475.5723-.2598.9102-.1128.3379-.2388.6719-.377,1.001-.1387.3296-.2817.6196-.4292.8711-.0781.1475-.208.2207-.3901.2207-.0776,0-.1514-.0171-.2207-.0518Z" fill="#fff"/><path d="m50.3784,17.6865c-.0605.0347-.1255.0518-.1948.0518-.165,0-.2817-.0693-.3511-.2075-.0088-.0347-.0195-.0674-.0327-.0977-.0127-.0303-.0195-.063-.0195-.0977,0-.1558.0737-.2861.2212-.3901.7451-.4678,1.3325-.9639,1.7612-1.4883.4292-.5244.752-1.0376.9688-1.5405,0-.0083.002-.0151.0063-.0195s.0068-.0107.0068-.0195c0-.043-.0308-.0781-.0913-.104l-.6499-.2339c-.3208-.104-.687-.2056-1.0986-.3057-.4116-.0996-.7822-.1709-1.1113-.2144h-.0391c-.0518,0-.0908.0259-.1172.0781-.1733.3467-.3506.6782-.5327.9941-.1821.3169-.3687.5962-.5591.8389-.6152.8667-1.2007,1.2998-1.7549,1.2998-.2603,0-.5244-.082-.793-.2471-.1909-.1211-.334-.2856-.4292-.4937s-.1431-.4336-.1431-.6763c0-.3291.0781-.6631.2339-1.001.1562-.3379.3901-.6284.7021-.8711.3901-.312.8169-.522,1.2808-.6304.4634-.1084.9556-.1626,1.4751-.1626.0605,0,.104-.0303.1304-.0908.3032-.6499.5503-1.1914.7407-1.625s.3032-.8193.3384-1.1572v-.0259c0-.0347-.0132-.0605-.0391-.0781-.0264-.0171-.0566-.0171-.0913,0-.2168.0781-.4829.1455-.7993.2017-.3164.0566-.6353.0996-.9556.1299-.3208.0308-.6069.0454-.8579.0454-.1128,0-.2061-.041-.2798-.1235-.0737-.082-.1104-.1797-.1104-.2925.0088-.1211.0542-.2188.1367-.2925.082-.0732.1797-.1104.2925-.1104.8145-.0171,1.5728-.1255,2.2749-.3252.0864-.0259.1709-.043.2534-.0518s.1582-.0132.2275-.0132c.3467,0,.5718.1128.6758.3384.0693.1558.104.3203.104.4937,0,.2603-.0518.5547-.1558.8843-.104.3291-.2339.6675-.3901,1.0137-.1558.3467-.3164.689-.481,1.0273-.0088.0171-.0127.0391-.0127.0649,0,.0435.0259.0737.0776.0908.3379.061.6978.1411,1.0791.2407s.7192.1973,1.0142.2925c.104.0347.2056.0693.3052.104s.2017.0737.3057.1167c.0088,0,.0171.0024.0259.0068s.0176.0063.0264.0063c.043,0,.0732-.0347.0908-.104.0781-.3555.1255-.6826.1431-.9814.0171-.2988.0171-.5698,0-.8125,0-.1211.043-.2231.1299-.3057.0864-.082.1865-.1235.2988-.1235.1128,0,.208.0391.2861.1172s.1211.1689.1299.2729c.0264.7886-.0435,1.5127-.208,2.1709v.0391c0,.0435.0215.0781.0649.104.2686.1128.5332.2319.7935.3574.2598.126.5239.2622.793.4097.1729.0869.2598.2256.2598.416,0,.1216-.0371.2188-.1104.2925-.0737.0737-.1582.1104-.2534.1104-.0522,0-.1128-.0171-.1821-.0518-.2515-.1387-.5049-.2686-.7607-.3901-.2554-.1211-.5132-.2383-.7734-.3511-.0176-.0083-.0347-.0127-.0518-.0127-.0435,0-.0737.0215-.0913.0649-.5806,1.3604-1.625,2.5088-3.1328,3.4448Zm-4.082-3.3149c-.0518.1299-.0781.2598-.0781.3901,0,.1646.0435.3096.1304.4351.0864.126.208.189.3638.189.1646,0,.3555-.0801.5718-.2407.2168-.1602.4595-.4312.728-.8125.0957-.1475.208-.3359.3384-.5654.1299-.2295.251-.4487.3638-.6567.0088-.0171.0132-.0391.0132-.0649,0-.0518-.0347-.0781-.104-.0781-.5547.0176-1.04.1411-1.4561.3706-.416.23-.7065.5742-.8711,1.0337Z" fill="#fff"/></g></g></g></svg>