<?xml version="1.0" encoding="UTF-8"?><svg id="_レイヤー_2" xmlns="http://www.w3.org/2000/svg" width="252" height="133.0493" viewBox="0 0 252 133.0493"><g id="_レイヤー_1-2"><g><g><rect x=".75" y=".7498" width="250.5" height="131.5495" fill="#fff"/><path d="m251.25.75v131.5493H.75V.75h250.5m.75-.75H0v133.0493h252V0h0Z" fill="#333"/></g><g><path d="m80.7471,66.7207c-.1904,0-.3555-.0693-.4941-.208s-.208-.3027-.208-.4941v-7.748c0-.1904.0693-.3545.208-.4932s.3037-.208.4941-.208h1.833c.043,0,.0781-.0176.1045-.0527.1641-.2246.3096-.4766.4355-.7539.125-.2773.2275-.5547.3047-.832.0605-.2246.1992-.3379.416-.3379.1133,0,.208.041.2861.124.0781.082.1172.1797.1172.292,0,.0439-.0049.0781-.0127.1045-.1133.4932-.291.9482-.5332,1.3643-.0264.0615-.0088.0918.0518.0918h3.2109c.1992,0,.3662.0693.501.208.1338.1387.2012.3027.2012.4932v7.748c0,.1914-.0674.3555-.2012.4941-.1348.1387-.3018.208-.501.208h-6.2139Zm.1953-6.3828h5.8242c.0518,0,.0771-.0264.0771-.0781v-1.8066c0-.0527-.0254-.0781-.0771-.0781h-5.8242c-.0518,0-.0781.0254-.0781.0781v1.8066c0,.0518.0264.0781.0781.0781Zm0,2.7559h5.8242c.0518,0,.0771-.0264.0771-.0781v-1.8066c0-.0518-.0254-.0781-.0771-.0781h-5.8242c-.0518,0-.0781.0264-.0781.0781v1.8066c0,.0518.0264.0781.0781.0781Zm0,2.8213h5.8242c.0518,0,.0771-.0264.0771-.0781v-1.8721c0-.0518-.0254-.0781-.0771-.0781h-5.8242c-.0518,0-.0781.0264-.0781.0781v1.8721c0,.0518.0264.0781.0781.0781Z"/><path d="m93.8379,66.7471c-.1904,0-.3555-.0693-.4932-.208-.1387-.1387-.208-.3037-.208-.4941v-7.0332c0-.1992.0693-.3662.208-.5.1377-.1348.3027-.2021.4932-.2021h3.3936c.0518,0,.0781-.0254.0781-.0781v-2.0273c0-.1211.041-.2217.123-.2988.082-.0781.1797-.1172.293-.1172.1211,0,.2207.0391.2988.1172.0781.0771.1172.1777.1172.2988v2.0273c0,.0527.0254.0781.0781.0781h3.4053c.1992,0,.3662.0674.501.2021.1338.1338.2012.3008.2012.5v7.0332c0,.1992-.0674.3662-.2012.5-.1348.1348-.3018.2021-.501.2021h-7.7871Zm.1953-4.8887h3.1982c.0518,0,.0781-.0254.0781-.0771v-2.6006c0-.0518-.0264-.0781-.0781-.0781h-3.1982c-.0518,0-.0781.0264-.0781.0781v2.6006c0,.0518.0264.0771.0781.0771Zm0,4.0957h3.1982c.0518,0,.0781-.0264.0781-.0781v-3.1328c0-.0527-.0264-.0781-.0781-.0781h-3.1982c-.0518,0-.0781.0254-.0781.0781v3.1328c0,.0518.0264.0781.0781.0781Zm4.1865-4.0957h3.2109c.0518,0,.0781-.0254.0781-.0771v-2.6006c0-.0518-.0264-.0781-.0781-.0781h-3.2109c-.0527,0-.0781.0264-.0781.0781v2.6006c0,.0518.0254.0771.0781.0771Zm0,4.0957h3.2109c.0518,0,.0781-.0264.0781-.0781v-3.1328c0-.0527-.0264-.0781-.0781-.0781h-3.2109c-.0527,0-.0781.0254-.0781.0781v3.1328c0,.0518.0254.0781.0781.0781Z"/><path d="m106.6045,58.6475c-.1133,0-.2061-.0361-.2803-.1104-.0732-.0732-.1104-.167-.1104-.2793s.0371-.2061.1104-.2793c.0742-.0732.167-.1104.2803-.1104h3.2236c.1123,0,.2061.0371.2793.1104s.1104.167.1104.2793c0,.1045-.0371.1953-.1104.2734-.0732.0771-.167.1162-.2793.1162h-3.2236Zm.3379-1.6768c-.1133,0-.208-.0391-.2861-.1172s-.1172-.1689-.1172-.2725c0-.1123.0391-.2061.1172-.2793.0781-.0742.1729-.1113.2861-.1113h2.5479c.1035,0,.1943.0371.2725.1113.0781.0732.1172.167.1172.2793s-.0391.2061-.1172.2793c-.0781.0742-.1689.1104-.2725.1104h-2.5479Zm.0518,3.3545c-.1133,0-.208-.0391-.2861-.1172s-.1172-.1689-.1172-.2734c0-.1123.0391-.208.1172-.2861.0781-.0771.1729-.1162.2861-.1162h2.4443c.1123,0,.2051.0391.2793.1162.0732.0781.1104.1738.1104.2861,0,.1133-.0391.2061-.1172.2803-.0781.0732-.1689.1104-.2725.1104h-2.4443Zm0,1.6768c-.1133,0-.208-.0391-.2861-.1172s-.1172-.1689-.1172-.2725c0-.1221.0391-.2188.1172-.293.0781-.0732.1729-.1104.2861-.1104h2.4443c.1123,0,.2051.0391.2793.1172.0732.0781.1104.1729.1104.2861,0,.1035-.0371.1943-.1104.2725-.0742.0781-.167.1172-.2793.1172h-2.4443Zm.2988,4.7705c-.1904,0-.3555-.0693-.4941-.208-.1387-.1387-.208-.3027-.208-.4932v-2.4834c0-.1992.0693-.3662.208-.501.1387-.1338.3037-.2012.4941-.2012h1.8721c.1992,0,.3662.0693.5.208.1348.1387.2021.3037.2021.4941v2.4834c0,.1904-.0674.3545-.2021.4932-.1338.1387-.3008.208-.5.208h-1.8721Zm.1426-.7012h1.5996c.0518,0,.0781-.0264.0781-.0781v-2.3145c0-.0518-.0264-.0781-.0781-.0781h-1.5996c-.0518,0-.0771.0264-.0771.0781v2.3145c0,.0518.0254.0781.0771.0781Zm9.3086-6.4873c-.3643-.1816-.7393-.4092-1.125-.6826s-.752-.5654-1.0977-.8779c-.3477-.3115-.6553-.6104-.9238-.8965-.0254-.043-.0605-.043-.1035,0-.1221.1562-.2949.3428-.5205.5586-.2246.2168-.4697.4443-.7344.6826s-.5244.46-.7793.6631c-.2559.2041-.4834.3711-.6826.501-.0615.0342-.126.0518-.1953.0518-.165,0-.2822-.0781-.3506-.2344-.0264-.0693-.0391-.1299-.0391-.1816,0-.1738.0771-.3076.2334-.4033.3291-.1992.6611-.4414.9951-.7275.333-.2861.6494-.585.9482-.8975.2998-.3115.5527-.6016.7607-.8711.1123-.1387.2471-.208.4033-.208.1475,0,.2686.0615.3643.1826.2764.3291.5928.6543.9482.9746.3555.3213.7197.6152,1.0928.8838.3721.2686.7227.4854,1.0527.6504.1904.1035.2861.2559.2861.4551,0,.1211-.042.2188-.124.292-.082.0742-.1709.1113-.2666.1113-.0605,0-.1084-.0088-.1426-.0264Zm-6.0322,7.1885c-.1123.0176-.2168-.0127-.3115-.0908-.0957-.0781-.1436-.1777-.1436-.2988,0-.251.1172-.4033.3516-.4551,1.083-.2334,2.127-.5527,3.1328-.9551,1.0049-.4033,1.8975-.8564,2.6777-1.3584.043-.0352.1045-.0527.1816-.0527.1387,0,.2383.0654.2998.1953.0166.0352.0303.0713.0391.1104.0078.0391.0127.0762.0127.1104,0,.1914-.0781.334-.2344.4297-.3555.2334-.7842.4697-1.2871.708-.502.2383-1.0332.4658-1.5918.6826-.5596.2168-1.1123.4092-1.6582.5781s-1.0352.3018-1.4688.3965Zm.2471-2.5869c-.1123.0352-.2236.0137-.3311-.0645-.1094-.0781-.1631-.1865-.1631-.3252,0-.208.1045-.3428.3125-.4033.8574-.2334,1.6943-.5371,2.5088-.9102.8145-.3721,1.5293-.7842,2.1445-1.2344.0693-.0518.1387-.0781.208-.0781.1387,0,.2383.0654.2998.1953.0342.0693.0518.1475.0518.2334,0,.1738-.0742.3125-.2217.416-.71.4766-1.4863.9014-2.3262,1.2744-.8408.3721-1.6689.6719-2.4834.8965Zm.2988-2.4043c-.0254.0088-.0605.0127-.1035.0127-.1045,0-.1953-.0371-.2734-.1104-.0781-.0742-.1172-.1709-.1172-.293,0-.2158.1045-.3555.3125-.416.6406-.1992,1.2676-.4521,1.8779-.7598.6113-.3076,1.1641-.6396,1.6582-.9951.0518-.043.1172-.0645.1943-.0645.1475,0,.2471.0605.2998.1816.0342.0693.0518.1475.0518.2344,0,.1816-.0742.3242-.2217.4287-.2939.1992-.6562.4141-1.085.6436s-.8711.4463-1.3262.6494c-.4551.2041-.877.3662-1.2676.4883Z"/><path d="m120.54,66.9287c-.1299-.0605-.1953-.165-.1953-.3115,0-.0781.0264-.1562.0781-.2344.2773-.4336.4922-.9375.6436-1.5146.1514-.5762.2578-1.1631.3184-1.7617.0088-.0342.002-.0557-.0195-.0645s-.0449-.0039-.0713.0127c-.1123.1045-.2383.2021-.377.293s-.2812.1836-.4287.2793c-.0264.0088-.0518.0195-.0781.0322-.0264.0137-.0518.0195-.0781.0195-.0869,0-.165-.0391-.2334-.1172-.0703-.0781-.1045-.1689-.1045-.2725,0-.2432.1123-.4287.3379-.5596.4248-.2422.7842-.5586,1.0791-.9482.0263-.0264.0391-.0566.0391-.0918v-1.8975c0-.0693-.0215-.0908-.0654-.0654-.0088.0088-.0303.0225-.0645.0391-.0352.0264-.083.0391-.1436.0391-.1475,0-.2598-.082-.3379-.2471-.1904-.5195-.4463-1.0137-.7666-1.4814-.0518-.0693-.0781-.1436-.0781-.2217,0-.1377.0654-.251.1953-.3379.0859-.043.1689-.0645.2471-.0645.1641,0,.2939.0693.3896.208.0957.1641.1885.3311.2793.5s.1758.3408.2539.5137c.0166.0352.0361.0498.0586.0459.0215-.0049.0322-.0244.0322-.0586v-1.5342c0-.1738.0605-.3232.1816-.4482.1221-.126.2734-.1885.4551-.1885h3.5361c.0518,0,.0781-.0264.0781-.0781v-.3516c0-.1211.041-.2207.123-.2988.083-.0781.1807-.1172.293-.1172s.21.0391.292.1172c.083.0781.124.1777.124.2988v.3516c0,.0518.0264.0781.0781.0781h3.9521c.1123,0,.208.0361.2861.1104.0771.0732.1162.167.1162.2793s-.0371.2061-.1104.2793c-.0732.0742-.1709.1104-.292.1104h-8.2422c-.0518,0-.0781.0264-.0781.0781v4.459c0,.3818-.0195.7979-.0586,1.248-.0391.4512-.1016.9082-.1885,1.3721-.0869.4629-.1934.8984-.3184,1.3057-.126.4082-.2754.7549-.4482,1.04-.0957.1475-.2344.2217-.416.2217-.0781,0-.1689-.0225-.2734-.0654Zm2.3008-.2725c-.0518.0166-.0947.0254-.1299.0254-.0869,0-.167-.0371-.2402-.1104-.0742-.0732-.1104-.1709-.1104-.292,0-.1826.0859-.3076.2598-.377.4072-.1738.7891-.3799,1.1445-.6182.3545-.2383.6533-.4873.8965-.7471.1045-.1045.2207-.1562.3506-.1562.0869,0,.1611.0176.2217.0518.1211.0693.1816.1689.1816.2988,0,.0615-.0254.126-.0781.1953-.3203.3984-.7148.75-1.1826,1.0527-.4678.3037-.9062.5293-1.3135.6768Zm2.7041.2334c-.1123,0-.2061-.043-.2793-.1299s-.1104-.1865-.1104-.2988c.0088-.1045.0518-.1934.1299-.2666s.1729-.1016.2861-.084c.0693.0078.1318.0127.1885.0127h.1494c.1816,0,.3096-.0195.3838-.0586.0732-.0391.1104-.1104.1104-.2148v-1.6504c0-.0527-.0264-.0781-.0781-.0781h-1.4688c-.1914,0-.3555-.0713-.4941-.2148-.1387-.1426-.208-.3096-.208-.5v-1.7686c0-.0254-.0088-.0449-.0264-.0586-.0176-.0127-.0391-.0107-.0645.0068-.1562.0957-.3213.1865-.4941.2725-.1738.0869-.3555.1699-.5459.2471-.0527.0176-.0908.0264-.1172.0264-.0957,0-.1777-.0371-.2471-.1104s-.1045-.167-.1045-.2793c0-.208.0996-.3516.2998-.4297.3027-.1299.6064-.29.9102-.4805.043-.0352.0469-.0693.0127-.1045-.0869-.1035-.1797-.2119-.2793-.3242-.1006-.1133-.2109-.2256-.332-.3389-.0693-.0605-.1035-.1426-.1035-.2471,0-.1211.0469-.2119.1426-.2725.0869-.0605.1904-.0908.3125-.0908.1641,0,.2988.0605.4023.1816.1826.2168.334.4287.4551.6367v.0137c.0088,0,.0244.0059.0459.0195.0215.0127.041.0107.0586-.0068.1816-.1475.3506-.3037.5068-.4678.1562-.165.3027-.3428.4414-.5332.0605-.0605.0479-.0908-.0381-.0908h-2.1455c-.1035,0-.1934-.0371-.2666-.1104-.0732-.0742-.1104-.1631-.1104-.2666,0-.1045.0371-.1934.1104-.2666s.1631-.1104.2666-.1104h2.6523c.0518,0,.082-.0176.0908-.0527.0859-.1816.1641-.3848.2334-.6104.0605-.1992.1865-.2988.3779-.2988.1123,0,.2031.0391.2725.1162.0693.0781.1045.165.1045.2607,0,.043-.0049.0781-.0137.1035-.0176.0605-.0391.124-.0645.1885-.0264.0654-.0527.1328-.0781.2021-.0264.0605-.0049.0908.0645.0908h3.4453c.1123,0,.2031.0371.2734.1104.0693.0732.1035.1621.1035.2666,0,.1123-.0371.2031-.1104.2725-.0742.0693-.1621.1045-.2666.1045h-1.8975c-.0781,0-.0957.0303-.0527.0908.1211.165.2607.3271.416.4873.1562.1611.3164.3271.4814.501.043.0342.0781.0391.1035.0127.1211-.0869.2295-.1816.3252-.2861.0957-.1035.1816-.2119.2598-.3252.0781-.1211.1826-.1816.3125-.1816.0518,0,.0947.0127.1299.0391.1299.0605.1953.1602.1953.2988,0,.0518-.0137.1045-.0391.1562-.0781.1387-.165.2705-.2607.3965-.0947.126-.2031.2451-.3242.3574-.0439.0264-.0439.0605,0,.1035.1377.0869.2793.1758.4219.2666.1436.0918.293.1758.4492.2539.1729.0781.2598.2129.2598.4033,0,.1035-.0352.1885-.1045.2529-.0693.0654-.1475.0977-.2334.0977-.0264,0-.0654-.0088-.1172-.0264-.373-.1729-.7588-.4072-1.1572-.7012-.0605-.0439-.0908-.0391-.0908.0127.0088.0254.0127.0605.0127.1035v1.8857c0,.1992-.0674.3682-.2012.5068-.1348.1387-.3018.208-.501.208h-1.4561c-.0518,0-.0771.0254-.0771.0781v1.6504c0,.4072-.126.6914-.377.8516-.252.1602-.6719.2236-1.2617.1885Zm-.5332-4.7578h3.5498c.0518,0,.0781-.0264.0781-.0781v-.4678c0-.0518-.0264-.0781-.0781-.0781h-3.5498c-.0518,0-.0771.0264-.0771.0781v.4678c0,.0518.0254.0781.0771.0781Zm0,1.2871h3.5498c.0518,0,.0781-.0264.0781-.0781v-.4424c0-.0518-.0264-.0771-.0781-.0771h-3.5498c-.0518,0-.0771.0254-.0771.0771v.4424c0,.0518.0254.0781.0771.0781Zm.2217-2.5996h3.4062c.0342,0,.0557-.0117.0645-.0332s0-.041-.0264-.0586c-.2334-.2246-.457-.4609-.6689-.708-.2129-.2471-.4053-.501-.5791-.7607-.0254-.0342-.0605-.0518-.1035-.0518h-.8584c-.0518,0-.082.0176-.0908.0518-.1387.2432-.3076.4873-.5068.7344s-.4248.4922-.6758.7344c-.0264.0176-.0352.0371-.0264.0586s.0303.0332.0654.0332Zm5.3945,5.8232c-.3379-.1475-.708-.3613-1.1113-.6436-.4033-.2812-.7949-.6084-1.1768-.9814-.0693-.0693-.1035-.1553-.1035-.2598,0-.1299.0479-.2295.1426-.2988.0781-.0518.1602-.0781.2471-.0781.1475,0,.2734.0566.377.1689.2432.2432.54.4834.8906.7217.3516.2383.665.4307.9424.5781.1826.0957.2734.2432.2734.4424,0,.1123-.0371.2031-.1104.2725-.0742.0693-.1582.1045-.2539.1045-.0264,0-.0654-.0088-.1172-.0264Z"/><path d="m134.8926,66.877c-.1133,0-.208-.0391-.2861-.1172s-.1172-.1689-.1172-.2725v-9.6982c0-.1992.0693-.3662.208-.501.1387-.1338.3037-.2012.4941-.2012h2.9512c.1992,0,.3662.0693.5.208.1348.1387.2021.3037.2021.4941v2.8857c0,.1904-.0674.3555-.2021.4941-.1338.1387-.3008.208-.5.208h-2.7822c-.0518,0-.0781.0264-.0781.0781v6.0322c0,.1123-.0391.2051-.1172.2793-.0781.0732-.1689.1104-.2725.1104Zm.4678-9.0225h2.6523c.0518,0,.0771-.0254.0771-.0771v-.8457c0-.0518-.0254-.0781-.0771-.0781h-2.6523c-.0518,0-.0781.0264-.0781.0781v.8457c0,.0518.0264.0771.0781.0771Zm0,1.7686h2.6523c.0518,0,.0771-.0264.0771-.0781v-.8584c0-.0518-.0254-.0781-.0771-.0781h-2.6523c-.0518,0-.0781.0264-.0781.0781v.8584c0,.0518.0264.0781.0781.0781Zm2.7168,5.7461c-.1904,0-.3555-.0693-.4941-.208s-.208-.3037-.208-.4941v-2.3926c0-.1992.0693-.3652.208-.5s.3037-.2012.4941-.2012h2.7559c.1992,0,.3662.0664.501.2012.1338.1348.2012.3008.2012.5v2.3926c0,.1904-.0674.3555-.2012.4941-.1348.1387-.3018.208-.501.208h-2.7559Zm.1562-.7676h2.4443c.0518,0,.0771-.0254.0771-.0781v-2.1055c0-.0518-.0254-.0781-.0771-.0781h-2.4443c-.0518,0-.0781.0264-.0781.0781v2.1055c0,.0527.0264.0781.0781.0781Zm4.2637,2.3145c-.1123-.0088-.208-.0566-.2861-.1436-.0771-.0859-.1162-.1865-.1162-.2988.0078-.1123.0518-.2061.1299-.2793s.1729-.1064.2861-.0977c.0684,0,.1299.002.1816.0068.0518.0039.1035.0068.1562.0068.3203,0,.5303-.0391.6299-.1172s.1494-.2129.1494-.4033v-5.1348c0-.0518-.0254-.0781-.0771-.0781h-2.7822c-.1992,0-.3662-.0693-.501-.208-.1338-.1387-.2012-.3037-.2012-.4941v-2.8857c0-.1992.0693-.3662.208-.501.1387-.1338.3027-.2012.4941-.2012h2.9512c.1992,0,.3652.0693.5.208s.2012.3037.2012.4941v8.8008c0,.4941-.1533.8467-.4609,1.0596-.3076.2119-.7949.3008-1.4629.2666Zm-1.5986-9.0615h2.6523c.0518,0,.0771-.0254.0771-.0771v-.8457c0-.0518-.0254-.0781-.0771-.0781h-2.6523c-.0518,0-.0781.0264-.0781.0781v.8457c0,.0518.0264.0771.0781.0771Zm0,1.7686h2.6523c.0518,0,.0771-.0264.0771-.0781v-.8584c0-.0518-.0254-.0781-.0771-.0781h-2.6523c-.0518,0-.0781.0264-.0781.0781v.8584c0,.0518.0264.0781.0781.0781Z"/><path d="m148.334,58.6475c-.1123,0-.2061-.0361-.2793-.1104-.0742-.0732-.1104-.167-.1104-.2793s.0361-.2061.1104-.2793c.0732-.0732.167-.1104.2793-.1104h3.2236c.1133,0,.2061.0371.2803.1104.0732.0732.1104.167.1104.2793,0,.1045-.0371.1953-.1104.2734-.0742.0771-.167.1162-.2803.1162h-3.2236Zm.3379-1.6768c-.1123,0-.208-.0391-.2861-.1172s-.1172-.1689-.1172-.2725c0-.1123.0391-.2061.1172-.2793.0781-.0742.1738-.1113.2861-.1113h2.5479c.1045,0,.1953.0371.2734.1113.0781.0732.1172.167.1172.2793s-.0391.2061-.1172.2793c-.0781.0742-.1689.1104-.2734.1104h-2.5479Zm.0518,3.3545c-.1123,0-.208-.0391-.2852-.1172-.0781-.0781-.1172-.1689-.1172-.2734,0-.1123.0391-.208.1172-.2861.0771-.0771.1729-.1162.2852-.1162h2.4443c.1123,0,.2061.0391.2793.1162.0742.0781.1104.1738.1104.2861,0,.1133-.0391.2061-.1162.2803-.0781.0732-.1689.1104-.2734.1104h-2.4443Zm0,1.6768c-.1123,0-.208-.0391-.2852-.1172-.0781-.0781-.1172-.1689-.1172-.2725,0-.1221.0391-.2188.1172-.293.0771-.0732.1729-.1104.2852-.1104h2.4443c.1123,0,.2061.0391.2793.1172.0742.0781.1104.1729.1104.2861,0,.1035-.0361.1943-.1104.2725-.0732.0781-.167.1172-.2793.1172h-2.4443Zm.2998,4.7705c-.1914,0-.3555-.0693-.4941-.208s-.208-.3027-.208-.4932v-2.4834c0-.1992.0693-.3662.208-.501.1387-.1338.3027-.2012.4941-.2012h1.8711c.2002,0,.3662.0693.501.208.1338.1387.2012.3037.2012.4941v2.4834c0,.1904-.0674.3545-.2012.4932-.1348.1387-.3008.208-.501.208h-1.8711Zm.1426-.7012h1.5986c.0527,0,.0781-.0264.0781-.0781v-2.3145c0-.0518-.0254-.0781-.0781-.0781h-1.5986c-.0518,0-.0781.0264-.0781.0781v2.3145c0,.0518.0264.0781.0781.0781Zm9.3076-6.4873c-.3633-.1816-.7383-.4092-1.124-.6826s-.752-.5654-1.0986-.8779c-.3467-.3115-.6543-.6104-.9229-.8965-.0264-.043-.0605-.043-.1045,0-.1211.1562-.2939.3428-.5195.5586-.2256.2168-.4707.4443-.7344.6826-.2646.2383-.5244.46-.7803.6631-.2559.2041-.4834.3711-.6826.501-.0605.0342-.126.0518-.1953.0518-.1641,0-.2812-.0781-.3506-.2344-.0264-.0693-.0391-.1299-.0391-.1816,0-.1738.0781-.3076.2344-.4033.3291-.1992.6602-.4414.9941-.7275s.6504-.585.9492-.8975c.2988-.3115.5527-.6016.7607-.8711.1123-.1387.2471-.208.4023-.208.1475,0,.2686.0615.3643.1826.2773.3291.5938.6543.9492.9746.3555.3213.7188.6152,1.0918.8838.3721.2686.7236.4854,1.0527.6504.1904.1035.2861.2559.2861.4551,0,.1211-.041.2188-.123.292-.083.0742-.1719.1113-.2666.1113-.0605,0-.1084-.0088-.1436-.0264Zm-6.0312,7.1885c-.1133.0176-.2168-.0127-.3125-.0908s-.1426-.1777-.1426-.2988c0-.251.1162-.4033.3506-.4551,1.083-.2334,2.1279-.5527,3.1328-.9551,1.0059-.4033,1.8984-.8564,2.6787-1.3584.043-.0352.1035-.0527.1816-.0527.1387,0,.2383.0654.2988.1953.0176.0352.0303.0713.0391.1104s.0127.0762.0127.1104c0,.1914-.0781.334-.2334.4297-.3555.2334-.7852.4697-1.2871.708-.5029.2383-1.0332.4658-1.5928.6826-.5586.2168-1.1113.4092-1.6572.5781s-1.0361.3018-1.4688.3965Zm.2471-2.5869c-.1133.0352-.2236.0137-.332-.0645s-.1621-.1865-.1621-.3252c0-.208.1035-.3428.3115-.4033.8584-.2334,1.6943-.5371,2.5088-.9102.8145-.3721,1.5303-.7842,2.1455-1.2344.0693-.0518.1387-.0781.208-.0781.1387,0,.2383.0654.2988.1953.0342.0693.0518.1475.0518.2334,0,.1738-.0732.3125-.2207.416-.7109.4766-1.4863.9014-2.3271,1.2744-.8408.3721-1.668.6719-2.4824.8965Zm.2988-2.4043c-.0264.0088-.0605.0127-.1045.0127-.1035,0-.1943-.0371-.2725-.1104-.0781-.0742-.1172-.1709-.1172-.293,0-.2158.1035-.3555.3115-.416.6416-.1992,1.2676-.4521,1.8789-.7598s1.1631-.6396,1.6572-.9951c.0518-.043.1172-.0645.1953-.0645.1475,0,.2471.0605.2988.1816.0342.0693.0518.1475.0518.2344,0,.1816-.0732.3242-.2207.4287-.2949.1992-.6562.4141-1.0859.6436-.4287.2295-.8701.4463-1.3252.6494-.4551.2041-.8779.3662-1.2676.4883Z"/><path d="m162.5039,66.6816c-.0254.0088-.0605.0137-.1035.0137-.1133,0-.2129-.0391-.2988-.1172-.0869-.0781-.1309-.1777-.1309-.2988,0-.1914.0957-.3213.2861-.3906.4424-.1562.873-.3643,1.2939-.624.4199-.2598.7861-.541,1.0986-.8447.1035-.1045.2246-.1562.3633-.1562.1133,0,.2041.0303.2734.0908.1045.0869.1562.1865.1562.2998,0,.0947-.0352.1777-.1045.2461-.3896.3906-.8271.7393-1.3125,1.0469s-.9932.5527-1.5215.7344Zm3.1201.1562c-.1123-.0088-.2061-.0547-.2793-.1367-.0742-.082-.1104-.1797-.1104-.292,0-.1221.043-.2217.1299-.2988.0859-.0781.1865-.1133.2988-.1045s.2148.0156.3057.0195c.0908.0049.1758.0068.2529.0068.4336,0,.6504-.0869.6504-.2607v-1.8457c0-.0518-.0264-.0781-.0781-.0781h-4.3682c-.1035,0-.1943-.0361-.2725-.1104-.0781-.0732-.1172-.167-.1172-.2793s.0371-.208.1104-.2861.167-.1172.2793-.1172h9.6982c.1123,0,.2061.0391.2793.1172.0742.0781.1104.1738.1104.2861,0,.1035-.0361.1953-.1104.2725-.0732.0781-.167.1172-.2793.1172h-4.3545c-.0527,0-.0781.0264-.0781.0781v1.8457c0,.7197-.5596,1.0791-1.6777,1.0791h-.1885c-.0645,0-.1318-.0039-.2012-.0127Zm-1.8721-6.2139c-.1904,0-.3555-.0693-.4941-.208s-.208-.3037-.208-.4941v-1.417c0-.1992.0693-.3662.208-.501.1387-.1338.3037-.2012.4941-.2012h1.7812c.0518,0,.0781-.0254.0781-.0781v-.8057c0-.0518-.0264-.0781-.0781-.0781h-3.042c-.1045,0-.1934-.0371-.2666-.1104s-.1104-.1631-.1104-.2666c0-.0957.0371-.1797.1104-.2539.0732-.0732.1621-.1104.2666-.1104h9.5684c.0947,0,.1797.0352.2529.1045.0733.0693.1104.1562.1104.2598s-.0342.1934-.1035.2666-.1562.1104-.2598.1104h-3.042c-.0527,0-.0781.0264-.0781.0781v.8057c0,.0527.0254.0781.0781.0781h1.7803c.1992,0,.3662.0674.501.2012.1338.1348.2012.3018.2012.501v1.417c0,.1904-.0674.3555-.2012.4941-.1348.1387-.3018.208-.501.208h-7.0459Zm.0264,1.5859c-.1133,0-.208-.0391-.2861-.1172s-.1172-.1689-.1172-.2725c0-.1133.0391-.208.1172-.2861s.1729-.1172.2861-.1172h6.9941c.1211,0,.2188.0391.292.1172s.1104.1729.1104.2861c0,.1123-.0391.2051-.1162.2793-.0781.0732-.1738.1104-.2861.1104h-6.9941Zm.1689-2.3398h1.5859c.0518,0,.0781-.0264.0781-.0781v-1.1699c0-.0518-.0264-.0781-.0781-.0781h-1.5859c-.0518,0-.0781.0264-.0781.0781v1.1699c0,.0518.0264.0781.0781.0781Zm2.5479-2.0674h1.5596c.0527,0,.0781-.0254.0781-.0781v-.8057c0-.0518-.0254-.0781-.0781-.0781h-1.5596c-.0518,0-.0781.0264-.0781.0781v.8057c0,.0527.0264.0781.0781.0781Zm0,2.0674h1.5596c.0527,0,.0781-.0264.0781-.0781v-1.1699c0-.0518-.0254-.0781-.0781-.0781h-1.5596c-.0518,0-.0781.0264-.0781.0781v1.1699c0,.0518.0264.0781.0781.0781Zm2.5225,0h1.5859c.0518,0,.0771-.0264.0771-.0781v-1.1699c0-.0518-.0254-.0781-.0771-.0781h-1.5859c-.0527,0-.0781.0264-.0781.0781v1.1699c0,.0518.0254.0781.0781.0781Zm3.0029,6.8115c-.5205-.1816-1.0254-.4268-1.5146-.7344-.4902-.3076-.9258-.6562-1.3066-1.0469-.0693-.0684-.1045-.1514-.1045-.2461,0-.1221.0527-.2217.1562-.2998.0693-.0605.1562-.0908.2598-.0908.1475,0,.2734.0518.377.1562.3037.3037.665.585,1.0859.8447.4199.2598.8516.4678,1.2939.624.1992.0693.2988.1953.2988.377,0,.1299-.0439.2344-.1299.3125-.0869.0781-.1865.1172-.2998.1172-.0518,0-.0908-.0049-.1162-.0137Z"/></g><g><path d="m126.4067,113.1973c-.207,0-.375-.168-.375-.375v-15.0234c0-.207.168-.375.375-.375s.375.168.375.375v15.0234c0,.207-.168.375-.375.375Z" fill="#333"/><path d="m121.1871,105.3887c.2527-.1611.5894-.0859.7509.168l4.4689,7.0166,4.4689-7.0166c.1614-.2539.4981-.3291.7509-.168.2527.1616.326.5005.1667.752l-4.9277,7.7368c-.0999.1562-.2729.252-.4588.252s-.3589-.0957-.4588-.252l-4.9277-7.7368c-.0573-.0913-.085-.1919-.085-.292,0-.1792.0892-.3555.2517-.46Z" fill="#333"/></g><line x1="119.9069" y1="120.2994" x2="132.9069" y2="120.2994" fill="none" stroke="#333" stroke-linecap="round" stroke-miterlimit="10" stroke-width=".75"/><polygon points="42.7916 .7994 .75 48.8489 .75 .7994 42.7916 .7994" fill="#f4e576"/></g></g></svg>