<?xml version="1.0" encoding="UTF-8"?><svg id="_レイヤー_2" xmlns="http://www.w3.org/2000/svg" xmlns:xlink="http://www.w3.org/1999/xlink" viewBox="0 0 127 133.3"><defs><style>.cls-1,.cls-2{fill:none;}.cls-3{fill:url(#_10_dpi_20_3);}.cls-4{clip-path:url(#clippath);}.cls-5{fill:#ebd875;}.cls-6{fill:#fff;}.cls-7{fill:#8fb6c8;}.cls-8{fill:#a48a81;}.cls-9{fill:#decec6;}.cls-2{stroke:#a48a81;stroke-linecap:round;stroke-miterlimit:10;stroke-width:2px;}</style><clipPath id="clippath"><circle class="cls-1" cx="63" cy="63" r="62"/></clipPath><pattern id="_10_dpi_20_3" x="0" y="0" width="28.8" height="28.8" patternTransform="translate(-4098.58 -1805.29) scale(.6)" patternUnits="userSpaceOnUse" viewBox="0 0 28.8 28.8"><g><rect class="cls-1" x="0" width="28.8" height="28.8"/><g><path class="cls-7" d="m28.8,30.24c.8,0,1.44-.64,1.44-1.44s-.64-1.44-1.44-1.44-1.44.64-1.44,1.44.64,1.44,1.44,1.44Z"/><path class="cls-7" d="m14.4,30.24c.8,0,1.44-.64,1.44-1.44s-.65-1.44-1.44-1.44-1.44.64-1.44,1.44.64,1.44,1.44,1.44Z"/><path class="cls-7" d="m28.8,15.84c.8,0,1.44-.65,1.44-1.44s-.64-1.44-1.44-1.44-1.44.64-1.44,1.44.64,1.44,1.44,1.44Z"/><path class="cls-7" d="m14.4,15.84c.8,0,1.44-.65,1.44-1.44s-.65-1.44-1.44-1.44-1.44.64-1.44,1.44.64,1.44,1.44,1.44Z"/><path class="cls-7" d="m7.2,23.04c.79,0,1.44-.64,1.44-1.44s-.65-1.44-1.44-1.44-1.44.64-1.44,1.44.64,1.44,1.44,1.44Z"/><path class="cls-7" d="m21.6,23.04c.79,0,1.44-.64,1.44-1.44s-.65-1.44-1.44-1.44-1.44.64-1.44,1.44.64,1.44,1.44,1.44Z"/><path class="cls-7" d="m7.2,8.64c.79,0,1.44-.64,1.44-1.44s-.65-1.44-1.44-1.44-1.44.64-1.44,1.44.64,1.44,1.44,1.44Z"/><path class="cls-7" d="m21.6,8.64c.79,0,1.44-.64,1.44-1.44s-.65-1.44-1.44-1.44-1.44.64-1.44,1.44.64,1.44,1.44,1.44Z"/></g><g><path class="cls-7" d="m0,30.24c.8,0,1.44-.64,1.44-1.44S.8,27.36,0,27.36s-1.44.64-1.44,1.44S-.8,30.24,0,30.24Z"/><path class="cls-7" d="m0,15.84c.8,0,1.44-.65,1.44-1.44S.8,12.96,0,12.96s-1.44.64-1.44,1.44S-.8,15.84,0,15.84Z"/></g><g><path class="cls-7" d="m28.8,1.44c.8,0,1.44-.64,1.44-1.44s-.64-1.44-1.44-1.44S27.36-.79,27.36,0s.64,1.44,1.44,1.44Z"/><path class="cls-7" d="m14.4,1.44C15.19,1.44,15.84.8,15.84,0s-.65-1.44-1.44-1.44S12.96-.79,12.96,0s.64,1.44,1.44,1.44Z"/></g><path class="cls-7" d="m0,1.44C.8,1.44,1.44.8,1.44,0S.8-1.44,0-1.44-1.44-.79-1.44,0-.8,1.44,0,1.44Z"/></g></pattern></defs><g id="_レイヤー_1-2"><g><circle class="cls-2" cx="63.5" cy="63.5" r="62.5"/><circle class="cls-2" cx="63.5" cy="63.5" r="62.5"/><g class="cls-4"><g><g><path class="cls-6" d="m83,58c2.04.29,3.85,1.08,5,2,4.91,3.91,5,17,4,19-2.09,4.19-10.64.81-14-3-4.98-5.65-2-19,5-18Z"/><polygon class="cls-5" points="110.14 55.49 108.27 56.45 107.32 58.32 106.36 56.45 104.5 55.49 106.36 54.54 107.32 52.67 108.27 54.54 110.14 55.49"/><polygon class="cls-5" points="103.11 65.1 101.24 66.05 100.29 67.92 99.33 66.05 97.46 65.1 99.33 64.14 100.29 62.27 101.24 64.14 103.11 65.1"/><path class="cls-6" d="m15.4,125.21l-.16-.13c-.19.15-1.06.85-2.5,2.17-1.61,1.49-1.77,3.51-3.41,2.71-1.1-.54,2.15-4.69,2.15-4.69,0,0,4.27-5.26,6.4-6.17.78-.34,6.36-.8,9.89-1.32,1.46-.22,2.57-.44,2.85-.67.69-.3,1.84-.79,2.54-.85v-.06l16.84-6.61,24.77-9.72h.37l1.59-9.5c4.73-1.76,10.06-3.5,10.79-4.58.8-1.18-.43-1.42-1.54-1.17-1.47.33-3.65,1.35-3.99,1.55l-.22-.38c.79-.7,9.19-6.17,9.19-7.63l1.68-.07c.57,12.31-1.54,27.29-8.47,33.5-1.29,1.15-2.75,2.01-4.4,2.48-7,2.02-38.06,8.1-41.44,8.76l-.8-.08c-1.01.22-1.8.51-2.78.94l-.08.25c-.37,1.04-1.12,1.88-2.04,2.44-1.14.71-2.55,1-3.84.73-.88-.18-1.86-1.14-2.8-.95-.51.1-1.28.93-.66,1.41.19.16,3.28.72,2.12,1.67-1.42,1.16-2.85.63-4.09-.34-.35-.27-.9-.64-.99-1.1-.02-.09-.03-.17-.03-.26l-.47.03c-.64.61-1.7,1.22-1.89,2.15-.16.8,1.48,1.88.55,2.64-.69.57-1.7-.1-2.48-.98v.33c-.69,0-1.2.08-1.89-.17-.43-.15-.89-.82-1.18-1.17-.47-.57-.92-1.17-1.07-1.93-.16-.79.55-2.08,1.48-3.24Z"/><path class="cls-6" d="m30.61,117.11c-.28.23-1.39.45-2.85.67l-.06-.44c-.4-.25-.51-.85-.82-1.17-6.3-10.49-1.02-44.5,1.63-48.47,2.68-4.01,5.71-4.83,10.06-5.89l.1.44c2.22,9.31.12,16.7-.8,21.05-1.9,8.97-1.12,15.08.2,17.55l.26.46,28.46-16.2.38.04c.88-3.26,1.76-5.93,4.84-8.2.65-.48,3.83-1.89,5.84-3.02.56-.32,1.03-.61,1.32-.86,1.78-1.47,2.06,2.11-.21,3.53l.03.08c1.25-.55,2.5-1.22,4.06-1.86.82-.34,1.73-.66,2.76-.96.79-.23,3.39-1.16,3.67.62.02.16.03.35.01.56v.05c1.2.1,1.14,1.82.37,2.34v.1c.44-.07.85.03,1.06.54.01.03.02.07.02.11,0,1.45-8.4,6.93-9.19,7.63l.22.38c.34-.2,2.52-1.21,3.99-1.55,1.11-.25,2.34-.02,1.54,1.17-.73,1.08-6.06,2.82-10.79,4.58-2.41.9-4.68,1.8-6.1,2.63h0c-.55.32-1.17.69-1.7.91l-.06-.07-18.86,15.75h0s-16.84,6.61-16.84,6.61v.06c-.7.06-1.85.54-2.54.85Z"/><path class="cls-6" d="m38.33,122.83c3.38-.66,34.43-6.75,41.44-8.76,1.64-.47,3.1-1.32,4.4-2.48l.79.29c2.2,5.05,4.43,16.85,4.43,18.27v.43l-57.35.09v-.22c.18-1.39.38-2.76.62-4.05v-.02c.91-.56,1.66-1.4,2.03-2.44l.08-.25c.98-.44,1.76-.73,2.78-.94l.8.08Z"/><path class="cls-3" d="m38.33,122.83c3.38-.66,34.43-6.75,41.44-8.76,1.64-.47,3.1-1.32,4.4-2.48l.79.29c2.2,5.05,4.43,16.85,4.43,18.27v.43l-57.35.09v-.22c.18-1.39.38-2.76.62-4.05v-.02c.91-.56,1.66-1.4,2.03-2.44l.08-.25c.98-.44,1.76-.73,2.78-.94l.8.08Z"/><path class="cls-9" d="m45.86,59.73c-2.7.96-5.01,1.53-7.05,2.02l-.13-.57c-3.66-12.11,8.9-49.63,19.43-46.24,8.54-8.19,31.8,7.86,25.2,22.58-.64,1.42-2.19,5.14-3.03,9.53l-1.36-.28c.14-.69.2-1.29.17-1.75-.13-2.18,3.39-7.59,3.22-12.34-.15-4.09-2.72-7.67-11.64-8.24l-.33.02c-4.46,6.19-11.46,12.62-14.54,11.48l-.14.11c-3.76-4.59-7.64,2.78-3.7,6.49l-.24.29c1.54,5.15.22,13.29-2.72,15.47v.16c-1.1.48-2.15.89-3.14,1.25Z"/><path class="cls-6" d="m51.96,42.55c-3.94-3.71-.06-11.08,3.7-6.49l.14-.11c3.08,1.14,10.08-5.29,14.54-11.48l.33-.02c8.92.57,11.49,4.15,11.64,8.24.16,4.75-3.36,10.16-3.22,12.34.03.47-.03,1.07-.17,1.75-.66,3.22-3.18,8.34-7.62,10.21,1.21.29,2.36.4,3.46.44,0,0-2.37,12.76-3.46,13.11-12.75,4.04-23.07.79-24.11-.2-1.42-1.36-1.15-10.02-1.32-10.61,1-.36,2.04-.76,3.14-1.25v-.16c2.94-2.19,4.26-10.33,2.72-15.47l.24-.29Zm26.02-1.21c.06-.62-.47-1.18-1.18-1.25-.72-.08-1.34.36-1.4.98s.48,1.18,1.19,1.25c.72.07,1.34-.37,1.39-.99Zm-9.46-1.18c.01-.63-.57-1.16-1.28-1.18s-1.3.48-1.31,1.11c0,.64.57,1.16,1.29,1.18.71.02,1.3-.48,1.31-1.12Z"/><path class="cls-6" d="m81.27,57.45l-.02.31c-1.35,5.7-3.25,10.99-3.62,15.71l.24.44c-2.01,1.13-5.18,2.54-5.84,3.02-3.08,2.27-3.96,4.94-4.84,8.2l-.38-.04-28.46,16.2-.26-.46c-1.32-2.47-2.1-8.58-.2-17.55.92-4.35,3.01-11.74.8-21.05l-.1-.44c.08-.02.16-.04.24-.06,2.03-.5,4.35-1.06,7.05-2.02.17.58-.1,9.25,1.32,10.61,1.04,1,11.37,4.24,24.11.2,1.1-.34,3.46-13.11,3.46-13.11,1.9.05,3.69-.12,5.55-.05.31.02.64.03.96.07Z"/><path class="cls-3" d="m81.27,57.45l-.02.31c-1.35,5.7-3.25,10.99-3.62,15.71l.24.44c-2.01,1.13-5.18,2.54-5.84,3.02-3.08,2.27-3.96,4.94-4.85,8.2l-.38-.04-28.46,16.2-.26-.46c-1.32-2.47-2.1-8.58-.2-17.55.92-4.35,3.01-11.74.8-21.05l-.1-.44c.08-.02.16-.04.24-.06,2.03-.5,4.35-1.06,7.05-2.02.17.58-.1,9.25,1.32,10.61,1.04,1,11.37,4.24,24.11.2,1.1-.34,3.46-13.11,3.46-13.11,1.9.05,3.69-.12,5.55-.05.31.02.64.04.96.07Z"/><path class="cls-9" d="m80.31,57.38c-1.86-.08-3.65.1-5.55.05-1.11-.03-2.25-.15-3.46-.44,4.44-1.88,6.96-7,7.62-10.21l1.36.28c-.62,3.3-.85,6.97.03,10.33Z"/><path class="cls-8" d="m76.8,40.1c.71.07,1.24.63,1.18,1.25-.05.62-.68,1.06-1.39.99-.71-.08-1.25-.64-1.19-1.25s.68-1.06,1.4-.98Z"/><path class="cls-6" d="m76.71,90.38l-1.59,9.5h-.37l-24.77,9.72h0s18.86-15.75,18.86-15.75l.06.07c.53-.22,1.15-.59,1.7-.92h0c1.43-.82,3.69-1.73,6.1-2.62Z"/><path class="cls-3" d="m76.71,90.38l-1.59,9.5h-.37l-24.77,9.72h0s18.86-15.75,18.86-15.75l.06.07c.53-.22,1.15-.59,1.7-.92h0c1.43-.82,3.69-1.73,6.1-2.62Z"/><path class="cls-8" d="m67.25,38.98c.72.02,1.29.55,1.28,1.18,0,.64-.59,1.14-1.31,1.12-.72-.02-1.29-.55-1.29-1.18.01-.64.59-1.13,1.31-1.11Z"/></g><g><path class="cls-8" d="m81.76,86.52c-.2,0-.4-.08-.55-.25-.27-.3-.24-.76.06-1.03.21-.18.72-.55,1.69-1.23,1.66-1.17,6.57-4.64,7.2-5.79-.03,0-.08,0-.17,0-.32.05-.72.27-.96.4-.16.09-.26.14-.37.17-.21.1-1.4.93-2.45,1.66-1.53,1.07-3.44,2.4-4.73,3.14-.35.2-.79.08-1-.27-.2-.35-.08-.79.27-1,1.24-.72,3.11-2.02,4.62-3.08,1.92-1.34,2.51-1.73,2.84-1.85.03-.02.08-.04.13-.07.32-.17.85-.46,1.41-.55.86-.14,1.54.23,1.84.99.05.16.07.26.07.38,0,1.12-1.91,2.83-7.87,7.04-.73.51-1.41,1-1.57,1.14-.14.12-.31.18-.48.18Z"/><path class="cls-8" d="m79.46,81.24c-.17,0-.34-.06-.48-.18-.3-.27-.33-.73-.06-1.03.88-1,6.58-4.57,9.66-5.55.35-.11.69-.16,1-.13.76.07,1.33.55,1.52,1.3.23.88-.12,1.9-.81,2.37-.33.23-.79.14-1.01-.19-.23-.33-.14-.79.19-1.01.16-.11.3-.49.22-.8-.05-.19-.14-.21-.24-.22-.06,0-.2,0-.43.07-2.92.93-8.34,4.36-9.02,5.13-.14.16-.35.25-.55.25Z"/><path class="cls-8" d="m75.84,78.47c-.34,0-.64-.24-.71-.59-.08-.39.18-.78.57-.86,1.18-.24,2.18-.65,3.01-1.02.48-.21.96-.44,1.45-.68.81-.39,1.66-.79,2.63-1.19.94-.39,1.87-.71,2.83-.99l.2-.06c.87-.26,2.49-.75,3.55-.08.32.2.73.6.84,1.34.03.24.04.48.02.73-.03.4-.38.7-.79.67-.4-.03-.7-.39-.67-.79.01-.14.01-.28,0-.4-.04-.24-.13-.3-.18-.33-.51-.32-1.85.09-2.36.24l-.21.06c-.91.26-1.79.57-2.68.94-.94.38-1.76.78-2.56,1.16-.51.24-1,.48-1.48.69-.9.4-2,.86-3.32,1.12-.05,0-.1.01-.14.01Z"/><path class="cls-8" d="m66.8,87.31c-.06,0-.12,0-.19-.02-.39-.1-.62-.5-.52-.89l.38-1.44c.92-3.42,1.88-6.22,5.12-8.6.37-.27,1.24-.7,2.63-1.39,1.09-.54,2.33-1.15,3.29-1.68.58-.33.98-.59,1.22-.78.75-.62,1.35-.57,1.71-.42.51.21.83.74.89,1.45.09,1.13-.48,2.76-1.96,3.68-.34.21-.79.11-1-.23s-.11-.79.23-1c.64-.4,1.1-1.08,1.24-1.83.06-.3.04-.53,0-.66-.05.03-.11.07-.19.13-.3.25-.75.54-1.43.93-.99.56-2.25,1.18-3.36,1.72-1.04.51-2.12,1.04-2.41,1.25-2.86,2.11-3.7,4.56-4.57,7.8l-.38,1.43c-.09.33-.38.54-.7.54Z"/><path class="cls-8" d="m70.61,93.73c-.25,0-.5-.13-.63-.36-.2-.35-.08-.79.26-1,1.57-.91,4.02-1.87,6.22-2.68.9-.33,1.82-.67,2.73-1,3.06-1.11,7.25-2.63,7.72-3.31.03-.04.05-.07.07-.1-.18-.02-.47-.02-.84.06-1.39.31-3.49,1.3-3.78,1.46-.35.21-.79.09-1-.26-.2-.35-.09-.79.26-1,.37-.22,2.63-1.27,4.2-1.63.43-.1,1.88-.34,2.48.54.19.28.42.87-.18,1.75-.69,1.02-3.51,2.08-8.42,3.86-.9.33-1.82.66-2.72.99-2.01.75-4.51,1.72-5.99,2.58-.12.07-.24.1-.36.1Z"/><path class="cls-8" d="m67.69,58.45c-2.45,0-5.05-.87-7.78-2.61-.34-.22-.44-.67-.22-1.01.22-.34.67-.44,1.01-.22,3.8,2.42,7.27,3,10.31,1.71,4.51-1.91,6.68-7.17,7.19-9.69.13-.62.18-1.17.16-1.56-.06-1.06.51-2.52,1.23-4.37.93-2.38,2.09-5.34,1.99-7.99-.16-4.61-3.75-7.08-10.96-7.54-.4-.03-.71-.37-.68-.77s.36-.71.77-.68c7.98.51,12.13,3.51,12.32,8.94.1,2.94-1.12,6.06-2.09,8.57-.6,1.55-1.18,3.01-1.13,3.75.03.53-.03,1.18-.18,1.94-.79,3.87-3.65,8.88-8.05,10.74-1.24.53-2.54.79-3.88.79Z"/><path class="cls-8" d="m52.51,43.73c-.15,0-.3-.05-.43-.14-.2-.15-.39-.31-.61-.51-1.96-1.85-2.14-4.36-1.65-6.09.46-1.63,1.54-2.8,2.81-3.07.71-.15,2.13-.13,3.6,1.67.23.28.42.55.6.83.22.34.11.79-.23,1-.34.22-.79.11-1-.23-.15-.23-.31-.46-.5-.69-.52-.63-1.3-1.34-2.17-1.17-.73.15-1.4.95-1.71,2.04-.37,1.32-.24,3.23,1.24,4.63.17.16.32.29.47.4.32.24.39.69.16,1.02-.14.19-.36.3-.59.3Z"/><path class="cls-8" d="m38.68,61.91c-.31,0-.6-.2-.7-.52-3.04-10.04,4.71-36.28,13.15-44.57,2.49-2.44,4.91-3.31,7.21-2.57.38.12.59.53.47.92-.12.38-.53.59-.92.47-1.74-.56-3.67.19-5.74,2.22-8.18,8.04-15.7,33.42-12.77,43.11.12.38-.1.79-.49.91-.07.02-.14.03-.21.03Z"/><path class="cls-8" d="m65.37,36.17c-.22,0-.43-.12-.53-.34-.14-.29-.01-.64.28-.78.27-.13,1.66-.75,2.6-.56.32.06.52.37.46.69-.06.32-.37.52-.69.46-.42-.08-1.35.23-1.88.48-.08.04-.16.05-.25.05Z"/><path class="cls-8" d="m79.68,37.71c-.13,0-.26-.04-.36-.13-.46-.36-1.29-.89-1.72-.91-.32-.01-.57-.29-.56-.61.01-.32.28-.57.61-.56.95.04,2.16.97,2.4,1.16.25.2.29.57.09.82-.12.14-.28.22-.46.22Z"/><path class="cls-8" d="m73.55,46.96c-.39,0-.87-.09-1.35-.4-.27-.17-.35-.54-.17-.81.17-.27.54-.35.81-.17.56.36,1.11.16,1.12.16.3-.12.64.03.76.33.12.3-.03.64-.33.76-.03,0-.35.13-.82.13Z"/><path class="cls-8" d="m56.56,36.81c-.36,0-.7-.06-1.01-.17-.38-.14-.57-.56-.43-.94.14-.38.56-.57.94-.43,2.32.86,8.85-4.49,13.7-11.22.24-.33.69-.4,1.02-.17s.4.69.17,1.02c-3.77,5.24-10.39,11.91-14.37,11.91Z"/><path class="cls-8" d="m80.3,58.11c-.32,0-.62-.22-.7-.54-.79-3.02-.81-6.6-.04-10.65.81-4.26,2.28-7.9,3.08-9.69,3.38-7.53-1.55-15.43-7.92-19.92-5-3.52-12.18-5.6-16.11-1.83-.29.28-.75.27-1.03-.02-.28-.29-.27-.75.02-1.03,3.28-3.14,10.1-3.84,17.96,1.69,6.86,4.84,12.13,13.43,8.41,21.71-.78,1.73-2.2,5.26-2.98,9.37-.72,3.83-.72,7.2.02,10,.1.39-.13.79-.52.89-.06.02-.12.02-.19.02Z"/><path class="cls-8" d="m26.89,116.93c-.26,0-.51-.14-.64-.38h0c-6.45-10.77-1.18-45.01,1.65-49.26,2.9-4.34,6.25-5.16,10.5-6.2.07-.02.16-.04.26-.06,1.99-.49,4.27-1.04,6.96-2,1.06-.38,2.08-.78,3.09-1.23.37-.16.8,0,.96.37.16.37,0,.8-.37.96-1.05.46-2.09.88-3.19,1.27-2.76.98-5.18,1.57-7.12,2.04-.09.02-.15.03-.22.05-4.52,1.1-7.19,1.91-9.65,5.6-2.7,4.04-7.66,37.62-1.61,47.69,0,0,0,.01.01.02.01.02.03.05.04.07.17.36.02.8-.35.97-.1.05-.21.07-.31.07Z"/><path class="cls-8" d="m38.03,123.62c-.35,0-.66-.25-.72-.61-.07-.4.2-.77.6-.84,0,0,.1-.02.27-.05,3.51-.68,34.39-6.74,41.38-8.75,1.48-.42,2.86-1.21,4.11-2.32,6.91-6.19,8.75-21.6,8.23-32.92-.46-10.04-2.58-16.51-4.44-17.71-2.06-1.33-4-2.03-6.27-2.24-.31-.03-.61-.05-.9-.07-.97-.04-1.89-.01-2.86.02-.87.03-1.78.05-2.71.03-1.34-.04-2.49-.19-3.61-.46-.39-.09-.63-.49-.54-.88.09-.39.49-.63.88-.54,1.02.25,2.08.38,3.32.42.88.02,1.77,0,2.62-.03.95-.03,1.94-.06,2.94-.02.36.02.69.04,1.01.07,2.47.24,4.67,1.02,6.91,2.47,3.22,2.09,4.76,11.47,5.1,18.87.57,12.19-1.43,27.54-8.71,34.07-1.42,1.26-2.99,2.15-4.68,2.64-7.05,2.03-37.99,8.09-41.5,8.78-.2.04-.32.06-.32.06-.04,0-.08.01-.12.01Z"/><path class="cls-8" d="m32.03,131.18s-.06,0-.09,0c-.4-.05-.68-.42-.63-.82.19-1.48.4-2.85.62-4.09.07-.4.45-.66.85-.59.4.07.66.45.59.85-.22,1.21-.42,2.56-.61,4.02-.05.37-.36.64-.72.64Z"/><path class="cls-8" d="m89.38,130.88c-.4,0-.73-.33-.73-.73,0-1.34-2.24-13.09-4.37-17.98-.16-.37,0-.8.38-.96.37-.16.8,0,.96.38,2.25,5.16,4.49,17.13,4.49,18.56,0,.4-.33.73-.73.73Z"/><path class="cls-8" d="m38.08,101.57c-.26,0-.51-.14-.64-.39-1.35-2.53-2.23-8.78-.27-18.04.09-.42.19-.86.29-1.33.99-4.43,2.48-11.14.51-19.4-.09-.39.15-.78.54-.88.39-.09.78.15.88.54,2.04,8.59.51,15.49-.51,20.05-.1.46-.2.9-.29,1.31-1.76,8.31-1.2,14.56.13,17.06.19.35.06.8-.3.99-.11.06-.23.09-.34.09Z"/><path class="cls-8" d="m77.62,74.2s-.04,0-.06,0c-.4-.03-.7-.38-.67-.78.25-3.26,1.21-6.74,2.23-10.43.48-1.75.98-3.55,1.41-5.39.09-.39.49-.64.88-.54.39.09.63.49.54.88-.44,1.86-.94,3.68-1.43,5.44-.99,3.62-1.93,7.04-2.18,10.15-.03.38-.35.67-.73.67Z"/><path class="cls-8" d="m75.13,100.61s-.08,0-.12,0c-.4-.07-.67-.44-.6-.84l1.59-9.5c.07-.4.44-.66.84-.6.4.07.67.44.6.84l-1.59,9.5c-.06.36-.37.61-.72.61Z"/><path class="cls-8" d="m49.99,110.32c-.21,0-.42-.09-.56-.26-.26-.31-.22-.77.09-1.03l18.9-15.78c.31-.26.77-.23,1.03.07.26.3.23.76-.07,1.03l-.05.04-18.87,15.76c-.14.11-.3.17-.47.17Z"/><path class="cls-8" d="m36.22,103.24c-.25,0-.5-.13-.63-.37-.2-.35-.08-.79.27-.99l30.59-17.41c.35-.2.79-.08.99.27.2.35.08.79-.27.99l-30.59,17.41c-.11.06-.24.1-.36.1Z"/><path class="cls-8" d="m58.69,73.26c-6.74,0-11.31-1.72-12.02-2.4-1.07-1.03-1.35-4.22-1.47-9.39-.02-.69-.03-1.4-.06-1.57,0-.01,0-.02,0-.03,0-.01,0-.03,0-.04-.04-.23.03-.46.2-.64.28-.28.75-.28,1.03,0,.09.09.16.22.2.36.06.22.07.58.1,1.89.04,1.87.17,7.56,1.01,8.37.89.82,10.76,4,23.26.08.66-.95,2.08-7.07,3.1-12.59.07-.4.46-.65.85-.58.4.07.66.45.58.85-2.45,13.19-3.55,13.54-3.96,13.67-4.74,1.5-9.11,2.02-12.82,2.02Zm12.38-3.41s0,0,0,0c0,0,0,0,0,0Zm-25.73-9.62h0,0Zm0,0h0Zm0,0h0Zm0,0s0,0,0,0c0,0,0,0,0,0Zm0,0s0,0,0,0h0Zm0,0h0s0,0,0,0Zm0,0h0s0,0,0,0Z"/><path class="cls-8" d="m49,59.04c-.22,0-.44-.1-.59-.29-.24-.32-.17-.78.15-1.02,2.62-1.95,3.93-9.77,2.46-14.68-.12-.39.1-.79.49-.91.39-.12.79.1.91.49,1.51,5.06.41,13.74-2.99,16.27-.13.1-.28.14-.43.14Z"/><path class="cls-8" d="m25.76,130.63c-.81,0-1.76-.31-2.84-1.16l-.13-.1c-.42-.32-.99-.75-1.13-1.43-.02-.12-.04-.24-.05-.36-.04-.76.22-1.48.44-2.11l.09-.25c.13-.38.55-.58.93-.45.38.13.58.55.45.93l-.1.27c-.19.52-.39,1.07-.36,1.52,0,.05.01.11.02.16.03.14.42.43.58.56l.15.11c1.44,1.14,2.33.94,2.95.52-.36-.17-.95-.35-1.18-.42-.4-.12-.56-.17-.72-.29-.4-.31-.58-.8-.46-1.3.17-.71.88-1.27,1.44-1.39.83-.17,1.56.22,2.21.56.33.17.64.34.88.39,1.08.22,2.31-.02,3.3-.64.83-.5,1.44-1.23,1.74-2.07.14-.38.55-.58.93-.44.38.14.58.55.44.93-.41,1.14-1.25,2.14-2.35,2.81-1.31.82-2.9,1.12-4.36.83-.45-.09-.86-.31-1.27-.52-.46-.24-.93-.48-1.24-.43-.05.01-.13.07-.2.14.02,0,.04.01.06.02,1.18.35,2.25.74,2.42,1.58.05.25.05.74-.5,1.19-.54.44-1.27.82-2.17.82Z"/><path class="cls-8" d="m19.94,133.3c-.61,0-1.43-.32-2.43-1.44-.64-.72-1.16-1.59-1.31-2.17-.51-2.03,2.63-5.57,4.03-6.24.36-.17.8-.02.97.35.17.36.02.8-.35.97-1.22.58-3.49,3.59-3.24,4.57.06.26.41.91.98,1.55.68.76,1.28,1.05,1.47.9.02-.11-.18-.43-.3-.62-.29-.47-.62-1-.5-1.61.2-.95.98-1.59,1.6-2.1.18-.15.35-.29.5-.43.29-.28.75-.27,1.03.02.28.29.27.75-.02,1.03-.17.17-.37.33-.58.5-.5.41-1.01.83-1.1,1.27.01.07.2.36.31.54.34.54,1.04,1.66-.01,2.52-.2.16-.56.38-1.06.38Z"/><path class="cls-8" d="m17.3,132.45c-.41,0-.86-.03-1.38-.22-.56-.2-1-.76-1.36-1.21l-.14-.18c-.49-.59-1.03-1.31-1.22-2.25-.24-1.18.75-2.73,1.62-3.83.83-1.04,2.06-2.28,2.97-2.71.36-.17.8-.02.97.35.17.36.02.8-.35.97-.49.23-1.51,1.12-2.45,2.3-1.03,1.3-1.41,2.26-1.33,2.64.12.61.52,1.13.91,1.61l.16.2c.16.2.52.67.7.74.42.15.75.14,1.2.13.15,0,.29,0,.46,0h.06c.4,0,.73.33.73.73s-.33.73-.73.73h-.07c-.15,0-.29,0-.42,0-.11,0-.23,0-.34,0Z"/><path class="cls-8" d="m9.99,130.88c-.29,0-.62-.08-.99-.26-.31-.15-.52-.42-.6-.77-.29-1.28,1.65-3.94,2.5-5.03.46-.56,4.45-5.44,6.69-6.4.5-.22,1.89-.39,5.16-.77,1.7-.19,3.46-.39,4.91-.61,1.81-.27,2.33-.44,2.48-.51.29-.28.74-.28,1.03,0s.28.73.02,1.01c-.03.04-.06.07-.1.1-.32.27-.97.5-3.21.83-1.47.22-3.24.42-4.95.62-1.94.22-4.36.5-4.75.66-1.62.69-4.97,4.54-6.12,5.96-1.12,1.43-2.08,3.05-2.2,3.66.27.09.42-.04,1-.92.34-.52.77-1.17,1.4-1.76,1.51-1.39,2.39-2.09,2.55-2.21.28-.28.73-.27,1.02.01.28.28.27.76-.01,1.04-.02.02-.08.07-.1.09-.09.07-.96.76-2.46,2.14-.5.46-.86,1.01-1.17,1.48-.46.7-1.05,1.6-2.06,1.6Zm20.69-13.77h0s-.04-.04-.04-.04l.04.04Z"/><path class="cls-8" d="m33.15,116.93c-.29,0-.57-.18-.68-.46-.15-.37.04-.8.41-.94l41.6-16.32c.38-.14.8.04.95.41s-.04.8-.41.95l-41.61,16.32c-.09.03-.18.05-.27.05Z"/><path class="cls-8" d="m70.97,54.92c-.6,0-1.18-.16-1.62-.47-.33-.23-.41-.68-.18-1.01.23-.33.69-.41,1.01-.18.32.22.86.27,1.31.13.39-.12.79.09.91.48.12.38-.09.79-.48.91-.31.1-.64.15-.96.15Z"/><path class="cls-8" d="m72.36,52.06c-.54,0-1.02-.06-1.26-.09-1.44-.22-3.16-.84-3.68-1.93-.17-.36-.02-.8.35-.97.36-.17.8-.02.97.35.18.38,1.19.9,2.58,1.11,1.35.2,2.37,0,2.64-.3.27-.3.73-.32,1.03-.05.3.27.32.73.05,1.03-.63.69-1.76.85-2.67.85Z"/></g></g></g></g></g></svg>