<?xml version="1.0" encoding="UTF-8"?><svg id="_レイヤー_2" xmlns="http://www.w3.org/2000/svg" viewBox="0 0 395 122.01"><defs><style>.cls-1{fill:#fff;}.cls-2{fill:#af9890;opacity:.9;}</style></defs><g id="_レイヤー_1-2"><g><path class="cls-2" d="m72,0h323v19c0,39.74-32.26,72-72,72H0v-19C0,32.26,32.26,0,72,0Z"/><g><path class="cls-1" d="m116.3,61.58c1.61-2,3.12-4.25,4.53-6.74l2.94,1.49c-1.34,2.51-2.9,4.86-4.66,7.04l-2.81-1.78Zm6.31-7.56h-3.53v-11.23h9.25v-9.91h3.63v3.3h12.72v2.97h-12.72v3.63h11.23v11.23h-20.58Zm0-2.91h17.04v-5.35h-17.04v5.35Zm3.9,12.19c-.26-2.38-.65-4.8-1.16-7.27l3.37-.5c.48,2.36.87,4.79,1.16,7.3l-3.37.46Zm8.09-.07c-.77-2.42-1.64-4.81-2.61-7.17l3.17-.89c1.04,2.49,1.92,4.89,2.64,7.2l-3.2.86Zm8.52-.03c-1.34-2.33-2.85-4.65-4.53-6.94l2.81-1.62c1.76,2.47,3.28,4.79,4.56,6.97l-2.84,1.59Z"/><path class="cls-1" d="m164.33,48.54c-1.87-1.76-3.88-3.45-6.01-5.05l2.01-2.38c2.25,1.61,4.26,3.26,6.04,4.95l-2.05,2.48Zm15.09-13.08h9.84v2.71h-4.66c-.44,1.21-.88,2.26-1.32,3.14h5.15v17.27c0,1.98-.19,3.21-.58,3.7-.39.48-1.35.73-2.89.73-.93,0-2.33-.06-4.23-.17l-.07-2.87c1.34.11,2.39.17,3.14.17.62,0,.97-.06,1.07-.18.1-.12.15-.5.15-1.14v-14.7h-5.75v1.82h5.09v2.64h-5.09v1.98h3.77v8.59h-7.73v1.65h-3.07v-10.24h3.8v-1.98h-5.12v-2.64h5.12v-1.82h-5.78v19.09h-3.4v-10.64c-1.25,3.92-2.91,7.39-4.95,10.4l-2.81-1.88c2.07-3.13,3.73-6.55,4.99-10.27l2.77,1.12v-10.64h5.05c-.15-.53-.54-1.57-1.16-3.14h-4.03l-2.01,2.44c-1.76-1.59-3.58-3.05-5.45-4.39l2.05-2.38c1.76,1.23,3.39,2.5,4.89,3.8v-2.18h9.68v-2.74h3.53v2.74Zm.36,5.85c.57-1.17,1.05-2.21,1.42-3.14h-6.94c.37.97.74,2.02,1.09,3.14h4.43Zm.4,15.19v-3.47h-4.86v3.47h4.86Z"/><path class="cls-1" d="m204.53,45.93c-1.01-1.94-2.22-3.97-3.63-6.11l2.77-1.72c.7,1.08,1.39,2.18,2.05,3.3v-6.38h11.89v-2.31h3.53v2.31h11.23v2.87h-9.71c-.15.53-.32,1-.5,1.42h9.71v2.64h-2.58l2.41,1.32c-1.04,1.32-2.06,2.48-3.07,3.47,1.3.95,2.71,1.77,4.23,2.48l-1.06,3.07c-1.06-.53-2.08-1.12-3.07-1.78v5.65h-1.78c2.09,1.28,4.06,2.76,5.91,4.46l-2.31,2.15c-1.87-1.74-3.94-3.31-6.21-4.72l2.15-1.88h-3.6v3.8c0,1.41-.2,2.28-.61,2.63-.41.34-1.45.51-3.12.51-1.08,0-2.48-.06-4.19-.17l-.2-2.91c1.58.13,2.64.2,3.17.2.73,0,1.15-.05,1.27-.17.12-.11.18-.47.18-1.09v-2.81h-5.52l2.54,1.32c-1.7,2.2-3.83,3.96-6.41,5.29l-2.31-2.31c2.33-1.14,4.24-2.58,5.71-4.29h-1.02v-5.48c-.73.51-1.61,1.05-2.64,1.62l-.96-2.25c-.13,3.08-.54,5.59-1.24,7.53-.69,1.94-1.77,3.73-3.22,5.38l-2.38-2.44c.95-1.12,1.67-2.19,2.18-3.2.51-1.01.88-2.25,1.12-3.7-.95.53-2.09,1.08-3.44,1.65l-.99-3.07c1.78-.68,3.38-1.45,4.79-2.31.04-.9.07-2.47.07-4.69l-1.16.73Zm5.15-3.96v-2.64h8.82c.09-.2.26-.67.53-1.42h-10.21v11.13c1.36-.7,2.61-1.49,3.73-2.35-1.21-1.17-2.28-2.16-3.2-2.97l2.25-1.75h-1.92Zm5.19,2.64c.79-.79,1.52-1.67,2.18-2.64h-5.05c.86.73,1.82,1.61,2.87,2.64Zm.83,5.12h9.64v-1.65h-9.64v1.65Zm0,2.25v1.72h9.64v-1.72h-9.64Zm7.4-6.38c-.99-1.14-1.82-2.26-2.48-3.34-.79,1.21-1.63,2.32-2.51,3.34h4.99Zm3.24-.83c.88-.88,1.73-1.82,2.54-2.81h-4.82c.62.97,1.38,1.9,2.28,2.81Z"/><path class="cls-1" d="m250.21,48.54c-1.87-1.76-3.88-3.45-6.01-5.05l2.01-2.38c2.25,1.61,4.26,3.26,6.04,4.95l-2.05,2.48Zm2.91,3.47c-1.25,4.14-2.97,7.79-5.15,10.97l-2.81-1.88c2.07-3.13,3.73-6.55,4.99-10.27l2.97,1.19Zm-7.46-15.79l2.05-2.38c2.18,1.61,4,3.09,5.45,4.46l-2.05,2.48c-1.63-1.52-3.45-3.04-5.45-4.56Zm20.84,15.76l3.17-1.26c1.85,3.26,3.72,6.98,5.62,11.16l-3.17,1.22c-.26-.55-.68-1.44-1.25-2.68-6.72.86-12.94,1.39-18.66,1.59l-.17-3.04c1.98-.09,3.49-.17,4.53-.23,1.37-3.19,2.62-6.58,3.77-10.17h-7.46v-3.07h9.08v-5.52h-7.66v-2.97h7.66v-3.53h3.57v3.53h8.16v2.97h-8.16v5.52h9.65v3.07h-11.07c-1.17,3.72-2.36,7.02-3.57,9.91,2.99-.24,5.98-.54,8.95-.89-.75-1.5-1.74-3.37-2.97-5.62Z"/></g><g><path class="cls-1" d="m157.86,108.43v10.5h-1.33l-.03-1.05h-.03c-.53.79-1.28,1.19-2.25,1.19-.89,0-1.6-.32-2.13-.97-.54-.65-.81-1.58-.81-2.81s.26-2.18.78-2.82,1.24-.96,2.16-.96,1.67.37,2.21,1.12h.03v-4.2h1.4Zm-5.21,6.86c0,.86.17,1.52.53,1.97.35.46.81.69,1.39.69s1-.23,1.36-.69c.35-.46.53-1.09.53-1.9v-.14c0-.8-.18-1.44-.53-1.9s-.81-.69-1.36-.69c-.61,0-1.08.22-1.41.67s-.5,1.11-.5,1.99Z"/><path class="cls-1" d="m165.41,111.51v1.18c-1.03,0-1.84.28-2.44.83-.6.56-.9,1.29-.9,2.19v3.22h-1.43v-7.28h1.36l.03,1.4h.03c.86-1.03,1.97-1.54,3.35-1.54Z"/><path class="cls-1" d="m168.33,109.97v-1.54h1.48v1.54h-1.48Zm0,8.96v-7.28h1.48v7.28h-1.48Z"/><path class="cls-1" d="m174.41,112.7c.54-.79,1.29-1.19,2.25-1.19s1.65.32,2.16.96c.52.64.78,1.58.78,2.82s-.27,2.16-.8,2.81c-.54.65-1.25.97-2.14.97-.93,0-1.67-.35-2.21-1.05h-.03v3.99h-1.4v-10.36h1.33l.03,1.05h.03Zm3.82,2.59c0-.89-.17-1.55-.5-1.99s-.81-.67-1.41-.67c-.55,0-1,.23-1.36.69s-.53,1.09-.53,1.9v.14c0,.81.18,1.45.53,1.9.35.46.81.69,1.36.69.58,0,1.04-.23,1.39-.69.35-.46.53-1.12.53-1.97Z"/><path class="cls-1" d="m189.37,111.93h2.63v1.12h-2.63v3.36c0,.61.08,1.02.24,1.23.16.21.44.31.85.31.47,0,.89-.08,1.26-.25l.21,1.09c-.53.19-1.09.28-1.68.28-.82,0-1.41-.18-1.77-.55-.36-.36-.54-.98-.54-1.83v-3.64h-1.54v-1.12h1.54v-2.66h1.43v2.66Z"/><path class="cls-1" d="m196.19,112.63h.03c.64-.75,1.43-1.12,2.35-1.12,1.59,0,2.38,1.07,2.38,3.22v4.2h-1.37v-4.06c0-.85-.11-1.43-.33-1.74-.22-.31-.61-.47-1.17-.47-.5,0-.95.25-1.32.73-.38.49-.57,1.03-.57,1.62v3.92h-1.4v-10.5h1.4v4.2Z"/><path class="cls-1" d="m204.53,115.85c.03.65.25,1.17.68,1.55s.96.57,1.6.57c.7,0,1.4-.18,2.1-.53l.35,1.06c-.81.37-1.68.56-2.59.56-1.05,0-1.9-.34-2.57-1.03s-1-1.6-1-2.75.31-2.1.93-2.77c.62-.67,1.45-1.01,2.5-1.01s1.84.32,2.42.95c.58.63.87,1.55.87,2.76,0,.14,0,.35-.03.63h-5.26Zm0-1.09h3.93c0-.69-.18-1.22-.53-1.6-.34-.37-.81-.56-1.41-.56s-1.08.19-1.44.57c-.36.38-.55.91-.57,1.59Z"/><path class="cls-1" d="m216.88,111.51v1.18c-1.03,0-1.84.28-2.44.83-.6.56-.9,1.29-.9,2.19v3.22h-1.43v-7.28h1.36l.03,1.4h.03c.86-1.03,1.97-1.54,3.35-1.54Z"/><path class="cls-1" d="m218.97,116.97c0-.81.34-1.46,1.03-1.95.69-.49,1.67-.73,2.96-.73h.7v-.07c0-.59-.12-1-.36-1.23-.24-.23-.66-.35-1.25-.35-.89,0-1.7.21-2.45.63l-.21-1.12c.78-.42,1.67-.63,2.66-.63,1.05,0,1.82.21,2.3.64.48.42.71,1.1.71,2.02v2.8c0,.66.07,1.32.21,1.96h-1.33c-.08-.41-.12-.78-.13-1.12h-.03c-.26.39-.62.7-1.08.92-.46.22-.98.34-1.56.34-.66,0-1.19-.19-1.58-.56-.39-.37-.59-.89-.59-1.54Zm4.69-1.65h-.7c-.84,0-1.49.14-1.94.43-.45.29-.68.67-.68,1.15,0,.35.11.62.32.82.21.2.49.3.83.3.59,0,1.1-.2,1.53-.61.43-.41.64-.9.64-1.49v-.6Z"/><path class="cls-1" d="m229.23,112.7c.54-.79,1.29-1.19,2.25-1.19s1.64.32,2.16.96c.52.64.78,1.58.78,2.82s-.27,2.16-.8,2.81c-.54.65-1.25.97-2.13.97-.93,0-1.67-.35-2.21-1.05h-.03v3.99h-1.4v-10.36h1.33l.03,1.05h.03Zm3.82,2.59c0-.89-.17-1.55-.5-1.99s-.81-.67-1.41-.67c-.55,0-1,.23-1.36.69-.36.46-.53,1.09-.53,1.9v.14c0,.81.18,1.45.53,1.9.35.46.81.69,1.36.69.58,0,1.04-.23,1.39-.69.35-.46.52-1.12.52-1.97Z"/><path class="cls-1" d="m239.58,117.25h.03l2.07-5.6h1.48l-4.2,10.36h-1.48l1.34-3.08-2.66-7.28h1.54l1.88,5.6Z"/></g></g></g></svg>