<?xml version="1.0" encoding="UTF-8"?><svg id="_レイヤー_2" xmlns="http://www.w3.org/2000/svg" viewBox="0 0 395 119.1"><defs><style>.cls-1{fill:#f7f7f7;}.cls-2{fill:#af9182;}.cls-3{fill:#af9890;opacity:.9;}</style></defs><g id="_レイヤー_1-2"><g><path class="cls-3" d="m72,0h323v19c0,39.74-32.26,72-72,72H0v-19C0,32.26,32.26,0,72,0Z"/><g><path class="cls-1" d="m142.35,59.42v1.89h-23.12v1.48h-1.94v-25.32h24.42v1.89h-22.48v20.07h23.12Zm-1.22-10.88v1.74h-8.96c1.48,3.19,4.55,5.19,8.91,5.98-.43.38-.96,1.13-1.19,1.65-4.12-.93-7.08-2.9-8.85-6-1.02,2.32-3.42,4.55-8.85,6.21-.23-.44-.75-1.13-1.16-1.48,6.03-1.68,7.98-4.06,8.59-6.35h-8.64v-1.74h8.88v-4.09h-4.7c-.72,1.19-1.54,2.23-2.38,3.05-.38-.32-1.04-.7-1.51-.96,1.65-1.48,3.13-3.97,3.95-6.56l2.23.64c-.06.17-.23.26-.58.26-.23.61-.49,1.25-.78,1.86h13.4v1.71h-7.72v4.09h9.37Z"/><path class="cls-1" d="m180.4,40.37h-20.91v7.74c0,4.5-.55,10.65-4.15,14.71-.29-.38-1.01-1.04-1.39-1.31,2.35-2.64,3.22-6.03,3.54-9.28-1.22.75-2.35,1.42-3.22,1.91.03.2-.09.41-.29.49l-.84-1.97c1.19-.55,2.78-1.39,4.5-2.32.03-.78.03-1.51.03-2.23v-9.46h9.63v-2.84l2.61.17c-.03.2-.2.35-.58.41v2.26h11.08v1.71Zm-25.29.78c.93,1.83,1.77,4.18,1.97,5.66-1.19.55-1.39.61-1.59.7-.2-1.51-.99-3.92-1.89-5.77l1.51-.58Zm18.33,3.57c.64.87,1.39,1.74,2.26,2.49.81-.67,1.8-1.6,2.35-2.2l1.54,1.1c-.09.12-.29.17-.55.15-.58.49-1.48,1.25-2.26,1.83,1.19.9,2.49,1.62,3.8,2.12-.41.32-.93.96-1.19,1.39-.9-.38-1.77-.9-2.64-1.48v6.06h-5.77v4.64c0,1.89-.9,1.97-4.87,1.97-.09-.52-.41-1.16-.64-1.62.64.03,1.22.03,1.74.03,1.88,0,1.88-.03,1.88-.44v-4.58h-5.6v-6c-.78.55-1.65,1.07-2.58,1.54-.26-.44-.81-1.02-1.22-1.31,1.42-.67,2.67-1.45,3.74-2.32-.7-.67-1.62-1.42-2.44-1.97l1.1-.93c.81.52,1.77,1.25,2.49,1.89.78-.75,1.45-1.54,2.03-2.35h-5.8v-1.6h6.82c.46-.9.81-1.77,1.07-2.64l2.29.26c-.06.23-.2.38-.58.38-.23.67-.49,1.33-.84,2h10.36v1.6h-6.5Zm-7.02,12.91c-.09.17-.26.26-.58.23-1.16,1.6-3.02,3.28-4.7,4.35-.32-.32-.96-.84-1.36-1.13,1.62-.96,3.45-2.55,4.5-4.21l2.15.75Zm8.56-6.09v-1.94h-9.78v1.94h9.78Zm0,3.31v-2h-9.78v2h9.78Zm-6.27-10.12c-.75,1.22-1.71,2.41-2.9,3.54h8.67c-1.13-1.07-2.12-2.29-2.87-3.54h-2.9Zm9.49,17.64c-.93-1.31-2.9-3.31-4.61-4.67l1.45-.78c1.68,1.33,3.68,3.25,4.67,4.53l-1.51.93Z"/><path class="cls-1" d="m200.52,36.89v23.47c0,2.2-.96,2.44-4.67,2.38-.06-.49-.35-1.33-.58-1.86.7.03,1.33.03,1.83.03,1.45,0,1.62,0,1.62-.55v-7.6h-4.21c-.23,3.51-.81,7.22-2.15,10.07-.35-.32-1.13-.75-1.6-.93,2-4.18,2.15-10.09,2.15-14.42v-10.59h7.6Zm-5.83,10.56c0,1.07-.03,2.26-.06,3.48h4.09v-5.28h-4.03v1.8Zm4.03-8.73h-4.03v5.13h4.03v-5.13Zm9.49,13.31c-.03.2-.17.32-.52.38-.41,4.96-2.12,8.59-5.6,10.38-.35-.38-.96-.99-1.36-1.31,3.31-1.6,4.79-4.9,5.05-9.72l2.44.26Zm4.35,7.57c0,.75.12.87.81.87h2.26c.67,0,.81-.52.87-3.97.41.32,1.19.64,1.71.75-.17,4-.67,4.99-2.38,4.99h-2.73c-1.97,0-2.44-.58-2.44-2.64v-8.35h-7.69v-9.63h2.96c-.49-1.45-1.57-3.45-2.58-4.96l1.68-.7c1.19,1.6,2.38,3.74,2.84,5.16l-1.1.49h5.45l-.9-.41c.96-1.45,2.18-3.8,2.84-5.42l2.35.84c-.09.17-.32.29-.61.26-.7,1.39-1.83,3.34-2.81,4.73h3.51v9.63h-4.06v8.35Zm-7.74-16.19v6.06h9.89v-6.06h-9.89Z"/><path class="cls-1" d="m241.38,58.76c0,1.57.41,1.91,2.5,1.91h7.63c1.8,0,2.09-.78,2.32-4.21.49.35,1.3.7,1.91.84-.38,4-1.04,5.28-4.18,5.28h-7.75c-3.42,0-4.44-.78-4.44-3.86v-4.55l-9.78,1.31-.26-1.86,10.04-1.31v-4.81l-8.88,1.25-.29-1.86,9.17-1.28v-4.61c-2.99.64-6.12,1.19-9.08,1.65-.06-.49-.35-1.28-.61-1.71,7.4-1.16,15.81-2.96,20.3-5.05l1.83,1.65c-.09.09-.2.12-.38.12-.09,0-.17,0-.26-.03-2.55,1.07-6.03,2.09-9.86,2.93l.67.06c-.03.2-.2.35-.61.41v4.32l11.37-1.57.29,1.8-11.66,1.62v4.84l13.4-1.77.26,1.83-13.66,1.8v4.84Z"/></g><g><path class="cls-2" d="m134.52,118.93h-1.15v-4.41c0-1.48-.53-2.44-1.68-2.44-.94,0-1.79.88-1.79,2.04v4.8h-1.15v-4.71c0-1.22-.52-2.14-1.6-2.14-1,0-1.88.98-1.88,2.17v4.68h-1.15v-5.67c0-.78-.03-1.34-.06-1.98h1.02l.07,1.23h.04c.42-.74,1.12-1.4,2.33-1.4.99,0,1.76.62,2.09,1.53h.03c.5-.91,1.27-1.53,2.45-1.53.94,0,2.42.6,2.42,3.22v4.59Z"/><path class="cls-2" d="m142.87,118.61c-.43.21-1.23.48-2.4.48-2.23,0-3.56-1.57-3.56-3.85,0-2.4,1.34-4.12,3.4-4.12,2.35,0,2.96,2.16,2.96,3.49,0,.27-.01.46-.03.64h-5.2c.01,2.12,1.22,2.91,2.59,2.91.95,0,1.53-.2,2-.39l.22.84Zm-.74-4.23c.01-1.04-.42-2.38-1.92-2.38-1.4,0-2.02,1.33-2.13,2.38h4.05Z"/><path class="cls-2" d="m151.88,117.04c0,.62.03,1.37.06,1.89h-1.04l-.06-1.3h-.04c-.39.8-1.26,1.47-2.49,1.47-1.76,0-3.14-1.53-3.14-3.88,0-2.58,1.51-4.09,3.29-4.09,1.12,0,1.88.55,2.23,1.18h.03v-4.58h1.16v9.31Zm-1.16-2.69c0-1.53-1.08-2.28-2.06-2.28-1.44,0-2.3,1.34-2.3,3.1,0,1.61.76,2.98,2.26,2.98,1.26,0,2.1-1.11,2.1-2.33v-1.47Z"/><path class="cls-2" d="m155.44,109.95c-.45,0-.76-.35-.76-.8s.32-.78.77-.78.76.35.76.78c0,.49-.32.8-.77.8Zm.59,8.98h-1.16v-7.63h1.16v7.63Z"/><path class="cls-2" d="m164.19,118.65c-.34.17-1.09.43-2.07.43-2.19,0-3.63-1.56-3.63-3.89s1.55-4.08,3.91-4.08c.85,0,1.54.25,1.83.41l-.29.94c-.32-.18-.83-.39-1.57-.39-1.77,0-2.69,1.42-2.69,3.05,0,1.85,1.11,3.01,2.65,3.01.76,0,1.27-.21,1.65-.38l.21.9Z"/><path class="cls-2" d="m171.52,117.11c0,.63.01,1.29.11,1.82h-1.06l-.11-.98h-.04c-.39.6-1.18,1.15-2.25,1.15-1.46,0-2.23-1.06-2.23-2.17,0-1.83,1.6-2.83,4.43-2.82,0-.64,0-2.1-1.74-2.1-.66,0-1.34.18-1.86.55l-.28-.8c.62-.41,1.47-.64,2.33-.64,2.16,0,2.72,1.53,2.72,3.04v2.96Zm-1.15-2.14c-1.44,0-3.25.21-3.25,1.82,0,.98.62,1.41,1.32,1.41,1.13,0,1.93-.87,1.93-1.79v-1.44Z"/><path class="cls-2" d="m175.62,118.93h-1.16v-11.21h1.16v11.21Z"/><path class="cls-2" d="m188.69,118.93h-1.16v-4.51c0-1.25-.45-2.33-1.77-2.33-.9,0-2.02.74-2.02,2.14v4.69h-1.16v-11.21h1.16v4.75h.03c.5-.84,1.43-1.36,2.37-1.36s2.55.57,2.55,3.17v4.65Z"/><path class="cls-2" d="m196.65,117.11c0,.63.01,1.29.11,1.82h-1.06l-.11-.98h-.04c-.39.6-1.18,1.15-2.25,1.15-1.46,0-2.23-1.06-2.23-2.17,0-1.83,1.6-2.83,4.43-2.82,0-.64,0-2.1-1.74-2.1-.66,0-1.34.18-1.86.55l-.28-.8c.62-.41,1.47-.64,2.33-.64,2.16,0,2.72,1.53,2.72,3.04v2.96Zm-1.15-2.14c-1.44,0-3.25.21-3.25,1.82,0,.98.62,1.41,1.32,1.41,1.13,0,1.93-.87,1.93-1.79v-1.44Z"/><path class="cls-2" d="m200.16,109.95c-.45,0-.76-.35-.76-.8s.32-.78.77-.78.76.35.76.78c0,.49-.32.8-.77.8Zm.59,8.98h-1.16v-7.63h1.16v7.63Z"/><path class="cls-2" d="m207.24,112.28c-.13-.01-.25-.03-.42-.03-1.26,0-1.9,1.25-1.9,2.54v4.15h-1.16v-5.35c0-.81-.01-1.55-.06-2.28h1.02l.06,1.47h.04c.34-.95,1.13-1.64,2.07-1.64.13,0,.22.03.35.04v1.11Z"/><path class="cls-2" d="m216.75,112.28c-.13-.01-.25-.03-.42-.03-1.26,0-1.9,1.25-1.9,2.54v4.15h-1.16v-5.35c0-.81-.01-1.55-.06-2.28h1.02l.06,1.47h.04c.34-.95,1.13-1.64,2.07-1.64.13,0,.22.03.35.04v1.11Z"/><path class="cls-2" d="m224.21,118.61c-.43.21-1.23.48-2.4.48-2.23,0-3.56-1.57-3.56-3.85,0-2.4,1.34-4.12,3.4-4.12,2.35,0,2.96,2.16,2.96,3.49,0,.27-.01.46-.03.64h-5.2c.01,2.12,1.22,2.91,2.59,2.91.95,0,1.53-.2,2-.39l.22.84Zm-.74-4.23c.01-1.04-.42-2.38-1.92-2.38-1.4,0-2.02,1.33-2.13,2.38h4.05Z"/><path class="cls-2" d="m237.44,118.93h-1.15v-4.41c0-1.48-.53-2.44-1.68-2.44-.94,0-1.79.88-1.79,2.04v4.8h-1.15v-4.71c0-1.22-.52-2.14-1.6-2.14-.99,0-1.88.98-1.88,2.17v4.68h-1.15v-5.67c0-.78-.03-1.34-.06-1.98h1.02l.07,1.23h.04c.42-.74,1.12-1.4,2.33-1.4.99,0,1.76.62,2.09,1.53h.03c.5-.91,1.27-1.53,2.45-1.53.94,0,2.42.6,2.42,3.22v4.59Z"/><path class="cls-2" d="m246.88,115.05c0,2.84-1.88,4.05-3.57,4.05-1.96,0-3.47-1.47-3.47-3.94,0-2.61,1.62-4.05,3.57-4.05,2.09,0,3.47,1.6,3.47,3.94Zm-3.52-3.03c-1.65,0-2.34,1.62-2.34,3.1,0,1.69.94,3.07,2.31,3.07s2.35-1.37,2.35-3.1c0-1.36-.66-3.07-2.33-3.07Z"/><path class="cls-2" d="m255.21,111.3l-2.9,7.63h-1.09l-2.82-7.65h1.25l1.53,4.44c.24.69.45,1.33.62,1.96h.04c.17-.63.39-1.27.63-1.96l1.51-4.43h1.23Z"/><path class="cls-2" d="m262.22,117.11c0,.63.01,1.29.11,1.82h-1.06l-.11-.98h-.04c-.39.6-1.18,1.15-2.26,1.15-1.46,0-2.23-1.06-2.23-2.17,0-1.83,1.6-2.83,4.43-2.82,0-.64,0-2.1-1.74-2.1-.66,0-1.34.18-1.86.55l-.28-.8c.62-.41,1.47-.64,2.33-.64,2.16,0,2.72,1.53,2.72,3.04v2.96Zm-1.15-2.14c-1.44,0-3.25.21-3.25,1.82,0,.98.62,1.41,1.32,1.41,1.13,0,1.93-.87,1.93-1.79v-1.44Z"/><path class="cls-2" d="m266.32,118.93h-1.16v-11.21h1.16v11.21Z"/></g></g></g></svg>