<?xml version="1.0" encoding="UTF-8"?><svg id="_レイヤー_2" xmlns="http://www.w3.org/2000/svg" viewBox="0 0 127 127"><defs><style>.cls-1{fill:#fff;}.cls-2{fill:#decec6;}.cls-3{fill:none;stroke:#a48a81;stroke-linecap:round;stroke-miterlimit:10;stroke-width:2px;}</style></defs><g id="_レイヤー_1-2"><g><g><path class="cls-2" d="m77.1,39.71s-3.77,1.62-7.94,6.1c-4.56,4.89-6.09,13.16-6.09,13.16,0,0-1.52-8.27-6.09-13.16-4.17-4.47-7.94-6.1-7.94-6.1,0,0,3.77-1.62,7.94-6.1,4.56-4.89,6.09-13.16,6.09-13.16,0,0,1.52,8.27,6.09,13.16,4.17,4.47,7.94,6.1,7.94,6.1"/><path class="cls-2" d="m60.2,71.36s-2.62,1.13-5.52,4.24c-3.17,3.4-4.23,9.15-4.23,9.15,0,0-1.06-5.75-4.23-9.15-2.9-3.11-5.52-4.24-5.52-4.24,0,0,2.62-1.13,5.52-4.24,3.17-3.4,4.23-9.15,4.23-9.15,0,0,1.06,5.75,4.23,9.15,2.9,3.11,5.52,4.24,5.52,4.24"/><path class="cls-2" d="m86.9,66.1s-2.06.89-4.34,3.33c-2.49,2.67-3.32,7.19-3.32,7.19,0,0-.83-4.52-3.32-7.19-2.28-2.44-4.34-3.33-4.34-3.33,0,0,2.06-.89,4.34-3.33,2.49-2.67,3.32-7.18,3.32-7.18,0,0,.83,4.51,3.32,7.18,2.28,2.44,4.34,3.33,4.34,3.33"/></g><path class="cls-1" d="m115.33,98.44c-11.23,16.63-30.25,27.56-51.83,27.56s-40.37-10.8-51.63-27.27"/><line class="cls-3" x1="11.87" y1="98.73" x2="115.16" y2="98.73"/><circle class="cls-3" cx="63.5" cy="63.5" r="62.5"/></g></g></svg>