<?xml version="1.0" encoding="UTF-8"?><svg id="_レイヤー_2" xmlns="http://www.w3.org/2000/svg" xmlns:xlink="http://www.w3.org/1999/xlink" viewBox="0 0 127 127"><defs><style>.cls-1,.cls-2{fill:none;}.cls-3{clip-path:url(#clippath);}.cls-4{fill:#fff;}.cls-5{fill:#a48a81;}.cls-6{fill:#d9d9d9;}.cls-7{fill:#decec6;}.cls-2{stroke:#a48a81;stroke-linecap:round;stroke-miterlimit:10;stroke-width:2px;}</style><clipPath id="clippath"><circle class="cls-1" cx="63.5" cy="63.5" r="62.5"/></clipPath></defs><g id="_レイヤー_1-2"><g><g class="cls-3"><rect class="cls-4" x="23" y="110" width="86" height="20"/><g><g><path class="cls-4" d="m30.07,81.83l.09.41c-.15.29-.06.8-.06,1.13v.23l-12.15-.07v-.61s0-.12,0-.12v-.34l.06-.22v-.28l-.04-.17-.09-2.05,1.43.04,9.64.22,1.03.02.08,1.81Z"/><path class="cls-4" d="m27.48,61.52v.3c-.81-.04-1.59-.06-2.18-.14h-.02l.02-.23c-.11-.82-.51-1.34-1.03-1.6l.05-.09c-.17-1.08-1.02-5.25-1.63-7.6-.44-1.66,1.2-2.9,2.39-.23.53,1.2,2.41,9.59,2.41,9.59Z"/><path class="cls-4" d="m26.83,64.69c1.32,1.36.96,5.67-.96,3.69l-.41.02c-.4-1.16-1.15-3.06-2.07-4.46l1.22-.26c.13.19.29.33.45.39.25.09,1.04.32,1.8.53l-.02.09Z"/><path class="cls-4" d="m25.3,61.45l-.02.23c-1.37-.19-1.19,1.25-.67,1.99l-1.22.26c-.73-1.12-1.57-1.93-2.44-1.83-.19-1.91,1.96-2.95,3.32-2.26.52.26.92.78,1.03,1.6Z"/><path class="cls-4" d="m20.95,62.11c.87-.1,1.71.71,2.44,1.83.92,1.4,1.67,3.3,2.07,4.46.11.29.18.53.24.71.37,1.16-.94,1.77-1.47,1.22.02-.12.03-.24.01-.38-.14-1.08-3.38-5.07-5.39-5.82l.18-.43c.2-.55.9-1.14,1.39-1.42.18-.1.35-.16.53-.18Z"/><path class="cls-4" d="m19.58,76.84c-.71-.8-1.22-1.96-1.68-2.91-1.53-3.18-3.59-6.77-.17-9.73.27-.24.67-.24,1.13-.06,2.01.75,5.25,4.74,5.39,5.82.02.14.01.26-.01.38.53.55,1.84-.06,1.47-1.22-.06-.18-.13-.43-.24-.71l.41-.02c1.92,1.98,2.27-2.33.96-3.69l.02-.09c-.76-.22-1.55-.44-1.8-.53-.16-.06-.32-.2-.45-.39-.51-.74-.7-2.18.67-1.99h.02c.59.08,1.37.1,2.17.14,1.39.08,2.81.25,3.24,1.05,1.5,2.81,1.09,10.78-.27,12.35-1.02,1.17-1.33,3-1.47,4.7v.08l-9.64-.22v-.11l.15-2.73.11-.09Z"/><path class="cls-4" d="m54.26,48.73l-.58-.1c-4.57,0-6.6-7.64-2.85-8.39.54-.11,1.19-.08,1.98.15l.05-.19h.2l4.51,1.15.19.08c-.13.29-.22.63-.23,1.02-.08,1.76.72,4.09,3.89,3.96,2.63-.11,3.68-1.76,3.64-3.93,0-.16-.02-.32-.05-.47h.05s4.35-.06,4.35-.06h.11c-.01.11-.02.23-.02.35-.04,2.17,1,3.82,3.64,3.93,3.17.12,3.96-2.2,3.88-3.96-.01-.29-.06-.55-.15-.78l.24-.09,3.65-1.35.3-.11.08.11c.88-.6,1.81-.49,2.57,0,.85.54,1.49,1.54,1.62,2.56.43,3.28-1.66,5.12-4.45,6.45l-.49-.06c-.42,2.03-1.4,5.15-3.63,7.66-1.96,2.22-4.89,3.98-9.27,4.12-3.22.11-5.69-.91-7.59-2.43-3.51-2.8-5.05-7.32-5.64-9.61Z"/><path class="cls-4" d="m77.01,42.27c.08,1.76-.71,4.09-3.88,3.96-2.64-.11-3.68-1.76-3.64-3.93,0-.12.01-.23.02-.34.23-1.97,2.11-2.46,3.86-2.43,1.37.02,3.01.5,3.49,1.95.08.23.13.5.15.78Zm-2.71-.12c.06-.63-.45-1.18-1.13-1.25s-1.29.39-1.34,1.02c-.06.63.45,1.18,1.13,1.25.68.06,1.29-.39,1.34-1.02Z"/><path class="cls-4" d="m65.05,42.49c.04,2.17-1.01,3.82-3.64,3.93-3.17.13-3.97-2.2-3.89-3.96.02-.39.1-.73.23-1.02.58-1.26,2.11-1.69,3.41-1.71,1.71-.04,3.55.44,3.84,2.3.03.15.04.3.05.47Zm-3.19.68c.68-.06,1.19-.62,1.13-1.25-.06-.63-.66-1.08-1.34-1.02s-1.19.62-1.13,1.25.66,1.08,1.34,1.02Z"/><path class="cls-4" d="m46.14,115.47c11.24-.85,22.48-1.47,33.73-2.1,10.03-.56,21.52-3.71,31.93-2.38-1.96-12.98-5.48-25.77-8.22-32.78-2.03-5.2-15.85-10.06-19.53-11.22l-.05.12c-.44-.18-.92-.31-1.37-.54l-.6.2c1.57,2.82,1.96,9.07,1.66,12.53-.13,1.54-1.02,6.15-1.02,6.15l-.05.22c4.61.99,3.35,13.23,3.16,16.2-.14,2.19-1.39,2.82-2.06,3.25l.29.82c.12.33-.04.7-.36.82l-1.59.61c-.32.12-.67-.05-.79-.39l-.43-1.23c-.04-.11-.05-.22-.03-.33l-1.16-.27-.67,1.12c-.18.31-.56.41-.85.23l-1.44-.91c-.29-.18-.37-.57-.19-.88l.19-.32c-.12-.15-1.63-1.96-1.44-4.15.24-2.81,1.29-6.76,2.7-9.85l-.35-.16c1.67-3.7,2.91-6.57,2.91-6.71,0-.79-2.11-5.3-2.11-5.3,0,0,2.9-.37,2.9-1.27,0-1.2.4-7.22-1.13-11.47-.66-1.84-1.68-3.34-3.24-3.99h-.14v3.89l.2-.09v.2c.16,8.37-1.47,16.85-3.89,24.48-1.05,3.32-2.25,6.46-3.52,9.37l-1.26-.98s-2.2-5.01-4.4-11.57c-.98-2.9-1.95-6.11-2.73-9.32l-1.44.08s-4.79.22-4.79-.68c0-1.22.25-7.77,1.85-11.61l-.15-.06c-.98,0-1.68.2-2.47.6l.05.11c-5.58,2.31-14.06,2.54-18.54,9.35-4.57,6.95-4.47,8.41-4.47,8.41l-.22.03-.02-.11h-.91s-12.15-.08-12.15-.08h-1.17s-1.72,18.58-.74,32.86c10.04-.3,20.06-.16,30.1-.92Zm9.22-24.03c2.33.21,4.05,2.27,3.84,4.6-.21,2.33-2.27,4.05-4.6,3.84-2.33-.21-4.05-2.27-3.84-4.6.21-2.33,2.27-4.05,4.6-3.84Z"/><path class="cls-4" d="m82.62,85.67c4.61.99,3.35,13.23,3.16,16.2-.14,2.19-1.39,2.82-2.06,3.25l-.14-.4c-.12-.33-.47-.51-.79-.39l-1.59.61c-.22.08-.36.27-.39.5l-1.16-.27c.18-.3.09-.7-.19-.88l-1.44-.91c-.29-.18-.67-.08-.85.23l-.47.8c-.12-.15-1.63-1.96-1.44-4.15.24-2.81,1.29-6.76,2.7-9.85,1.32-2.89,2.95-5.02,4.54-4.77.05,0,.09.02.13.03Z"/><path class="cls-7" d="m73.82,27.17c-1.98.04-3.72.22-5.68-.76l-.11-.19c-4.27-2.13-8.36-.16-10.39,2.93-2.54,3.87-2.64,9.5-4.79,11.06l-.05.19c-.78-.23-1.44-.26-1.98-.15l-.12-.53s-2.79-7.77-1.5-11.87c2.05-6.53,8.3-9.2,12.82-11.91,5.07-3.04,14.72.08,15.48,5.23,1.91-.67,5.26.63,6.96,5.33,1.72,4.77-.75,13.53-.75,13.53v.02c-.78-.49-1.71-.6-2.58,0l-.08-.11-.3.11-.19-.51c-2.88-.68-1.97-12.35-5.57-12.35h-1.18Z"/><path class="cls-5" d="m83.72,105.11l.29.82c.12.33-.04.7-.36.82l-1.59.61c-.32.12-.67-.05-.79-.39l-.43-1.23c-.04-.11-.05-.22-.04-.33.04-.22.18-.42.39-.5l1.59-.61c.32-.12.67.05.79.39l.14.4Z"/><path class="cls-4" d="m82.03,66.78c1.57,2.82,1.96,9.07,1.66,12.53-.13,1.54-1.02,6.15-1.02,6.15l-.05.22s-.09-.02-.13-.03c-1.59-.26-3.22,1.88-4.54,4.77l-.35-.16c1.67-3.7,2.91-6.57,2.91-6.71,0-.79-2.11-5.3-2.11-5.3,0,0,2.9-.37,2.9-1.27,0-1.2.4-7.22-1.13-11.47l.34-.12c.6.15,1.1.65,1.52,1.41Z"/><path class="cls-4" d="m75,27.18c3.6,0,2.69,11.67,5.57,12.35l.19.51-3.65,1.35-.24.09c-.49-1.45-2.12-1.92-3.49-1.95-1.75-.04-3.63.46-3.86,2.43h-.11s-4.35.04-4.35.04h-.05c-.29-1.85-2.12-2.32-3.84-2.29-1.3.02-2.83.45-3.41,1.71l-.19-.08-4.51-1.15h-.2c2.15-1.56,2.25-7.19,4.79-11.06,2.03-3.09,6.11-5.06,10.39-2.93l.11.19c1.95.98,3.7.8,5.68.76h1.18Z"/><path class="cls-5" d="m76.69,104.41l.47-.8c.18-.31.56-.41.85-.23l1.44.91c.29.18.37.58.19.88l-.67,1.12c-.18.31-.56.41-.85.23l-1.44-.91c-.29-.18-.37-.57-.19-.88l.19-.32Z"/><path class="cls-4" d="m72.16,72.91l-3.88-3.43.05-.23,8.46-3.85.2-.09v.2c.16,8.37-1.47,16.85-3.89,24.48l-.19-.06-2.96-12.87,1.8-3.68.41-.46Z"/><path class="cls-4" d="m76.79,61.5v3.89l-8.46,3.85-8.46-3.52v-.27s0-1.36,0-2.96c0-1.45.01-3.09.01-4.13v-.02c1.91,1.52,4.39,2.54,7.6,2.43,4.38-.15,7.31-1.91,9.27-4.12l.03.02v4.83Z"/><path class="cls-5" d="m73.17,40.91c.68.06,1.19.62,1.13,1.25s-.66,1.08-1.34,1.02c-.68-.06-1.19-.62-1.13-1.25.05-.63.65-1.08,1.34-1.02Z"/><path class="cls-7" d="m72.92,89.92l.19.06c-1.05,3.32-2.25,6.46-3.52,9.37l-1.26-.98s-2.2-5.01-4.4-11.57h.03c.53-1.12,2.72-9.75,2.72-9.75l-.59-1.2-1.2-2.47-.41-.45,3.8-3.44,3.88,3.43-.41.46-1.8,3.68,2.96,12.87Z"/><path class="cls-4" d="m64.48,72.92l.41.45,1.2,2.47.59,1.2s-2.19,8.63-2.72,9.74h-.03c-.98-2.89-1.95-6.09-2.73-9.3-1.01-4.1-1.71-8.21-1.71-11.72l.38-.04,8.46,3.52-.05.23-3.8,3.44Z"/><path class="cls-5" d="m62.99,41.92c.05.63-.45,1.18-1.13,1.25s-1.29-.39-1.34-1.02.45-1.18,1.13-1.25,1.29.39,1.34,1.02Z"/><path class="cls-4" d="m61.2,77.48l-1.44.08s-4.79.22-4.79-.68c0-1.22.25-7.77,1.85-11.61.65-1.56,1.54-2.67,2.71-2.78h.34c0,1.6,0,2.96,0,2.96v.27l-.38.04c0,3.51.7,7.62,1.71,11.72Z"/><path class="cls-6" d="m55.36,91.44c2.33.21,4.05,2.27,3.84,4.6-.21,2.33-2.27,4.05-4.6,3.84-2.33-.21-4.05-2.27-3.84-4.6.21-2.33,2.27-4.05,4.6-3.84Zm1.24,4.37c.08-.89-.58-1.69-1.47-1.77-.89-.08-1.69.57-1.77,1.47s.58,1.69,1.47,1.77,1.69-.58,1.77-1.47Z"/><path class="cls-5" d="m55.13,94.04c.89.08,1.55.87,1.47,1.77-.08.89-.88,1.56-1.77,1.47s-1.56-.88-1.47-1.77.88-1.55,1.77-1.47Z"/></g><g><path class="cls-5" d="m98.12,111.18c-.43-7.27-.72-12.14-.73-13.15,0-.4-.36-.71-.74-.72-.4,0-.73.34-.72.74.02,1.03.3,5.96.74,13.29.48-.06.97-.12,1.45-.17Z"/><path class="cls-5" d="m38.81,115.88c.67-7.72,1.17-12.56,1.5-14.43.07-.4-.19-.78-.59-.85-.4-.07-.78.19-.85.59-.35,1.95-.85,6.82-1.53,14.75.49-.02.98-.04,1.47-.06Z"/><path class="cls-5" d="m83.84,67.68c5.86,1.84,17.38,6.47,19.06,10.79,2.69,6.86,6.19,19.49,8.16,32.42.5.05,1,.12,1.5.19-1.98-13.2-5.56-26.16-8.3-33.15-2.32-5.94-18.19-11.09-19.99-11.65-.39-.12-.8.09-.92.48-.12.39.09.8.48.92Z"/><path class="cls-5" d="m31.24,84.41c-.38,0-.7-.3-.73-.68-.03-.4.22-2.22,4.59-8.87,3.41-5.19,8.98-6.71,13.89-8.05,1.8-.49,3.5-.96,4.98-1.57.12-.05.22-.09.33-.14.37-.17.8,0,.97.37.17.37,0,.8-.37.97-.13.06-.25.11-.38.16-1.55.64-3.3,1.12-5.14,1.63-4.66,1.28-9.95,2.72-13.06,7.45-4.07,6.19-4.34,7.88-4.35,8.02,0,.38-.3.7-.68.72-.02,0-.03,0-.05,0Z"/><path class="cls-5" d="m76.79,66.46c-.4,0-.73-.33-.73-.73v-9.06c0-.4.33-.73.73-.73s.73.33.73.73v9.06c0,.4-.33.73-.73.73Z"/><path class="cls-5" d="m59.88,66.19h0c-.4,0-.73-.33-.73-.73,0,0,0-1.36,0-2.96,0-1.45.01-3.09.01-4.13,0-.4.33-.73.73-.73s.73.33.73.73c0,1.04,0,2.69-.01,4.14,0,1.6,0,2.96,0,2.96,0,.4-.33.73-.73.73Z"/><path class="cls-5" d="m16.78,116.37c-.74-10.86.01-24.72.67-32.11l12.92.07,4.5,31.67c.49-.01.98-.03,1.47-.04l-4.59-32.38-.02-.11c-.06-.35-.36-.61-.72-.61l-14.22-.08h0c-.38,0-.69.29-.73.66,0,.11-1.02,11.09-1.05,22.53,0,3.89.09,7.36.3,10.42.49-.02.98-.02,1.47-.04Z"/><path class="cls-5" d="m54.84,91.59s-.06,0-.1,0c-.4-.05-.68-.42-.63-.82.08-.59-.26-2.85-.61-5.23-1.35-9.1-2.34-17.47.29-19.93.29-.28.76-.26,1.03.04.28.3.26.76-.04,1.03-2.29,2.14-.7,12.88.16,18.65.47,3.18.71,4.87.61,5.63-.05.37-.36.64-.72.64Z"/><path class="cls-5" d="m54.99,100.62c-.15,0-.3,0-.46-.02-1.32-.12-2.52-.75-3.37-1.77-.85-1.02-1.25-2.31-1.13-3.63.12-1.32.75-2.52,1.77-3.37,1.02-.85,2.31-1.25,3.63-1.13,1.32.12,2.52.75,3.37,1.77.85,1.02,1.25,2.31,1.13,3.63-.12,1.32-.75,2.52-1.77,3.37-.9.75-2.01,1.15-3.17,1.15Zm-.01-8.47c-.82,0-1.6.28-2.24.81-.72.6-1.16,1.44-1.25,2.38h0c-.08.93.2,1.84.8,2.56.6.72,1.44,1.16,2.38,1.25.94.08,1.84-.2,2.56-.8.72-.6,1.16-1.44,1.25-2.38.08-.93-.2-1.84-.8-2.56-.6-.72-1.44-1.16-2.38-1.25-.11,0-.22-.01-.32-.01Zm-4.21,3.12h0,0Z"/><path class="cls-5" d="m82.67,86.19s-.09,0-.14-.01c-.4-.08-.66-.46-.58-.86,0-.05.88-4.59,1.01-6.07.29-3.38-.09-9.46-1.57-12.11-.23-.42-.61-.94-1.06-1.06-.39-.1-.63-.5-.53-.89.1-.39.49-.63.89-.53.77.2,1.44.79,1.98,1.76,1.69,3.03,2.05,9.52,1.75,12.95-.14,1.56-1,6.03-1.03,6.22-.07.35-.37.59-.72.59Z"/><path class="cls-5" d="m83.72,105.85c-.24,0-.48-.12-.62-.34-.22-.34-.12-.79.23-1.01l.15-.09c.66-.41,1.47-.91,1.58-2.58.01-.22.03-.48.06-.79.67-9.2-.22-14.12-2.64-14.64l.07-.74-.15.72c-1.03-.17-2.47,1.5-3.78,4.35-1.33,2.93-2.39,6.79-2.63,9.61-.16,1.85,1.13,3.44,1.28,3.61.26.31.22.77-.09,1.03-.31.26-.77.22-1.03-.09-.31-.36-1.82-2.3-1.61-4.68.25-2.97,1.36-7.03,2.76-10.09,1.69-3.68,3.53-5.48,5.33-5.18.04,0,.11.02.17.04,4.33.93,4.3,9.13,3.79,16.18-.02.3-.04.57-.05.78-.16,2.43-1.53,3.28-2.27,3.73l-.13.08c-.12.08-.26.11-.39.11Z"/><path class="cls-5" d="m68.33,99.1c-.28,0-.55-.16-.67-.44-.02-.05-2.24-5.11-4.42-11.63-1.11-3.3-2.03-6.45-2.75-9.37-1.15-4.67-1.73-8.68-1.73-11.89,0-.4.33-.73.73-.73s.73.33.73.73c0,3.1.57,6.98,1.69,11.54.7,2.88,1.62,6,2.71,9.26,2.16,6.46,4.35,11.46,4.37,11.51.16.37,0,.8-.38.96-.1.04-.2.06-.29.06Z"/><path class="cls-5" d="m61.93,114.41c2.79-3.62,5.81-8.97,8.33-14.76,1.34-3.08,2.54-6.26,3.55-9.44,2.75-8.68,4.07-16.99,3.92-24.71,0-.4-.35-.71-.75-.72-.4,0-.72.34-.72.75.15,7.56-1.15,15.72-3.85,24.24-1,3.14-2.17,6.27-3.49,9.3-2.53,5.82-5.57,11.18-8.34,14.7-.17.22-.19.49-.09.73.48-.03.96-.06,1.44-.09Z"/><path class="cls-5" d="m65.55,100.88c-.26,0-.52-.14-.65-.4-8.73-16.92-8.73-17.3-8.73-17.52,0-.69,1.12-2.71,2.27-4.63-1.52,0-3.27-.14-3.87-.71-.21-.2-.33-.46-.33-.74,0-.07.08-7.53,1.91-11.89.85-2.01,1.96-3.09,3.32-3.22.39-.04.76.26.8.66.04.4-.26.76-.66.8-.97.09-1.68,1.32-2.11,2.33-1.41,3.37-1.76,9.19-1.79,11.05.59.2,2.34.3,4.02.22.29-.02.53.13.66.36.14.23.13.53-.01.76-1.2,1.92-2.53,4.27-2.73,4.95.57,1.36,5.35,10.72,8.55,16.91.19.36.04.8-.31.98-.11.06-.22.08-.33.08Z"/><path class="cls-5" d="m69.08,108.15c-.27,0-.53-.15-.65-.4-.17-.33-.05-.73.25-.94.72-.75,4.18-7.81,8.26-16.86,1.69-3.73,2.64-5.97,2.84-6.49-.12-.61-1.12-2.97-2.03-4.92-.1-.21-.09-.46.02-.66.11-.2.32-.34.55-.37.96-.12,1.99-.42,2.26-.65,0-.15,0-.33.01-.56.05-1.9.19-6.96-1.11-10.55-.67-1.86-1.62-3.06-2.83-3.56-.37-.16-.55-.58-.39-.96.15-.37.58-.55.96-.39,1.61.67,2.83,2.15,3.65,4.42,1.39,3.85,1.25,9.11,1.19,11.09,0,.27-.01.49-.01.63,0,1.05-1.35,1.57-2.57,1.83.73,1.61,1.77,4.03,1.77,4.74,0,.16,0,.43-2.98,7.01-5.05,11.21-8.03,17.11-8.86,17.52-.1.05-.22.08-.33.08Zm-.33-1.39h0s0,0,0,0Z"/><path class="cls-5" d="m68.33,69.98c-.1,0-.19-.02-.28-.06l-8.46-3.52c-.37-.16-.55-.58-.39-.96.16-.37.58-.55.96-.39l8.16,3.4,8.37-3.81c.37-.17.8,0,.97.36.17.37,0,.8-.36.97l-8.67,3.95c-.1.04-.2.07-.3.07Z"/><path class="cls-5" d="m80.57,40.26c-.06,0-.11,0-.17-.02-1.8-.43-2.33-3.2-2.95-6.4-.51-2.64-1.14-5.93-2.45-5.93-.07,0-.15,0-.25.03-.39.08-.78-.17-.87-.57-.08-.4.17-.78.57-.87.2-.04.38-.06.55-.06,2.52,0,3.22,3.62,3.89,7.12.41,2.13.97,5.04,1.85,5.25.39.09.64.49.54.88-.08.34-.38.56-.71.56Z"/><path class="cls-5" d="m83.72,40.75c-.07,0-.13,0-.2-.03-.39-.11-.62-.51-.51-.9.02-.09,2.38-8.59.76-13.08-1.55-4.28-4.46-5.43-6.03-4.89-.02,0-.04.01-.06.02-.37.13-.79-.05-.93-.42-.15-.37.02-.79.39-.94.05-.02.1-.04.15-.05,3.54-1.21,6.72,2.65,7.85,5.78,1.78,4.94-.63,13.61-.73,13.97-.09.32-.38.53-.7.53Zm-6.06-18.87s0,0,0,0c0,0,0,0,0,0Z"/><path class="cls-5" d="m52.86,40.94c-.23,0-.45-.1-.59-.3-.24-.33-.17-.78.16-1.02.92-.67,1.47-2.56,2.06-4.57.6-2.05,1.28-4.37,2.55-6.3,2.1-3.21,6.54-5.57,11.32-3.18.36.18.51.62.33.98-.18.36-.62.51-.98.33-3.98-1.99-7.69,0-9.45,2.68-1.15,1.75-1.8,3.96-2.37,5.91-.69,2.35-1.28,4.38-2.6,5.34-.13.09-.28.14-.43.14Z"/><path class="cls-5" d="m70.14,26.6c-.4,0-.73-.33-.73-.73,0-.57-1.1-1.32-1.75-1.32-.4,0-.73-.33-.73-.73s.33-.73.73-.73c1.26,0,3.21,1.19,3.21,2.78,0,.4-.33.73-.73.73Z"/><path class="cls-5" d="m72.78,27.81c-.07,0-.13,0-.2-.03-.39-.11-.61-.51-.5-.9.33-1.16.09-2.28-.72-3.36-1.63-2.16-4.91-3.36-6.55-3.36-.4,0-.73-.33-.73-.73s.33-.73.73-.73c2.29,0,5.94,1.58,7.72,3.94,1.08,1.44,1.42,3.04.96,4.64-.09.32-.38.53-.7.53Z"/><path class="cls-5" d="m50.71,40.45c-.3,0-.58-.19-.69-.48-.12-.33-2.86-8.05-1.51-12.34,1.84-5.88,7.01-8.81,11.16-11.17.68-.39,1.35-.77,1.98-1.15,3.45-2.07,8.31-1.43,11.59.13,2.84,1.34,4.66,3.4,4.99,5.63.06.4-.22.77-.62.83-.4.06-.77-.22-.83-.62-.26-1.74-1.78-3.39-4.17-4.52-3.47-1.64-7.67-1.72-10.21-.19-.64.39-1.32.77-2.01,1.17-4.13,2.35-8.81,5.01-10.48,10.34-1.2,3.83,1.46,11.33,1.49,11.41.14.38-.06.8-.44.93-.08.03-.17.04-.25.04Z"/><path class="cls-5" d="m67.02,61.51c-2.87,0-5.42-.87-7.57-2.6-3.64-2.9-5.25-7.51-5.89-10-.23-.92-.32-1.5-.32-1.52-.06-.4.22-.77.62-.83.39-.06.77.22.83.62,0,0,.08.54.29,1.37.6,2.31,2.09,6.59,5.39,9.22,2,1.6,4.38,2.36,7.11,2.27,3.64-.12,6.58-1.43,8.75-3.88,2.1-2.36,3.04-5.29,3.46-7.32.25-1.19.3-2,.3-2,.02-.4.37-.71.77-.69.4.02.71.37.69.77,0,.04-.05.91-.32,2.22-.46,2.21-1.49,5.4-3.8,8-2.44,2.76-5.74,4.23-9.79,4.37-.17,0-.33,0-.5,0Z"/><path class="cls-5" d="m53.68,49.36c-3.09,0-5.23-2.91-5.5-5.72-.21-2.15.77-3.76,2.51-4.11.7-.14,1.48-.08,2.32.17.05,0,.17.04.28.08.38.13.59.54.46.93-.13.38-.54.59-.93.46-.06-.02-.12-.04-.18-.05-.67-.19-1.22-.24-1.68-.15-1.41.28-1.41,1.87-1.34,2.53.21,2.12,1.82,4.4,4.05,4.4.4,0,.73.33.73.73s-.33.73-.73.73Z"/><path class="cls-5" d="m80.88,49.78c-.27,0-.53-.15-.66-.42-.17-.36-.02-.8.34-.97,3.16-1.51,4.37-3.21,4.04-5.69-.1-.79-.62-1.61-1.29-2.03-.62-.39-1.21-.4-1.77-.01-.11.08-.2.15-.28.22-.29.29-.75.29-1.03,0s-.29-.75,0-1.03c.14-.14.29-.27.48-.4,1.04-.71,2.28-.72,3.38-.01,1.03.65,1.8,1.86,1.95,3.08.54,4.11-2.51,6.08-4.86,7.2-.1.05-.21.07-.31.07Z"/><path class="cls-5" d="m66.92,48.19c-.4,0-.78-.08-1.1-.23-.29-.14-.42-.49-.28-.78.14-.29.49-.42.78-.28.38.18.99.15,1.46-.08.29-.14.64-.01.78.28.14.29.01.64-.28.78-.43.2-.91.31-1.37.31Z"/><path class="cls-5" d="m67.2,56.25c-.4,0-.78-.08-1.1-.23-.29-.14-.42-.49-.28-.78.14-.29.49-.42.78-.28.39.18.99.15,1.47-.08.29-.14.64-.01.78.28.14.29.01.64-.28.78-.43.2-.91.31-1.37.31Z"/><path class="cls-5" d="m67.26,53.61c-1.68,0-3.75-.42-4.51-1.61-.22-.34-.12-.79.22-1.01.34-.22.79-.12,1.01.22.29.45,1.54.93,3.28.93h0c1.71,0,2.9-.47,3.2-.93.22-.34.67-.44,1.01-.22.34.22.44.67.22,1.01-.96,1.49-3.63,1.61-4.43,1.61h0Z"/><path class="cls-5" d="m74.31,37.7c-.11,0-.22-.03-.32-.1h0s-.99-.63-1.68-.26c-.28.15-.64.04-.79-.24-.15-.28-.04-.64.24-.79,1.32-.71,2.82.27,2.88.32.27.18.34.54.16.81-.11.17-.3.26-.49.26Z"/><path class="cls-5" d="m60.09,37.7c-.19,0-.38-.09-.49-.26-.18-.27-.11-.63.16-.81.06-.04,1.56-1.02,2.89-.32.29.15.39.51.24.79-.15.28-.51.39-.79.24-.7-.37-1.68.25-1.69.26-.1.07-.21.1-.32.1Z"/><path class="cls-5" d="m73.37,46.82c-.09,0-.17,0-.26,0-2.72-.11-4.25-1.76-4.2-4.52,0-.13.01-.27.03-.39.22-1.93,1.85-3,4.45-2.95,2.04.03,3.55.91,4.03,2.34.1.3.16.62.18.95.06,1.38-.36,2.64-1.17,3.45-.74.75-1.77,1.13-3.06,1.13Zm-.17-6.7c-1.35,0-2.92.35-3.11,1.91,0,.08-.02.18-.02.27-.04,2.14,1,3.26,3.08,3.35,1.07.04,1.89-.22,2.44-.78.82-.83.85-2.07.83-2.57,0-.22-.05-.43-.11-.62,0,0,0,0,0,0-.47-1.4-2.37-1.54-2.95-1.55-.05,0-.11,0-.16,0Z"/><path class="cls-5" d="m61.16,47.01c-1.28,0-2.3-.38-3.05-1.13-.81-.81-1.24-2.07-1.17-3.45.02-.45.12-.87.29-1.23.83-1.8,3.02-2.04,3.93-2.05,2.5-.04,4.14.97,4.42,2.79.03.14.05.31.05.54.05,2.78-1.48,4.43-4.2,4.53-.09,0-.18,0-.27,0Zm.18-6.7c-.06,0-.11,0-.17,0-.54,0-2.32.14-2.89,1.37,0,0,0,0,0,0-.11.23-.17.5-.18.8-.02.5.01,1.75.83,2.58.56.56,1.38.82,2.45.78,2.08-.08,3.12-1.21,3.08-3.33,0-.12-.01-.25-.04-.36-.23-1.5-1.77-1.83-3.08-1.83Zm-3.59,1.13h0,0Z"/><path class="cls-5" d="m57.57,41.94s-.1,0-.14-.02l-4.51-1.15c-.31-.08-.5-.4-.42-.71.08-.31.4-.5.71-.42l4.51,1.15c.31.08.5.4.42.71-.07.26-.31.44-.57.44Z"/><path class="cls-5" d="m77.1,41.98c-.24,0-.46-.15-.55-.38-.11-.3.04-.64.35-.75l3.95-1.46c.3-.11.64.04.75.34.11.3-.04.64-.34.75l-3.95,1.46c-.07.02-.14.04-.2.04Z"/><path class="cls-5" d="m65.05,42.59c-.32,0-.58-.26-.58-.58,0-.32.26-.59.58-.59l4.35-.05h0c.32,0,.58.26.58.58,0,.32-.26.59-.58.59l-4.35.05h0Z"/><path class="cls-5" d="m74.3,75.54c-.17,0-.35-.06-.48-.18l-5.53-4.89-5.15,4.66c-.3.27-.76.25-1.03-.05-.27-.3-.25-.76.05-1.03l5.63-5.1c.28-.25.7-.25.98,0l6.02,5.33c.3.27.33.73.06,1.03-.14.16-.35.25-.55.25Z"/><path class="cls-5" d="m72.92,90.65c-.33,0-.63-.23-.71-.57l-2.96-12.87c-.04-.16-.02-.33.06-.48l1.8-3.68c.18-.36.61-.51.98-.34.36.18.51.61.34.98l-1.68,3.45,2.9,12.62c.09.39-.15.79-.55.88-.06.01-.11.02-.16.02Z"/><path class="cls-5" d="m63.96,87.52c-.11,0-.21-.02-.31-.07-.36-.17-.52-.61-.35-.97.36-.75,1.73-5.9,2.61-9.34l-1.68-3.44c-.18-.36-.03-.8.34-.98.36-.18.8-.03.98.34l1.79,3.68c.08.16.09.33.05.5-.23.89-2.23,8.73-2.77,9.87-.13.26-.39.42-.66.42Z"/><path class="cls-5" d="m28.53,65.77c-.13,0-.26-.03-.38-.1-.33-.17-.49-.57-.35-.93.15-.37.57-.56.94-.41.09.04.23.12.3.19.29.29.29.75,0,1.03-.14.14-.33.21-.52.21Z"/><path class="cls-5" d="m28.97,80.65s-.04,0-.06,0c-.4-.03-.7-.39-.67-.79.14-1.66.46-3.75,1.65-5.12,1.06-1.22,1.6-8.86.18-11.53-.19-.35-1.08-.58-2.63-.66l-.56-.03c-.6-.03-1.16-.05-1.64-.12-.02,0-.04,0-.05,0-.15-.02-.22,0-.24,0-.02.08.03.51.27.85.06.08.11.12.12.13.15.05.74.23,1.72.51.86.24,1.44.39,1.57.42.36.05.64.35.64.72,0,.4-.32.73-.73.73-.12,0-.19,0-1.87-.47-1.06-.3-1.63-.47-1.85-.55-.3-.11-.56-.33-.8-.65-.48-.7-.73-1.77-.29-2.49.18-.3.64-.78,1.62-.66.02,0,.04,0,.06,0,.42.06.96.08,1.54.11l.57.03c1.54.08,3.22.27,3.85,1.43,1.54,2.88,1.31,11.25-.36,13.18-.91,1.05-1.17,2.84-1.3,4.28-.03.38-.35.67-.73.67Z"/><path class="cls-5" d="m27.48,62.25c-.33,0-.64-.23-.71-.57-.75-3.34-2-8.62-2.36-9.45-.44-.99-.84-1.14-.88-1.12-.08.03-.26.35-.13.87.64,2.43,1.48,6.64,1.65,7.67.06.4-.21.77-.61.84-.39.06-.77-.21-.84-.61-.16-1.01-.99-5.14-1.62-7.53-.31-1.17.14-2.3,1.06-2.62.38-.13,1.69-.39,2.71,1.91.55,1.23,2.26,8.86,2.45,9.73.09.39-.16.78-.55.87-.05.01-.11.02-.16.02Z"/><path class="cls-5" d="m20.96,62.9c-.38,0-.7-.3-.73-.67,0-.02,0-.04,0-.05-.11-1.09.36-2.07,1.28-2.69.95-.65,2.16-.76,3.1-.28.79.4,1.29,1.17,1.42,2.16.05.4-.23.77-.63.82-.4.05-.77-.23-.82-.63-.07-.51-.28-.86-.63-1.04-.46-.23-1.12-.16-1.61.18-.27.19-.72.61-.64,1.35,0,0,0,.01,0,.02,0,.04,0,.08,0,.12,0,.4-.33.73-.73.73Z"/><path class="cls-5" d="m26.76,69.62c-.38,0-.87-.17-1.41-.73-.28-.29-.27-.75.01-1.03.29-.28.75-.27,1.03.02.15.15.25.22.31.26.07-.13.16-.41.17-.87.03-.82-.22-1.69-.58-2.06-.28-.29-.27-.75.02-1.03.29-.28.75-.27,1.03.02,1.15,1.19,1.34,4.08.32,5.06-.1.09-.43.37-.92.37Z"/><path class="cls-5" d="m24.75,71.27c-.39,0-.77-.15-1.04-.43-.22-.2-.37-.52-.41-.88-.05-.4.24-.76.64-.81.39-.05.76.24.81.64,0,.03.12,0,.21-.08.03-.03.12-.13.05-.37l-.03-.08c-.05-.16-.12-.37-.2-.6-.28-.82-1.03-2.85-2-4.31-.66-1.01-1.3-1.56-1.74-1.5-.08,0-.16.04-.25.09-.46.26-.96.75-1.06,1.03-.14.38-.56.58-.94.44-.38-.14-.58-.56-.44-.94.3-.82,1.22-1.52,1.72-1.81.27-.15.54-.24.82-.27,1.06-.13,2.11.6,3.12,2.16,1.01,1.55,1.78,3.56,2.15,4.62.09.24.16.47.22.65l.03.08c.27.86-.03,1.69-.77,2.13-.28.17-.59.25-.88.25Z"/><path class="cls-5" d="m18.53,70.16c-.19,0-.38-.07-.52-.22-.28-.29-.28-.75.01-1.03.14-.13.26-.71.32-1.02.06-.27.11-.53.19-.76.13-.38.55-.58.93-.45.38.13.58.55.45.93-.05.14-.09.35-.14.58-.13.62-.28,1.33-.74,1.77-.14.14-.33.21-.51.21Z"/><path class="cls-5" d="m20.94,69.59c-.08,0-.17-.01-.25-.05-.12-.04-.22-.12-.3-.21-.13-.06-.41-.16-.98-.34-.09-.03-.16-.05-.19-.06-.38-.13-.58-.55-.44-.93.13-.38.55-.58.93-.45l.14.04c1.26.4,1.57.56,1.74.91.09.18.1.42.03.6-.11.3-.39.48-.69.48Zm-.47-.21h0,0Zm-.21-.77s-.02.08-.03.11c0-.04.02-.08.03-.11Zm0,0s0,0,0,0c0,0,0,0,0,0Z"/><path class="cls-5" d="m19.9,77.98c-.08,0-.17-.01-.25-.05-.19-.07-.33-.21-.41-.38-.01-.01-.03-.02-.04-.03-.07-.07-.14-.14-.19-.22-.66-.75-1.16-1.78-1.59-2.69l-.45-.94c-1.49-3.06-3.34-6.87.3-10.01.27-.24.87-.58,1.87-.19,1.61.61,5.61,4.56,5.85,6.41.03.22.02.42-.02.62-.12.59-.53,1.06-1.11,1.24-.64.2-1.35.04-1.85-.44-.26-.25-.47-.53-.68-.8-.21-.28-.41-.55-.63-.71-.32-.25-.38-.71-.13-1.03s.71-.38,1.03-.13c.36.28.63.64.89.98.18.23.35.46.52.62.14.13.3.14.4.11.1-.03.12-.1.12-.13,0-.03.01-.08,0-.15-.12-.74-3.05-4.53-4.92-5.23-.25-.1-.37-.08-.39-.07-2.79,2.41-1.41,5.26.06,8.27l.46.95c.39.83.84,1.76,1.4,2.39.05.06.08.09.1.12.52.39.42.84.36,1.02-.11.29-.39.48-.69.48Z"/><path class="cls-5" d="m26.26,45.7s-.05,0-.08,0c-.4-.04-.69-.4-.65-.81.02-.19.13-1.18.29-1.63.13-.38.54-.59.93-.45.38.13.59.55.45.93-.07.21-.17.91-.22,1.31-.04.37-.36.65-.73.65Z"/><path class="cls-5" d="m22.39,47.59c-.33,0-.62-.22-.71-.55l-.44-1.71c-.1-.39.14-.79.53-.89s.79.14.89.53l.44,1.71c.1.39-.14.79-.53.89-.06.02-.12.02-.18.02Z"/><path class="cls-5" d="m18.58,49.44c-.12,0-.24-.03-.36-.09-.26-.14-.74-.4-.95-.48-.38-.14-.58-.55-.44-.93.14-.38.55-.58.93-.44.38.14,1.05.5,1.18.58.35.2.48.64.28,1-.13.24-.38.37-.64.37Z"/><path class="cls-5" d="m19.32,80.4s-.03,0-.04,0c-.4-.02-.71-.37-.69-.77l.15-2.73c.02-.4.37-.71.77-.69.4.02.71.37.69.77l-.15,2.73c-.02.39-.34.69-.73.69Z"/><path class="cls-5" d="m40.35,92.82c-.38,0-.7-.29-.73-.67l-1.32-15.98c-.03-.4.27-.76.67-.79.41-.03.76.27.79.67l1.32,15.98c.03.4-.27.76-.67.79-.02,0-.04,0-.06,0Z"/><path class="cls-5" d="m98.39,91.27s-.06,0-.08,0c-.4-.05-.69-.41-.64-.81l1.3-11.57c.05-.4.42-.69.81-.64.4.05.69.41.64.81l-1.3,11.57c-.04.37-.36.65-.73.65Z"/><path class="cls-5" d="m30.07,82.57c-.39,0-.71-.31-.73-.7l-.05-1.13-10.64-.25.05,1.27c.02.4-.3.74-.7.76-.4,0-.74-.3-.76-.7l-.09-2.05c0-.2.07-.4.21-.54.14-.14.33-.23.54-.22l12.1.28c.39,0,.7.31.71.7l.08,1.81c.02.4-.3.74-.7.76-.01,0-.02,0-.03,0Z"/></g></g></g><circle class="cls-2" cx="63.5" cy="63.5" r="62.5"/><circle class="cls-2" cx="63.5" cy="63.5" r="62.5"/></g></g></svg>