<?xml version="1.0" encoding="UTF-8"?><svg id="_レイヤー_2" xmlns="http://www.w3.org/2000/svg" viewBox="0 0 127 127"><defs><style>.cls-1{fill:#a48a81;}.cls-2{fill:#decec6;}.cls-3{fill:none;stroke:#a48a81;stroke-linecap:round;stroke-miterlimit:10;stroke-width:2px;}</style></defs><g id="_レイヤー_1-2"><g><circle class="cls-3" cx="63.5" cy="63.5" r="62.5"/><path class="cls-2" d="m96.06,79.56c0,2.74-4.29,4.87-4.97,7.4s1.93,6.6.61,8.89-6.13,2.03-8.01,3.91-1.59,6.67-3.91,8.01-6.28-1.31-8.89-.61-4.66,4.97-7.4,4.97-4.87-4.29-7.4-4.97-6.6,1.93-8.89.61-2.03-6.13-3.91-8.01-6.67-1.59-8.01-3.91,1.31-6.28.61-8.89-4.97-4.66-4.97-7.4,4.29-4.87,4.97-7.4-1.93-6.6-.61-8.89,6.13-2.03,8.01-3.91,1.59-6.67,3.91-8.01,6.28,1.31,8.89.61,4.66-4.97,7.4-4.97,4.87,4.29,7.4,4.97,6.6-1.93,8.89-.61,2.03,6.13,3.91,8.01,6.67,1.59,8.01,3.91-1.31,6.28-.61,8.89,4.97,4.66,4.97,7.4Z"/><path class="cls-1" d="m53,90.5c0-5.8,10-79.5,10.5-79.5s10.5,73.7,10.5,79.5-4.7,10.5-10.5,10.5-10.5-4.7-10.5-10.5Z"/></g></g></svg>