<?xml version="1.0" encoding="UTF-8"?><svg id="_レイヤー_2" xmlns="http://www.w3.org/2000/svg" viewBox="0 0 252 133.05"><defs><style>.cls-1{fill:#fff;}.cls-2{fill:#ee958a;}.cls-3{fill:#333;}.cls-4{fill:none;stroke:#333;stroke-linecap:round;stroke-miterlimit:10;stroke-width:.75px;}</style></defs><g id="_レイヤー_1-2"><g><g><rect class="cls-1" x=".38" y=".38" width="251.25" height="132.3"/><path class="cls-3" d="m251.25.75v131.55H.75V.75h250.5m.75-.75H0v133.05h252V0h0Z"/></g><g><path d="m68.74,66.19c-.89,0-1.54-.2-1.94-.58-.4-.38-.58-.99-.55-1.83v-6.21c0-.12.04-.22.12-.31s.18-.12.3-.12.22.04.31.12c.08.08.12.18.12.31v2.85c0,.08.04.11.12.1,1-.07,1.95-.21,2.87-.42.91-.21,1.84-.5,2.79-.87.03-.02.05-.03.08-.03h.08c.19,0,.32.09.38.26,0,.03.01.05.02.08,0,.03,0,.05,0,.08,0,.21-.1.36-.3.44-.92.35-1.87.63-2.85.86-.98.23-2,.38-3.06.46-.08,0-.12.05-.12.13v2.27c0,.47.04.81.15,1.02.11.21.29.35.53.42.25.07.57.11.96.12.1,0,.2.01.31.01h.34c.42,0,.88-.01,1.38-.03s1-.05,1.49-.08c.48-.03.9-.08,1.25-.13.12-.02.23.02.33.1s.15.18.15.31c0,.11-.04.21-.1.3-.07.09-.17.14-.29.16-.28.03-.62.07-1.01.1s-.83.05-1.28.07-.91.03-1.35.04c-.45.01-.86.02-1.23.02Zm4.97-7.54c-.36,0-.67-.12-.92-.38-.25-.25-.38-.56-.38-.92s.12-.66.38-.92c.25-.26.56-.38.92-.38s.66.13.92.38.38.56.38.92-.13.67-.38.92c-.26.25-.56.38-.92.38Zm0-.36c.25,0,.47-.09.66-.27s.28-.4.28-.66-.09-.47-.28-.66-.41-.28-.66-.28-.48.09-.66.28-.27.41-.27.66.09.48.27.66.4.27.66.27Z"/><path d="m80.59,65.6c-.12,0-.22-.04-.3-.13-.08-.09-.12-.19-.12-.3,0-.12.04-.22.12-.31s.18-.12.3-.12h4.76c.43,0,.76-.14.99-.42.23-.28.34-.68.34-1.19v-2.52c0-.88-.43-1.33-1.3-1.33h-4.85c-.12,0-.22-.04-.31-.12s-.12-.18-.12-.31.04-.22.12-.3.18-.12.31-.12h4.9c.68,0,1.2.2,1.59.58.38.39.57.92.57,1.6v2.52c0,.75-.2,1.35-.6,1.8s-.93.67-1.6.67h-4.81Z"/><path d="m98.49,64.93c-.92.57-1.72.86-2.39.86-.53,0-.94-.18-1.25-.54-.3-.36-.45-.88-.44-1.57v-6.03c0-.12.04-.22.13-.31.09-.09.19-.13.3-.13.12,0,.23.04.31.13.09.09.13.19.13.31v5.9c0,.89.3,1.34.91,1.34.46,0,1.09-.24,1.89-.71.54-.32,1.11-.73,1.72-1.22.61-.49,1.21-1.04,1.82-1.64.08-.08.17-.12.29-.12.13,0,.23.05.31.14.08.09.12.19.12.31,0,.14-.05.26-.16.35-.66.64-1.3,1.21-1.93,1.69-.63.49-1.21.9-1.75,1.24Z"/><path d="m107.58,61.82c-.11,0-.21-.04-.29-.12s-.12-.18-.12-.29c0-.12.04-.22.12-.3.08-.08.18-.12.29-.12h8.11c.11,0,.21.04.29.12.08.08.12.18.12.3,0,.11-.04.21-.12.29-.08.08-.18.12-.3.12h-8.11Z"/><path d="m124.78,66.41c-.07.03-.13.05-.18.05-.16,0-.29-.08-.38-.25-.03-.05-.04-.11-.04-.17,0-.18.08-.31.23-.39.76-.42,1.33-.89,1.71-1.43.38-.54.63-1.15.77-1.83s.21-1.45.23-2.29c0-.08-.04-.12-.12-.12h-2.87c-.08,0-.12.04-.12.12,0,.61.01,1.14.03,1.59.02.45.08.87.19,1.26,0,.03.01.06.01.12,0,.19-.09.32-.26.38-.03,0-.05.01-.08.02-.03,0-.05,0-.08,0-.21,0-.34-.09-.39-.27-.11-.36-.19-.8-.22-1.35-.03-.54-.06-1.12-.06-1.75,0-.08-.04-.12-.12-.12-.37,0-.73.01-1.07.02-.34,0-.65.01-.94.03-.12,0-.22-.03-.31-.12s-.12-.19-.12-.3.04-.21.12-.29c.08-.08.17-.12.27-.13.3,0,.63-.02.97-.02.34,0,.7,0,1.07,0,.08,0,.12-.04.12-.12,0-.13,0-.26,0-.39,0-.13,0-.26,0-.39,0-.44-.01-.87-.04-1.29,0-.12.03-.22.12-.3.09-.08.19-.12.3-.12.12,0,.22.04.3.12.08.08.12.18.13.29.03.78.04,1.46.04,2.05,0,.08.04.12.12.12h1.46c.49,0,.96,0,1.42-.01.08,0,.12-.04.12-.12v-1.72c0-.2,0-.4.01-.61,0-.11.04-.21.13-.29.09-.08.19-.12.3-.12s.21.04.29.12c.08.08.12.18.12.29,0,.4-.02.79-.02,1.18,0,.39,0,.77,0,1.14,0,.08.06.12.17.12.79,0,1.43-.01,1.94-.04.12,0,.22.03.3.11.08.08.12.18.12.31,0,.11-.04.21-.11.29-.07.08-.17.12-.28.13-.27,0-.58.02-.92.03-.35,0-.72.01-1.12.01-.08,0-.12.04-.12.12-.02.68-.07,1.32-.16,1.93-.09.61-.24,1.18-.46,1.71s-.53,1.02-.94,1.46c-.41.45-.95.85-1.61,1.2Zm5.43-8.05s-.08.04-.13.04c-.08,0-.15-.04-.22-.12-.14-.22-.3-.45-.49-.69-.19-.24-.37-.45-.54-.61-.06-.06-.09-.12-.09-.19,0-.08.03-.13.08-.17.05-.06.12-.09.2-.09s.13.03.17.08c.2.19.4.41.59.66.2.25.37.49.53.73.03.03.04.08.04.13,0,.1-.04.18-.13.23Zm.99-.57s-.08.04-.13.04c-.1,0-.17-.04-.22-.12-.14-.22-.3-.44-.48-.68-.18-.23-.36-.43-.53-.6-.05-.05-.08-.11-.08-.18s.03-.12.08-.16c.06-.06.13-.09.2-.09.08,0,.13.03.17.08.2.19.39.41.57.64.18.24.35.47.51.71.03.04.04.08.04.13,0,.09-.04.17-.12.22Z"/><path d="m135.4,61.82c-.11,0-.21-.04-.29-.12-.08-.08-.12-.18-.12-.29,0-.12.04-.22.12-.3.08-.08.18-.12.29-.12h8.11c.11,0,.21.04.29.12.08.08.12.18.12.3,0,.11-.04.21-.12.29-.08.08-.18.12-.3.12h-8.11Z"/><path d="m149.02,66.89c-.11,0-.21-.04-.29-.12-.08-.08-.12-.18-.12-.29v-9.58c0-.2.07-.37.21-.5.14-.13.3-.2.49-.2h8.11c.2,0,.37.07.5.2s.2.3.2.5v8.71c0,.83-.56,1.25-1.69,1.26-.11,0-.21-.04-.3-.13-.09-.09-.14-.19-.14-.31s.04-.22.13-.3.19-.12.3-.12c.35,0,.58-.01.7-.07.12-.05.18-.16.18-.34v-8.53c0-.05-.03-.08-.08-.08h-7.72c-.05,0-.08.03-.08.08v9.4c0,.11-.04.21-.12.29-.08.08-.17.12-.29.12Zm1.92-7.51c-.11,0-.21-.04-.29-.12s-.12-.17-.12-.29.04-.21.12-.29.17-.12.29-.12h4.84c.11,0,.21.04.29.12s.12.17.12.29-.04.21-.12.29-.17.12-.29.12h-4.84Zm.99,5.47c-.19,0-.36-.07-.49-.21-.14-.14-.21-.3-.21-.49v-2.74c0-.19.07-.36.21-.49.14-.14.3-.21.49-.21h2.86c.2,0,.37.07.5.21.13.14.2.3.2.49v2.74c0,.19-.07.36-.2.49-.13.14-.3.21-.5.21h-2.86Zm.18-.81h2.5c.05,0,.08-.03.08-.08v-2.39c0-.05-.03-.08-.08-.08h-2.5c-.05,0-.08.03-.08.08v2.39c0,.05.03.08.08.08Z"/><path d="m162.27,66.68s-.05.02-.08.03c-.03.01-.05.02-.08.02-.15,0-.25-.07-.31-.22,0-.03-.01-.05-.02-.08,0-.03,0-.06,0-.08,0-.17.07-.31.21-.4.3-.2.57-.41.81-.64.24-.23.45-.47.63-.71.09-.13.2-.2.35-.2.06,0,.12.02.18.05.13.09.2.19.2.32,0,.07-.02.13-.07.2-.49.7-1.09,1.27-1.82,1.72Zm-.04-7.24c-.1,0-.19-.03-.26-.1s-.1-.15-.1-.25.03-.18.1-.25.16-.1.26-.1h3.25c.09,0,.1-.02.04-.07-.04-.03-.08-.06-.1-.1-.04-.07-.09-.14-.14-.2-.05-.06-.1-.13-.15-.19-.06-.09-.09-.18-.09-.26,0-.12.05-.22.14-.3.07-.06.16-.09.29-.09.16,0,.28.05.36.16.06.07.12.14.17.21s.1.15.13.23c.04.06.05.13.05.21,0,.16-.05.27-.16.35,0,0-.02.02-.03.02-.01,0-.02.01-.03.02h.23s1.57.01,1.57.01c.03,0,.06-.01.09-.04.12-.15.25-.3.38-.47.13-.16.25-.33.36-.49.09-.14.22-.21.39-.21.14,0,.25.04.32.13s.11.19.11.3c0,.08-.02.15-.05.21-.05.08-.11.16-.16.24-.06.08-.12.16-.18.24-.04.06-.03.09.04.09h3.25c.09,0,.18.03.25.1.07.07.1.15.1.25,0,.1-.03.18-.1.25-.06.07-.15.1-.25.1h-10.09Zm.92-2.05c-.1,0-.18-.03-.25-.1s-.1-.16-.1-.26c0-.09.04-.18.1-.25.07-.07.15-.1.25-.1h3.64c.05,0,.08-.03.08-.08v-.44c0-.11.04-.21.12-.28.08-.07.17-.11.29-.11.12,0,.22.04.29.11s.11.17.11.28v.44c0,.05.03.08.08.08h3.64c.09,0,.18.04.25.1.07.07.1.15.1.25s-.03.18-.1.25c-.07.07-.15.11-.25.11h-8.24Zm1.18,6.4c-.19,0-.36-.07-.49-.21s-.21-.3-.21-.49v-2.28c0-.2.07-.37.21-.5.14-.13.3-.2.49-.2h5.88c.2,0,.37.07.5.2s.2.3.2.5v2.28c0,.19-.07.36-.2.49-.13.14-.3.21-.5.21h-5.88Zm.2-2.2h5.49c.05,0,.08-.03.08-.08v-.61c0-.05-.03-.08-.08-.08h-5.49c-.05,0-.08.03-.08.08v.61c0,.05.03.08.08.08Zm0,1.47h5.49c.05,0,.08-.03.08-.08v-.61c0-.05-.03-.08-.08-.08h-5.49c-.05,0-.08.03-.08.08v.61c0,.05.03.08.08.08Zm2.44,3.76c-.53,0-.95-.04-1.25-.14-.3-.09-.52-.25-.64-.47-.13-.23-.19-.53-.19-.91v-.82c0-.11.04-.21.12-.28.08-.07.17-.11.27-.11s.2.04.27.11c.08.07.12.17.12.28v.82c0,.24.05.42.14.54.09.12.29.19.57.22.29.03.71.04,1.27.04.41,0,.74,0,1-.03.26-.02.48-.06.67-.13.19-.07.37-.19.57-.35.09-.07.18-.1.27-.1.11,0,.21.04.29.12.07.09.1.18.1.27,0,.1-.04.19-.12.26-.53.45-1.12.68-1.77.68h-1.7Zm1.55-1.27c-.25-.14-.52-.27-.81-.4s-.57-.24-.84-.34c-.17-.05-.25-.16-.25-.34,0-.11.04-.2.11-.27.07-.07.15-.1.24-.1.03,0,.08,0,.13.03.3.1.6.21.9.34s.57.26.82.39c.15.07.22.18.22.34,0,.04,0,.07-.01.1s-.02.06-.04.1c-.03.06-.07.11-.12.14-.06.04-.11.05-.17.05s-.12-.01-.17-.04Zm3.68.68c-.25-.21-.54-.41-.86-.6-.32-.2-.65-.38-1-.54-.15-.07-.22-.18-.22-.34,0-.11.04-.2.12-.27.08-.07.17-.1.27-.1.04,0,.08,0,.13.03.29.13.6.29.94.48.34.19.67.39.99.61.14.09.21.22.21.39,0,.08-.02.16-.07.25-.07.11-.17.17-.3.17-.08,0-.15-.03-.22-.08Z"/><path d="m176.14,62.86c-.1,0-.19-.04-.26-.1s-.1-.16-.1-.26.04-.19.1-.26.16-.1.26-.1h4.56c.05,0,.08-.03.08-.08v-.52c0-.05-.03-.08-.08-.08h-3.55c-.09,0-.17-.04-.23-.1s-.1-.15-.1-.25.04-.17.1-.24c.07-.06.15-.1.23-.1h3.55c.05,0,.08-.03.08-.08v-.52c0-.05-.03-.08-.08-.08h-3.15c-.1,0-.18-.03-.25-.1-.07-.07-.11-.16-.11-.26,0-.09.04-.18.1-.25.07-.07.16-.1.26-.1h3.15c.05,0,.08-.03.08-.08v-.52c0-.05-.03-.08-.08-.08h-4.5c-.1,0-.19-.04-.26-.1-.07-.07-.1-.16-.1-.26s.03-.19.1-.26c.07-.07.16-.1.26-.1h4.5c.05,0,.08-.03.08-.08v-.53c0-.05-.03-.08-.08-.08h-3.15c-.1,0-.18-.04-.25-.1-.07-.07-.11-.15-.11-.25,0-.1.05-.19.12-.25.07-.07.15-.1.25-.1h3.15c.05,0,.08-.03.08-.08v-.31c0-.12.04-.22.12-.29.08-.07.17-.11.29-.11s.21.04.29.11.12.17.12.29v.31c0,.05.03.08.08.08h2.61c.2,0,.37.07.5.2.13.13.2.3.2.5v.61c0,.05.03.08.08.08h1.11c.1,0,.19.04.26.1s.1.16.1.26c0,.1-.03.18-.1.25-.07.07-.16.11-.26.11h-1.11c-.05,0-.08.03-.08.08v.61c0,.19-.07.36-.2.49s-.3.21-.5.21h-2.61c-.05,0-.08.03-.08.08v.52c0,.05.03.08.08.08h3.55c.1,0,.18.03.24.1s.1.15.1.24-.03.18-.1.25c-.06.07-.14.1-.24.1h-3.55c-.05,0-.08.03-.08.08v.52c0,.05.03.08.08.08h4.56c.1,0,.19.04.26.1.07.07.1.16.1.26,0,.1-.04.18-.1.25-.07.07-.16.11-.26.11h-10.09Zm2,3.9c-.19,0-.36-.07-.49-.21s-.21-.3-.21-.49v-1.91c0-.2.07-.37.21-.5s.3-.2.49-.2h6.08c.2,0,.37.07.5.21.13.14.2.3.2.49v1.91c0,.19-.07.36-.2.49-.13.14-.3.21-.5.21h-6.08Zm.17-1.98h5.75c.05,0,.08-.03.08-.08v-.52c0-.05-.03-.08-.08-.08h-5.75c-.05,0-.08.03-.08.08v.52c0,.05.03.08.08.08Zm0,1.33h5.75c.05,0,.08-.03.08-.08v-.53c0-.05-.03-.08-.08-.08h-5.75c-.05,0-.08.03-.08.08v.53c0,.05.03.08.08.08Zm3.35-8.14h2.46c.05,0,.08-.03.08-.08v-.53c0-.05-.03-.08-.08-.08h-2.46c-.05,0-.08.03-.08.08v.53c0,.05.03.08.08.08Zm0,1.4h2.46c.05,0,.08-.03.08-.08v-.52c0-.05-.03-.08-.08-.08h-2.46c-.05,0-.08.03-.08.08v.52c0,.05.03.08.08.08Z"/></g><g><line class="cls-4" x1="126.41" y1="97.8" x2="126.41" y2="112.82"/><path class="cls-3" d="m121.19,105.39c.25-.16.59-.09.75.17l4.47,7.02,4.47-7.02c.16-.25.5-.33.75-.17.25.16.33.5.17.75l-4.93,7.74c-.1.16-.27.25-.46.25s-.36-.1-.46-.25l-4.93-7.74c-.06-.09-.08-.19-.08-.29,0-.18.09-.36.25-.46Z"/></g><line class="cls-4" x1="119.91" y1="120.3" x2="132.91" y2="120.3"/><polygon class="cls-2" points="42.79 .8 .75 48.85 .75 .8 42.79 .8"/></g></g></svg>