<?xml version="1.0" encoding="UTF-8"?><svg id="_レイヤー_2" xmlns="http://www.w3.org/2000/svg" viewBox="0 0 252 133.05"><defs><style>.cls-1{fill:#fff;}.cls-2{fill:#ee958a;}.cls-3{fill:#333;}.cls-4{fill:none;stroke:#333;stroke-linecap:round;stroke-miterlimit:10;stroke-width:.75px;}</style></defs><g id="_レイヤー_1-2"><g><g><rect class="cls-1" x=".37" y=".38" width="251.25" height="132.3"/><path class="cls-3" d="m251.25.75v131.55H.75V.75h250.5m.75-.75H0v133.05h252V0h0Z"/></g><g><path d="m51.55,60.26c-.1,0-.2-.05-.27-.13-.08-.08-.12-.17-.12-.29,0-.12.04-.22.13-.31.09-.08.19-.12.32-.11.49.03,1,.04,1.51.04.41,0,.82,0,1.23-.02.41-.01.83-.02,1.24-.03.09,0,.12-.04.1-.12-.03-.42-.04-.87-.05-1.35s-.01-.96-.01-1.43c0-.33,0-.65,0-.96,0-.31.01-.59.02-.84,0-.08-.04-.12-.12-.12-.65.03-1.27.04-1.87.04-.19,0-.38,0-.56,0-.18,0-.36-.01-.52-.02-.1,0-.19-.05-.27-.13-.07-.08-.11-.17-.11-.29,0-.12.04-.22.14-.31.09-.08.2-.12.32-.11.2,0,.4.01.6.02.2,0,.4,0,.61,0,.79,0,1.59-.02,2.42-.06s1.6-.07,2.33-.07c.17,0,.34,0,.51,0,.16,0,.32.01.47.02.11,0,.21.05.29.14s.12.18.12.29-.04.21-.12.3c-.08.09-.18.13-.3.12-.12,0-.25-.01-.38-.01h-.42c-.33,0-.68,0-1.04.01-.36,0-.74.02-1.12.03-.08,0-.12.04-.12.12,0,.24-.01.52-.02.83,0,.31,0,.63,0,.96,0,.48,0,.96.01,1.45,0,.49.03.94.05,1.35.02.08.07.12.14.12.36-.02.71-.03,1.06-.04.35,0,.69-.01,1.02-.01.68,0,1.33.03,1.92.08.1,0,.19.05.26.14.07.08.1.17.1.28,0,.12-.04.22-.14.31-.09.08-.2.12-.32.11-.68-.05-1.36-.08-2.05-.08-.88,0-1.77.02-2.68.07-.91.04-1.82.06-2.73.06-.53,0-1.06-.01-1.6-.04Z"/><path d="m70.8,59.93c-.92.57-1.72.86-2.39.86-.53,0-.95-.18-1.25-.54-.3-.36-.45-.88-.44-1.57v-6.03c0-.12.04-.22.13-.31s.19-.13.3-.13c.12,0,.23.04.31.13s.13.19.13.31v5.9c0,.89.3,1.34.91,1.34.46,0,1.09-.24,1.88-.71.54-.32,1.11-.73,1.72-1.22.61-.49,1.21-1.04,1.82-1.64.08-.08.17-.12.29-.12.13,0,.23.05.31.14.08.09.12.19.12.31,0,.14-.05.26-.16.35-.66.64-1.3,1.21-1.93,1.69-.63.49-1.21.9-1.75,1.24Z"/><path d="m82.05,61.34c-.05.03-.11.04-.18.04-.18,0-.31-.08-.38-.25-.03-.05-.04-.11-.04-.18,0-.19.09-.33.26-.4.94-.46,1.74-.97,2.37-1.53s1.16-1.13,1.55-1.72c.4-.59.71-1.16.92-1.7.08-.2.14-.38.18-.54.04-.16.07-.3.07-.41,0-.42-.28-.62-.83-.62h-2.34c-.05,0-.1.03-.14.08-.37.62-.79,1.22-1.24,1.79-.46.57-.9,1.05-1.33,1.43-.07.06-.16.09-.26.09-.15,0-.26-.06-.35-.17-.06-.07-.09-.16-.09-.26,0-.16.05-.28.16-.36.38-.34.75-.73,1.11-1.16.36-.44.69-.89.99-1.36.31-.47.58-.93.82-1.38s.43-.87.57-1.24c.07-.18.2-.27.39-.27.14,0,.25.04.33.14.08.09.12.2.12.32v.08s0,.06-.03.08c-.08.19-.16.39-.25.59-.09.2-.19.41-.31.62,0,.02-.01.04-.01.06,0,.05.03.08.09.08h1.82c.62,0,1.05.14,1.31.41.26.27.38.61.38,1.02s-.11.86-.33,1.34c-1.08,2.4-2.86,4.2-5.32,5.39Z"/><path d="m96.88,61.36c-.12,0-.22-.04-.31-.13-.08-.09-.12-.19-.12-.3v-8.81c0-.12.04-.23.12-.31.08-.09.18-.13.31-.13s.23.04.31.13.13.19.13.31v3.04c0,.07.04.11.12.13.56.06,1.11.2,1.62.42.52.22,1.01.49,1.46.81.45.32.85.67,1.2,1.04.09.09.13.2.13.33s-.04.24-.13.34c-.06.08-.15.12-.27.12-.1,0-.19-.04-.27-.12-.56-.62-1.15-1.09-1.75-1.43s-1.26-.56-1.97-.68h-.03c-.07,0-.1.03-.1.1v4.71c0,.12-.04.22-.13.31-.09.08-.19.12-.31.12Z"/><path d="m111.7,60.54c-1.14,0-1.99-.14-2.55-.42-.57-.28-.94-.75-1.12-1.4-.08-.27-.15-.59-.21-.96-.06-.37-.11-.76-.14-1.17-.04-.41-.05-.8-.05-1.17,0-.5.12-.92.38-1.25.25-.33.57-.58.97-.74.39-.16.81-.25,1.25-.25h3.03c1.79,0,2.68.9,2.68,2.7,0,.09,0,.17,0,.26,0,.09-.01.18-.02.27-.02.16-.04.37-.08.64s-.09.55-.15.84-.13.56-.2.8c-.13.43-.32.78-.57,1.03-.25.25-.54.44-.88.55-.34.12-.71.19-1.11.22s-.81.05-1.22.05Zm.27-.83c.62,0,1.1-.04,1.45-.11.35-.07.62-.2.81-.37.19-.17.32-.4.41-.7.09-.29.17-.66.25-1.1.06-.31.1-.6.13-.86.03-.26.04-.5.04-.72,0-.66-.14-1.13-.43-1.41s-.74-.42-1.37-.42h-3.02c-.57.01-1.01.14-1.33.4-.31.26-.47.63-.47,1.11.02.77.07,1.41.15,1.91.08.5.15.84.21,1.03.06.19.14.36.23.52.1.16.25.29.46.4s.51.19.9.25c.39.06.92.08,1.57.08Z"/><path d="m121.26,59.62c-.06.05-.13.08-.22.08-.16,0-.28-.06-.36-.19-.04-.09-.07-.17-.07-.23,0-.16.07-.29.2-.39.29-.21.58-.45.87-.72.29-.27.58-.56.85-.85.27-.29.51-.58.71-.84.1-.12.21-.18.34-.18.09,0,.17.03.25.09.13.1.2.23.2.38,0,.1-.04.2-.1.29-.2.25-.45.54-.75.86-.3.32-.62.63-.95.94s-.65.57-.96.79Zm4.41,1.39c-.11,0-.21-.04-.3-.13s-.13-.19-.13-.3v-5.86c0-.08-.04-.12-.12-.12h-.97c-.48,0-.94,0-1.38-.01s-.85-.02-1.2-.03c-.11,0-.21-.06-.29-.14s-.12-.19-.12-.3c0-.12.06-.22.14-.3.09-.08.19-.11.3-.1.5.02,1.06.03,1.66.04.61,0,1.23.01,1.86.01.08,0,.12-.04.12-.12v-1.68c0-.12.04-.22.13-.31.09-.08.19-.12.3-.12.12,0,.23.04.31.12.09.08.13.18.13.31v1.66c0,.08.04.12.12.12.67,0,1.3-.02,1.91-.03.61-.01,1.14-.04,1.6-.07.13,0,.24.03.33.11.09.08.14.18.14.3,0,.11-.04.21-.11.29s-.17.13-.28.14c-.42.03-.94.05-1.57.06-.63.02-1.3.03-2.01.04-.08,0-.12.04-.12.12v5.86c0,.12-.04.22-.13.31-.09.08-.19.12-.31.12Zm4.67-1.42c-.08.08-.17.12-.29.12-.13,0-.23-.05-.31-.14l-2.35-2.53c-.08-.08-.12-.18-.12-.3,0-.11.05-.22.14-.31.07-.07.17-.1.29-.1.13,0,.23.04.31.13l2.35,2.54c.08.08.12.18.12.3,0,.11-.05.22-.14.31Zm-1.07-6.42c-.36,0-.66-.13-.92-.38s-.38-.56-.38-.92.13-.67.38-.92c.26-.25.56-.38.92-.38s.66.13.92.38c.26.25.38.56.38.92s-.13.66-.38.92c-.25.26-.56.38-.92.38Zm0-.36c.26,0,.48-.09.66-.28.18-.19.27-.41.27-.66s-.09-.47-.27-.66c-.18-.19-.4-.28-.66-.28s-.48.09-.66.28c-.18.19-.27.41-.27.66s.09.47.27.66.4.28.66.28Z"/><path d="m140.35,59.93c-.92.57-1.72.86-2.39.86-.53,0-.95-.18-1.25-.54-.3-.36-.45-.88-.44-1.57v-6.03c0-.12.04-.22.13-.31s.19-.13.3-.13c.12,0,.23.04.31.13s.13.19.13.31v5.9c0,.89.3,1.34.91,1.34.46,0,1.09-.24,1.88-.71.54-.32,1.11-.73,1.72-1.22.61-.49,1.21-1.04,1.82-1.64.08-.08.17-.12.29-.12.13,0,.23.05.31.14.08.09.12.19.12.31,0,.14-.05.26-.16.35-.66.64-1.3,1.21-1.93,1.69-.63.49-1.21.9-1.75,1.24Z"/><path d="m149.44,56.82c-.11,0-.21-.04-.29-.12-.08-.08-.12-.18-.12-.29,0-.12.04-.22.12-.3.08-.08.18-.12.29-.12h8.11c.11,0,.21.04.29.12.08.08.12.18.12.3,0,.11-.04.21-.12.29-.08.08-.18.12-.3.12h-8.11Z"/><path d="m165.36,57.01c-.29-.13-.63-.24-1.01-.32-.38-.08-.73-.13-1.05-.15-.11,0-.21-.05-.29-.12-.08-.07-.12-.16-.12-.27,0-.13.04-.24.13-.33.09-.09.19-.13.3-.13.35.02.75.07,1.18.16.43.09.82.21,1.18.38.17.07.25.2.25.39,0,.13-.04.23-.12.31s-.17.12-.29.12c-.04,0-.1-.01-.17-.04Zm.77-2.81c-.63-.41-1.34-.66-2.13-.77-.11-.02-.2-.06-.26-.14s-.09-.16-.09-.25c0-.13.05-.24.15-.33.1-.09.21-.12.32-.1.41.04.82.14,1.24.28s.8.33,1.14.55c.14.09.21.22.21.39,0,.09-.02.17-.05.23-.07.12-.18.18-.33.18-.07,0-.13-.02-.19-.05Zm-1.85,6.98s-.06.01-.12.01c-.12,0-.23-.04-.33-.13-.1-.09-.14-.2-.14-.34,0-.22.11-.35.33-.42.55-.16,1.15-.38,1.78-.68.63-.29,1.27-.66,1.9-1.08.63-.43,1.23-.92,1.8-1.46s1.06-1.15,1.49-1.81c.08-.12.2-.18.35-.18.09,0,.17.03.23.08.14.09.21.22.21.4,0,.1-.03.2-.08.27-.35.54-.79,1.08-1.33,1.62-.54.55-1.14,1.07-1.8,1.56s-1.36.93-2.09,1.3c-.73.37-1.47.65-2.2.84Z"/><path d="m183.79,61.01c-.11,0-.21-.04-.29-.12s-.12-.17-.12-.29c0-.04-.04-.06-.12-.06h-4.59c-.11,0-.21-.04-.29-.12s-.12-.17-.12-.29c0-.1.04-.2.12-.27.08-.08.17-.12.29-.12h4.59c.08,0,.12-.04.12-.12v-1.31c0-.06-.03-.1-.09-.13-.15-.07-.31-.11-.48-.14-.17-.02-.37-.03-.58-.03-.12,0-.32-.01-.59-.01h-1.86c-.32,0-.59,0-.81.01-.11,0-.2-.04-.27-.11-.07-.07-.1-.16-.1-.27s.04-.19.11-.27.16-.11.25-.11h3.29c.18,0,.36.02.53.03.17.01.33.04.49.08h.03c.07,0,.1-.03.1-.1v-.83c0-.3-.02-.52-.07-.66-.04-.14-.13-.23-.27-.27-.13-.04-.34-.05-.62-.03-.25,0-.53.02-.84.03-.31,0-.64.01-.98.01s-.66,0-1-.01-.66-.02-.96-.03c-.1,0-.19-.04-.27-.12-.07-.08-.11-.18-.11-.28,0-.11.05-.21.13-.28.08-.07.17-.11.29-.1.59.03,1.17.04,1.74.04.75,0,1.4-.01,1.98-.04.06,0,.12-.01.17-.01h.14c.54,0,.91.13,1.13.4.22.26.33.72.33,1.36v4.16c0,.11-.04.21-.12.29s-.17.12-.27.12Z"/><path d="m194.28,55.39c-.09.09-.19.13-.3.13s-.23-.05-.34-.14c-.29-.27-.64-.49-1.03-.68-.39-.18-.82-.31-1.28-.38-.11-.02-.21-.07-.28-.15-.07-.08-.11-.18-.11-.29,0-.15.05-.27.16-.36.1-.09.22-.13.34-.11.56.08,1.1.24,1.6.49.5.25.91.52,1.23.79.1.09.14.2.14.34s-.04.26-.13.35Zm-2.85,5.4c-.11.03-.22,0-.33-.08-.1-.08-.16-.19-.16-.33,0-.11.04-.21.11-.31.07-.09.17-.15.28-.18.59-.14,1.22-.35,1.9-.62.68-.28,1.36-.63,2.07-1.05s1.39-.93,2.05-1.51c.67-.58,1.28-1.25,1.83-2,.1-.12.22-.18.36-.18.09,0,.17.03.26.09.12.1.18.23.18.39,0,.1-.03.2-.09.29-.47.62-1.02,1.23-1.66,1.81-.64.58-1.33,1.12-2.07,1.62-.74.49-1.51.92-2.32,1.27-.81.36-1.62.62-2.43.79Z"/><path d="m88.1,80.02c-.72.2-1.41.36-2.07.47-.66.12-1.29.18-1.91.18-.84,0-1.64-.13-2.39-.38-.75-.25-1.46-.68-2.14-1.27-.1-.08-.14-.19-.14-.33,0-.12.04-.22.12-.31.08-.1.19-.14.33-.14.11,0,.21.04.3.12.52.43,1.1.78,1.74,1.05.64.26,1.39.4,2.25.4.52,0,1.09-.05,1.71-.16.62-.11,1.3-.28,2.05-.5.03,0,.06-.01.1-.01.12,0,.22.04.3.12.08.08.12.18.12.3,0,.11-.03.21-.1.31-.07.09-.15.15-.27.17Zm-1.33-6.08c-.46.06-.94.11-1.43.14s-.99.05-1.48.05c-.99,0-1.92-.07-2.81-.2-.1-.02-.19-.07-.25-.15-.06-.08-.1-.17-.1-.27,0-.13.05-.24.14-.33.1-.09.21-.12.34-.1.32.04.7.08,1.15.12s.95.06,1.51.06c.42,0,.88-.01,1.36-.05.48-.03.99-.08,1.53-.14.12-.02.23.01.31.09.09.08.13.18.13.3,0,.11-.04.21-.11.31-.07.09-.17.15-.29.16Zm1.59-.61s-.07.03-.1.03c-.11,0-.18-.05-.21-.16-.21-.55-.52-1.01-.94-1.38-.05-.05-.08-.11-.08-.18s.02-.12.05-.17c.06-.06.13-.09.21-.09.06,0,.11.02.16.06.23.22.42.45.6.7.17.25.33.53.46.84.02.05.03.09.03.12,0,.11-.06.19-.17.23Zm1.08-.48s-.05.01-.09.01c-.1,0-.18-.05-.22-.16-.22-.55-.54-1.03-.96-1.43-.04-.04-.07-.1-.07-.17s.02-.12.05-.16c.05-.05.12-.08.2-.08.04,0,.1.02.16.06.25.24.46.48.62.72s.31.52.45.85c0,.02.02.04.02.05,0,.02,0,.04,0,.05,0,.1-.05.17-.16.23Z"/><path d="m92.84,73.65c-.11,0-.21-.04-.28-.11-.07-.07-.11-.17-.11-.28s.04-.21.11-.28c.07-.07.17-.11.28-.11h3.38c.11,0,.21.04.28.11s.11.17.11.28c0,.1-.04.2-.11.27-.07.08-.17.12-.28.12h-3.38Zm.34-1.68c-.11,0-.21-.04-.28-.12-.07-.08-.11-.17-.11-.27,0-.11.04-.21.12-.28.08-.07.17-.11.27-.11h2.69c.11,0,.21.04.28.11s.11.17.11.28-.04.21-.11.28-.17.11-.28.11h-2.69Zm.06,3.35c-.11,0-.21-.04-.29-.11-.08-.07-.12-.17-.12-.28s.04-.21.12-.29.17-.12.29-.12h2.57c.11,0,.21.04.28.12.07.08.11.17.11.29s-.04.21-.12.28c-.08.07-.17.11-.27.11h-2.57Zm0,1.68c-.11,0-.21-.04-.29-.12-.08-.08-.12-.17-.12-.27,0-.12.04-.22.12-.29.08-.07.17-.11.29-.11h2.57c.11,0,.21.04.28.12.07.08.11.17.11.29,0,.1-.04.19-.11.27-.07.08-.17.12-.28.12h-2.57Zm.33,4.77c-.2,0-.37-.07-.5-.21-.13-.14-.2-.3-.2-.49v-2.48c0-.2.07-.37.21-.5.14-.13.3-.2.49-.2h1.96c.2,0,.37.07.5.21.13.14.2.3.2.49v2.48c0,.19-.07.35-.2.49-.13.14-.3.21-.5.21h-1.96Zm.13-.7h1.7c.05,0,.08-.03.08-.08v-2.31c0-.05-.03-.08-.08-.08h-1.7c-.05,0-.08.03-.08.08v2.31c0,.05.03.08.08.08Zm3.17.73s-.08.04-.13.04c-.09,0-.17-.04-.24-.11-.07-.07-.11-.16-.11-.27,0-.19.09-.33.26-.43.64-.36,1.14-.89,1.5-1.58.36-.69.57-1.52.65-2.49,0-.05-.03-.08-.08-.08h-.77c-.19,0-.36-.07-.49-.21-.14-.14-.21-.3-.21-.49v-2.34c0-.2.07-.37.21-.5.14-.13.3-.2.49-.2h2.05s.06-.01.09-.04c.54-.56.95-1.27,1.25-2.12.03-.09.07-.15.14-.2s.14-.07.22-.07c.12,0,.22.04.29.12s.1.16.1.26c0,.05,0,.09-.01.12-.09.31-.21.63-.38.95-.17.32-.35.62-.55.9-.04.06-.03.09.05.09h.81c.2,0,.37.07.5.2s.2.3.2.5v2.34c0,.19-.07.36-.21.49s-.3.21-.49.21h-.95c-.05,0-.08.03-.08.08v3.55c0,.24.08.4.23.46.15.06.34.1.55.1.2,0,.37-.03.52-.1.15-.07.29-.18.43-.33.08-.08.17-.12.27-.12.1,0,.17.03.23.09.09.09.13.19.13.31s-.04.22-.12.3c-.2.22-.41.37-.63.45-.22.08-.51.12-.86.12-1.02,0-1.53-.39-1.53-1.17v-3.67c0-.05-.03-.08-.08-.08h-.47c-.05,0-.08.03-.08.08-.09,1.16-.36,2.16-.83,3-.46.84-1.09,1.45-1.89,1.83Zm2.14-9.06c-.17,0-.29-.07-.36-.22-.21-.37-.45-.73-.71-1.07-.06-.06-.09-.14-.09-.23,0-.13.05-.23.16-.31.08-.05.16-.08.25-.08.16,0,.27.06.35.17.12.17.25.37.39.59.14.22.26.44.36.64.03.05.04.1.04.16,0,.09-.04.17-.1.24-.07.07-.16.11-.27.11Zm-.88,3.38h3.69c.05,0,.08-.03.08-.08v-2.05c0-.05-.03-.08-.08-.08h-3.69c-.05,0-.08.03-.08.08v2.05c0,.05.03.08.08.08Z"/><path d="m107.38,79.22c-.19,0-.36-.07-.49-.21s-.21-.3-.21-.49v-6.08c0-.2.07-.37.21-.5s.3-.2.49-.2h2.55c.2,0,.37.07.5.21.13.14.2.3.2.49v6.08c0,.19-.07.36-.2.49-.13.14-.3.21-.5.21h-2.55Zm.18-4.41h2.21c.05,0,.08-.03.08-.08v-2.13c0-.05-.03-.08-.08-.08h-2.21c-.05,0-.08.03-.08.08v2.13c0,.05.03.08.08.08Zm0,3.63h2.21c.05,0,.08-.03.08-.08v-2.69c0-.05-.03-.08-.08-.08h-2.21c-.05,0-.08.03-.08.08v2.69c0,.05.03.08.08.08Zm7.15,3.46c-.11,0-.21-.05-.29-.13-.08-.08-.12-.17-.12-.29,0-.12.04-.22.12-.31s.18-.12.29-.12c.43,0,.71-.02.83-.08.12-.06.18-.21.18-.46v-2.96c0-.05-.03-.08-.08-.08h-3s-.07.03-.09.08c-.06.6-.17,1.15-.33,1.64-.16.5-.4.96-.71,1.38-.31.42-.73.83-1.25,1.21-.06.05-.14.08-.23.08-.17,0-.3-.07-.38-.22-.04-.09-.06-.17-.06-.25,0-.18.07-.33.22-.43.49-.37.88-.76,1.16-1.16s.48-.85.6-1.35c.12-.49.2-1.07.23-1.72.03-.65.05-1.42.05-2.31v-2.72c0-.19.07-.36.21-.49.14-.14.3-.2.49-.19h3.28c.2-.01.37.06.5.19.13.14.2.3.2.49v8.8c0,.5-.14.86-.43,1.07-.29.21-.75.31-1.39.31Zm-2.02-5.23h2.95c.05,0,.08-.03.08-.08v-1.86c0-.05-.03-.08-.08-.08h-2.91c-.05,0-.08.03-.08.09,0,.33,0,.65,0,.96,0,.31-.02.6-.03.89,0,.05.03.08.08.08Zm.04-2.82h2.91c.05,0,.08-.03.08-.08v-1.87c0-.05-.03-.08-.08-.08h-2.91c-.05,0-.08.03-.08.08v1.87c0,.05.03.08.08.08Z"/><path d="m125.68,77.29c-.29,0-.53-.1-.72-.3s-.29-.44-.29-.72.1-.51.29-.71c.2-.2.44-.3.72-.3s.52.1.71.29c.2.19.3.44.3.72s-.1.53-.3.72c-.2.2-.44.29-.71.29Z"/><path d="m135.24,81.89c-.11,0-.21-.04-.29-.12-.08-.08-.12-.18-.12-.29v-9.58c0-.2.07-.37.21-.5.14-.13.3-.2.49-.2h8.11c.2,0,.37.07.5.2s.2.3.2.5v8.71c0,.83-.56,1.25-1.69,1.26-.11,0-.21-.04-.3-.13-.09-.09-.14-.19-.14-.31s.04-.22.13-.3.19-.12.3-.12c.35,0,.58-.01.7-.07.12-.05.18-.16.18-.34v-8.53c0-.05-.03-.08-.08-.08h-7.72c-.05,0-.08.03-.08.08v9.4c0,.11-.04.21-.12.29-.08.08-.17.12-.29.12Zm1.92-7.51c-.11,0-.21-.04-.29-.12s-.12-.17-.12-.29.04-.21.12-.29.17-.12.29-.12h4.84c.11,0,.21.04.29.12s.12.17.12.29-.04.21-.12.29-.17.12-.29.12h-4.84Zm.99,5.47c-.19,0-.36-.07-.49-.21-.14-.14-.21-.3-.21-.49v-2.74c0-.19.07-.36.21-.49.14-.14.3-.21.49-.21h2.86c.2,0,.37.07.5.21.13.14.2.3.2.49v2.74c0,.19-.07.36-.2.49-.13.14-.3.21-.5.21h-2.86Zm.18-.81h2.5c.05,0,.08-.03.08-.08v-2.39c0-.05-.03-.08-.08-.08h-2.5c-.05,0-.08.03-.08.08v2.39c0,.05.03.08.08.08Z"/><path d="m148.49,81.68s-.05.02-.08.03c-.03.01-.05.02-.08.02-.15,0-.25-.07-.31-.22,0-.03-.02-.05-.02-.08,0-.03,0-.06,0-.08,0-.17.07-.31.21-.4.3-.2.57-.41.81-.64.24-.23.45-.47.63-.71.09-.13.2-.2.35-.2.06,0,.12.02.18.05.13.09.19.19.19.32,0,.07-.02.13-.06.2-.49.7-1.09,1.27-1.82,1.72Zm-.04-7.24c-.1,0-.19-.03-.26-.1s-.1-.15-.1-.25.04-.18.1-.25.16-.1.26-.1h3.25c.09,0,.1-.02.04-.07-.04-.03-.08-.06-.1-.1-.04-.07-.09-.14-.14-.2-.05-.06-.1-.13-.15-.19-.06-.09-.09-.18-.09-.26,0-.12.05-.22.14-.3.07-.06.16-.09.29-.09.16,0,.28.05.36.16.06.07.12.14.17.21.05.07.09.15.13.23.03.06.05.13.05.21,0,.16-.05.27-.16.35,0,0-.02.02-.03.02-.01,0-.02.01-.03.02h.23s1.57.01,1.57.01c.03,0,.07-.01.09-.04.12-.15.25-.3.38-.47.13-.16.25-.33.36-.49.1-.14.23-.21.39-.21.14,0,.25.04.32.13.07.09.11.19.11.3,0,.08-.02.15-.05.21-.05.08-.11.16-.16.24-.06.08-.12.16-.18.24-.04.06-.03.09.04.09h3.25c.1,0,.18.03.25.1.07.07.1.15.1.25,0,.1-.03.18-.1.25-.07.07-.15.1-.25.1h-10.09Zm.92-2.05c-.09,0-.18-.03-.25-.1s-.1-.16-.1-.26c0-.09.03-.18.1-.25.07-.07.15-.1.25-.1h3.64c.05,0,.08-.03.08-.08v-.44c0-.11.04-.21.12-.28.08-.07.17-.11.29-.11.12,0,.22.04.29.11.07.07.11.17.11.28v.44c0,.05.03.08.08.08h3.64c.1,0,.18.04.25.1.07.07.1.15.1.25s-.04.18-.1.25c-.07.07-.15.11-.25.11h-8.24Zm1.18,6.4c-.19,0-.36-.07-.49-.21s-.21-.3-.21-.49v-2.28c0-.2.07-.37.21-.5.14-.13.3-.2.49-.2h5.88c.2,0,.37.07.5.2.13.13.2.3.2.5v2.28c0,.19-.07.36-.2.49-.13.14-.3.21-.5.21h-5.88Zm.19-2.2h5.49c.05,0,.08-.03.08-.08v-.61c0-.05-.03-.08-.08-.08h-5.49c-.05,0-.08.03-.08.08v.61c0,.05.03.08.08.08Zm0,1.47h5.49c.05,0,.08-.03.08-.08v-.61c0-.05-.03-.08-.08-.08h-5.49c-.05,0-.08.03-.08.08v.61c0,.05.03.08.08.08Zm2.44,3.76c-.53,0-.94-.04-1.25-.14-.3-.09-.52-.25-.64-.47-.13-.23-.19-.53-.19-.91v-.82c0-.11.04-.21.12-.28s.17-.11.27-.11.19.04.27.11.12.17.12.28v.82c0,.24.05.42.14.54.1.12.29.19.57.22s.71.04,1.27.04c.41,0,.74,0,1-.03.26-.02.48-.06.67-.13.19-.07.38-.19.57-.35.09-.07.18-.1.27-.1.11,0,.21.04.29.12.07.09.1.18.1.27,0,.1-.04.19-.12.26-.53.45-1.12.68-1.77.68h-1.7Zm1.55-1.27c-.25-.14-.52-.27-.81-.4s-.57-.24-.84-.34c-.17-.05-.25-.16-.25-.34,0-.11.04-.2.11-.27.07-.07.15-.1.24-.1.03,0,.08,0,.13.03.3.1.6.21.9.34.29.13.57.26.82.39.15.07.22.18.22.34,0,.04,0,.07-.01.1s-.02.06-.04.1c-.03.06-.07.11-.12.14-.06.04-.12.05-.18.05s-.12-.01-.17-.04Zm3.68.68c-.25-.21-.54-.41-.86-.6-.32-.2-.65-.38-1-.54-.15-.07-.22-.18-.22-.34,0-.11.04-.2.12-.27.08-.07.17-.1.27-.1.03,0,.08,0,.13.03.29.13.6.29.94.48s.67.39,1,.61c.14.09.21.22.21.39,0,.08-.02.16-.07.25-.07.11-.17.17-.3.17-.08,0-.15-.03-.22-.08Z"/><path d="m162.36,77.86c-.1,0-.19-.04-.26-.1s-.1-.16-.1-.26.04-.19.1-.26.16-.1.26-.1h4.56c.05,0,.08-.03.08-.08v-.52c0-.05-.03-.08-.08-.08h-3.55c-.09,0-.17-.04-.23-.1s-.1-.15-.1-.25.04-.17.1-.24c.07-.06.15-.1.23-.1h3.55c.05,0,.08-.03.08-.08v-.52c0-.05-.03-.08-.08-.08h-3.15c-.1,0-.18-.03-.25-.1-.07-.07-.11-.16-.11-.26,0-.09.04-.18.1-.25.07-.07.16-.1.26-.1h3.15c.05,0,.08-.03.08-.08v-.52c0-.05-.03-.08-.08-.08h-4.5c-.1,0-.19-.04-.26-.1-.07-.07-.1-.16-.1-.26s.03-.19.1-.26c.07-.07.16-.1.26-.1h4.5c.05,0,.08-.03.08-.08v-.53c0-.05-.03-.08-.08-.08h-3.15c-.1,0-.18-.04-.25-.1-.07-.07-.11-.15-.11-.25,0-.1.05-.19.12-.25.07-.07.15-.1.25-.1h3.15c.05,0,.08-.03.08-.08v-.31c0-.12.04-.22.12-.29.08-.07.17-.11.29-.11s.21.04.29.11.12.17.12.29v.31c0,.05.03.08.08.08h2.61c.2,0,.37.07.5.2.13.13.2.3.2.5v.61c0,.05.03.08.08.08h1.11c.1,0,.19.04.26.1s.1.16.1.26c0,.1-.03.18-.1.25-.07.07-.16.11-.26.11h-1.11c-.05,0-.08.03-.08.08v.61c0,.19-.07.36-.2.49s-.3.21-.5.21h-2.61c-.05,0-.08.03-.08.08v.52c0,.05.03.08.08.08h3.55c.1,0,.18.03.24.1s.1.15.1.24-.03.18-.1.25c-.06.07-.14.1-.24.1h-3.55c-.05,0-.08.03-.08.08v.52c0,.05.03.08.08.08h4.56c.1,0,.19.04.26.1.07.07.1.16.1.26,0,.1-.04.18-.1.25-.07.07-.16.11-.26.11h-10.09Zm2,3.9c-.19,0-.36-.07-.49-.21s-.21-.3-.21-.49v-1.91c0-.2.07-.37.21-.5s.3-.2.49-.2h6.08c.2,0,.37.07.5.21.13.14.2.3.2.49v1.91c0,.19-.07.36-.2.49-.13.14-.3.21-.5.21h-6.08Zm.17-1.98h5.75c.05,0,.08-.03.08-.08v-.52c0-.05-.03-.08-.08-.08h-5.75c-.05,0-.08.03-.08.08v.52c0,.05.03.08.08.08Zm0,1.33h5.75c.05,0,.08-.03.08-.08v-.53c0-.05-.03-.08-.08-.08h-5.75c-.05,0-.08.03-.08.08v.53c0,.05.03.08.08.08Zm3.35-8.14h2.46c.05,0,.08-.03.08-.08v-.53c0-.05-.03-.08-.08-.08h-2.46c-.05,0-.08.03-.08.08v.53c0,.05.03.08.08.08Zm0,1.4h2.46c.05,0,.08-.03.08-.08v-.52c0-.05-.03-.08-.08-.08h-2.46c-.05,0-.08.03-.08.08v.52c0,.05.03.08.08.08Z"/></g><g><line class="cls-4" x1="125.59" y1="97.8" x2="125.59" y2="112.82"/><path class="cls-3" d="m120.37,105.39c.25-.16.59-.09.75.17l4.47,7.02,4.47-7.02c.16-.25.5-.33.75-.17.25.16.33.5.17.75l-4.93,7.74c-.1.16-.27.25-.46.25s-.36-.1-.46-.25l-4.93-7.74c-.06-.09-.08-.19-.08-.29,0-.18.09-.36.25-.46Z"/></g><polygon class="cls-2" points="42.79 .75 .75 48.8 .75 .75 42.79 .75"/><line class="cls-4" x1="118.69" y1="120.08" x2="131.69" y2="120.08"/></g></g></svg>