<?xml version="1.0" encoding="UTF-8"?><svg id="_レイヤー_2" xmlns="http://www.w3.org/2000/svg" viewBox="0 0 252 133.05"><defs><style>.cls-1{fill:#fff;}.cls-2{fill:#ee958a;}.cls-3{fill:#333;}.cls-4{fill:none;stroke:#333;stroke-linecap:round;stroke-miterlimit:10;stroke-width:.75px;}</style></defs><g id="_レイヤー_1-2"><g><g><rect class="cls-1" x=".37" y=".37" width="251.25" height="132.3"/><path class="cls-3" d="m251.25.75v131.55H.75V.75h250.5m.75-.75H0v133.05h252V0h0Z"/></g><g><path d="m72.65,59.67c-.07.06-.16.09-.26.09-.15,0-.26-.06-.34-.17-.06-.07-.09-.16-.09-.26,0-.14.06-.26.17-.36.61-.51,1.09-1.02,1.45-1.53.36-.51.64-1.01.85-1.5.21-.49.38-.96.51-1.4.07-.2.21-.3.42-.3.06,0,.1,0,.13.01.22.07.33.21.33.42,0,.02,0,.04,0,.06,0,.02-.01.04-.02.07-.17.6-.39,1.17-.64,1.72s-.58,1.08-.98,1.6c-.4.52-.9,1.04-1.51,1.56Zm8.96.14c-.23,0-.37-.12-.42-.36-.1-.59-.27-1.12-.52-1.59-.25-.47-.54-.91-.87-1.3s-.65-.76-.97-1.1c-.32-.34-.6-.66-.85-.98-.05-.07-.08-.14-.08-.22,0-.16.07-.28.2-.36.07-.04.15-.06.25-.06.15,0,.27.06.38.19.23.29.51.61.84.95.32.34.65.71.99,1.13.33.42.64.89.91,1.41.27.52.47,1.12.58,1.77.02.14-.02.26-.1.36-.08.1-.2.16-.34.16Z"/><path d="m91.43,61.42c-.11,0-.21-.06-.29-.15-.08-.09-.12-.19-.11-.31.07-.77.13-1.48.18-2.12.05-.65.08-1.22.08-1.72,0-.55-.04-1.01-.12-1.38-.03-.1-.08-.12-.16-.04-.45.42-.95.82-1.5,1.21-.55.39-1.16.77-1.83,1.11-.05.03-.11.04-.18.04-.18,0-.31-.08-.38-.25-.03-.07-.04-.13-.04-.2,0-.19.09-.33.26-.43,2.65-1.43,4.49-3.24,5.53-5.43.08-.17.21-.26.4-.26.06,0,.12.01.17.04.18.09.27.22.27.4,0,.07-.01.13-.04.18-.2.42-.45.87-.75,1.33-.3.46-.66.92-1.07,1.38-.04.05-.05.11-.03.17.09.27.16.59.21.96.04.37.06.8.06,1.28s-.02,1.05-.05,1.68c-.04.62-.08,1.32-.14,2.08,0,.12-.06.22-.16.31-.1.08-.2.12-.33.12Z"/><path d="m103.83,61.36c-.12,0-.22-.04-.3-.13-.08-.09-.12-.19-.12-.3v-8.81c0-.12.04-.23.12-.31.08-.09.18-.13.3-.13s.23.04.31.13c.09.09.13.19.13.31v3.04c0,.07.04.11.12.13.55.05,1.09.19,1.61.42.52.23,1.01.5,1.46.82.46.32.86.67,1.2,1.04.09.09.13.2.13.33s-.04.24-.13.34c-.06.08-.15.12-.27.12-.1,0-.2-.04-.27-.12-.56-.62-1.15-1.09-1.75-1.43s-1.26-.56-1.97-.68h-.03c-.07,0-.1.03-.1.1v4.71c0,.12-.04.22-.13.31-.09.08-.19.12-.31.12Zm4.59-6.82s-.08.04-.13.04c-.09,0-.17-.04-.22-.13-.14-.22-.3-.44-.49-.68s-.37-.44-.55-.62c-.06-.06-.09-.12-.09-.19s.03-.12.08-.16c.05-.06.12-.09.19-.09.07,0,.13.03.18.08.2.19.39.41.58.66s.36.49.52.73c.03.03.04.08.04.14,0,.1-.04.17-.12.22Zm.98-.57s-.08.04-.13.04c-.1,0-.17-.04-.22-.12-.14-.22-.3-.44-.48-.68-.18-.23-.36-.43-.53-.6-.04-.06-.06-.12-.06-.18,0-.07.02-.12.06-.17.05-.05.12-.08.2-.08.07,0,.13.03.18.08.19.19.38.4.56.64.18.23.35.47.51.7.03.04.04.08.04.14,0,.09-.04.17-.12.22Z"/><path d="m116.94,61.28c-.12.03-.23,0-.33-.08-.1-.08-.15-.19-.15-.33,0-.1.03-.18.1-.27.07-.08.15-.14.25-.16.88-.19,1.62-.47,2.24-.84.62-.37,1.13-.79,1.53-1.25s.73-.94.96-1.42c.1-.21.17-.39.23-.55s.09-.29.09-.4c0-.17-.07-.29-.22-.36-.15-.06-.4-.1-.75-.1s-.8.03-1.37.08-1.18.1-1.85.16c-.67.05-1.34.08-2.02.08-.09,0-.17,0-.26,0-.09,0-.18,0-.27,0-.11,0-.21-.05-.29-.14s-.12-.18-.12-.29c0-.12.04-.22.13-.31.09-.09.19-.13.33-.12.17,0,.35.02.52.02.17,0,.34,0,.51,0,1,0,1.91-.04,2.74-.13.83-.09,1.54-.13,2.12-.13.62,0,1.06.1,1.31.29.25.2.38.46.38.79,0,.22-.04.46-.13.71-.09.26-.2.53-.34.82-.27.55-.63,1.09-1.08,1.62-.46.52-1.03.99-1.72,1.4-.69.41-1.54.72-2.54.92Zm-1.01-8.22c-.11,0-.21-.04-.3-.12-.09-.08-.13-.18-.13-.29,0-.12.04-.22.12-.3.08-.08.18-.12.31-.12h5.51c.12,0,.22.04.31.12.08.08.12.18.12.3,0,.11-.04.21-.12.29-.08.08-.18.12-.31.12h-5.51Z"/><path d="m130.59,57.01c-.29-.13-.63-.24-1.01-.32-.38-.08-.73-.13-1.05-.15-.11,0-.21-.05-.29-.12-.08-.07-.12-.16-.12-.27,0-.13.04-.24.13-.33s.19-.13.3-.13c.36.02.75.07,1.18.16.43.09.82.21,1.18.38.16.07.25.2.25.39,0,.13-.04.23-.12.31s-.17.12-.29.12c-.04,0-.1-.01-.17-.04Zm.77-2.81c-.63-.41-1.34-.66-2.13-.77-.11-.02-.2-.06-.26-.14s-.09-.16-.09-.25c0-.13.05-.24.15-.33.1-.09.21-.12.32-.1.41.04.82.14,1.23.28s.8.33,1.14.55c.14.09.21.22.21.39,0,.09-.02.17-.05.23-.07.12-.18.18-.33.18-.07,0-.13-.02-.2-.05Zm-1.85,6.98s-.07.01-.12.01c-.12,0-.23-.04-.33-.13-.09-.09-.14-.2-.14-.34,0-.22.11-.35.33-.42.55-.16,1.15-.38,1.78-.68.63-.29,1.27-.66,1.9-1.08.63-.43,1.23-.92,1.8-1.46.57-.55,1.06-1.15,1.49-1.81.08-.12.2-.18.35-.18.1,0,.17.03.23.08.14.09.21.22.21.4,0,.1-.03.2-.08.27-.35.54-.79,1.08-1.33,1.62-.54.55-1.14,1.07-1.8,1.56-.66.49-1.36.93-2.09,1.3-.73.37-1.47.65-2.2.84Z"/><path d="m146.45,61.38c-.21,0-.33-.11-.38-.33-.05-.4-.12-.85-.21-1.35-.09-.5-.19-1.02-.29-1.56-.1-.54-.21-1.07-.33-1.58,0-.08-.06-.11-.14-.09-.33.06-.66.11-.99.15-.33.04-.65.07-.97.1-.1,0-.2-.03-.27-.1s-.12-.17-.12-.29c0-.1.04-.18.1-.25s.15-.11.25-.12c.3-.03.61-.06.92-.1s.61-.08.92-.14c.08,0,.11-.06.09-.14-.07-.31-.14-.6-.21-.88-.07-.27-.14-.52-.2-.73-.04-.12-.02-.23.05-.32.07-.09.17-.14.3-.14.1,0,.18.03.25.08.07.05.12.12.14.21.14.43.29.98.44,1.62,0,.08.06.11.14.09.43-.1.86-.21,1.29-.33.42-.12.82-.26,1.2-.4.23-.09.45-.13.66-.13.38,0,.69.12.92.36.23.24.35.54.35.9,0,.32-.1.65-.31.99-.23.37-.52.72-.88,1.05-.36.32-.75.6-1.16.81-.05.03-.1.04-.16.04-.16,0-.28-.08-.34-.23-.03-.05-.04-.1-.04-.16,0-.17.08-.3.25-.38.75-.41,1.31-.92,1.66-1.53.07-.1.12-.21.14-.3.03-.1.04-.19.04-.28,0-.15-.05-.27-.14-.36-.09-.1-.21-.14-.37-.14-.11,0-.23.03-.36.08-.41.16-.83.3-1.27.42-.44.12-.88.24-1.32.34-.08,0-.11.06-.09.14.16.72.31,1.48.46,2.27s.27,1.55.38,2.27c.02.11-.01.21-.09.3s-.18.13-.3.13Z"/><path d="m159.25,61.34s-.06.01-.1.01c-.11,0-.21-.04-.29-.12-.08-.08-.12-.18-.12-.3,0-.2.1-.33.3-.4.78-.27,1.43-.62,1.96-1.07.53-.44.96-.93,1.28-1.48.33-.54.57-1.1.73-1.67.17-.57.28-1.12.34-1.64,0-.07.02-.14.02-.2s0-.13,0-.19c0-.43-.11-.7-.33-.81s-.52-.16-.91-.16h-3.85c-.53,0-.79.29-.79.86,0,.07,0,.15.02.23.01.09.03.18.04.27.05.26.12.56.19.9.07.34.15.73.23,1.17.02.12-.01.23-.09.33s-.19.14-.33.14c-.09,0-.18-.03-.26-.1-.08-.06-.13-.15-.14-.25-.06-.39-.12-.73-.18-1.02s-.14-.62-.23-.98c-.05-.2-.08-.4-.08-.61,0-.29.06-.57.17-.84.11-.26.29-.48.53-.65s.55-.25.93-.25h3.85c.71,0,1.23.15,1.57.45.33.3.5.77.5,1.41,0,.06,0,.13,0,.2,0,.07-.01.15-.02.21-.1,1.06-.36,2.02-.78,2.89-.42.87-.99,1.61-1.69,2.24s-1.53,1.1-2.47,1.43Z"/><path d="m170.3,56.82c-.11,0-.21-.04-.29-.12s-.12-.18-.12-.29c0-.12.04-.22.12-.3.08-.08.18-.12.29-.12h8.11c.11,0,.21.04.29.12.08.08.12.18.12.3,0,.11-.04.21-.12.29-.08.08-.18.12-.3.12h-8.11Z"/><path d="m88.1,80.02c-.72.2-1.41.36-2.07.47-.66.12-1.29.18-1.91.18-.84,0-1.64-.13-2.39-.38-.75-.25-1.46-.68-2.14-1.27-.1-.08-.14-.19-.14-.33,0-.12.04-.22.12-.31.08-.1.19-.14.33-.14.11,0,.21.04.3.12.52.43,1.1.78,1.74,1.05.64.26,1.39.4,2.25.4.52,0,1.09-.05,1.71-.16.62-.11,1.3-.28,2.05-.5.03,0,.06-.01.1-.01.12,0,.22.04.3.12.08.08.12.18.12.3,0,.11-.03.21-.1.31-.07.09-.15.15-.27.17Zm-1.33-6.08c-.46.06-.94.11-1.43.14s-.99.05-1.48.05c-.99,0-1.92-.07-2.81-.2-.1-.02-.19-.07-.25-.15-.06-.08-.1-.17-.1-.27,0-.13.05-.24.14-.33.1-.09.21-.12.34-.1.32.04.7.08,1.15.12s.95.06,1.51.06c.42,0,.88-.01,1.36-.05.48-.03.99-.08,1.53-.14.12-.02.23.01.31.09.09.08.13.18.13.3,0,.11-.04.21-.11.31-.07.09-.17.15-.29.16Zm1.59-.61s-.07.03-.1.03c-.11,0-.18-.05-.21-.16-.21-.55-.52-1.01-.94-1.38-.05-.05-.08-.11-.08-.18s.02-.12.05-.17c.06-.06.13-.09.21-.09.06,0,.11.02.16.06.23.22.42.45.6.7.17.25.33.53.46.84.02.05.03.09.03.12,0,.11-.06.19-.17.23Zm1.08-.48s-.05.01-.09.01c-.1,0-.18-.05-.22-.16-.22-.55-.54-1.03-.96-1.43-.04-.04-.07-.1-.07-.17s.02-.12.05-.16c.05-.05.12-.08.2-.08.04,0,.1.02.16.06.25.24.46.48.62.72s.31.52.45.85c0,.02.02.04.02.05,0,.02,0,.04,0,.05,0,.1-.05.17-.16.23Z"/><path d="m92.84,73.65c-.11,0-.21-.04-.28-.11-.07-.07-.11-.17-.11-.28s.04-.21.11-.28c.07-.07.17-.11.28-.11h3.38c.11,0,.21.04.28.11s.11.17.11.28c0,.1-.04.2-.11.27-.07.08-.17.12-.28.12h-3.38Zm.34-1.68c-.11,0-.21-.04-.28-.12-.07-.08-.11-.17-.11-.27,0-.11.04-.21.12-.28.08-.07.17-.11.27-.11h2.69c.11,0,.21.04.28.11s.11.17.11.28-.04.21-.11.28-.17.11-.28.11h-2.69Zm.06,3.35c-.11,0-.21-.04-.29-.11-.08-.07-.12-.17-.12-.28s.04-.21.12-.29.17-.12.29-.12h2.57c.11,0,.21.04.28.12.07.08.11.17.11.29s-.04.21-.12.28c-.08.07-.17.11-.27.11h-2.57Zm0,1.68c-.11,0-.21-.04-.29-.12-.08-.08-.12-.17-.12-.27,0-.12.04-.22.12-.29.08-.07.17-.11.29-.11h2.57c.11,0,.21.04.28.12.07.08.11.17.11.29,0,.1-.04.19-.11.27-.07.08-.17.12-.28.12h-2.57Zm.33,4.77c-.2,0-.37-.07-.5-.21-.13-.14-.2-.3-.2-.49v-2.48c0-.2.07-.37.21-.5.14-.13.3-.2.49-.2h1.96c.2,0,.37.07.5.21.13.14.2.3.2.49v2.48c0,.19-.07.35-.2.49-.13.14-.3.21-.5.21h-1.96Zm.13-.7h1.7c.05,0,.08-.03.08-.08v-2.31c0-.05-.03-.08-.08-.08h-1.7c-.05,0-.08.03-.08.08v2.31c0,.05.03.08.08.08Zm3.17.73s-.08.04-.13.04c-.09,0-.17-.04-.24-.11-.07-.07-.11-.16-.11-.27,0-.19.09-.33.26-.43.64-.36,1.14-.89,1.5-1.58.36-.69.57-1.52.65-2.49,0-.05-.03-.08-.08-.08h-.77c-.19,0-.36-.07-.49-.21-.14-.14-.21-.3-.21-.49v-2.34c0-.2.07-.37.21-.5.14-.13.3-.2.49-.2h2.05s.06-.01.09-.04c.54-.56.95-1.27,1.25-2.12.03-.09.07-.15.14-.2s.14-.07.22-.07c.12,0,.22.04.29.12s.1.16.1.26c0,.05,0,.09-.01.12-.09.31-.21.63-.38.95-.17.32-.35.62-.55.9-.04.06-.03.09.05.09h.81c.2,0,.37.07.5.2s.2.3.2.5v2.34c0,.19-.07.36-.21.49s-.3.21-.49.21h-.95c-.05,0-.08.03-.08.08v3.55c0,.24.08.4.23.46.15.06.34.1.55.1.2,0,.37-.03.52-.1.15-.07.29-.18.43-.33.08-.08.17-.12.27-.12.1,0,.17.03.23.09.09.09.13.19.13.31s-.04.22-.12.3c-.2.22-.41.37-.63.45-.22.08-.51.12-.86.12-1.02,0-1.53-.39-1.53-1.17v-3.67c0-.05-.03-.08-.08-.08h-.47c-.05,0-.08.03-.08.08-.09,1.16-.36,2.16-.83,3-.46.84-1.09,1.45-1.89,1.83Zm2.14-9.06c-.17,0-.29-.07-.36-.22-.21-.37-.45-.73-.71-1.07-.06-.06-.09-.14-.09-.23,0-.13.05-.23.16-.31.08-.05.16-.08.25-.08.16,0,.27.06.35.17.12.17.25.37.39.59.14.22.26.44.36.64.03.05.04.1.04.16,0,.09-.04.17-.1.24-.07.07-.16.11-.27.11Zm-.88,3.38h3.69c.05,0,.08-.03.08-.08v-2.05c0-.05-.03-.08-.08-.08h-3.69c-.05,0-.08.03-.08.08v2.05c0,.05.03.08.08.08Z"/><path d="m107.38,79.22c-.19,0-.36-.07-.49-.21s-.21-.3-.21-.49v-6.08c0-.2.07-.37.21-.5s.3-.2.49-.2h2.55c.2,0,.37.07.5.21.13.14.2.3.2.49v6.08c0,.19-.07.36-.2.49-.13.14-.3.21-.5.21h-2.55Zm.18-4.41h2.21c.05,0,.08-.03.08-.08v-2.13c0-.05-.03-.08-.08-.08h-2.21c-.05,0-.08.03-.08.08v2.13c0,.05.03.08.08.08Zm0,3.63h2.21c.05,0,.08-.03.08-.08v-2.69c0-.05-.03-.08-.08-.08h-2.21c-.05,0-.08.03-.08.08v2.69c0,.05.03.08.08.08Zm7.15,3.46c-.11,0-.21-.05-.29-.13-.08-.08-.12-.17-.12-.29,0-.12.04-.22.12-.31s.18-.12.29-.12c.43,0,.71-.02.83-.08.12-.06.18-.21.18-.46v-2.96c0-.05-.03-.08-.08-.08h-3s-.07.03-.09.08c-.06.6-.17,1.15-.33,1.64-.16.5-.4.96-.71,1.38-.31.42-.73.83-1.25,1.21-.06.05-.14.08-.23.08-.17,0-.3-.07-.38-.22-.04-.09-.06-.17-.06-.25,0-.18.07-.33.22-.43.49-.37.88-.76,1.16-1.16s.48-.85.6-1.35c.12-.49.2-1.07.23-1.72.03-.65.05-1.42.05-2.31v-2.72c0-.19.07-.36.21-.49.14-.14.3-.2.49-.19h3.28c.2-.01.37.06.5.19.13.14.2.3.2.49v8.8c0,.5-.14.86-.43,1.07-.29.21-.75.31-1.39.31Zm-2.02-5.23h2.95c.05,0,.08-.03.08-.08v-1.86c0-.05-.03-.08-.08-.08h-2.91c-.05,0-.08.03-.08.09,0,.33,0,.65,0,.96,0,.31-.02.6-.03.89,0,.05.03.08.08.08Zm.04-2.82h2.91c.05,0,.08-.03.08-.08v-1.87c0-.05-.03-.08-.08-.08h-2.91c-.05,0-.08.03-.08.08v1.87c0,.05.03.08.08.08Z"/><path d="m125.68,77.29c-.29,0-.53-.1-.72-.3s-.29-.44-.29-.72.1-.51.29-.71c.2-.2.44-.3.72-.3s.52.1.71.29c.2.19.3.44.3.72s-.1.53-.3.72c-.2.2-.44.29-.71.29Z"/><path d="m135.24,81.89c-.11,0-.21-.04-.29-.12-.08-.08-.12-.18-.12-.29v-9.58c0-.2.07-.37.21-.5.14-.13.3-.2.49-.2h8.11c.2,0,.37.07.5.2s.2.3.2.5v8.71c0,.83-.56,1.25-1.69,1.26-.11,0-.21-.04-.3-.13-.09-.09-.14-.19-.14-.31s.04-.22.13-.3.19-.12.3-.12c.35,0,.58-.01.7-.07.12-.05.18-.16.18-.34v-8.53c0-.05-.03-.08-.08-.08h-7.72c-.05,0-.08.03-.08.08v9.4c0,.11-.04.21-.12.29-.08.08-.17.12-.29.12Zm1.92-7.51c-.11,0-.21-.04-.29-.12s-.12-.17-.12-.29.04-.21.12-.29.17-.12.29-.12h4.84c.11,0,.21.04.29.12s.12.17.12.29-.04.21-.12.29-.17.12-.29.12h-4.84Zm.99,5.47c-.19,0-.36-.07-.49-.21-.14-.14-.21-.3-.21-.49v-2.74c0-.19.07-.36.21-.49.14-.14.3-.21.49-.21h2.86c.2,0,.37.07.5.21.13.14.2.3.2.49v2.74c0,.19-.07.36-.2.49-.13.14-.3.21-.5.21h-2.86Zm.18-.81h2.5c.05,0,.08-.03.08-.08v-2.39c0-.05-.03-.08-.08-.08h-2.5c-.05,0-.08.03-.08.08v2.39c0,.05.03.08.08.08Z"/><path d="m148.49,81.68s-.05.02-.08.03c-.03.01-.05.02-.08.02-.15,0-.25-.07-.31-.22,0-.03-.02-.05-.02-.08,0-.03,0-.06,0-.08,0-.17.07-.31.21-.4.3-.2.57-.41.81-.64.24-.23.45-.47.63-.71.09-.13.2-.2.35-.2.06,0,.12.02.18.05.13.09.19.19.19.32,0,.07-.02.13-.06.2-.49.7-1.09,1.27-1.82,1.72Zm-.04-7.24c-.1,0-.19-.03-.26-.1s-.1-.15-.1-.25.04-.18.1-.25.16-.1.26-.1h3.25c.09,0,.1-.02.04-.07-.04-.03-.08-.06-.1-.1-.04-.07-.09-.14-.14-.2-.05-.06-.1-.13-.15-.19-.06-.09-.09-.18-.09-.26,0-.12.05-.22.14-.3.07-.06.16-.09.29-.09.16,0,.28.05.36.16.06.07.12.14.17.21.05.07.09.15.13.23.03.06.05.13.05.21,0,.16-.05.27-.16.35,0,0-.02.02-.03.02-.01,0-.02.01-.03.02h.23s1.57.01,1.57.01c.03,0,.07-.01.09-.04.12-.15.25-.3.38-.47.13-.16.25-.33.36-.49.1-.14.23-.21.39-.21.14,0,.25.04.32.13.07.09.11.19.11.3,0,.08-.02.15-.05.21-.05.08-.11.16-.16.24-.06.08-.12.16-.18.24-.04.06-.03.09.04.09h3.25c.1,0,.18.03.25.1.07.07.1.15.1.25,0,.1-.03.18-.1.25-.07.07-.15.1-.25.1h-10.09Zm.92-2.05c-.09,0-.18-.03-.25-.1s-.1-.16-.1-.26c0-.09.03-.18.1-.25.07-.07.15-.1.25-.1h3.64c.05,0,.08-.03.08-.08v-.44c0-.11.04-.21.12-.28.08-.07.17-.11.29-.11.12,0,.22.04.29.11.07.07.11.17.11.28v.44c0,.05.03.08.08.08h3.64c.1,0,.18.04.25.1.07.07.1.15.1.25s-.04.18-.1.25c-.07.07-.15.11-.25.11h-8.24Zm1.18,6.4c-.19,0-.36-.07-.49-.21s-.21-.3-.21-.49v-2.28c0-.2.07-.37.21-.5.14-.13.3-.2.49-.2h5.88c.2,0,.37.07.5.2.13.13.2.3.2.5v2.28c0,.19-.07.36-.2.49-.13.14-.3.21-.5.21h-5.88Zm.19-2.2h5.49c.05,0,.08-.03.08-.08v-.61c0-.05-.03-.08-.08-.08h-5.49c-.05,0-.08.03-.08.08v.61c0,.05.03.08.08.08Zm0,1.47h5.49c.05,0,.08-.03.08-.08v-.61c0-.05-.03-.08-.08-.08h-5.49c-.05,0-.08.03-.08.08v.61c0,.05.03.08.08.08Zm2.44,3.76c-.53,0-.94-.04-1.25-.14-.3-.09-.52-.25-.64-.47-.13-.23-.19-.53-.19-.91v-.82c0-.11.04-.21.12-.28s.17-.11.27-.11.19.04.27.11.12.17.12.28v.82c0,.24.05.42.14.54.1.12.29.19.57.22s.71.04,1.27.04c.41,0,.74,0,1-.03.26-.02.48-.06.67-.13.19-.07.38-.19.57-.35.09-.07.18-.1.27-.1.11,0,.21.04.29.12.07.09.1.18.1.27,0,.1-.04.19-.12.26-.53.45-1.12.68-1.77.68h-1.7Zm1.55-1.27c-.25-.14-.52-.27-.81-.4s-.57-.24-.84-.34c-.17-.05-.25-.16-.25-.34,0-.11.04-.2.11-.27.07-.07.15-.1.24-.1.03,0,.08,0,.13.03.3.1.6.21.9.34.29.13.57.26.82.39.15.07.22.18.22.34,0,.04,0,.07-.01.1s-.02.06-.04.1c-.03.06-.07.11-.12.14-.06.04-.12.05-.18.05s-.12-.01-.17-.04Zm3.68.68c-.25-.21-.54-.41-.86-.6-.32-.2-.65-.38-1-.54-.15-.07-.22-.18-.22-.34,0-.11.04-.2.12-.27.08-.07.17-.1.27-.1.03,0,.08,0,.13.03.29.13.6.29.94.48s.67.39,1,.61c.14.09.21.22.21.39,0,.08-.02.16-.07.25-.07.11-.17.17-.3.17-.08,0-.15-.03-.22-.08Z"/><path d="m162.36,77.86c-.1,0-.19-.04-.26-.1s-.1-.16-.1-.26.04-.19.1-.26.16-.1.26-.1h4.56c.05,0,.08-.03.08-.08v-.52c0-.05-.03-.08-.08-.08h-3.55c-.09,0-.17-.04-.23-.1s-.1-.15-.1-.25.04-.17.1-.24c.07-.06.15-.1.23-.1h3.55c.05,0,.08-.03.08-.08v-.52c0-.05-.03-.08-.08-.08h-3.15c-.1,0-.18-.03-.25-.1-.07-.07-.11-.16-.11-.26,0-.09.04-.18.1-.25.07-.07.16-.1.26-.1h3.15c.05,0,.08-.03.08-.08v-.52c0-.05-.03-.08-.08-.08h-4.5c-.1,0-.19-.04-.26-.1-.07-.07-.1-.16-.1-.26s.03-.19.1-.26c.07-.07.16-.1.26-.1h4.5c.05,0,.08-.03.08-.08v-.53c0-.05-.03-.08-.08-.08h-3.15c-.1,0-.18-.04-.25-.1-.07-.07-.11-.15-.11-.25,0-.1.05-.19.12-.25.07-.07.15-.1.25-.1h3.15c.05,0,.08-.03.08-.08v-.31c0-.12.04-.22.12-.29.08-.07.17-.11.29-.11s.21.04.29.11.12.17.12.29v.31c0,.05.03.08.08.08h2.61c.2,0,.37.07.5.2.13.13.2.3.2.5v.61c0,.05.03.08.08.08h1.11c.1,0,.19.04.26.1s.1.16.1.26c0,.1-.03.18-.1.25-.07.07-.16.11-.26.11h-1.11c-.05,0-.08.03-.08.08v.61c0,.19-.07.36-.2.49s-.3.21-.5.21h-2.61c-.05,0-.08.03-.08.08v.52c0,.05.03.08.08.08h3.55c.1,0,.18.03.24.1s.1.15.1.24-.03.18-.1.25c-.06.07-.14.1-.24.1h-3.55c-.05,0-.08.03-.08.08v.52c0,.05.03.08.08.08h4.56c.1,0,.19.04.26.1.07.07.1.16.1.26,0,.1-.04.18-.1.25-.07.07-.16.11-.26.11h-10.09Zm2,3.9c-.19,0-.36-.07-.49-.21s-.21-.3-.21-.49v-1.91c0-.2.07-.37.21-.5s.3-.2.49-.2h6.08c.2,0,.37.07.5.21.13.14.2.3.2.49v1.91c0,.19-.07.36-.2.49-.13.14-.3.21-.5.21h-6.08Zm.17-1.98h5.75c.05,0,.08-.03.08-.08v-.52c0-.05-.03-.08-.08-.08h-5.75c-.05,0-.08.03-.08.08v.52c0,.05.03.08.08.08Zm0,1.33h5.75c.05,0,.08-.03.08-.08v-.53c0-.05-.03-.08-.08-.08h-5.75c-.05,0-.08.03-.08.08v.53c0,.05.03.08.08.08Zm3.35-8.14h2.46c.05,0,.08-.03.08-.08v-.53c0-.05-.03-.08-.08-.08h-2.46c-.05,0-.08.03-.08.08v.53c0,.05.03.08.08.08Zm0,1.4h2.46c.05,0,.08-.03.08-.08v-.52c0-.05-.03-.08-.08-.08h-2.46c-.05,0-.08.03-.08.08v.52c0,.05.03.08.08.08Z"/></g><g><line class="cls-4" x1="125.59" y1="97.8" x2="125.59" y2="112.82"/><path class="cls-3" d="m120.37,105.39c.25-.16.59-.09.75.17l4.47,7.02,4.47-7.02c.16-.25.5-.33.75-.17.25.16.33.5.17.75l-4.93,7.74c-.1.16-.27.25-.46.25s-.36-.1-.46-.25l-4.93-7.74c-.06-.09-.08-.19-.08-.29,0-.18.09-.36.25-.46Z"/></g><polygon class="cls-2" points="42.79 .75 .75 48.8 .75 .75 42.79 .75"/><line class="cls-4" x1="118.69" y1="120.08" x2="131.69" y2="120.08"/></g></g></svg>