<?xml version="1.0" encoding="UTF-8"?><svg id="_レイヤー_2" xmlns="http://www.w3.org/2000/svg" width="251.9999" height="133.0493" viewBox="0 0 251.9999 133.0493"><g id="_レイヤー_1-2"><g><g><rect x=".3746" y=".375" width="251.25" height="132.2998" fill="#fff"/><path d="m251.2499.75v131.5493H.75V.75h250.4999m.75-.75H0v133.0493h251.9999V0h0Z" fill="#333"/></g><g><path d="m24.5191,80.6299c-.1738,0-.3223-.0605-.4482-.1816-.126-.1221-.1885-.2734-.1885-.4551v-9.2178c0-.1729.0605-.3223.1816-.4482.1211-.125.2734-.1885.4551-.1885h9.1387c.1211,0,.2188.0391.293.1172s.1104.1777.1104.2988c0,.1133-.0391.208-.1162.2861-.0781.0781-.1738.1172-.2871.1172h-8.8398c-.0518,0-.0781.0254-.0781.0781v8.6963c0,.0527.0264.0781.0781.0781h8.9316c.1211,0,.2207.0391.2988.1172s.1172.1738.1172.2861-.0391.21-.1172.293c-.0781.082-.1777.123-.2988.123h-9.2305Zm1.1836-1.4434c-.1133.0352-.2236.0117-.332-.0713-.1084-.082-.1621-.1924-.1621-.3311,0-.1992.0996-.3291.2988-.3906.416-.1211.8516-.292,1.3066-.5137.4551-.2207.8691-.4824,1.2412-.7861.3721-.3027.6494-.6279.832-.9746.0166-.0264.0195-.0479.0068-.0654-.0137-.0176-.0332-.0254-.0586-.0254h-3.043c-.1123,0-.2051-.0391-.2793-.1172-.0732-.0781-.1094-.1689-.1094-.2734,0-.1123.0361-.2061.1094-.2793.0742-.0732.167-.1104.2793-.1104h3.2246c.0527,0,.0781-.0264.0781-.0781v-1.6904c0-.0518-.0254-.0771-.0781-.0771h-1.6504c-.0439,0-.0781.0166-.1045.0518-.1729.2256-.3574.4395-.5527.6436-.1943.2031-.3916.3789-.5908.5264-.0605.043-.127.0645-.1953.0645-.1309,0-.2305-.0557-.2988-.1689-.0352-.0693-.0527-.1426-.0527-.2207,0-.1387.0527-.2598.1562-.3643.7627-.6582,1.334-1.46,1.7168-2.4043.0771-.1914.2158-.2861.416-.2861.1211,0,.2188.0391.292.1172.0732.0771.1104.1641.1104.2598,0,.0693-.0088.1172-.0254.1426-.0527.1299-.1094.2578-.1699.3838s-.125.2529-.1953.3838c-.0254.0605-.0078.0908.0527.0908h4.4062c.1133,0,.207.0371.2803.1104s.1104.167.1104.2793c0,.1133-.0371.2061-.1104.2793-.0732.0742-.167.1113-.2803.1113h-2.3652c-.0527,0-.0781.0254-.0781.0771v1.6904c0,.0518.0254.0781.0781.0781h3.1855c.1113,0,.2051.0371.2793.1104.0733.0732.1094.167.1094.2793,0,.1133-.0361.2061-.1094.2793-.0742.0742-.1679.1113-.2793.1113h-2.873c-.0781,0-.0957.0303-.0527.0908.3027.4502.7305.8857,1.2812,1.3066.5498.4199,1.2109.7344,1.9824.9424.0947.0254.1729.0781.2334.1553.0605.0781.0908.165.0908.2607,0,.1299-.0469.2334-.1426.3115s-.2041.1045-.3252.0781c-.5547-.1387-1.0703-.3418-1.5469-.6113-.4775-.2686-.8994-.5713-1.2676-.9092-.3682-.3389-.6787-.6719-.9297-1.001-.0264-.0527-.0605-.0479-.1045.0127-.2422.3984-.5762.7695-1,1.1113-.4258.3428-.8828.6328-1.3721.8711s-.9639.418-1.4229.5391Z"/><path d="m37.65,80.9287c-.1309-.0605-.1953-.165-.1953-.3115,0-.0781.0254-.1562.0781-.2344.2773-.4336.4912-.9375.6426-1.5146.1523-.5762.2578-1.1631.3184-1.7617.0098-.0342.002-.0557-.0195-.0645s-.0449-.0039-.0703.0127c-.1133.1045-.2383.2021-.377.293s-.2822.1836-.4297.2793c-.0254.0088-.0518.0195-.0781.0322-.0254.0137-.0518.0195-.0781.0195-.0859,0-.1641-.0391-.2334-.1172s-.1045-.1689-.1045-.2725c0-.2432.1133-.4287.3379-.5596.4248-.2422.7852-.5586,1.0801-.9482.0254-.0264.0381-.0566.0381-.0918v-1.8975c0-.0693-.0215-.0908-.0654-.0654-.0078.0088-.0293.0225-.0645.0391-.0352.0264-.082.0391-.1426.0391-.1484,0-.2598-.082-.3379-.2471-.1914-.5195-.4473-1.0137-.7676-1.4814-.0517-.0693-.0781-.1436-.0781-.2217,0-.1377.0654-.251.1953-.3379.0859-.043.1689-.0645.2471-.0645.165,0,.2939.0693.3896.208.0957.1641.1895.3311.2793.5.0918.1689.1758.3408.2539.5137.0176.0352.0371.0498.0586.0459.0215-.0049.0322-.0244.0322-.0586v-1.5342c0-.1738.0605-.3232.1826-.4482.1211-.126.2725-.1885.4551-.1885h3.5352c.0527,0,.0781-.0264.0781-.0781v-.3516c0-.1211.041-.2207.123-.2988.083-.0781.1807-.1172.293-.1172.1133,0,.2109.0391.293.1172s.123.1777.123.2988v.3516c0,.0518.0264.0781.0781.0781h3.9521c.1123,0,.208.0361.2861.1104.0781.0732.1172.167.1172.2793s-.0371.2061-.1113.2793c-.0732.0742-.1709.1104-.292.1104h-8.2422c-.0518,0-.0771.0264-.0771.0781v4.459c0,.3818-.0195.7979-.0586,1.248-.0391.4512-.1025.9082-.1895,1.3721-.0859.4629-.1934.8984-.3184,1.3057-.125.4082-.2754.7549-.4482,1.04-.0957.1475-.2334.2217-.416.2217-.0781,0-.1689-.0225-.2725-.0654Zm2.3008-.2725c-.0527.0166-.0957.0254-.1309.0254-.0859,0-.166-.0371-.2402-.1104s-.1104-.1709-.1104-.292c0-.1826.0869-.3076.2607-.377.4062-.1738.7881-.3799,1.1436-.6182.3545-.2383.6533-.4873.8975-.7471.1035-.1045.2207-.1562.3496-.1562.0879,0,.1611.0176.2217.0518.1211.0693.1826.1689.1826.2988,0,.0615-.0264.126-.0781.1953-.3213.3984-.7148.75-1.1836,1.0527-.4678.3037-.9062.5293-1.3125.6768Zm2.7031.2334c-.1123,0-.2051-.043-.2793-.1299-.0732-.0869-.1104-.1865-.1104-.2988.0088-.1045.0518-.1934.1299-.2666s.1738-.1016.2861-.084c.0693.0078.1318.0127.1885.0127h.1494c.1826,0,.3096-.0195.3838-.0586.0732-.0391.1104-.1104.1104-.2148v-1.6504c0-.0527-.0264-.0781-.0781-.0781h-1.4688c-.1904,0-.3555-.0713-.4941-.2148-.1387-.1426-.208-.3096-.208-.5v-1.7686c0-.0254-.0088-.0449-.0254-.0586-.0176-.0127-.0391-.0107-.0654.0068-.1562.0957-.3213.1865-.4941.2725-.1729.0869-.3555.1699-.5459.2471-.0527.0176-.0908.0264-.1172.0264-.0957,0-.1777-.0371-.2471-.1104s-.1045-.167-.1045-.2793c0-.208.0996-.3516.2998-.4297.3037-.1299.6064-.29.9102-.4805.043-.0352.0479-.0693.0127-.1045-.0859-.1035-.1797-.2119-.2793-.3242-.0996-.1133-.2109-.2256-.332-.3389-.0684-.0605-.1035-.1426-.1035-.2471,0-.1211.0469-.2119.1426-.2725.0869-.0605.1914-.0908.3125-.0908.1641,0,.2988.0605.4023.1816.1826.2168.334.4287.4551.6367v.0137c.0088,0,.0244.0059.0459.0195.0215.0127.041.0107.0586-.0068.1826-.1475.3506-.3037.5068-.4678.1562-.165.3027-.3428.4414-.5332.0605-.0605.0488-.0908-.0381-.0908h-2.1455c-.1035,0-.1934-.0371-.2656-.1104-.0742-.0742-.1113-.1631-.1113-.2666,0-.1045.0371-.1934.1113-.2666.0723-.0732.1621-.1104.2656-.1104h2.6523c.0518,0,.082-.0176.0908-.0527.0869-.1816.165-.3848.2334-.6104.0605-.1992.1875-.2988.3779-.2988.1123,0,.2031.0391.2725.1162.0703.0781.1045.165.1045.2607,0,.043-.0049.0781-.0127.1035-.0176.0605-.0391.124-.0654.1885-.0264.0654-.0518.1328-.0781.2021-.0264.0605-.0049.0908.0654.0908h3.4453c.1113,0,.2031.0371.2725.1104s.1045.1621.1045.2666c0,.1123-.0371.2031-.1113.2725s-.1621.1045-.2656.1045h-1.8984c-.0781,0-.0957.0303-.0527.0908.1211.165.2607.3271.416.4873.1562.1611.3164.3271.4814.501.0439.0342.0781.0391.1045.0127.1211-.0869.2285-.1816.3242-.2861.0957-.1035.1816-.2119.2598-.3252.0781-.1211.1826-.1816.3125-.1816.0527,0,.0957.0127.1299.0391.1299.0605.1953.1602.1953.2988,0,.0518-.0127.1045-.0391.1562-.0781.1387-.165.2705-.2607.3965-.0947.126-.2031.2451-.3242.3574-.043.0264-.043.0605,0,.1035.1387.0869.2793.1758.4219.2666.1436.0918.293.1758.4492.2539.1729.0781.2598.2129.2598.4033,0,.1035-.0352.1885-.1035.2529-.0703.0654-.1484.0977-.2344.0977-.0254,0-.0645-.0088-.1172-.0264-.373-.1729-.7578-.4072-1.1562-.7012-.0615-.0439-.0918-.0391-.0918.0127.0088.0254.0137.0605.0137.1035v1.8857c0,.1992-.0684.3682-.2021.5068s-.3018.208-.501.208h-1.4551c-.0527,0-.0781.0254-.0781.0781v1.6504c0,.4072-.126.6914-.377.8516-.252.1602-.6719.2236-1.2617.1885Zm-.5332-4.7578h3.5498c.0518,0,.0781-.0264.0781-.0781v-.4678c0-.0518-.0264-.0781-.0781-.0781h-3.5498c-.0508,0-.0771.0264-.0771.0781v.4678c0,.0518.0264.0781.0771.0781Zm0,1.2871h3.5498c.0518,0,.0781-.0264.0781-.0781v-.4424c0-.0518-.0264-.0771-.0781-.0771h-3.5498c-.0508,0-.0771.0254-.0771.0771v.4424c0,.0518.0264.0781.0771.0781Zm.2217-2.5996h3.4062c.0342,0,.0557-.0117.0654-.0332.0078-.0215,0-.041-.0273-.0586-.2334-.2246-.457-.4609-.6689-.708s-.4053-.501-.5791-.7607c-.0254-.0342-.0605-.0518-.1035-.0518h-.8574c-.0527,0-.083.0176-.0918.0518-.1387.2432-.3066.4873-.5059.7344-.2002.2471-.4258.4922-.6768.7344-.0264.0176-.0342.0371-.0264.0586.0088.0215.0312.0332.0654.0332Zm5.3955,5.8232c-.3379-.1475-.709-.3613-1.1113-.6436-.4043-.2812-.7959-.6084-1.1777-.9814-.0684-.0693-.1035-.1553-.1035-.2598,0-.1299.0479-.2295.1426-.2988.0781-.0518.1602-.0781.248-.0781.1465,0,.2725.0566.377.1689.2422.2432.5391.4834.8906.7217.3506.2383.6641.4307.9414.5781.1826.0957.2734.2432.2734.4424,0,.1123-.0371.2031-.1104.2725-.0732.0693-.1582.1045-.2529.1045-.0273,0-.0664-.0088-.1172-.0264Z"/><path d="m57.3316,78.9268c-.9199.5723-1.7168.8584-2.3926.8584-.5293,0-.9453-.1797-1.248-.54-.3027-.3594-.4512-.8818-.4414-1.5664v-6.0322c0-.1211.043-.2246.1289-.3115.0869-.0869.1875-.1299.2988-.1299.1221,0,.2266.043.3125.1299.0869.0869.1309.1904.1309.3115v5.9023c0,.8926.3027,1.3389.9092,1.3389.46,0,1.0879-.2383,1.8857-.7148.5371-.3203,1.1094-.7256,1.7148-1.2158.6074-.4893,1.2139-1.0371,1.8203-1.6445.0781-.0771.1738-.1162.2861-.1162.1299,0,.2344.0469.3115.1426.0781.0869.1172.1904.1172.3115,0,.1396-.0518.2559-.1562.3516-.6582.6416-1.3018,1.2051-1.9297,1.6895-.6289.4863-1.2109.8975-1.748,1.2354Z"/><path d="m66.4175,75.8203c-.1123,0-.209-.041-.292-.124-.083-.082-.124-.1797-.124-.292,0-.1221.041-.2217.124-.2998.083-.0771.1797-.1162.292-.1162h8.1133c.1113,0,.209.0391.292.1162.082.0781.124.1777.124.2998,0,.1123-.0391.21-.1172.292-.0781.083-.1777.124-.2988.124h-8.1133Z"/><path d="m83.6168,80.4092c-.0684.0342-.1289.0518-.1816.0518-.1641,0-.29-.083-.377-.2471-.0254-.0518-.0391-.1084-.0391-.1689,0-.1816.0781-.3125.2344-.3896.7617-.416,1.332-.8926,1.709-1.4307.377-.5371.6328-1.1484.7676-1.833s.21-1.4473.2275-2.2881c0-.0781-.0391-.1162-.1172-.1162h-2.873c-.0781,0-.1172.0381-.1172.1162,0,.6074.0107,1.1357.0322,1.5859.0215.4512.085.8711.1895,1.2617.0078.0254.0127.0645.0127.1162,0,.1914-.0869.3174-.2607.3779-.0254.0078-.0508.0146-.0781.0195-.0254.0039-.0508.0059-.0771.0059-.208,0-.3389-.0908-.3896-.2725-.1133-.3555-.1875-.8037-.2217-1.3457s-.0557-1.125-.0654-1.749c0-.0781-.0391-.1162-.1162-.1162-.373.0078-.7275.0146-1.0664.0195-.3379.0039-.6494.0146-.9365.0322-.1211.0088-.2227-.0303-.3047-.1172s-.123-.1865-.123-.2988.0391-.208.1162-.2861c.0781-.0781.1689-.1211.2734-.1299.3037-.0088.626-.0156.9678-.0195.3428-.0049.7002-.0068,1.0732-.0068.0771,0,.1162-.0391.1162-.1172,0-.1299.002-.2598.0068-.3896s.0068-.2598.0068-.3896c0-.4424-.0137-.8711-.0391-1.2871-.0088-.1211.0303-.2217.1172-.2988.0859-.0781.1855-.1172.2988-.1172.1211,0,.2207.041.2988.123.0781.083.1211.1807.1299.293.0264.7803.0391,1.4648.0391,2.0537,0,.0781.0391.1172.1172.1172h1.4619c.4902,0,.9648-.0039,1.4238-.0127.0781,0,.1172-.0391.1172-.1172v-1.7158c0-.1992.0039-.4033.0137-.6113,0-.1123.043-.21.1289-.293.0869-.082.1865-.123.2988-.123.1133,0,.209.041.2871.123.0781.083.1172.1807.1172.293-.0098.3984-.0156.793-.0195,1.1826-.0049.3906-.0078.7715-.0078,1.1445,0,.0781.0566.1172.1699.1172.7881,0,1.4336-.0137,1.9375-.0391.1211-.0088.2227.0283.3047.1104s.123.1836.123.3057c0,.1123-.0371.208-.1094.2852-.0742.0781-.168.1221-.2803.1309-.2686.0088-.5762.0176-.9229.0254-.3467.0088-.7188.0137-1.1182.0137-.0771,0-.1162.0381-.1162.1162-.0176.6768-.0703,1.3203-.1562,1.9307-.0869.6113-.2383,1.1816-.4551,1.71s-.5293,1.0156-.9355,1.4619c-.4082.4473-.9453.8477-1.6133,1.2031Zm5.4346-8.0469c-.0342.0254-.0781.0381-.1299.0381-.0781,0-.1523-.0381-.2207-.1162-.1387-.2168-.3018-.4463-.4883-.6895-.1855-.2422-.3652-.4463-.5391-.6113-.0605-.0605-.0908-.125-.0908-.1943,0-.0781.0264-.1348.0771-.1689.0527-.0605.1172-.0908.1953-.0908s.1348.0254.1699.0771c.1992.1914.3965.4121.5908.6631.1943.252.3701.4941.5264.7285.0264.0342.039.0781.039.1299,0,.1035-.0429.1816-.1299.2344Zm.9873-.5723c-.0342.0254-.0771.0391-.1289.0391-.0957,0-.1699-.0391-.2207-.1172-.1396-.2168-.2998-.4424-.4814-.6758-.1826-.2344-.3604-.4336-.5332-.5986-.0518-.0518-.0781-.1123-.0781-.1816s.0264-.1211.0781-.1562c.0605-.0605.126-.0908.1943-.0908.0781,0,.1348.0264.1699.0781.1992.1904.3896.4053.5723.6436.1816.2383.3506.4746.5059.708.0264.0352.0391.0781.0391.1309,0,.0947-.0391.1689-.1172.2207Z"/><path d="m94.2379,75.8203c-.1133,0-.21-.041-.293-.124-.082-.082-.123-.1797-.123-.292,0-.1221.041-.2217.123-.2998.083-.0771.1797-.1162.293-.1162h8.1123c.1123,0,.21.0391.292.1162.082.0781.124.1777.124.2998,0,.1123-.0391.21-.1172.292-.0781.083-.1777.124-.2988.124h-8.1123Z"/><path d="m108.9547,74.624c-.2695-.1299-.5684-.2559-.8975-.377s-.6592-.2256-.9873-.3125c-.0879-.0166-.1611-.0625-.2217-.1357-.0605-.0742-.0908-.1543-.0908-.2412,0-.1387.0518-.249.1562-.3311.1035-.082.2119-.1064.3242-.0713.3037.0771.6328.1748.9883.292s.668.2363.9355.3574c.1992.0869.2988.2383.2988.4551,0,.0264-.002.0518-.0059.0781s-.0107.0518-.0195.0781c-.043.165-.1523.2471-.3252.2471-.0518,0-.1045-.0137-.1553-.0391Zm.1943-3.0029c-.2598-.1211-.5518-.2363-.8779-.3447-.3242-.1084-.6523-.2012-.9805-.2793-.1133-.0264-.1973-.085-.2539-.1758s-.0762-.1885-.0586-.292c.0352-.1221.0977-.2109.1885-.2666.0908-.0566.1924-.0723.3057-.0459.3027.0693.6211.1582.9551.2666s.6562.2275.9688.3574c.0859.0352.1543.0908.2012.1689.0479.0781.0723.165.0723.2598,0,.0264-.002.0527-.0068.0781-.0049.0264-.0107.0518-.0195.0781-.0605.1562-.1729.2344-.3379.2344-.0518,0-.1045-.0137-.1562-.0391Zm-1.8721,9.3076c-.1299-.0693-.1953-.1816-.1953-.3379,0-.0693.0176-.1348.0527-.1953.3555-.6064.6816-1.2783.9814-2.0146.2988-.7363.54-1.4775.7217-2.2227.043-.1992.168-.2998.377-.2998.1299,0,.2344.042.3115.124.0781.082.1172.1797.1172.292,0,.0439-.0049.0781-.0127.1045-.0781.3203-.1816.6777-.3125,1.0723-.1299.3945-.2754.7959-.4355,1.2031s-.3291.7969-.5068,1.1699c-.1777.3721-.3525.6973-.5264.9746-.0781.1299-.1914.1953-.3379.1953-.0703,0-.1475-.0225-.2344-.0654Zm9.8281-5.1475c-.0859,0-.1641-.0264-.2344-.0781-.0684-.0527-.1123-.1211-.1289-.208-.0879-.3379-.1914-.6758-.3125-1.0146-.0176-.043-.0479-.0557-.0918-.0391-.4326.1221-.9551.2344-1.5664.3389-.6104.1035-1.2676.1943-1.9688.2725-.7021.0781-1.4004.1348-2.0938.1689-.1895.0088-.3438-.0518-.4609-.1816s-.1758-.2812-.1758-.4551c0-.1045.0234-.21.0723-.3184.0469-.1084.123-.2061.2266-.293.6758-.5635,1.2158-1.1953,1.6191-1.8975.4023-.7021.6992-1.3828.8906-2.041.0605-.208.1953-.3125.4023-.3125.1475,0,.2578.0547.332.1631.0732.1084.0977.2227.0713.3438-.1826.7109-.4912,1.4287-.9287,2.1523-.4385.7236-.9395,1.3535-1.502,1.8906-.0264.0264-.0352.0508-.0264.0723s.0303.0283.0654.0195c.5459-.0439,1.1113-.0977,1.6963-.1631.585-.0645,1.1436-.1426,1.6768-.2334.5332-.0918.9863-.1846,1.3584-.2803.0518-.0166.0654-.0518.0391-.1035-.0947-.2344-.1973-.4551-.3057-.6631-.1074-.208-.2188-.4033-.3311-.585-.0439-.0518-.0654-.126-.0654-.2207,0-.1738.0654-.291.1953-.3516.0605-.0342.1348-.0518.2207-.0518.1914,0,.3301.0781.416.2344.1738.3115.3447.6602.5137,1.0459s.3252.7734.4688,1.1641c.1426.3896.2578.7451.3438,1.0654.0088.0264.0137.0654.0137.1172,0,.1123-.0391.2148-.1172.3057s-.1826.1367-.3125.1367Zm-5.6152,4.9912c-.1914,0-.3555-.0693-.4941-.208s-.209-.3027-.209-.4932v-3.4453c0-.1992.0703-.3662.209-.501.1387-.1338.3027-.2012.4941-.2012h4.3809c.1992,0,.3652.0674.5.2012.1348.1348.2012.3018.2012.501v3.4453c0,.1904-.0664.3545-.2012.4932s-.3008.208-.5.208h-4.3809Zm.168-.7793h4.0303c.0518,0,.0781-.0264.0781-.0781v-3.1201c0-.0518-.0264-.0781-.0781-.0781h-4.0303c-.0518,0-.0781.0264-.0781.0781v3.1201c0,.0518.0264.0781.0781.0781Z"/><path d="m121.1089,80.9287c-.1289-.0605-.1953-.165-.1953-.3115,0-.0781.0273-.1562.0781-.2344.2773-.4336.4922-.9375.6445-1.5146.1504-.5762.2578-1.1631.3184-1.7617.0078-.0342.002-.0557-.0195-.0645s-.0459-.0039-.0723.0127c-.1123.1045-.2383.2021-.377.293s-.2812.1836-.4287.2793c-.0264.0088-.0518.0195-.0771.0322-.0273.0137-.0527.0195-.0781.0195-.0879,0-.166-.0391-.2344-.1172-.0703-.0781-.1035-.1689-.1035-.2725,0-.2432.1113-.4287.3379-.5596.4238-.2422.7832-.5586,1.0781-.9482.0264-.0264.0391-.0566.0391-.0918v-1.8975c0-.0693-.0215-.0908-.0645-.0654-.0098.0088-.0312.0225-.0654.0391-.0342.0264-.083.0391-.1436.0391-.1465,0-.2598-.082-.3379-.2471-.1904-.5195-.4453-1.0137-.7666-1.4814-.0518-.0693-.0771-.1436-.0771-.2217,0-.1377.0645-.251.1943-.3379.0869-.043.1689-.0645.2471-.0645.1641,0,.2949.0693.3896.208.0957.1641.1885.3311.2803.5.0898.1689.1748.3408.2529.5137.0166.0352.0361.0498.0586.0459.0215-.0049.0322-.0244.0322-.0586v-1.5342c0-.1738.0605-.3232.1816-.4482.1221-.126.2734-.1885.4551-.1885h3.5371c.0508,0,.0771-.0264.0771-.0781v-.3516c0-.1211.042-.2207.124-.2988s.1797-.1172.292-.1172.21.0391.292.1172c.083.0781.124.1777.124.2988v.3516c0,.0518.0264.0781.0781.0781h3.9521c.1123,0,.208.0361.2861.1104.0771.0732.1162.167.1162.2793s-.0371.2061-.1094.2793c-.0742.0742-.1719.1104-.293.1104h-8.2422c-.0518,0-.0781.0264-.0781.0781v4.459c0,.3818-.0195.7979-.0586,1.248-.0391.4512-.1016.9082-.1875,1.3721-.0879.4629-.1934.8984-.3193,1.3057-.126.4082-.2744.7549-.4482,1.04-.0957.1475-.2344.2217-.416.2217-.0781,0-.1689-.0225-.2734-.0654Zm2.3008-.2725c-.0508.0166-.0947.0254-.1289.0254-.0879,0-.168-.0371-.2412-.1104s-.1104-.1709-.1104-.292c0-.1826.0859-.3076.2598-.377.4082-.1738.7891-.3799,1.1445-.6182s.6543-.4873.8965-.7471c.1045-.1045.2207-.1562.3516-.1562.0859,0,.1602.0176.2207.0518.1211.0693.1816.1689.1816.2988,0,.0615-.0254.126-.0781.1953-.3203.3984-.7148.75-1.1826,1.0527-.4678.3037-.9053.5293-1.3135.6768Zm2.7051.2334c-.1133,0-.207-.043-.2793-.1299-.0742-.0869-.1113-.1865-.1113-.2988.0088-.1045.0527-.1934.1309-.2666.0771-.0732.1719-.1016.2852-.084.0693.0078.1328.0127.1885.0127h.1494c.1816,0,.3105-.0195.3838-.0586s.1104-.1104.1104-.2148v-1.6504c0-.0527-.0254-.0781-.0781-.0781h-1.4688c-.1914,0-.3555-.0713-.4941-.2148-.1387-.1426-.208-.3096-.208-.5v-1.7686c0-.0254-.0088-.0449-.0264-.0586-.0176-.0127-.0391-.0107-.0645.0068-.1562.0957-.3203.1865-.4941.2725-.1738.0869-.3555.1699-.5459.2471-.0518.0176-.0908.0264-.1172.0264-.0947,0-.1777-.0371-.2471-.1104s-.1035-.167-.1035-.2793c0-.208.0996-.3516.2988-.4297.3027-.1299.6064-.29.9102-.4805.043-.0352.0469-.0693.0127-.1045-.0869-.1035-.1797-.2119-.2793-.3242-.1006-.1133-.21-.2256-.3311-.3389-.0703-.0605-.1045-.1426-.1045-.2471,0-.1211.0479-.2119.1436-.2725.0859-.0605.1895-.0908.3115-.0908.165,0,.2988.0605.4033.1816.1816.2168.333.4287.4551.6367v.0137c.0078,0,.0234.0059.0449.0195.0215.0127.041.0107.0586-.0068.1816-.1475.3516-.3037.5068-.4678.1562-.165.3037-.3428.4424-.5332.0605-.0605.0469-.0908-.0391-.0908h-2.1445c-.1045,0-.1934-.0371-.2676-.1104-.0732-.0742-.1104-.1631-.1104-.2666,0-.1045.0371-.1934.1104-.2666.0742-.0732.1631-.1104.2676-.1104h2.6514c.0518,0,.082-.0176.0908-.0527.0859-.1816.1641-.3848.2344-.6104.0605-.1992.1855-.2988.377-.2988.1123,0,.2031.0391.2734.1162.0684.0781.1035.165.1035.2607,0,.043-.0049.0781-.0137.1035-.0176.0605-.0391.124-.0645.1885-.0254.0654-.0527.1328-.0781.2021-.0254.0605-.0039.0908.0645.0908h3.4453c.1133,0,.2031.0371.2734.1104.0693.0732.1035.1621.1035.2666,0,.1123-.0371.2031-.1104.2725s-.1621.1045-.2666.1045h-1.8975c-.0781,0-.0957.0303-.0518.0908.1211.165.2598.3271.416.4873.1553.1611.3164.3271.4805.501.043.0342.0781.0391.1035.0127.1211-.0869.2305-.1816.3262-.2861.0947-.1035.1816-.2119.2598-.3252.0781-.1211.1816-.1816.3115-.1816.0518,0,.0947.0127.1299.0391.1309.0605.1953.1602.1953.2988,0,.0518-.0137.1045-.0391.1562-.0781.1387-.165.2705-.2598.3965-.0957.126-.2041.2451-.3252.3574-.0439.0264-.0439.0605,0,.1035.1377.0869.2793.1758.4229.2666.1426.0918.292.1758.4482.2539.1729.0781.2598.2129.2598.4033,0,.1035-.0342.1885-.1045.2529-.0684.0654-.1465.0977-.2334.0977-.0264,0-.0654-.0088-.1172-.0264-.3721-.1729-.7588-.4072-1.1572-.7012-.0605-.0439-.0908-.0391-.0908.0127.0088.0254.0127.0605.0127.1035v1.8857c0,.1992-.0664.3682-.2012.5068s-.3008.208-.5.208h-1.457c-.0508,0-.0771.0254-.0771.0781v1.6504c0,.4072-.126.6914-.377.8516s-.6719.2236-1.2607.1885Zm-.5332-4.7578h3.5488c.0518,0,.0781-.0264.0781-.0781v-.4678c0-.0518-.0264-.0781-.0781-.0781h-3.5488c-.0527,0-.0781.0264-.0781.0781v.4678c0,.0518.0254.0781.0781.0781Zm0,1.2871h3.5488c.0518,0,.0781-.0264.0781-.0781v-.4424c0-.0518-.0264-.0771-.0781-.0771h-3.5488c-.0527,0-.0781.0254-.0781.0771v.4424c0,.0518.0254.0781.0781.0781Zm.2207-2.5996h3.4062c.0342,0,.0566-.0117.0645-.0332.0088-.0215,0-.041-.0254-.0586-.2344-.2246-.457-.4609-.6699-.708s-.4053-.501-.5781-.7607c-.0264-.0342-.0605-.0518-.1045-.0518h-.8584c-.0508,0-.082.0176-.0898.0518-.1387.2432-.3086.4873-.5078.7344s-.4238.4922-.6758.7344c-.0254.0176-.0352.0371-.0254.0586.0078.0215.0293.0332.0645.0332Zm5.3945,5.8232c-.3379-.1475-.708-.3613-1.1113-.6436-.4023-.2812-.7949-.6084-1.1758-.9814-.0703-.0693-.1045-.1553-.1045-.2598,0-.1299.0479-.2295.1436-.2988.0781-.0518.1602-.0781.2461-.0781.1475,0,.2734.0566.377.1689.2432.2432.54.4834.8906.7217.3516.2383.666.4307.9434.5781.1816.0957.2725.2432.2725.4424,0,.1123-.0371.2031-.1104.2725-.0742.0693-.1582.1045-.2539.1045-.0254,0-.0645-.0088-.1172-.0264Z"/><path d="m144.1841,79.0176c-.7197.2002-1.4092.3574-2.0674.4746s-1.2949.1758-1.9102.1758c-.8418,0-1.6367-.1279-2.3867-.3838-.749-.2549-1.4619-.6777-2.1377-1.2676-.0957-.0781-.1436-.1855-.1436-.3252,0-.1211.0391-.2246.1172-.3115.0781-.0957.1865-.1426.3252-.1426.1123,0,.2119.0381.2988.1162.5205.4336,1.0986.7822,1.7354,1.0469s1.3887.3965,2.2559.3965c.5195,0,1.0898-.0537,1.709-.1621.6201-.1084,1.3027-.2754,2.0479-.501.0264-.0088.0605-.0127.1045-.0127.1211,0,.2207.0391.2988.1172.0781.0771.1172.1777.1172.2988,0,.1123-.0332.2139-.0977.3057-.0654.0908-.1543.1494-.2666.1748Zm-1.3262-6.084c-.46.0605-.9365.1064-1.4307.1367-.4932.0303-.9873.0459-1.4814.0459-.9873,0-1.9238-.0654-2.8076-.1953-.1045-.0176-.1895-.0674-.2539-.1494s-.0977-.1709-.0977-.2666c0-.1299.0479-.2383.1426-.3252.0957-.0859.209-.1211.3389-.1035.3203.043.7041.084,1.1504.123s.9512.0586,1.5146.0586c.4238,0,.877-.0146,1.3584-.0459.4814-.0303.9893-.0752,1.5273-.1357.1221-.0176.2256.0127.3115.0908.0869.0781.1309.1777.1309.2988,0,.1123-.0371.2148-.1113.3057-.0732.0908-.1709.1455-.292.1621Zm1.5859-.6104c-.0342.0176-.0693.0254-.1045.0254-.1123,0-.1816-.0518-.207-.1562-.209-.5537-.5205-1.0137-.9365-1.3779-.0518-.0518-.0771-.1123-.0771-.1816s.0166-.125.0508-.1689c.0605-.0605.1309-.0908.209-.0908.0605,0,.1113.0215.1553.0645.2256.2168.4248.4492.5986.6963.1729.2461.3242.5264.4551.8379.0166.0518.0254.0908.0254.1172,0,.1123-.0566.1904-.1689.2344Zm1.0791-.4814c-.0176.0088-.0479.0127-.0908.0127-.1045,0-.1777-.0518-.2217-.1553-.2168-.5547-.5371-1.0312-.9609-1.4307-.0439-.043-.0654-.0996-.0654-.1689s.0166-.1211.0518-.1553c.0527-.0527.1172-.0781.1953-.0781.043,0,.0957.0215.1562.0645.251.2432.457.4834.6172.7217s.3096.5225.4482.8516c.0088.0176.0146.0352.0195.0518.0049.0176.0068.0352.0068.0518,0,.0957-.0527.1738-.1562.2344Z"/><path d="m148.9156,72.6475c-.1123,0-.2051-.0361-.2793-.1104-.0732-.0732-.1104-.167-.1104-.2793s.0371-.2061.1104-.2793c.0742-.0732.167-.1104.2793-.1104h3.3809c.1123,0,.2051.0371.2793.1104.0732.0732.1104.167.1104.2793,0,.1045-.0371.1953-.1104.2734-.0742.0771-.167.1162-.2793.1162h-3.3809Zm.3379-1.6768c-.1123,0-.2051-.0391-.2793-.1172-.0732-.0781-.1094-.1689-.1094-.2725,0-.1123.0391-.2061.1162-.2793.0781-.0742.1689-.1113.2725-.1113h2.6914c.1133,0,.2061.0371.2793.1113.0742.0732.1113.167.1113.2793s-.0371.2061-.1113.2793c-.0732.0742-.166.1104-.2793.1104h-2.6914Zm.0654,3.3545c-.1123,0-.208-.0371-.2861-.1104-.0781-.0742-.1172-.167-.1172-.2803,0-.1123.0391-.208.1172-.2861.0781-.0771.1738-.1162.2861-.1162h2.5742c.1123,0,.2061.0391.2793.1162.0732.0781.1104.1738.1104.2861,0,.1133-.0391.2061-.1172.2803-.0781.0732-.168.1104-.2725.1104h-2.5742Zm0,1.6768c-.1123,0-.208-.0391-.2861-.1172s-.1172-.1689-.1172-.2725c0-.1221.0391-.2188.1172-.293.0781-.0732.1738-.1104.2861-.1104h2.5742c.1123,0,.2061.0391.2793.1172s.1104.1729.1104.2861c0,.1035-.0371.1943-.1104.2725s-.167.1172-.2793.1172h-2.5742Zm.3252,4.7705c-.1992,0-.3662-.0693-.5-.208-.1348-.1387-.2021-.3027-.2021-.4932v-2.4834c0-.1992.0693-.3662.208-.501.1387-.1338.3027-.2012.4941-.2012h1.9629c.1992,0,.3662.0693.5.208.1348.1387.2021.3037.2021.4941v2.4834c0,.1904-.0674.3545-.2021.4932-.1338.1387-.3008.208-.5.208h-1.9629Zm.1299-.7012h1.7031c.0518,0,.0781-.0264.0781-.0781v-2.3145c0-.0518-.0264-.0781-.0781-.0781h-1.7031c-.0518,0-.0771.0264-.0771.0781v2.3145c0,.0518.0254.0781.0771.0781Zm3.1729.7275c-.0352.0264-.0781.0391-.1309.0391-.0859,0-.167-.0371-.2402-.1104-.0742-.0742-.1113-.1631-.1113-.2666,0-.1904.0879-.334.2607-.4287.6416-.3643,1.1396-.8906,1.4951-1.5801.3555-.6885.5723-1.5186.6504-2.4893,0-.0518-.0264-.0781-.0781-.0781h-.7676c-.1904,0-.3555-.0693-.4941-.208s-.207-.3027-.207-.4941v-2.3398c0-.1992.0684-.3662.207-.5.1387-.1348.3037-.2021.4941-.2021h2.0547c.0342,0,.0645-.0127.0898-.0391.5381-.5625.9541-1.2695,1.248-2.1191.0264-.0859.0742-.1533.1436-.2012s.1436-.0713.2217-.0713c.1211,0,.2158.0391.2852.1172s.1035.1641.1035.2598c0,.0518-.0039.0908-.0117.1172-.0879.3115-.2129.6279-.377.9492-.166.3203-.3477.6191-.5469.8965-.043.0605-.0254.0908.0527.0908h.8057c.1992,0,.3662.0674.501.2021.1338.1338.2012.3008.2012.5v2.3398c0,.1914-.0703.3555-.209.4941s-.3027.208-.4932.208h-.9492c-.0518,0-.0781.0264-.0781.0781v3.5488c0,.2432.0762.3965.2275.4619.1523.0645.3359.0977.5527.0977.1992,0,.373-.0332.5195-.0977.1475-.0654.291-.1758.4297-.332.0781-.0781.168-.1172.2725-.1172.0957,0,.1729.0312.2344.0918.0869.0859.1299.1904.1299.3115,0,.1221-.0391.2207-.1172.2988-.1992.2168-.4092.3662-.6309.4492-.2207.082-.5088.123-.8633.123-1.0234,0-1.5352-.3896-1.5352-1.1699v-3.666c0-.0518-.0254-.0781-.0781-.0781h-.4668c-.0527,0-.0781.0264-.0781.0781-.0879,1.1611-.3623,2.1621-.8262,3.0029-.4629.8408-1.0938,1.4512-1.8906,1.833Zm2.1445-9.0605c-.165,0-.2861-.0742-.3643-.2217-.208-.3721-.4463-.7275-.7148-1.0654-.0615-.0605-.0908-.1387-.0908-.2344,0-.1299.0518-.2344.1562-.3115.0781-.0527.1602-.0781.2461-.0781.1562,0,.2734.0566.3516.1689.1211.1729.251.3701.3896.5908.1387.2217.2607.4355.3643.6436.0254.0527.0391.1045.0391.1562,0,.0869-.0352.167-.1035.2402-.0703.0742-.1611.1113-.2734.1113Zm-.8848,3.3799h3.6924c.0518,0,.0781-.0264.0781-.0781v-2.0537c0-.0527-.0264-.0781-.0781-.0781h-3.6924c-.0508,0-.0781.0254-.0781.0781v2.0537c0,.0518.0273.0781.0781.0781Z"/><path d="m163.4634,78.2246c-.1904,0-.3555-.0693-.4941-.208s-.208-.3027-.208-.4941v-6.084c0-.1992.0693-.3652.208-.5s.3037-.2012.4941-.2012h2.5479c.1992,0,.3662.0693.5.208.1348.1387.2021.3027.2021.4932v6.084c0,.1914-.0674.3555-.2021.4941-.1338.1387-.3008.208-.5.208h-2.5479Zm.1816-4.4072h2.21c.0527,0,.0781-.0254.0781-.0771v-2.1328c0-.0518-.0254-.0771-.0781-.0771h-2.21c-.0518,0-.0771.0254-.0771.0771v2.1328c0,.0518.0254.0771.0771.0771Zm0,3.6279h2.21c.0527,0,.0781-.0264.0781-.0781v-2.6914c0-.0518-.0254-.0781-.0781-.0781h-2.21c-.0518,0-.0771.0264-.0771.0781v2.6914c0,.0518.0254.0781.0771.0781Zm7.1504,3.458c-.1123-.0088-.208-.0527-.2861-.1309-.0781-.0771-.1172-.1729-.1172-.2852,0-.1221.041-.2236.123-.3057.083-.083.1797-.124.293-.124.4336.0088.709-.0166.8262-.0781.1172-.0605.1748-.2119.1748-.4551v-2.9639c0-.0518-.0264-.0781-.0771-.0781h-3.0039c-.043,0-.0742.0264-.0908.0781-.0605.5986-.1709,1.1465-.3311,1.6445-.1602.499-.3965.96-.709,1.3848s-.7285.8271-1.248,1.209c-.0605.0518-.1387.0781-.2344.0781-.1729,0-.2988-.0742-.377-.2207-.043-.0869-.0645-.1689-.0645-.2471,0-.1826.0732-.3252.2207-.4297.4941-.3721.8799-.7598,1.1572-1.1631s.4785-.8516.6045-1.3457c.125-.4941.2031-1.0674.2344-1.7227.0293-.6543.0449-1.4229.0449-2.3076v-2.7168c0-.1904.0693-.3555.208-.4941.1387-.1377.3037-.2031.4941-.1943l3.2764-.0137c.1992,0,.3652.0703.5.208.1348.1387.2012.3037.2012.4941v8.8008c0,.5029-.1426.8604-.4287,1.0732-.2861.2119-.749.3135-1.3906.3057Zm-2.0146-5.2266h2.9512c.0508,0,.0771-.0264.0771-.0781v-1.8584c0-.0527-.0264-.0781-.0771-.0781h-2.9121c-.0527,0-.0781.0303-.0781.0908,0,.3291-.0029.6475-.0068.9551-.0049.3076-.0146.6045-.0322.8906,0,.0518.0254.0781.0781.0781Zm.0391-2.8213h2.9121c.0508,0,.0771-.0254.0771-.0771v-1.8721c0-.0527-.0264-.0781-.0771-.0781h-2.9121c-.0527,0-.0781.0254-.0781.0781v1.8721c0,.0518.0254.0771.0781.0771Z"/><path d="m181.7535,76.2881c-.2852,0-.5254-.0996-.7207-.2988s-.293-.4375-.293-.7158c0-.2764.0977-.5146.293-.7148.1953-.1992.4355-.2988.7207-.2988.2773,0,.5156.0977.7148.293.1992.1943.2998.4355.2998.7207,0,.2861-.1006.5273-.2998.7217-.1992.1953-.4375.293-.7148.293Z"/><path d="m191.3218,80.8896c-.1123,0-.21-.041-.292-.123-.083-.083-.124-.1807-.124-.293v-9.5811c0-.1992.0693-.3662.209-.5.1377-.1348.3027-.2021.4932-.2021h8.1123c.1992,0,.3652.0674.5.2021.1348.1338.2012.3008.2012.5v8.71c0,.832-.5625,1.2529-1.6895,1.2617-.1133,0-.2148-.0439-.3047-.1309-.0918-.0859-.1367-.1904-.1367-.3115s.043-.2207.1289-.2988c.0879-.0781.1875-.1172.2998-.1172.3467.0088.5811-.0127.7021-.0654.1211-.0518.1816-.1641.1816-.3379v-8.5273c0-.0527-.0254-.0781-.0781-.0781h-7.7217c-.0518,0-.0781.0254-.0781.0781v9.3984c0,.1123-.0391.21-.1172.293-.0771.082-.1729.123-.2861.123Zm1.9238-7.5137c-.1123,0-.207-.0391-.2852-.1172s-.1172-.1729-.1172-.2861c0-.1123.0391-.208.1172-.2861s.1729-.1162.2852-.1162h4.8359c.1133,0,.209.0381.2871.1162s.1162.1738.1162.2861c0,.1133-.0381.208-.1162.2861s-.1738.1172-.2871.1172h-4.8359Zm.9883,5.4727c-.1904,0-.3555-.0693-.4941-.208s-.207-.3027-.207-.4941v-2.7422c0-.1914.0684-.3555.207-.4941s.3037-.208.4941-.208h2.8604c.1992,0,.3662.0693.501.208.1338.1387.2012.3027.2012.4941v2.7422c0,.1914-.0674.3555-.2012.4941-.1348.1387-.3018.208-.501.208h-2.8604Zm.1816-.8057h2.4961c.0527,0,.0781-.0264.0781-.0781v-2.3916c0-.0527-.0254-.0781-.0781-.0781h-2.4961c-.0508,0-.0781.0254-.0781.0781v2.3916c0,.0518.0273.0781.0781.0781Z"/><path d="m204.5699,80.6816c-.0264.0088-.0527.0195-.0781.0332-.0264.0127-.0527.0186-.0781.0186-.1484,0-.252-.0732-.3125-.2207-.0088-.0254-.0156-.0537-.0195-.084-.0039-.0312-.0059-.0586-.0059-.085,0-.1729.0684-.3076.207-.4033.3037-.1992.5742-.4131.8125-.6426.2383-.2305.4492-.4658.6309-.709.0869-.1299.2031-.1953.3516-.1953.0605,0,.1211.0176.1816.0527.1299.0859.1953.1943.1953.3242,0,.0703-.0215.1348-.0654.1953-.4854.7021-1.0918,1.2744-1.8193,1.7158Zm-.0391-7.2412c-.1045,0-.1914-.0342-.2607-.1035s-.1045-.1514-.1045-.2471.0352-.1777.1045-.2471.1562-.1035.2607-.1035h3.25c.0859,0,.0996-.0215.0391-.0654-.0439-.0264-.0781-.0605-.1045-.1035-.0439-.0693-.0889-.1367-.1367-.2021-.0479-.0645-.0967-.1279-.1494-.1885-.0605-.0947-.0908-.1816-.0908-.2598,0-.1211.0479-.2207.1436-.2988.0684-.0605.1641-.0908.2852-.0908.1562,0,.2773.0518.3643.1553.0605.0693.1162.1416.1689.2148.0518.0732.0957.1494.1299.2275.0342.0605.0518.1299.0518.208,0,.1562-.0518.2725-.1562.3506-.0078.0088-.0195.0156-.0312.0195-.0137.0049-.0254.0117-.0332.0195l.2344.0137h1.5723c.0352,0,.0654-.0137.0918-.0391.1211-.1475.248-.3037.3828-.4688.1348-.1641.2539-.3291.3574-.4932.0957-.1387.2256-.208.3906-.208.1387,0,.2441.043.3184.1299.0732.0869.1104.1865.1104.2988,0,.0781-.0176.1475-.0518.208-.0527.0781-.1064.1582-.1621.2402-.0566.083-.1152.1631-.1758.2402-.0439.0615-.0312.0918.0391.0918h3.25c.0947,0,.1777.0322.2461.0967.0703.0654.1045.1504.1045.2539,0,.0957-.0322.1777-.0977.2471s-.1494.1035-.2529.1035h-10.0879Zm.9219-2.0537c-.0947,0-.1777-.0342-.2461-.1035-.0703-.0693-.1045-.1562-.1045-.2607,0-.0947.0342-.1768.1045-.2471.0684-.0684.1514-.1035.2461-.1035h3.6406c.0518,0,.0781-.0264.0781-.0781v-.4414c0-.1133.0391-.2061.1172-.2803.0781-.0732.1729-.1104.2852-.1104.1211,0,.2188.0371.293.1104.0742.0742.1104.167.1104.2803v.4414c0,.0518.0264.0781.0781.0781h3.6396c.0957,0,.1777.0352.248.1035.0684.0703.1035.1523.1035.2471,0,.0957-.0352.1807-.1035.2539-.0703.0742-.1523.1104-.248.1104h-8.2422Zm1.1836,6.3965c-.1914,0-.3555-.0693-.4941-.208s-.208-.3037-.208-.4941v-2.2754c0-.1992.0693-.3662.208-.5.1387-.1348.3027-.2021.4941-.2021h5.876c.1992,0,.3662.0674.501.2021.1338.1338.2012.3008.2012.5v2.2754c0,.1904-.0674.3555-.2012.4941-.1348.1387-.3018.208-.501.208h-5.876Zm.1953-2.1973h5.4863c.0508,0,.0771-.0264.0771-.0781v-.6113c0-.0518-.0264-.0771-.0771-.0771h-5.4863c-.0527,0-.0781.0254-.0781.0771v.6113c0,.0518.0254.0781.0781.0781Zm0,1.4688h5.4863c.0508,0,.0771-.0254.0771-.0781v-.6104c0-.0527-.0264-.0781-.0771-.0781h-5.4863c-.0527,0-.0781.0254-.0781.0781v.6104c0,.0527.0254.0781.0781.0781Zm2.4434,3.7568c-.5283,0-.9443-.0449-1.248-.1357-.3027-.0918-.5176-.25-.6426-.4746-.127-.2256-.1895-.5293-.1895-.9102v-.8193c0-.1123.0391-.2061.1172-.2793s.1699-.1104.2734-.1104.1953.0371.2734.1104c.0771.0732.1162.167.1162.2793v.8193c0,.2422.0479.4219.1436.5391.0947.1172.2852.1914.5723.2217.2852.0303.71.0449,1.2734.0449.4072,0,.7402-.0088,1.001-.0254.2598-.0176.4834-.0605.6689-.1309.1865-.0684.375-.1855.5664-.3506.0859-.0693.1777-.1035.2725-.1035.1123,0,.208.0381.2861.1162.0693.0869.1035.1777.1035.2734,0,.1035-.0391.1904-.1172.2598-.5283.4502-1.1172.6758-1.7676.6758h-1.7031Zm1.5469-1.2734c-.251-.1387-.5195-.2705-.8057-.3965s-.5674-.2412-.8447-.3447c-.165-.0518-.2471-.1641-.2471-.3379,0-.1123.0361-.2012.1104-.2666s.1543-.0977.2402-.0977c.0352,0,.0781.0088.1309.0264.3027.0957.6016.208.8965.3379s.5674.2598.8184.3896c.1484.0693.2217.1826.2217.3379,0,.0352-.0049.0674-.0127.0977-.0098.0303-.0215.0635-.0391.0977-.0264.0605-.0674.1084-.124.1426-.0557.0352-.1143.0527-.1748.0527s-.1172-.0137-.1699-.0391Zm3.6797.6758c-.252-.208-.5371-.4092-.8584-.6045s-.6543-.375-1.001-.5391c-.1475-.0693-.2207-.1826-.2207-.3389,0-.1123.041-.2012.123-.2656.082-.0654.1719-.0977.2666-.0977.0342,0,.0781.0088.1299.0254.2861.1299.5996.291.9434.4814.3418.1904.6738.3945.9941.6113.1387.0947.208.2246.208.3896,0,.0781-.0225.1602-.0654.2471-.0693.1123-.1689.1689-.2988.1689-.0781,0-.1523-.0264-.2207-.0781Z"/><path d="m218.441,76.8604c-.1045,0-.1914-.0352-.2607-.1045s-.1045-.1562-.1045-.2598c0-.1045.0352-.1904.1045-.2598s.1562-.1045.2607-.1045h4.5625c.0518,0,.0781-.0264.0781-.0781v-.5195c0-.0527-.0264-.0781-.0781-.0781h-3.5488c-.0869,0-.165-.0352-.2344-.1045s-.1035-.1514-.1035-.2471c0-.0947.0342-.1748.1035-.2402.0693-.0645.1475-.0977.2344-.0977h3.5488c.0518,0,.0781-.0254.0781-.0781v-.5195c0-.0518-.0264-.0781-.0781-.0781h-3.1465c-.0957,0-.1797-.0342-.2529-.1035s-.1104-.1562-.1104-.2607c0-.0947.0342-.1768.1035-.2471.0693-.0693.1562-.1035.2598-.1035h3.1465c.0518,0,.0781-.0264.0781-.0781v-.5195c0-.0527-.0264-.0781-.0781-.0781h-4.498c-.1035,0-.1914-.0352-.2598-.1045-.0703-.0693-.1035-.1562-.1035-.2598,0-.1045.0332-.1904.1035-.2598.0684-.0693.1562-.1045.2598-.1045h4.498c.0518,0,.0781-.0254.0781-.0781v-.5322c0-.0527-.0264-.0781-.0781-.0781h-3.1465c-.0957,0-.1797-.0352-.2529-.1045s-.1104-.1514-.1104-.2471c.0078-.1035.0469-.1885.1172-.2529.0684-.0654.1504-.0977.2461-.0977h3.1465c.0518,0,.0781-.0264.0781-.0781v-.3125c0-.1211.0391-.2188.1172-.292s.1729-.1104.2852-.1104c.1133,0,.209.0371.2871.1104.0771.0732.1162.1709.1162.292v.3125c0,.0518.0264.0781.0781.0781h2.6133c.1992,0,.3662.0674.501.2012.1338.1348.2012.3018.2012.501v.6104c0,.0527.0254.0781.0781.0781h1.1045c.1045,0,.1904.0352.2598.1045s.1045.1553.1045.2598c0,.0957-.0352.1797-.1045.2539-.0693.0732-.1553.1104-.2598.1104h-1.1045c-.0527,0-.0781.0254-.0781.0781v.6104c0,.1914-.0674.3555-.2012.4941-.1348.1387-.3018.208-.501.208h-2.6133c-.0518,0-.0781.0264-.0781.0781v.5195c0,.0527.0264.0781.0781.0781h3.5488c.0957,0,.1758.0332.2412.0977.0645.0654.0977.1455.0977.2402,0,.0957-.0332.1777-.0977.2471-.0654.0693-.1455.1045-.2412.1045h-3.5488c-.0518,0-.0781.0254-.0781.0781v.5195c0,.0518.0264.0781.0781.0781h4.5635c.1035,0,.1895.0352.2598.1045.0684.0693.1035.1553.1035.2598,0,.0957-.0352.1797-.1035.2529-.0703.0742-.1562.1113-.2598.1113h-10.0879Zm2.002,3.8994c-.1914,0-.3555-.0693-.4941-.208s-.209-.3037-.209-.4941v-1.9111c0-.1992.0703-.3652.209-.5s.3027-.2012.4941-.2012h6.084c.1992,0,.3652.0693.5.208s.2012.3027.2012.4932v1.9111c0,.1904-.0664.3555-.2012.4941s-.3008.208-.5.208h-6.084Zm.168-1.9756h5.7461c.0527,0,.0781-.0264.0781-.0781v-.5205c0-.0518-.0254-.0781-.0781-.0781h-5.7461c-.0508,0-.0781.0264-.0781.0781v.5205c0,.0518.0273.0781.0781.0781Zm0,1.3262h5.7461c.0527,0,.0781-.0264.0781-.0781v-.5332c0-.0518-.0254-.0781-.0781-.0781h-5.7461c-.0508,0-.0781.0264-.0781.0781v.5332c0,.0518.0273.0781.0781.0781Zm3.3545-8.1387h2.457c.0518,0,.0781-.0254.0781-.0781v-.5322c0-.0527-.0264-.0781-.0781-.0781h-2.457c-.0518,0-.0781.0254-.0781.0781v.5322c0,.0527.0264.0781.0781.0781Zm0,1.4043h2.457c.0518,0,.0781-.0264.0781-.0781v-.5195c0-.0527-.0264-.0781-.0781-.0781h-2.457c-.0518,0-.0781.0254-.0781.0781v.5195c0,.0518.0264.0781.0781.0781Z"/></g><g><path d="m82.4947,29.8027c-.1904,0-.3555-.0693-.4941-.208s-.1992-.2988-.1816-.4805c.0781-.6416.2666-1.1895.5654-1.6445s.6973-.8535,1.1963-1.1963c.498-.3428,1.0762-.6611,1.7354-.9551.5371-.2432.9814-.4639,1.332-.6631.3516-.1992.6074-.4404.7676-.7217s.2188-.6562.1758-1.125c-.0869-.5371-.3164-.9482-.6895-1.2344s-.875-.4297-1.5078-.4297c-.5986,0-1.0752.1113-1.4297.332-.3555.2207-.6201.5391-.7939.9551,0,.0088-.002.0156-.0059.0195-.0049.0049-.0068.0156-.0068.0332,0,.0254.0303.0557.0908.0908.1387.0605.2383.1494.2998.2666.0605.1162.0908.2363.0908.3574,0,.1816-.0605.3467-.1826.4941-.1211.1475-.2939.2207-.5195.2207-.2432,0-.4287-.0889-.5596-.2666-.1299-.1777-.1943-.4004-.1943-.6699,0-.3115.082-.6367.2471-.9746.2939-.5459.708-.9551,1.2412-1.2285s1.0898-.4092,1.6709-.4092c.4678,0,.9141.084,1.3388.2529.4239.1689.7901.4248,1.0987.7676.3076.3418.5127.7686.6172,1.2803.0264.165.0391.3203.0391.4678,0,.4424-.0957.8174-.2861,1.125s-.4424.5742-.7539.7988c-.3125.2256-.6611.4316-1.0469.6182s-.7754.3721-1.1699.5586-.7646.3965-1.1113.6309c-.3467.2334-.6416.5088-.8838.8252-.2432.3164-.4033.7041-.4814,1.1631v.0264c0,.0693.0391.1045.1172.1045h4.9268c.0693,0,.1045-.0303.1045-.0918,0-.1729-.0088-.335-.0264-.4873-.0176-.1514-.0254-.2969-.0254-.4355,0-.1211.043-.2246.1299-.3115.0859-.0869.1943-.1299.3242-.1299.1387,0,.252.0469.3389.1426.0859.0957.125.208.1162.3379l-.0771,1.0918c-.0088.1914-.085.3555-.2275.4941-.1436.1387-.3105.208-.501.208h-5.4082Z"/><path d="m94.7545,29.9199c-1.1533,0-2.0498-.4268-2.6914-1.2803s-.9619-2.0518-.9619-3.5947c0-.9795.1445-1.8203.4355-2.5225.29-.7012.708-1.2412,1.2539-1.6182.5469-.377,1.2002-.5654,1.9639-.5654.7617,0,1.417.1865,1.9629.5586.5459.373.9658.9102,1.2607,1.6123.2939.7021.4424,1.5469.4424,2.5352,0,1.543-.3213,2.7412-.9629,3.5947-.6406.8535-1.542,1.2803-2.7031,1.2803Zm0-.7803c.5713,0,1.0674-.166,1.4883-.5.4199-.334.7432-.8037.9678-1.4111.2256-.6064.3389-1.3252.3389-2.1572,0-.7979-.1152-1.4912-.3447-2.0801-.2295-.5898-.5527-1.0469-.9688-1.3721s-.9102-.4873-1.4814-.4873c-.5635,0-1.0557.1621-1.4756.4873-.4209.3252-.7432.7822-.9688,1.3721-.2256.5889-.3379,1.2822-.3379,2.0801,0,.832.1123,1.5527.3379,2.1641s.5459,1.0811.9619,1.4102c.416.3301.9102.4941,1.4824.4941Z"/><path d="m104.6861,30.375c-.1562-.0605-.2344-.1689-.2344-.3252,0-.0518.0127-.1035.0391-.1562.459-.9961.6895-2.123.6895-3.3799v-2.3789c0-.1992.0684-.3662.208-.5.1377-.1348.3027-.2021.4932-.2021h5.2266c.043,0,.0645-.0254.0645-.0781l-.0254-.2207c-.0176-.1123.0127-.2148.0908-.3057s.1777-.1357.2988-.1357c.0957,0,.1846.0322.2666.0967.082.0654.1279.1543.1367.2666.0088.0439.0166.0908.0254.1436.0088.0518.0176.1084.0264.1689.0176.043.043.0645.0781.0645h1.0527c.0781,0,.0957-.0303.0518-.0908l-.0518-.0781c-.0518-.0781-.0781-.1514-.0781-.2207,0-.1475.0654-.251.1953-.3125.0693-.0342.1426-.0518.2207-.0518.208,0,.3516.0869.4297.2598.043.0703.0801.1416.1104.2148.0303.0742.0586.1455.084.2148.0088.043.0391.0645.0908.0645h.3643c.1123,0,.2041.0391.2734.1172s.1035.1689.1035.2734c0,.1123-.0371.2031-.1104.2725-.0732.0693-.1621.1045-.2666.1045h-2.3271c-.0605,0-.0859.0254-.0781.0781.0781.459.1738.9482.2861,1.4688.1133.5195.2295,1.0186.3516,1.4951.0078.0342.0234.0537.0449.0586.0215.0039.041-.0068.0586-.0332.1992-.3027.373-.5977.5205-.8838s.2637-.5498.3506-.793c.0518-.1729.1689-.2598.3516-.2598.1211,0,.2188.041.292.123.0732.083.1104.1719.1104.2666,0,.0518-.0039.0908-.0127.1172-.1387.3984-.3271.8018-.5654,1.209s-.5098.7979-.8125,1.1699c-.0176.0352-.0215.0742-.0127.1172.1641.3896.3574.7021.5781.9355.2207.2344.4531.3516.6953.3516.1826,0,.3555-.0518.5205-.1562.0605-.0342.1299-.0518.208-.0518.1553,0,.2598.0605.3115.1816.0264.0781.0391.1523.0391.2207,0,.2002-.082.3428-.2471.4297-.1387.0605-.2754.1055-.4092.1367-.1348.0303-.2715.0449-.4102.0449-.1816,0-.3506-.0254-.5068-.0781-.2686-.0869-.5195-.2471-.7539-.4805-.2334-.2344-.4375-.5244-.6104-.8711-.0264-.0518-.0615-.0566-.1045-.0127-.2686.251-.5391.4766-.8125.6758s-.5391.3594-.7998.4805c-.0518.0176-.0947.0264-.1299.0264-.0957,0-.1865-.0352-.2725-.1045-.0869-.0693-.1299-.1641-.1299-.2852,0-.1562.0771-.2773.2334-.3643.3125-.1475.6045-.3271.8779-.54.2725-.2119.5303-.4434.7734-.6953.0254-.043.0342-.082.0254-.1172-.1816-.5889-.3438-1.2236-.4873-1.9043-.1426-.6797-.2617-1.3105-.3574-1.8916-.0176-.043-.0479-.0645-.0908-.0645h-5.1875c-.0518,0-.0771.0254-.0771.0781v2.2354c0,.3379-.0244.7197-.0723,1.1445s-.1211.8516-.2207,1.2803-.2275.8213-.3838,1.1768c-.0342.0859-.0947.1533-.1816.2012s-.1777.0713-.2734.0713h-.0771c-.0264,0-.0527-.0039-.0781-.0127Zm.1816-7.8906c-.1123,0-.2061-.0371-.2793-.1113-.0742-.0732-.1104-.1621-.1104-.2666,0-.1123.0391-.2051.1172-.2793.0771-.0732.1689-.1104.2725-.1104h1.7549c.0518,0,.0781-.0264.0781-.0781v-1.3262c0-.1123.0371-.2031.1104-.2725.0742-.0693.1631-.1045.2666-.1045.0957,0,.1797.0352.2539.1045.0732.0693.1104.1602.1104.2725v1.3262c0,.0518.0254.0781.0781.0781h1.7676c.0518,0,.0781-.0264.0781-.0781v-1.8848c0-.1211.041-.2207.123-.2988.083-.0781.1807-.1172.293-.1172.1211,0,.2207.0391.2988.1172s.1172.1777.1172.2988v.4033c0,.0518.0264.0781.0781.0781h3.1719c.1035,0,.1924.0342.2666.1035.0732.0693.1104.1602.1104.2734,0,.1123-.0371.2061-.1104.2793-.0742.0732-.1631.1104-.2666.1104h-3.1719c-.0518,0-.0781.0264-.0781.0781v.5586c0,.0518.0264.0781.0781.0781h4.4199c.1123,0,.2061.0391.2793.1172s.1104.1689.1104.2725c0,.1133-.0391.2041-.1172.2734-.0771.0693-.1689.1045-.2725.1045h-9.8281Zm1.5342,6.8896c-.1299-.0693-.1953-.1816-.1953-.3379,0-.0605.0215-.126.0654-.1953.1299-.2256.2578-.4785.3828-.7607.126-.2812.2412-.5781.3447-.8906.0693-.1729.1953-.2598.377-.2598.1211,0,.2188.041.293.124.0732.082.1104.1709.1104.2666,0,.043-.0088.0908-.0264.1426-.0859.2598-.1973.5459-.3311.8584-.1348.3115-.2842.6152-.4482.9092-.0781.1309-.1953.1953-.3516.1953-.0869,0-.1602-.0176-.2207-.0518Zm1.2998.9492c-.0869-.0176-.1602-.0635-.2207-.1367-.0605-.0742-.0908-.1582-.0908-.2539,0-.1211.043-.2158.1299-.2861.0859-.0684.1855-.0947.2988-.0771.0518.0088.1016.0146.1494.0195.0479.0039.0889.0059.123.0059.208,0,.3125-.0908.3125-.2725v-3.3154c0-.0518-.0264-.0781-.0781-.0781h-1.4561c-.1035,0-.1904-.0342-.2598-.1035s-.1045-.1562-.1045-.2607c0-.1035.0352-.1904.1045-.2598s.1562-.1035.2598-.1035h3.6016c.1035,0,.1904.0342.2598.1035s.1035.1562.1035.2598c0,.0957-.0342.1807-.1035.2539-.0693.0742-.1562.1104-.2598.1104h-1.2354c-.0518,0-.0781.0264-.0781.0781v3.3154c0,.6846-.3643,1.0264-1.0918,1.0264-.0605,0-.1191-.002-.1758-.0059-.0566-.0049-.1191-.0117-.1885-.0195Zm3.0293-1.4561c-.0518.0176-.0908.0254-.1172.0254-.0605,0-.123-.0215-.1885-.0645-.0654-.0439-.1104-.1045-.1367-.1826-.0781-.2246-.1758-.4717-.292-.7402-.1172-.2686-.2275-.5029-.332-.7021-.0342-.0605-.0518-.126-.0518-.1953,0-.1387.0605-.2344.1816-.2861.0605-.0342.126-.0518.1953-.0518.1562,0,.2686.0654.3379.1953.1387.2334.2646.4873.377.7598.1123.2734.2041.5186.2734.7354.0078.0254.0127.0693.0127.1299,0,.1729-.0869.2988-.2598.377Z"/><path d="m123.6793,30.4395c-.1133,0-.2109-.041-.293-.123s-.123-.1797-.123-.293v-3.6133c0-.0352-.0117-.0566-.0332-.0654s-.041,0-.0576.0264c-.3555.416-.7803.8467-1.2744,1.293-.4941.4473-1.0225.8672-1.5859,1.2617s-1.123.7207-1.6768.9814c-.0527.0166-.0957.0254-.1299.0254-.0957,0-.1826-.0371-.2607-.1104s-.1172-.167-.1172-.2793c0-.208.0996-.3594.2998-.4551.3721-.1729.7754-.4053,1.209-.6953.4326-.29.8594-.6152,1.2803-.9756.4199-.3594.8076-.7275,1.1631-1.1045s.6455-.7344.8711-1.0723c.0176-.0264.0195-.0479.0068-.0654s-.0322-.0264-.0586-.0264h-4.082c-.1123,0-.208-.0381-.2861-.1162s-.1172-.1738-.1172-.2861c0-.1211.0391-.2188.1172-.293.0781-.0732.1738-.1104.2861-.1104h4.3682c.0518,0,.0781-.0254.0781-.0781v-2.1709c0-.0518-.0264-.0781-.0781-.0781h-3.2246c-.1123,0-.208-.0391-.2852-.1172-.0781-.0771-.1172-.1729-.1172-.2852,0-.1133.0391-.208.1172-.2861.0771-.0781.1729-.1172.2852-.1172h3.2246c.0518,0,.0781-.0264.0781-.0781v-1.3125c0-.1221.041-.2217.123-.2998.082-.0771.1797-.1162.293-.1162.1211,0,.2207.041.2988.123s.1172.1797.1172.293v1.3125c0,.0518.0254.0781.0781.0781h3.25c.1123,0,.208.0371.2852.1104.0781.0742.1172.1709.1172.293,0,.1123-.0391.208-.1172.2852-.0771.0781-.1729.1172-.2852.1172h-3.25c-.0527,0-.0781.0264-.0781.0781v2.1709c0,.0527.0254.0781.0781.0781h4.3936c.1123,0,.208.0371.2861.1104.0781.0742.1172.1719.1172.293,0,.1123-.0391.208-.1172.2861s-.1738.1162-.2861.1162h-4.043c-.0693,0-.0908.0264-.0654.0781.2168.3301.4902.6768.8193,1.04.3291.3643.6973.7266,1.1055,1.0859.4072.3594.834.6953,1.2803,1.0078.4463.3115.8945.5762,1.3457.793.0947.0342.1641.0928.208.1748.043.083.0645.1719.0645.2666,0,.1221-.0391.2188-.1172.293-.0781.0732-.1689.1104-.2725.1104-.0605,0-.1084-.0088-.1436-.0264-.3027-.1387-.6494-.333-1.04-.585-.3896-.251-.7949-.541-1.2148-.8711-.4209-.3291-.8301-.6865-1.2285-1.0723-.3994-.3857-.7588-.7822-1.0791-1.1895-.0176-.0342-.0371-.0479-.0586-.0391s-.0322.0303-.0322.0654v3.7432c0,.1133-.042.2109-.124.293s-.1797.123-.292.123Z"/><path d="m133.7662,24.1611c-.208-.1045-.4336-.208-.6758-.3125-.2432-.1035-.4814-.1943-.7148-.2725-.0869-.0264-.1582-.0762-.2148-.1494-.0566-.0742-.085-.1543-.085-.2412,0-.1211.041-.2158.124-.2852.082-.0693.1709-.1045.2666-.1045.0518,0,.0908.0049.1172.0127.2334.0615.4785.1455.7344.2539.2549.1084.5.2236.7344.3447.1641.0781.2471.2119.2471.4023,0,.0527-.0137.1133-.0391.1826-.0264.0605-.0693.1104-.1299.1494s-.126.0586-.1953.0586c-.0605,0-.1172-.0137-.1689-.0391Zm-1.3389,6.292c-.165-.0605-.2471-.1777-.2471-.3516,0-.0518.0127-.1035.0391-.1553.2939-.6064.5654-1.2832.8125-2.0283s.4395-1.4863.5781-2.2227c.0439-.208.1689-.3125.377-.3125.1475,0,.2627.0586.3447.1758s.1064.2363.0713.3574c-.0781.416-.1924.8818-.3447,1.3975-.1514.5156-.3164,1.0254-.4932,1.5273-.1777.5029-.3535.9492-.5273,1.3389-.0859.1992-.2383.2988-.4541.2988-.0264,0-.0527-.002-.0781-.0059-.0264-.0049-.0527-.0107-.0781-.0195Zm1.4424-9.3857c-.4326-.1914-.8838-.3643-1.3516-.5205-.1904-.0693-.2861-.1953-.2861-.377,0-.1211.0391-.2188.1172-.293.0781-.0732.1689-.1104.2734-.1104.0518,0,.0908.0049.1162.0137.2344.0605.4814.1406.7412.2402s.5068.2061.7412.3184c.1562.0693.2334.1953.2334.377,0,.1211-.0381.2188-.1162.293-.0781.0732-.1689.1104-.2734.1104-.0342,0-.0674-.0068-.0977-.0195-.0303-.0137-.0625-.0244-.0977-.0322Zm1.7295,9.3594c-.1123,0-.2061-.0371-.2793-.1104-.0742-.0732-.1104-.167-.1104-.2793v-4.6543c0-.1992.0693-.3662.208-.5.1377-.1348.3027-.2021.4932-.2021h2.3662c.0518,0,.0781-.0254.0781-.0781v-.9355c0-.0518-.0264-.0781-.0781-.0781h-3.3672c-.1123,0-.2051-.0391-.2793-.1172-.0732-.0781-.1104-.1689-.1104-.2725,0-.1133.0371-.2061.1104-.2803.0742-.0732.167-.1104.2793-.1104h2.0801c.0527,0,.0781-.0254.0781-.0781v-1.3125c0-.0518-.0254-.0781-.0781-.0781h-1.5078c-.1123,0-.2061-.0391-.2793-.1172-.0742-.0781-.1104-.1689-.1104-.2725,0-.1133.0391-.2061.1172-.2793.0771-.0742.1689-.1113.2725-.1113h1.5078c.0527,0,.0781-.0254.0781-.0781v-.6758c0-.1123.0391-.208.1172-.2861.0781-.0771.1729-.1162.2861-.1162.1035,0,.1953.0391.2725.1162.0781.0781.1172.1738.1172.2861v.6758c0,.0527.0264.0781.0781.0781h1.6123c.0518,0,.0781-.0254.0781-.0781v-.6758c0-.1123.0391-.208.1162-.2861.0781-.0771.1738-.1162.2861-.1162.1133,0,.208.0391.2861.1162.0781.0781.1172.1738.1172.2861v.6758c0,.0527.0264.0781.0781.0781h1.5078c.1045,0,.1953.0371.2734.1113.0781.0732.1162.166.1162.2793,0,.1123-.0381.2061-.1162.2793s-.1689.1104-.2734.1104h-1.5078c-.0518,0-.0781.0264-.0781.0781v1.3125c0,.0527.0264.0781.0781.0781h2.0801c.1123,0,.2061.0391.2793.1172s.1104.1689.1104.2734c0,.1123-.0391.2061-.1172.2793s-.1689.1104-.2725.1104h-3.3799c-.0527,0-.0781.0264-.0781.0781v.9355c0,.0527.0254.0781.0781.0781h2.3652c.2002,0,.3662.0693.501.208.1338.1387.2012.3037.2012.4941v3.8613c0,.7969-.5322,1.1875-1.5986,1.1699-.1045,0-.1953-.041-.2734-.124-.0771-.082-.1162-.1797-.1162-.292,0-.1045.0391-.1973.1162-.2793.0781-.083.1738-.124.2861-.124.3125,0,.5244-.0215.6377-.0645.1123-.0439.1689-.1387.1689-.2861v-3.7314c0-.0518-.0264-.0781-.0781-.0781h-2.21c-.0527,0-.0781.0264-.0781.0781v2.7559c0,.0527.0254.0781.0781.0781h.7148c.0518,0,.0781-.0254.0781-.0781v-1.6641c0-.1123.0361-.2051.1104-.2793.0732-.0732.1621-.1104.2666-.1104.1123,0,.2051.0391.2793.1172.0732.0781.1104.1689.1104.2725v1.8076c0,.1904-.0693.3555-.208.4941s-.3037.208-.4941.208h-2.6387c-.1904,0-.3555-.0693-.4941-.208s-.208-.3037-.208-.4941v-1.8076c0-.1123.0371-.2051.1104-.2793.0742-.0732.1631-.1104.2666-.1104.1123,0,.2061.0391.2793.1172.0742.0781.1113.1689.1113.2725v1.6641c0,.0527.0254.0781.0771.0781h.7021c.0518,0,.0781-.0254.0781-.0781v-2.7559c0-.0518-.0264-.0781-.0781-.0781h-2.1973c-.0518,0-.0771.0264-.0771.0781v4.5244c0,.1123-.0371.2061-.1113.2793-.0732.0732-.1709.1104-.292.1104Zm2.3398-7.6182h1.6123c.0518,0,.0781-.0254.0781-.0781v-1.3125c0-.0518-.0264-.0781-.0781-.0781h-1.6123c-.0518,0-.0781.0264-.0781.0781v1.3125c0,.0527.0264.0781.0781.0781Z"/><path d="m152.0181,29.3613c-.1211.0088-.2334-.0264-.3379-.1045-.1035-.0781-.1562-.1865-.1562-.3252,0-.1035.0332-.1963.0977-.2793.0654-.082.1543-.1318.2666-.1494,1.1006-.1729,1.9453-.5459,2.5352-1.1182.5889-.5723.8838-1.3037.8838-2.1973,0-.5801-.1406-1.0918-.4229-1.5332-.2812-.4424-.6543-.791-1.1172-1.0469-.4639-.2559-.9688-.3838-1.5146-.3838-.0693,0-.1133.0352-.1299.1045-.165.7451-.3623,1.4814-.5918,2.21-.2295.7275-.5088,1.3955-.8389,2.002-.7275,1.3516-1.4814,2.0283-2.2617,2.0283-.043,0-.0889-.0029-.1367-.0068s-.0928-.0107-.1357-.0195c-.3994-.0957-.6982-.3359-.8975-.7217s-.2988-.8428-.2988-1.3711c0-.4854.0889-.999.2666-1.541.1768-.541.4395-1.0508.7861-1.5273.4941-.6758,1.0986-1.1768,1.8135-1.501.7148-.3252,1.4404-.4883,2.1777-.4883.5977,0,1.168.1064,1.709.3184.542.2129,1.0166.5225,1.4238.9297.4072.4082.6973.915.8711,1.5215.0518.1641.0889.3379.1104.5195.0215.1826.0322.3691.0322.5596,0,.4502-.0801.8984-.2402,1.3447-.1602.4473-.4072.8633-.7412,1.248-.333.3857-.7598.7129-1.2803.9814-.5195.2695-1.1436.4512-1.8721.5469Zm-4.0947-1.9639c.1475.2344.3115.3516.4941.3516.1904,0,.3936-.1084.6104-.3252s.4355-.5107.6572-.8838c.2207-.373.4307-.7891.6299-1.248s.3789-.9385.54-1.4365c.1602-.498.2881-.9775.3828-1.4365v-.0264c0-.0781-.0381-.1084-.1162-.0908-.5723.0957-1.0986.3145-1.5801.6562-.4805.3428-.873.7695-1.1768,1.2812-.207.3555-.3662.7344-.4736,1.1367-.1084.4033-.1631.7744-.1631,1.1123,0,.3809.0654.6846.1953.9092Z"/><path d="m166.0328,30.4014c-.1045-.0176-.1914-.0654-.2607-.1436s-.1035-.1689-.1035-.2725c0-.1396.0479-.249.1426-.332.0957-.082.2129-.1143.3516-.0977.1992.0264.377.0391.5332.0391.4766,0,.832-.0908,1.0654-.2725.2344-.1826.3926-.4268.4746-.7344s.1367-.6484.1621-1.0205c.0352-.3818.0674-.791.0977-1.2285s.0547-.8428.0723-1.2158c0-.0518-.0264-.0781-.0781-.0781h-3.835c-.0352,0-.0615.0215-.0781.0654-.3213,1.083-.8086,2.0732-1.4629,2.9697-.6543.8975-1.5361,1.6104-2.6455,2.1387-.0518.0264-.0996.0391-.1426.0391-.0957,0-.1807-.0371-.2539-.1104-.0732-.0742-.1104-.1709-.1104-.293,0-.0947.0264-.1885.0781-.2793s.125-.1582.2207-.2012c2.3838-1.2051,3.7178-3.6318,4.0039-7.2803,0-.0518-.0254-.0781-.0781-.0781h-3.6396c-.1123,0-.2129-.041-.2988-.123-.0869-.082-.1299-.1797-.1299-.293,0-.1211.041-.2207.123-.2988s.1846-.1172.3057-.1172h4.3682c.0518,0,.0781-.0254.0781-.0781v-1.3252c0-.1221.041-.2236.123-.3057s.1846-.124.3057-.124.2227.042.3057.124c.082.082.123.1836.123.3057v1.3252c0,.0527.0264.0781.0781.0781h4.3682c.1211,0,.2207.0391.2988.1172s.1172.1777.1172.2988c0,.1133-.0391.2109-.1172.293s-.1777.123-.2988.123h-5.1221c-.0518,0-.0781.0088-.0781.0264-.0254.3467-.0605.6953-.1035,1.0469-.0439.3506-.1045.6953-.1826,1.0332,0,.0605.0264.0908.0781.0908h3.8613c.1904,0,.3525.0693.4873.208s.1973.3037.1885.4941c-.0176.4072-.041.8711-.0713,1.3906-.0303.5205-.0674.9971-.1104,1.4307-.0527.5635-.1631,1.0459-.332,1.4492s-.4336.71-.793.9229c-.3594.2119-.8604.3184-1.501.3184-.0869,0-.1807-.002-.2803-.0059-.0996-.0049-.2012-.0117-.3047-.0195Z"/><path d="m49.4752,53.1768c-.1133,0-.208-.0391-.2861-.1172s-.1172-.1729-.1172-.2861v-5.5371c0-.0352-.0107-.0566-.0322-.0654-.0225-.0088-.042,0-.0586.0264-.0781.0947-.1582.1885-.2402.2793-.083.0908-.1631.1797-.2412.2666-.0781.0781-.1689.1172-.2725.1172-.1299,0-.2344-.0479-.3125-.1436-.0693-.0781-.1035-.1777-.1035-.2988,0-.1387.043-.251.1299-.3379,1.1611-1.1875,1.9414-2.7305,2.3398-4.6279.0176-.0957.0605-.1709.1299-.2275s.1475-.085.2344-.085c.1475,0,.2578.0498.3311.1494s.1016.2109.085.332c-.2344,1.1699-.6162,2.2314-1.1445,3.1846-.0176.0352-.0254.0654-.0254.0908v6.877c0,.1133-.0391.208-.1172.2861s-.1777.1172-.2988.1172Zm5.1611,0c-.1133,0-.208-.0391-.2861-.1172s-.1172-.1729-.1172-.2861v-2.8857c0-.0342-.0107-.0557-.0322-.0645-.0225-.0088-.042,0-.0586.0254-.3994.4854-.8848.9707-1.4561,1.4561-.5723.4854-1.1533.9014-1.7422,1.248-.0352.0088-.0654.0195-.0908.0322-.0264.0137-.0566.0195-.0908.0195-.1475,0-.2646-.0732-.3516-.2207-.0342-.0605-.0518-.125-.0518-.1953,0-.1553.0693-.2764.208-.3633.6152-.3818,1.2305-.8213,1.8457-1.3193.6152-.499,1.1133-1.0254,1.4951-1.5801.043-.0605.0264-.0908-.0518-.0908h-2.8086c-.1123,0-.208-.0391-.2852-.1172-.0781-.0781-.1172-.1729-.1172-.2861,0-.1123.0391-.208.1172-.2861.0771-.0771.1729-.1162.2852-.1162h3.1074c.0518,0,.0781-.0264.0781-.0781v-1.0791c0-.0518-.0264-.0781-.0781-.0781h-1.7295c-.1904,0-.3555-.0693-.4932-.208-.1387-.1387-.208-.3037-.208-.4941v-2.8076c0-.1904.0693-.3555.208-.4941.1377-.1387.3027-.208.4932-.208h4.5117c.1992,0,.3662.0693.5.208.1348.1387.2021.3037.2021.4941v2.8076c0,.1904-.0674.3555-.2021.4941-.1338.1387-.3008.208-.5.208h-1.8076c-.0518,0-.0781.0264-.0781.0781v1.0791c0,.0518.0264.0781.0781.0781h3.1982c.1123,0,.2061.0391.2793.1162.0742.0781.1104.1738.1104.2861,0,.1133-.0362.208-.1104.2861-.0732.0781-.167.1172-.2793.1172h-2.7295c-.0703,0-.0918.0303-.0654.0908.2256.3379.5029.6875.832,1.0469s.6865.6953,1.0723,1.0068c.3857.3125.7695.5811,1.1504.8066.1738.0957.2607.2383.2607.4287,0,.1211-.0391.2188-.1172.293-.0781.0732-.165.1104-.2598.1104-.0781,0-.1396-.0176-.1826-.0527-.3643-.2246-.7363-.4893-1.1182-.793-.3809-.3027-.7471-.6318-1.0986-.9873-.3506-.3555-.6602-.7197-.9287-1.0918-.0176-.0264-.0371-.0352-.0586-.0264s-.0332.0303-.0332.0645v3.042c0,.1133-.0381.208-.1162.2861s-.1777.1172-.2988.1172Zm-2.0156-7.1885h4.1211c.0518,0,.0781-.0264.0781-.0781v-2.4316c0-.0518-.0264-.0771-.0781-.0771h-4.1211c-.0518,0-.0781.0254-.0781.0771v2.4316c0,.0518.0264.0781.0781.0781Z"/><path d="m62.2154,44.9346c-.1133,0-.2061-.0361-.2803-.1104-.0732-.0732-.1104-.167-.1104-.2793,0-.1045.0371-.1953.1104-.2734.0742-.0771.167-.1162.2803-.1162h3.042c.1123,0,.2051.0391.2793.1162.0732.0781.1104.1689.1104.2734,0,.1123-.0371.2061-.1104.2793-.0742.0742-.167.1104-.2793.1104h-3.042Zm.6104,8.1641c-.1992,0-.3662-.0693-.5-.208-.1348-.1387-.2021-.3027-.2021-.4941v-2.3008c0-.1992.0674-.3662.2021-.5.1338-.1348.3008-.2021.5-.2021h1.8203c.1992,0,.3662.0674.5.2021.1348.1338.2021.3008.2021.5v2.3008c0,.1914-.0674.3555-.2021.4941-.1338.1387-.3008.208-.5.208h-1.8203Zm-.2861-9.8926c-.1123,0-.208-.0391-.2852-.1172-.0781-.0781-.1172-.1729-.1172-.2861,0-.1123.0391-.208.1172-.2861.0771-.0781.1729-.1162.2852-.1162h2.3926c.1123,0,.2051.0381.2793.1162.0732.0781.1104.1738.1104.2861,0,.1133-.0371.208-.1104.2861-.0742.0781-.167.1172-.2793.1172h-2.3926Zm.0527,3.4834c-.1133,0-.208-.0381-.2862-.1162-.0781-.0781-.1172-.1738-.1172-.2861,0-.1045.0391-.1953.1172-.2734.0781-.0781.1729-.1172.2862-.1172h2.2881c.1123,0,.208.0391.2852.1172.0781.0781.1172.1689.1172.2734,0,.1123-.0391.208-.1172.2861-.0771.0781-.1729.1162-.2852.1162h-2.2881Zm0,1.7559c-.1133,0-.208-.0391-.2862-.1172-.0781-.0781-.1172-.1738-.1172-.2861s.0391-.208.1172-.2861c.0781-.0781.1729-.1172.2862-.1172h2.2881c.1123,0,.208.0391.2852.1172.0781.0781.1172.1738.1172.2861s-.0391.208-.1172.2861c-.0771.0781-.1729.1172-.2852.1172h-2.2881Zm.3896,3.9131h1.5078c.0518,0,.0781-.0264.0781-.0781v-2.0801c0-.0527-.0264-.0781-.0781-.0781h-1.5078c-.0518,0-.0781.0254-.0781.0781v2.0801c0,.0518.0264.0781.0781.0781Zm4.3164-3.1465c-.1738,0-.3232-.0625-.4492-.1885-.125-.126-.1885-.2754-.1885-.4482v-2.1973c0-.0342-.0107-.0566-.0322-.0654-.0215-.0078-.041.0049-.0586.0391-.0605.0615-.1211.124-.1816.1885-.0605.0654-.1221.1279-.1826.1885-.0605.0615-.1475.0918-.2598.0918-.1299,0-.2295-.0479-.2988-.1436-.0605-.0605-.0908-.1387-.0908-.2334,0-.1221.0469-.2217.1426-.2998.5283-.4854.9141-1.1006,1.1572-1.8457.1035-.2422.2734-.3643.5068-.3643.1123,0,.2012.0439.2666.1299.0654.0869.085.1777.0586.2734-.0176.0605-.0391.126-.0654.1953-.0254.0693-.0518.1387-.0781.208-.0254.0605-.0039.0908.0654.0908h1.6514c.0518,0,.082-.0176.0908-.0518.0518-.0869.1016-.1797.1494-.2803.0479-.0996.0889-.1963.123-.292.0781-.1992.2295-.2988.4551-.2988.1221,0,.2129.043.2734.1299s.0732.1777.0391.2725c-.0264.0703-.0518.1416-.0781.2148-.0264.0742-.0566.1455-.0908.2148-.0264.0605-.0049.0908.0645.0908h2.0283c.0957,0,.1758.0322.2402.0977.0655.0645.0977.1406.0977.2275,0,.0947-.0322.1748-.0977.2402-.0644.0645-.1445.0977-.2402.0977h-2.2617c-.0527,0-.0781.0254-.0781.0781v.4414c0,.0518.0254.0781.0781.0781h1.9883c.0957,0,.1719.0303.2275.0908.0566.0605.085.1348.085.2217,0,.0859-.0283.1621-.085.2275-.0557.0645-.1318.0967-.2275.0967h-1.9883c-.0527,0-.0781.0264-.0781.0781v.4424c0,.0518.0254.0781.0781.0781h1.9883c.0957,0,.1719.0303.2275.0908.0566.0605.085.1348.085.2207,0,.0869-.0283.1611-.085.2217-.0557.0605-.1318.0908-.2275.0908h-1.9883c-.0527,0-.0781.0254-.0781.0781v.4414c0,.0518.0254.0781.0781.0781h2.2617c.0957,0,.1758.0322.2402.0977.0655.0645.0977.1455.0977.2402,0,.0869-.0322.1631-.0977.2275-.0644.0654-.1445.0977-.2402.0977h-5.0176Zm5.0693,3.9258c-.6064-.0693-1.1758-.167-1.709-.292-.5332-.126-1.0166-.2803-1.4502-.4619-.0342-.0254-.0693-.0254-.1035,0-.5283.1992-1.0508.3555-1.5664.4678-.5156.1133-.9775.2041-1.3848.2734-.0957.0088-.1816-.0195-.2598-.085-.0781-.0645-.1172-.1494-.1172-.2529,0-.1221.0391-.2275.1172-.3184.0781-.0918.1729-.1455.2861-.1631.6758-.1035,1.3086-.2471,1.8975-.4287.0693-.0264.0742-.0605.0137-.1045-.0869-.0684-.1719-.1338-.2539-.1943s-.1621-.126-.2402-.1953c-.0605-.0605-.0908-.1426-.0908-.2471,0-.1035.0303-.1865.0908-.2471.0781-.0781.1729-.1172.2861-.1172.0947,0,.1728.0264.2334.0781.1562.1221.3164.2324.4814.332.1641.0996.3291.1924.4941.2793.043.0176.0771.0176.1035,0,.3037-.1299.5869-.2705.8516-.4229.2646-.1514.4922-.3096.6826-.4746.0264-.0166.0342-.0361.0264-.0576-.0088-.0225-.0312-.0332-.0654-.0332h-4.3555c-.1123,0-.2051-.0361-.2793-.1104-.0732-.0732-.1103-.1621-.1103-.2666,0-.1123.0371-.2051.1103-.2793.0742-.0732.167-.1104.2793-.1104h5.5645c.1045,0,.1885.0322.2539.0977.0645.0645.0967.1406.0967.2275,0,.0693-.0166.125-.0518.1689-.2422.3379-.5264.6416-.8516.9102s-.6777.5068-1.0596.7148c-.0781.043-.082.0732-.0127.0908.3037.0869.626.1602.9688.2207.3418.0605.7129.1172,1.1113.1689.1211.0088.2207.0586.2988.1494.0781.0918.1172.1973.1172.3184,0,.1133-.041.2041-.124.2734-.082.0693-.1748.0996-.2793.0908Zm-4.0684-9.3984c-.1133,0-.2061-.0371-.2803-.1113-.0732-.0732-.1104-.166-.1104-.2793v-.0391c0-.0166-.0254-.0254-.0781-.0254h-1.6377c-.1035,0-.1904-.0371-.2598-.1104-.0693-.0742-.1045-.1631-.1045-.2666,0-.0957.0352-.1797.1045-.2539.0693-.0732.1562-.1104.2598-.1104h1.6377c.0527,0,.0781-.0215.0781-.0654,0-.1123.0371-.2051.1104-.2793.0742-.0732.167-.1104.2803-.1104.1123,0,.2051.0391.2793.1172.0732.0781.1104.1689.1104.2725,0,.0439.0264.0654.0781.0654h1.0654c.0527,0,.0781-.0215.0781-.0654,0-.1123.0391-.2051.1172-.2793.0781-.0732.1689-.1104.2734-.1104.1123,0,.2051.0371.2793.1104.0732.0742.1104.167.1104.2793,0,.0439.0264.0654.0781.0654h1.5078c.1045,0,.1904.0371.2598.1104.0693.0742.1045.1582.1045.2539,0,.1035-.0352.1924-.1045.2666-.0693.0732-.1553.1104-.2598.1104h-1.5078c-.0518,0-.0781.0215-.0781.0645,0,.1133-.0371.2061-.1104.2793-.0742.0742-.167.1113-.2793.1113-.1133,0-.2061-.0391-.2803-.1172-.0732-.0781-.1104-.1689-.1104-.2734,0-.043-.0254-.0645-.0781-.0645h-1.0654c-.0518,0-.0781.0215-.0781.0645,0,.1133-.0391.2061-.1172.2793-.0781.0742-.1689.1113-.2725.1113Zm-.7676,2.3525h1.5859c.0518,0,.0781-.0264.0781-.0781v-.4414c0-.0527-.0264-.0781-.0781-.0781h-1.5859c-.0518,0-.0781.0254-.0781.0781v.4414c0,.0518.0264.0781.0781.0781Zm0,1.2354h1.5859c.0518,0,.0781-.0264.0781-.0781v-.4424c0-.0518-.0264-.0781-.0781-.0781h-1.5859c-.0518,0-.0781.0264-.0781.0781v.4424c0,.0518.0264.0781.0781.0781Zm0,1.2217h1.5859c.0518,0,.0781-.0264.0781-.0781v-.4414c0-.0527-.0264-.0781-.0781-.0781h-1.5859c-.0518,0-.0781.0254-.0781.0781v.4414c0,.0518.0264.0781.0781.0781Z"/><path d="m79.3228,53.0859c-.1904,0-.3555-.0693-.4941-.208s-.208-.3037-.208-.4941v-3.5879c0-.0781-.0303-.0996-.0908-.0654-.3984.1914-.8018.3691-1.209.5332-.4072.165-.8145.3076-1.2217.4297-.0264.0078-.0605.0127-.1045.0127-.1035,0-.1943-.0371-.2725-.1104-.0781-.0742-.1172-.1709-.1172-.293,0-.208.1045-.3506.3125-.4287.8232-.2686,1.6113-.5811,2.3652-.9365.7539-.3545,1.4648-.7451,2.1328-1.1699.0342-.0166.0449-.0361.0322-.0586-.0137-.0215-.0371-.0322-.0713-.0322h-4.1475c-.1123,0-.208-.0391-.2861-.1172s-.1172-.1729-.1172-.2861c0-.1123.0391-.208.1172-.2852.0781-.0781.1738-.1172.2861-.1172h3.7178c.0527,0,.0781-.0264.0781-.0781v-1.3525c0-.0518-.0254-.0771-.0781-.0771h-2.2617c-.1123,0-.208-.0391-.2861-.1172s-.1172-.1738-.1172-.2861c0-.1211.0391-.2188.1172-.293.0781-.0732.1738-.1104.2861-.1104h2.2617c.0527,0,.0781-.0254.0781-.0781v-.9482c0-.1221.041-.2217.124-.2998.082-.0771.1797-.1162.292-.1162.1211,0,.2188.0391.293.1162.0732.0781.1104.1777.1104.2998v.9482c0,.0527.0254.0781.0781.0781h1.7803c.1221,0,.2188.0391.293.1172.0732.0781.1104.1738.1104.2861s-.0391.208-.1172.2861-.1729.1172-.2861.1172h-1.7803c-.0527,0-.0781.0254-.0781.0771v1.3525c0,.0518.0254.0781.0781.0781h.7402c.0352,0,.0654-.0127.0918-.0391.6406-.4854,1.2129-.9883,1.7158-1.5078.502-.5205.9268-1.04,1.2734-1.5605.0957-.1553.2344-.2334.416-.2334.1309,0,.2324.041.3057.123.0742.083.1104.1709.1104.2666,0,.0605-.0166.1211-.0518.1816-.2949.46-.6475.915-1.0596,1.3652-.4111.4512-.8604.8887-1.3457,1.3135-.0342.0176-.0469.0361-.0391.0586.0088.0215.0303.0322.0654.0322h2.9121c.1211,0,.2188.0391.292.1172.0742.0771.1113.1729.1113.2852,0,.1133-.0371.208-.1113.2861-.0732.0781-.1709.1172-.292.1172h-4.0166c-.0264,0-.0566.0088-.0918.0264-.2686.1904-.5391.377-.8125.5586-.2725.1826-.5566.3604-.8516.5332-.0342.0176-.0469.0371-.0391.0586.0088.0215.0303.0322.0654.0322h3.8477c.1992,0,.3662.0693.501.208.1338.1387.2012.3037.2012.4941v3.7959c0,.1904-.0674.3555-.2012.4941-.1348.1387-.3018.208-.501.208h-4.8359Zm.1826-3.0156h4.4717c.0518,0,.0781-.0264.0781-.0781v-1.2227c0-.0518-.0264-.0771-.0781-.0771h-4.4717c-.0527,0-.0781.0254-.0781.0771v1.2227c0,.0518.0254.0781.0781.0781Zm0,2.2227h4.4717c.0518,0,.0781-.0264.0781-.0781v-1.2871c0-.0518-.0264-.0781-.0781-.0781h-4.4717c-.0527,0-.0781.0264-.0781.0781v1.2871c0,.0518.0254.0781.0781.0781Z"/><path d="m95.5601,52.1113c-.1211.0088-.2334-.0264-.3379-.1045-.1035-.0781-.1562-.1865-.1562-.3252,0-.1035.0332-.1963.0977-.2793.0654-.082.1543-.1318.2666-.1494,1.1006-.1729,1.9453-.5459,2.5352-1.1182.5889-.5723.8838-1.3037.8838-2.1973,0-.5801-.1406-1.0918-.4229-1.5332-.2812-.4424-.6543-.791-1.1172-1.0469-.4639-.2559-.9688-.3838-1.5146-.3838-.0693,0-.1133.0352-.1299.1045-.165.7451-.3623,1.4814-.5918,2.21-.2295.7275-.5088,1.3955-.8389,2.002-.7275,1.3516-1.4814,2.0283-2.2617,2.0283-.043,0-.0889-.0029-.1367-.0068s-.0928-.0107-.1357-.0195c-.3994-.0957-.6982-.3359-.8975-.7217s-.2988-.8428-.2988-1.3711c0-.4854.0889-.999.2666-1.541.1768-.541.4395-1.0508.7861-1.5273.4942-.6758,1.0987-1.1768,1.8135-1.501.7148-.3252,1.4404-.4883,2.1777-.4883.5977,0,1.168.1064,1.709.3184.542.2129,1.0166.5225,1.4238.9297.4072.4082.6973.915.8711,1.5215.0518.1641.0889.3379.1104.5195.0215.1826.0322.3691.0322.5596,0,.4502-.0801.8984-.2402,1.3447-.1602.4473-.4072.8633-.7412,1.248-.333.3857-.7598.7129-1.2803.9814-.5195.2695-1.1436.4512-1.8721.5469Zm-4.0947-1.9639c.1475.2344.3115.3516.4941.3516.1904,0,.3936-.1084.6104-.3252s.4355-.5107.6572-.8838c.2207-.373.4307-.7891.6299-1.248.1992-.459.3789-.9385.54-1.4365.1602-.498.2881-.9775.3828-1.4365v-.0264c0-.0781-.0381-.1084-.1162-.0908-.5723.0957-1.0986.3145-1.5801.6562-.4805.3428-.873.7695-1.1768,1.2812-.207.3555-.3662.7344-.4736,1.1367-.1084.4033-.1631.7744-.1631,1.1123,0,.3809.0654.6846.1953.9092Z"/><path d="m103.9966,51.7207c-.0605.0605-.1387.0908-.2344.0908-.1211,0-.2168-.0518-.2861-.1553-.0518-.0957-.0781-.1904-.0781-.2861,0-.1475.0527-.2734.1562-.377.4424-.4336.8125-.9102,1.1113-1.4307.2998-.5195.5381-1.042.7158-1.5664.1768-.5244.3047-.998.3828-1.4229.0176-.0527-.0088-.0781-.0781-.0781h-1.7549c-.1123,0-.2031-.0391-.2724-.1172s-.1045-.1689-.1045-.2734c0-.1035.0371-.1924.1104-.2656.0742-.0742.1631-.1113.2666-.1113h2.041c.1904,0,.3486.0703.4746.208.126.1387.1709.2998.1367.4814-.0957.667-.2646,1.3242-.5068,1.9697-.2432.6455-.54,1.2539-.8906,1.8262-.3516.5723-.748,1.0752-1.1895,1.5078Zm2.8984,1.4043c-.0947-.0176-.1748-.0635-.2402-.1367-.0645-.0732-.0977-.1582-.0977-.2529,0-.1221.0459-.2217.1367-.2998.0908-.0771.1924-.1074.3057-.0908.0947.0088.1836.0156.2666.0195.082.0049.1621.0068.2402.0068.3037,0,.542-.0322.7148-.0977.1738-.0654.2598-.1582.2598-.2793v-1.0791c0-.0518-.0254-.0781-.0771-.0781h-2.0938c-.1035,0-.1904-.0371-.2598-.1104s-.1035-.1582-.1035-.2539c0-.1035.0342-.1904.1035-.2598s.1562-.1035.2598-.1035h2.0938c.0518,0,.0771-.0264.0771-.0781v-.9492c0-.0518-.0254-.0781-.0771-.0781h-1.3916c-.0957,0-.1797-.0342-.2529-.1035-.0742-.0693-.1113-.1562-.1113-.2607,0-.1035.0352-.1904.1045-.2598s.1562-.1035.2598-.1035h1.3916c.0518,0,.0771-.0264.0771-.0781v-.9492c0-.0518-.0254-.0781-.0771-.0781h-.9238c-.1035,0-.1924-.0342-.2656-.1035-.0742-.0693-.1113-.1562-.1113-.2607,0-.1035.0371-.1904.1113-.2598.0732-.0693.1621-.1035.2656-.1035h.9238c.0518,0,.0771-.0264.0771-.0781v-1.2354c0-.1123.0391-.208.1172-.2861s.1738-.1172.2861-.1172c.0264,0,.0498.0029.0713.0068.0215.0049.0459.0107.0723.0195.0342.0088.0684.0088.1035,0,.2949-.1641.5762-.3613.8447-.5918.2686-.2295.5293-.4912.7803-.7861.043-.0605.0264-.0908-.0518-.0908h-4.7969c-.1133,0-.2109-.0391-.293-.1172s-.123-.1738-.123-.2861c0-.1211.041-.2207.123-.2988s.1797-.1172.293-.1172h5.7461c.1211,0,.2207.041.2988.124.0781.082.1172.1748.1172.2793,0,.0605-.0176.1211-.0527.1816-.3203.5293-.7256,1.0117-1.2148,1.4492-.4902.4385-.9775.7783-1.4629,1.0205-.0352.0088-.0518.0391-.0518.0918v.7539c0,.0518.0254.0781.0781.0781h1.0791c.1035,0,.1924.0342.2656.1035.0742.0693.1113.1562.1113.2598,0,.0957-.0371.1807-.1113.2539-.0732.0732-.1621.1104-.2656.1104h-1.0791c-.0527,0-.0781.0264-.0781.0781v.9492c0,.0518.0254.0781.0781.0781h1.5469c.1035,0,.1904.0342.2598.1035s.1045.1562.1045.2598c0,.0957-.0352.1807-.1045.2539s-.1562.1104-.2598.1104h-1.5469c-.0527,0-.0781.0264-.0781.0781v.9492c0,.0518.0254.0781.0781.0781h2.249c.1035,0,.1904.0342.2598.1035s.1035.1562.1035.2598c0,.0957-.0342.1807-.1035.2539s-.1562.1104-.2598.1104h-2.249c-.0527,0-.0781.0264-.0781.0781v1.0791c0,.3643-.1631.6475-.4873.8516-.3252.2031-.7734.3057-1.3457.3057-.0869,0-.1777-.0029-.2735-.0068-.0957-.0049-.1904-.0107-.2861-.0195Zm7.1631-.9229c-.4248-.373-.8125-.8369-1.1631-1.3916-.3516-.5537-.6562-1.1416-.917-1.7607-.2598-.6201-.4717-1.2266-.6367-1.8203s-.2725-1.1162-.3252-1.5664c-.0088-.1123.0215-.2129.0908-.2988.0693-.0869.1738-.1299.3125-.1299.0869,0,.167.0303.2402.0908.0742.0605.1152.1426.124.2471.0342.2334.084.4961.1494.7861.0645.29.1445.6006.2402.9297.0176.0605.0518.0693.1045.0254.2422-.1992.5039-.4541.7861-.7666.2812-.3115.5439-.6631.7861-1.0527.0693-.1045.1689-.1562.2988-.1562.0869,0,.1523.0176.1953.0518.1299.1045.1953.2256.1953.3643,0,.0693-.0215.1387-.0654.208-.1553.2598-.3438.5264-.5654.7998-.2207.2725-.4502.5283-.6885.7666-.2393.2383-.4707.4355-.6963.5918-.0342.0176-.043.0566-.0254.1172.2256.5977.498,1.1807.8193,1.748.3203.5674.6885,1.0469,1.1045,1.4365.1299.1123.1953.2598.1953.4424,0,.0859-.0176.1602-.0527.2207-.0693.1299-.1729.1953-.3115.1953-.0781,0-.1426-.0264-.1953-.0781Z"/><path d="m117.855,45c-.1133,0-.2061-.0371-.2803-.1104-.0732-.0742-.1104-.167-.1104-.2793,0-.1221.0371-.2188.1104-.293.0742-.0732.167-.1104.2803-.1104h3.0674c.1123,0,.2061.0371.2793.1104.0742.0742.1113.1709.1113.293,0,.1123-.0371.2051-.1113.2793-.0732.0732-.167.1104-.2793.1104h-3.0674Zm.3379-1.7031c-.1133,0-.2061-.0371-.2803-.1104-.0732-.0732-.1104-.1631-.1104-.2666,0-.1123.0371-.2061.1104-.2793.0742-.0742.167-.1104.2803-.1104h2.3916c.1123,0,.2061.0361.2793.1104.0742.0732.1104.167.1104.2793,0,.1035-.0361.1934-.1104.2666-.0732.0732-.167.1104-.2793.1104h-2.3916Zm.3379,9.7764c-.1992,0-.3662-.0693-.501-.208-.1338-.1387-.2012-.3037-.2012-.4941v-2.3926c0-.1992.0693-.3652.208-.5s.3027-.2012.4941-.2012h1.7549c.1992,0,.3662.0664.5.2012.1348.1348.2021.3008.2021.5v2.3926c0,.1992-.0674.3662-.2021.5-.1338.1348-.3008.2021-.5.2021h-1.7549Zm-.2988-6.3838c-.1045,0-.1934-.0361-.2666-.1104-.0742-.0732-.1104-.166-.1104-.2793,0-.1035.0342-.1953.1035-.2725.0693-.0781.1602-.1172.2734-.1172h2.3135c.1045,0,.1934.0391.2666.1172.0732.0771.1104.1689.1104.2725,0,.1045-.0371.1953-.1104.2734s-.1621.1162-.2666.1162h-2.3135Zm0,1.6777c-.1133,0-.2041-.0371-.2734-.1104-.0693-.0742-.1035-.167-.1035-.2803,0-.1035.0342-.1924.1035-.2666.0693-.0732.1602-.1104.2734-.1104h2.3135c.1045,0,.1934.0371.2666.1104.0732.0742.1104.1631.1104.2666,0,.1133-.0371.2061-.1104.2803-.0732.0732-.1621.1104-.2666.1104h-2.3135Zm.4551,3.9385h1.4424c.0518,0,.0781-.0254.0781-.0781v-2.1055c0-.0518-.0264-.0781-.0781-.0781h-1.4424c-.0527,0-.0781.0264-.0781.0781v2.1055c0,.0527.0254.0781.0781.0781Zm3.1455-1.5723c-.0605.0518-.1299.0771-.208.0771-.1387,0-.2471-.0605-.3252-.1816-.0342-.0605-.0518-.1299-.0518-.208,0-.1562.0605-.2812.1816-.377.4336-.3291.8369-.7197,1.209-1.1699.373-.4502.707-.9531,1.001-1.5078.0352-.0605.0176-.0908-.0518-.0908h-1.7158c-.1123,0-.208-.0391-.2861-.1172s-.1172-.1738-.1172-.2861.0391-.2061.1172-.2793c.0781-.0742.1738-.1113.2861-.1113h2.1191c.0518,0,.082-.0215.0908-.0645.0693-.1738.1348-.3535.1953-.54.0605-.1855.1211-.374.1816-.5654.0518-.1904.1729-.2852.3643-.2852.1299,0,.2334.0381.3115.1162s.1172.1738.1172.2861c0,.0439-.0039.0781-.0127.1045-.0352.1387-.0742.2793-.1172.4219-.0439.1436-.0908.2881-.1426.4355-.0264.0605-.0088.0908.0518.0908h2.8594c.1221,0,.2188.0391.293.1172.0732.0781.1104.1689.1104.2734,0,.1123-.0391.208-.1172.2861s-.1729.1172-.2861.1172h-3.2236c-.0518,0-.082.0166-.0908.0518-.3037.6064-.6895,1.2109-1.1572,1.8135s-.9971,1.1328-1.5859,1.5928Zm1.833-5.6943c-.1123,0-.208-.0391-.2861-.1172s-.1172-.1729-.1172-.2861v-.6104c0-.0527-.0254-.0781-.0781-.0781h-1.3252c-.1133,0-.2061-.0371-.2803-.1113-.0732-.0732-.1104-.166-.1104-.2793,0-.1035.0371-.1924.1104-.2666.0742-.0732.167-.1104.2803-.1104h1.3252c.0527,0,.0781-.0254.0781-.0781v-.6104c0-.1211.0391-.2188.1172-.293.0781-.0732.1738-.1104.2861-.1104s.208.0391.2861.1172.1172.1729.1172.2861v.6104c0,.0527.0254.0781.0781.0781h1.4688c.0518,0,.0781-.0254.0781-.0781v-.6104c0-.1211.0391-.2188.1172-.293.0771-.0732.1729-.1104.2852-.1104.1221,0,.2188.0391.293.1172.0732.0781.1104.1729.1104.2861v.6104c0,.0527.0264.0781.0781.0781h1.3262c.1123,0,.2051.0371.2793.1104.0732.0742.1104.1631.1104.2666,0,.1133-.0391.2061-.1172.2793-.0781.0742-.1689.1113-.2725.1113h-1.3262c-.0518,0-.0781.0254-.0781.0781v.6104c0,.1133-.0391.208-.1172.2861s-.1729.1172-.2861.1172c-.1123,0-.208-.0391-.2852-.1172-.0781-.0781-.1172-.1729-.1172-.2861v-.6104c0-.0527-.0264-.0781-.0781-.0781h-1.4688c-.0527,0-.0781.0254-.0781.0781v.6104c0,.1133-.0391.208-.1172.2861s-.1738.1172-.2861.1172Zm.2734,8.0342c-.1914,0-.3555-.0693-.4941-.208s-.208-.3037-.208-.4941v-2.665c0-.1992.0693-.3662.208-.501.1387-.1338.3027-.2012.4941-.2012h3.0811c.1992,0,.3652.0674.5.2012.1348.1348.2012.3018.2012.501v2.665c0,.1904-.0693.3555-.208.4941s-.3027.208-.4932.208h-3.0811Zm.1816-.7803h2.7041c.0518,0,.0781-.0264.0781-.0781v-2.3525c0-.0527-.0264-.0781-.0781-.0781h-2.7041c-.0518,0-.0781.0254-.0781.0781v2.3525c0,.0518.0264.0781.0781.0781Z"/><path d="m131.8951,52.5654c-.1133-.0771-.1689-.1904-.1689-.3379,0-.0693.0215-.1465.0645-.2334.5635-.8496,1.0527-1.7764,1.4688-2.7822.416-1.0049.7588-2.0234,1.0273-3.0547,0-.0088.002-.0156.0068-.0195.0039-.0049.0059-.0107.0059-.0195,0-.0693-.0391-.0957-.1162-.0781-.1914.0342-.377.0586-.5596.0713-.1816.0127-.3721.0195-.5723.0195-.1035,0-.208-.002-.3115-.0068-.1045-.0039-.2168-.0107-.3379-.0195-.0869-.0078-.165-.0498-.2344-.123s-.1035-.1621-.1035-.2666c0-.1211.0469-.2207.1426-.2988s.2041-.1123.3252-.1045c.2344.0264.4551.0391.6631.0391.3809,0,.793-.043,1.2354-.1299.0605-.0088.0947-.043.1035-.1035.0869-.4072.1602-.8037.2207-1.1895s.1084-.7646.1436-1.1377c.0166-.1123.0625-.2041.1367-.2734.0732-.0693.166-.1035.2793-.1035.1211,0,.2188.043.292.1299.0742.0869.1016.1865.085.2988-.0352.3291-.083.665-.1436,1.0078-.0605.3418-.125.6914-.1943,1.0459v.0264c0,.0693.0391.0996.1162.0908.1309-.0166.2578-.0303.3838-.0391.126-.0078.2451-.0127.3574-.0127.6934,0,1.2051.1689,1.5342.5068s.4639.8535.4033,1.5469c-.0352.4424-.0869.8906-.1562,1.3457s-.1455.8691-.2275,1.2412c-.082.373-.1543.6631-.2148.8711-.3203,1.1445-.9141,1.7158-1.7803,1.7158-.4336,0-.9365-.1426-1.5088-.4287-.1475-.0693-.2207-.1953-.2207-.377,0-.1299.043-.2314.1299-.3057.0869-.0732.1826-.1104.2861-.1104.0352,0,.0674.0049.0977.0127.0303.0088.0625.0225.0977.0391.459.252.832.377,1.1182.377.3027,0,.5498-.1445.7402-.4355.1914-.29.3516-.7617.4814-1.417.1299-.6543.251-1.5225.3643-2.6064.0078-.0342.0127-.0713.0127-.1104v-.1104c0-.1475-.0283-.2969-.084-.4482-.0566-.1514-.1719-.2812-.3447-.3906-.1738-.1074-.4375-.1621-.793-.1621-.1221,0-.2578.0068-.4102.0195-.1514.0127-.3135.041-.4873.085-.0693.0088-.1123.0469-.1299.1162-.1904.7803-.4229,1.5605-.6953,2.3408-.2734.7793-.5742,1.5273-.9033,2.2422-.3301.7148-.6895,1.3672-1.0791,1.9561-.0693.1133-.1738.1689-.3125.1689-.0781,0-.1553-.0254-.2334-.0781Zm9.9443-2.3262c-.0518.0176-.0947.0254-.1299.0254-.0957,0-.1816-.0322-.2598-.0977-.0781-.0645-.1299-.1445-.1562-.2402-.1553-.5723-.3633-1.126-.624-1.6641-.2598-.5371-.5479-1.0371-.8643-1.501s-.6348-.8604-.9551-1.1895c-.0703-.0781-.1045-.1777-.1045-.2998,0-.1377.0479-.2422.1436-.3115.0947-.0869.208-.1299.3379-.1299.1465,0,.2637.0566.3506.1689.2344.2686.4766.5938.7285.9746.251.3818.4951.7852.7344,1.209.2383.4248.4551.8496.6494,1.2744.1953.4248.3486.8193.4619,1.1826.0176.0693.0254.1172.0254.1436,0,.2168-.1123.3682-.3379.4551Zm-.6885-5.3174c-.0176.0088-.0479.0127-.0908.0127-.1133,0-.1914-.0518-.2344-.1553-.208-.5547-.5156-1.0098-.9229-1.3652-.0605-.0605-.0908-.126-.0908-.1953,0-.043.0215-.0947.0645-.1562.0527-.0605.1172-.0908.1953-.0908.0518,0,.1084.0215.1689.0654.4424.4072.793.9189,1.0527,1.5342.0088.0176.0156.0342.0195.0518.0049.0176.0068.0342.0068.0518,0,.1045-.0566.1865-.1689.2471Zm1.0654-.4941c-.0342.0176-.0645.0264-.0908.0264-.1123,0-.1816-.0518-.208-.1562-.2334-.5635-.5547-1.0439-.9619-1.4434-.043-.0342-.0645-.0859-.0645-.1553s.0166-.1211.0518-.1562c.0518-.0518.1123-.0781.1816-.0781.0605,0,.1123.0215.1562.0654.2598.2334.4697.4697.6309.708.1602.2383.3096.5225.4482.8516.0088.0176.0146.0352.0195.0518.0039.0176.0059.0352.0059.0527,0,.1123-.0557.1904-.1689.2334Z"/><path d="m150.4332,52.917c-.5547,0-1.001-.124-1.3389-.3701-.3379-.2471-.5459-.6045-.624-1.0732-.0176-.0605-.0479-.0732-.0918-.0391-.3984.2344-.8145.4512-1.2471.6504-.4336.1992-.8848.373-1.3525.5195-.0264.0088-.0645.0137-.1172.0137-.0957,0-.1797-.0352-.2529-.1045-.0742-.0693-.1104-.1641-.1104-.2861,0-.208.1035-.3418.3115-.4023.5117-.165.9961-.3623,1.4561-.5918.459-.2295.9014-.4785,1.3262-.7471.0342-.0264.0518-.0605.0518-.1045v-4.4326c0-.1133.041-.21.123-.293.083-.082.1807-.123.293-.123.1211,0,.2207.0391.2988.1172.0781.0771.1172.1777.1172.2988v3.7695c0,.0693.0303.083.0908.0391.7363-.5889,1.3916-1.2305,1.9629-1.9238.5723-.6934,1.0664-1.4043,1.4824-2.1318.416-.7285.7539-1.4258,1.0137-2.0928.0693-.1826.1953-.2734.377-.2734.1211,0,.2188.041.293.123.0732.083.1104.1758.1104.2803,0,.0254-.002.0498-.0068.0713-.0039.0215-.0107.0449-.0195.0713-.3027.7979-.6973,1.6104-1.1826,2.4375-.4854.8281-1.0664,1.627-1.7422,2.3984s-1.4512,1.4688-2.3271,2.0928c-.0342.0264-.0518.0527-.0518.0781,0,.3643.0459.6348.1367.8125s.2861.293.585.3447.752.0781,1.3584.0781c.416,0,.7607-.0127,1.0332-.0391.2734-.0264.5156-.0977.7285-.2148.2119-.1172.4268-.3057.6436-.5654.0781-.0947.1768-.1426.2988-.1426.1035,0,.1904.0342.2598.1035.0957.0957.1426.2129.1426.3516,0,.0518-.0059.1035-.0186.1553-.0137.0527-.042.1006-.085.1436-.3291.3643-.6846.6221-1.0664.7734-.3809.1514-.8535.2275-1.417.2275h-1.4424Zm-4.3945-2.1455c-.0781.0781-.1689.1172-.2725.1172-.1221,0-.2295-.0469-.3252-.1426-.0781-.0781-.1172-.1777-.1172-.2988,0-.1133.043-.2129.1299-.2998.4072-.416.7178-.8467.9297-1.293s.3662-.8428.4619-1.1895c.0605-.208.1904-.3125.3896-.3125.1475,0,.2578.0527.3311.1562.0742.1045.0977.2168.0723.3379-.1221.5205-.3271,1.042-.6182,1.5664-.29.5244-.6172.9775-.9814,1.3584Zm5.7979-6.4082c-1.1436-.46-2.3877-.7539-3.7305-.8848-.1133-.0078-.2041-.0518-.2734-.1299s-.1035-.1689-.1035-.2725c0-.1387.0498-.252.1494-.3379.0996-.0869.21-.1221.3311-.1045.4248.0439.8672.1133,1.3262.208.46.0957.9053.2041,1.3389.3252s.8232.2422,1.1699.3643c.2168.0693.3252.2168.3252.4414,0,.0264-.002.0498-.0059.0713-.0049.0225-.0117.0459-.0195.0723-.0176.0869-.0615.1533-.1299.2012-.0703.0479-.1484.0713-.2344.0713-.0264,0-.0498-.002-.0713-.0059-.0225-.0049-.0459-.0107-.0723-.0195Zm3.9521,6.9932c-.1035.0264-.2031.0117-.2988-.0449s-.1602-.1406-.1953-.2539c-.0693-.2773-.167-.5781-.292-.9033-.126-.3252-.2646-.6494-.416-.9746s-.3057-.6133-.4619-.8652c-.043-.0684-.0645-.1426-.0645-.2207,0-.1562.0732-.2686.2207-.3379.0693-.0342.1475-.0518.2344-.0518.1992,0,.3467.0869.4414.2598.1299.2432.2666.5312.4102.8643.1426.334.2812.6738.416,1.0205.1338.3467.2402.668.3184.9619.0088.0264.0127.0654.0127.1172,0,.0869-.0283.1719-.084.2539-.0566.082-.1367.1406-.2412.1748Z"/><path d="m159.6109,53.1895c-.1211.0088-.2295-.0303-.3252-.1162-.0947-.0869-.1426-.1953-.1426-.3252,0-.1045.0342-.1953.1035-.2734s.1611-.1211.2734-.1299c.8496-.0693,1.6074-.1689,2.2754-.2988.667-.1299,1.2559-.29,1.7676-.4814.043-.0166.0625-.0361.0586-.0576-.0049-.0215-.0283-.0371-.0713-.0459-.3213-.043-.6572-.085-1.0078-.123-.3506-.0391-.7002-.0723-1.0469-.0977-.1211-.0088-.2188-.0566-.292-.1436-.0742-.0859-.1104-.1855-.1104-.2988,0-.1387.0518-.251.1562-.3379.1816-.1562.3525-.3164.5127-.4814.1602-.1641.3105-.333.4492-.5068.043-.0605.0303-.0908-.0391-.0908h-2.5869c-.1133,0-.2061-.0391-.2803-.1172-.0732-.0781-.1104-.1729-.1104-.2861,0-.1211.0371-.2188.1104-.292.0742-.0732.167-.1104.2803-.1104h3.1582c.0527,0,.083-.0176.0918-.0527.0605-.1211.1162-.2441.1689-.3701.0518-.125.0947-.249.1299-.3701.0693-.2168.208-.3252.416-.3252.1211,0,.2188.0391.292.1172.0742.0781.1104.1641.1104.2598,0,.0518-.0039.0908-.0127.1172-.0264.0869-.0537.1729-.084.2598-.0312.0869-.0674.1777-.1113.2734-.0254.0605-.0039.0908.0654.0908h5.8105c.1133,0,.208.0391.2861.1172.0781.0771.1172.1729.1172.2852,0,.1133-.0391.208-.1172.2861s-.1729.1172-.2861.1172h-1.9492c-.0439,0-.0781.0176-.1045.0518-.4502.6416-.9443,1.1924-1.4814,1.6514-.0527.0518-.0439.0869.0254.1035.3643.0957.7607.2061,1.1895.332.4297.126.8535.251,1.2744.377.4199.126.7949.2451,1.124.3574.1992.0693.2988.2041.2988.4033,0,.1211-.043.2246-.1299.3115-.0859.0869-.1865.1299-.2988.1299-.0254,0-.0645-.0088-.1172-.0254-.3809-.1299-.8213-.2734-1.3193-.4297-.498-.1553-1.0098-.3076-1.5342-.4551-.5244-.1465-1.0205-.2686-1.4883-.3633-.0176-.0088-.0518-.0049-.1035.0127-.6504.373-1.4092.665-2.2754.8779-.8662.2119-1.9062.3701-3.1201.4736Zm1.3262-5.876c-.1904,0-.3555-.0684-.4941-.208-.1387-.1377-.208-.3027-.208-.4932v-1.6123c0-.1992.0693-.3662.208-.501.1387-.1338.3037-.2012.4941-.2012h1.9502c.0518,0,.0781-.0264.0781-.0781v-.9883c0-.0518-.0264-.0771-.0781-.0771h-3.2764c-.1123,0-.208-.0391-.2861-.1172s-.1162-.1738-.1162-.2861.0381-.208.1162-.2861.1738-.1172.2861-.1172h9.9844c.1211,0,.2188.0391.292.1172.0742.0781.1104.1738.1104.2861s-.0361.208-.1104.2861c-.0732.0781-.1709.1172-.292.1172h-3.2764c-.0518,0-.0781.0254-.0781.0771v.9883c0,.0518.0264.0781.0781.0781h1.9502c.1992,0,.3662.0674.5.2012.1348.1348.2021.3018.2021.501v1.6123c0,.1904-.0674.3555-.2021.4932-.1338.1396-.3008.208-.5.208h-7.332Zm.208-.8057h1.7422c.0518,0,.0781-.0264.0781-.0781v-1.2607c0-.0518-.0264-.0781-.0781-.0781h-1.7422c-.0518,0-.0781.0264-.0781.0781v1.2607c0,.0518.0264.0781.0781.0781Zm3.666,4.4072c.0264.0088.0605.0039.1035-.0127.6162-.4072,1.127-.8848,1.5342-1.4307.0439-.0605.0264-.0908-.0518-.0908h-3.0684c-.043,0-.0771.0176-.1035.0518-.1133.1914-.2383.375-.377.5527s-.2822.3398-.4287.4873c-.0439.0527-.0312.0869.0391.1045.3721.0342.7578.082,1.1562.1426s.7979.126,1.1963.1953Zm-.9746-6.6172h1.5332c.0527,0,.0781-.0264.0781-.0781v-.9883c0-.0518-.0254-.0771-.0781-.0771h-1.5332c-.0527,0-.0781.0254-.0781.0771v.9883c0,.0518.0254.0781.0781.0781Zm0,2.21h1.5332c.0527,0,.0781-.0264.0781-.0781v-1.2607c0-.0518-.0254-.0781-.0781-.0781h-1.5332c-.0527,0-.0781.0264-.0781.0781v1.2607c0,.0518.0254.0781.0781.0781Zm2.4824,0h1.7295c.0518,0,.0781-.0264.0781-.0781v-1.2607c0-.0518-.0264-.0781-.0781-.0781h-1.7295c-.0518,0-.0781.0264-.0781.0781v1.2607c0,.0518.0264.0781.0781.0781Z"/><path d="m182.1275,52.4102c-.1914.043-.3799.0781-.5654.1035-.1865.0264-.375.0391-.5654.0391-.6592,0-1.2812-.1406-1.8662-.4219-.585-.2822-1.0547-.6826-1.4102-1.2031-.1738-.251-.3125-.5439-.416-.877-.1045-.334-.1562-.6875-.1562-1.0596,0-.6064.1562-1.248.4678-1.9238.3125-.6768.8408-1.3311,1.5869-1.9639.0342-.0342.0518-.0645.0518-.0908,0-.0342-.0303-.0469-.0908-.0391-.46.0605-.9297.1064-1.4111.1367-.4805.0303-.9727.0459-1.4756.0459-.2939,0-.5938-.0068-.8965-.0195-.3037-.0137-.6064-.0283-.9102-.0459-.1045-.0176-.1934-.0674-.2666-.1494s-.1104-.1758-.1104-.2793c0-.1211.0459-.2236.1367-.3057s.2012-.1191.3311-.1104c.6504.0518,1.2783.0781,1.8848.0781,2.0889,0,3.9785-.3076,5.668-.9229.0264-.0088.0527-.0156.0781-.0195.0264-.0049.0527-.0068.0781-.0068.1123,0,.2129.0391.2988.1172.0869.0781.1299.1816.1299.3115,0,.1826-.0859.3076-.2598.377-.4678.1738-.9619.3252-1.4814.4551-.0352.0088-.0781.0264-.1299.0518-.9189.5811-1.6318,1.2461-2.1387,1.9961s-.7607,1.4883-.7607,2.2168c0,.2939.0459.5801.1367.8574s.2314.542.4219.793c.3301.4248.7109.7236,1.1445.8975.4326.1729.8623.2598,1.2871.2598.3633,0,.7148-.0479,1.0527-.1436.0264-.0078.0654-.0127.1172-.0127.0947,0,.1797.0264.2529.0781.0742.0518.1152.1211.124.208.0088.0264.0127.0605.0127.1045,0,.1123-.0322.2139-.0977.3047-.0645.0918-.1494.1455-.2529.1631Zm.6885-4.8105c-.0176.0088-.0479.0137-.0908.0137-.1035,0-.1777-.0527-.2207-.1562-.1133-.2949-.2402-.5508-.3838-.7676-.1426-.2158-.3232-.4199-.5391-.6104-.0615-.0518-.0918-.1123-.0918-.1826,0-.0605.0215-.1123.0654-.1553.0518-.0605.1172-.0908.1953-.0908.0518,0,.1084.0215.1689.0645.4326.3984.7842.9102,1.0527,1.5342.0088.0176.0127.0479.0127.0908,0,.1133-.0557.1992-.1689.2598Zm1.0791-.4941c-.0176.0088-.0479.0137-.0908.0137-.1045,0-.1777-.0479-.2207-.1436-.2168-.5547-.5332-1.0352-.9492-1.4424-.0518-.0527-.0781-.1084-.0781-.1689,0-.0527.0215-.0996.0654-.1436.0518-.0518.1074-.0781.1689-.0781.0518,0,.1084.0225.1689.0654.2598.2344.4678.4697.624.708.1553.2393.3027.5225.4414.8516.0176.0527.0264.0869.0264.1045,0,.1123-.0518.1904-.1562.2334Z"/><path d="m190.1861,52.6699c-.1123.0088-.21-.0283-.292-.1104-.083-.082-.124-.1797-.124-.293,0-.1211.041-.2246.124-.3115.082-.0869.1885-.1299.3184-.1299.7021-.0176,1.3125-.208,1.833-.5723.5195-.3643.8584-.8447,1.0137-1.4434.0527-.2334.0742-.4805.0654-.7402,0-.0605-.0215-.0918-.0654-.0918-.043,0-.0781.0225-.1035.0654-.1475.2256-.3301.4053-.5459.5391-.2168.1348-.4512.2021-.7021.2021-.3906,0-.7393-.1348-1.0469-.4033s-.4834-.5977-.5264-.9883c-.0088-.043-.0127-.0859-.0127-.1299v-.1172c0-.5283.1562-.9551.4678-1.2803s.6846-.4873,1.1182-.4873c.3203,0,.6328.0957.9355.2861.0352.0176.0605.0254.0781.0254.043,0,.0654-.0303.0654-.0908l-.0137-1.3906c0-.0869-.0391-.1211-.1162-.1045-.5293.0352-1.0557.0742-1.5801.1172-.5244.0439-1.0244.0654-1.501.0654-.5547,0-1.0625-.0391-1.5215-.1172-.1123-.0176-.2012-.0674-.2666-.1494-.0645-.082-.0977-.1797-.0977-.293,0-.1211.0459-.2188.1367-.292s.1934-.1016.3057-.085c.251.0352.5117.0615.7803.0781.2686.0176.5371.0264.8057.0264.4766,0,.9619-.0195,1.4561-.0586s.9883-.0762,1.4824-.1104c.0771-.0176.1162-.0605.1162-.1299l-.0127-1.2354c-.0088-.1123.0264-.208.1045-.2861.0771-.0781.1729-.1172.2852-.1172.1133,0,.208.0371.2861.1104.0781.0742.1172.1719.1172.293v1.1699c0,.0869.0479.1211.1436.1045.2686-.0176.5322-.0303.793-.0391.2598-.0088.5156-.0137.7666-.0137.2686,0,.5332.0068.793.0195.2598.0137.5117.042.7539.085.1123.0176.1992.0674.2598.1494s.0918.1758.0918.2793c0,.1133-.0439.208-.1309.2861-.0859.0781-.1855.1084-.2988.0908-.2168-.0342-.4443-.0586-.6826-.0713s-.4824-.0195-.7344-.0195c-.2598,0-.5283.0068-.8057.0195s-.5547.0283-.832.0459c-.0781,0-.1172.0381-.1172.1162v2.1455c0,.0254.002.0498.0068.0713.0039.0215.0107.0459.0195.0713.2158.4941.3252,1.0273.3252,1.5996,0,.5889-.1348,1.1562-.4033,1.7031-.2686.5459-.6787.9961-1.2285,1.3516-.5508.3555-1.2461.5498-2.0869.585Zm.7676-4.2119c.0518.1475.1582.2725.3184.377.1602.1035.3311.1562.5137.1562.2246,0,.4375-.0996.6367-.2988.1992-.2002.3037-.542.3115-1.0273,0-.0518-.0166-.0996-.0518-.1436-.1211-.1729-.2578-.2959-.4092-.3701-.1514-.0732-.3018-.1104-.4482-.1104-.2432,0-.46.0928-.6504.2793s-.2861.4268-.2861.7217c0,.0605.0049.1279.0127.2012.0088.0742.0264.1455.0527.2148Z"/><path d="m202.0298,53.5928c-.2861,0-.5459-.0713-.7803-.2148-.2344-.1426-.4229-.333-.5654-.5713s-.2148-.5049-.2148-.7998c0-.2861.0723-.5459.2148-.7803.1426-.2334.3311-.4199.5654-.5586s.4941-.208.7803-.208c.2939,0,.5586.0713.793.2148.2334.1426.4219.3311.5654.5654.1426.2334.2139.498.2139.793,0,.2861-.0713.5459-.2139.7793-.1436.2344-.332.4229-.5654.5654-.2344.1436-.499.2148-.793.2148Zm0-.5068c.2939,0,.5459-.1045.7539-.3125s.3115-.4541.3115-.7402c0-.2949-.1035-.5459-.3115-.7539s-.46-.3125-.7539-.3125c-.2949,0-.5439.1045-.748.3125-.2031.208-.3057.459-.3057.7539s.1045.5439.3125.7471c.208.2041.4551.3057.7412.3057Z"/></g><g><line x1="126.1569" y1="97.7993" x2="126.1569" y2="112.8218" fill="none" stroke="#333" stroke-linecap="round" stroke-miterlimit="10" stroke-width=".75"/><path d="m120.9371,105.3887c.2527-.1611.5894-.0859.7508.168l4.469,7.0166,4.4689-7.0166c.1614-.2539.4981-.3291.7509-.168.2527.1616.326.5005.1667.752l-4.9277,7.7368c-.0999.1562-.2729.252-.4588.252s-.3589-.0957-.4588-.252l-4.9277-7.7368c-.0574-.0913-.085-.1919-.085-.292,0-.1792.0892-.3555.2517-.46Z" fill="#333"/></g><polygon points="42.7916 .7994 .75 48.8489 .75 .7994 42.7916 .7994" fill="#ee958a"/></g></g></svg>