<?xml version="1.0" encoding="UTF-8"?><svg id="_レイヤー_2" xmlns="http://www.w3.org/2000/svg" viewBox="0 0 252 133.05"><defs><style>.cls-1{fill:#fff;}.cls-2{fill:#ee958a;}.cls-3{fill:#333;}.cls-4{fill:none;stroke:#333;stroke-linecap:round;stroke-miterlimit:10;stroke-width:.75px;}</style></defs><g id="_レイヤー_1-2"><g><g><rect class="cls-1" x=".38" y=".38" width="251.25" height="132.3"/><path class="cls-3" d="m251.25.75v131.55H.75V.75h250.5m.75-.75H0v133.05h252V0h0Z"/></g><g><path d="m26.26,66.43c-.06.04-.13.05-.21.05-.16,0-.27-.07-.35-.2-.03-.06-.05-.13-.05-.21,0-.16.07-.27.21-.35.72-.42,1.37-.88,1.94-1.35.57-.48,1.08-.96,1.52-1.44.04-.06.04-.12,0-.17-.22-.3-.49-.59-.82-.85-.33-.26-.67-.47-1.03-.62-.17-.07-.25-.19-.25-.35,0-.05.01-.1.04-.16.1-.19.24-.29.43-.29.05,0,.1.01.16.04.4.17.77.39,1.12.68s.65.58.89.86c.05.06.1.06.16,0,.23-.29.42-.59.6-.88.17-.29.33-.57.47-.84.16-.33.25-.63.25-.9,0-.55-.35-.82-1.04-.82h-1.83c-.05,0-.1.03-.14.08-.4.55-.85,1.08-1.36,1.6-.51.52-1.03.99-1.58,1.42-.06.05-.14.08-.23.08-.15,0-.26-.06-.34-.17-.05-.08-.08-.16-.08-.23,0-.13.06-.24.17-.34.72-.56,1.33-1.13,1.85-1.71.51-.58.93-1.12,1.26-1.63.33-.51.58-.94.75-1.29.09-.16.21-.25.38-.25.13,0,.23.04.31.12.07.08.11.17.11.28,0,.06-.01.12-.04.17-.07.16-.15.31-.24.47-.09.16-.18.32-.28.48-.02.03-.03.06-.03.06,0,.05.03.08.1.08h1.22c.71,0,1.21.14,1.49.43.28.29.42.63.42,1.04,0,.23-.03.46-.1.7-.07.24-.16.48-.29.7-.37.73-.81,1.41-1.3,2.05-.49.64-1.09,1.26-1.77,1.85s-1.51,1.19-2.48,1.77Z"/><path d="m41.68,66.36c-.12,0-.22-.04-.31-.13-.08-.09-.12-.19-.12-.3v-8.81c0-.12.04-.23.12-.31.08-.09.18-.13.31-.13s.23.04.31.13c.09.09.13.19.13.31v3.04c0,.07.04.11.12.13.56.06,1.1.2,1.62.42.52.22,1.01.49,1.46.81.45.32.85.67,1.2,1.04.09.09.13.2.13.33s-.04.24-.13.34c-.06.08-.15.12-.27.12-.1,0-.19-.04-.27-.12-.56-.62-1.15-1.09-1.75-1.43s-1.26-.56-1.97-.68h-.03c-.07,0-.1.03-.1.1v4.71c0,.12-.04.22-.13.31s-.19.12-.31.12Z"/><path d="m55.84,66.49c-.05.02-.1.03-.13.03-.1,0-.18-.03-.26-.1-.08-.07-.12-.16-.12-.27,0-.18.09-.31.26-.39.72-.3,1.29-.66,1.72-1.07.43-.41.76-.83.99-1.28.23-.45.41-.87.52-1.28.1-.34.14-.6.14-.78,0-.23-.07-.4-.2-.5-.13-.1-.34-.15-.62-.15h-3.34c-.2,0-.36.06-.47.18s-.18.28-.18.47c0,.08.01.17.04.27.02.09.05.23.11.44.06.21.11.42.16.62,0,.03.01.06.01.1,0,.1-.04.19-.11.27-.07.07-.17.11-.28.11-.21,0-.33-.1-.38-.3-.05-.17-.1-.36-.16-.56-.05-.2-.1-.38-.14-.55-.03-.15-.04-.28-.04-.4,0-.41.13-.75.4-1.01s.61-.4,1.03-.4h1.26c.08,0,.12-.04.12-.12,0-.22,0-.44-.01-.66,0-.21-.03-.41-.08-.6-.04-.12-.01-.22.07-.31.08-.09.18-.13.29-.13.1,0,.18.03.26.09.08.06.13.14.14.23.04.22.07.44.08.66.01.23.02.46.02.71,0,.08.04.12.12.12h1.07c.51,0,.9.13,1.17.38.27.25.4.61.4,1.08,0,.28-.05.6-.16.96-.28.98-.72,1.81-1.34,2.48-.62.68-1.41,1.23-2.39,1.65Z"/><path d="m66.42,61.82c-.11,0-.21-.04-.29-.12-.08-.08-.12-.18-.12-.29,0-.12.04-.22.12-.3.08-.08.18-.12.29-.12h8.11c.11,0,.21.04.29.12.08.08.12.18.12.3,0,.11-.04.21-.12.29-.08.08-.18.12-.3.12h-8.11Z"/><path d="m79.65,66.89c-.11,0-.21-.04-.28-.12-.07-.08-.11-.17-.11-.29v-9.8c0-.2.07-.37.21-.5.14-.13.3-.2.49-.2h2.02c.19,0,.35.07.47.21.12.14.16.3.13.48-.1.57-.24,1.11-.42,1.61-.17.5-.39.98-.64,1.43,0,.04,0,.07.01.1.25.4.47.82.67,1.26.2.44.29.92.29,1.43s-.1.94-.3,1.22c-.2.29-.44.48-.73.58s-.56.15-.82.14c-.09,0-.16-.04-.23-.12-.07-.08-.1-.17-.1-.29,0-.12.04-.22.13-.29.09-.07.2-.1.34-.1.3,0,.54-.1.7-.31.16-.2.25-.48.25-.84,0-.38-.07-.75-.21-1.09-.14-.35-.31-.68-.51-1.01-.13-.21-.2-.44-.2-.69,0-.19.05-.38.14-.57.17-.36.33-.71.47-1.06.14-.35.26-.76.34-1.24v-.03s-.03-.06-.08-.06h-1.57c-.05,0-.08.03-.08.08v9.66c0,.11-.04.21-.11.29-.07.08-.17.12-.28.12Zm3.21-.58c-.07.07-.16.1-.26.1-.11,0-.22-.05-.31-.14-.07-.09-.1-.17-.1-.26,0-.1.05-.2.14-.3.36-.34.67-.7.96-1.08.28-.38.51-.77.7-1.17.07-.17.19-.25.38-.25.03,0,.05,0,.07,0,.02,0,.05.01.07.02.18.07.27.19.27.38,0,.04-.01.09-.04.14-.19.45-.46.91-.79,1.37s-.7.85-1.08,1.18Zm-.09-6.4c-.05.03-.11.04-.17.04s-.12-.02-.19-.06c-.06-.04-.11-.09-.14-.16-.03-.05-.04-.1-.04-.16,0-.17.08-.29.23-.39.35-.2.72-.46,1.11-.79.39-.33.78-.69,1.16-1.09.38-.4.7-.8.98-1.21.1-.14.24-.21.4-.21.15,0,.26.05.35.16.29.34.61.7.98,1.07.37.38.75.73,1.13,1.06.39.33.74.61,1.07.83.08.04.14.1.18.18.04.08.06.16.06.23,0,.11-.04.21-.11.28-.07.07-.16.11-.25.11-.05,0-.1-.01-.16-.04-.23-.14-.49-.32-.78-.55-.29-.22-.58-.47-.87-.73-.29-.26-.57-.53-.83-.8-.26-.27-.48-.52-.66-.75-.04-.05-.07-.05-.1.01-.32.41-.67.8-1.06,1.18-.39.38-.77.72-1.16,1.03s-.77.55-1.13.74Zm2.22,6.94c-.1,0-.18-.05-.25-.12-.07-.07-.11-.16-.11-.27,0-.12.04-.22.12-.31.08-.08.17-.12.29-.12.23,0,.41-.01.53-.04.12-.03.18-.1.18-.21v-3.2c0-.05-.03-.08-.08-.08h-2.65c-.1,0-.19-.04-.27-.11-.08-.07-.12-.17-.12-.28s.04-.21.12-.28c.08-.07.17-.11.27-.11h2.65c.05,0,.08-.03.08-.08v-1.38c0-.05-.03-.08-.08-.08h-1.46c-.11,0-.21-.04-.28-.12s-.11-.17-.11-.29.04-.21.11-.28c.07-.07.17-.11.28-.11h3.87c.11,0,.21.04.29.11.08.07.12.17.12.28s-.04.21-.11.29c-.07.08-.17.12-.29.12h-1.46c-.05,0-.08.03-.08.08v1.38c0,.05.03.08.08.08h2.67c.11,0,.21.04.28.11.07.07.11.17.11.28,0,.1-.04.19-.11.27s-.17.12-.28.12h-2.67c-.05,0-.08.03-.08.08v3.2c0,.38-.13.66-.38.83s-.65.25-1.18.24Zm4.42-.46c-.4-.33-.78-.73-1.13-1.2-.36-.47-.65-.95-.87-1.46-.02-.04-.03-.08-.03-.14,0-.09.04-.18.11-.25.07-.07.17-.11.28-.11.19,0,.33.09.43.29.37.83.89,1.55,1.56,2.15.12.1.18.23.18.39,0,.07-.02.15-.06.23-.05.12-.15.18-.29.18-.07,0-.13-.03-.18-.08Z"/><path d="m102.51,66.96c-.19,0-.32-.1-.39-.29-.06-.17-.13-.35-.22-.54-.09-.19-.18-.37-.27-.54-.02-.05-.05-.07-.09-.05-.61.15-1.3.29-2.08.44-.78.14-1.6.26-2.47.36s-1.73.17-2.6.2c-.16,0-.29-.04-.38-.14-.09-.1-.13-.22-.13-.35,0-.1.03-.21.09-.31.06-.1.15-.19.26-.25.44-.24.88-.55,1.33-.94.44-.38.84-.79,1.2-1.24.36-.44.63-.88.83-1.3.03-.06.01-.09-.06-.09h-4.13c-.11,0-.21-.04-.29-.12-.08-.08-.12-.17-.12-.29s.04-.21.12-.28c.08-.07.17-.11.29-.11h4.41c.05,0,.08-.03.08-.08v-2.18c0-.05-.03-.08-.08-.08h-3.31c-.11,0-.21-.04-.29-.12s-.12-.17-.12-.29c0-.12.04-.22.12-.29.08-.07.17-.11.29-.11h3.31c.05,0,.08-.03.08-.08v-1.62c0-.12.04-.22.12-.31s.18-.12.29-.12c.12,0,.22.04.31.12s.12.18.12.31v1.62c0,.05.03.08.08.08h3.33c.12,0,.22.04.29.12s.11.17.11.29-.04.21-.12.29-.17.12-.29.12h-3.33c-.05,0-.08.03-.08.08v2.18c0,.05.03.08.08.08h4.42c.11,0,.21.04.29.12.08.08.12.17.12.27,0,.11-.04.21-.12.29-.08.08-.17.12-.29.12h-4.62c-.05,0-.08.02-.09.07-.16.4-.38.81-.67,1.23-.29.42-.62.84-.99,1.24s-.77.76-1.18,1.09c-.06.06-.05.09.04.09.64-.06,1.28-.13,1.93-.22.65-.09,1.27-.18,1.87-.29.6-.1,1.14-.21,1.61-.31.07-.02.08-.05.04-.1-.15-.24-.31-.48-.47-.71s-.34-.46-.53-.69c-.05-.07-.08-.15-.08-.23,0-.16.06-.26.17-.33.1-.05.19-.08.27-.08.16,0,.3.07.4.2.22.29.45.63.71,1.05.26.41.5.84.73,1.27.23.44.42.85.56,1.23.02.05.03.1.03.13,0,.1-.04.19-.12.27-.08.09-.18.13-.31.13Z"/><path d="m108.95,60.62c-.27-.13-.57-.26-.9-.38-.33-.12-.66-.23-.99-.31-.09-.02-.16-.06-.22-.14-.06-.07-.09-.15-.09-.24,0-.14.05-.25.16-.33s.21-.11.33-.07c.3.08.63.17.99.29s.67.24.94.36c.2.09.3.24.3.46,0,.03,0,.05,0,.08s-.01.05-.02.08c-.04.17-.15.25-.33.25-.05,0-.1-.01-.16-.04Zm.19-3c-.26-.12-.55-.24-.88-.34-.32-.11-.65-.2-.98-.28-.11-.03-.2-.08-.25-.18-.06-.09-.08-.19-.06-.29.03-.12.1-.21.19-.27.09-.06.19-.07.31-.05.3.07.62.16.96.27.33.11.66.23.97.36.09.04.15.09.2.17.05.08.07.17.07.26,0,.03,0,.05,0,.08,0,.03-.01.05-.02.08-.06.16-.17.23-.34.23-.05,0-.1-.01-.16-.04Zm-1.87,9.31c-.13-.07-.2-.18-.2-.34,0-.07.02-.13.05-.2.35-.61.68-1.28.98-2.01.3-.74.54-1.48.72-2.22.04-.2.17-.3.38-.3.13,0,.23.04.31.12.08.08.12.18.12.29,0,.04,0,.08-.01.1-.08.32-.18.68-.31,1.07-.13.39-.27.8-.44,1.2-.16.41-.33.8-.51,1.17-.18.37-.35.7-.53.97-.08.13-.19.2-.34.2-.07,0-.15-.02-.23-.07Zm9.83-5.15c-.09,0-.16-.03-.23-.08-.07-.05-.11-.12-.13-.21-.09-.34-.19-.68-.31-1.01-.02-.04-.05-.06-.09-.04-.43.12-.96.23-1.57.34-.61.1-1.27.19-1.97.27-.7.08-1.4.13-2.09.17-.19,0-.34-.05-.46-.18s-.18-.28-.18-.46c0-.1.02-.21.07-.32.05-.11.12-.21.23-.29.68-.56,1.22-1.2,1.62-1.9.4-.7.7-1.38.89-2.04.06-.21.2-.31.4-.31.15,0,.26.05.33.16.07.11.1.22.07.34-.18.71-.49,1.43-.93,2.15-.44.72-.94,1.35-1.5,1.89-.03.03-.03.05-.03.07s.03.03.06.02c.55-.04,1.11-.1,1.7-.16.58-.06,1.14-.14,1.68-.23.53-.09.99-.18,1.36-.28.05-.02.07-.05.04-.1-.1-.23-.2-.46-.31-.66-.11-.21-.22-.4-.33-.58-.04-.05-.06-.13-.06-.22,0-.17.06-.29.19-.35.06-.03.13-.05.22-.05.19,0,.33.08.42.23.17.31.34.66.51,1.05s.33.77.47,1.16c.14.39.26.75.34,1.07,0,.03.01.07.01.12,0,.11-.04.21-.12.31s-.18.14-.31.14Zm-5.62,4.99c-.19,0-.36-.07-.49-.21s-.21-.3-.21-.49v-3.45c0-.2.07-.37.21-.5.14-.13.3-.2.49-.2h4.38c.2,0,.37.07.5.2.13.13.2.3.2.5v3.45c0,.19-.07.35-.2.49s-.3.21-.5.21h-4.38Zm.17-.78h4.03c.05,0,.08-.03.08-.08v-3.12c0-.05-.03-.08-.08-.08h-4.03c-.05,0-.08.03-.08.08v3.12c0,.05.03.08.08.08Z"/><path d="m121.11,66.93c-.13-.06-.2-.17-.2-.31,0-.08.03-.16.08-.23.28-.43.49-.94.64-1.51.15-.58.26-1.16.32-1.76,0-.03,0-.06-.02-.06s-.05,0-.07.01c-.11.1-.24.2-.38.29s-.28.18-.43.28c-.03,0-.05.02-.08.03-.03.01-.05.02-.08.02-.09,0-.17-.04-.23-.12-.07-.08-.1-.17-.1-.27,0-.24.11-.43.34-.56.42-.24.78-.56,1.08-.95.03-.03.04-.06.04-.09v-1.9c0-.07-.02-.09-.06-.07,0,0-.03.02-.06.04-.03.03-.08.04-.14.04-.15,0-.26-.08-.34-.25-.19-.52-.45-1.01-.77-1.48-.05-.07-.08-.14-.08-.22,0-.14.06-.25.19-.34.09-.04.17-.06.25-.06.16,0,.29.07.39.21.1.16.19.33.28.5s.18.34.25.51c.02.04.04.05.06.05.02,0,.03-.02.03-.06v-1.53c0-.17.06-.32.18-.45.12-.13.27-.19.46-.19h3.54c.05,0,.08-.03.08-.08v-.35c0-.12.04-.22.12-.3.08-.08.18-.12.29-.12s.21.04.29.12c.08.08.12.18.12.3v.35c0,.05.03.08.08.08h3.95c.11,0,.21.04.29.11.08.07.12.17.12.28s-.04.21-.11.28c-.07.07-.17.11-.29.11h-8.24c-.05,0-.08.03-.08.08v4.46c0,.38-.02.8-.06,1.25-.04.45-.1.91-.19,1.37-.09.46-.19.9-.32,1.31-.13.41-.27.75-.45,1.04-.1.15-.23.22-.42.22-.08,0-.17-.02-.27-.07Zm2.3-.27c-.05.02-.1.03-.13.03-.09,0-.17-.04-.24-.11s-.11-.17-.11-.29c0-.18.09-.31.26-.38.41-.17.79-.38,1.14-.62.35-.24.65-.49.9-.75.1-.1.22-.16.35-.16.09,0,.16.02.22.05.12.07.18.17.18.3,0,.06-.03.13-.08.2-.32.4-.71.75-1.18,1.05-.47.3-.91.53-1.31.68Zm2.7.23c-.11,0-.21-.04-.28-.13-.07-.09-.11-.19-.11-.3,0-.1.05-.19.13-.27.08-.07.17-.1.29-.08.07,0,.13.01.19.01h.15c.18,0,.31-.02.38-.06.07-.04.11-.11.11-.21v-1.65c0-.05-.03-.08-.08-.08h-1.47c-.19,0-.36-.07-.49-.21-.14-.14-.21-.31-.21-.5v-1.77s0-.04-.03-.06c-.02-.01-.04-.01-.06,0-.16.1-.32.19-.49.27-.17.09-.36.17-.55.25-.05.02-.09.03-.12.03-.1,0-.18-.04-.25-.11s-.1-.17-.1-.28c0-.21.1-.35.3-.43.3-.13.61-.29.91-.48.04-.04.05-.07.01-.1-.09-.1-.18-.21-.28-.32-.1-.11-.21-.23-.33-.34-.07-.06-.1-.14-.1-.25,0-.12.05-.21.14-.27.09-.06.19-.09.31-.09.16,0,.3.06.4.18.18.22.33.43.46.64h0s.02.02.05.03c.02.01.04.01.06,0,.18-.15.35-.3.51-.47.16-.17.3-.34.44-.53.06-.06.05-.09-.04-.09h-2.15c-.1,0-.19-.04-.27-.11-.07-.07-.11-.16-.11-.27s.04-.19.11-.27c.07-.07.16-.11.27-.11h2.65c.05,0,.08-.02.09-.05.09-.18.16-.38.23-.61.06-.2.19-.3.38-.3.11,0,.2.04.27.12.07.08.1.17.1.26,0,.04,0,.08-.01.1-.02.06-.04.12-.06.19-.03.07-.05.13-.08.2-.03.06,0,.09.06.09h3.45c.11,0,.2.04.27.11.07.07.1.16.1.27,0,.11-.04.2-.11.27s-.16.1-.27.1h-1.9c-.08,0-.1.03-.05.09.12.17.26.33.42.49.16.16.32.33.48.5.04.03.08.04.1.01.12-.09.23-.18.33-.29.1-.1.18-.21.26-.33.08-.12.18-.18.31-.18.05,0,.1.01.13.04.13.06.2.16.2.3,0,.05-.01.1-.04.16-.08.14-.17.27-.26.4s-.2.25-.32.36c-.04.03-.04.06,0,.1.14.09.28.18.42.27.14.09.29.18.45.25.17.08.26.21.26.4,0,.1-.03.19-.1.25-.07.07-.15.1-.23.1-.03,0-.06,0-.12-.03-.37-.17-.76-.41-1.16-.7-.06-.04-.09-.04-.09.01,0,.03.01.06.01.1v1.89c0,.2-.07.37-.2.51s-.3.21-.5.21h-1.46c-.05,0-.08.03-.08.08v1.65c0,.41-.13.69-.38.85-.25.16-.67.22-1.26.19Zm-.53-4.76h3.55c.05,0,.08-.03.08-.08v-.47c0-.05-.03-.08-.08-.08h-3.55c-.05,0-.08.03-.08.08v.47c0,.05.03.08.08.08Zm0,1.29h3.55c.05,0,.08-.03.08-.08v-.44c0-.05-.03-.08-.08-.08h-3.55c-.05,0-.08.03-.08.08v.44c0,.05.03.08.08.08Zm.22-2.6h3.41s.06-.01.06-.03c0-.02,0-.04-.03-.06-.23-.22-.46-.46-.67-.71s-.41-.5-.58-.76c-.03-.03-.06-.05-.1-.05h-.86c-.05,0-.08.02-.09.05-.14.24-.31.49-.51.73-.2.25-.42.49-.68.73-.03.02-.03.04-.03.06,0,.02.03.03.06.03Zm5.4,5.82c-.34-.15-.71-.36-1.11-.64-.4-.28-.8-.61-1.18-.98-.07-.07-.1-.16-.1-.26,0-.13.05-.23.14-.3.08-.05.16-.08.25-.08.15,0,.27.06.38.17.24.24.54.48.89.72s.67.43.94.58c.18.1.27.24.27.44,0,.11-.04.2-.11.27-.07.07-.16.1-.25.1-.03,0-.07,0-.12-.03Z"/><path d="m136.63,65.95c-.2,0-.33-.1-.39-.29-.18-.56-.32-1.19-.4-1.88-.09-.69-.13-1.4-.13-2.11,0-.77.05-1.53.14-2.27.1-.74.24-1.4.43-1.98.03-.09.08-.17.16-.22s.17-.08.27-.08c.12,0,.22.04.29.12s.11.17.11.29c0,.05,0,.09-.01.12-.17.55-.31,1.18-.4,1.88-.09.7-.14,1.41-.14,2.12,0,.68.04,1.34.12,1.99.08.65.19,1.24.35,1.78,0,.03.01.07.01.12,0,.11-.04.21-.12.29-.08.08-.18.12-.3.12Zm7.79-1c-.36.12-.77.22-1.2.3s-.89.12-1.35.12c-.66,0-1.31-.1-1.96-.29-.65-.19-1.21-.52-1.7-.99-.09-.09-.13-.19-.13-.3s.04-.21.13-.3c.08-.08.16-.12.26-.12.11,0,.21.04.3.12.4.35.87.61,1.42.78.55.17,1.13.26,1.75.26.36,0,.74-.03,1.12-.09s.76-.16,1.13-.29c.05-.02.1-.03.13-.03.1,0,.19.04.27.12.08.08.12.18.12.3,0,.2-.1.33-.3.4Zm-5.49-5.66c-.1-.02-.18-.07-.24-.14-.06-.08-.1-.17-.1-.26,0-.14.04-.25.13-.32.09-.08.19-.11.31-.09.35.05.71.09,1.08.12.37.03.75.04,1.12.04.43,0,.85-.02,1.26-.05.41-.04.78-.09,1.12-.16.12-.02.23.01.32.09.09.08.14.18.14.3,0,.1-.03.18-.1.27-.06.08-.15.14-.25.16-.75.15-1.61.22-2.57.22-.37,0-.75-.01-1.12-.04-.37-.03-.74-.07-1.09-.13Z"/><path d="m149.25,66.88c-.11,0-.21-.04-.29-.12-.08-.08-.12-.17-.12-.29v-9.87c0-.2.07-.37.2-.5.13-.13.3-.2.5-.2h3.16c.2,0,.37.07.5.2s.2.3.2.5v2.63c0,.19-.07.36-.2.49s-.3.21-.5.21h-2.98c-.05,0-.08.03-.08.08v6.46c0,.11-.04.21-.12.29s-.17.12-.29.12Zm.48-9.33h2.8c.05,0,.08-.03.08-.08v-.7c0-.05-.03-.08-.08-.08h-2.8c-.05,0-.08.03-.08.08v.7c0,.05.03.08.08.08Zm0,1.61h2.8c.05,0,.08-.03.08-.08v-.7c0-.05-.03-.08-.08-.08h-2.8c-.05,0-.08.03-.08.08v.7c0,.05.03.08.08.08Zm6.7,6.96c-.5-.17-.97-.43-1.39-.77-.42-.34-.77-.68-1.03-1.02,0-.03-.02-.04-.05-.04s-.04.01-.06.04c-.23.34-.55.66-.96.97s-.83.55-1.28.72c-.05.02-.1.03-.13.03-.19,0-.33-.1-.42-.29-.02-.05-.03-.1-.03-.13,0-.17.08-.29.25-.34.45-.17.83-.37,1.13-.6s.54-.47.7-.7c.04-.06.03-.09-.05-.09h-1.73c-.1,0-.19-.03-.26-.1s-.1-.16-.1-.26c0-.09.03-.18.1-.25s.16-.11.26-.11h2.08c.05,0,.08-.03.08-.08v-.64c0-.05-.03-.08-.08-.08h-1.85c-.1,0-.19-.04-.26-.1s-.1-.16-.1-.26c0-.1.03-.18.1-.25.07-.07.16-.11.26-.11h1.23c.08,0,.08-.02.01-.06-.05-.03-.1-.07-.14-.14-.14-.22-.29-.42-.44-.62-.05-.07-.08-.14-.08-.21,0-.13.06-.22.18-.26.08-.03.15-.04.22-.04.22,0,.38.09.48.26.06.1.12.2.18.31.06.11.11.22.16.31.03.04.04.08.04.13,0,.12-.06.22-.18.29,0,0-.03.02-.05.03,0,0-.02.01-.03.01h.91s.06-.01.09-.04c.32-.29.58-.62.77-1.01.1-.17.24-.26.4-.26.12,0,.21.04.28.11s.1.16.1.25c0,.07,0,.12-.03.14-.06.11-.13.23-.21.36-.08.13-.16.25-.23.36-.04.06-.03.09.05.09h.88c.1,0,.19.04.26.1s.1.16.1.26-.03.19-.1.26-.16.1-.26.1h-1.85c-.05,0-.08.03-.08.08v.64c0,.05.03.08.08.08h2.3c.1,0,.19.04.26.11.07.07.1.16.1.25,0,.1-.04.19-.11.26s-.16.1-.25.1h-1.9c-.08,0-.1.03-.05.09.23.29.53.55.88.8s.71.44,1.08.58c.18.07.27.19.27.35,0,.03,0,.08-.03.13-.07.2-.2.3-.39.3-.03,0-.08,0-.13-.03Zm.87.75c-.11,0-.21-.05-.29-.14-.08-.08-.12-.18-.12-.31,0-.11.04-.21.12-.29s.18-.12.29-.12c.38,0,.63,0,.73-.05.11-.04.16-.16.16-.35v-5.6c0-.05-.03-.08-.08-.08h-2.98c-.19,0-.36-.07-.49-.21s-.21-.3-.21-.49v-2.63c0-.2.07-.37.21-.5s.3-.2.49-.2h3.16c.2,0,.37.07.5.2s.2.3.2.5v9.01c0,.45-.14.78-.41.97s-.71.29-1.31.27Zm-1.96-9.32h2.8c.05,0,.08-.03.08-.08v-.7c0-.05-.03-.08-.08-.08h-2.8c-.05,0-.08.03-.08.08v.7c0,.05.03.08.08.08Zm0,1.61h2.8c.05,0,.08-.03.08-.08v-.7c0-.05-.03-.08-.08-.08h-2.8c-.05,0-.08.03-.08.08v.7c0,.05.03.08.08.08Z"/><path d="m165.61,66.37c-.11,0-.21-.03-.29-.11-.08-.08-.12-.18-.12-.29,0-.12.04-.23.12-.31.08-.09.19-.13.32-.13.7-.02,1.31-.21,1.83-.57.52-.36.86-.85,1.01-1.44.05-.23.07-.48.06-.74,0-.06-.02-.09-.06-.09s-.08.02-.1.07c-.15.23-.33.41-.55.54-.22.13-.45.2-.7.2-.39,0-.74-.13-1.05-.4s-.48-.6-.53-.99c0-.04-.01-.09-.01-.13v-.12c0-.53.16-.96.47-1.28s.68-.49,1.12-.49c.32,0,.63.09.94.29.03.02.06.03.08.03.04,0,.06-.03.06-.09v-1.39c-.01-.09-.05-.12-.13-.1-.53.04-1.06.07-1.58.12s-1.02.07-1.5.07c-.55,0-1.06-.04-1.52-.12-.11-.02-.2-.07-.27-.15-.07-.08-.1-.18-.1-.29,0-.12.05-.22.14-.29.09-.07.19-.1.31-.08.25.04.51.06.78.08.27.02.54.03.81.03.48,0,.96-.02,1.46-.06s.99-.08,1.48-.11c.08-.02.12-.06.12-.13v-1.23c-.02-.11.01-.21.09-.29s.17-.12.29-.12.21.04.29.11c.08.07.12.17.12.29v1.17c0,.09.05.12.14.1.27-.02.53-.03.79-.04.26,0,.52-.01.77-.01.27,0,.53,0,.79.02.26.01.51.04.75.08.11.02.2.07.26.15.06.08.09.17.09.28,0,.11-.04.21-.13.29-.09.08-.19.11-.3.09-.22-.03-.44-.06-.68-.07-.24-.01-.48-.02-.73-.02s-.53,0-.81.02c-.28.01-.55.03-.83.04-.08,0-.12.04-.12.12v2.15s0,.05,0,.07c0,.02.01.04.02.07.22.49.32,1.03.32,1.6s-.13,1.16-.4,1.7c-.27.55-.68,1-1.23,1.35-.55.36-1.25.55-2.09.58Zm.77-4.21c.05.15.16.27.32.38.16.1.33.16.51.16.23,0,.44-.1.64-.3.2-.2.3-.54.31-1.03,0-.05-.02-.1-.05-.14-.12-.17-.26-.3-.41-.37-.15-.07-.3-.11-.45-.11-.24,0-.46.09-.65.28-.19.19-.29.43-.29.72,0,.06,0,.13.01.2,0,.07.03.15.05.21Z"/><path d="m181.57,66.4c-.54,0-.96-.07-1.28-.22s-.54-.34-.68-.57-.2-.46-.2-.7c0-.12.02-.24.05-.36s.08-.23.13-.33c.24-.42.55-.62.91-.62.16,0,.34.04.52.12.31.14.63.37.96.68s.62.64.89.97c.04.05.1.06.16.04.35-.13.67-.29.96-.49.29-.19.54-.43.73-.71.22-.3.33-.65.33-1.04,0-.29-.07-.56-.2-.83-.13-.26-.34-.49-.6-.68s-.61-.31-1.03-.35c-.09-.02-.17-.03-.26-.03h-.27c-.67,0-1.33.16-2,.47s-1.37.81-2.12,1.48c-.08.07-.18.1-.3.1-.1,0-.18-.02-.25-.07-.1-.07-.14-.16-.14-.27,0-.08.02-.14.05-.18.72-1.06,1.4-2,2.05-2.83.65-.83,1.26-1.53,1.85-2.11.08-.08.06-.1-.04-.08-.23.06-.54.11-.94.15s-.82.06-1.25.06h-.31c-.1,0-.2,0-.3-.01-.1,0-.19-.05-.27-.14-.07-.08-.11-.18-.11-.28,0-.12.04-.22.13-.31.09-.08.19-.12.31-.11.35.03.7.04,1.03.04.45,0,.88-.03,1.29-.08.41-.06.81-.15,1.21-.28.03,0,.05-.01.08-.02.03,0,.05,0,.08,0,.21,0,.35.09.42.27.03.07.05.15.05.23,0,.18-.07.33-.21.46-.46.42-.86.81-1.2,1.17-.34.36-.67.74-.98,1.12s-.63.83-.98,1.32c-.02.04-.03.06-.03.08,0,.07.04.08.13.04.5-.28,1.03-.5,1.58-.68.55-.17,1.09-.26,1.61-.26.67,0,1.23.15,1.7.46.47.31.78.73.95,1.25.09.27.13.55.13.84,0,.6-.19,1.14-.56,1.64-.37.49-.88.89-1.53,1.18-.65.29-1.39.44-2.23.44Zm.47-.77c.05,0,.08-.02.1-.05.01-.04,0-.07-.03-.1-.23-.28-.48-.53-.75-.77-.28-.23-.53-.35-.75-.35-.13,0-.24.04-.32.12-.09.08-.13.19-.13.32,0,.06.01.13.04.2.09.2.23.35.42.44.19.1.42.15.68.18s.51.03.76.02Z"/><path d="m191.32,66.89c-.11,0-.21-.04-.29-.12-.08-.08-.12-.18-.12-.29v-9.58c0-.2.07-.37.21-.5.14-.13.3-.2.49-.2h8.11c.2,0,.37.07.5.2.13.13.2.3.2.5v8.71c0,.83-.56,1.25-1.69,1.26-.11,0-.21-.04-.31-.13-.09-.09-.14-.19-.14-.31s.04-.22.13-.3c.09-.08.19-.12.3-.12.35,0,.58-.01.7-.07.12-.05.18-.16.18-.34v-8.53c0-.05-.03-.08-.08-.08h-7.72c-.05,0-.08.03-.08.08v9.4c0,.11-.04.21-.12.29-.08.08-.17.12-.29.12Zm1.92-7.51c-.11,0-.21-.04-.29-.12s-.12-.17-.12-.29.04-.21.12-.29.17-.12.29-.12h4.84c.11,0,.21.04.29.12s.12.17.12.29-.04.21-.12.29-.17.12-.29.12h-4.84Zm.99,5.47c-.19,0-.36-.07-.49-.21-.14-.14-.21-.3-.21-.49v-2.74c0-.19.07-.36.21-.49.14-.14.3-.21.49-.21h2.86c.2,0,.37.07.5.21.13.14.2.3.2.49v2.74c0,.19-.07.36-.2.49-.13.14-.3.21-.5.21h-2.86Zm.18-.81h2.5c.05,0,.08-.03.08-.08v-2.39c0-.05-.03-.08-.08-.08h-2.5c-.05,0-.08.03-.08.08v2.39c0,.05.03.08.08.08Z"/><path d="m204.57,66.68s-.05.02-.08.03c-.03.01-.05.02-.08.02-.15,0-.25-.07-.31-.22,0-.03-.02-.05-.02-.08,0-.03,0-.06,0-.08,0-.17.07-.31.21-.4.3-.2.57-.41.81-.64.24-.23.45-.47.63-.71.09-.13.2-.2.35-.2.06,0,.12.02.18.05.13.09.19.19.19.32,0,.07-.02.13-.06.2-.49.7-1.09,1.27-1.82,1.72Zm-.04-7.24c-.1,0-.19-.03-.26-.1s-.1-.15-.1-.25.03-.18.1-.25.16-.1.26-.1h3.25c.09,0,.1-.02.04-.07-.04-.03-.08-.06-.1-.1-.04-.07-.09-.14-.14-.2-.05-.06-.1-.13-.15-.19-.06-.09-.09-.18-.09-.26,0-.12.05-.22.14-.3.07-.06.16-.09.29-.09.16,0,.28.05.36.16.06.07.12.14.17.21.05.07.1.15.13.23.03.06.05.13.05.21,0,.16-.05.27-.16.35,0,0-.02.02-.03.02-.01,0-.02.01-.03.02h.23s1.57.01,1.57.01c.03,0,.06-.01.09-.04.12-.15.25-.3.38-.47.13-.16.25-.33.36-.49.1-.14.23-.21.39-.21.14,0,.25.04.32.13.07.09.11.19.11.3,0,.08-.02.15-.05.21-.05.08-.11.16-.16.24-.06.08-.12.16-.18.24-.04.06-.03.09.04.09h3.25c.1,0,.18.03.25.1.07.07.1.15.1.25,0,.1-.03.18-.1.25s-.15.1-.25.1h-10.09Zm.92-2.05c-.1,0-.18-.03-.25-.1s-.1-.16-.1-.26c0-.09.03-.18.1-.25.07-.07.15-.1.25-.1h3.64c.05,0,.08-.03.08-.08v-.44c0-.11.04-.21.12-.28.08-.07.17-.11.29-.11.12,0,.22.04.29.11.07.07.11.17.11.28v.44c0,.05.03.08.08.08h3.64c.1,0,.18.04.25.1.07.07.1.15.1.25s-.03.18-.1.25c-.07.07-.15.11-.25.11h-8.24Zm1.18,6.4c-.19,0-.36-.07-.49-.21s-.21-.3-.21-.49v-2.28c0-.2.07-.37.21-.5.14-.13.3-.2.49-.2h5.88c.2,0,.37.07.5.2.13.13.2.3.2.5v2.28c0,.19-.07.36-.2.49s-.3.21-.5.21h-5.88Zm.19-2.2h5.49c.05,0,.08-.03.08-.08v-.61c0-.05-.03-.08-.08-.08h-5.49c-.05,0-.08.03-.08.08v.61c0,.05.03.08.08.08Zm0,1.47h5.49c.05,0,.08-.03.08-.08v-.61c0-.05-.03-.08-.08-.08h-5.49c-.05,0-.08.03-.08.08v.61c0,.05.03.08.08.08Zm2.44,3.76c-.53,0-.94-.04-1.25-.14-.3-.09-.52-.25-.64-.47-.13-.23-.19-.53-.19-.91v-.82c0-.11.04-.21.12-.28.08-.07.17-.11.27-.11s.19.04.27.11c.08.07.12.17.12.28v.82c0,.24.05.42.14.54s.29.19.57.22c.29.03.71.04,1.27.04.41,0,.74,0,1-.03.26-.02.48-.06.67-.13.19-.07.37-.19.57-.35.09-.07.18-.1.27-.1.11,0,.21.04.29.12.07.09.1.18.1.27,0,.1-.04.19-.12.26-.53.45-1.12.68-1.77.68h-1.7Zm1.55-1.27c-.25-.14-.52-.27-.81-.4s-.57-.24-.84-.34c-.17-.05-.25-.16-.25-.34,0-.11.04-.2.11-.27s.15-.1.24-.1c.03,0,.08,0,.13.03.3.1.6.21.9.34.29.13.57.26.82.39.15.07.22.18.22.34,0,.04,0,.07-.01.1s-.02.06-.04.1c-.03.06-.07.11-.12.14-.06.04-.11.05-.18.05s-.12-.01-.17-.04Zm3.68.68c-.25-.21-.54-.41-.86-.6s-.65-.38-1-.54c-.15-.07-.22-.18-.22-.34,0-.11.04-.2.12-.27.08-.07.17-.1.27-.1.03,0,.08,0,.13.03.29.13.6.29.94.48.34.19.67.39.99.61.14.09.21.22.21.39,0,.08-.02.16-.07.25-.07.11-.17.17-.3.17-.08,0-.15-.03-.22-.08Z"/><path d="m218.44,62.86c-.1,0-.19-.04-.26-.1s-.1-.16-.1-.26.03-.19.1-.26.16-.1.26-.1h4.56c.05,0,.08-.03.08-.08v-.52c0-.05-.03-.08-.08-.08h-3.55c-.09,0-.17-.04-.23-.1s-.1-.15-.1-.25.03-.17.1-.24c.07-.06.15-.1.23-.1h3.55c.05,0,.08-.03.08-.08v-.52c0-.05-.03-.08-.08-.08h-3.15c-.1,0-.18-.03-.25-.1-.07-.07-.11-.16-.11-.26,0-.09.03-.18.1-.25.07-.07.16-.1.26-.1h3.15c.05,0,.08-.03.08-.08v-.52c0-.05-.03-.08-.08-.08h-4.5c-.1,0-.19-.04-.26-.1-.07-.07-.1-.16-.1-.26s.03-.19.1-.26c.07-.07.16-.1.26-.1h4.5c.05,0,.08-.03.08-.08v-.53c0-.05-.03-.08-.08-.08h-3.15c-.1,0-.18-.04-.25-.1-.07-.07-.11-.15-.11-.25,0-.1.05-.19.12-.25.07-.07.15-.1.25-.1h3.15c.05,0,.08-.03.08-.08v-.31c0-.12.04-.22.12-.29.08-.07.17-.11.29-.11s.21.04.29.11c.08.07.12.17.12.29v.31c0,.05.03.08.08.08h2.61c.2,0,.37.07.5.2.13.13.2.3.2.5v.61c0,.05.03.08.08.08h1.1c.1,0,.19.04.26.1s.1.16.1.26c0,.1-.03.18-.1.25-.07.07-.16.11-.26.11h-1.1c-.05,0-.08.03-.08.08v.61c0,.19-.07.36-.2.49-.13.14-.3.21-.5.21h-2.61c-.05,0-.08.03-.08.08v.52c0,.05.03.08.08.08h3.55c.1,0,.18.03.24.1.06.07.1.15.1.24s-.03.18-.1.25-.15.1-.24.1h-3.55c-.05,0-.08.03-.08.08v.52c0,.05.03.08.08.08h4.56c.1,0,.19.04.26.1.07.07.1.16.1.26,0,.1-.04.18-.1.25-.07.07-.16.11-.26.11h-10.09Zm2,3.9c-.19,0-.36-.07-.49-.21s-.21-.3-.21-.49v-1.91c0-.2.07-.37.21-.5s.3-.2.49-.2h6.08c.2,0,.37.07.5.21s.2.3.2.49v1.91c0,.19-.07.36-.2.49s-.3.21-.5.21h-6.08Zm.17-1.98h5.75c.05,0,.08-.03.08-.08v-.52c0-.05-.03-.08-.08-.08h-5.75c-.05,0-.08.03-.08.08v.52c0,.05.03.08.08.08Zm0,1.33h5.75c.05,0,.08-.03.08-.08v-.53c0-.05-.03-.08-.08-.08h-5.75c-.05,0-.08.03-.08.08v.53c0,.05.03.08.08.08Zm3.35-8.14h2.46c.05,0,.08-.03.08-.08v-.53c0-.05-.03-.08-.08-.08h-2.46c-.05,0-.08.03-.08.08v.53c0,.05.03.08.08.08Zm0,1.4h2.46c.05,0,.08-.03.08-.08v-.52c0-.05-.03-.08-.08-.08h-2.46c-.05,0-.08.03-.08.08v.52c0,.05.03.08.08.08Z"/></g><g><line class="cls-4" x1="126.16" y1="97.8" x2="126.16" y2="112.82"/><path class="cls-3" d="m120.94,105.39c.25-.16.59-.09.75.17l4.47,7.02,4.47-7.02c.16-.25.5-.33.75-.17.25.16.33.5.17.75l-4.93,7.74c-.1.16-.27.25-.46.25s-.36-.1-.46-.25l-4.93-7.74c-.06-.09-.08-.19-.08-.29,0-.18.09-.36.25-.46Z"/></g><polygon class="cls-2" points="42.79 .8 .75 48.85 .75 .8 42.79 .8"/></g></g></svg>