<?xml version="1.0" encoding="UTF-8"?><svg id="_レイヤー_2" xmlns="http://www.w3.org/2000/svg" viewBox="0 0 252 133.05"><defs><style>.cls-1{fill:#fff;}.cls-2{fill:#f4e576;}.cls-3{fill:#333;}.cls-4{fill:none;stroke:#333;stroke-linecap:round;stroke-miterlimit:10;stroke-width:.75px;}</style></defs><g id="_レイヤー_1-2"><g><g><rect class="cls-1" x=".38" y=".38" width="251.25" height="132.3"/><path class="cls-3" d="m251.25.75v131.55H.75V.75h250.5m.75-.75H0v133.05h252V0h0Z"/></g><g><path d="m80.75,66.72c-.19,0-.36-.07-.49-.21s-.21-.3-.21-.49v-7.75c0-.19.07-.35.21-.49s.3-.21.49-.21h1.83s.08-.02.1-.05c.16-.22.31-.48.44-.75.13-.28.23-.55.31-.83.06-.22.2-.34.42-.34.11,0,.21.04.29.12.08.08.12.18.12.29,0,.04,0,.08-.01.1-.11.49-.29.95-.53,1.36-.03.06,0,.09.05.09h3.21c.2,0,.37.07.5.21s.2.3.2.49v7.75c0,.19-.07.36-.2.49s-.3.21-.5.21h-6.21Zm.19-6.38h5.82c.05,0,.08-.03.08-.08v-1.81c0-.05-.03-.08-.08-.08h-5.82c-.05,0-.08.03-.08.08v1.81c0,.05.03.08.08.08Zm0,2.76h5.82c.05,0,.08-.03.08-.08v-1.81c0-.05-.03-.08-.08-.08h-5.82c-.05,0-.08.03-.08.08v1.81c0,.05.03.08.08.08Zm0,2.82h5.82c.05,0,.08-.03.08-.08v-1.87c0-.05-.03-.08-.08-.08h-5.82c-.05,0-.08.03-.08.08v1.87c0,.05.03.08.08.08Z"/><path d="m93.84,66.75c-.19,0-.36-.07-.49-.21-.14-.14-.21-.3-.21-.49v-7.03c0-.2.07-.37.21-.5.14-.13.3-.2.49-.2h3.39c.05,0,.08-.03.08-.08v-2.03c0-.12.04-.22.12-.3.08-.08.18-.12.29-.12.12,0,.22.04.3.12.08.08.12.18.12.3v2.03c0,.05.03.08.08.08h3.41c.2,0,.37.07.5.2.13.13.2.3.2.5v7.03c0,.2-.07.37-.2.5-.13.13-.3.2-.5.2h-7.79Zm.2-4.89h3.2c.05,0,.08-.03.08-.08v-2.6c0-.05-.03-.08-.08-.08h-3.2c-.05,0-.08.03-.08.08v2.6c0,.05.03.08.08.08Zm0,4.1h3.2c.05,0,.08-.03.08-.08v-3.13c0-.05-.03-.08-.08-.08h-3.2c-.05,0-.08.03-.08.08v3.13c0,.05.03.08.08.08Zm4.19-4.1h3.21c.05,0,.08-.03.08-.08v-2.6c0-.05-.03-.08-.08-.08h-3.21c-.05,0-.08.03-.08.08v2.6c0,.05.03.08.08.08Zm0,4.1h3.21c.05,0,.08-.03.08-.08v-3.13c0-.05-.03-.08-.08-.08h-3.21c-.05,0-.08.03-.08.08v3.13c0,.05.03.08.08.08Z"/><path d="m106.6,58.65c-.11,0-.21-.04-.28-.11-.07-.07-.11-.17-.11-.28s.04-.21.11-.28.17-.11.28-.11h3.22c.11,0,.21.04.28.11.07.07.11.17.11.28,0,.1-.04.2-.11.27-.07.08-.17.12-.28.12h-3.22Zm.34-1.68c-.11,0-.21-.04-.29-.12s-.12-.17-.12-.27c0-.11.04-.21.12-.28.08-.07.17-.11.29-.11h2.55c.1,0,.19.04.27.11.08.07.12.17.12.28s-.04.21-.12.28c-.08.07-.17.11-.27.11h-2.55Zm.05,3.35c-.11,0-.21-.04-.29-.12-.08-.08-.12-.17-.12-.27,0-.11.04-.21.12-.29.08-.08.17-.12.29-.12h2.44c.11,0,.21.04.28.12.07.08.11.17.11.29s-.04.21-.12.28c-.08.07-.17.11-.27.11h-2.44Zm0,1.68c-.11,0-.21-.04-.29-.12-.08-.08-.12-.17-.12-.27,0-.12.04-.22.12-.29.08-.07.17-.11.29-.11h2.44c.11,0,.21.04.28.12s.11.17.11.29c0,.1-.04.19-.11.27s-.17.12-.28.12h-2.44Zm.3,4.77c-.19,0-.36-.07-.49-.21-.14-.14-.21-.3-.21-.49v-2.48c0-.2.07-.37.21-.5.14-.13.3-.2.49-.2h1.87c.2,0,.37.07.5.21s.2.3.2.49v2.48c0,.19-.07.35-.2.49s-.3.21-.5.21h-1.87Zm.14-.7h1.6c.05,0,.08-.03.08-.08v-2.31c0-.05-.03-.08-.08-.08h-1.6c-.05,0-.08.03-.08.08v2.31c0,.05.03.08.08.08Zm9.31-6.49c-.36-.18-.74-.41-1.12-.68s-.75-.57-1.1-.88c-.35-.31-.65-.61-.92-.9-.03-.04-.06-.04-.1,0-.12.16-.29.34-.52.56-.23.22-.47.44-.73.68-.26.24-.52.46-.78.66-.26.2-.48.37-.68.5-.06.03-.13.05-.2.05-.16,0-.28-.08-.35-.23-.03-.07-.04-.13-.04-.18,0-.17.08-.31.23-.4.33-.2.66-.44.99-.73.33-.29.65-.58.95-.9.3-.31.55-.6.76-.87.11-.14.25-.21.4-.21.15,0,.27.06.36.18.28.33.59.65.95.97.36.32.72.62,1.09.88.37.27.72.49,1.05.65.19.1.29.26.29.46,0,.12-.04.22-.12.29-.08.07-.17.11-.27.11-.06,0-.11,0-.14-.03Zm-6.03,7.19c-.11.02-.22-.01-.31-.09-.1-.08-.14-.18-.14-.3,0-.25.12-.4.35-.46,1.08-.23,2.13-.55,3.13-.96,1.01-.4,1.9-.86,2.68-1.36.04-.04.1-.05.18-.05.14,0,.24.07.3.2.02.04.03.07.04.11,0,.04.01.08.01.11,0,.19-.08.33-.23.43-.36.23-.78.47-1.29.71s-1.03.47-1.59.68-1.11.41-1.66.58-1.04.3-1.47.4Zm.25-2.59c-.11.04-.22.01-.33-.06-.11-.08-.16-.19-.16-.33,0-.21.1-.34.31-.4.86-.23,1.69-.54,2.51-.91.81-.37,1.53-.78,2.15-1.23.07-.05.14-.08.21-.08.14,0,.24.07.3.2.03.07.05.15.05.23,0,.17-.07.31-.22.42-.71.48-1.49.9-2.33,1.27-.84.37-1.67.67-2.48.9Zm.3-2.4s-.06.01-.1.01c-.1,0-.19-.04-.27-.11-.08-.07-.12-.17-.12-.29,0-.22.1-.36.31-.42.64-.2,1.27-.45,1.88-.76.61-.31,1.16-.64,1.66-1,.05-.04.12-.06.19-.06.15,0,.25.06.3.18.03.07.05.15.05.23,0,.18-.07.32-.22.43-.29.2-.66.41-1.09.64-.43.23-.87.45-1.33.65-.46.2-.88.37-1.27.49Z"/><path d="m120.54,66.93c-.13-.06-.2-.17-.2-.31,0-.08.03-.16.08-.23.28-.43.49-.94.64-1.51.15-.58.26-1.16.32-1.76,0-.03,0-.06-.02-.06s-.05,0-.07.01c-.11.1-.24.2-.38.29s-.28.18-.43.28c-.03,0-.05.02-.08.03-.03.01-.05.02-.08.02-.09,0-.17-.04-.23-.12-.07-.08-.1-.17-.1-.27,0-.24.11-.43.34-.56.42-.24.78-.56,1.08-.95.03-.03.04-.06.04-.09v-1.9c0-.07-.02-.09-.06-.07,0,0-.03.02-.06.04-.03.03-.08.04-.14.04-.15,0-.26-.08-.34-.25-.19-.52-.45-1.01-.77-1.48-.05-.07-.08-.14-.08-.22,0-.14.06-.25.19-.34.09-.04.17-.06.25-.06.16,0,.29.07.39.21.1.16.19.33.28.5s.18.34.25.51c.02.04.04.05.06.05.02,0,.03-.02.03-.06v-1.53c0-.17.06-.32.18-.45.12-.13.27-.19.46-.19h3.54c.05,0,.08-.03.08-.08v-.35c0-.12.04-.22.12-.3.08-.08.18-.12.29-.12s.21.04.29.12c.08.08.12.18.12.3v.35c0,.05.03.08.08.08h3.95c.11,0,.21.04.29.11.08.07.12.17.12.28s-.04.21-.11.28-.17.11-.29.11h-8.24c-.05,0-.08.03-.08.08v4.46c0,.38-.02.8-.06,1.25-.04.45-.1.91-.19,1.37-.09.46-.19.9-.32,1.31-.13.41-.27.75-.45,1.04-.1.15-.23.22-.42.22-.08,0-.17-.02-.27-.07Zm2.3-.27c-.05.02-.1.03-.13.03-.09,0-.17-.04-.24-.11s-.11-.17-.11-.29c0-.18.09-.31.26-.38.41-.17.79-.38,1.14-.62.35-.24.65-.49.9-.75.1-.1.22-.16.35-.16.09,0,.16.02.22.05.12.07.18.17.18.3,0,.06-.03.13-.08.2-.32.4-.71.75-1.18,1.05-.47.3-.91.53-1.31.68Zm2.7.23c-.11,0-.21-.04-.28-.13-.07-.09-.11-.19-.11-.3,0-.1.05-.19.13-.27.08-.07.17-.1.29-.08.07,0,.13.01.19.01h.15c.18,0,.31-.02.38-.06.07-.04.11-.11.11-.21v-1.65c0-.05-.03-.08-.08-.08h-1.47c-.19,0-.36-.07-.49-.21-.14-.14-.21-.31-.21-.5v-1.77s0-.04-.03-.06c-.02-.01-.04-.01-.06,0-.16.1-.32.19-.49.27-.17.09-.36.17-.55.25-.05.02-.09.03-.12.03-.1,0-.18-.04-.25-.11s-.1-.17-.1-.28c0-.21.1-.35.3-.43.3-.13.61-.29.91-.48.04-.04.05-.07.01-.1-.09-.1-.18-.21-.28-.32-.1-.11-.21-.23-.33-.34-.07-.06-.1-.14-.1-.25,0-.12.05-.21.14-.27.09-.06.19-.09.31-.09.16,0,.3.06.4.18.18.22.33.43.46.64h0s.02.02.05.03c.02.01.04.01.06,0,.18-.15.35-.3.51-.47.16-.17.3-.34.44-.53.06-.06.05-.09-.04-.09h-2.15c-.1,0-.19-.04-.27-.11-.07-.07-.11-.16-.11-.27s.04-.19.11-.27c.07-.07.16-.11.27-.11h2.65c.05,0,.08-.02.09-.05.09-.18.16-.38.23-.61.06-.2.19-.3.38-.3.11,0,.2.04.27.12.07.08.1.17.1.26,0,.04,0,.08-.01.1-.02.06-.04.12-.06.19-.03.07-.05.13-.08.2-.03.06,0,.09.06.09h3.45c.11,0,.2.04.27.11.07.07.1.16.1.27,0,.11-.04.2-.11.27-.07.07-.16.1-.27.1h-1.9c-.08,0-.1.03-.05.09.12.17.26.33.42.49.16.16.32.33.48.5.04.03.08.04.1.01.12-.09.23-.18.33-.29.1-.1.18-.21.26-.33.08-.12.18-.18.31-.18.05,0,.09.01.13.04.13.06.2.16.2.3,0,.05-.01.1-.04.16-.08.14-.16.27-.26.4s-.2.25-.32.36c-.04.03-.04.06,0,.1.14.09.28.18.42.27.14.09.29.18.45.25.17.08.26.21.26.4,0,.1-.04.19-.1.25-.07.07-.15.1-.23.1-.03,0-.07,0-.12-.03-.37-.17-.76-.41-1.16-.7-.06-.04-.09-.04-.09.01,0,.03.01.06.01.1v1.89c0,.2-.07.37-.2.51-.13.14-.3.21-.5.21h-1.46c-.05,0-.08.03-.08.08v1.65c0,.41-.13.69-.38.85-.25.16-.67.22-1.26.19Zm-.53-4.76h3.55c.05,0,.08-.03.08-.08v-.47c0-.05-.03-.08-.08-.08h-3.55c-.05,0-.08.03-.08.08v.47c0,.05.03.08.08.08Zm0,1.29h3.55c.05,0,.08-.03.08-.08v-.44c0-.05-.03-.08-.08-.08h-3.55c-.05,0-.08.03-.08.08v.44c0,.05.03.08.08.08Zm.22-2.6h3.41s.06-.01.07-.03,0-.04-.03-.06c-.23-.22-.46-.46-.67-.71-.21-.25-.4-.5-.58-.76-.03-.03-.06-.05-.1-.05h-.86c-.05,0-.08.02-.09.05-.14.24-.31.49-.51.73-.2.25-.42.49-.68.73-.03.02-.03.04-.03.06,0,.02.03.03.06.03Zm5.4,5.82c-.34-.15-.71-.36-1.11-.64-.4-.28-.8-.61-1.18-.98-.07-.07-.1-.16-.1-.26,0-.13.05-.23.14-.3.08-.05.16-.08.25-.08.15,0,.27.06.38.17.24.24.54.48.89.72s.67.43.94.58c.18.1.27.24.27.44,0,.11-.04.2-.11.27-.07.07-.16.1-.25.1-.03,0-.07,0-.12-.03Z"/><path d="m134.89,66.88c-.11,0-.21-.04-.29-.12-.08-.08-.12-.17-.12-.27v-9.7c0-.2.07-.37.21-.5.14-.13.3-.2.49-.2h2.95c.2,0,.37.07.5.21s.2.3.2.49v2.89c0,.19-.07.36-.2.49s-.3.21-.5.21h-2.78c-.05,0-.08.03-.08.08v6.03c0,.11-.04.21-.12.28-.08.07-.17.11-.27.11Zm.47-9.02h2.65c.05,0,.08-.03.08-.08v-.85c0-.05-.03-.08-.08-.08h-2.65c-.05,0-.08.03-.08.08v.85c0,.05.03.08.08.08Zm0,1.77h2.65c.05,0,.08-.03.08-.08v-.86c0-.05-.03-.08-.08-.08h-2.65c-.05,0-.08.03-.08.08v.86c0,.05.03.08.08.08Zm2.72,5.75c-.19,0-.36-.07-.49-.21s-.21-.3-.21-.49v-2.39c0-.2.07-.37.21-.5s.3-.2.49-.2h2.76c.2,0,.37.07.5.2.13.13.2.3.2.5v2.39c0,.19-.07.36-.2.49-.13.14-.3.21-.5.21h-2.76Zm.16-.77h2.45c.05,0,.08-.03.08-.08v-2.11c0-.05-.03-.08-.08-.08h-2.45c-.05,0-.08.03-.08.08v2.11c0,.05.03.08.08.08Zm4.26,2.31c-.11,0-.21-.06-.29-.14-.08-.09-.12-.19-.12-.3,0-.11.05-.21.13-.28s.17-.11.29-.1c.07,0,.13,0,.18,0,.05,0,.1,0,.16,0,.32,0,.53-.04.63-.12s.15-.21.15-.4v-5.13c0-.05-.03-.08-.08-.08h-2.78c-.2,0-.37-.07-.5-.21s-.2-.3-.2-.49v-2.89c0-.2.07-.37.21-.5.14-.13.3-.2.49-.2h2.95c.2,0,.37.07.5.21.13.14.2.3.2.49v8.8c0,.49-.15.85-.46,1.06-.31.21-.79.3-1.46.27Zm-1.6-9.06h2.65c.05,0,.08-.03.08-.08v-.85c0-.05-.03-.08-.08-.08h-2.65c-.05,0-.08.03-.08.08v.85c0,.05.03.08.08.08Zm0,1.77h2.65c.05,0,.08-.03.08-.08v-.86c0-.05-.03-.08-.08-.08h-2.65c-.05,0-.08.03-.08.08v.86c0,.05.03.08.08.08Z"/><path d="m148.33,58.65c-.11,0-.21-.04-.28-.11-.07-.07-.11-.17-.11-.28s.04-.21.11-.28c.07-.07.17-.11.28-.11h3.22c.11,0,.21.04.28.11.07.07.11.17.11.28,0,.1-.04.2-.11.27-.07.08-.17.12-.28.12h-3.22Zm.34-1.68c-.11,0-.21-.04-.29-.12s-.12-.17-.12-.27c0-.11.04-.21.12-.28.08-.07.17-.11.29-.11h2.55c.1,0,.19.04.27.11.08.07.12.17.12.28s-.04.21-.12.28c-.08.07-.17.11-.27.11h-2.55Zm.05,3.35c-.11,0-.21-.04-.29-.12-.08-.08-.12-.17-.12-.27,0-.11.04-.21.12-.29.08-.08.17-.12.29-.12h2.44c.11,0,.21.04.28.12.07.08.11.17.11.29s-.04.21-.12.28c-.08.07-.17.11-.27.11h-2.44Zm0,1.68c-.11,0-.21-.04-.29-.12-.08-.08-.12-.17-.12-.27,0-.12.04-.22.12-.29.08-.07.17-.11.29-.11h2.44c.11,0,.21.04.28.12s.11.17.11.29c0,.1-.04.19-.11.27s-.17.12-.28.12h-2.44Zm.3,4.77c-.19,0-.36-.07-.49-.21s-.21-.3-.21-.49v-2.48c0-.2.07-.37.21-.5.14-.13.3-.2.49-.2h1.87c.2,0,.37.07.5.21.13.14.2.3.2.49v2.48c0,.19-.07.35-.2.49-.13.14-.3.21-.5.21h-1.87Zm.14-.7h1.6c.05,0,.08-.03.08-.08v-2.31c0-.05-.03-.08-.08-.08h-1.6c-.05,0-.08.03-.08.08v2.31c0,.05.03.08.08.08Zm9.31-6.49c-.36-.18-.74-.41-1.12-.68-.39-.27-.75-.57-1.1-.88-.35-.31-.66-.61-.92-.9-.03-.04-.06-.04-.1,0-.12.16-.29.34-.52.56-.22.22-.47.44-.73.68-.26.24-.52.46-.78.66-.26.2-.48.37-.68.5-.06.03-.13.05-.2.05-.17,0-.28-.08-.35-.23-.03-.07-.04-.13-.04-.18,0-.17.08-.31.23-.4.33-.2.66-.44.99-.73s.65-.58.95-.9c.3-.31.55-.6.76-.87.11-.14.25-.21.4-.21s.27.06.36.18c.28.33.59.65.95.97.36.32.72.62,1.09.88.37.27.72.49,1.05.65.19.1.29.26.29.46,0,.12-.04.22-.12.29-.08.07-.17.11-.27.11-.06,0-.11,0-.14-.03Zm-6.03,7.19c-.11.02-.22-.01-.31-.09-.1-.08-.14-.18-.14-.3,0-.25.12-.4.35-.46,1.08-.23,2.13-.55,3.13-.96,1.01-.4,1.9-.86,2.68-1.36.04-.04.1-.05.18-.05.14,0,.24.07.3.2.02.04.03.07.04.11s.01.08.01.11c0,.19-.08.33-.23.43-.36.23-.78.47-1.29.71-.5.24-1.03.47-1.59.68s-1.11.41-1.66.58c-.54.17-1.04.3-1.47.4Zm.25-2.59c-.11.04-.22.01-.33-.06-.11-.08-.16-.19-.16-.33,0-.21.1-.34.31-.4.86-.23,1.69-.54,2.51-.91.81-.37,1.53-.78,2.14-1.23.07-.05.14-.08.21-.08.14,0,.24.07.3.2.03.07.05.15.05.23,0,.17-.07.31-.22.42-.71.48-1.49.9-2.33,1.27-.84.37-1.67.67-2.48.9Zm.3-2.4s-.06.01-.1.01c-.1,0-.19-.04-.27-.11-.08-.07-.12-.17-.12-.29,0-.22.1-.36.31-.42.64-.2,1.27-.45,1.88-.76.61-.31,1.16-.64,1.66-1,.05-.04.12-.06.2-.06.15,0,.25.06.3.18.03.07.05.15.05.23,0,.18-.07.32-.22.43-.29.2-.66.41-1.08.64s-.87.45-1.33.65c-.46.2-.88.37-1.27.49Z"/><path d="m162.5,66.68s-.06.01-.1.01c-.11,0-.21-.04-.3-.12-.09-.08-.13-.18-.13-.3,0-.19.1-.32.29-.39.44-.16.87-.36,1.29-.62.42-.26.79-.54,1.1-.84.1-.1.23-.16.36-.16.11,0,.2.03.27.09.1.09.16.19.16.3,0,.09-.03.18-.1.25-.39.39-.83.74-1.31,1.05-.49.31-.99.55-1.52.73Zm3.12.16c-.11,0-.21-.05-.28-.14-.07-.08-.11-.18-.11-.29,0-.12.04-.22.13-.3.09-.08.19-.11.3-.1s.21.02.31.02c.09,0,.18,0,.25,0,.43,0,.65-.09.65-.26v-1.85c0-.05-.03-.08-.08-.08h-4.37c-.1,0-.2-.04-.27-.11-.08-.07-.12-.17-.12-.28s.04-.21.11-.29c.07-.08.17-.12.28-.12h9.7c.11,0,.21.04.28.12s.11.17.11.29c0,.1-.04.2-.11.27-.07.08-.17.12-.28.12h-4.35c-.05,0-.08.03-.08.08v1.85c0,.72-.56,1.08-1.68,1.08h-.19c-.07,0-.13,0-.2-.01Zm-1.87-6.21c-.19,0-.36-.07-.49-.21s-.21-.3-.21-.49v-1.42c0-.2.07-.37.21-.5.14-.13.3-.2.49-.2h1.78c.05,0,.08-.03.08-.08v-.81c0-.05-.03-.08-.08-.08h-3.04c-.1,0-.19-.04-.27-.11-.07-.07-.11-.16-.11-.27,0-.1.04-.18.11-.25s.16-.11.27-.11h9.57c.1,0,.18.04.25.1.07.07.11.16.11.26s-.03.19-.1.27c-.07.07-.16.11-.26.11h-3.04c-.05,0-.08.03-.08.08v.81c0,.05.03.08.08.08h1.78c.2,0,.37.07.5.2.13.13.2.3.2.5v1.42c0,.19-.07.36-.2.49-.13.14-.3.21-.5.21h-7.05Zm.03,1.59c-.11,0-.21-.04-.29-.12s-.12-.17-.12-.27c0-.11.04-.21.12-.29s.17-.12.29-.12h6.99c.12,0,.22.04.29.12.07.08.11.17.11.29s-.04.21-.12.28c-.08.07-.17.11-.29.11h-6.99Zm.17-2.34h1.59c.05,0,.08-.03.08-.08v-1.17c0-.05-.03-.08-.08-.08h-1.59c-.05,0-.08.03-.08.08v1.17c0,.05.03.08.08.08Zm2.55-2.07h1.56c.05,0,.08-.03.08-.08v-.81c0-.05-.03-.08-.08-.08h-1.56c-.05,0-.08.03-.08.08v.81c0,.05.03.08.08.08Zm0,2.07h1.56c.05,0,.08-.03.08-.08v-1.17c0-.05-.03-.08-.08-.08h-1.56c-.05,0-.08.03-.08.08v1.17c0,.05.03.08.08.08Zm2.52,0h1.59c.05,0,.08-.03.08-.08v-1.17c0-.05-.03-.08-.08-.08h-1.59c-.05,0-.08.03-.08.08v1.17c0,.05.03.08.08.08Zm3,6.81c-.52-.18-1.02-.43-1.51-.73-.49-.31-.93-.66-1.31-1.05-.07-.07-.1-.15-.1-.25,0-.12.05-.22.16-.3.07-.06.16-.09.26-.09.15,0,.27.05.38.16.3.3.67.58,1.09.84.42.26.85.47,1.29.62.2.07.3.2.3.38,0,.13-.04.23-.13.31-.09.08-.19.12-.3.12-.05,0-.09,0-.12-.01Z"/></g><g><line class="cls-4" x1="126.41" y1="97.8" x2="126.41" y2="112.82"/><path class="cls-3" d="m121.19,105.39c.25-.16.59-.09.75.17l4.47,7.02,4.47-7.02c.16-.25.5-.33.75-.17.25.16.33.5.17.75l-4.93,7.74c-.1.16-.27.25-.46.25s-.36-.1-.46-.25l-4.93-7.74c-.06-.09-.08-.19-.08-.29,0-.18.09-.36.25-.46Z"/></g><line class="cls-4" x1="119.91" y1="120.3" x2="132.91" y2="120.3"/><polygon class="cls-2" points="42.79 .8 .75 48.85 .75 .8 42.79 .8"/></g></g></svg>