<?xml version="1.0" encoding="UTF-8"?><svg id="_レイヤー_2" xmlns="http://www.w3.org/2000/svg" width="252" height="133.0493" viewBox="0 0 252 133.0493"><g id="_レイヤー_1-2"><g><g><rect x=".3751" y=".375" width="251.2495" height="132.2998" fill="#fff"/><path d="m251.25.75v131.5493H.75V.75h250.5m.75-.75H0v133.0493h252V0h0Z" fill="#333"/></g><g><path d="m80.7471,66.7207c-.1909,0-.3555-.0693-.4941-.208s-.208-.3027-.208-.4941v-7.748c0-.1904.0693-.3545.208-.4932s.3032-.208.4941-.208h1.833c.043,0,.0776-.0176.104-.0527.1646-.2246.3096-.4766.4355-.7539.1255-.2773.2275-.5547.3052-.832.0605-.2246.1992-.3379.416-.3379.1128,0,.208.041.2861.124.0781.082.1172.1797.1172.292,0,.0439-.0049.0781-.0132.1045-.1128.4932-.2905.9482-.5332,1.3643-.0259.0615-.0088.0918.0522.0918h3.2109c.1992,0,.3662.0693.5005.208s.2017.3027.2017.4932v7.748c0,.1914-.0674.3555-.2017.4941s-.3013.208-.5005.208h-6.2139Zm.1948-6.3828h5.8242c.0518,0,.0776-.0264.0776-.0781v-1.8066c0-.0527-.0259-.0781-.0776-.0781h-5.8242c-.0518,0-.0781.0254-.0781.0781v1.8066c0,.0518.0264.0781.0781.0781Zm0,2.7559h5.8242c.0518,0,.0776-.0264.0776-.0781v-1.8066c0-.0518-.0259-.0781-.0776-.0781h-5.8242c-.0518,0-.0781.0264-.0781.0781v1.8066c0,.0518.0264.0781.0781.0781Zm0,2.8213h5.8242c.0518,0,.0776-.0264.0776-.0781v-1.8721c0-.0518-.0259-.0781-.0776-.0781h-5.8242c-.0518,0-.0781.0264-.0781.0781v1.8721c0,.0518.0264.0781.0781.0781Z"/><path d="m93.838,66.7471c-.1904,0-.3555-.0693-.4937-.208-.1387-.1387-.208-.3037-.208-.4941v-7.0332c0-.1992.0693-.3662.208-.5.1382-.1348.3032-.2021.4937-.2021h3.3931c.0522,0,.0781-.0254.0781-.0781v-2.0273c0-.1211.041-.2217.1235-.2988.082-.0781.1797-.1172.2925-.1172.1211,0,.2212.0391.2988.1172.0781.0771.1172.1777.1172.2988v2.0273c0,.0527.0259.0781.0781.0781h3.4058c.1992,0,.3662.0674.5005.2021.1343.1338.2017.3008.2017.5v7.0332c0,.1992-.0674.3662-.2017.5-.1343.1348-.3013.2021-.5005.2021h-7.7871Zm.1953-4.8887h3.1978c.0522,0,.0781-.0254.0781-.0771v-2.6006c0-.0518-.0259-.0781-.0781-.0781h-3.1978c-.0522,0-.0781.0264-.0781.0781v2.6006c0,.0518.0259.0771.0781.0771Zm0,4.0957h3.1978c.0522,0,.0781-.0264.0781-.0781v-3.1328c0-.0527-.0259-.0781-.0781-.0781h-3.1978c-.0522,0-.0781.0254-.0781.0781v3.1328c0,.0518.0259.0781.0781.0781Zm4.186-4.0957h3.2109c.0518,0,.0781-.0254.0781-.0771v-2.6006c0-.0518-.0264-.0781-.0781-.0781h-3.2109c-.0522,0-.0781.0264-.0781.0781v2.6006c0,.0518.0259.0771.0781.0771Zm0,4.0957h3.2109c.0518,0,.0781-.0264.0781-.0781v-3.1328c0-.0527-.0264-.0781-.0781-.0781h-3.2109c-.0522,0-.0781.0254-.0781.0781v3.1328c0,.0518.0259.0781.0781.0781Z"/><path d="m106.6041,58.6475c-.1128,0-.2061-.0361-.2798-.1104-.0737-.0732-.1104-.167-.1104-.2793s.0366-.2061.1104-.2793.167-.1104.2798-.1104h3.2236c.1128,0,.2061.0371.2798.1104.0732.0732.1104.167.1104.2793,0,.1045-.0371.1953-.1104.2734-.0737.0771-.167.1162-.2798.1162h-3.2236Zm.3379-1.6768c-.1128,0-.208-.0391-.2861-.1172s-.1172-.1689-.1172-.2725c0-.1123.0391-.2061.1172-.2793.0781-.0742.1733-.1113.2861-.1113h2.5479c.104,0,.1948.0371.2729.1113.0781.0732.1172.167.1172.2793s-.0391.2061-.1172.2793c-.0781.0742-.1689.1104-.2729.1104h-2.5479Zm.0518,3.3545c-.1128,0-.208-.0391-.2856-.1172-.0781-.0781-.1172-.1689-.1172-.2734,0-.1123.0391-.208.1172-.2861.0776-.0771.1729-.1162.2856-.1162h2.4443c.1123,0,.2056.0391.2793.1162.0737.0781.1104.1738.1104.2861,0,.1133-.0391.2061-.1167.2803-.0781.0732-.1689.1104-.2729.1104h-2.4443Zm0,1.6768c-.1128,0-.208-.0391-.2856-.1172-.0781-.0781-.1172-.1689-.1172-.2725,0-.1221.0391-.2188.1172-.293.0776-.0732.1729-.1104.2856-.1104h2.4443c.1123,0,.2056.0391.2793.1172s.1104.1729.1104.2861c0,.1035-.0366.1943-.1104.2725s-.167.1172-.2793.1172h-2.4443Zm.2993,4.7705c-.1909,0-.3555-.0693-.4941-.208s-.208-.3027-.208-.4932v-2.4834c0-.1992.0693-.3662.208-.501.1387-.1338.3032-.2012.4941-.2012h1.8716c.1997,0,.3662.0693.5005.208s.2017.3037.2017.4941v2.4834c0,.1904-.0674.3545-.2017.4932s-.3008.208-.5005.208h-1.8716Zm.1426-.7012h1.5991c.0522,0,.0781-.0264.0781-.0781v-2.3145c0-.0518-.0259-.0781-.0781-.0781h-1.5991c-.0518,0-.0776.0264-.0776.0781v2.3145c0,.0518.0259.0781.0776.0781Zm9.3081-6.4873c-.3638-.1816-.7388-.4092-1.1245-.6826s-.752-.5654-1.0981-.8779c-.3472-.3115-.6548-.6104-.9233-.8965-.0259-.043-.0605-.043-.104,0-.1216.1562-.2944.3428-.52.5586-.2251.2168-.4702.4443-.7344.6826-.2646.2383-.5244.46-.7798.6631-.2559.2041-.4834.3711-.6826.501-.061.0342-.126.0518-.1953.0518-.1646,0-.2817-.0781-.3506-.2344-.0264-.0693-.0391-.1299-.0391-.1816,0-.1738.0776-.3076.2339-.4033.3291-.1992.6606-.4414.9946-.7275.3335-.2861.6499-.585.9487-.8975.2993-.3115.5527-.6016.7607-.8711.1123-.1387.2471-.208.4028-.208.1475,0,.2686.0615.3643.1826.2769.3291.5933.6543.9487.9746.3555.3213.7192.6152,1.0923.8838.3721.2686.7231.4854,1.0527.6504.1904.1035.2861.2559.2861.4551,0,.1211-.0415.2188-.1235.292-.0825.0742-.1714.1113-.2666.1113-.0605,0-.1084-.0088-.1431-.0264Zm-6.0317,7.1885c-.1128.0176-.2168-.0127-.312-.0908-.0957-.0781-.1431-.1777-.1431-.2988,0-.251.1167-.4033.3511-.4551,1.083-.2334,2.1274-.5527,3.1328-.9551,1.0054-.4033,1.8979-.8564,2.6782-1.3584.043-.0352.104-.0527.1816-.0527.1387,0,.2383.0654.2993.1953.0171.0352.0303.0713.0391.1104.0083.0391.0127.0762.0127.1104,0,.1914-.0781.334-.2339.4297-.3555.2334-.7847.4697-1.2871.708s-1.0332.4658-1.5923.6826-1.1118.4092-1.6577.5781-1.0356.3018-1.4688.3965Zm.2471-2.5869c-.1128.0352-.2236.0137-.3315-.0645-.1089-.0781-.1626-.1865-.1626-.3252,0-.208.104-.3428.312-.4033.8579-.2334,1.6943-.5371,2.5088-.9102.8145-.3721,1.5298-.7842,2.145-1.2344.0693-.0518.1387-.0781.208-.0781.1387,0,.2383.0654.2993.1953.0342.0693.0518.1475.0518.2334,0,.1738-.0737.3125-.2212.416-.7104.4766-1.4863.9014-2.3267,1.2744-.8408.3721-1.6685.6719-2.4829.8965Zm.2988-2.4043c-.0259.0088-.0605.0127-.104.0127-.104,0-.1948-.0371-.2729-.1104-.0781-.0742-.1172-.1709-.1172-.293,0-.2158.104-.3555.312-.416.6411-.1992,1.2676-.4521,1.8784-.7598.6113-.3076,1.1636-.6396,1.6577-.9951.0518-.043.1172-.0645.1948-.0645.1475,0,.2471.0605.2993.1816.0342.0693.0518.1475.0518.2344,0,.1816-.0737.3242-.2212.4287-.2944.1992-.6562.4141-1.0854.6436-.4287.2295-.8706.4463-1.3257.6494-.4551.2041-.8774.3662-1.2676.4883Z"/><path d="m120.5401,66.9287c-.1299-.0605-.1953-.165-.1953-.3115,0-.0781.0264-.1562.0781-.2344.2773-.4336.4917-.9375.6436-1.5146.1514-.5762.2578-1.1631.3184-1.7617.0088-.0342.002-.0557-.0195-.0645s-.0454-.0039-.0713.0127c-.1128.1045-.2383.2021-.377.293s-.2817.1836-.4292.2793c-.0259.0088-.0518.0195-.0776.0322-.0264.0137-.0522.0195-.0781.0195-.0869,0-.165-.0391-.2339-.1172-.0698-.0781-.104-.1689-.104-.2725,0-.2432.1123-.4287.3379-.5596.4243-.2422.7842-.5586,1.0791-.9482.0259-.0264.0386-.0566.0386-.0918v-1.8975c0-.0693-.0215-.0908-.0649-.0654-.0088.0088-.0303.0225-.0649.0391-.0347.0264-.0825.0391-.1431.0391-.1475,0-.2598-.082-.3379-.2471-.1909-.5195-.4463-1.0137-.7671-1.4814-.0518-.0693-.0776-.1436-.0776-.2217,0-.1377.0649-.251.1948-.3379.0864-.043.1689-.0645.2471-.0645.1646,0,.2944.0693.3896.208.0957.1641.189.3311.2798.5s.1753.3408.2534.5137c.0171.0352.0366.0498.0586.0459.0215-.0049.0322-.0244.0322-.0586v-1.5342c0-.1738.0605-.3232.1821-.4482.1216-.126.2729-.1885.4551-.1885h3.5361c.0518,0,.0776-.0264.0776-.0781v-.3516c0-.1211.0415-.2207.1235-.2988.0825-.0781.1802-.1172.2925-.1172.1128,0,.2104.0391.2925.1172.0825.0781.1235.1777.1235.2988v.3516c0,.0518.0264.0781.0781.0781h3.9521c.1123,0,.208.0361.2861.1104.0781.0732.1172.167.1172.2793s-.0371.2061-.1113.2793c-.0732.0742-.1709.1104-.292.1104h-8.2422c-.0518,0-.0776.0264-.0776.0781v4.459c0,.3818-.0195.7979-.0586,1.248-.0391.4512-.1021.9082-.1885,1.3721-.0869.4629-.1934.8984-.3188,1.3057-.1255.4082-.2749.7549-.4482,1.04-.0957.1475-.2339.2217-.416.2217-.0781,0-.1689-.0225-.2729-.0654Zm2.3008-.2725c-.0518.0166-.0952.0254-.1299.0254-.0869,0-.167-.0371-.2407-.1104s-.1104-.1709-.1104-.292c0-.1826.0864-.3076.2603-.377.4072-.1738.7886-.3799,1.144-.6182.355-.2383.6538-.4873.897-.7471.104-.1045.2207-.1562.3506-.1562.0869,0,.1606.0176.2212.0518.1211.0693.1821.1689.1821.2988,0,.0615-.0259.126-.0781.1953-.3208.3984-.7148.75-1.1831,1.0527-.4678.3037-.9058.5293-1.313.6768Zm2.7041.2334c-.1128,0-.2061-.043-.2793-.1299-.0737-.0869-.1108-.1865-.1108-.2988.0088-.1045.0522-.1934.1304-.2666.0776-.0732.1729-.1016.2856-.084.0693.0078.1323.0127.1885.0127h.1494c.1821,0,.3101-.0195.3838-.0586.0732-.0391.1104-.1104.1104-.2148v-1.6504c0-.0527-.0259-.0781-.0781-.0781h-1.4688c-.1909,0-.3555-.0713-.4941-.2148-.1387-.1426-.208-.3096-.208-.5v-1.7686c0-.0254-.0088-.0449-.0259-.0586-.0176-.0127-.0391-.0107-.0649.0068-.1562.0957-.3208.1865-.4941.2725-.1733.0869-.3555.1699-.5459.2471-.0522.0176-.0908.0264-.1172.0264-.0952,0-.1777-.0371-.2471-.1104s-.104-.167-.104-.2793c0-.208.0996-.3516.2993-.4297.3032-.1299.6064-.29.9102-.4805.043-.0352.0474-.0693.0127-.1045-.0864-.1035-.1797-.2119-.2793-.3242-.1001-.1133-.2104-.2256-.3315-.3389-.0693-.0605-.104-.1426-.104-.2471,0-.1211.0474-.2119.1431-.2725.0864-.0605.1904-.0908.312-.0908.1646,0,.2988.0605.4028.1816.1821.2168.3335.4287.4551.6367v.0137c.0083,0,.0239.0059.0454.0195.0215.0127.041.0107.0586-.0068.1821-.1475.3511-.3037.5068-.4678.1562-.165.3032-.3428.4419-.5332.0605-.0605.0479-.0908-.0386-.0908h-2.145c-.104,0-.1934-.0371-.2666-.1104-.0737-.0742-.1108-.1631-.1108-.2666,0-.1045.0371-.1934.1108-.2666.0732-.0732.1626-.1104.2666-.1104h2.6519c.0518,0,.082-.0176.0908-.0527.0864-.1816.1646-.3848.2339-.6104.0605-.1992.1865-.2988.3774-.2988.1123,0,.2031.0391.2725.1162.0703.0781.1045.165.1045.2607,0,.043-.0049.0781-.0127.1035-.0176.0605-.0391.124-.0654.1885-.0264.0654-.0518.1328-.0781.2021-.0264.0605-.0049.0908.0654.0908h3.4453c.1113,0,.2031.0371.2725.1104s.1045.1621.1045.2666c0,.1123-.0371.2031-.1113.2725s-.1621.1045-.2656.1045h-1.8985c-.0781,0-.0957.0303-.0527.0908.1211.165.2607.3271.416.4873.1562.1611.3164.3271.4814.501.0439.0342.0781.0391.1045.0127.1211-.0869.2285-.1816.3242-.2861.0957-.1035.1816-.2119.2598-.3252.0781-.1211.1826-.1816.3125-.1816.0527,0,.0957.0127.1299.0391.1299.0605.1953.1602.1953.2988,0,.0518-.0127.1045-.0391.1562-.0781.1387-.165.2705-.2607.3965-.0947.126-.2031.2451-.3242.3574-.043.0264-.043.0605,0,.1035.1387.0869.2793.1758.4219.2666.1436.0918.293.1758.4492.2539.1729.0781.2598.2129.2598.4033,0,.1035-.0352.1885-.1035.2529-.0703.0654-.1484.0977-.2344.0977-.0254,0-.0645-.0088-.1172-.0264-.373-.1729-.7578-.4072-1.1562-.7012-.0615-.0439-.0918-.0391-.0918.0127.0088.0254.0137.0605.0137.1035v1.8857c0,.1992-.0684.3682-.2021.5068s-.3018.208-.501.208h-1.4551c-.0527,0-.0781.0254-.0781.0781v1.6504c0,.4072-.126.6914-.377.8516-.2514.1602-.6719.2236-1.2612.1885Zm-.5332-4.7578h3.5493c.0518,0,.0781-.0264.0781-.0781v-.4678c0-.0518-.0264-.0781-.0781-.0781h-3.5493c-.0518,0-.0776.0264-.0776.0781v.4678c0,.0518.0259.0781.0776.0781Zm0,1.2871h3.5493c.0518,0,.0781-.0264.0781-.0781v-.4424c0-.0518-.0264-.0771-.0781-.0771h-3.5493c-.0518,0-.0776.0254-.0776.0771v.4424c0,.0518.0259.0781.0776.0781Zm.2212-2.5996h3.4062c.0342,0,.0557-.0117.0654-.0332.0078-.0215,0-.041-.0273-.0586-.2334-.2246-.457-.4609-.6689-.708s-.4053-.501-.5791-.7607c-.0254-.0342-.0605-.0518-.1035-.0518h-.8579c-.0518,0-.0825.0176-.0908.0518-.1387.2432-.3076.4873-.5068.7344-.1997.2471-.4248.4922-.6763.7344-.0259.0176-.0347.0371-.0259.0586.0083.0215.0303.0332.0649.0332Zm5.3955,5.8232c-.3379-.1475-.709-.3613-1.1113-.6436-.4043-.2812-.7959-.6084-1.1777-.9814-.0684-.0693-.1035-.1553-.1035-.2598,0-.1299.0479-.2295.1426-.2988.0781-.0518.1602-.0781.248-.0781.1465,0,.2725.0566.377.1689.2422.2432.5391.4834.8906.7217.3506.2383.6641.4307.9414.5781.1826.0957.2734.2432.2734.4424,0,.1123-.0371.2031-.1104.2725s-.1582.1045-.2529.1045c-.0273,0-.0664-.0088-.1172-.0264Z"/><path d="m134.8922,66.877c-.1133,0-.208-.0391-.2861-.1172-.0771-.0781-.1162-.1689-.1162-.2725v-9.6982c0-.1992.0684-.3662.207-.501.1387-.1338.3037-.2012.4941-.2012h2.9512c.1992,0,.3662.0693.5.208.1348.1387.2021.3037.2021.4941v2.8857c0,.1904-.0674.3555-.2021.4941-.1338.1387-.3008.208-.5.208h-2.7822c-.0518,0-.0771.0264-.0771.0781v6.0322c0,.1123-.0391.2051-.1172.2793-.0781.0732-.1699.1104-.2734.1104Zm.4678-9.0225h2.6523c.0518,0,.0771-.0254.0771-.0771v-.8457c0-.0518-.0254-.0781-.0771-.0781h-2.6523c-.0518,0-.0771.0264-.0771.0781v.8457c0,.0518.0254.0771.0771.0771Zm0,1.7686h2.6523c.0518,0,.0771-.0264.0771-.0781v-.8584c0-.0518-.0254-.0781-.0771-.0781h-2.6523c-.0518,0-.0771.0264-.0771.0781v.8584c0,.0518.0254.0781.0771.0781Zm2.7178,5.7461c-.1914,0-.3555-.0693-.4941-.208s-.209-.3037-.209-.4941v-2.3926c0-.1992.0703-.3652.209-.5s.3027-.2012.4941-.2012h2.7559c.1992,0,.3652.0664.5.2012s.2012.3008.2012.5v2.3926c0,.1904-.0664.3555-.2012.4941s-.3008.208-.5.208h-2.7559Zm.1553-.7676h2.4443c.0518,0,.0781-.0254.0781-.0781v-2.1055c0-.0518-.0264-.0781-.0781-.0781h-2.4443c-.0518,0-.0771.0264-.0771.0781v2.1055c0,.0527.0254.0781.0771.0781Zm4.2646,2.3145c-.1133-.0088-.209-.0566-.2871-.1436-.0771-.0859-.1162-.1865-.1162-.2988.0088-.1123.0518-.2061.1299-.2793s.1738-.1064.2861-.0977c.0693,0,.1299.002.1816.0068.0518.0039.1045.0068.1562.0068.3203,0,.5303-.0391.6299-.1172s.1504-.2129.1504-.4033v-5.1348c0-.0518-.0264-.0781-.0781-.0781h-2.7822c-.1992,0-.3662-.0693-.501-.208-.1338-.1387-.2012-.3037-.2012-.4941v-2.8857c0-.1992.0693-.3662.208-.501.1387-.1338.3037-.2012.4941-.2012h2.9512c.1992,0,.3662.0693.501.208.1338.1387.2012.3037.2012.4941v8.8008c0,.4941-.1543.8467-.4619,1.0596-.3076.2119-.7949.3008-1.4619.2666Zm-1.5996-9.0615h2.6523c.0518,0,.0781-.0254.0781-.0771v-.8457c0-.0518-.0264-.0781-.0781-.0781h-2.6523c-.0518,0-.0781.0264-.0781.0781v.8457c0,.0518.0264.0771.0781.0771Zm0,1.7686h2.6523c.0518,0,.0781-.0264.0781-.0781v-.8584c0-.0518-.0264-.0781-.0781-.0781h-2.6523c-.0518,0-.0781.0264-.0781.0781v.8584c0,.0518.0264.0781.0781.0781Z"/><path d="m148.3336,58.6475c-.1123,0-.2051-.0361-.2793-.1104-.0742-.0732-.1104-.167-.1104-.2793s.0361-.2061.1104-.2793.167-.1104.2793-.1104h3.2246c.1123,0,.2051.0371.2793.1104.0732.0732.1104.167.1104.2793,0,.1045-.0371.1953-.1104.2734-.0742.0771-.167.1162-.2793.1162h-3.2246Zm.3379-1.6768c-.1123,0-.207-.0391-.2852-.1172s-.1172-.1689-.1172-.2725c0-.1123.0391-.2061.1172-.2793.0781-.0742.1729-.1113.2852-.1113h2.5488c.1035,0,.1943.0371.2725.1113.0781.0732.1172.167.1172.2793s-.0391.2061-.1172.2793c-.0781.0742-.1689.1104-.2725.1104h-2.5488Zm.0527,3.3545c-.1133,0-.209-.0391-.2861-.1172-.0781-.0781-.1172-.1689-.1172-.2734,0-.1123.0391-.208.1172-.2861.0771-.0771.1729-.1162.2861-.1162h2.4434c.1133,0,.2061.0391.2793.1162.0742.0781.1113.1738.1113.2861,0,.1133-.0391.2061-.1172.2803-.0781.0732-.1689.1104-.2734.1104h-2.4434Zm0,1.6768c-.1133,0-.209-.0391-.2861-.1172-.0781-.0781-.1172-.1689-.1172-.2725,0-.1221.0391-.2188.1172-.293.0771-.0732.1729-.1104.2861-.1104h2.4434c.1133,0,.2061.0391.2793.1172.0742.0781.1113.1729.1113.2861,0,.1035-.0371.1943-.1113.2725-.0732.0781-.166.1172-.2793.1172h-2.4434Zm.2988,4.7705c-.1914,0-.3555-.0693-.4941-.208s-.208-.3027-.208-.4932v-2.4834c0-.1992.0693-.3662.208-.501.1387-.1338.3027-.2012.4941-.2012h1.8711c.2002,0,.3672.0693.501.208s.2021.3037.2021.4941v2.4834c0,.1904-.0684.3545-.2021.4932s-.3008.208-.501.208h-1.8711Zm.1426-.7012h1.5996c.0518,0,.0781-.0264.0781-.0781v-2.3145c0-.0518-.0264-.0781-.0781-.0781h-1.5996c-.0518,0-.0781.0264-.0781.0781v2.3145c0,.0518.0264.0781.0781.0781Zm9.3086-6.4873c-.3643-.1816-.7393-.4092-1.125-.6826s-.752-.5654-1.0977-.8779c-.3477-.3115-.6553-.6104-.9238-.8965-.0254-.043-.0605-.043-.1035,0-.1221.1562-.2949.3428-.5205.5586-.2256.2168-.4697.4443-.7344.6826s-.5244.46-.7803.6631c-.2559.2041-.4824.3711-.6816.501-.0615.0342-.127.0518-.1953.0518-.165,0-.2822-.0781-.3516-.2344-.0254-.0693-.0391-.1299-.0391-.1816,0-.1738.0781-.3076.2344-.4033.3291-.1992.6602-.4414.9941-.7275s.6504-.585.9492-.8975c.2988-.3115.5527-.6016.7607-.8711.1123-.1387.2471-.208.4033-.208.1465,0,.2676.0615.3633.1826.2773.3291.5938.6543.9492.9746.3555.3213.7188.6152,1.0918.8838s.7236.4854,1.0527.6504c.1914.1035.2871.2559.2871.4551,0,.1211-.042.2188-.124.292-.083.0742-.1709.1113-.2666.1113-.0606,0-.1084-.0088-.1426-.0264Zm-6.0322,7.1885c-.1123.0176-.2168-.0127-.3115-.0908-.0957-.0781-.1436-.1777-.1436-.2988,0-.251.1162-.4033.3506-.4551,1.084-.2334,2.1279-.5527,3.1328-.9551,1.0059-.4033,1.8984-.8564,2.6787-1.3584.043-.0352.1045-.0527.1816-.0527.1387,0,.2383.0654.2998.1953.0166.0352.0293.0713.0391.1104.0078.0391.0117.0762.0117.1104,0,.1914-.0781.334-.2334.4297-.3555.2334-.7842.4697-1.2871.708s-1.0332.4658-1.5928.6826c-.5586.2168-1.1113.4092-1.6572.5781s-1.0361.3018-1.4688.3965Zm.2471-2.5869c-.1133.0352-.2236.0137-.332-.0645s-.1621-.1865-.1621-.3252c0-.208.1035-.3428.3125-.4033.8574-.2334,1.6934-.5371,2.5078-.9102.8145-.3721,1.5303-.7842,2.1455-1.2344.0693-.0518.1387-.0781.208-.0781.1387,0,.2383.0654.2988.1953.0352.0693.0527.1475.0527.2334,0,.1738-.0742.3125-.2217.416-.71.4766-1.4863.9014-2.3271,1.2744-.8398.3721-1.668.6719-2.4824.8965Zm.2988-2.4043c-.0254.0088-.0605.0127-.1035.0127-.1045,0-.1953-.0371-.2734-.1104-.0781-.0742-.1172-.1709-.1172-.293,0-.2158.1035-.3555.3125-.416.6406-.1992,1.2676-.4521,1.8779-.7598.6113-.3076,1.1631-.6396,1.6572-.9951.0527-.043.1172-.0645.1953-.0645.1475,0,.2471.0605.2988.1816.0352.0693.0527.1475.0527.2344,0,.1816-.0742.3242-.2217.4287-.2939.1992-.6562.4141-1.085.6436-.4297.2295-.8711.4463-1.3262.6494-.4551.2041-.877.3662-1.2676.4883Z"/><path d="m162.5035,66.6816c-.0254.0088-.0605.0137-.1035.0137-.1133,0-.2129-.0391-.2988-.1172-.0869-.0781-.1309-.1777-.1309-.2988,0-.1914.0957-.3213.2871-.3906.4414-.1562.873-.3643,1.293-.624s.7871-.541,1.0986-.8447c.1045-.1045.2256-.1562.3643-.1562.1123,0,.2031.0303.2734.0908.1035.0869.1553.1865.1553.2998,0,.0947-.0342.1777-.1045.2461-.3896.3906-.8271.7393-1.3125,1.0469s-.9922.5527-1.5215.7344Zm3.1211.1562c-.1133-.0088-.207-.0547-.2803-.1367s-.1104-.1797-.1104-.292c0-.1221.043-.2217.1299-.2988.0869-.0781.1865-.1133.2998-.1045.1113.0088.2139.0156.3047.0195.0918.0049.1758.0068.2539.0068.4336,0,.6504-.0869.6504-.2607v-1.8457c0-.0518-.0273-.0781-.0781-.0781h-4.3691c-.1035,0-.1943-.0361-.2725-.1104-.0781-.0732-.1162-.167-.1162-.2793s.0361-.208.1094-.2861c.0742-.0781.167-.1172.2793-.1172h9.6992c.1113,0,.2051.0391.2793.1172.0732.0781.1094.1738.1094.2861,0,.1035-.0361.1953-.1094.2725-.0742.0781-.168.1172-.2793.1172h-4.3555c-.0527,0-.0781.0264-.0781.0781v1.8457c0,.7197-.5586,1.0791-1.6777,1.0791h-.1875c-.0654,0-.1328-.0039-.2012-.0127Zm-1.873-6.2139c-.1904,0-.3555-.0693-.4941-.208s-.207-.3037-.207-.4941v-1.417c0-.1992.0684-.3662.207-.501.1387-.1338.3037-.2012.4941-.2012h1.7812c.0527,0,.0781-.0254.0781-.0781v-.8057c0-.0518-.0254-.0781-.0781-.0781h-3.042c-.1045,0-.1924-.0371-.2666-.1104-.0732-.0732-.1104-.1631-.1104-.2666,0-.0957.0371-.1797.1104-.2539.0742-.0732.1621-.1104.2666-.1104h9.5684c.0947,0,.1797.0352.2529.1045.0742.0693.1113.1562.1113.2598s-.0352.1934-.1045.2666-.1553.1104-.2598.1104h-3.042c-.0527,0-.0781.0264-.0781.0781v.8057c0,.0527.0254.0781.0781.0781h1.7812c.1992,0,.3652.0674.5.2012.1348.1348.2012.3018.2012.501v1.417c0,.1904-.0664.3555-.2012.4941s-.3008.208-.5.208h-7.0469Zm.0264,1.5859c-.1123,0-.208-.0391-.2861-.1172s-.1172-.1689-.1172-.2725c0-.1133.0391-.208.1172-.2861s.1738-.1172.2861-.1172h6.9941c.1211,0,.2188.0391.292.1172.0742.0781.1113.1729.1113.2861,0,.1123-.0391.2051-.1172.2793-.0781.0732-.1738.1104-.2861.1104h-6.9941Zm.1689-2.3398h1.5859c.0527,0,.0781-.0264.0781-.0781v-1.1699c0-.0518-.0254-.0781-.0781-.0781h-1.5859c-.0518,0-.0781.0264-.0781.0781v1.1699c0,.0518.0264.0781.0781.0781Zm2.5488-2.0674h1.5586c.0527,0,.0781-.0254.0781-.0781v-.8057c0-.0518-.0254-.0781-.0781-.0781h-1.5586c-.0527,0-.0781.0264-.0781.0781v.8057c0,.0527.0254.0781.0781.0781Zm0,2.0674h1.5586c.0527,0,.0781-.0264.0781-.0781v-1.1699c0-.0518-.0254-.0781-.0781-.0781h-1.5586c-.0527,0-.0781.0264-.0781.0781v1.1699c0,.0518.0254.0781.0781.0781Zm2.5215,0h1.5859c.0518,0,.0781-.0264.0781-.0781v-1.1699c0-.0518-.0263-.0781-.0781-.0781h-1.5859c-.0527,0-.0781.0264-.0781.0781v1.1699c0,.0518.0254.0781.0781.0781Zm3.0029,6.8115c-.5205-.1816-1.0244-.4268-1.5146-.7344s-.9258-.6562-1.3066-1.0469c-.0693-.0684-.1035-.1514-.1035-.2461,0-.1221.0518-.2217.1562-.2998.0684-.0605.1553-.0908.2598-.0908.1465,0,.2725.0518.377.1562.3027.3037.6641.585,1.0859.8447.4199.2598.8506.4678,1.293.624.1992.0693.2988.1953.2988.377,0,.1299-.043.2344-.1299.3125s-.1865.1172-.2998.1172c-.0508,0-.0898-.0049-.1162-.0137Z"/></g><g><line x1="126.4069" y1="97.7993" x2="126.4069" y2="112.8218" fill="none" stroke="#333" stroke-linecap="round" stroke-miterlimit="10" stroke-width=".75"/><path d="m121.1871,105.3887c.2527-.1611.5894-.0859.7508.168l4.469,7.0166,4.4689-7.0166c.1614-.2539.4981-.3291.7509-.168.2527.1616.326.5005.1667.752l-4.9277,7.7368c-.0999.1562-.2729.252-.4588.252s-.3589-.0957-.4588-.252l-4.9277-7.7368c-.0574-.0913-.085-.1919-.085-.292,0-.1792.0892-.3555.2517-.46Z" fill="#333"/></g><line x1="119.9068" y1="120.2994" x2="132.9068" y2="120.2994" fill="none" stroke="#333" stroke-linecap="round" stroke-miterlimit="10" stroke-width=".75"/><polygon points="42.7916 .7994 .75 48.8489 .75 .7994 42.7916 .7994" fill="#f4e576"/></g></g></svg>