<?xml version="1.0" encoding="UTF-8"?><svg id="_レイヤー_2" xmlns="http://www.w3.org/2000/svg" viewBox="0 0 252 133.05"><defs><style>.cls-1{fill:#fff;}.cls-2{fill:#ee958a;}.cls-3{fill:#333;}.cls-4{fill:none;stroke:#333;stroke-linecap:round;stroke-miterlimit:10;stroke-width:.75px;}</style></defs><g id="_レイヤー_1-2"><g><g><rect class="cls-1" x=".38" y=".38" width="251.25" height="132.3"/><path class="cls-3" d="m251.25.75v131.55H.75V.75h250.5m.75-.75H0v133.05h252V0h0Z"/></g><g><path d="m24.52,80.63c-.17,0-.32-.06-.45-.18-.12-.12-.19-.27-.19-.46v-9.22c0-.17.06-.32.18-.45.12-.12.27-.19.46-.19h9.14c.12,0,.22.04.29.12.07.08.11.18.11.3,0,.11-.04.21-.12.29-.08.08-.17.12-.29.12h-8.84c-.05,0-.08.03-.08.08v8.7c0,.05.03.08.08.08h8.93c.12,0,.22.04.3.12.08.08.12.17.12.29s-.04.21-.12.29c-.08.08-.18.12-.3.12h-9.23Zm1.18-1.44c-.11.04-.22.01-.33-.07-.11-.08-.16-.19-.16-.33,0-.2.1-.33.3-.39.42-.12.85-.29,1.31-.51.46-.22.87-.48,1.24-.79.37-.3.65-.63.83-.97.02-.03.02-.05,0-.07s-.03-.03-.06-.03h-3.04c-.11,0-.21-.04-.28-.12s-.11-.17-.11-.27c0-.11.04-.21.11-.28s.17-.11.28-.11h3.22c.05,0,.08-.03.08-.08v-1.69c0-.05-.03-.08-.08-.08h-1.65s-.08.02-.1.05c-.17.23-.36.44-.55.64-.19.2-.39.38-.59.53-.06.04-.13.06-.19.06-.13,0-.23-.06-.3-.17-.03-.07-.05-.14-.05-.22,0-.14.05-.26.16-.36.76-.66,1.33-1.46,1.72-2.4.08-.19.22-.29.42-.29.12,0,.22.04.29.12.07.08.11.16.11.26,0,.07,0,.12-.03.14-.05.13-.11.26-.17.38s-.13.25-.2.38c-.03.06,0,.09.05.09h4.41c.11,0,.21.04.28.11.07.07.11.17.11.28s-.04.21-.11.28c-.07.07-.17.11-.28.11h-2.37c-.05,0-.08.03-.08.08v1.69c0,.05.03.08.08.08h3.18c.11,0,.21.04.28.11s.11.17.11.28-.04.21-.11.28c-.07.07-.17.11-.28.11h-2.87c-.08,0-.1.03-.05.09.3.45.73.89,1.28,1.31.55.42,1.21.73,1.98.94.09.03.17.08.23.16.06.08.09.17.09.26,0,.13-.05.23-.14.31-.09.08-.2.1-.33.08-.55-.14-1.07-.34-1.55-.61-.48-.27-.9-.57-1.27-.91-.37-.34-.68-.67-.93-1-.03-.05-.06-.05-.1.01-.24.4-.58.77-1,1.11-.42.34-.88.63-1.37.87-.49.24-.96.42-1.42.54Z"/><path d="m37.65,80.93c-.13-.06-.2-.17-.2-.31,0-.08.03-.16.08-.23.28-.43.49-.94.64-1.51.15-.58.26-1.16.32-1.76,0-.03,0-.06-.02-.06s-.04,0-.07.01c-.11.1-.24.2-.38.29s-.28.18-.43.28c-.03,0-.05.02-.08.03-.03.01-.05.02-.08.02-.09,0-.17-.04-.23-.12s-.1-.17-.1-.27c0-.24.11-.43.34-.56.42-.24.78-.56,1.08-.95.03-.03.04-.06.04-.09v-1.9c0-.07-.02-.09-.06-.07,0,0-.03.02-.06.04-.04.03-.08.04-.14.04-.15,0-.26-.08-.34-.25-.19-.52-.45-1.01-.77-1.48-.05-.07-.08-.14-.08-.22,0-.14.06-.25.2-.34.09-.04.17-.06.25-.06.17,0,.29.07.39.21.1.16.19.33.28.5s.18.34.25.51c.02.04.04.05.06.05.02,0,.03-.02.03-.06v-1.53c0-.17.06-.32.18-.45.12-.13.27-.19.46-.19h3.54c.05,0,.08-.03.08-.08v-.35c0-.12.04-.22.12-.3s.18-.12.29-.12.21.04.29.12c.08.08.12.18.12.3v.35c0,.05.03.08.08.08h3.95c.11,0,.21.04.29.11.08.07.12.17.12.28s-.04.21-.11.28-.17.11-.29.11h-8.24c-.05,0-.08.03-.08.08v4.46c0,.38-.02.8-.06,1.25-.04.45-.1.91-.19,1.37-.09.46-.19.9-.32,1.31-.13.41-.28.75-.45,1.04-.1.15-.23.22-.42.22-.08,0-.17-.02-.27-.07Zm2.3-.27c-.05.02-.09.03-.13.03-.09,0-.17-.04-.24-.11-.07-.07-.11-.17-.11-.29,0-.18.09-.31.26-.38.41-.17.79-.38,1.14-.62s.65-.49.9-.75c.1-.1.22-.16.35-.16.09,0,.16.02.22.05.12.07.18.17.18.3,0,.06-.03.13-.08.2-.32.4-.71.75-1.18,1.05-.47.3-.91.53-1.31.68Zm2.7.23c-.11,0-.21-.04-.28-.13-.07-.09-.11-.19-.11-.3,0-.1.05-.19.13-.27s.17-.1.29-.08c.07,0,.13.01.19.01h.15c.18,0,.31-.02.38-.06.07-.04.11-.11.11-.21v-1.65c0-.05-.03-.08-.08-.08h-1.47c-.19,0-.36-.07-.49-.21-.14-.14-.21-.31-.21-.5v-1.77s0-.04-.03-.06c-.02-.01-.04-.01-.07,0-.16.1-.32.19-.49.27-.17.09-.36.17-.54.25-.05.02-.09.03-.12.03-.1,0-.18-.04-.25-.11-.07-.07-.1-.17-.1-.28,0-.21.1-.35.3-.43.3-.13.61-.29.91-.48.04-.04.05-.07.01-.1-.09-.1-.18-.21-.28-.32-.1-.11-.21-.23-.33-.34-.07-.06-.1-.14-.1-.25,0-.12.05-.21.14-.27.09-.06.19-.09.31-.09.16,0,.3.06.4.18.18.22.33.43.46.64h0s.02.02.04.03c.02.01.04.01.06,0,.18-.15.35-.3.51-.47.16-.17.3-.34.44-.53.06-.06.05-.09-.04-.09h-2.14c-.1,0-.19-.04-.27-.11-.07-.07-.11-.16-.11-.27s.04-.19.11-.27.16-.11.27-.11h2.65c.05,0,.08-.02.09-.05.09-.18.17-.38.23-.61.06-.2.19-.3.38-.3.11,0,.2.04.27.12.07.08.1.17.1.26,0,.04,0,.08-.01.1-.02.06-.04.12-.07.19-.03.07-.05.13-.08.2-.03.06,0,.09.07.09h3.45c.11,0,.2.04.27.11.07.07.1.16.1.27,0,.11-.04.2-.11.27-.07.07-.16.1-.27.1h-1.9c-.08,0-.1.03-.05.09.12.17.26.33.42.49.16.16.32.33.48.5.04.03.08.04.1.01.12-.09.23-.18.33-.29.1-.1.18-.21.26-.33.08-.12.18-.18.31-.18.05,0,.09.01.13.04.13.06.2.16.2.3,0,.05-.01.1-.04.16-.08.14-.16.27-.26.4s-.2.25-.32.36c-.04.03-.04.06,0,.1.14.09.28.18.42.27.14.09.29.18.45.25.17.08.26.21.26.4,0,.1-.04.19-.1.25-.07.07-.15.1-.23.1-.03,0-.07,0-.12-.03-.37-.17-.76-.41-1.16-.7-.06-.04-.09-.04-.09.01,0,.03.01.06.01.1v1.89c0,.2-.07.37-.2.51-.13.14-.3.21-.5.21h-1.46c-.05,0-.08.03-.08.08v1.65c0,.41-.13.69-.38.85-.25.16-.67.22-1.26.19Zm-.53-4.76h3.55c.05,0,.08-.03.08-.08v-.47c0-.05-.03-.08-.08-.08h-3.55c-.05,0-.08.03-.08.08v.47c0,.05.03.08.08.08Zm0,1.29h3.55c.05,0,.08-.03.08-.08v-.44c0-.05-.03-.08-.08-.08h-3.55c-.05,0-.08.03-.08.08v.44c0,.05.03.08.08.08Zm.22-2.6h3.41s.06-.01.07-.03,0-.04-.03-.06c-.23-.22-.46-.46-.67-.71-.21-.25-.4-.5-.58-.76-.03-.03-.06-.05-.1-.05h-.86c-.05,0-.08.02-.09.05-.14.24-.31.49-.51.73-.2.25-.42.49-.68.73-.03.02-.03.04-.03.06,0,.02.03.03.06.03Zm5.4,5.82c-.34-.15-.71-.36-1.11-.64-.4-.28-.8-.61-1.18-.98-.07-.07-.1-.16-.1-.26,0-.13.05-.23.14-.3.08-.05.16-.08.25-.08.15,0,.27.06.38.17.24.24.54.48.89.72s.67.43.94.58c.18.1.27.24.27.44,0,.11-.04.2-.11.27-.07.07-.16.1-.25.1-.03,0-.07,0-.12-.03Z"/><path d="m57.33,78.93c-.92.57-1.72.86-2.39.86-.53,0-.95-.18-1.25-.54-.3-.36-.45-.88-.44-1.57v-6.03c0-.12.04-.22.13-.31.09-.09.19-.13.3-.13.12,0,.23.04.31.13.09.09.13.19.13.31v5.9c0,.89.3,1.34.91,1.34.46,0,1.09-.24,1.89-.71.54-.32,1.11-.73,1.72-1.22.61-.49,1.21-1.04,1.82-1.64.08-.08.17-.12.29-.12.13,0,.23.05.31.14.08.09.12.19.12.31,0,.14-.05.26-.16.35-.66.64-1.3,1.21-1.93,1.69-.63.49-1.21.9-1.75,1.24Z"/><path d="m66.42,75.82c-.11,0-.21-.04-.29-.12s-.12-.18-.12-.29c0-.12.04-.22.12-.3.08-.08.18-.12.29-.12h8.11c.11,0,.21.04.29.12.08.08.12.18.12.3,0,.11-.04.21-.12.29-.08.08-.18.12-.3.12h-8.11Z"/><path d="m83.62,80.41c-.07.03-.13.05-.18.05-.17,0-.29-.08-.38-.25-.03-.05-.04-.11-.04-.17,0-.18.08-.31.23-.39.76-.42,1.33-.89,1.71-1.43.38-.54.63-1.15.77-1.83.13-.68.21-1.45.23-2.29,0-.08-.04-.12-.12-.12h-2.87c-.08,0-.12.04-.12.12,0,.61.01,1.14.03,1.59.02.45.08.87.19,1.26,0,.03.01.06.01.12,0,.19-.09.32-.26.38-.03,0-.05.01-.08.02-.03,0-.05,0-.08,0-.21,0-.34-.09-.39-.27-.11-.36-.19-.8-.22-1.35-.03-.54-.06-1.12-.06-1.75,0-.08-.04-.12-.12-.12-.37,0-.73.01-1.07.02-.34,0-.65.01-.94.03-.12,0-.22-.03-.3-.12-.08-.09-.12-.19-.12-.3s.04-.21.12-.29c.08-.08.17-.12.27-.13.3,0,.63-.02.97-.02.34,0,.7,0,1.07,0,.08,0,.12-.04.12-.12,0-.13,0-.26,0-.39,0-.13,0-.26,0-.39,0-.44-.01-.87-.04-1.29,0-.12.03-.22.12-.3.09-.08.19-.12.3-.12.12,0,.22.04.3.12.08.08.12.18.13.29.03.78.04,1.46.04,2.05,0,.08.04.12.12.12h1.46c.49,0,.96,0,1.42-.01.08,0,.12-.04.12-.12v-1.72c0-.2,0-.4.01-.61,0-.11.04-.21.13-.29.09-.08.19-.12.3-.12s.21.04.29.12c.08.08.12.18.12.29,0,.4-.02.79-.02,1.18,0,.39,0,.77,0,1.14,0,.08.06.12.17.12.79,0,1.43-.01,1.94-.04.12,0,.22.03.31.11.08.08.12.18.12.31,0,.11-.04.21-.11.29-.07.08-.17.12-.28.13-.27,0-.58.02-.92.03-.35,0-.72.01-1.12.01-.08,0-.12.04-.12.12-.02.68-.07,1.32-.16,1.93-.09.61-.24,1.18-.46,1.71-.22.53-.53,1.02-.94,1.46-.41.45-.94.85-1.61,1.2Zm5.43-8.05s-.08.04-.13.04c-.08,0-.15-.04-.22-.12-.14-.22-.3-.45-.49-.69-.19-.24-.37-.45-.54-.61-.06-.06-.09-.12-.09-.19,0-.08.03-.13.08-.17.05-.06.12-.09.2-.09s.13.03.17.08c.2.19.4.41.59.66.2.25.37.49.53.73.03.03.04.08.04.13,0,.1-.04.18-.13.23Zm.99-.57s-.08.04-.13.04c-.09,0-.17-.04-.22-.12-.14-.22-.3-.44-.48-.68-.18-.23-.36-.43-.53-.6-.05-.05-.08-.11-.08-.18s.03-.12.08-.16c.06-.06.13-.09.2-.09.08,0,.13.03.17.08.2.19.39.41.57.64s.35.47.51.71c.03.04.04.08.04.13,0,.09-.04.17-.12.22Z"/><path d="m94.24,75.82c-.11,0-.21-.04-.29-.12-.08-.08-.12-.18-.12-.29,0-.12.04-.22.12-.3.08-.08.18-.12.29-.12h8.11c.11,0,.21.04.29.12.08.08.12.18.12.3,0,.11-.04.21-.12.29-.08.08-.18.12-.3.12h-8.11Z"/><path d="m108.95,74.62c-.27-.13-.57-.26-.9-.38-.33-.12-.66-.23-.99-.31-.09-.02-.16-.06-.22-.14-.06-.07-.09-.15-.09-.24,0-.14.05-.25.16-.33s.21-.11.33-.07c.3.08.63.17.99.29s.67.24.94.36c.2.09.3.24.3.46,0,.03,0,.05,0,.08,0,.03-.01.05-.02.08-.04.17-.15.25-.33.25-.05,0-.1-.01-.16-.04Zm.19-3c-.26-.12-.55-.24-.88-.34-.32-.11-.65-.2-.98-.28-.11-.03-.2-.08-.25-.18-.06-.09-.08-.19-.06-.29.03-.12.1-.21.19-.27.09-.06.19-.07.31-.05.3.07.62.16.96.27s.66.23.97.36c.09.04.15.09.2.17.05.08.07.17.07.26,0,.03,0,.05,0,.08,0,.03,0,.05-.02.08-.06.16-.17.23-.34.23-.05,0-.1-.01-.16-.04Zm-1.87,9.31c-.13-.07-.2-.18-.2-.34,0-.07.02-.13.05-.2.35-.61.68-1.28.98-2.01s.54-1.48.72-2.22c.04-.2.17-.3.38-.3.13,0,.23.04.31.12.08.08.12.18.12.29,0,.04,0,.08-.01.1-.08.32-.18.68-.31,1.07-.13.39-.28.8-.44,1.2s-.33.8-.51,1.17c-.18.37-.35.7-.53.97-.08.13-.19.2-.34.2-.07,0-.15-.02-.23-.07Zm9.83-5.15c-.09,0-.17-.03-.23-.08-.07-.05-.11-.12-.13-.21-.09-.34-.19-.68-.31-1.01-.02-.04-.05-.06-.09-.04-.43.12-.96.23-1.57.34-.61.1-1.27.19-1.97.27-.7.08-1.4.13-2.09.17-.19,0-.34-.05-.46-.18s-.18-.28-.18-.46c0-.1.02-.21.07-.32s.12-.21.23-.29c.68-.56,1.21-1.2,1.62-1.9.4-.7.7-1.38.89-2.04.06-.21.2-.31.4-.31.15,0,.26.05.33.16.07.11.1.22.07.34-.18.71-.49,1.43-.93,2.15-.44.72-.94,1.35-1.5,1.89-.03.03-.03.05-.03.07,0,.02.03.03.07.02.55-.04,1.11-.1,1.7-.16.59-.06,1.14-.14,1.68-.23.53-.09.99-.18,1.36-.28.05-.02.07-.05.04-.1-.09-.23-.2-.46-.3-.66-.11-.21-.22-.4-.33-.58-.04-.05-.06-.13-.06-.22,0-.17.06-.29.2-.35.06-.03.13-.05.22-.05.19,0,.33.08.42.23.17.31.34.66.51,1.05.17.39.32.77.47,1.16.14.39.26.75.34,1.07,0,.03.01.07.01.12,0,.11-.04.21-.12.31s-.18.14-.31.14Zm-5.62,4.99c-.19,0-.36-.07-.49-.21s-.21-.3-.21-.49v-3.45c0-.2.07-.37.21-.5.14-.13.3-.2.49-.2h4.38c.2,0,.37.07.5.2.13.13.2.3.2.5v3.45c0,.19-.07.35-.2.49-.13.14-.3.21-.5.21h-4.38Zm.17-.78h4.03c.05,0,.08-.03.08-.08v-3.12c0-.05-.03-.08-.08-.08h-4.03c-.05,0-.08.03-.08.08v3.12c0,.05.03.08.08.08Z"/><path d="m121.11,80.93c-.13-.06-.2-.17-.2-.31,0-.08.03-.16.08-.23.28-.43.49-.94.64-1.51.15-.58.26-1.16.32-1.76,0-.03,0-.06-.02-.06s-.05,0-.07.01c-.11.1-.24.2-.38.29s-.28.18-.43.28c-.03,0-.05.02-.08.03-.03.01-.05.02-.08.02-.09,0-.17-.04-.23-.12-.07-.08-.1-.17-.1-.27,0-.24.11-.43.34-.56.42-.24.78-.56,1.08-.95.03-.03.04-.06.04-.09v-1.9c0-.07-.02-.09-.07-.07,0,0-.03.02-.07.04-.03.03-.08.04-.14.04-.15,0-.26-.08-.34-.25-.19-.52-.45-1.01-.77-1.48-.05-.07-.08-.14-.08-.22,0-.14.07-.25.19-.34.09-.04.17-.06.25-.06.16,0,.29.07.39.21.1.16.19.33.28.5s.17.34.25.51c.02.04.04.05.06.05.02,0,.03-.02.03-.06v-1.53c0-.17.06-.32.18-.45.12-.13.27-.19.46-.19h3.54c.05,0,.08-.03.08-.08v-.35c0-.12.04-.22.12-.3.08-.08.18-.12.29-.12s.21.04.29.12.12.18.12.3v.35c0,.05.03.08.08.08h3.95c.11,0,.21.04.29.11.08.07.12.17.12.28s-.04.21-.11.28c-.07.07-.17.11-.29.11h-8.24c-.05,0-.08.03-.08.08v4.46c0,.38-.02.8-.06,1.25-.04.45-.1.91-.19,1.37-.09.46-.19.9-.32,1.31-.12.41-.27.75-.45,1.04-.1.15-.23.22-.42.22-.08,0-.17-.02-.27-.07Zm2.3-.27c-.05.02-.1.03-.13.03-.09,0-.17-.04-.24-.11-.07-.07-.11-.17-.11-.29,0-.18.09-.31.26-.38.41-.17.79-.38,1.14-.62.35-.24.65-.49.9-.75.1-.1.22-.16.35-.16.09,0,.16.02.22.05.12.07.18.17.18.3,0,.06-.03.13-.08.2-.32.4-.71.75-1.18,1.05-.47.3-.91.53-1.31.68Zm2.7.23c-.11,0-.21-.04-.28-.13s-.11-.19-.11-.3c0-.1.05-.19.13-.27.08-.07.17-.1.29-.08.07,0,.13.01.19.01h.15c.18,0,.31-.02.38-.06.07-.04.11-.11.11-.21v-1.65c0-.05-.03-.08-.08-.08h-1.47c-.19,0-.36-.07-.49-.21-.14-.14-.21-.31-.21-.5v-1.77s0-.04-.03-.06c-.02-.01-.04-.01-.06,0-.16.1-.32.19-.49.27-.17.09-.36.17-.55.25-.05.02-.09.03-.12.03-.09,0-.18-.04-.25-.11-.07-.07-.1-.17-.1-.28,0-.21.1-.35.3-.43.3-.13.61-.29.91-.48.04-.04.05-.07.01-.1-.09-.1-.18-.21-.28-.32-.1-.11-.21-.23-.33-.34-.07-.06-.1-.14-.1-.25,0-.12.05-.21.14-.27.09-.06.19-.09.31-.09.17,0,.3.06.4.18.18.22.33.43.46.64h0s.02.02.05.03c.02.01.04.01.06,0,.18-.15.35-.3.51-.47.16-.17.3-.34.44-.53.06-.06.05-.09-.04-.09h-2.15c-.1,0-.19-.04-.27-.11s-.11-.16-.11-.27.04-.19.11-.27c.07-.07.16-.11.27-.11h2.65c.05,0,.08-.02.09-.05.09-.18.16-.38.23-.61.06-.2.19-.3.38-.3.11,0,.2.04.27.12.07.08.1.17.1.26,0,.04,0,.08-.01.1-.02.06-.04.12-.06.19-.03.07-.05.13-.08.2-.03.06,0,.09.06.09h3.45c.11,0,.2.04.27.11.07.07.1.16.1.27,0,.11-.04.2-.11.27-.07.07-.16.1-.27.1h-1.9c-.08,0-.1.03-.05.09.12.17.26.33.42.49.16.16.32.33.48.5.04.03.08.04.1.01.12-.09.23-.18.33-.29.09-.1.18-.21.26-.33.08-.12.18-.18.31-.18.05,0,.1.01.13.04.13.06.2.16.2.3,0,.05-.01.1-.04.16-.08.14-.17.27-.26.4s-.2.25-.33.36c-.04.03-.04.06,0,.1.14.09.28.18.42.27.14.09.29.18.45.25.17.08.26.21.26.4,0,.1-.03.19-.1.25-.07.07-.15.1-.23.1-.03,0-.06,0-.12-.03-.37-.17-.76-.41-1.16-.7-.06-.04-.09-.04-.09.01,0,.03.01.06.01.1v1.89c0,.2-.07.37-.2.51-.13.14-.3.21-.5.21h-1.46c-.05,0-.08.03-.08.08v1.65c0,.41-.12.69-.38.85-.25.16-.67.22-1.26.19Zm-.53-4.76h3.55c.05,0,.08-.03.08-.08v-.47c0-.05-.03-.08-.08-.08h-3.55c-.05,0-.08.03-.08.08v.47c0,.05.03.08.08.08Zm0,1.29h3.55c.05,0,.08-.03.08-.08v-.44c0-.05-.03-.08-.08-.08h-3.55c-.05,0-.08.03-.08.08v.44c0,.05.03.08.08.08Zm.22-2.6h3.41s.06-.01.06-.03c0-.02,0-.04-.03-.06-.23-.22-.46-.46-.67-.71-.21-.25-.41-.5-.58-.76-.03-.03-.06-.05-.1-.05h-.86c-.05,0-.08.02-.09.05-.14.24-.31.49-.51.73s-.42.49-.68.73c-.03.02-.04.04-.03.06s.03.03.07.03Zm5.39,5.82c-.34-.15-.71-.36-1.11-.64-.4-.28-.79-.61-1.18-.98-.07-.07-.1-.16-.1-.26,0-.13.05-.23.14-.3.08-.05.16-.08.25-.08.15,0,.27.06.38.17.24.24.54.48.89.72s.67.43.94.58c.18.1.27.24.27.44,0,.11-.04.2-.11.27-.07.07-.16.1-.25.1-.03,0-.07,0-.12-.03Z"/><path d="m144.18,79.02c-.72.2-1.41.36-2.07.47-.66.12-1.3.18-1.91.18-.84,0-1.64-.13-2.39-.38-.75-.25-1.46-.68-2.14-1.27-.1-.08-.14-.19-.14-.33,0-.12.04-.22.12-.31.08-.1.19-.14.32-.14.11,0,.21.04.3.12.52.43,1.1.78,1.74,1.05s1.39.4,2.26.4c.52,0,1.09-.05,1.71-.16s1.3-.28,2.05-.5c.03,0,.06-.01.1-.01.12,0,.22.04.3.12s.12.18.12.3c0,.11-.03.21-.1.31-.07.09-.15.15-.27.17Zm-1.33-6.08c-.46.06-.94.11-1.43.14s-.99.05-1.48.05c-.99,0-1.92-.07-2.81-.2-.1-.02-.19-.07-.25-.15-.07-.08-.1-.17-.1-.27,0-.13.05-.24.14-.33.1-.09.21-.12.34-.1.32.04.71.08,1.15.12.45.04.95.06,1.52.06.42,0,.88-.01,1.36-.05.48-.03.99-.08,1.53-.14.12-.02.23.01.31.09s.13.18.13.3c0,.11-.04.21-.11.31s-.17.15-.29.16Zm1.59-.61s-.07.03-.1.03c-.11,0-.18-.05-.21-.16-.21-.55-.52-1.01-.94-1.38-.05-.05-.08-.11-.08-.18s.02-.12.05-.17c.06-.06.13-.09.21-.09.06,0,.11.02.16.06.23.22.43.45.6.7.17.25.33.53.46.84.02.05.03.09.03.12,0,.11-.06.19-.17.23Zm1.08-.48s-.05.01-.09.01c-.1,0-.18-.05-.22-.16-.22-.55-.54-1.03-.96-1.43-.04-.04-.07-.1-.07-.17s.02-.12.05-.16c.05-.05.12-.08.2-.08.04,0,.09.02.16.06.25.24.46.48.62.72.16.24.31.52.45.85,0,.02.02.04.02.05,0,.02,0,.04,0,.05,0,.1-.05.17-.16.23Z"/><path d="m148.92,72.65c-.11,0-.21-.04-.28-.11-.07-.07-.11-.17-.11-.28s.04-.21.11-.28c.07-.07.17-.11.28-.11h3.38c.11,0,.21.04.28.11.07.07.11.17.11.28,0,.1-.04.2-.11.27-.07.08-.17.12-.28.12h-3.38Zm.34-1.68c-.11,0-.21-.04-.28-.12s-.11-.17-.11-.27c0-.11.04-.21.12-.28.08-.07.17-.11.27-.11h2.69c.11,0,.21.04.28.11.07.07.11.17.11.28s-.04.21-.11.28c-.07.07-.17.11-.28.11h-2.69Zm.06,3.35c-.11,0-.21-.04-.29-.11-.08-.07-.12-.17-.12-.28s.04-.21.12-.29c.08-.08.17-.12.29-.12h2.57c.11,0,.21.04.28.12.07.08.11.17.11.29s-.04.21-.12.28c-.08.07-.17.11-.27.11h-2.57Zm0,1.68c-.11,0-.21-.04-.29-.12s-.12-.17-.12-.27c0-.12.04-.22.12-.29.08-.07.17-.11.29-.11h2.57c.11,0,.21.04.28.12.07.08.11.17.11.29,0,.1-.04.19-.11.27-.07.08-.17.12-.28.12h-2.57Zm.33,4.77c-.2,0-.37-.07-.5-.21s-.2-.3-.2-.49v-2.48c0-.2.07-.37.21-.5.14-.13.3-.2.49-.2h1.96c.2,0,.37.07.5.21s.2.3.2.49v2.48c0,.19-.07.35-.2.49s-.3.21-.5.21h-1.96Zm.13-.7h1.7c.05,0,.08-.03.08-.08v-2.31c0-.05-.03-.08-.08-.08h-1.7c-.05,0-.08.03-.08.08v2.31c0,.05.03.08.08.08Zm3.17.73s-.08.04-.13.04c-.09,0-.17-.04-.24-.11-.07-.07-.11-.16-.11-.27,0-.19.09-.33.26-.43.64-.36,1.14-.89,1.5-1.58.35-.69.57-1.52.65-2.49,0-.05-.03-.08-.08-.08h-.77c-.19,0-.36-.07-.49-.21s-.21-.3-.21-.49v-2.34c0-.2.07-.37.21-.5.14-.13.3-.2.49-.2h2.05s.07-.01.09-.04c.54-.56.95-1.27,1.25-2.12.03-.09.07-.15.14-.2.07-.05.14-.07.22-.07.12,0,.22.04.29.12.07.08.1.16.1.26,0,.05,0,.09-.01.12-.09.31-.21.63-.38.95-.17.32-.35.62-.55.9-.04.06-.03.09.05.09h.81c.2,0,.37.07.5.2s.2.3.2.5v2.34c0,.19-.07.36-.21.49s-.3.21-.49.21h-.95c-.05,0-.08.03-.08.08v3.55c0,.24.08.4.23.46.15.06.34.1.55.1.2,0,.37-.03.52-.1.15-.07.29-.18.43-.33.08-.08.17-.12.27-.12.1,0,.17.03.23.09.09.09.13.19.13.31s-.04.22-.12.3c-.2.22-.41.37-.63.45-.22.08-.51.12-.86.12-1.02,0-1.53-.39-1.53-1.17v-3.67c0-.05-.03-.08-.08-.08h-.47c-.05,0-.08.03-.08.08-.09,1.16-.36,2.16-.83,3-.46.84-1.09,1.45-1.89,1.83Zm2.15-9.06c-.17,0-.29-.07-.37-.22-.21-.37-.45-.73-.71-1.07-.06-.06-.09-.14-.09-.23,0-.13.05-.23.16-.31.08-.05.16-.08.25-.08.16,0,.27.06.35.17.12.17.25.37.39.59.14.22.26.44.37.64.03.05.04.1.04.16,0,.09-.04.17-.1.24-.07.07-.16.11-.27.11Zm-.88,3.38h3.69c.05,0,.08-.03.08-.08v-2.05c0-.05-.03-.08-.08-.08h-3.69c-.05,0-.08.03-.08.08v2.05c0,.05.03.08.08.08Z"/><path d="m163.46,78.22c-.19,0-.36-.07-.49-.21s-.21-.3-.21-.49v-6.08c0-.2.07-.37.21-.5s.3-.2.49-.2h2.55c.2,0,.37.07.5.21s.2.3.2.49v6.08c0,.19-.07.36-.2.49s-.3.21-.5.21h-2.55Zm.18-4.41h2.21c.05,0,.08-.03.08-.08v-2.13c0-.05-.03-.08-.08-.08h-2.21c-.05,0-.08.03-.08.08v2.13c0,.05.03.08.08.08Zm0,3.63h2.21c.05,0,.08-.03.08-.08v-2.69c0-.05-.03-.08-.08-.08h-2.21c-.05,0-.08.03-.08.08v2.69c0,.05.03.08.08.08Zm7.15,3.46c-.11,0-.21-.05-.29-.13-.08-.08-.12-.17-.12-.29,0-.12.04-.22.12-.31.08-.08.18-.12.29-.12.43,0,.71-.02.83-.08.12-.06.17-.21.17-.46v-2.96c0-.05-.03-.08-.08-.08h-3s-.07.03-.09.08c-.06.6-.17,1.15-.33,1.64-.16.5-.4.96-.71,1.38-.31.42-.73.83-1.25,1.21-.06.05-.14.08-.23.08-.17,0-.3-.07-.38-.22-.04-.09-.06-.17-.06-.25,0-.18.07-.33.22-.43.49-.37.88-.76,1.16-1.16s.48-.85.61-1.35c.12-.49.2-1.07.23-1.72.03-.65.05-1.42.05-2.31v-2.72c0-.19.07-.36.21-.49.14-.14.3-.2.49-.19h3.28c.2-.01.37.06.5.19.13.14.2.3.2.49v8.8c0,.5-.14.86-.43,1.07-.29.21-.75.31-1.39.31Zm-2.01-5.23h2.95c.05,0,.08-.03.08-.08v-1.86c0-.05-.03-.08-.08-.08h-2.91c-.05,0-.08.03-.08.09,0,.33,0,.65,0,.96s-.01.6-.03.89c0,.05.03.08.08.08Zm.04-2.82h2.91c.05,0,.08-.03.08-.08v-1.87c0-.05-.03-.08-.08-.08h-2.91c-.05,0-.08.03-.08.08v1.87c0,.05.03.08.08.08Z"/><path d="m181.75,76.29c-.29,0-.53-.1-.72-.3-.19-.2-.29-.44-.29-.72s.1-.51.29-.71c.2-.2.44-.3.72-.3s.52.1.71.29c.2.19.3.44.3.72s-.1.53-.3.72c-.2.2-.44.29-.71.29Z"/><path d="m191.32,80.89c-.11,0-.21-.04-.29-.12-.08-.08-.12-.18-.12-.29v-9.58c0-.2.07-.37.21-.5.14-.13.3-.2.49-.2h8.11c.2,0,.37.07.5.2.13.13.2.3.2.5v8.71c0,.83-.56,1.25-1.69,1.26-.11,0-.21-.04-.31-.13-.09-.09-.14-.19-.14-.31s.04-.22.13-.3c.09-.08.19-.12.3-.12.35,0,.58-.01.7-.07.12-.05.18-.16.18-.34v-8.53c0-.05-.03-.08-.08-.08h-7.72c-.05,0-.08.03-.08.08v9.4c0,.11-.04.21-.12.29-.08.08-.17.12-.29.12Zm1.92-7.51c-.11,0-.21-.04-.29-.12s-.12-.17-.12-.29.04-.21.12-.29.17-.12.29-.12h4.84c.11,0,.21.04.29.12s.12.17.12.29-.04.21-.12.29-.17.12-.29.12h-4.84Zm.99,5.47c-.19,0-.36-.07-.49-.21s-.21-.3-.21-.49v-2.74c0-.19.07-.36.21-.49s.3-.21.49-.21h2.86c.2,0,.37.07.5.21.13.14.2.3.2.49v2.74c0,.19-.07.36-.2.49-.13.14-.3.21-.5.21h-2.86Zm.18-.81h2.5c.05,0,.08-.03.08-.08v-2.39c0-.05-.03-.08-.08-.08h-2.5c-.05,0-.08.03-.08.08v2.39c0,.05.03.08.08.08Z"/><path d="m204.57,80.68s-.05.02-.08.03c-.03.01-.05.02-.08.02-.15,0-.25-.07-.31-.22,0-.03-.02-.05-.02-.08,0-.03,0-.06,0-.08,0-.17.07-.31.21-.4.3-.2.57-.41.81-.64.24-.23.45-.47.63-.71.09-.13.2-.2.35-.2.06,0,.12.02.18.05.13.09.19.19.19.32,0,.07-.02.13-.07.2-.48.7-1.09,1.27-1.82,1.72Zm-.04-7.24c-.1,0-.19-.03-.26-.1-.07-.07-.1-.15-.1-.25s.04-.18.1-.25c.07-.07.16-.1.26-.1h3.25c.09,0,.1-.02.04-.07-.04-.03-.08-.06-.1-.1-.04-.07-.09-.14-.14-.2-.05-.06-.1-.13-.15-.19-.06-.09-.09-.18-.09-.26,0-.12.05-.22.14-.3.07-.06.16-.09.29-.09.16,0,.28.05.36.16.06.07.12.14.17.21.05.07.09.15.13.23.04.06.05.13.05.21,0,.16-.05.27-.16.35,0,0-.02.02-.03.02-.01,0-.02.01-.03.02h.23s1.57.01,1.57.01c.03,0,.06-.01.09-.04.12-.15.25-.3.38-.47.13-.16.25-.33.36-.49.1-.14.22-.21.39-.21.14,0,.25.04.32.13.07.09.11.19.11.3,0,.08-.02.15-.05.21-.05.08-.11.16-.16.24-.06.08-.12.16-.18.24-.04.06-.03.09.04.09h3.25c.09,0,.18.03.25.1.07.07.1.15.1.25,0,.1-.03.18-.1.25-.06.07-.15.1-.25.1h-10.09Zm.92-2.05c-.1,0-.18-.03-.25-.1s-.1-.16-.1-.26c0-.09.04-.18.1-.25.07-.07.15-.1.25-.1h3.64c.05,0,.08-.03.08-.08v-.44c0-.11.04-.21.12-.28.08-.07.17-.11.29-.11.12,0,.22.04.29.11.07.07.11.17.11.28v.44c0,.05.03.08.08.08h3.64c.1,0,.18.04.25.1.07.07.1.15.1.25s-.04.18-.1.25c-.07.07-.15.11-.25.11h-8.24Zm1.18,6.4c-.19,0-.36-.07-.49-.21s-.21-.3-.21-.49v-2.28c0-.2.07-.37.21-.5.14-.13.3-.2.49-.2h5.88c.2,0,.37.07.5.2.13.13.2.3.2.5v2.28c0,.19-.07.36-.2.49s-.3.21-.5.21h-5.88Zm.19-2.2h5.49c.05,0,.08-.03.08-.08v-.61c0-.05-.03-.08-.08-.08h-5.49c-.05,0-.08.03-.08.08v.61c0,.05.03.08.08.08Zm0,1.47h5.49c.05,0,.08-.03.08-.08v-.61c0-.05-.03-.08-.08-.08h-5.49c-.05,0-.08.03-.08.08v.61c0,.05.03.08.08.08Zm2.44,3.76c-.53,0-.95-.04-1.25-.14-.3-.09-.52-.25-.64-.47-.13-.23-.19-.53-.19-.91v-.82c0-.11.04-.21.12-.28s.17-.11.27-.11.19.04.27.11c.08.07.12.17.12.28v.82c0,.24.05.42.14.54s.29.19.57.22.71.04,1.27.04c.41,0,.74,0,1-.03.26-.02.48-.06.67-.13.19-.07.38-.19.57-.35.09-.07.18-.1.27-.1.11,0,.21.04.29.12.07.09.1.18.1.27,0,.1-.04.19-.12.26-.53.45-1.12.68-1.77.68h-1.7Zm1.55-1.27c-.25-.14-.52-.27-.81-.4-.29-.13-.57-.24-.84-.34-.17-.05-.25-.16-.25-.34,0-.11.04-.2.11-.27.07-.07.15-.1.24-.1.03,0,.08,0,.13.03.3.1.6.21.9.34.29.13.57.26.82.39.15.07.22.18.22.34,0,.04,0,.07-.01.1s-.02.06-.04.1c-.03.06-.07.11-.12.14-.06.04-.11.05-.17.05s-.12-.01-.17-.04Zm3.68.68c-.25-.21-.54-.41-.86-.6-.32-.2-.65-.38-1-.54-.15-.07-.22-.18-.22-.34,0-.11.04-.2.12-.27.08-.07.17-.1.27-.1.04,0,.08,0,.13.03.29.13.6.29.94.48s.67.39,1,.61c.14.09.21.22.21.39,0,.08-.02.16-.06.25-.07.11-.17.17-.3.17-.08,0-.15-.03-.22-.08Z"/><path d="m218.44,76.86c-.1,0-.19-.04-.26-.1-.07-.07-.1-.16-.1-.26s.04-.19.1-.26c.07-.07.16-.1.26-.1h4.56c.05,0,.08-.03.08-.08v-.52c0-.05-.03-.08-.08-.08h-3.55c-.09,0-.17-.04-.23-.1-.07-.07-.1-.15-.1-.25s.03-.17.1-.24c.07-.06.15-.1.23-.1h3.55c.05,0,.08-.03.08-.08v-.52c0-.05-.03-.08-.08-.08h-3.15c-.1,0-.18-.03-.25-.1-.07-.07-.11-.16-.11-.26,0-.09.03-.18.1-.25.07-.07.16-.1.26-.1h3.15c.05,0,.08-.03.08-.08v-.52c0-.05-.03-.08-.08-.08h-4.5c-.1,0-.19-.04-.26-.1-.07-.07-.1-.16-.1-.26s.03-.19.1-.26c.07-.07.16-.1.26-.1h4.5c.05,0,.08-.03.08-.08v-.53c0-.05-.03-.08-.08-.08h-3.15c-.1,0-.18-.04-.25-.1-.07-.07-.11-.15-.11-.25,0-.1.05-.19.12-.25.07-.07.15-.1.25-.1h3.15c.05,0,.08-.03.08-.08v-.31c0-.12.04-.22.12-.29.08-.07.17-.11.29-.11s.21.04.29.11c.08.07.12.17.12.29v.31c0,.05.03.08.08.08h2.61c.2,0,.37.07.5.2.13.13.2.3.2.5v.61c0,.05.03.08.08.08h1.1c.1,0,.19.04.26.1.07.07.1.16.1.26,0,.1-.03.18-.1.25-.07.07-.16.11-.26.11h-1.1c-.05,0-.08.03-.08.08v.61c0,.19-.07.36-.2.49-.13.14-.3.21-.5.21h-2.61c-.05,0-.08.03-.08.08v.52c0,.05.03.08.08.08h3.55c.1,0,.18.03.24.1.07.07.1.15.1.24s-.03.18-.1.25-.15.1-.24.1h-3.55c-.05,0-.08.03-.08.08v.52c0,.05.03.08.08.08h4.56c.1,0,.19.04.26.1.07.07.1.16.1.26,0,.1-.04.18-.1.25-.07.07-.16.11-.26.11h-10.09Zm2,3.9c-.19,0-.36-.07-.49-.21s-.21-.3-.21-.49v-1.91c0-.2.07-.37.21-.5s.3-.2.49-.2h6.08c.2,0,.37.07.5.21.13.14.2.3.2.49v1.91c0,.19-.07.36-.2.49-.13.14-.3.21-.5.21h-6.08Zm.17-1.98h5.75c.05,0,.08-.03.08-.08v-.52c0-.05-.03-.08-.08-.08h-5.75c-.05,0-.08.03-.08.08v.52c0,.05.03.08.08.08Zm0,1.33h5.75c.05,0,.08-.03.08-.08v-.53c0-.05-.03-.08-.08-.08h-5.75c-.05,0-.08.03-.08.08v.53c0,.05.03.08.08.08Zm3.35-8.14h2.46c.05,0,.08-.03.08-.08v-.53c0-.05-.03-.08-.08-.08h-2.46c-.05,0-.08.03-.08.08v.53c0,.05.03.08.08.08Zm0,1.4h2.46c.05,0,.08-.03.08-.08v-.52c0-.05-.03-.08-.08-.08h-2.46c-.05,0-.08.03-.08.08v.52c0,.05.03.08.08.08Z"/></g><g><path d="m82.5,29.8c-.19,0-.36-.07-.49-.21s-.2-.3-.18-.48c.08-.64.27-1.19.57-1.64s.7-.85,1.2-1.2c.5-.34,1.08-.66,1.74-.96.54-.24.98-.46,1.33-.66.35-.2.61-.44.77-.72.16-.28.22-.66.18-1.12-.09-.54-.32-.95-.69-1.24s-.88-.43-1.51-.43c-.6,0-1.08.11-1.43.33-.36.22-.62.54-.79.96,0,0,0,.01,0,.02,0,0,0,.01,0,.03,0,.03.03.06.09.09.14.06.24.15.3.27.06.12.09.24.09.36,0,.18-.06.35-.18.49-.12.15-.29.22-.52.22-.24,0-.43-.09-.56-.27-.13-.18-.19-.4-.19-.67,0-.31.08-.64.25-.97.29-.55.71-.96,1.24-1.23s1.09-.41,1.67-.41c.47,0,.91.08,1.34.25.42.17.79.43,1.1.77.31.34.51.77.62,1.28.03.17.04.32.04.47,0,.44-.1.82-.29,1.12s-.44.57-.75.8c-.31.23-.66.43-1.05.62s-.78.37-1.17.56c-.39.19-.76.4-1.11.63s-.64.51-.88.83c-.24.32-.4.71-.48,1.16v.03c0,.07.04.1.12.1h4.93c.07,0,.1-.03.1-.09,0-.17,0-.34-.03-.49-.02-.15-.03-.3-.03-.44,0-.12.04-.22.13-.31.09-.09.19-.13.32-.13.14,0,.25.05.34.14.09.1.12.21.12.34l-.08,1.09c0,.19-.08.36-.23.49-.14.14-.31.21-.5.21h-5.41Z"/><path d="m94.75,29.92c-1.15,0-2.05-.43-2.69-1.28s-.96-2.05-.96-3.59c0-.98.14-1.82.44-2.52.29-.7.71-1.24,1.25-1.62.55-.38,1.2-.57,1.96-.57s1.42.19,1.96.56c.55.37.97.91,1.26,1.61.29.7.44,1.55.44,2.53,0,1.54-.32,2.74-.96,3.59-.64.85-1.54,1.28-2.7,1.28Zm0-.78c.57,0,1.07-.17,1.49-.5.42-.33.74-.8.97-1.41.23-.61.34-1.33.34-2.16s-.12-1.49-.34-2.08-.55-1.05-.97-1.37c-.42-.33-.91-.49-1.48-.49s-1.06.16-1.48.49c-.42.32-.74.78-.97,1.37s-.34,1.28-.34,2.08.11,1.55.34,2.16.55,1.08.96,1.41c.42.33.91.49,1.48.49Z"/><path d="m104.69,30.38c-.16-.06-.23-.17-.23-.33,0-.05.01-.1.04-.16.46-1,.69-2.12.69-3.38v-2.38c0-.2.07-.37.21-.5.14-.13.3-.2.49-.2h5.23s.06-.03.06-.08l-.03-.22c-.02-.11.01-.21.09-.3.08-.09.18-.14.3-.14.1,0,.18.03.27.1.08.06.13.15.14.27,0,.04.02.09.03.14s.02.11.03.17c.02.04.04.06.08.06h1.05c.08,0,.1-.03.05-.09l-.05-.08c-.05-.08-.08-.15-.08-.22,0-.15.07-.25.2-.31.07-.04.14-.05.22-.05.21,0,.35.09.43.26.04.07.08.14.11.21.03.07.06.15.08.21,0,.04.04.06.09.06h.36c.11,0,.2.04.27.12s.1.17.1.27c0,.11-.04.2-.11.27-.07.07-.16.1-.27.1h-2.33c-.06,0-.09.03-.08.08.08.46.17.95.29,1.47.11.52.23,1.02.35,1.5,0,.03.02.05.04.06s.04,0,.06-.03c.2-.3.37-.6.52-.88.15-.29.26-.55.35-.79.05-.17.17-.26.35-.26.12,0,.22.04.29.12.07.08.11.17.11.27,0,.05,0,.09-.01.12-.14.4-.33.8-.57,1.21-.24.41-.51.8-.81,1.17-.02.03-.02.07-.01.12.16.39.36.7.58.94s.45.35.7.35c.18,0,.36-.05.52-.16.06-.04.13-.05.21-.05.16,0,.26.06.31.18.03.08.04.15.04.22,0,.2-.08.34-.25.43-.14.06-.28.11-.41.14-.13.03-.27.04-.41.04-.18,0-.35-.03-.51-.08-.27-.09-.52-.25-.75-.48-.23-.23-.44-.52-.61-.87-.03-.05-.06-.06-.1-.01-.27.25-.54.48-.81.68s-.54.36-.8.48c-.05.02-.09.03-.13.03-.1,0-.19-.04-.27-.1-.09-.07-.13-.17-.13-.29,0-.16.08-.28.23-.36.31-.15.6-.33.88-.54.27-.21.53-.44.77-.7.03-.04.03-.08.03-.12-.18-.59-.34-1.22-.49-1.9-.14-.68-.26-1.31-.36-1.89-.02-.04-.05-.06-.09-.06h-5.19c-.05,0-.08.03-.08.08v2.24c0,.34-.02.72-.07,1.14s-.12.85-.22,1.28c-.1.43-.23.82-.38,1.18-.03.09-.09.15-.18.2-.09.05-.18.07-.27.07h-.08s-.05,0-.08-.01Zm.18-7.89c-.11,0-.21-.04-.28-.11s-.11-.16-.11-.27c0-.11.04-.21.12-.28.08-.07.17-.11.27-.11h1.75c.05,0,.08-.03.08-.08v-1.33c0-.11.04-.2.11-.27.07-.07.16-.1.27-.1.1,0,.18.03.25.1.07.07.11.16.11.27v1.33c0,.05.03.08.08.08h1.77c.05,0,.08-.03.08-.08v-1.88c0-.12.04-.22.12-.3.08-.08.18-.12.29-.12.12,0,.22.04.3.12s.12.18.12.3v.4c0,.05.03.08.08.08h3.17c.1,0,.19.04.27.1.07.07.11.16.11.27s-.04.21-.11.28-.16.11-.27.11h-3.17c-.05,0-.08.03-.08.08v.56c0,.05.03.08.08.08h4.42c.11,0,.21.04.28.12.07.08.11.17.11.27,0,.11-.04.21-.12.27-.08.07-.17.1-.27.1h-9.83Zm1.53,6.89c-.13-.07-.2-.18-.2-.34,0-.06.02-.12.07-.2.13-.22.26-.48.38-.76.13-.28.24-.58.34-.89.07-.17.2-.26.38-.26.12,0,.22.04.29.12.07.08.11.17.11.27,0,.04,0,.09-.03.14-.09.26-.2.54-.33.86-.13.31-.28.62-.45.91-.08.13-.2.2-.35.2-.09,0-.16-.02-.22-.05Zm1.3.95c-.09-.02-.16-.06-.22-.14s-.09-.16-.09-.25c0-.12.04-.22.13-.29.09-.07.19-.1.3-.08.05,0,.1.02.15.02s.09,0,.12,0c.21,0,.31-.09.31-.27v-3.32c0-.05-.03-.08-.08-.08h-1.46c-.1,0-.19-.03-.26-.1s-.1-.16-.1-.26.04-.19.1-.26c.07-.07.16-.1.26-.1h3.6c.1,0,.19.03.26.1.07.07.1.16.1.26,0,.1-.03.18-.1.25-.07.07-.16.11-.26.11h-1.24c-.05,0-.08.03-.08.08v3.32c0,.68-.36,1.03-1.09,1.03-.06,0-.12,0-.18,0s-.12-.01-.19-.02Zm3.03-1.46c-.05.02-.09.03-.12.03-.06,0-.12-.02-.19-.07s-.11-.1-.14-.18c-.08-.22-.18-.47-.29-.74-.12-.27-.23-.5-.33-.7-.03-.06-.05-.13-.05-.19,0-.14.06-.23.18-.29.06-.03.13-.05.2-.05.16,0,.27.07.34.2.14.23.26.49.38.76.11.27.2.52.27.73,0,.03.01.07.01.13,0,.17-.09.3-.26.38Z"/><path d="m123.68,30.44c-.11,0-.21-.04-.29-.12-.08-.08-.12-.18-.12-.29v-3.61s-.01-.06-.03-.07c-.02,0-.04,0-.06.03-.36.42-.78.85-1.27,1.29-.49.45-1.02.87-1.59,1.26s-1.12.72-1.68.98c-.05.02-.1.03-.13.03-.1,0-.18-.04-.26-.11-.08-.07-.12-.17-.12-.28,0-.21.1-.36.3-.45.37-.17.78-.41,1.21-.7.43-.29.86-.62,1.28-.98.42-.36.81-.73,1.16-1.1s.65-.73.87-1.07c.02-.03.02-.05,0-.07s-.03-.03-.06-.03h-4.08c-.11,0-.21-.04-.29-.12s-.12-.17-.12-.29c0-.12.04-.22.12-.29.08-.07.17-.11.29-.11h4.37c.05,0,.08-.03.08-.08v-2.17c0-.05-.03-.08-.08-.08h-3.22c-.11,0-.21-.04-.29-.12-.08-.08-.12-.17-.12-.29s.04-.21.12-.29c.08-.08.17-.12.29-.12h3.22c.05,0,.08-.03.08-.08v-1.31c0-.12.04-.22.12-.3s.18-.12.29-.12c.12,0,.22.04.3.12s.12.18.12.29v1.31c0,.05.03.08.08.08h3.25c.11,0,.21.04.29.11.08.07.12.17.12.29,0,.11-.04.21-.12.29-.08.08-.17.12-.29.12h-3.25c-.05,0-.08.03-.08.08v2.17c0,.05.03.08.08.08h4.39c.11,0,.21.04.29.11.08.07.12.17.12.29,0,.11-.04.21-.12.29s-.17.12-.29.12h-4.04c-.07,0-.09.03-.07.08.22.33.49.68.82,1.04.33.37.7.73,1.11,1.09.41.36.83.7,1.28,1.01s.89.58,1.35.79c.09.04.16.09.21.18.04.08.06.17.06.27,0,.12-.04.22-.12.29s-.17.11-.27.11c-.06,0-.11,0-.14-.03-.3-.14-.65-.33-1.04-.58-.39-.25-.79-.54-1.21-.87-.42-.33-.83-.69-1.23-1.07-.4-.39-.76-.78-1.08-1.19-.02-.04-.04-.05-.06-.04-.02,0-.03.03-.03.06v3.74c0,.11-.04.21-.12.29-.08.08-.18.12-.29.12Z"/><path d="m133.77,24.16c-.21-.1-.43-.21-.68-.31-.24-.1-.48-.19-.71-.27-.09-.03-.16-.08-.21-.15s-.08-.15-.08-.24c0-.12.04-.22.12-.29.08-.07.17-.1.27-.1.05,0,.09,0,.12.01.23.06.48.14.73.25.25.11.5.22.73.34.16.08.25.21.25.4,0,.05-.01.11-.04.18-.03.06-.07.11-.13.15s-.13.06-.2.06c-.06,0-.12-.01-.17-.04Zm-1.34,6.29c-.17-.06-.25-.18-.25-.35,0-.05.01-.1.04-.16.29-.61.57-1.28.81-2.03s.44-1.49.58-2.22c.04-.21.17-.31.38-.31.15,0,.26.06.34.17.08.12.11.24.07.36-.08.42-.19.88-.34,1.4-.15.52-.32,1.03-.49,1.53-.18.5-.35.95-.53,1.34-.09.2-.24.3-.45.3-.03,0-.05,0-.08,0-.03,0-.05-.01-.08-.02Zm1.44-9.39c-.43-.19-.88-.36-1.35-.52-.19-.07-.29-.2-.29-.38,0-.12.04-.22.12-.29.08-.07.17-.11.27-.11.05,0,.09,0,.12.01.23.06.48.14.74.24s.51.21.74.32c.16.07.23.2.23.38,0,.12-.04.22-.12.29s-.17.11-.27.11c-.03,0-.07,0-.1-.02s-.06-.02-.1-.03Zm1.73,9.36c-.11,0-.21-.04-.28-.11-.07-.07-.11-.17-.11-.28v-4.65c0-.2.07-.37.21-.5.14-.13.3-.2.49-.2h2.37c.05,0,.08-.03.08-.08v-.94c0-.05-.03-.08-.08-.08h-3.37c-.11,0-.21-.04-.28-.12-.07-.08-.11-.17-.11-.27,0-.11.04-.21.11-.28.07-.07.17-.11.28-.11h2.08c.05,0,.08-.03.08-.08v-1.31c0-.05-.03-.08-.08-.08h-1.51c-.11,0-.21-.04-.28-.12-.07-.08-.11-.17-.11-.27,0-.11.04-.21.12-.28.08-.07.17-.11.27-.11h1.51c.05,0,.08-.03.08-.08v-.68c0-.11.04-.21.12-.29s.17-.12.29-.12c.1,0,.2.04.27.12.08.08.12.17.12.29v.68c0,.05.03.08.08.08h1.61c.05,0,.08-.03.08-.08v-.68c0-.11.04-.21.12-.29.08-.08.17-.12.29-.12s.21.04.29.12.12.17.12.29v.68c0,.05.03.08.08.08h1.51c.1,0,.2.04.27.11s.12.17.12.28-.04.21-.12.28c-.08.07-.17.11-.27.11h-1.51c-.05,0-.08.03-.08.08v1.31c0,.05.03.08.08.08h2.08c.11,0,.21.04.28.12s.11.17.11.27c0,.11-.04.21-.12.28s-.17.11-.27.11h-3.38c-.05,0-.08.03-.08.08v.94c0,.05.03.08.08.08h2.37c.2,0,.37.07.5.21.13.14.2.3.2.49v3.86c0,.8-.53,1.19-1.6,1.17-.1,0-.2-.04-.27-.12-.08-.08-.12-.18-.12-.29,0-.1.04-.2.12-.28.08-.08.17-.12.29-.12.31,0,.52-.02.64-.06.11-.04.17-.14.17-.29v-3.73c0-.05-.03-.08-.08-.08h-2.21c-.05,0-.08.03-.08.08v2.76c0,.05.03.08.08.08h.71c.05,0,.08-.03.08-.08v-1.66c0-.11.04-.21.11-.28s.16-.11.27-.11c.11,0,.21.04.28.12.07.08.11.17.11.27v1.81c0,.19-.07.36-.21.49s-.3.21-.49.21h-2.64c-.19,0-.36-.07-.49-.21s-.21-.3-.21-.49v-1.81c0-.11.04-.21.11-.28.07-.07.16-.11.27-.11.11,0,.21.04.28.12.07.08.11.17.11.27v1.66c0,.05.03.08.08.08h.7c.05,0,.08-.03.08-.08v-2.76c0-.05-.03-.08-.08-.08h-2.2c-.05,0-.08.03-.08.08v4.52c0,.11-.04.21-.11.28-.07.07-.17.11-.29.11Zm2.34-7.62h1.61c.05,0,.08-.03.08-.08v-1.31c0-.05-.03-.08-.08-.08h-1.61c-.05,0-.08.03-.08.08v1.31c0,.05.03.08.08.08Z"/><path d="m152.02,29.36c-.12,0-.23-.03-.34-.1-.1-.08-.16-.19-.16-.32,0-.1.03-.2.1-.28.07-.08.15-.13.27-.15,1.1-.17,1.95-.55,2.54-1.12.59-.57.88-1.3.88-2.2,0-.58-.14-1.09-.42-1.53-.28-.44-.65-.79-1.12-1.05-.46-.25-.97-.38-1.51-.38-.07,0-.11.04-.13.1-.17.75-.36,1.48-.59,2.21s-.51,1.4-.84,2c-.73,1.35-1.48,2.03-2.26,2.03-.04,0-.09,0-.14,0s-.09-.01-.14-.02c-.4-.1-.7-.34-.9-.72-.2-.39-.3-.84-.3-1.37,0-.49.09-1,.27-1.54.18-.54.44-1.05.79-1.53.49-.68,1.1-1.18,1.81-1.5.71-.33,1.44-.49,2.18-.49.6,0,1.17.11,1.71.32.54.21,1.02.52,1.42.93.41.41.7.92.87,1.52.05.16.09.34.11.52.02.18.03.37.03.56,0,.45-.08.9-.24,1.34-.16.45-.41.86-.74,1.25-.33.39-.76.71-1.28.98-.52.27-1.14.45-1.87.55Zm-4.09-1.96c.15.23.31.35.49.35s.39-.11.61-.32.44-.51.66-.88c.22-.37.43-.79.63-1.25s.38-.94.54-1.44c.16-.5.29-.98.38-1.44v-.03c0-.08-.04-.11-.12-.09-.57.1-1.1.31-1.58.66-.48.34-.87.77-1.18,1.28-.21.36-.37.73-.47,1.14-.11.4-.16.77-.16,1.11,0,.38.07.68.2.91Z"/><path d="m166.03,30.4c-.1-.02-.19-.07-.26-.14-.07-.08-.1-.17-.1-.27,0-.14.05-.25.14-.33.1-.08.21-.11.35-.1.2.03.38.04.53.04.48,0,.83-.09,1.07-.27.23-.18.39-.43.47-.73s.14-.65.16-1.02c.04-.38.07-.79.1-1.23s.05-.84.07-1.22c0-.05-.03-.08-.08-.08h-3.83s-.06.02-.08.07c-.32,1.08-.81,2.07-1.46,2.97-.65.9-1.54,1.61-2.65,2.14-.05.03-.1.04-.14.04-.1,0-.18-.04-.25-.11s-.11-.17-.11-.29c0-.09.03-.19.08-.28.05-.09.12-.16.22-.2,2.38-1.21,3.72-3.63,4-7.28,0-.05-.03-.08-.08-.08h-3.64c-.11,0-.21-.04-.3-.12-.09-.08-.13-.18-.13-.29,0-.12.04-.22.12-.3s.18-.12.31-.12h4.37c.05,0,.08-.03.08-.08v-1.33c0-.12.04-.22.12-.31.08-.08.18-.12.31-.12s.22.04.31.12c.08.08.12.18.12.31v1.33c0,.05.03.08.08.08h4.37c.12,0,.22.04.3.12s.12.18.12.3c0,.11-.04.21-.12.29-.08.08-.18.12-.3.12h-5.12c-.05,0-.08,0-.08.03-.03.35-.06.7-.1,1.05-.04.35-.1.7-.18,1.03,0,.06.03.09.08.09h3.86c.19,0,.35.07.49.21s.2.3.19.49c-.02.41-.04.87-.07,1.39-.03.52-.07,1-.11,1.43-.05.56-.16,1.05-.33,1.45s-.43.71-.79.92-.86.32-1.5.32c-.09,0-.18,0-.28,0-.1,0-.2-.01-.3-.02Z"/><path d="m49.48,53.18c-.11,0-.21-.04-.29-.12s-.12-.17-.12-.29v-5.54s-.01-.06-.03-.07c-.02,0-.04,0-.06.03-.08.09-.16.19-.24.28-.08.09-.16.18-.24.27-.08.08-.17.12-.27.12-.13,0-.23-.05-.31-.14-.07-.08-.1-.18-.1-.3,0-.14.04-.25.13-.34,1.16-1.19,1.94-2.73,2.34-4.63.02-.1.06-.17.13-.23.07-.06.15-.08.23-.08.15,0,.26.05.33.15s.1.21.08.33c-.23,1.17-.62,2.23-1.14,3.18-.02.04-.03.07-.03.09v6.88c0,.11-.04.21-.12.29s-.18.12-.3.12Zm5.16,0c-.11,0-.21-.04-.29-.12s-.12-.17-.12-.29v-2.89s-.01-.06-.03-.06c-.02,0-.04,0-.06.03-.4.49-.88.97-1.46,1.46-.57.48-1.15.9-1.74,1.25-.04,0-.07.02-.09.03-.03.01-.06.02-.09.02-.15,0-.26-.07-.35-.22-.03-.06-.05-.12-.05-.2,0-.16.07-.28.21-.36.62-.38,1.23-.82,1.85-1.32.62-.5,1.11-1.02,1.5-1.58.04-.06.03-.09-.05-.09h-2.81c-.11,0-.21-.04-.29-.12-.08-.08-.12-.17-.12-.29s.04-.21.12-.29.17-.12.29-.12h3.11c.05,0,.08-.03.08-.08v-1.08c0-.05-.03-.08-.08-.08h-1.73c-.19,0-.36-.07-.49-.21-.14-.14-.21-.3-.21-.49v-2.81c0-.19.07-.36.21-.49.14-.14.3-.21.49-.21h4.51c.2,0,.37.07.5.21.13.14.2.3.2.49v2.81c0,.19-.07.36-.2.49-.13.14-.3.21-.5.21h-1.81c-.05,0-.08.03-.08.08v1.08c0,.05.03.08.08.08h3.2c.11,0,.21.04.28.12.07.08.11.17.11.29s-.04.21-.11.29c-.07.08-.17.12-.28.12h-2.73c-.07,0-.09.03-.07.09.23.34.5.69.83,1.05.33.36.69.7,1.07,1.01.39.31.77.58,1.15.81.17.1.26.24.26.43,0,.12-.04.22-.12.29s-.17.11-.26.11c-.08,0-.14-.02-.18-.05-.36-.22-.74-.49-1.12-.79-.38-.3-.75-.63-1.1-.99-.35-.36-.66-.72-.93-1.09-.02-.03-.04-.03-.06-.03-.02,0-.03.03-.03.06v3.04c0,.11-.04.21-.12.29s-.18.12-.3.12Zm-2.02-7.19h4.12c.05,0,.08-.03.08-.08v-2.43c0-.05-.03-.08-.08-.08h-4.12c-.05,0-.08.03-.08.08v2.43c0,.05.03.08.08.08Z"/><path d="m62.22,44.93c-.11,0-.21-.04-.28-.11-.07-.07-.11-.17-.11-.28,0-.1.04-.19.11-.27.07-.08.17-.12.28-.12h3.04c.11,0,.21.04.28.12.07.08.11.17.11.27,0,.11-.04.21-.11.28-.07.07-.17.11-.28.11h-3.04Zm.61,8.16c-.2,0-.37-.07-.5-.21-.13-.14-.2-.3-.2-.49v-2.3c0-.2.07-.37.2-.5.13-.13.3-.2.5-.2h1.82c.2,0,.37.07.5.2.13.13.2.3.2.5v2.3c0,.19-.07.36-.2.49-.13.14-.3.21-.5.21h-1.82Zm-.29-9.89c-.11,0-.21-.04-.29-.12-.08-.08-.12-.17-.12-.29s.04-.21.12-.29c.08-.08.17-.12.29-.12h2.39c.11,0,.21.04.28.12.07.08.11.17.11.29s-.04.21-.11.29c-.07.08-.17.12-.28.12h-2.39Zm.05,3.48c-.11,0-.21-.04-.29-.12s-.12-.17-.12-.29c0-.1.04-.19.12-.27s.17-.12.29-.12h2.29c.11,0,.21.04.29.12.08.08.12.17.12.27,0,.11-.04.21-.12.29-.08.08-.17.12-.29.12h-2.29Zm0,1.75c-.11,0-.21-.04-.29-.12s-.12-.17-.12-.29.04-.21.12-.29c.08-.08.17-.12.29-.12h2.29c.11,0,.21.04.29.12.08.08.12.17.12.29s-.04.21-.12.29c-.08.08-.17.12-.29.12h-2.29Zm.39,3.91h1.51c.05,0,.08-.03.08-.08v-2.08c0-.05-.03-.08-.08-.08h-1.51c-.05,0-.08.03-.08.08v2.08c0,.05.03.08.08.08Zm4.32-3.15c-.17,0-.32-.06-.45-.19-.12-.13-.19-.27-.19-.45v-2.2s-.01-.06-.03-.06c-.02,0-.04,0-.06.04-.06.06-.12.12-.18.19-.06.07-.12.13-.18.19s-.15.09-.26.09c-.13,0-.23-.05-.3-.14-.06-.06-.09-.14-.09-.23,0-.12.05-.22.14-.3.53-.48.91-1.1,1.16-1.85.1-.24.27-.36.51-.36.11,0,.2.04.27.13.07.09.08.18.06.27-.02.06-.04.13-.07.2-.03.07-.05.14-.08.21-.03.06,0,.09.07.09h1.65c.05,0,.08-.02.09-.05.05-.09.1-.18.15-.28.05-.1.09-.2.12-.29.08-.2.23-.3.46-.3.12,0,.21.04.27.13.06.09.07.18.04.27-.03.07-.05.14-.08.21-.03.07-.06.14-.09.21-.03.06,0,.09.06.09h2.03c.1,0,.18.03.24.1.07.06.1.14.1.23,0,.09-.03.17-.1.24-.06.07-.14.1-.24.1h-2.26c-.05,0-.08.03-.08.08v.44c0,.05.03.08.08.08h1.99c.1,0,.17.03.23.09.06.06.08.13.08.22s-.03.16-.08.23c-.06.06-.13.1-.23.1h-1.99c-.05,0-.08.03-.08.08v.44c0,.05.03.08.08.08h1.99c.1,0,.17.03.23.09.06.06.08.13.08.22s-.03.16-.08.22c-.06.06-.13.09-.23.09h-1.99c-.05,0-.08.03-.08.08v.44c0,.05.03.08.08.08h2.26c.1,0,.18.03.24.1.07.07.1.15.1.24,0,.09-.03.16-.1.23-.06.07-.14.1-.24.1h-5.02Zm5.07,3.93c-.61-.07-1.18-.17-1.71-.29s-1.02-.28-1.45-.46c-.03-.03-.07-.03-.1,0-.53.2-1.05.36-1.57.47-.52.11-.98.2-1.38.27-.1,0-.18-.02-.26-.08-.08-.06-.12-.15-.12-.25,0-.12.04-.23.12-.32s.17-.15.29-.16c.68-.1,1.31-.25,1.9-.43.07-.03.07-.06.01-.1-.09-.07-.17-.13-.25-.19s-.16-.13-.24-.19c-.06-.06-.09-.14-.09-.25s.03-.19.09-.25c.08-.08.17-.12.29-.12.09,0,.17.03.23.08.16.12.32.23.48.33.16.1.33.19.49.28.04.02.08.02.1,0,.3-.13.59-.27.85-.42.26-.15.49-.31.68-.47.03-.02.03-.04.03-.06,0-.02-.03-.03-.07-.03h-4.36c-.11,0-.21-.04-.28-.11s-.11-.16-.11-.27c0-.11.04-.21.11-.28s.17-.11.28-.11h5.56c.1,0,.19.03.25.1.06.06.1.14.1.23,0,.07-.02.13-.05.17-.24.34-.53.64-.85.91s-.68.51-1.06.71c-.08.04-.08.07-.01.09.3.09.63.16.97.22.34.06.71.12,1.11.17.12,0,.22.06.3.15.08.09.12.2.12.32,0,.11-.04.2-.12.27-.08.07-.17.1-.28.09Zm-4.07-9.4c-.11,0-.21-.04-.28-.11-.07-.07-.11-.17-.11-.28v-.04s-.03-.03-.08-.03h-1.64c-.1,0-.19-.04-.26-.11s-.1-.16-.1-.27c0-.1.04-.18.1-.25.07-.07.16-.11.26-.11h1.64c.05,0,.08-.02.08-.07,0-.11.04-.21.11-.28.07-.07.17-.11.28-.11s.21.04.28.12c.07.08.11.17.11.27,0,.04.03.07.08.07h1.07c.05,0,.08-.02.08-.07,0-.11.04-.21.12-.28.08-.07.17-.11.27-.11.11,0,.21.04.28.11.07.07.11.17.11.28,0,.04.03.07.08.07h1.51c.1,0,.19.04.26.11.07.07.1.16.1.25,0,.1-.04.19-.1.27s-.16.11-.26.11h-1.51c-.05,0-.08.02-.08.06,0,.11-.04.21-.11.28-.07.07-.17.11-.28.11s-.21-.04-.28-.12c-.07-.08-.11-.17-.11-.27,0-.04-.03-.06-.08-.06h-1.07c-.05,0-.08.02-.08.06,0,.11-.04.21-.12.28-.08.07-.17.11-.27.11Zm-.77,2.35h1.59c.05,0,.08-.03.08-.08v-.44c0-.05-.03-.08-.08-.08h-1.59c-.05,0-.08.03-.08.08v.44c0,.05.03.08.08.08Zm0,1.23h1.59c.05,0,.08-.03.08-.08v-.44c0-.05-.03-.08-.08-.08h-1.59c-.05,0-.08.03-.08.08v.44c0,.05.03.08.08.08Zm0,1.22h1.59c.05,0,.08-.03.08-.08v-.44c0-.05-.03-.08-.08-.08h-1.59c-.05,0-.08.03-.08.08v.44c0,.05.03.08.08.08Z"/><path d="m79.32,53.09c-.19,0-.36-.07-.49-.21s-.21-.3-.21-.49v-3.59c0-.08-.03-.1-.09-.06-.4.19-.8.37-1.21.53-.41.16-.81.31-1.22.43-.03,0-.06.01-.1.01-.1,0-.19-.04-.27-.11s-.12-.17-.12-.29c0-.21.1-.35.31-.43.82-.27,1.61-.58,2.37-.94s1.46-.75,2.13-1.17c.03-.02.04-.04.03-.06-.01-.02-.04-.03-.07-.03h-4.15c-.11,0-.21-.04-.29-.12s-.12-.17-.12-.29.04-.21.12-.29c.08-.08.17-.12.29-.12h3.72c.05,0,.08-.03.08-.08v-1.35c0-.05-.03-.08-.08-.08h-2.26c-.11,0-.21-.04-.29-.12s-.12-.17-.12-.29c0-.12.04-.22.12-.29.08-.07.17-.11.29-.11h2.26c.05,0,.08-.03.08-.08v-.95c0-.12.04-.22.12-.3.08-.08.18-.12.29-.12.12,0,.22.04.29.12.07.08.11.18.11.3v.95c0,.05.03.08.08.08h1.78c.12,0,.22.04.29.12.07.08.11.17.11.29s-.04.21-.12.29-.17.12-.29.12h-1.78c-.05,0-.08.03-.08.08v1.35c0,.05.03.08.08.08h.74s.07-.01.09-.04c.64-.49,1.21-.99,1.72-1.51.5-.52.93-1.04,1.27-1.56.1-.16.23-.23.42-.23.13,0,.23.04.31.12.07.08.11.17.11.27,0,.06-.02.12-.05.18-.29.46-.65.91-1.06,1.37-.41.45-.86.89-1.35,1.31-.03.02-.05.04-.04.06,0,.02.03.03.07.03h2.91c.12,0,.22.04.29.12.07.08.11.17.11.29s-.04.21-.11.29c-.07.08-.17.12-.29.12h-4.02s-.06,0-.09.03c-.27.19-.54.38-.81.56-.27.18-.56.36-.85.53-.03.02-.05.04-.04.06,0,.02.03.03.07.03h3.85c.2,0,.37.07.5.21.13.14.2.3.2.49v3.79c0,.19-.07.36-.2.49-.13.14-.3.21-.5.21h-4.84Zm.18-3.02h4.47c.05,0,.08-.03.08-.08v-1.22c0-.05-.03-.08-.08-.08h-4.47c-.05,0-.08.03-.08.08v1.22c0,.05.03.08.08.08Zm0,2.22h4.47c.05,0,.08-.03.08-.08v-1.29c0-.05-.03-.08-.08-.08h-4.47c-.05,0-.08.03-.08.08v1.29c0,.05.03.08.08.08Z"/><path d="m95.56,52.11c-.12,0-.23-.03-.34-.1-.1-.08-.16-.19-.16-.32,0-.1.03-.2.1-.28.07-.08.15-.13.27-.15,1.1-.17,1.95-.55,2.54-1.12.59-.57.88-1.3.88-2.2,0-.58-.14-1.09-.42-1.53-.28-.44-.65-.79-1.12-1.05-.46-.25-.97-.38-1.51-.38-.07,0-.11.04-.13.1-.17.75-.36,1.48-.59,2.21s-.51,1.4-.84,2c-.73,1.35-1.48,2.03-2.26,2.03-.04,0-.09,0-.14,0s-.09-.01-.14-.02c-.4-.1-.7-.34-.9-.72-.2-.39-.3-.84-.3-1.37,0-.49.09-1,.27-1.54.18-.54.44-1.05.79-1.53.49-.68,1.1-1.18,1.81-1.5.71-.33,1.44-.49,2.18-.49.6,0,1.17.11,1.71.32.54.21,1.02.52,1.42.93.41.41.7.92.87,1.52.05.16.09.34.11.52.02.18.03.37.03.56,0,.45-.08.9-.24,1.34-.16.45-.41.86-.74,1.25-.33.39-.76.71-1.28.98-.52.27-1.14.45-1.87.55Zm-4.09-1.96c.15.23.31.35.49.35s.39-.11.61-.32.44-.51.66-.88c.22-.37.43-.79.63-1.25s.38-.94.54-1.44c.16-.5.29-.98.38-1.44v-.03c0-.08-.04-.11-.12-.09-.57.1-1.1.31-1.58.66-.48.34-.87.77-1.18,1.28-.21.36-.37.73-.47,1.14-.11.4-.16.77-.16,1.11,0,.38.07.68.2.91Z"/><path d="m104,51.72c-.06.06-.14.09-.23.09-.12,0-.22-.05-.29-.16-.05-.09-.08-.19-.08-.29,0-.15.05-.27.16-.38.44-.43.81-.91,1.11-1.43.3-.52.54-1.04.72-1.57.18-.53.3-1,.38-1.42.02-.05,0-.08-.08-.08h-1.75c-.11,0-.2-.04-.27-.12s-.1-.17-.1-.27.04-.19.11-.27c.07-.07.16-.11.27-.11h2.04c.19,0,.35.07.47.21s.17.3.14.48c-.1.67-.26,1.32-.51,1.97-.24.65-.54,1.25-.89,1.83-.35.57-.75,1.07-1.19,1.51Zm2.9,1.4c-.09-.02-.17-.06-.24-.14-.06-.07-.1-.16-.1-.25,0-.12.05-.22.14-.3s.19-.11.31-.09c.09,0,.18.02.27.02.08,0,.16,0,.24,0,.3,0,.54-.03.71-.1.17-.07.26-.16.26-.28v-1.08c0-.05-.03-.08-.08-.08h-2.09c-.1,0-.19-.04-.26-.11s-.1-.16-.1-.25c0-.1.03-.19.1-.26.07-.07.16-.1.26-.1h2.09c.05,0,.08-.03.08-.08v-.95c0-.05-.03-.08-.08-.08h-1.39c-.1,0-.18-.04-.25-.1-.07-.07-.11-.16-.11-.26s.04-.19.1-.26c.07-.07.16-.1.26-.1h1.39c.05,0,.08-.03.08-.08v-.95c0-.05-.03-.08-.08-.08h-.92c-.1,0-.19-.03-.27-.1-.07-.07-.11-.16-.11-.26s.04-.19.11-.26c.07-.07.16-.1.27-.1h.92c.05,0,.08-.03.08-.08v-1.24c0-.11.04-.21.12-.29s.17-.12.29-.12c.03,0,.05,0,.07,0,.02,0,.05.01.07.02.03,0,.07,0,.1,0,.29-.16.58-.36.84-.59.27-.23.53-.49.78-.79.04-.06.03-.09-.05-.09h-4.8c-.11,0-.21-.04-.29-.12s-.12-.17-.12-.29c0-.12.04-.22.12-.3.08-.08.18-.12.29-.12h5.75c.12,0,.22.04.3.12s.12.18.12.28c0,.06-.02.12-.05.18-.32.53-.73,1.01-1.21,1.45-.49.44-.98.78-1.46,1.02-.04,0-.05.04-.05.09v.75c0,.05.03.08.08.08h1.08c.1,0,.19.03.27.1.07.07.11.16.11.26,0,.1-.04.18-.11.25-.07.07-.16.11-.27.11h-1.08c-.05,0-.08.03-.08.08v.95c0,.05.03.08.08.08h1.55c.1,0,.19.04.26.1.07.07.1.16.1.26,0,.1-.04.18-.1.25-.07.07-.16.11-.26.11h-1.55c-.05,0-.08.03-.08.08v.95c0,.05.03.08.08.08h2.25c.1,0,.19.03.26.1.07.07.1.16.1.26,0,.1-.03.18-.1.25s-.16.11-.26.11h-2.25c-.05,0-.08.03-.08.08v1.08c0,.36-.16.65-.49.85-.33.2-.77.31-1.35.31-.09,0-.18,0-.27,0s-.19-.01-.29-.02Zm7.16-.92c-.42-.37-.81-.84-1.16-1.39-.35-.55-.66-1.14-.92-1.76-.26-.62-.47-1.23-.64-1.82s-.27-1.12-.33-1.57c0-.11.02-.21.09-.3s.17-.13.31-.13c.09,0,.17.03.24.09.07.06.12.14.12.25.03.23.08.5.15.79.06.29.14.6.24.93.02.06.05.07.1.03.24-.2.5-.45.79-.77.28-.31.54-.66.79-1.05.07-.1.17-.16.3-.16.09,0,.15.02.2.05.13.1.2.23.2.37,0,.07-.02.14-.07.21-.16.26-.34.53-.57.8-.22.27-.45.53-.69.77-.24.24-.47.44-.7.59-.03.02-.04.06-.03.12.23.6.5,1.18.82,1.75.32.57.69,1.05,1.1,1.44.13.11.2.26.2.44,0,.09-.02.16-.05.22-.07.13-.17.2-.31.2-.08,0-.14-.03-.2-.08Z"/><path d="m117.86,45c-.11,0-.21-.04-.28-.11-.07-.07-.11-.17-.11-.28,0-.12.04-.22.11-.29.07-.07.17-.11.28-.11h3.07c.11,0,.21.04.28.11s.11.17.11.29c0,.11-.04.21-.11.28-.07.07-.17.11-.28.11h-3.07Zm.34-1.7c-.11,0-.21-.04-.28-.11s-.11-.16-.11-.27c0-.11.04-.21.11-.28.07-.07.17-.11.28-.11h2.39c.11,0,.21.04.28.11.07.07.11.17.11.28,0,.1-.04.19-.11.27-.07.07-.17.11-.28.11h-2.39Zm.34,9.78c-.2,0-.37-.07-.5-.21-.13-.14-.2-.3-.2-.49v-2.39c0-.2.07-.37.21-.5.14-.13.3-.2.49-.2h1.75c.2,0,.37.07.5.2s.2.3.2.5v2.39c0,.2-.07.37-.2.5s-.3.2-.5.2h-1.75Zm-.3-6.38c-.1,0-.19-.04-.27-.11-.07-.07-.11-.17-.11-.28,0-.1.03-.2.1-.27.07-.08.16-.12.27-.12h2.31c.1,0,.19.04.27.12.07.08.11.17.11.27s-.04.2-.11.27-.16.12-.27.12h-2.31Zm0,1.68c-.11,0-.2-.04-.27-.11s-.1-.17-.1-.28c0-.1.03-.19.1-.27.07-.07.16-.11.27-.11h2.31c.1,0,.19.04.27.11.07.07.11.16.11.27,0,.11-.04.21-.11.28s-.16.11-.27.11h-2.31Zm.46,3.94h1.44c.05,0,.08-.03.08-.08v-2.11c0-.05-.03-.08-.08-.08h-1.44c-.05,0-.08.03-.08.08v2.11c0,.05.03.08.08.08Zm3.15-1.57c-.06.05-.13.08-.21.08-.14,0-.25-.06-.33-.18-.03-.06-.05-.13-.05-.21,0-.16.06-.28.18-.38.43-.33.84-.72,1.21-1.17.37-.45.71-.95,1-1.51.04-.06.02-.09-.05-.09h-1.72c-.11,0-.21-.04-.29-.12s-.12-.17-.12-.29.04-.21.12-.28.17-.11.29-.11h2.12c.05,0,.08-.02.09-.06.07-.17.13-.35.2-.54.06-.19.12-.38.18-.57.05-.19.17-.29.36-.29.13,0,.23.04.31.12s.12.17.12.29c0,.04,0,.08-.01.1-.04.14-.07.28-.12.42-.04.14-.09.29-.14.44-.03.06,0,.09.05.09h2.86c.12,0,.22.04.29.12.07.08.11.17.11.27,0,.11-.04.21-.12.29s-.17.12-.29.12h-3.22c-.05,0-.08.02-.09.05-.3.61-.69,1.21-1.16,1.81s-1,1.13-1.59,1.59Zm1.83-5.69c-.11,0-.21-.04-.29-.12-.08-.08-.12-.17-.12-.29v-.61c0-.05-.03-.08-.08-.08h-1.33c-.11,0-.21-.04-.28-.11-.07-.07-.11-.17-.11-.28,0-.1.04-.19.11-.27.07-.07.17-.11.28-.11h1.33c.05,0,.08-.03.08-.08v-.61c0-.12.04-.22.12-.29.08-.07.17-.11.29-.11s.21.04.29.12.12.17.12.29v.61c0,.05.03.08.08.08h1.47c.05,0,.08-.03.08-.08v-.61c0-.12.04-.22.12-.29.08-.07.17-.11.29-.11.12,0,.22.04.29.12.07.08.11.17.11.29v.61c0,.05.03.08.08.08h1.33c.11,0,.21.04.28.11.07.07.11.16.11.27,0,.11-.04.21-.12.28-.08.07-.17.11-.27.11h-1.33c-.05,0-.08.03-.08.08v.61c0,.11-.04.21-.12.29-.08.08-.17.12-.29.12s-.21-.04-.29-.12-.12-.17-.12-.29v-.61c0-.05-.03-.08-.08-.08h-1.47c-.05,0-.08.03-.08.08v.61c0,.11-.04.21-.12.29-.08.08-.17.12-.29.12Zm.27,8.03c-.19,0-.36-.07-.49-.21s-.21-.3-.21-.49v-2.67c0-.2.07-.37.21-.5s.3-.2.49-.2h3.08c.2,0,.37.07.5.2s.2.3.2.5v2.67c0,.19-.07.36-.21.49s-.3.21-.49.21h-3.08Zm.18-.78h2.7c.05,0,.08-.03.08-.08v-2.35c0-.05-.03-.08-.08-.08h-2.7c-.05,0-.08.03-.08.08v2.35c0,.05.03.08.08.08Z"/><path d="m131.9,52.57c-.11-.08-.17-.19-.17-.34,0-.07.02-.15.06-.23.56-.85,1.05-1.78,1.47-2.78.42-1,.76-2.02,1.03-3.05,0,0,0-.02,0-.02,0,0,0-.01,0-.02,0-.07-.04-.1-.12-.08-.19.04-.38.06-.56.07-.18.01-.37.02-.57.02-.1,0-.21,0-.31,0-.1,0-.22,0-.34-.02-.09,0-.17-.05-.23-.12-.07-.07-.1-.16-.1-.27,0-.12.05-.22.14-.3.1-.08.2-.11.33-.1.23.03.46.04.66.04.38,0,.79-.04,1.24-.13.06,0,.09-.04.1-.1.09-.41.16-.8.22-1.19s.11-.76.14-1.14c.02-.11.06-.2.14-.27.07-.07.17-.1.28-.1.12,0,.22.04.29.13.07.09.1.19.08.3-.04.33-.08.66-.14,1.01s-.12.69-.19,1.05v.03c0,.07.04.1.12.09.13-.02.26-.03.38-.04.13,0,.25-.01.36-.01.69,0,1.21.17,1.53.51s.46.85.4,1.55c-.04.44-.09.89-.16,1.35s-.15.87-.23,1.24-.15.66-.21.87c-.32,1.14-.91,1.71-1.78,1.71-.43,0-.94-.14-1.51-.43-.15-.07-.22-.2-.22-.38,0-.13.04-.23.13-.31.09-.07.18-.11.29-.11.04,0,.07,0,.1.01.03,0,.06.02.1.04.46.25.83.38,1.12.38.3,0,.55-.14.74-.44.19-.29.35-.76.48-1.42s.25-1.52.36-2.61c0-.03.01-.07.01-.11v-.11c0-.15-.03-.3-.08-.45-.06-.15-.17-.28-.34-.39-.17-.11-.44-.16-.79-.16-.12,0-.26,0-.41.02-.15.01-.31.04-.49.08-.07,0-.11.05-.13.12-.19.78-.42,1.56-.7,2.34-.27.78-.57,1.53-.9,2.24-.33.71-.69,1.37-1.08,1.96-.07.11-.17.17-.31.17-.08,0-.16-.03-.23-.08Zm9.94-2.33c-.05.02-.09.03-.13.03-.1,0-.18-.03-.26-.1-.08-.06-.13-.14-.16-.24-.16-.57-.36-1.13-.62-1.66-.26-.54-.55-1.04-.86-1.5s-.63-.86-.96-1.19c-.07-.08-.1-.18-.1-.3,0-.14.05-.24.14-.31.09-.09.21-.13.34-.13.15,0,.26.06.35.17.23.27.48.59.73.98.25.38.5.78.73,1.21.24.42.46.85.65,1.27.2.42.35.82.46,1.18.02.07.03.12.03.14,0,.22-.11.37-.34.46Zm-.69-5.32s-.05.01-.09.01c-.11,0-.19-.05-.23-.16-.21-.55-.52-1.01-.92-1.37-.06-.06-.09-.13-.09-.19,0-.04.02-.1.06-.16.05-.06.12-.09.2-.09.05,0,.11.02.17.07.44.41.79.92,1.05,1.53,0,.02.02.04.02.05,0,.02,0,.03,0,.05,0,.1-.06.19-.17.25Zm1.07-.49s-.06.03-.09.03c-.11,0-.18-.05-.21-.16-.23-.56-.55-1.04-.96-1.44-.04-.03-.06-.09-.06-.16s.02-.12.05-.16c.05-.05.11-.08.18-.08.06,0,.11.02.16.06.26.23.47.47.63.71.16.24.31.52.45.85,0,.02.01.03.02.05,0,.02,0,.04,0,.05,0,.11-.06.19-.17.23Z"/><path d="m150.43,52.92c-.55,0-1-.12-1.34-.37s-.55-.6-.62-1.07c-.02-.06-.05-.07-.09-.04-.4.23-.81.45-1.25.65-.43.2-.88.37-1.35.52-.03,0-.06.01-.12.01-.1,0-.18-.04-.25-.1-.07-.07-.11-.17-.11-.29,0-.21.1-.34.31-.4.51-.16,1-.36,1.46-.59.46-.23.9-.48,1.33-.75.03-.03.05-.06.05-.1v-4.43c0-.11.04-.21.12-.29s.18-.12.29-.12c.12,0,.22.04.3.12.08.08.12.18.12.3v3.77c0,.07.03.08.09.04.74-.59,1.39-1.23,1.96-1.92.57-.69,1.07-1.4,1.48-2.13s.75-1.43,1.01-2.09c.07-.18.2-.27.38-.27.12,0,.22.04.29.12.07.08.11.18.11.28,0,.03,0,.05,0,.07,0,.02-.01.05-.02.07-.3.8-.7,1.61-1.18,2.44-.49.83-1.07,1.63-1.74,2.4s-1.45,1.47-2.33,2.09c-.03.03-.05.05-.05.08,0,.36.05.63.14.81s.29.29.58.34c.3.05.75.08,1.36.08.42,0,.76-.01,1.03-.04.27-.03.52-.1.73-.21.21-.12.43-.3.64-.56.08-.1.18-.14.3-.14.1,0,.19.03.26.1.1.1.14.21.14.35,0,.05,0,.1-.02.16-.01.05-.04.1-.08.14-.33.36-.68.62-1.07.77-.38.15-.85.23-1.42.23h-1.44Zm-4.39-2.14c-.08.08-.17.12-.27.12-.12,0-.23-.05-.33-.14-.08-.08-.12-.18-.12-.3,0-.11.04-.21.13-.3.41-.42.72-.85.93-1.29.21-.45.37-.84.46-1.19.06-.21.19-.31.39-.31.15,0,.26.05.33.16.07.1.1.22.07.34-.12.52-.33,1.04-.62,1.57-.29.53-.62.98-.98,1.36Zm5.8-6.41c-1.14-.46-2.39-.75-3.73-.88-.11,0-.2-.05-.27-.13s-.1-.17-.1-.27c0-.14.05-.25.15-.34s.21-.12.33-.1c.42.04.87.11,1.33.21.46.09.91.2,1.34.32s.82.24,1.17.36c.22.07.33.22.33.44,0,.03,0,.05,0,.07,0,.02-.01.05-.02.07-.02.09-.06.15-.13.2-.07.05-.15.07-.23.07-.03,0-.05,0-.07,0-.02,0-.05-.01-.07-.02Zm3.95,6.99c-.1.03-.2.01-.3-.04s-.16-.14-.2-.25c-.07-.28-.17-.58-.29-.9-.13-.33-.26-.65-.42-.98s-.31-.61-.46-.86c-.04-.07-.06-.14-.06-.22,0-.16.07-.27.22-.34.07-.04.15-.05.23-.05.2,0,.35.09.44.26.13.24.27.53.41.87.14.33.28.67.42,1.02.13.35.24.67.32.96,0,.03.01.06.01.12,0,.09-.03.17-.08.25-.06.08-.14.14-.24.17Z"/><path d="m159.61,53.19c-.12,0-.23-.03-.33-.12-.09-.09-.14-.2-.14-.33,0-.1.03-.19.1-.27s.16-.12.27-.13c.85-.07,1.61-.17,2.28-.3.67-.13,1.26-.29,1.77-.48.04-.02.06-.04.06-.06,0-.02-.03-.04-.07-.05-.32-.04-.66-.08-1.01-.12-.35-.04-.7-.07-1.05-.1-.12,0-.22-.06-.29-.14-.07-.09-.11-.19-.11-.3,0-.14.05-.25.16-.34.18-.16.35-.32.51-.48.16-.17.31-.33.45-.51.04-.06.03-.09-.04-.09h-2.59c-.11,0-.21-.04-.28-.12-.07-.08-.11-.17-.11-.29,0-.12.04-.22.11-.29.07-.07.17-.11.28-.11h3.16c.05,0,.08-.02.09-.05.06-.12.12-.24.17-.37.05-.13.09-.25.13-.37.07-.22.21-.33.42-.33.12,0,.22.04.29.12.07.08.11.17.11.26,0,.05,0,.09-.01.12-.03.09-.05.17-.08.26-.03.09-.07.18-.11.27-.03.06,0,.09.07.09h5.81c.11,0,.21.04.29.12s.12.17.12.29-.04.21-.12.29-.17.12-.29.12h-1.95s-.08.02-.1.05c-.45.64-.94,1.19-1.48,1.65-.05.05-.04.09.03.1.36.1.76.21,1.19.33.43.13.85.25,1.27.38.42.13.79.25,1.12.36.2.07.3.2.3.4,0,.12-.04.22-.13.31-.09.09-.19.13-.3.13-.03,0-.06,0-.12-.03-.38-.13-.82-.27-1.32-.43-.5-.16-1.01-.31-1.53-.46-.52-.15-1.02-.27-1.49-.36-.02,0-.05,0-.1.01-.65.37-1.41.66-2.28.88-.87.21-1.91.37-3.12.47Zm1.33-5.88c-.19,0-.36-.07-.49-.21s-.21-.3-.21-.49v-1.61c0-.2.07-.37.21-.5.14-.13.3-.2.49-.2h1.95c.05,0,.08-.03.08-.08v-.99c0-.05-.03-.08-.08-.08h-3.28c-.11,0-.21-.04-.29-.12s-.12-.17-.12-.29.04-.21.12-.29c.08-.08.17-.12.29-.12h9.98c.12,0,.22.04.29.12.07.08.11.17.11.29s-.04.21-.11.29c-.07.08-.17.12-.29.12h-3.28c-.05,0-.08.03-.08.08v.99c0,.05.03.08.08.08h1.95c.2,0,.37.07.5.2s.2.3.2.5v1.61c0,.19-.07.36-.2.49-.13.14-.3.21-.5.21h-7.33Zm.21-.8h1.74c.05,0,.08-.03.08-.08v-1.26c0-.05-.03-.08-.08-.08h-1.74c-.05,0-.08.03-.08.08v1.26c0,.05.03.08.08.08Zm3.67,4.41s.06,0,.1-.01c.62-.41,1.13-.88,1.53-1.43.04-.06.03-.09-.05-.09h-3.07s-.08.02-.1.05c-.11.19-.24.38-.38.55s-.28.34-.43.49c-.04.05-.03.09.04.1.37.04.76.08,1.16.14s.8.13,1.2.2Zm-.97-6.62h1.53c.05,0,.08-.03.08-.08v-.99c0-.05-.03-.08-.08-.08h-1.53c-.05,0-.08.03-.08.08v.99c0,.05.03.08.08.08Zm0,2.21h1.53c.05,0,.08-.03.08-.08v-1.26c0-.05-.03-.08-.08-.08h-1.53c-.05,0-.08.03-.08.08v1.26c0,.05.03.08.08.08Zm2.48,0h1.73c.05,0,.08-.03.08-.08v-1.26c0-.05-.03-.08-.08-.08h-1.73c-.05,0-.08.03-.08.08v1.26c0,.05.03.08.08.08Z"/><path d="m182.13,52.41c-.19.04-.38.08-.57.1-.19.03-.38.04-.57.04-.66,0-1.28-.14-1.87-.42s-1.05-.68-1.41-1.2c-.17-.25-.31-.54-.42-.88-.1-.33-.16-.69-.16-1.06,0-.61.16-1.25.47-1.92.31-.68.84-1.33,1.59-1.96.03-.04.05-.07.05-.09,0-.03-.03-.05-.09-.04-.46.06-.93.11-1.41.14-.48.03-.97.05-1.48.05-.29,0-.59,0-.9-.02-.3-.01-.61-.03-.91-.05-.1-.02-.19-.07-.27-.15-.07-.08-.11-.18-.11-.28,0-.12.05-.22.14-.31s.2-.12.33-.11c.65.05,1.28.08,1.88.08,2.09,0,3.98-.31,5.67-.92.03,0,.05-.02.08-.02.03,0,.05,0,.08,0,.11,0,.21.04.3.12.09.08.13.18.13.31,0,.18-.09.31-.26.38-.47.17-.96.33-1.48.46-.04,0-.08.03-.13.05-.92.58-1.63,1.25-2.14,2-.51.75-.76,1.49-.76,2.22,0,.29.05.58.14.86s.23.54.42.79c.33.42.71.72,1.14.9.43.17.86.26,1.29.26.36,0,.71-.05,1.05-.14.03,0,.07-.01.12-.01.09,0,.18.03.25.08.07.05.12.12.12.21,0,.03.01.06.01.1,0,.11-.03.21-.1.3-.06.09-.15.15-.25.16Zm.69-4.81s-.05.01-.09.01c-.1,0-.18-.05-.22-.16-.11-.29-.24-.55-.38-.77-.14-.22-.32-.42-.54-.61-.06-.05-.09-.11-.09-.18,0-.06.02-.11.07-.16.05-.06.12-.09.2-.09.05,0,.11.02.17.07.43.4.78.91,1.05,1.53,0,.02.01.05.01.09,0,.11-.06.2-.17.26Zm1.08-.49s-.05.01-.09.01c-.1,0-.18-.05-.22-.14-.22-.55-.53-1.04-.95-1.44-.05-.05-.08-.11-.08-.17,0-.05.02-.1.07-.14.05-.05.11-.08.17-.08.05,0,.11.02.17.06.26.23.47.47.62.71.16.24.3.52.44.85.02.05.03.09.03.1,0,.11-.05.19-.16.23Z"/><path d="m190.19,52.67c-.11,0-.21-.03-.29-.11-.08-.08-.12-.18-.12-.29,0-.12.04-.22.12-.31.08-.09.19-.13.32-.13.7-.02,1.31-.21,1.83-.57.52-.36.86-.84,1.01-1.44.05-.23.07-.48.07-.74,0-.06-.02-.09-.07-.09s-.08.02-.1.07c-.15.23-.33.41-.55.54-.22.13-.45.2-.7.2-.39,0-.74-.13-1.05-.4-.31-.27-.48-.6-.53-.99,0-.04-.01-.09-.01-.13v-.12c0-.53.16-.96.47-1.28.31-.33.68-.49,1.12-.49.32,0,.63.1.94.29.04.02.06.03.08.03.04,0,.07-.03.07-.09v-1.39c-.01-.09-.05-.12-.13-.1-.53.03-1.06.07-1.58.12-.52.04-1.02.06-1.5.06-.55,0-1.06-.04-1.52-.12-.11-.02-.2-.07-.27-.15-.06-.08-.1-.18-.1-.29,0-.12.05-.22.14-.29.09-.07.19-.1.31-.08.25.03.51.06.78.08s.54.03.81.03c.48,0,.96-.02,1.46-.06s.99-.08,1.48-.11c.08-.02.12-.06.12-.13v-1.24c-.02-.11.01-.21.09-.29.08-.08.17-.12.29-.12s.21.04.29.11c.08.07.12.17.12.29v1.17c0,.09.05.12.14.1.27-.02.53-.03.79-.04.26,0,.52-.01.77-.01.27,0,.53,0,.79.02.26.01.51.04.75.08.11.02.2.07.26.15s.09.18.09.28c0,.11-.04.21-.13.29-.09.08-.19.11-.3.09-.22-.03-.44-.06-.68-.07s-.48-.02-.73-.02-.53,0-.81.02-.55.03-.83.05c-.08,0-.12.04-.12.12v2.14s0,.05,0,.07c0,.02.01.04.02.07.22.49.33,1.03.33,1.6s-.13,1.16-.4,1.7c-.27.55-.68,1-1.23,1.35-.55.36-1.25.55-2.09.58Zm.77-4.21c.05.15.16.27.32.38s.33.16.51.16c.22,0,.44-.1.64-.3s.3-.54.31-1.03c0-.05-.02-.1-.05-.14-.12-.17-.26-.3-.41-.37-.15-.07-.3-.11-.45-.11-.24,0-.46.09-.65.28-.19.19-.29.43-.29.72,0,.06,0,.13.01.2,0,.07.03.15.05.21Z"/><path d="m202.03,53.59c-.29,0-.55-.07-.78-.21-.23-.14-.42-.33-.57-.57s-.21-.5-.21-.8.07-.55.21-.78c.14-.23.33-.42.57-.56.23-.14.49-.21.78-.21s.56.07.79.21c.23.14.42.33.57.57.14.23.21.5.21.79s-.07.55-.21.78c-.14.23-.33.42-.57.56-.23.14-.5.21-.79.21Zm0-.51c.29,0,.55-.1.75-.31.21-.21.31-.46.31-.74s-.1-.55-.31-.75-.46-.31-.75-.31-.54.1-.75.31c-.2.21-.31.46-.31.75s.1.54.31.75c.21.2.46.31.74.31Z"/></g><g><line class="cls-4" x1="126.16" y1="97.8" x2="126.16" y2="112.82"/><path class="cls-3" d="m120.94,105.39c.25-.16.59-.09.75.17l4.47,7.02,4.47-7.02c.16-.25.5-.33.75-.17.25.16.33.5.17.75l-4.93,7.74c-.1.16-.27.25-.46.25s-.36-.1-.46-.25l-4.93-7.74c-.06-.09-.08-.19-.08-.29,0-.18.09-.36.25-.46Z"/></g><polygon class="cls-2" points="42.79 .8 .75 48.85 .75 .8 42.79 .8"/></g></g></svg>