<?xml version="1.0" encoding="UTF-8"?><svg id="_レイヤー_2" xmlns="http://www.w3.org/2000/svg" viewBox="0 0 252 133.05"><defs><style>.cls-1{fill:#fff;}.cls-2{fill:#333;}.cls-3{fill:#afda76;}.cls-4{fill:none;stroke:#333;stroke-linecap:round;stroke-miterlimit:10;stroke-width:.75px;}</style></defs><g id="_レイヤー_1-2"><g><g><rect class="cls-1" x=".37" y=".38" width="251.25" height="132.3"/><path class="cls-2" d="m251.25.75v131.55H.75V.75h250.5m.75-.75H0v133.05h252V0h0Z"/></g><g><path d="m23.95,66.63c-.17,0-.32-.06-.45-.18-.13-.12-.19-.27-.19-.46v-9.22c0-.17.06-.32.18-.45.12-.12.27-.19.46-.19h9.14c.12,0,.22.04.29.12s.11.18.11.3c0,.11-.04.21-.12.29-.08.08-.17.12-.29.12h-8.84c-.05,0-.08.03-.08.08v8.7c0,.05.03.08.08.08h8.93c.12,0,.22.04.3.12.08.08.12.17.12.29s-.04.21-.12.29c-.08.08-.18.12-.3.12h-9.23Zm1.18-1.44c-.11.04-.22.01-.33-.07-.11-.08-.16-.19-.16-.33,0-.2.1-.33.3-.39.42-.12.85-.29,1.31-.51.46-.22.87-.48,1.24-.79.37-.3.65-.63.83-.97.02-.03.02-.05,0-.07-.01-.02-.03-.03-.06-.03h-3.04c-.11,0-.21-.04-.28-.12s-.11-.17-.11-.27c0-.11.04-.21.11-.28s.17-.11.28-.11h3.22c.05,0,.08-.03.08-.08v-1.69c0-.05-.03-.08-.08-.08h-1.65s-.08.02-.1.05c-.17.23-.36.44-.55.64-.19.2-.39.38-.59.53-.06.04-.13.06-.19.06-.13,0-.23-.06-.3-.17-.03-.07-.05-.14-.05-.22,0-.14.05-.26.16-.36.76-.66,1.33-1.46,1.72-2.4.08-.19.22-.29.42-.29.12,0,.22.04.29.12.07.08.11.16.11.26,0,.07,0,.12-.03.14-.05.13-.11.26-.17.38-.06.13-.13.25-.2.38-.03.06,0,.09.05.09h4.41c.11,0,.21.04.28.11.07.07.11.17.11.28s-.04.21-.11.28c-.07.07-.17.11-.28.11h-2.37c-.05,0-.08.03-.08.08v1.69c0,.05.03.08.08.08h3.19c.11,0,.21.04.28.11s.11.17.11.28-.04.21-.11.28c-.07.07-.17.11-.28.11h-2.87c-.08,0-.1.03-.05.09.3.45.73.89,1.28,1.31.55.42,1.21.73,1.98.94.1.03.17.08.23.16.06.08.09.17.09.26,0,.13-.05.23-.14.31-.1.08-.2.1-.32.08-.55-.14-1.07-.34-1.55-.61-.48-.27-.9-.57-1.27-.91-.37-.34-.68-.67-.93-1-.03-.05-.06-.05-.1.01-.24.4-.58.77-1,1.11-.42.34-.88.63-1.37.87s-.96.42-1.42.54Z"/><path d="m37.08,66.93c-.13-.06-.2-.17-.2-.31,0-.08.03-.16.08-.23.28-.43.49-.94.64-1.51.15-.58.26-1.16.32-1.76,0-.03,0-.06-.02-.06s-.05,0-.07.01c-.11.1-.24.2-.38.29s-.28.18-.43.28c-.03,0-.05.02-.08.03-.03.01-.05.02-.08.02-.09,0-.17-.04-.23-.12-.07-.08-.1-.17-.1-.27,0-.24.11-.43.34-.56.42-.24.78-.56,1.08-.95.03-.03.04-.06.04-.09v-1.9c0-.07-.02-.09-.06-.07,0,0-.03.02-.06.04-.03.03-.08.04-.14.04-.15,0-.26-.08-.34-.25-.19-.52-.45-1.01-.77-1.48-.05-.07-.08-.14-.08-.22,0-.14.06-.25.19-.34.09-.04.17-.06.25-.06.16,0,.29.07.39.21.1.16.19.33.28.5s.18.34.25.51c.02.04.04.05.06.05.02,0,.03-.02.03-.06v-1.53c0-.17.06-.32.18-.45.12-.13.27-.19.46-.19h3.54c.05,0,.08-.03.08-.08v-.35c0-.12.04-.22.12-.3.08-.08.18-.12.29-.12s.21.04.29.12c.08.08.12.18.12.3v.35c0,.05.03.08.08.08h3.95c.11,0,.21.04.29.11.08.07.12.17.12.28s-.04.21-.11.28c-.07.07-.17.11-.29.11h-8.24c-.05,0-.08.03-.08.08v4.46c0,.38-.02.8-.06,1.25-.04.45-.1.91-.19,1.37-.09.46-.19.9-.32,1.31-.13.41-.27.75-.45,1.04-.1.15-.23.22-.42.22-.08,0-.17-.02-.27-.07Zm2.3-.27c-.05.02-.1.03-.13.03-.09,0-.17-.04-.24-.11s-.11-.17-.11-.29c0-.18.09-.31.26-.38.41-.17.79-.38,1.14-.62.35-.24.65-.49.9-.75.1-.1.22-.16.35-.16.09,0,.16.02.22.05.12.07.18.17.18.3,0,.06-.03.13-.08.2-.32.4-.71.75-1.18,1.05-.47.3-.91.53-1.31.68Zm2.7.23c-.11,0-.21-.04-.28-.13-.07-.09-.11-.19-.11-.3,0-.1.05-.19.13-.27.08-.07.17-.1.29-.08.07,0,.13.01.19.01h.15c.18,0,.31-.02.38-.06.07-.04.11-.11.11-.21v-1.65c0-.05-.03-.08-.08-.08h-1.47c-.19,0-.36-.07-.49-.21-.14-.14-.21-.31-.21-.5v-1.77s0-.04-.03-.06c-.02-.01-.04-.01-.06,0-.16.1-.32.19-.49.27-.17.09-.36.17-.55.25-.05.02-.09.03-.12.03-.1,0-.18-.04-.25-.11s-.1-.17-.1-.28c0-.21.1-.35.3-.43.3-.13.61-.29.91-.48.04-.04.05-.07.01-.1-.09-.1-.18-.21-.28-.32-.1-.11-.21-.23-.33-.34-.07-.06-.1-.14-.1-.25,0-.12.05-.21.14-.27.09-.06.19-.09.31-.09.16,0,.3.06.4.18.18.22.33.43.46.64h0s.02.02.05.03c.02.01.04.01.06,0,.18-.15.35-.3.51-.47.16-.17.3-.34.44-.53.06-.06.05-.09-.04-.09h-2.15c-.1,0-.19-.04-.27-.11-.07-.07-.11-.16-.11-.27s.04-.19.11-.27c.07-.07.16-.11.27-.11h2.65c.05,0,.08-.02.09-.05.09-.18.16-.38.23-.61.06-.2.19-.3.38-.3.11,0,.2.04.27.12.07.08.1.17.1.26,0,.04,0,.08-.01.1-.02.06-.04.12-.06.19-.03.07-.05.13-.08.2-.03.06,0,.09.06.09h3.45c.11,0,.2.04.27.11.07.07.1.16.1.27,0,.11-.04.2-.11.27s-.16.1-.27.1h-1.9c-.08,0-.1.03-.05.09.12.17.26.33.42.49.16.16.32.33.48.5.04.03.08.04.1.01.12-.09.23-.18.33-.29.1-.1.18-.21.26-.33.08-.12.18-.18.31-.18.05,0,.1.01.13.04.13.06.2.16.2.3,0,.05-.01.1-.04.16-.08.14-.17.27-.26.4s-.2.25-.32.36c-.04.03-.04.06,0,.1.14.09.28.18.42.27.14.09.29.18.45.25.17.08.26.21.26.4,0,.1-.03.19-.1.25-.07.07-.15.1-.23.1-.03,0-.06,0-.12-.03-.37-.17-.76-.41-1.16-.7-.06-.04-.09-.04-.09.01,0,.03.01.06.01.1v1.89c0,.2-.07.37-.2.51s-.3.21-.5.21h-1.46c-.05,0-.08.03-.08.08v1.65c0,.41-.13.69-.38.85-.25.16-.67.22-1.26.19Zm-.53-4.76h3.55c.05,0,.08-.03.08-.08v-.47c0-.05-.03-.08-.08-.08h-3.55c-.05,0-.08.03-.08.08v.47c0,.05.03.08.08.08Zm0,1.29h3.55c.05,0,.08-.03.08-.08v-.44c0-.05-.03-.08-.08-.08h-3.55c-.05,0-.08.03-.08.08v.44c0,.05.03.08.08.08Zm.22-2.6h3.41s.06-.01.06-.03c0-.02,0-.04-.03-.06-.23-.22-.46-.46-.67-.71s-.41-.5-.58-.76c-.03-.03-.06-.05-.1-.05h-.86c-.05,0-.08.02-.09.05-.14.24-.31.49-.51.73-.2.25-.42.49-.68.73-.03.02-.03.04-.03.06,0,.02.03.03.06.03Zm5.4,5.82c-.34-.15-.71-.36-1.11-.64-.4-.28-.8-.61-1.18-.98-.07-.07-.1-.16-.1-.26,0-.13.05-.23.14-.3.08-.05.16-.08.25-.08.15,0,.27.06.38.17.24.24.54.48.89.72s.67.43.94.58c.18.1.27.24.27.44,0,.11-.04.2-.11.27-.07.07-.16.1-.25.1-.03,0-.07,0-.12-.03Z"/><path d="m56.76,64.93c-.92.57-1.72.86-2.39.86-.53,0-.94-.18-1.25-.54-.3-.36-.45-.88-.44-1.57v-6.03c0-.12.04-.22.13-.31.09-.09.19-.13.3-.13.12,0,.23.04.31.13.09.09.13.19.13.31v5.9c0,.89.3,1.34.91,1.34.46,0,1.09-.24,1.89-.71.54-.32,1.11-.73,1.72-1.22.61-.49,1.21-1.04,1.82-1.64.08-.08.17-.12.29-.12.13,0,.23.05.31.14.08.09.12.19.12.31,0,.14-.05.26-.16.35-.66.64-1.3,1.21-1.93,1.69-.63.49-1.21.9-1.75,1.24Z"/><path d="m65.85,61.82c-.11,0-.21-.04-.29-.12-.08-.08-.12-.18-.12-.29,0-.12.04-.22.12-.3.08-.08.18-.12.29-.12h8.11c.11,0,.21.04.29.12.08.08.12.18.12.3,0,.11-.04.21-.12.29-.08.08-.18.12-.3.12h-8.11Z"/><path d="m83.05,66.41c-.07.03-.13.05-.18.05-.16,0-.29-.08-.38-.25-.03-.05-.04-.11-.04-.17,0-.18.08-.31.23-.39.76-.42,1.33-.89,1.71-1.43.38-.54.63-1.15.77-1.83.13-.68.21-1.45.23-2.29,0-.08-.04-.12-.12-.12h-2.87c-.08,0-.12.04-.12.12,0,.61.01,1.14.03,1.59.02.45.08.87.19,1.26,0,.03.01.06.01.12,0,.19-.09.32-.26.38-.03,0-.05.01-.08.02-.03,0-.05,0-.08,0-.21,0-.34-.09-.39-.27-.11-.36-.19-.8-.22-1.35s-.06-1.12-.06-1.75c0-.08-.04-.12-.12-.12-.37,0-.73.01-1.07.02-.34,0-.65.01-.94.03-.12,0-.22-.03-.31-.12-.08-.09-.12-.19-.12-.3s.04-.21.12-.29c.08-.08.17-.12.27-.13.3,0,.63-.02.97-.02.34,0,.7,0,1.07,0,.08,0,.12-.04.12-.12,0-.13,0-.26,0-.39s0-.26,0-.39c0-.44-.01-.87-.04-1.29,0-.12.03-.22.12-.3.09-.08.19-.12.3-.12.12,0,.22.04.3.12.08.08.12.18.13.29.03.78.04,1.46.04,2.05,0,.08.04.12.12.12h1.46c.49,0,.96,0,1.42-.01.08,0,.12-.04.12-.12v-1.72c0-.2,0-.4.01-.61,0-.11.04-.21.13-.29.09-.08.19-.12.3-.12s.21.04.29.12c.08.08.12.18.12.29,0,.4-.02.79-.02,1.18,0,.39,0,.77,0,1.14,0,.08.06.12.17.12.79,0,1.43-.01,1.94-.04.12,0,.22.03.31.11s.12.18.12.31c0,.11-.04.21-.11.29-.07.08-.17.12-.28.13-.27,0-.58.02-.92.03-.35,0-.72.01-1.12.01-.08,0-.12.04-.12.12-.02.68-.07,1.32-.16,1.93-.09.61-.24,1.18-.46,1.71-.22.53-.53,1.02-.94,1.46-.41.45-.94.85-1.61,1.2Zm5.43-8.05s-.08.04-.13.04c-.08,0-.15-.04-.22-.12-.14-.22-.3-.45-.49-.69-.19-.24-.37-.45-.54-.61-.06-.06-.09-.12-.09-.19,0-.08.03-.13.08-.17.05-.06.12-.09.2-.09s.13.03.17.08c.2.19.4.41.59.66.19.25.37.49.53.73.03.03.04.08.04.13,0,.1-.04.18-.13.23Zm.99-.57s-.08.04-.13.04c-.1,0-.17-.04-.22-.12-.14-.22-.3-.44-.48-.68-.18-.23-.36-.43-.53-.6-.05-.05-.08-.11-.08-.18s.03-.12.08-.16c.06-.06.13-.09.19-.09.08,0,.13.03.17.08.2.19.39.41.57.64s.35.47.51.71c.03.04.04.08.04.13,0,.09-.04.17-.12.22Z"/><path d="m93.67,61.82c-.11,0-.21-.04-.29-.12-.08-.08-.12-.18-.12-.29,0-.12.04-.22.12-.3.08-.08.18-.12.29-.12h8.11c.11,0,.21.04.29.12.08.08.12.18.12.3,0,.11-.04.21-.12.29-.08.08-.18.12-.3.12h-8.11Z"/><path d="m108.39,60.62c-.27-.13-.57-.26-.9-.38-.33-.12-.66-.23-.99-.31-.09-.02-.16-.06-.22-.14-.06-.07-.09-.15-.09-.24,0-.14.05-.25.16-.33s.21-.11.33-.07c.3.08.63.17.99.29s.67.24.94.36c.2.09.3.24.3.46,0,.03,0,.05,0,.08s-.01.05-.02.08c-.04.17-.15.25-.33.25-.05,0-.1-.01-.16-.04Zm.19-3c-.26-.12-.55-.24-.88-.34-.32-.11-.65-.2-.98-.28-.11-.03-.2-.08-.25-.18-.06-.09-.08-.19-.06-.29.03-.12.1-.21.19-.27.09-.06.19-.07.31-.05.3.07.62.16.96.27.33.11.66.23.97.36.09.04.15.09.2.17.05.08.07.17.07.26,0,.03,0,.05,0,.08,0,.03-.01.05-.02.08-.06.16-.17.23-.34.23-.05,0-.1-.01-.16-.04Zm-1.87,9.31c-.13-.07-.2-.18-.2-.34,0-.07.02-.13.05-.2.35-.61.68-1.28.98-2.01.3-.74.54-1.48.72-2.22.04-.2.17-.3.38-.3.13,0,.23.04.31.12.08.08.12.18.12.29,0,.04,0,.08-.01.1-.08.32-.18.68-.31,1.07-.13.39-.27.8-.44,1.2-.16.41-.33.8-.51,1.17-.18.37-.35.7-.53.97-.08.13-.19.2-.34.2-.07,0-.15-.02-.23-.07Zm9.83-5.15c-.09,0-.16-.03-.23-.08-.07-.05-.11-.12-.13-.21-.09-.34-.19-.68-.31-1.01-.02-.04-.05-.06-.09-.04-.43.12-.96.23-1.57.34-.61.1-1.27.19-1.97.27-.7.08-1.4.13-2.09.17-.19,0-.34-.05-.46-.18s-.18-.28-.18-.46c0-.1.02-.21.07-.32.05-.11.12-.21.23-.29.68-.56,1.22-1.2,1.62-1.9.4-.7.7-1.38.89-2.04.06-.21.2-.31.4-.31.15,0,.26.05.33.16.07.11.1.22.07.34-.18.71-.49,1.43-.93,2.15-.44.72-.94,1.35-1.5,1.89-.03.03-.03.05-.03.07s.03.03.06.02c.55-.04,1.11-.1,1.7-.16.58-.06,1.14-.14,1.68-.23.53-.09.99-.18,1.36-.28.05-.02.07-.05.04-.1-.1-.23-.2-.46-.31-.66-.11-.21-.22-.4-.33-.58-.04-.05-.06-.13-.06-.22,0-.17.06-.29.19-.35.06-.03.13-.05.22-.05.19,0,.33.08.42.23.17.31.34.66.51,1.05s.33.77.47,1.16c.14.39.26.75.34,1.07,0,.03.01.07.01.12,0,.11-.04.21-.12.31s-.18.14-.31.14Zm-5.62,4.99c-.19,0-.36-.07-.49-.21s-.21-.3-.21-.49v-3.45c0-.2.07-.37.21-.5.14-.13.3-.2.49-.2h4.38c.2,0,.37.07.5.2.13.13.2.3.2.5v3.45c0,.19-.07.35-.2.49s-.3.21-.5.21h-4.38Zm.17-.78h4.03c.05,0,.08-.03.08-.08v-3.12c0-.05-.03-.08-.08-.08h-4.03c-.05,0-.08.03-.08.08v3.12c0,.05.03.08.08.08Z"/><path d="m120.54,66.93c-.13-.06-.2-.17-.2-.31,0-.08.03-.16.08-.23.28-.43.49-.94.64-1.51.15-.58.26-1.16.32-1.76,0-.03,0-.06-.02-.06s-.05,0-.07.01c-.11.1-.24.2-.38.29s-.28.18-.43.28c-.03,0-.05.02-.08.03-.03.01-.05.02-.08.02-.09,0-.17-.04-.23-.12-.07-.08-.1-.17-.1-.27,0-.24.11-.43.34-.56.42-.24.78-.56,1.08-.95.03-.03.04-.06.04-.09v-1.9c0-.07-.02-.09-.06-.07,0,0-.03.02-.06.04-.03.03-.08.04-.14.04-.15,0-.26-.08-.34-.25-.19-.52-.45-1.01-.77-1.48-.05-.07-.08-.14-.08-.22,0-.14.06-.25.19-.34.09-.04.17-.06.25-.06.16,0,.29.07.39.21.1.16.19.33.28.5s.18.34.25.51c.02.04.04.05.06.05.02,0,.03-.02.03-.06v-1.53c0-.17.06-.32.18-.45.12-.13.27-.19.46-.19h3.54c.05,0,.08-.03.08-.08v-.35c0-.12.04-.22.12-.3.08-.08.18-.12.29-.12s.21.04.29.12c.08.08.12.18.12.3v.35c0,.05.03.08.08.08h3.95c.11,0,.21.04.29.11.08.07.12.17.12.28s-.04.21-.11.28c-.07.07-.17.11-.29.11h-8.24c-.05,0-.08.03-.08.08v4.46c0,.38-.02.8-.06,1.25-.04.45-.1.91-.19,1.37-.09.46-.19.9-.32,1.31-.13.41-.27.75-.45,1.04-.1.15-.23.22-.42.22-.08,0-.17-.02-.27-.07Zm2.3-.27c-.05.02-.1.03-.13.03-.09,0-.17-.04-.24-.11s-.11-.17-.11-.29c0-.18.09-.31.26-.38.41-.17.79-.38,1.14-.62.35-.24.65-.49.9-.75.1-.1.22-.16.35-.16.09,0,.16.02.22.05.12.07.18.17.18.3,0,.06-.03.13-.08.2-.32.4-.71.75-1.18,1.05-.47.3-.91.53-1.31.68Zm2.7.23c-.11,0-.21-.04-.28-.13-.07-.09-.11-.19-.11-.3,0-.1.05-.19.13-.27.08-.07.17-.1.29-.08.07,0,.13.01.19.01h.15c.18,0,.31-.02.38-.06.07-.04.11-.11.11-.21v-1.65c0-.05-.03-.08-.08-.08h-1.47c-.19,0-.36-.07-.49-.21-.14-.14-.21-.31-.21-.5v-1.77s0-.04-.03-.06c-.02-.01-.04-.01-.06,0-.16.1-.32.19-.49.27-.17.09-.36.17-.55.25-.05.02-.09.03-.12.03-.1,0-.18-.04-.25-.11s-.1-.17-.1-.28c0-.21.1-.35.3-.43.3-.13.61-.29.91-.48.04-.04.05-.07.01-.1-.09-.1-.18-.21-.28-.32-.1-.11-.21-.23-.33-.34-.07-.06-.1-.14-.1-.25,0-.12.05-.21.14-.27.09-.06.19-.09.31-.09.16,0,.3.06.4.18.18.22.33.43.46.64h0s.02.02.05.03c.02.01.04.01.06,0,.18-.15.35-.3.51-.47.16-.17.3-.34.44-.53.06-.06.05-.09-.04-.09h-2.15c-.1,0-.19-.04-.27-.11-.07-.07-.11-.16-.11-.27s.04-.19.11-.27c.07-.07.16-.11.27-.11h2.65c.05,0,.08-.02.09-.05.09-.18.16-.38.23-.61.06-.2.19-.3.38-.3.11,0,.2.04.27.12.07.08.1.17.1.26,0,.04,0,.08-.01.1-.02.06-.04.12-.06.19-.03.07-.05.13-.08.2-.03.06,0,.09.06.09h3.45c.11,0,.2.04.27.11.07.07.1.16.1.27,0,.11-.04.2-.11.27s-.16.1-.27.1h-1.9c-.08,0-.1.03-.05.09.12.17.26.33.42.49.16.16.32.33.48.5.04.03.08.04.1.01.12-.09.23-.18.33-.29.1-.1.18-.21.26-.33.08-.12.18-.18.31-.18.05,0,.1.01.13.04.13.06.2.16.2.3,0,.05-.01.1-.04.16-.08.14-.17.27-.26.4s-.2.25-.32.36c-.04.03-.04.06,0,.1.14.09.28.18.42.27.14.09.29.18.45.25.17.08.26.21.26.4,0,.1-.03.19-.1.25-.07.07-.15.1-.23.1-.03,0-.06,0-.12-.03-.37-.17-.76-.41-1.16-.7-.06-.04-.09-.04-.09.01,0,.03.01.06.01.1v1.89c0,.2-.07.37-.2.51s-.3.21-.5.21h-1.46c-.05,0-.08.03-.08.08v1.65c0,.41-.13.69-.38.85-.25.16-.67.22-1.26.19Zm-.53-4.76h3.55c.05,0,.08-.03.08-.08v-.47c0-.05-.03-.08-.08-.08h-3.55c-.05,0-.08.03-.08.08v.47c0,.05.03.08.08.08Zm0,1.29h3.55c.05,0,.08-.03.08-.08v-.44c0-.05-.03-.08-.08-.08h-3.55c-.05,0-.08.03-.08.08v.44c0,.05.03.08.08.08Zm.22-2.6h3.41s.06-.01.06-.03c0-.02,0-.04-.03-.06-.23-.22-.46-.46-.67-.71s-.41-.5-.58-.76c-.03-.03-.06-.05-.1-.05h-.86c-.05,0-.08.02-.09.05-.14.24-.31.49-.51.73-.2.25-.42.49-.68.73-.03.02-.03.04-.03.06,0,.02.03.03.06.03Zm5.4,5.82c-.34-.15-.71-.36-1.11-.64-.4-.28-.8-.61-1.18-.98-.07-.07-.1-.16-.1-.26,0-.13.05-.23.14-.3.08-.05.16-.08.25-.08.15,0,.27.06.38.17.24.24.54.48.89.72s.67.43.94.58c.18.1.27.24.27.44,0,.11-.04.2-.11.27-.07.07-.16.1-.25.1-.03,0-.07,0-.12-.03Z"/><path d="m143.61,65.02c-.72.2-1.41.36-2.07.47s-1.3.18-1.91.18c-.84,0-1.64-.13-2.39-.38-.75-.25-1.46-.68-2.14-1.27-.1-.08-.14-.19-.14-.33,0-.12.04-.22.12-.31.08-.1.19-.14.33-.14.11,0,.21.04.3.12.52.43,1.1.78,1.74,1.05.64.26,1.39.4,2.26.4.52,0,1.09-.05,1.71-.16s1.3-.28,2.05-.5c.03,0,.06-.01.1-.01.12,0,.22.04.3.12.08.08.12.18.12.3,0,.11-.03.21-.1.31-.06.09-.15.15-.27.17Zm-1.33-6.08c-.46.06-.94.11-1.43.14-.49.03-.99.05-1.48.05-.99,0-1.92-.07-2.81-.2-.1-.02-.19-.07-.25-.15s-.1-.17-.1-.27c0-.13.05-.24.14-.33.1-.09.21-.12.34-.1.32.04.7.08,1.15.12s.95.06,1.51.06c.42,0,.88-.01,1.36-.05.48-.03.99-.08,1.53-.14.12-.02.23.01.31.09s.13.18.13.3c0,.11-.04.21-.11.31s-.17.15-.29.16Zm1.59-.61s-.07.03-.1.03c-.11,0-.18-.05-.21-.16-.21-.55-.52-1.01-.94-1.38-.05-.05-.08-.11-.08-.18s.02-.12.05-.17c.06-.06.13-.09.21-.09.06,0,.11.02.16.06.23.22.42.45.6.7.17.25.33.53.46.84.02.05.03.09.03.12,0,.11-.06.19-.17.23Zm1.08-.48s-.05.01-.09.01c-.1,0-.18-.05-.22-.16-.22-.55-.54-1.03-.96-1.43-.04-.04-.06-.1-.06-.17s.02-.12.05-.16c.05-.05.12-.08.2-.08.04,0,.1.02.16.06.25.24.46.48.62.72.16.24.31.52.45.85,0,.02.02.04.02.05,0,.02,0,.04,0,.05,0,.1-.05.17-.16.23Z"/><path d="m148.35,58.65c-.11,0-.21-.04-.28-.11-.07-.07-.11-.17-.11-.28s.04-.21.11-.28c.07-.07.17-.11.28-.11h3.38c.11,0,.21.04.28.11.07.07.11.17.11.28,0,.1-.04.2-.11.27-.07.08-.17.12-.28.12h-3.38Zm.34-1.68c-.11,0-.21-.04-.28-.12s-.11-.17-.11-.27c0-.11.04-.21.12-.28.08-.07.17-.11.27-.11h2.69c.11,0,.21.04.28.11.07.07.11.17.11.28s-.04.21-.11.28c-.07.07-.17.11-.28.11h-2.69Zm.06,3.35c-.11,0-.21-.04-.29-.11-.08-.07-.12-.17-.12-.28s.04-.21.12-.29c.08-.08.17-.12.29-.12h2.57c.11,0,.21.04.28.12.07.08.11.17.11.29s-.04.21-.12.28c-.08.07-.17.11-.27.11h-2.57Zm0,1.68c-.11,0-.21-.04-.29-.12-.08-.08-.12-.17-.12-.27,0-.12.04-.22.12-.29.08-.07.17-.11.29-.11h2.57c.11,0,.21.04.28.12s.11.17.11.29c0,.1-.04.19-.11.27s-.17.12-.28.12h-2.57Zm.33,4.77c-.2,0-.37-.07-.5-.21s-.2-.3-.2-.49v-2.48c0-.2.07-.37.21-.5.14-.13.3-.2.49-.2h1.96c.2,0,.37.07.5.21s.2.3.2.49v2.48c0,.19-.07.35-.2.49s-.3.21-.5.21h-1.96Zm.13-.7h1.7c.05,0,.08-.03.08-.08v-2.31c0-.05-.03-.08-.08-.08h-1.7c-.05,0-.08.03-.08.08v2.31c0,.05.03.08.08.08Zm3.17.73s-.08.04-.13.04c-.09,0-.17-.04-.24-.11-.07-.07-.11-.16-.11-.27,0-.19.09-.33.26-.43.64-.36,1.14-.89,1.5-1.58.35-.69.57-1.52.65-2.49,0-.05-.03-.08-.08-.08h-.77c-.19,0-.36-.07-.49-.21-.14-.14-.21-.3-.21-.49v-2.34c0-.2.07-.37.21-.5.14-.13.3-.2.49-.2h2.05s.06-.01.09-.04c.54-.56.95-1.27,1.25-2.12.03-.09.07-.15.14-.2s.14-.07.22-.07c.12,0,.22.04.29.12.07.08.1.16.1.26,0,.05,0,.09-.01.12-.09.31-.21.63-.38.95-.17.32-.35.62-.55.9-.04.06-.03.09.05.09h.81c.2,0,.37.07.5.2.13.13.2.3.2.5v2.34c0,.19-.07.36-.21.49s-.3.21-.49.21h-.95c-.05,0-.08.03-.08.08v3.55c0,.24.08.4.23.46.15.06.34.1.55.1.2,0,.37-.03.52-.1.15-.07.29-.18.43-.33.08-.08.17-.12.27-.12.1,0,.17.03.23.09.09.09.13.19.13.31s-.04.22-.12.3c-.2.22-.41.37-.63.45-.22.08-.51.12-.86.12-1.02,0-1.53-.39-1.53-1.17v-3.67c0-.05-.03-.08-.08-.08h-.47c-.05,0-.08.03-.08.08-.09,1.16-.36,2.16-.83,3-.46.84-1.09,1.45-1.89,1.83Zm2.15-9.06c-.17,0-.29-.07-.36-.22-.21-.37-.45-.73-.71-1.07-.06-.06-.09-.14-.09-.23,0-.13.05-.23.16-.31.08-.05.16-.08.25-.08.16,0,.27.06.35.17.12.17.25.37.39.59.14.22.26.44.36.64.03.05.04.1.04.16,0,.09-.04.17-.1.24-.07.07-.16.11-.27.11Zm-.88,3.38h3.69c.05,0,.08-.03.08-.08v-2.05c0-.05-.03-.08-.08-.08h-3.69c-.05,0-.08.03-.08.08v2.05c0,.05.03.08.08.08Z"/><path d="m162.89,64.22c-.19,0-.36-.07-.49-.21s-.21-.3-.21-.49v-6.08c0-.2.07-.37.21-.5s.3-.2.49-.2h2.55c.2,0,.37.07.5.21s.2.3.2.49v6.08c0,.19-.07.36-.2.49s-.3.21-.5.21h-2.55Zm.18-4.41h2.21c.05,0,.08-.03.08-.08v-2.13c0-.05-.03-.08-.08-.08h-2.21c-.05,0-.08.03-.08.08v2.13c0,.05.03.08.08.08Zm0,3.63h2.21c.05,0,.08-.03.08-.08v-2.69c0-.05-.03-.08-.08-.08h-2.21c-.05,0-.08.03-.08.08v2.69c0,.05.03.08.08.08Zm7.15,3.46c-.11,0-.21-.05-.29-.13-.08-.08-.12-.17-.12-.29,0-.12.04-.22.12-.31.08-.08.18-.12.29-.12.43,0,.71-.02.83-.08.12-.06.18-.21.18-.46v-2.96c0-.05-.03-.08-.08-.08h-3s-.07.03-.09.08c-.06.6-.17,1.15-.33,1.64-.16.5-.4.96-.71,1.38s-.73.83-1.25,1.21c-.06.05-.14.08-.23.08-.17,0-.3-.07-.38-.22-.04-.09-.06-.17-.06-.25,0-.18.07-.33.22-.43.49-.37.88-.76,1.16-1.16s.48-.85.6-1.35c.13-.49.2-1.07.23-1.72.03-.65.05-1.42.05-2.31v-2.72c0-.19.07-.36.21-.49.14-.14.3-.2.49-.19h3.28c.2-.01.37.06.5.19.13.14.2.3.2.49v8.8c0,.5-.14.86-.43,1.07-.29.21-.75.31-1.39.31Zm-2.02-5.23h2.95c.05,0,.08-.03.08-.08v-1.86c0-.05-.03-.08-.08-.08h-2.91c-.05,0-.08.03-.08.09,0,.33,0,.65,0,.96,0,.31-.02.6-.03.89,0,.05.03.08.08.08Zm.04-2.82h2.91c.05,0,.08-.03.08-.08v-1.87c0-.05-.03-.08-.08-.08h-2.91c-.05,0-.08.03-.08.08v1.87c0,.05.03.08.08.08Z"/><path d="m181.18,62.29c-.29,0-.53-.1-.72-.3-.19-.2-.29-.44-.29-.72s.1-.51.29-.71c.2-.2.44-.3.72-.3s.52.1.71.29c.2.19.3.44.3.72s-.1.53-.3.72c-.2.2-.44.29-.71.29Z"/><path d="m190.75,66.89c-.11,0-.21-.04-.29-.12-.08-.08-.12-.18-.12-.29v-9.58c0-.2.07-.37.21-.5.14-.13.3-.2.49-.2h8.11c.2,0,.37.07.5.2.13.13.2.3.2.5v8.71c0,.83-.56,1.25-1.69,1.26-.11,0-.21-.04-.31-.13-.09-.09-.14-.19-.14-.31s.04-.22.13-.3c.09-.08.19-.12.3-.12.35,0,.58-.01.7-.07.12-.05.18-.16.18-.34v-8.53c0-.05-.03-.08-.08-.08h-7.72c-.05,0-.08.03-.08.08v9.4c0,.11-.04.21-.12.29-.08.08-.17.12-.29.12Zm1.92-7.51c-.11,0-.21-.04-.29-.12s-.12-.17-.12-.29.04-.21.12-.29.17-.12.29-.12h4.84c.11,0,.21.04.29.12s.12.17.12.29-.04.21-.12.29-.17.12-.29.12h-4.84Zm.99,5.47c-.19,0-.36-.07-.49-.21-.14-.14-.21-.3-.21-.49v-2.74c0-.19.07-.36.21-.49.14-.14.3-.21.49-.21h2.86c.2,0,.37.07.5.21.13.14.2.3.2.49v2.74c0,.19-.07.36-.2.49-.13.14-.3.21-.5.21h-2.86Zm.18-.81h2.5c.05,0,.08-.03.08-.08v-2.39c0-.05-.03-.08-.08-.08h-2.5c-.05,0-.08.03-.08.08v2.39c0,.05.03.08.08.08Z"/><path d="m204,66.68s-.05.02-.08.03c-.03.01-.05.02-.08.02-.15,0-.25-.07-.31-.22,0-.03-.02-.05-.02-.08,0-.03,0-.06,0-.08,0-.17.07-.31.21-.4.3-.2.57-.41.81-.64.24-.23.45-.47.63-.71.09-.13.2-.2.35-.2.06,0,.12.02.18.05.13.09.19.19.19.32,0,.07-.02.13-.06.2-.49.7-1.09,1.27-1.82,1.72Zm-.04-7.24c-.1,0-.19-.03-.26-.1s-.1-.15-.1-.25.03-.18.1-.25.16-.1.26-.1h3.25c.09,0,.1-.02.04-.07-.04-.03-.08-.06-.1-.1-.04-.07-.09-.14-.14-.2-.05-.06-.1-.13-.15-.19-.06-.09-.09-.18-.09-.26,0-.12.05-.22.14-.3.07-.06.16-.09.29-.09.16,0,.28.05.36.16.06.07.12.14.17.21.05.07.1.15.13.23.03.06.05.13.05.21,0,.16-.05.27-.16.35,0,0-.02.02-.03.02-.01,0-.02.01-.03.02h.23s1.57.01,1.57.01c.03,0,.06-.01.09-.04.12-.15.25-.3.38-.47.13-.16.25-.33.36-.49.1-.14.23-.21.39-.21.14,0,.25.04.32.13.07.09.11.19.11.3,0,.08-.02.15-.05.21-.05.08-.11.16-.16.24-.06.08-.12.16-.18.24-.04.06-.03.09.04.09h3.25c.1,0,.18.03.25.1.07.07.1.15.1.25,0,.1-.03.18-.1.25s-.15.1-.25.1h-10.09Zm.92-2.05c-.1,0-.18-.03-.25-.1s-.1-.16-.1-.26c0-.09.03-.18.1-.25.07-.07.15-.1.25-.1h3.64c.05,0,.08-.03.08-.08v-.44c0-.11.04-.21.12-.28.08-.07.17-.11.29-.11.12,0,.22.04.29.11.07.07.11.17.11.28v.44c0,.05.03.08.08.08h3.64c.1,0,.18.04.25.1.07.07.1.15.1.25s-.03.18-.1.25c-.07.07-.15.11-.25.11h-8.24Zm1.18,6.4c-.19,0-.36-.07-.49-.21s-.21-.3-.21-.49v-2.28c0-.2.07-.37.21-.5.14-.13.3-.2.49-.2h5.88c.2,0,.37.07.5.2.13.13.2.3.2.5v2.28c0,.19-.07.36-.2.49s-.3.21-.5.21h-5.88Zm.19-2.2h5.49c.05,0,.08-.03.08-.08v-.61c0-.05-.03-.08-.08-.08h-5.49c-.05,0-.08.03-.08.08v.61c0,.05.03.08.08.08Zm0,1.47h5.49c.05,0,.08-.03.08-.08v-.61c0-.05-.03-.08-.08-.08h-5.49c-.05,0-.08.03-.08.08v.61c0,.05.03.08.08.08Zm2.44,3.76c-.53,0-.94-.04-1.25-.14-.3-.09-.52-.25-.64-.47-.13-.23-.19-.53-.19-.91v-.82c0-.11.04-.21.12-.28.08-.07.17-.11.27-.11s.19.04.27.11c.08.07.12.17.12.28v.82c0,.24.05.42.14.54s.29.19.57.22c.29.03.71.04,1.27.04.41,0,.74,0,1-.03.26-.02.48-.06.67-.13.19-.07.37-.19.57-.35.09-.07.18-.1.27-.1.11,0,.21.04.29.12.07.09.1.18.1.27,0,.1-.04.19-.12.26-.53.45-1.12.68-1.77.68h-1.7Zm1.55-1.27c-.25-.14-.52-.27-.81-.4s-.57-.24-.84-.34c-.17-.05-.25-.16-.25-.34,0-.11.04-.2.11-.27s.15-.1.24-.1c.03,0,.08,0,.13.03.3.1.6.21.9.34.29.13.57.26.82.39.15.07.22.18.22.34,0,.04,0,.07-.01.1s-.02.06-.04.1c-.03.06-.07.11-.12.14-.06.04-.11.05-.18.05s-.12-.01-.17-.04Zm3.68.68c-.25-.21-.54-.41-.86-.6s-.65-.38-1-.54c-.15-.07-.22-.18-.22-.34,0-.11.04-.2.12-.27.08-.07.17-.1.27-.1.03,0,.08,0,.13.03.29.13.6.29.94.48.34.19.67.39.99.61.14.09.21.22.21.39,0,.08-.02.16-.07.25-.07.11-.17.17-.3.17-.08,0-.15-.03-.22-.08Z"/><path d="m217.87,62.86c-.1,0-.19-.04-.26-.1s-.1-.16-.1-.26.03-.19.1-.26.16-.1.26-.1h4.56c.05,0,.08-.03.08-.08v-.52c0-.05-.03-.08-.08-.08h-3.55c-.09,0-.17-.04-.23-.1s-.1-.15-.1-.25.03-.17.1-.24c.07-.06.15-.1.23-.1h3.55c.05,0,.08-.03.08-.08v-.52c0-.05-.03-.08-.08-.08h-3.15c-.1,0-.18-.03-.25-.1-.07-.07-.11-.16-.11-.26,0-.09.03-.18.1-.25.07-.07.16-.1.26-.1h3.15c.05,0,.08-.03.08-.08v-.52c0-.05-.03-.08-.08-.08h-4.5c-.1,0-.19-.04-.26-.1-.07-.07-.1-.16-.1-.26s.03-.19.1-.26c.07-.07.16-.1.26-.1h4.5c.05,0,.08-.03.08-.08v-.53c0-.05-.03-.08-.08-.08h-3.15c-.1,0-.18-.04-.25-.1-.07-.07-.11-.15-.11-.25,0-.1.05-.19.12-.25.07-.07.15-.1.25-.1h3.15c.05,0,.08-.03.08-.08v-.31c0-.12.04-.22.12-.29.08-.07.17-.11.29-.11s.21.04.29.11c.08.07.12.17.12.29v.31c0,.05.03.08.08.08h2.61c.2,0,.37.07.5.2.13.13.2.3.2.5v.61c0,.05.03.08.08.08h1.1c.1,0,.19.04.26.1s.1.16.1.26c0,.1-.03.18-.1.25-.07.07-.16.11-.26.11h-1.1c-.05,0-.08.03-.08.08v.61c0,.19-.07.36-.2.49-.13.14-.3.21-.5.21h-2.61c-.05,0-.08.03-.08.08v.52c0,.05.03.08.08.08h3.55c.1,0,.18.03.24.1.06.07.1.15.1.24s-.03.18-.1.25-.15.1-.24.1h-3.55c-.05,0-.08.03-.08.08v.52c0,.05.03.08.08.08h4.56c.1,0,.19.04.26.1.07.07.1.16.1.26,0,.1-.04.18-.1.25-.07.07-.16.11-.26.11h-10.09Zm2,3.9c-.19,0-.36-.07-.49-.21s-.21-.3-.21-.49v-1.91c0-.2.07-.37.21-.5s.3-.2.49-.2h6.08c.2,0,.37.07.5.21s.2.3.2.49v1.91c0,.19-.07.36-.2.49s-.3.21-.5.21h-6.08Zm.17-1.98h5.75c.05,0,.08-.03.08-.08v-.52c0-.05-.03-.08-.08-.08h-5.75c-.05,0-.08.03-.08.08v.52c0,.05.03.08.08.08Zm0,1.33h5.75c.05,0,.08-.03.08-.08v-.53c0-.05-.03-.08-.08-.08h-5.75c-.05,0-.08.03-.08.08v.53c0,.05.03.08.08.08Zm3.35-8.14h2.46c.05,0,.08-.03.08-.08v-.53c0-.05-.03-.08-.08-.08h-2.46c-.05,0-.08.03-.08.08v.53c0,.05.03.08.08.08Zm0,1.4h2.46c.05,0,.08-.03.08-.08v-.52c0-.05-.03-.08-.08-.08h-2.46c-.05,0-.08.03-.08.08v.52c0,.05.03.08.08.08Z"/></g><g><line class="cls-4" x1="125.59" y1="97.8" x2="125.59" y2="112.82"/><path class="cls-2" d="m120.37,105.39c.25-.16.59-.09.75.17l4.47,7.02,4.47-7.02c.16-.25.5-.33.75-.17.25.16.33.5.17.75l-4.93,7.74c-.1.16-.27.25-.46.25s-.36-.1-.46-.25l-4.93-7.74c-.06-.09-.08-.19-.08-.29,0-.18.09-.36.25-.46Z"/></g><polygon class="cls-3" points="42.79 .75 .75 48.8 .75 .75 42.79 .75"/></g></g></svg>