<?xml version="1.0" encoding="UTF-8"?><svg id="_レイヤー_2" xmlns="http://www.w3.org/2000/svg" width="252" height="133.0493" viewBox="0 0 252 133.0493"><g id="_レイヤー_1-2"><g><g><rect x=".3748" y=".375" width="251.25" height="132.2998" fill="#fff"/><path d="m251.25.75v131.5493H.75V.75h250.5m.75-.75H0v133.0493h252V0h0Z" fill="#333"/></g><g><path d="m23.95,66.6299c-.1733,0-.3228-.0605-.4482-.1816-.126-.1221-.1885-.2734-.1885-.4551v-9.2178c0-.1729.0605-.3223.1816-.4482.1216-.125.2729-.1885.4551-.1885h9.1392c.1211,0,.2188.0391.2925.1172s.1104.1777.1104.2988c0,.1133-.0391.208-.1167.2861-.0781.0781-.1738.1172-.2861.1172h-8.8398c-.0522,0-.0781.0254-.0781.0781v8.6963c0,.0527.0259.0781.0781.0781h8.9307c.1216,0,.2212.0391.2993.1172.0776.0781.1167.1738.1167.2861s-.0391.21-.1167.293c-.0781.082-.1777.123-.2993.123h-9.23Zm1.1831-1.4434c-.1128.0352-.2231.0117-.3315-.0713-.1084-.082-.1626-.1924-.1626-.3311,0-.1992.0996-.3291.2993-.3906.416-.1211.8511-.292,1.3062-.5137.4551-.2207.8691-.4824,1.2417-.7861.3726-.3027.6499-.6279.832-.9746.0171-.0264.0195-.0479.0063-.0654-.0127-.0176-.0322-.0254-.0586-.0254h-3.042c-.1128,0-.2056-.0391-.2793-.1172s-.1104-.1689-.1104-.2734c0-.1123.0366-.2061.1104-.2793s.1665-.1104.2793-.1104h3.2241c.0522,0,.0781-.0264.0781-.0781v-1.6904c0-.0518-.0259-.0771-.0781-.0771h-1.6509c-.0435,0-.0781.0166-.104.0518-.1733.2256-.3574.4395-.5527.6436-.1948.2031-.3921.3789-.5913.5264-.0605.043-.126.0645-.1948.0645-.1304,0-.23-.0557-.2993-.1689-.0347-.0693-.0518-.1426-.0518-.2207,0-.1387.0518-.2598.1558-.3643.7627-.6582,1.3345-1.46,1.7163-2.4043.0776-.1914.2163-.2861.416-.2861.1211,0,.2188.0391.2925.1172.0732.0771.1104.1641.1104.2598,0,.0693-.0088.1172-.0259.1426-.0522.1299-.1084.2578-.1689.3838-.061.126-.126.2529-.1953.3838-.0259.0605-.0088.0908.0522.0908h4.4067c.1128,0,.2061.0371.2798.1104.0732.0732.1104.167.1104.2793,0,.1133-.0371.2061-.1104.2793-.0737.0742-.167.1113-.2798.1113h-2.3657c-.0522,0-.0781.0254-.0781.0771v1.6904c0,.0518.0259.0781.0781.0781h3.1851c.1123,0,.2056.0371.2793.1104s.1104.167.1104.2793c0,.1133-.0366.2061-.1104.2793-.0737.0742-.167.1113-.2793.1113h-2.873c-.0781,0-.0957.0303-.0522.0908.3032.4502.73.8857,1.2808,1.3066.5503.4199,1.2109.7344,1.9824.9424.0952.0254.1733.0781.2339.1553.0605.0781.0908.165.0908.2607,0,.1299-.0474.2334-.1431.3115-.0952.0781-.2036.1045-.3247.0781-.5547-.1387-1.0703-.3418-1.5469-.6113-.4771-.2686-.8994-.5713-1.2676-.9092-.3687-.3389-.6782-.6719-.9297-1.001-.0259-.0527-.0605-.0479-.104.0127-.2427.3984-.5762.7695-1.001,1.1113-.4248.3428-.8818.6328-1.3716.8711s-.9639.418-1.4233.5391Z"/><path d="m37.0804,66.9287c-.1299-.0605-.1953-.165-.1953-.3115,0-.0781.0264-.1562.0781-.2344.2773-.4336.4917-.9375.6436-1.5146.1514-.5762.2578-1.1631.3184-1.7617.0088-.0342.002-.0557-.0195-.0645s-.0454-.0039-.0713.0127c-.1128.1045-.2383.2021-.377.293s-.2817.1836-.4292.2793c-.0259.0088-.0518.0195-.0776.0322-.0264.0137-.0522.0195-.0781.0195-.0869,0-.165-.0391-.2339-.1172-.0698-.0781-.104-.1689-.104-.2725,0-.2432.1123-.4287.3379-.5596.4243-.2422.7842-.5586,1.0791-.9482.0259-.0264.0386-.0566.0386-.0918v-1.8975c0-.0693-.0215-.0908-.0649-.0654-.0088.0088-.0303.0225-.0649.0391-.0347.0264-.0825.0391-.1431.0391-.1475,0-.2598-.082-.3379-.2471-.1909-.5195-.4463-1.0137-.7671-1.4814-.0518-.0693-.0776-.1436-.0776-.2217,0-.1377.0649-.251.1948-.3379.0864-.043.1689-.0645.2471-.0645.1646,0,.2944.0693.3896.208.0957.1641.189.3311.2798.5s.1753.3408.2534.5137c.0171.0352.0366.0498.0586.0459.0215-.0049.0322-.0244.0322-.0586v-1.5342c0-.1738.0605-.3232.1821-.4482.1216-.126.2729-.1885.4551-.1885h3.5361c.0518,0,.0776-.0264.0776-.0781v-.3516c0-.1211.0415-.2207.1235-.2988.0825-.0781.1802-.1172.2925-.1172.1128,0,.2104.0391.2925.1172.0825.0781.1235.1777.1235.2988v.3516c0,.0518.0264.0781.0781.0781h3.9521c.1123,0,.208.0361.2861.1104.0776.0732.1167.167.1167.2793s-.0371.2061-.1104.2793c-.0737.0742-.1714.1104-.2925.1104h-8.2422c-.0518,0-.0776.0264-.0776.0781v4.459c0,.3818-.0195.7979-.0586,1.248-.0391.4512-.1021.9082-.1885,1.3721-.0869.4629-.1934.8984-.3188,1.3057-.1255.4082-.2749.7549-.4482,1.04-.0957.1475-.2339.2217-.416.2217-.0781,0-.1689-.0225-.2729-.0654Zm2.3008-.2725c-.0518.0166-.0952.0254-.1299.0254-.0869,0-.167-.0371-.2407-.1104s-.1104-.1709-.1104-.292c0-.1826.0864-.3076.2603-.377.4072-.1738.7886-.3799,1.144-.6182.355-.2383.6538-.4873.897-.7471.104-.1045.2207-.1562.3506-.1562.0869,0,.1606.0176.2212.0518.1211.0693.1821.1689.1821.2988,0,.0615-.0259.126-.0781.1953-.3208.3984-.7148.75-1.1831,1.0527-.4678.3037-.9058.5293-1.313.6768Zm2.7041.2334c-.1128,0-.2061-.043-.2793-.1299-.0737-.0869-.1108-.1865-.1108-.2988.0088-.1045.0522-.1934.1304-.2666.0776-.0732.1729-.1016.2856-.084.0693.0078.1323.0127.1885.0127h.1494c.1821,0,.3101-.0195.3838-.0586.0732-.0391.1104-.1104.1104-.2148v-1.6504c0-.0527-.0259-.0781-.0781-.0781h-1.4688c-.1909,0-.3555-.0713-.4941-.2148-.1387-.1426-.208-.3096-.208-.5v-1.7686c0-.0254-.0088-.0449-.0259-.0586-.0176-.0127-.0391-.0107-.0649.0068-.1562.0957-.3208.1865-.4941.2725-.1733.0869-.3555.1699-.5459.2471-.0522.0176-.0908.0264-.1172.0264-.0952,0-.1777-.0371-.2471-.1104s-.104-.167-.104-.2793c0-.208.0996-.3516.2993-.4297.3032-.1299.6064-.29.9102-.4805.043-.0352.0474-.0693.0127-.1045-.0864-.1035-.1797-.2119-.2793-.3242-.1001-.1133-.2104-.2256-.3315-.3389-.0693-.0605-.104-.1426-.104-.2471,0-.1211.0474-.2119.1431-.2725.0864-.0605.1904-.0908.312-.0908.1646,0,.2988.0605.4028.1816.1821.2168.3335.4287.4551.6367v.0137c.0083,0,.0239.0059.0454.0195.0215.0127.041.0107.0586-.0068.1821-.1475.3511-.3037.5068-.4678.1562-.165.3032-.3428.4419-.5332.0605-.0605.0479-.0908-.0386-.0908h-2.145c-.104,0-.1934-.0371-.2666-.1104-.0737-.0742-.1108-.1631-.1108-.2666,0-.1045.0371-.1934.1108-.2666.0732-.0732.1626-.1104.2666-.1104h2.6519c.0518,0,.082-.0176.0908-.0527.0864-.1816.1646-.3848.2339-.6104.0605-.1992.1865-.2988.3774-.2988.1123,0,.2031.0391.2729.1162.0693.0781.104.165.104.2607,0,.043-.0049.0781-.0132.1035-.0176.0605-.0391.124-.0649.1885-.0259.0654-.0522.1328-.0781.2021-.0259.0605-.0044.0908.0649.0908h3.4453c.1123,0,.2031.0371.2729.1104.0693.0732.104.1621.104.2666,0,.1123-.0371.2031-.1108.2725s-.1621.1045-.2661.1045h-1.8979c-.0781,0-.0957.0303-.0522.0908.1211.165.2603.3271.416.4873.1558.1611.3164.3271.481.501.0435.0342.0781.0391.104.0127.1211-.0869.2295-.1816.3252-.2861.0952-.1035.1816-.2119.2598-.3252.0781-.1211.1821-.1816.312-.1816.0522,0,.0952.0127.1299.0391.1304.0605.1953.1602.1953.2988,0,.0518-.0132.1045-.0391.1562-.0781.1387-.165.2705-.2603.3965s-.2036.2451-.3247.3574c-.0435.0264-.0435.0605,0,.1035.1382.0869.2793.1758.4224.2666.1431.0918.2925.1758.4487.2539.1729.0781.2598.2129.2598.4033,0,.1035-.0347.1885-.104.2529-.0693.0654-.1475.0977-.2339.0977-.0259,0-.0649-.0088-.1172-.0264-.3726-.1729-.7583-.4072-1.1567-.7012-.061-.0439-.0913-.0391-.0913.0127.0088.0254.0132.0605.0132.1035v1.8857c0,.1992-.0674.3682-.2017.5068s-.3013.208-.5005.208h-1.4561c-.0518,0-.0776.0254-.0776.0781v1.6504c0,.4072-.126.6914-.377.8516-.2515.1602-.6719.2236-1.2612.1885Zm-.5332-4.7578h3.5493c.0518,0,.0781-.0264.0781-.0781v-.4678c0-.0518-.0264-.0781-.0781-.0781h-3.5493c-.0518,0-.0776.0264-.0776.0781v.4678c0,.0518.0259.0781.0776.0781Zm0,1.2871h3.5493c.0518,0,.0781-.0264.0781-.0781v-.4424c0-.0518-.0264-.0771-.0781-.0771h-3.5493c-.0518,0-.0776.0254-.0776.0771v.4424c0,.0518.0259.0781.0776.0781Zm.2212-2.5996h3.4062c.0342,0,.0562-.0117.0649-.0332.0083-.0215,0-.041-.0264-.0586-.2339-.2246-.457-.4609-.6694-.708s-.4053-.501-.5786-.7607c-.0259-.0342-.0605-.0518-.104-.0518h-.8579c-.0518,0-.0825.0176-.0908.0518-.1387.2432-.3076.4873-.5068.7344-.1997.2471-.4248.4922-.6763.7344-.0259.0176-.0347.0371-.0259.0586.0083.0215.0303.0332.0649.0332Zm5.395,5.8232c-.3379-.1475-.7085-.3613-1.1113-.6436-.4033-.2812-.7954-.6084-1.1768-.9814-.0693-.0693-.104-.1553-.104-.2598,0-.1299.0479-.2295.1431-.2988.0781-.0518.1602-.0781.2471-.0781.147,0,.2729.0566.377.1689.2427.2432.5396.4834.8906.7217s.665.4307.9424.5781c.1821.0957.2729.2432.2729.4424,0,.1123-.0371.2031-.1104.2725-.0737.0693-.1582.1045-.2534.1045-.0264,0-.0654-.0088-.1172-.0264Z"/><path d="m56.762,64.9268c-.9189.5723-1.7163.8584-2.3921.8584-.5288,0-.9448-.1797-1.248-.54-.3032-.3594-.4507-.8818-.4419-1.5664v-6.0322c0-.1211.043-.2246.1299-.3115.0864-.0869.1865-.1299.2988-.1299.1216,0,.2256.043.312.1299.0869.0869.1304.1904.1304.3115v5.9023c0,.8926.3032,1.3389.9097,1.3389.4595,0,1.0879-.2383,1.8853-.7148.5371-.3203,1.1094-.7256,1.7158-1.2158.6064-.4893,1.2134-1.0371,1.8203-1.6445.0776-.0771.1729-.1162.2856-.1162.1304,0,.2344.0469.312.1426.0781.0869.1172.1904.1172.3115,0,.1396-.0522.2559-.1562.3516-.6587.6416-1.3022,1.2051-1.9302,1.6895-.6284.4863-1.2114.8975-1.7485,1.2354Z"/><path d="m65.8489,61.8203c-.1128,0-.21-.041-.2925-.124-.0825-.082-.1235-.1797-.1235-.292,0-.1221.041-.2217.1235-.2998.0825-.0771.1797-.1162.2925-.1162h8.1123c.1123,0,.21.0391.2925.1162.082.0781.1235.1777.1235.2998,0,.1123-.0391.21-.1172.292-.0781.083-.1777.124-.2988.124h-8.1123Z"/><path d="m83.0482,66.4092c-.0693.0342-.1299.0518-.1821.0518-.1646,0-.29-.083-.377-.2471-.0259-.0518-.0391-.1084-.0391-.1689,0-.1816.0781-.3125.2344-.3896.7622-.416,1.3325-.8926,1.7095-1.4307.377-.5371.6323-1.1484.7671-1.833.1343-.6846.21-1.4473.2275-2.2881,0-.0781-.0391-.1162-.1172-.1162h-2.873c-.0781,0-.1172.0381-.1172.1162,0,.6074.0107,1.1357.0327,1.5859.0215.4512.0845.8711.1885,1.2617.0083.0254.0132.0645.0132.1162,0,.1914-.0869.3174-.2603.3779-.0259.0078-.0518.0146-.0781.0195-.0259.0039-.0518.0059-.0776.0059-.208,0-.3384-.0908-.3901-.2725-.1128-.3555-.1865-.8037-.2212-1.3457s-.0562-1.125-.0649-1.749c0-.0781-.0391-.1162-.1167-.1162-.373.0078-.728.0146-1.0664.0195-.3379.0039-.6499.0146-.936.0322-.1211.0088-.2231-.0303-.3052-.1172-.0825-.0869-.1235-.1865-.1235-.2988s.0391-.208.1167-.2861c.0781-.0781.1694-.1211.2734-.1299.3032-.0088.626-.0156.9683-.0195.3423-.0049.6997-.0068,1.0728-.0068.0776,0,.1167-.0391.1167-.1172,0-.1299.002-.2598.0063-.3896s.0068-.2598.0068-.3896c0-.4424-.0132-.8711-.0391-1.2871-.0088-.1211.0303-.2217.1172-.2988.0864-.0781.186-.1172.2988-.1172.1211,0,.2212.041.2988.123.0781.083.1216.1807.1299.293.0264.7803.0391,1.4648.0391,2.0537,0,.0781.0391.1172.1172.1172h1.4624c.4897,0,.9644-.0039,1.4238-.0127.0776,0,.1167-.0391.1167-.1172v-1.7158c0-.1992.0044-.4033.0132-.6113,0-.1123.043-.21.1299-.293.0864-.082.186-.123.2988-.123s.208.041.2861.123c.0781.083.1172.1807.1172.293-.0088.3984-.0156.793-.0195,1.1826-.0044.3906-.0068.7715-.0068,1.1445,0,.0781.0566.1172.1694.1172.7881,0,1.4341-.0137,1.937-.0391.1211-.0088.2227.0283.3052.1104s.1235.1836.1235.3057c0,.1123-.0371.208-.1104.2852-.0737.0781-.167.1221-.2798.1309-.2686.0088-.5762.0176-.9229.0254-.3467.0088-.7192.0137-1.1182.0137-.0776,0-.1167.0381-.1167.1162-.0176.6768-.0693,1.3203-.1562,1.9307-.0864.6113-.2383,1.1816-.4551,1.71-.2163.5283-.5283,1.0156-.9355,1.4619-.4077.4473-.9448.8477-1.6123,1.2031Zm5.4341-8.0469c-.0347.0254-.0781.0381-.1299.0381-.0781,0-.1519-.0381-.2212-.1162-.1387-.2168-.3013-.4463-.4873-.6895-.1865-.2422-.3662-.4463-.5396-.6113-.061-.0605-.0908-.125-.0908-.1943,0-.0781.0259-.1348.0776-.1689.0522-.0605.1172-.0908.1953-.0908.0776,0,.1343.0254.1689.0771.1992.1914.3965.4121.5913.6631.1948.252.3706.4941.5264.7285.0264.0342.0391.0781.0391.1299,0,.1035-.0435.1816-.1299.2344Zm.9878-.5723c-.0347.0254-.0776.0391-.1299.0391-.0952,0-.1689-.0391-.2207-.1172-.1392-.2168-.2993-.4424-.481-.6758-.1821-.2344-.3599-.4336-.5332-.5986-.0522-.0518-.0781-.1123-.0781-.1816s.0259-.1211.0781-.1562c.0605-.0605.1255-.0908.1948-.0908.0781,0,.1343.0264.1689.0781.1992.1904.3901.4053.5723.6436s.3511.4746.5068.708c.0259.0352.0391.0781.0391.1309,0,.0947-.0391.1689-.1172.2207Z"/><path d="m93.6688,61.8203c-.1128,0-.21-.041-.2925-.124-.0825-.082-.1235-.1797-.1235-.292,0-.1221.041-.2217.1235-.2998.0825-.0771.1797-.1162.2925-.1162h8.1123c.1123,0,.21.0391.2925.1162.082.0781.1235.1777.1235.2998,0,.1123-.0391.21-.1172.292-.0781.083-.1777.124-.2988.124h-8.1123Z"/><path d="m108.3851,60.624c-.2686-.1299-.5679-.2559-.897-.377-.3296-.1211-.6587-.2256-.9878-.3125-.0869-.0166-.1606-.0625-.2212-.1357-.0605-.0742-.0908-.1543-.0908-.2412,0-.1387.0518-.249.1558-.3311s.2124-.1064.3252-.0713c.3032.0771.6323.1748.9878.292s.6675.2363.936.3574c.1992.0869.2988.2383.2988.4551,0,.0264-.002.0518-.0063.0781s-.0107.0518-.0195.0781c-.0435.165-.1519.2471-.3252.2471-.0518,0-.104-.0137-.1558-.0391Zm.1948-3.0029c-.2598-.1211-.5522-.2363-.8774-.3447-.3247-.1084-.6523-.2012-.9814-.2793-.1128-.0264-.1973-.085-.2534-.1758-.0566-.0908-.0762-.1885-.0586-.292.0347-.1221.0977-.2109.1885-.2666.0913-.0566.1929-.0723.3057-.0459.3032.0693.6216.1582.9556.2666.3335.1084.6562.2275.9683.3574.0864.0352.1538.0908.2017.1689.0474.0781.0713.165.0713.2598,0,.0264-.002.0527-.0063.0781-.0044.0264-.0107.0518-.0195.0781-.0605.1562-.1733.2344-.3379.2344-.0522,0-.104-.0137-.1562-.0391Zm-1.8716,9.3076c-.1304-.0693-.1953-.1816-.1953-.3379,0-.0693.0176-.1348.0522-.1953.355-.6064.6821-1.2783.9814-2.0146.2988-.7363.5396-1.4775.7212-2.2227.0435-.1992.1689-.2998.377-.2998.1304,0,.2344.042.312.124.0781.082.1172.1797.1172.292,0,.0439-.0044.0781-.0132.1045-.0776.3203-.1816.6777-.312,1.0723-.1299.3945-.2749.7959-.4351,1.2031-.1606.4072-.3296.7969-.5073,1.1699-.1777.3721-.353.6973-.5264.9746-.0781.1299-.1909.1953-.3379.1953-.0698,0-.1475-.0225-.2339-.0654Zm9.8276-5.1475c-.0864,0-.1646-.0264-.2339-.0781-.0693-.0527-.1128-.1211-.1299-.208-.0869-.3379-.1909-.6758-.312-1.0146-.0176-.043-.0479-.0557-.0913-.0391-.4331.1221-.9551.2344-1.5664.3389-.6108.1035-1.2676.1943-1.9692.2725-.7021.0781-1.3999.1348-2.0933.1689-.1904.0088-.3442-.0518-.4614-.1816s-.1753-.2812-.1753-.4551c0-.1045.0234-.21.0713-.3184.0474-.1084.1235-.2061.2275-.293.6758-.5635,1.2153-1.1953,1.6187-1.8975.4028-.7021.6997-1.3828.8901-2.041.0605-.208.1953-.3125.4033-.3125.147,0,.2578.0547.3315.1631.0732.1084.0972.2227.0713.3438-.1821.7109-.4917,1.4287-.9292,2.1523-.438.7236-.9385,1.3535-1.502,1.8906-.0259.0264-.0347.0508-.0259.0723s.0303.0283.0649.0195c.5464-.0439,1.1118-.0977,1.6968-.1631.585-.0645,1.144-.1426,1.6768-.2334.5332-.0918.9858-.1846,1.3584-.2803.0522-.0166.0654-.0518.0391-.1035-.0952-.2344-.1973-.4551-.3052-.6631-.1084-.208-.2192-.4033-.3315-.585-.0435-.0518-.0649-.126-.0649-.2207,0-.1738.0649-.291.1948-.3516.0605-.0342.1343-.0518.2212-.0518.1904,0,.3291.0781.416.2344.1729.3115.3442.6602.5132,1.0459s.3252.7734.4683,1.1641c.1431.3896.2578.7451.3442,1.0654.0088.0264.0132.0654.0132.1172,0,.1123-.0391.2148-.1172.3057s-.1821.1367-.312.1367Zm-5.6157,4.9912c-.1909,0-.3555-.0693-.4941-.208s-.208-.3027-.208-.4932v-3.4453c0-.1992.0693-.3662.208-.501.1387-.1338.3032-.2012.4941-.2012h4.3809c.1992,0,.3662.0674.5005.2012.1343.1348.2017.3018.2017.501v3.4453c0,.1904-.0674.3545-.2017.4932s-.3013.208-.5005.208h-4.3809Zm.1689-.7793h4.0298c.0522,0,.0781-.0264.0781-.0781v-3.1201c0-.0518-.0259-.0781-.0781-.0781h-4.0298c-.0522,0-.0781.0264-.0781.0781v3.1201c0,.0518.0259.0781.0781.0781Z"/><path d="m120.5403,66.9287c-.1299-.0605-.1953-.165-.1953-.3115,0-.0781.0264-.1562.0781-.2344.2773-.4336.4917-.9375.6436-1.5146.1514-.5762.2578-1.1631.3184-1.7617.0088-.0342.002-.0557-.0195-.0645s-.0454-.0039-.0713.0127c-.1128.1045-.2383.2021-.377.293s-.2817.1836-.4292.2793c-.0259.0088-.0518.0195-.0776.0322-.0264.0137-.0522.0195-.0781.0195-.0869,0-.165-.0391-.2339-.1172-.0698-.0781-.104-.1689-.104-.2725,0-.2432.1123-.4287.3379-.5596.4243-.2422.7842-.5586,1.0791-.9482.0259-.0264.0386-.0566.0386-.0918v-1.8975c0-.0693-.0215-.0908-.0649-.0654-.0088.0088-.0303.0225-.0649.0391-.0347.0264-.0825.0391-.1431.0391-.1475,0-.2598-.082-.3379-.2471-.1909-.5195-.4463-1.0137-.7671-1.4814-.0518-.0693-.0776-.1436-.0776-.2217,0-.1377.0649-.251.1948-.3379.0864-.043.1689-.0645.2471-.0645.1646,0,.2944.0693.3896.208.0957.1641.189.3311.2798.5s.1753.3408.2534.5137c.0171.0352.0366.0498.0586.0459.0215-.0049.0322-.0244.0322-.0586v-1.5342c0-.1738.0605-.3232.1821-.4482.1216-.126.2729-.1885.4551-.1885h3.5361c.0518,0,.0776-.0264.0776-.0781v-.3516c0-.1211.0415-.2207.1235-.2988.0825-.0781.1802-.1172.2925-.1172.1128,0,.2104.0391.2925.1172.0825.0781.1235.1777.1235.2988v.3516c0,.0518.0264.0781.0781.0781h3.9521c.1123,0,.208.0361.2861.1104.0776.0732.1167.167.1167.2793s-.0371.2061-.1104.2793c-.0737.0742-.1714.1104-.2925.1104h-8.2422c-.0518,0-.0776.0264-.0776.0781v4.459c0,.3818-.0195.7979-.0586,1.248-.0391.4512-.1021.9082-.1885,1.3721-.0869.4629-.1934.8984-.3188,1.3057-.1255.4082-.2749.7549-.4482,1.04-.0957.1475-.2339.2217-.416.2217-.0781,0-.1689-.0225-.2729-.0654Zm2.3008-.2725c-.0518.0166-.0952.0254-.1299.0254-.0869,0-.167-.0371-.2407-.1104s-.1104-.1709-.1104-.292c0-.1826.0864-.3076.2603-.377.4072-.1738.7886-.3799,1.144-.6182.355-.2383.6538-.4873.897-.7471.104-.1045.2207-.1562.3506-.1562.0869,0,.1606.0176.2212.0518.1211.0693.1821.1689.1821.2988,0,.0615-.0259.126-.0781.1953-.3208.3984-.7148.75-1.1831,1.0527-.4678.3037-.9058.5293-1.313.6768Zm2.7041.2334c-.1128,0-.2061-.043-.2793-.1299-.0737-.0869-.1108-.1865-.1108-.2988.0088-.1045.0522-.1934.1304-.2666.0776-.0732.1729-.1016.2856-.084.0693.0078.1323.0127.1885.0127h.1494c.1821,0,.3101-.0195.3838-.0586.0732-.0391.1104-.1104.1104-.2148v-1.6504c0-.0527-.0259-.0781-.0781-.0781h-1.4688c-.1909,0-.3555-.0713-.4941-.2148-.1387-.1426-.208-.3096-.208-.5v-1.7686c0-.0254-.0088-.0449-.0259-.0586-.0176-.0127-.0391-.0107-.0649.0068-.1562.0957-.3208.1865-.4941.2725-.1733.0869-.3555.1699-.5459.2471-.0522.0176-.0908.0264-.1172.0264-.0952,0-.1777-.0371-.2471-.1104s-.104-.167-.104-.2793c0-.208.0996-.3516.2993-.4297.3032-.1299.6064-.29.9102-.4805.043-.0352.0474-.0693.0127-.1045-.0864-.1035-.1797-.2119-.2793-.3242-.1001-.1133-.2104-.2256-.3315-.3389-.0693-.0605-.104-.1426-.104-.2471,0-.1211.0474-.2119.1431-.2725.0864-.0605.1904-.0908.312-.0908.1646,0,.2988.0605.4028.1816.1821.2168.3335.4287.4551.6367v.0137c.0083,0,.0239.0059.0454.0195.0215.0127.041.0107.0586-.0068.1821-.1475.3511-.3037.5068-.4678.1562-.165.3032-.3428.4419-.5332.0605-.0605.0479-.0908-.0386-.0908h-2.145c-.104,0-.1934-.0371-.2666-.1104-.0737-.0742-.1108-.1631-.1108-.2666,0-.1045.0371-.1934.1108-.2666.0732-.0732.1626-.1104.2666-.1104h2.6519c.0518,0,.082-.0176.0908-.0527.0864-.1816.1646-.3848.2339-.6104.0605-.1992.1865-.2988.3774-.2988.1123,0,.2031.0391.2729.1162.0693.0781.104.165.104.2607,0,.043-.0049.0781-.0132.1035-.0176.0605-.0391.124-.0649.1885-.0259.0654-.0522.1328-.0781.2021-.0259.0605-.0044.0908.0649.0908h3.4453c.1123,0,.2031.0371.2729.1104.0693.0732.104.1621.104.2666,0,.1123-.0371.2031-.1108.2725s-.1621.1045-.2661.1045h-1.8979c-.0781,0-.0957.0303-.0522.0908.1211.165.2603.3271.416.4873.1558.1611.3164.3271.481.501.0435.0342.0781.0391.104.0127.1211-.0869.2295-.1816.3252-.2861.0952-.1035.1816-.2119.2598-.3252.0781-.1211.1821-.1816.312-.1816.0522,0,.0952.0127.1299.0391.1304.0605.1953.1602.1953.2988,0,.0518-.0132.1045-.0391.1562-.0781.1387-.165.2705-.2603.3965s-.2036.2451-.3247.3574c-.0435.0264-.0435.0605,0,.1035.1382.0869.2793.1758.4224.2666.1431.0918.2925.1758.4487.2539.1729.0781.2598.2129.2598.4033,0,.1035-.0347.1885-.104.2529-.0693.0654-.1475.0977-.2339.0977-.0259,0-.0649-.0088-.1172-.0264-.3726-.1729-.7583-.4072-1.1567-.7012-.061-.0439-.0913-.0391-.0913.0127.0088.0254.0132.0605.0132.1035v1.8857c0,.1992-.0674.3682-.2017.5068s-.3013.208-.5005.208h-1.4561c-.0518,0-.0776.0254-.0776.0781v1.6504c0,.4072-.126.6914-.377.8516-.2515.1602-.6719.2236-1.2612.1885Zm-.5332-4.7578h3.5493c.0518,0,.0781-.0264.0781-.0781v-.4678c0-.0518-.0264-.0781-.0781-.0781h-3.5493c-.0518,0-.0776.0264-.0776.0781v.4678c0,.0518.0259.0781.0776.0781Zm0,1.2871h3.5493c.0518,0,.0781-.0264.0781-.0781v-.4424c0-.0518-.0264-.0771-.0781-.0771h-3.5493c-.0518,0-.0776.0254-.0776.0771v.4424c0,.0518.0259.0781.0776.0781Zm.2212-2.5996h3.4062c.0342,0,.0562-.0117.0649-.0332.0083-.0215,0-.041-.0264-.0586-.2339-.2246-.457-.4609-.6694-.708s-.4053-.501-.5786-.7607c-.0259-.0342-.0605-.0518-.104-.0518h-.8579c-.0518,0-.0825.0176-.0908.0518-.1387.2432-.3076.4873-.5068.7344-.1997.2471-.4248.4922-.6763.7344-.0259.0176-.0347.0371-.0259.0586.0083.0215.0303.0332.0649.0332Zm5.395,5.8232c-.3379-.1475-.7085-.3613-1.1113-.6436-.4033-.2812-.7954-.6084-1.1768-.9814-.0693-.0693-.104-.1553-.104-.2598,0-.1299.0479-.2295.1431-.2988.0781-.0518.1602-.0781.2471-.0781.147,0,.2729.0566.377.1689.2427.2432.5396.4834.8906.7217s.665.4307.9424.5781c.1821.0957.2729.2432.2729.4424,0,.1123-.0371.2031-.1104.2725-.0737.0693-.1582.1045-.2534.1045-.0264,0-.0654-.0088-.1172-.0264Z"/><path d="m143.6151,65.0176c-.7197.2002-1.4087.3574-2.0674.4746s-1.2954.1758-1.9106.1758c-.8408,0-1.6362-.1279-2.3857-.3838-.7495-.2549-1.4624-.6777-2.1382-1.2676-.0957-.0781-.1431-.1855-.1431-.3252,0-.1211.0391-.2246.1167-.3115.0781-.0957.1865-.1426.3252-.1426.1123,0,.2124.0381.2988.1162.52.4336,1.0986.7822,1.7358,1.0469.6367.2646,1.3887.3965,2.2554.3965.52,0,1.0898-.0537,1.7095-.1621s1.3018-.2754,2.0474-.501c.0259-.0088.0605-.0127.104-.0127.1216,0,.2212.0391.2993.1172.0776.0771.1167.1777.1167.2988,0,.1123-.0322.2139-.0977.3057-.0649.0908-.1538.1494-.2661.1748Zm-1.3262-6.084c-.4595.0605-.936.1064-1.4302.1367-.4937.0303-.9878.0459-1.4819.0459-.9878,0-1.9238-.0654-2.8081-.1953-.104-.0176-.1885-.0674-.2534-.1494s-.0972-.1709-.0972-.2666c0-.1299.0474-.2383.1426-.3252.0957-.0859.208-.1211.3384-.1035.3203.043.7041.084,1.1504.123s.9512.0586,1.5146.0586c.4243,0,.8774-.0146,1.3584-.0459.481-.0303.9897-.0752,1.5273-.1357.1216-.0176.2256.0127.312.0908s.1299.1777.1299.2988c0,.1123-.0366.2148-.1104.3057s-.1714.1455-.2925.1621Zm1.5859-.6104c-.0347.0176-.0693.0254-.104.0254-.1128,0-.1821-.0518-.208-.1562-.208-.5537-.52-1.0137-.936-1.3779-.0518-.0518-.0776-.1123-.0776-.1816s.0171-.125.0518-.1689c.0605-.0605.1299-.0908.208-.0908.0605,0,.1123.0215.1558.0645.2256.2168.4248.4492.5981.6963.1733.2461.3252.5264.4551.8379.0171.0518.0259.0908.0259.1172,0,.1123-.0562.1904-.1689.2344Zm1.0791-.4814c-.0176.0088-.0479.0127-.0908.0127-.104,0-.1777-.0518-.2212-.1553-.2168-.5547-.5376-1.0312-.9619-1.4307-.0435-.043-.0649-.0996-.0649-.1689s.0171-.1211.0518-.1553c.0522-.0527.1172-.0781.1953-.0781.043,0,.0952.0215.1558.0645.2515.2432.457.4834.6177.7217.1602.2383.3096.5225.4482.8516.0088.0176.0151.0352.0195.0518.0044.0176.0063.0352.0063.0518,0,.0957-.0518.1738-.1558.2344Z"/><path d="m148.347,58.6475c-.1128,0-.2061-.0361-.2793-.1104-.0737-.0732-.1108-.167-.1108-.2793s.0371-.2061.1108-.2793c.0732-.0732.1665-.1104.2793-.1104h3.3799c.1128,0,.2061.0371.2798.1104.0732.0732.1104.167.1104.2793,0,.1045-.0371.1953-.1104.2734-.0737.0771-.167.1162-.2798.1162h-3.3799Zm.3379-1.6768c-.1128,0-.2056-.0391-.2793-.1172s-.1104-.1689-.1104-.2725c0-.1123.0391-.2061.1167-.2793.0781-.0742.1689-.1113.2729-.1113h2.6914c.1123,0,.2056.0371.2793.1113.0737.0732.1104.167.1104.2793s-.0366.2061-.1104.2793c-.0737.0742-.167.1104-.2793.1104h-2.6914Zm.0649,3.3545c-.1123,0-.208-.0371-.2856-.1104-.0781-.0742-.1172-.167-.1172-.2803,0-.1123.0391-.208.1172-.2861.0776-.0771.1733-.1162.2856-.1162h2.5742c.1123,0,.2056.0391.2793.1162.0737.0781.1108.1738.1108.2861,0,.1133-.0391.2061-.1172.2803-.0781.0732-.1689.1104-.2729.1104h-2.5742Zm0,1.6768c-.1123,0-.208-.0391-.2856-.1172-.0781-.0781-.1172-.1689-.1172-.2725,0-.1221.0391-.2188.1172-.293.0776-.0732.1733-.1104.2856-.1104h2.5742c.1123,0,.2056.0391.2793.1172s.1108.1729.1108.2861c0,.1035-.0371.1943-.1108.2725s-.167.1172-.2793.1172h-2.5742Zm.3252,4.7705c-.1992,0-.3662-.0693-.5005-.208s-.2017-.3027-.2017-.4932v-2.4834c0-.1992.0693-.3662.208-.501.1387-.1338.3032-.2012.4941-.2012h1.9629c.1992,0,.3662.0693.5005.208s.2017.3037.2017.4941v2.4834c0,.1904-.0674.3545-.2017.4932s-.3013.208-.5005.208h-1.9629Zm.1299-.7012h1.7031c.0522,0,.0781-.0264.0781-.0781v-2.3145c0-.0518-.0259-.0781-.0781-.0781h-1.7031c-.0518,0-.0776.0264-.0776.0781v2.3145c0,.0518.0259.0781.0776.0781Zm3.1724.7275c-.0352.0264-.0781.0391-.1304.0391-.0864,0-.167-.0371-.2402-.1104-.0737-.0742-.1108-.1631-.1108-.2666,0-.1904.0869-.334.2603-.4287.6411-.3643,1.1396-.8906,1.4951-1.5801.355-.6885.5718-1.5186.6499-2.4893,0-.0518-.0259-.0781-.0781-.0781h-.7671c-.1904,0-.3555-.0693-.4937-.208-.1387-.1387-.208-.3027-.208-.4941v-2.3398c0-.1992.0693-.3662.208-.5.1382-.1348.3032-.2021.4937-.2021h2.0542c.0347,0,.0649-.0127.0908-.0391.5376-.5625.9536-1.2695,1.248-2.1191.0259-.0859.0737-.1533.1431-.2012s.1431-.0713.2212-.0713c.1211,0,.2163.0391.2856.1172s.104.1641.104.2598c0,.0518-.0044.0908-.0127.1172-.0869.3115-.2124.6279-.377.9492-.165.3203-.3467.6191-.5464.8965-.0435.0605-.0259.0908.0522.0908h.8062c.1992,0,.3657.0674.5005.2021.1343.1338.2012.3008.2012.5v2.3398c0,.1914-.0693.3555-.208.4941s-.3032.208-.4937.208h-.9492c-.0518,0-.0781.0264-.0781.0781v3.5488c0,.2432.0762.3965.2275.4619.1519.0645.3359.0977.5527.0977.1992,0,.3726-.0332.52-.0977.147-.0654.29-.1758.4287-.332.0781-.0781.1689-.1172.2729-.1172.0957,0,.1733.0312.2344.0918.0864.0859.1299.1904.1299.3115,0,.1221-.0391.2207-.1172.2988-.1992.2168-.4092.3662-.6304.4492-.2212.082-.5093.123-.8643.123-1.0229,0-1.5342-.3896-1.5342-1.1699v-3.666c0-.0518-.0259-.0781-.0781-.0781h-.4678c-.0522,0-.0781.0264-.0781.0781-.0869,1.1611-.3618,2.1621-.8257,3.0029-.4634.8408-1.0942,1.4512-1.8911,1.833Zm2.145-9.0605c-.165,0-.2861-.0742-.3643-.2217-.208-.3721-.4463-.7275-.7148-1.0654-.061-.0605-.0913-.1387-.0913-.2344,0-.1299.0522-.2344.1562-.3115.0781-.0527.1602-.0781.2471-.0781.1558,0,.2729.0566.3511.1689.1211.1729.251.3701.3896.5908.1387.2217.2603.4355.3643.6436.0259.0527.0391.1045.0391.1562,0,.0869-.0352.167-.104.2402-.0698.0742-.1606.1113-.2729.1113Zm-.8843,3.3799h3.6919c.0522,0,.0781-.0264.0781-.0781v-2.0537c0-.0527-.0259-.0781-.0781-.0781h-3.6919c-.0518,0-.0781.0254-.0781.0781v2.0537c0,.0518.0264.0781.0781.0781Z"/><path d="m162.8943,64.2246c-.1909,0-.3555-.0693-.4941-.208s-.208-.3027-.208-.4941v-6.084c0-.1992.0693-.3652.208-.5s.3032-.2012.4941-.2012h2.5479c.1992,0,.3662.0693.5005.208s.2017.3027.2017.4932v6.084c0,.1914-.0674.3555-.2017.4941s-.3013.208-.5005.208h-2.5479Zm.1816-4.4072h2.2104c.0518,0,.0776-.0254.0776-.0771v-2.1328c0-.0518-.0259-.0771-.0776-.0771h-2.2104c-.0518,0-.0776.0254-.0776.0771v2.1328c0,.0518.0259.0771.0776.0771Zm0,3.6279h2.2104c.0518,0,.0776-.0264.0776-.0781v-2.6914c0-.0518-.0259-.0781-.0776-.0781h-2.2104c-.0518,0-.0776.0264-.0776.0781v2.6914c0,.0518.0259.0781.0776.0781Zm7.1504,3.458c-.1128-.0088-.208-.0527-.2861-.1309-.0781-.0771-.1172-.1729-.1172-.2852,0-.1221.041-.2236.1235-.3057.0825-.083.1797-.124.2925-.124.4336.0088.7085-.0166.8257-.0781.1172-.0605.1753-.2119.1753-.4551v-2.9639c0-.0518-.0259-.0781-.0776-.0781h-3.0034c-.0435,0-.0737.0264-.0908.0781-.0605.5986-.1714,1.1465-.3315,1.6445-.1602.499-.3965.96-.7085,1.3848s-.728.8271-1.248,1.209c-.0605.0518-.1387.0781-.2339.0781-.1733,0-.2988-.0742-.377-.2207-.0435-.0869-.0649-.1689-.0649-.2471,0-.1826.0732-.3252.2207-.4297.4941-.3721.8799-.7598,1.1572-1.1631s.4785-.8516.6045-1.3457c.1255-.4941.2036-1.0674.2339-1.7227.0303-.6543.0454-1.4229.0454-2.3076v-2.7168c0-.1904.0693-.3555.208-.4941.1387-.1377.3032-.2031.4941-.1943l3.2759-.0137c.1992,0,.3662.0703.5005.208.1343.1387.2017.3037.2017.4941v8.8008c0,.5029-.1431.8604-.4292,1.0732-.2856.2119-.7495.3135-1.3906.3057Zm-2.0151-5.2266h2.9512c.0518,0,.0776-.0264.0776-.0781v-1.8584c0-.0527-.0259-.0781-.0776-.0781h-2.9121c-.0522,0-.0781.0303-.0781.0908,0,.3291-.0024.6475-.0063.9551-.0044.3076-.0151.6045-.0327.8906,0,.0518.0259.0781.0781.0781Zm.0391-2.8213h2.9121c.0518,0,.0776-.0254.0776-.0771v-1.8721c0-.0527-.0259-.0781-.0776-.0781h-2.9121c-.0522,0-.0781.0254-.0781.0781v1.8721c0,.0518.0259.0771.0781.0771Z"/><path d="m181.1849,62.2881c-.2861,0-.5264-.0996-.7217-.2988-.1948-.1992-.2925-.4375-.2925-.7158,0-.2764.0977-.5146.2925-.7148.1953-.1992.4355-.2988.7217-.2988.2773,0,.5156.0977.7148.293.1992.1943.2993.4355.2993.7207,0,.2861-.1001.5273-.2993.7217-.1992.1953-.4375.293-.7148.293Z"/><path d="m190.7532,66.8896c-.1128,0-.2104-.041-.2925-.123-.0825-.083-.1235-.1807-.1235-.293v-9.5811c0-.1992.0688-.3662.208-.5.1382-.1348.3032-.2021.4937-.2021h8.1123c.1992,0,.3657.0674.5005.2021.1343.1338.2012.3008.2012.5v8.71c0,.832-.5635,1.2529-1.6899,1.2617-.1128,0-.2144-.0439-.3052-.1309-.0913-.0859-.1367-.1904-.1367-.3115s.0435-.2207.1299-.2988c.0869-.0781.1865-.1172.2993-.1172.3462.0088.5806-.0127.7017-.0654.1216-.0518.1821-.1641.1821-.3379v-8.5273c0-.0527-.0259-.0781-.0781-.0781h-7.7217c-.0522,0-.0781.0254-.0781.0781v9.3984c0,.1123-.0391.21-.1172.293-.0776.082-.1733.123-.2856.123Zm1.9238-7.5137c-.1128,0-.208-.0391-.2861-.1172s-.1167-.1729-.1167-.2861c0-.1123.0386-.208.1167-.2861s.1733-.1162.2861-.1162h4.8359c.1128,0,.208.0381.2861.1162s.1167.1738.1167.2861c0,.1133-.0386.208-.1167.2861s-.1733.1172-.2861.1172h-4.8359Zm.9878,5.4727c-.1904,0-.3555-.0693-.4937-.208-.1387-.1387-.208-.3027-.208-.4941v-2.7422c0-.1914.0693-.3555.208-.4941.1382-.1387.3032-.208.4937-.208h2.8604c.1992,0,.3657.0693.5005.208.1343.1387.2012.3027.2012.4941v2.7422c0,.1914-.0669.3555-.2012.4941-.1348.1387-.3013.208-.5005.208h-2.8604Zm.1821-.8057h2.4961c.0518,0,.0781-.0264.0781-.0781v-2.3916c0-.0527-.0264-.0781-.0781-.0781h-2.4961c-.0518,0-.0781.0254-.0781.0781v2.3916c0,.0518.0264.0781.0781.0781Z"/><path d="m204.0003,66.6816c-.0259.0088-.0522.0195-.0781.0332-.0259.0127-.0518.0186-.0781.0186-.1475,0-.2515-.0732-.312-.2207-.0088-.0254-.0151-.0537-.0195-.084-.0044-.0312-.0063-.0586-.0063-.085,0-.1729.0693-.3076.208-.4033.3032-.1992.5742-.4131.8125-.6426.2383-.2305.4487-.4658.6304-.709.0869-.1299.2036-.1953.3511-.1953.0605,0,.1211.0176.1821.0527.1299.0859.1948.1943.1948.3242,0,.0703-.0215.1348-.0649.1953-.4854.7021-1.0918,1.2744-1.8198,1.7158Zm-.0391-7.2412c-.104,0-.1909-.0342-.2603-.1035s-.104-.1514-.104-.2471.0347-.1777.104-.2471.1562-.1035.2603-.1035h3.25c.0864,0,.0996-.0215.0391-.0654-.0435-.0264-.0781-.0605-.104-.1035-.0435-.0693-.0889-.1367-.1367-.2021-.0479-.0645-.0972-.1279-.1494-.1885-.0605-.0947-.0908-.1816-.0908-.2598,0-.1211.0474-.2207.1431-.2988.0688-.0605.1641-.0908.2856-.0908.1562,0,.2773.0518.3643.1553.0605.0693.1167.1416.1689.2148.0518.0732.0952.1494.1299.2275.0347.0605.0522.1299.0522.208,0,.1562-.0522.2725-.1562.3506-.0088.0088-.0195.0156-.0322.0195-.0132.0049-.0244.0117-.0327.0195l.2339.0137h1.5732c.0342,0,.0649-.0137.0908-.0391.1211-.1475.249-.3037.3833-.4688.1343-.1641.2539-.3291.3579-.4932.0952-.1387.2251-.208.3896-.208.1387,0,.2451.043.3188.1299.0732.0869.1104.1865.1104.2988,0,.0781-.0176.1475-.0522.208-.0518.0781-.106.1582-.1621.2402-.0566.083-.1152.1631-.1758.2402-.0435.0615-.0303.0918.0391.0918h3.25c.0952,0,.1777.0322.2471.0967.0693.0654.104.1504.104.2539,0,.0957-.0327.1777-.0977.2471-.0649.0693-.1494.1035-.2534.1035h-10.0879Zm.9229-2.0537c-.0952,0-.1777-.0342-.2471-.1035s-.104-.1562-.104-.2607c0-.0947.0347-.1768.104-.2471.0693-.0684.1519-.1035.2471-.1035h3.6401c.0518,0,.0781-.0264.0781-.0781v-.4414c0-.1133.0391-.2061.1167-.2803.0781-.0732.1733-.1104.2861-.1104.1211,0,.2188.0371.2925.1104.0737.0742.1104.167.1104.2803v.4414c0,.0518.0264.0781.0781.0781h3.6401c.0952,0,.1772.0352.2471.1035.0693.0703.104.1523.104.2471,0,.0957-.0347.1807-.104.2539-.0698.0742-.1519.1104-.2471.1104h-8.2422Zm1.1831,6.3965c-.1909,0-.3555-.0693-.4941-.208s-.208-.3037-.208-.4941v-2.2754c0-.1992.0693-.3662.208-.5.1387-.1348.3032-.2021.4941-.2021h5.876c.1992,0,.3662.0674.5005.2021.1343.1338.2017.3008.2017.5v2.2754c0,.1904-.0674.3555-.2017.4941s-.3013.208-.5005.208h-5.876Zm.1948-2.1973h5.4863c.0518,0,.0776-.0264.0776-.0781v-.6113c0-.0518-.0259-.0771-.0776-.0771h-5.4863c-.0518,0-.0776.0254-.0776.0771v.6113c0,.0518.0259.0781.0776.0781Zm0,1.4688h5.4863c.0518,0,.0776-.0254.0776-.0781v-.6104c0-.0527-.0259-.0781-.0776-.0781h-5.4863c-.0518,0-.0776.0254-.0776.0781v.6104c0,.0527.0259.0781.0776.0781Zm2.4443,3.7568c-.5288,0-.9448-.0449-1.248-.1357-.3037-.0918-.5181-.25-.6436-.4746-.126-.2256-.1885-.5293-.1885-.9102v-.8193c0-.1123.0391-.2061.1167-.2793.0781-.0732.1694-.1104.2734-.1104s.1948.0371.2729.1104c.0776.0732.1167.167.1167.2793v.8193c0,.2422.0479.4219.1431.5391s.2861.1914.5723.2217c.2856.0303.7104.0449,1.2739.0449.4072,0,.7407-.0088,1.001-.0254.2598-.0176.4829-.0605.6694-.1309.186-.0684.3745-.1855.5654-.3506.0864-.0693.1777-.1035.2729-.1035.1128,0,.208.0381.2861.1162.0693.0869.104.1777.104.2734,0,.1035-.0391.1904-.1172.2598-.5288.4502-1.1177.6758-1.7681.6758h-1.7026Zm1.5469-1.2734c-.2515-.1387-.52-.2705-.8062-.3965s-.5679-.2412-.8447-.3447c-.165-.0518-.2471-.1641-.2471-.3379,0-.1123.0366-.2012.1104-.2666s.1538-.0977.2407-.0977c.0342,0,.0776.0088.1299.0264.3032.0957.6021.208.897.3379.2944.1299.5674.2598.8188.3896.1475.0693.2212.1826.2212.3379,0,.0352-.0044.0674-.0132.0977s-.0215.0635-.0391.0977c-.0259.0605-.0669.1084-.1235.1426-.0562.0352-.1147.0527-.1753.0527s-.1172-.0137-.1689-.0391Zm3.6787.6758c-.2515-.208-.5371-.4092-.8579-.6045s-.6543-.375-1.001-.5391c-.1475-.0693-.2207-.1826-.2207-.3389,0-.1123.041-.2012.1235-.2656.082-.0654.1709-.0977.2661-.0977.0347,0,.0781.0088.1304.0254.2856.1299.5996.291.9424.4814.3423.1904.6738.3945.9946.6113.1382.0947.208.2246.208.3896,0,.0781-.022.1602-.0654.2471-.0693.1123-.1689.1689-.2988.1689-.0781,0-.1519-.0264-.2212-.0781Z"/><path d="m217.8714,62.8604c-.104,0-.1909-.0352-.2603-.1045s-.104-.1562-.104-.2598c0-.1045.0347-.1904.104-.2598s.1562-.1045.2603-.1045h4.563c.0518,0,.0781-.0264.0781-.0781v-.5195c0-.0527-.0264-.0781-.0781-.0781h-3.5488c-.0869,0-.165-.0352-.2344-.1045s-.104-.1514-.104-.2471c0-.0947.0347-.1748.104-.2402.0693-.0645.1475-.0977.2344-.0977h3.5488c.0518,0,.0781-.0254.0781-.0781v-.5195c0-.0518-.0264-.0781-.0781-.0781h-3.146c-.0957,0-.1802-.0342-.2534-.1035-.0737-.0693-.1108-.1562-.1108-.2607,0-.0947.0347-.1768.104-.2471.0693-.0693.1562-.1035.2603-.1035h3.146c.0518,0,.0781-.0264.0781-.0781v-.5195c0-.0527-.0264-.0781-.0781-.0781h-4.498c-.104,0-.1909-.0352-.2598-.1045-.0698-.0693-.104-.1562-.104-.2598,0-.1045.0342-.1904.104-.2598.0688-.0693.1558-.1045.2598-.1045h4.498c.0518,0,.0781-.0254.0781-.0781v-.5322c0-.0527-.0264-.0781-.0781-.0781h-3.146c-.0957,0-.1802-.0352-.2534-.1045-.0737-.0693-.1108-.1514-.1108-.2471.0088-.1035.0479-.1885.1172-.2529.0693-.0654.1514-.0977.2471-.0977h3.146c.0518,0,.0781-.0264.0781-.0781v-.3125c0-.1211.0391-.2188.1167-.292.0781-.0732.1733-.1104.2861-.1104.1123,0,.208.0371.2861.1104.0776.0732.1167.1709.1167.292v.3125c0,.0518.0264.0781.0781.0781h2.6133c.1992,0,.3657.0674.5005.2012.1343.1348.2012.3018.2012.501v.6104c0,.0527.0259.0781.0781.0781h1.105c.104,0,.1904.0352.2598.1045s.104.1553.104.2598c0,.0957-.0347.1797-.104.2539-.0693.0732-.1558.1104-.2598.1104h-1.105c-.0522,0-.0781.0254-.0781.0781v.6104c0,.1914-.0669.3555-.2012.4941-.1348.1387-.3013.208-.5005.208h-2.6133c-.0518,0-.0781.0264-.0781.0781v.5195c0,.0527.0264.0781.0781.0781h3.5488c.0957,0,.1758.0332.2407.0977.0649.0654.0977.1455.0977.2402,0,.0957-.0327.1777-.0977.2471s-.145.1045-.2407.1045h-3.5488c-.0518,0-.0781.0254-.0781.0781v.5195c0,.0518.0264.0781.0781.0781h4.563c.104,0,.1904.0352.2603.1045.0688.0693.104.1553.104.2598,0,.0957-.0352.1797-.104.2529-.0698.0742-.1562.1113-.2603.1113h-10.0879Zm2.002,3.8994c-.1909,0-.3555-.0693-.4941-.208s-.208-.3037-.208-.4941v-1.9111c0-.1992.0693-.3652.208-.5s.3032-.2012.4941-.2012h6.084c.1992,0,.3662.0693.5005.208s.2017.3027.2017.4932v1.9111c0,.1904-.0674.3555-.2017.4941s-.3013.208-.5005.208h-6.084Zm.1689-1.9756h5.7461c.0518,0,.0781-.0264.0781-.0781v-.5205c0-.0518-.0264-.0781-.0781-.0781h-5.7461c-.0518,0-.0781.0264-.0781.0781v.5205c0,.0518.0264.0781.0781.0781Zm0,1.3262h5.7461c.0518,0,.0781-.0264.0781-.0781v-.5332c0-.0518-.0264-.0781-.0781-.0781h-5.7461c-.0518,0-.0781.0264-.0781.0781v.5332c0,.0518.0264.0781.0781.0781Zm3.354-8.1387h2.457c.0522,0,.0781-.0254.0781-.0781v-.5322c0-.0527-.0259-.0781-.0781-.0781h-2.457c-.0518,0-.0781.0254-.0781.0781v.5322c0,.0527.0264.0781.0781.0781Zm0,1.4043h2.457c.0522,0,.0781-.0264.0781-.0781v-.5195c0-.0527-.0259-.0781-.0781-.0781h-2.457c-.0518,0-.0781.0254-.0781.0781v.5195c0,.0518.0264.0781.0781.0781Z"/></g><g><line x1="125.5931" y1="97.7993" x2="125.5931" y2="112.8218" fill="none" stroke="#333" stroke-linecap="round" stroke-miterlimit="10" stroke-width=".75"/><path d="m120.3734,105.3887c.2527-.1611.5894-.0859.7508.168l4.469,7.0166,4.4689-7.0166c.1614-.2539.4981-.3291.7508-.168.2528.1616.326.5005.1667.752l-4.9277,7.7368c-.0998.1562-.2729.252-.4588.252s-.359-.0957-.4588-.252l-4.9277-7.7368c-.0573-.0913-.085-.1919-.085-.292,0-.1792.0892-.3555.2517-.46Z" fill="#333"/></g><polygon points="42.7916 .7498 .75 48.7994 .75 .7498 42.7916 .7498" fill="#afda76"/></g></g></svg>