<?xml version="1.0" encoding="UTF-8"?><svg id="_レイヤー_2" xmlns="http://www.w3.org/2000/svg" xmlns:xlink="http://www.w3.org/1999/xlink" viewBox="0 0 256.11 108.82"><defs><style>.cls-1{fill:url(#_名称未設定グラデーション_150);}.cls-2{fill:#a9dbea;}.cls-3{fill:#bbd658;}.cls-4{fill:#37ab65;}</style><linearGradient id="_名称未設定グラデーション_150" x1="1.4" y1="79.17" x2="219.06" y2="79.17" gradientUnits="userSpaceOnUse"><stop offset=".16" stop-color="#37ab65"/><stop offset=".57" stop-color="#bbd658"/><stop offset="1" stop-color="#93d3e9"/></linearGradient></defs><g id="_レイヤー_1-2"><g><path class="cls-1" d="m4.24,107.76c3.44-6.46,7.53-12.62,12.4-18.09,4.63-5.19,10.26-10.45,16.98-12.71,7.2-2.42,16.33-1.38,20.19,5.9,3.15,5.93,2.49,13.3,1.7,19.71-.09.76,3.89-.21,4.25-.95,6.28-12.79,16.96-23.78,30.07-29.6,4.18-1.86,8.83-3.01,13.36-1.77,2.62.72,4.8,2.41,6.68,4.32,3.27,3.33,7.64,9.59,5.24,14.47-.35.72,3.63.13,4.22-.76,3.95-5.94,8.53-11.86,14.62-15.76,3.2-2.04,6.72-3.3,10.55-3.23,4.51.08,8.96,1.1,13.35,2.02,16.59,3.45,33.58.13,45.89-7.67,9.7-6.14,17.03-14.4,16.68-14.12-9.87,8.24-22.46,19.04-45.41,21.39-8.55.87-16.67-2.39-25.13-3.19-6.67-.64-13.24.96-18.92,4.5-6.62,4.12-11.59,10.41-15.86,16.82,1.41-.25,2.81-.5,4.22-.76,2.12-4.32-.8-9.51-3.44-12.89-3.33-4.26-7.42-7.05-12.91-7.38-12.8-.78-25.96,7.99-34.67,16.61-5.22,5.16-9.53,11.17-12.77,17.75,1.42-.32,2.83-.63,4.25-.95.74-5.98,1.31-12.57-1.04-18.28-2.39-5.82-7.78-8.76-13.91-9.06-13.13-.65-24.29,6.97-32.58,16.47C7.5,96.04,3.43,102.11.02,108.52c-.3.57,3.64.33,4.22-.76h0Z"/><polygon class="cls-3" points="256.11 0 247.7 48.62 231.78 33.48 256.11 0"/><polygon class="cls-2" points="256.11 0 209.43 28.05 220.15 30.7 256.11 0"/><polygon class="cls-4" points="256.11 0 222.96 31.51 226.5 41.27 231.56 36.27 228.4 33.67 256.11 0"/></g></g></svg>