<?xml version="1.0" encoding="UTF-8"?>
<svg id="_レイヤー_2" data-name="レイヤー 2" xmlns="http://www.w3.org/2000/svg" viewBox="0 0 335 122.41">
  <defs>
    <style>
      .cls-1 {
        fill: #fff;
      }

      .cls-2 {
        fill: #af9890;
        opacity: .9;
      }
    </style>
  </defs>
  <g id="_レイヤー_1-2" data-name="レイヤー 1">
    <g>
      <path class="cls-2" d="m72,0h263v19c0,39.74-32.26,72-72,72H0v-19C0,32.26,32.26,0,72,0Z"/>
      <g>
        <path class="cls-1" d="m121.22,60.29v-25.17h12.69v2.31h-9.94v8.95h9.15v2.28h-9.15v11.63h-2.74Z"/>
        <path class="cls-1" d="m166.28,60.29h-2.91l-2.71-8.16h-8.75l-2.64,8.16h-2.81l8.33-25.17h3.17l8.33,25.17Zm-6.18-10.34l-2.48-7.47c-.53-1.72-.96-3.3-1.29-4.79h-.1c-.33,1.52-.79,3.11-1.25,4.69l-2.51,7.57h7.63Z"/>
        <path class="cls-1" d="m192.97,59.8c2.48.66,5.15,1.29,7.23,1.69l-.83,2.31c-3.14-.83-6.44-1.85-9.05-2.74-.53-.2-.96-.36-1.42-.36-5.75-.17-10.5-4.56-10.5-12.75s4.62-13.21,11-13.21,10.57,5.09,10.57,12.75c0,6.67-2.88,10.77-7,12.19v.13Zm-11.7-11.93c0,5.38,2.91,10.54,7.86,10.54s7.96-5.05,7.96-10.8c0-5.09-2.45-10.6-7.8-10.6s-8.03,5.55-8.03,10.87Z"/>
      </g>
      <g>
        <path class="cls-1" d="m66.28,111.3c0-.95,0-2.2.84-3.05.5-.49,1.16-.69,1.76-.69.49,0,.88.11,1.13.22l-.2.91c-.21-.08-.48-.18-.88-.18-1.2,0-1.5,1.12-1.5,2.35v.43h1.85v.91h-1.85v6.72h-1.16v-6.72h-1.05v-.91h1.05Z"/>
        <path class="cls-1" d="m74.68,112.28c-.13-.01-.25-.03-.42-.03-1.26,0-1.91,1.25-1.91,2.54v4.15h-1.16v-5.35c0-.81-.01-1.55-.06-2.28h1.02l.06,1.47h.04c.34-.95,1.13-1.64,2.07-1.64.13,0,.22.03.35.04v1.11Z"/>
        <path class="cls-1" d="m82.15,118.61c-.43.21-1.23.48-2.4.48-2.23,0-3.56-1.57-3.56-3.85,0-2.4,1.34-4.12,3.4-4.12,2.35,0,2.96,2.16,2.96,3.49,0,.27-.01.46-.03.64h-5.2c.01,2.12,1.22,2.91,2.59,2.91.95,0,1.53-.2,2-.39l.22.84Zm-.74-4.23c.01-1.04-.42-2.38-1.92-2.38-1.4,0-2.02,1.33-2.13,2.38h4.05Z"/>
        <path class="cls-1" d="m91.21,111.29c-.03.6-.06,1.25-.06,2.1v8.67h-1.16v-4.29h-.04c-.38.73-1.2,1.33-2.4,1.33-1.72,0-3.11-1.53-3.11-3.87,0-2.87,1.76-4.12,3.33-4.12,1.12,0,1.89.57,2.25,1.32h.04l.04-1.15h1.09Zm-1.22,3.04c0-1.26-.88-2.26-2.06-2.26-1.44,0-2.3,1.29-2.3,3.08,0,1.6.7,3,2.26,3,1.37,0,2.1-1.3,2.1-2.25v-1.57Z"/>
        <path class="cls-1" d="m100.12,116.9c0,.78.04,1.44.07,2.03h-1.05l-.06-1.2h-.04c-.35.6-1.13,1.37-2.44,1.37-1.15,0-2.51-.66-2.51-3.29v-4.51h1.16v4.3c0,1.48.43,2.52,1.71,2.52.91,0,1.99-.73,1.99-2.07v-4.75h1.16v5.6Z"/>
        <path class="cls-1" d="m108.52,118.61c-.43.21-1.23.48-2.4.48-2.23,0-3.56-1.57-3.56-3.85,0-2.4,1.34-4.12,3.4-4.12,2.35,0,2.96,2.16,2.96,3.49,0,.27-.01.46-.03.64h-5.2c.01,2.12,1.22,2.91,2.59,2.91.95,0,1.53-.2,2-.39l.22.84Zm-.74-4.23c.01-1.04-.42-2.38-1.92-2.38-1.4,0-2.02,1.33-2.13,2.38h4.05Z"/>
        <path class="cls-1" d="m117.47,118.93h-1.16v-4.51c0-1.25-.45-2.34-1.78-2.34-.99,0-2,.84-2,2.17v4.68h-1.16v-5.67c0-.78-.03-1.36-.06-1.98h1.04l.07,1.25h.03c.38-.74,1.26-1.42,2.45-1.42.95,0,2.58.57,2.58,3.17v4.65Z"/>
        <path class="cls-1" d="m120.73,109.91l1.15-.39v1.78h1.98v.91h-1.98v4.41c0,.97.29,1.5,1.04,1.5.35,0,.59-.04.78-.11l.07.9c-.25.11-.64.18-1.13.18-1.85,0-1.91-1.68-1.91-2.49v-4.38h-1.18v-.91h1.18v-1.39Z"/>
        <path class="cls-1" d="m127.24,118.93h-1.16v-11.21h1.16v11.21Z"/>
        <path class="cls-1" d="m136,111.3l-2.03,5.41c-.91,2.48-1.55,3.91-2.51,4.8-.64.59-1.27.83-1.55.9l-.32-.98c1.78-.66,2.46-2.59,2.46-2.75,0-.07-.03-.18-.08-.32l-2.7-7.06h1.27l1.67,4.64c.2.53.36,1.13.49,1.6h.04c.13-.46.31-1.04.49-1.62l1.54-4.61h1.23Z"/>
        <path class="cls-1" d="m146.95,117.11c0,.63.01,1.29.11,1.82h-1.06l-.11-.98h-.04c-.39.6-1.18,1.15-2.26,1.15-1.46,0-2.23-1.06-2.23-2.17,0-1.83,1.6-2.83,4.43-2.82,0-.64,0-2.1-1.74-2.1-.66,0-1.34.18-1.86.55l-.28-.8c.62-.41,1.47-.64,2.33-.64,2.16,0,2.72,1.53,2.72,3.04v2.96Zm-1.15-2.14c-1.44,0-3.25.21-3.25,1.82,0,.98.62,1.41,1.32,1.41,1.13,0,1.93-.87,1.93-1.79v-1.44Z"/>
        <path class="cls-1" d="m153.46,112.46c-.28-.18-.8-.45-1.49-.45-.84,0-1.29.52-1.29,1.13,0,.66.43.97,1.41,1.39,1.23.5,1.95,1.15,1.95,2.3,0,1.36-1.04,2.26-2.7,2.26-.76,0-1.48-.21-2-.52l.32-.9c.41.24,1.06.52,1.72.52,1.02,0,1.53-.55,1.53-1.23s-.41-1.11-1.41-1.51c-1.29-.52-1.95-1.23-1.95-2.16,0-1.19.95-2.17,2.49-2.17.73,0,1.34.21,1.75.46l-.34.88Z"/>
        <path class="cls-1" d="m162.45,118.93h-1.43l-2.63-3.77-.7.8v2.97h-1.16v-11.21h1.16v7.13h.03c.18-.27.45-.6.66-.85l2.28-2.7h1.4l-2.87,3.15,3.26,4.48Z"/>
        <path class="cls-1" d="m169.59,118.61c-.43.21-1.23.48-2.4.48-2.23,0-3.56-1.57-3.56-3.85,0-2.4,1.34-4.12,3.4-4.12,2.35,0,2.96,2.16,2.96,3.49,0,.27-.01.46-.03.64h-5.2c.01,2.12,1.22,2.91,2.59,2.91.95,0,1.53-.2,2-.39l.22.84Zm-.74-4.23c.01-1.04-.42-2.38-1.92-2.38-1.4,0-2.02,1.33-2.13,2.38h4.05Z"/>
        <path class="cls-1" d="m178.59,117.04c0,.62.03,1.37.06,1.89h-1.04l-.06-1.3h-.04c-.39.8-1.26,1.47-2.49,1.47-1.77,0-3.14-1.53-3.14-3.88,0-2.58,1.51-4.09,3.29-4.09,1.12,0,1.88.55,2.23,1.18h.03v-4.58h1.16v9.31Zm-1.16-2.69c0-1.53-1.08-2.28-2.06-2.28-1.44,0-2.3,1.34-2.3,3.1,0,1.61.76,2.98,2.25,2.98,1.26,0,2.1-1.11,2.1-2.33v-1.47Z"/>
        <path class="cls-1" d="m191.77,111.29c-.03.6-.06,1.25-.06,2.1v8.67h-1.16v-4.29h-.04c-.38.73-1.21,1.33-2.4,1.33-1.72,0-3.11-1.53-3.11-3.87,0-2.87,1.76-4.12,3.33-4.12,1.12,0,1.89.57,2.25,1.32h.04l.04-1.15h1.09Zm-1.22,3.04c0-1.26-.88-2.26-2.06-2.26-1.44,0-2.3,1.29-2.3,3.08,0,1.6.7,3,2.25,3,1.37,0,2.1-1.3,2.1-2.25v-1.57Z"/>
        <path class="cls-1" d="m200.68,116.9c0,.78.04,1.44.07,2.03h-1.05l-.06-1.2h-.04c-.35.6-1.13,1.37-2.44,1.37-1.15,0-2.51-.66-2.51-3.29v-4.51h1.16v4.3c0,1.48.43,2.52,1.71,2.52.91,0,1.99-.73,1.99-2.07v-4.75h1.16v5.6Z"/>
        <path class="cls-1" d="m209.08,118.61c-.43.21-1.23.48-2.4.48-2.23,0-3.56-1.57-3.56-3.85,0-2.4,1.34-4.12,3.4-4.12,2.35,0,2.96,2.16,2.96,3.49,0,.27-.01.46-.03.64h-5.2c.01,2.12,1.22,2.91,2.59,2.91.95,0,1.53-.2,2-.39l.22.84Zm-.74-4.23c.01-1.04-.42-2.38-1.92-2.38-1.4,0-2.02,1.33-2.13,2.38h4.05Z"/>
        <path class="cls-1" d="m215.49,112.46c-.28-.18-.8-.45-1.49-.45-.84,0-1.29.52-1.29,1.13,0,.66.43.97,1.42,1.39,1.23.5,1.95,1.15,1.95,2.3,0,1.36-1.04,2.26-2.7,2.26-.76,0-1.49-.21-2-.52l.32-.9c.41.24,1.06.52,1.72.52,1.02,0,1.53-.55,1.53-1.23s-.41-1.11-1.41-1.51c-1.29-.52-1.95-1.23-1.95-2.16,0-1.19.95-2.17,2.49-2.17.73,0,1.34.21,1.75.46l-.34.88Z"/>
        <path class="cls-1" d="m218.87,109.91l1.15-.39v1.78h1.97v.91h-1.97v4.41c0,.97.29,1.5,1.04,1.5.35,0,.59-.04.79-.11l.07.9c-.25.11-.64.18-1.13.18-1.85,0-1.9-1.68-1.9-2.49v-4.38h-1.18v-.91h1.18v-1.39Z"/>
        <path class="cls-1" d="m224.79,109.95c-.45,0-.76-.35-.76-.8s.32-.78.77-.78.76.35.76.78c0,.49-.32.8-.77.8Zm.59,8.98h-1.16v-7.63h1.16v7.63Z"/>
        <path class="cls-1" d="m234.87,115.05c0,2.84-1.88,4.05-3.57,4.05-1.96,0-3.47-1.47-3.47-3.94,0-2.61,1.62-4.05,3.57-4.05,2.09,0,3.47,1.6,3.47,3.94Zm-3.52-3.03c-1.65,0-2.34,1.62-2.34,3.1,0,1.69.94,3.07,2.31,3.07s2.35-1.37,2.35-3.1c0-1.36-.66-3.07-2.33-3.07Z"/>
        <path class="cls-1" d="m243.44,118.93h-1.16v-4.51c0-1.25-.45-2.34-1.78-2.34-1,0-2,.84-2,2.17v4.68h-1.16v-5.67c0-.78-.03-1.36-.06-1.98h1.04l.07,1.25h.03c.38-.74,1.26-1.42,2.45-1.42.95,0,2.58.57,2.58,3.17v4.65Z"/>
        <path class="cls-1" d="m249.96,112.46c-.28-.18-.8-.45-1.49-.45-.84,0-1.29.52-1.29,1.13,0,.66.43.97,1.42,1.39,1.23.5,1.95,1.15,1.95,2.3,0,1.36-1.04,2.26-2.7,2.26-.76,0-1.49-.21-2-.52l.32-.9c.41.24,1.06.52,1.72.52,1.02,0,1.53-.55,1.53-1.23s-.41-1.11-1.41-1.51c-1.29-.52-1.95-1.23-1.95-2.16,0-1.19.95-2.17,2.49-2.17.73,0,1.34.21,1.75.46l-.34.88Z"/>
      </g>
    </g>
  </g>
</svg>