<?xml version="1.0" encoding="UTF-8"?>
<svg id="_レイヤー_2" data-name="レイヤー 2" xmlns="http://www.w3.org/2000/svg" viewBox="0 0 425.5 119.07">
  <defs>
    <style>
      .cls-1 {
        fill: #fff;
      }

      .cls-2 {
        fill: #af9890;
        opacity: .9;
      }
    </style>
  </defs>
  <g id="_レイヤー_1-2" data-name="レイヤー 1">
    <g>
      <path class="cls-2" d="m72,0h353.5v19c0,39.74-32.26,72-72,72H0v-19C0,32.26,32.26,0,72,0Z"/>
      <g>
        <path class="cls-1" d="m121.67,43.78c0,4.51-.04,8-.13,10.47s-.28,4.34-.56,5.63c-.29,1.29-.6,2.08-.94,2.36-.34.29-.86.43-1.57.43-.88,0-2.16-.11-3.83-.33l-.03-3.2c.97.22,1.75.33,2.35.33.29,0,.51-.11.66-.33.15-.22.3-.75.43-1.59.13-.84.22-2.1.26-3.8.04-1.7.07-4.01.07-6.94h-2.71c-.2,4.1-.59,7.37-1.17,9.81-.58,2.44-1.45,4.66-2.59,6.64l-2.58-2.41c1.1-2.07,1.89-4.58,2.36-7.53.47-2.95.72-7.32.74-13.11h-2.74v-3.04h4.49v-4.13h3.44v4.13h4.96v2.25c1.54-2.2,2.76-4.45,3.67-6.74l3.17.73c-.4,1.1-.72,1.92-.96,2.44h11.73v2.97h-13.25c-.57,1.01-1.18,1.95-1.82,2.81h2.18v3.8l2.54-.66v-4.95h3.24v4.1l6.54-1.72c0,3.88-.08,6.7-.25,8.47-.17,1.77-.4,2.9-.69,3.37-.3.47-.79.71-1.47.71-1.17,0-2.21-.02-3.14-.07l-.4-2.91c1.12.07,1.72.1,1.78.1.15,0,.27-.04.35-.13.08-.09.15-.32.21-.69.07-.37.12-.95.15-1.73.03-.78.05-1.85.05-3.22l-3.14.86v9.88h-3.24v-9.02l-2.54.69v9.98c0,.62.21.97.64,1.07s1.92.15,4.48.15h1.5c.3,0,.66-.03,1.09-.1.43-.07.71-.12.84-.15.13-.03.31-.15.54-.36.23-.21.36-.39.4-.53.03-.14.1-.43.2-.86.1-.43.16-.8.18-1.12.02-.32.07-.84.13-1.57l3.37.66c-.09,1.26-.17,2.21-.25,2.86-.08.65-.25,1.28-.53,1.9s-.56,1.03-.84,1.25c-.29.22-.81.43-1.57.63-.76.2-1.53.31-2.3.33-.77.02-1.92.03-3.44.03-2.51,0-4.27-.08-5.27-.23-1-.15-1.65-.42-1.95-.79-.3-.38-.45-1.06-.45-2.05v-10.24l-1.58.43-.5-2.97,2.08-.53v-3.3c-.44.53-.77.91-.99,1.16l-2.87-1.78c.73-.81,1.32-1.53,1.78-2.15h-6.21c0,1.63-.01,2.82-.03,3.57h5.91Z"/>
        <path class="cls-1" d="m161.4,40.08h4.86v-6.28h3.47v6.28h3.37c-.95-1.61-1.99-3.16-3.14-4.66l2.44-1.59c1.28,1.63,2.41,3.31,3.4,5.05l-2.05,1.19h.92v1.98h9.18v3.04h-2.31v12.95c0,2.16-.24,3.5-.73,4.03-.49.53-1.71.79-3.67.79-.73,0-1.99-.07-3.8-.2l-.17-3.04c1.41.11,2.54.17,3.4.17.73,0,1.15-.08,1.27-.23.12-.15.18-.66.18-1.52v-12.95h-3.86v-2.05h-4.46v19.95h-3.47v-19.95h-4.56c-.86,1.54-1.87,3.02-3.04,4.43v15.79h-3.4v-12.88c-.79.9-1.58,1.66-2.38,2.28l-.92-3.5c1.61-1.21,2.99-2.48,4.16-3.8,1.17-1.32,2.3-2.9,3.4-4.72l1.88,1.19v-1.75Zm-7.86,2.61l-1.16-3.01c2.8-1.7,5.17-3.89,7.13-6.57l2.41,1.85c-1.28,1.74-2.57,3.21-3.88,4.41s-2.81,2.31-4.51,3.32Zm5.91,16.45c1.19-4.6,1.99-9.33,2.41-14.17l3.07.4c-.44,5.24-1.25,10.12-2.41,14.63l-3.07-.86Zm11.03-13.64l3.07-.83c.97,3.5,1.82,7.81,2.54,12.92l-3.07.59c-.66-4.8-1.51-9.03-2.54-12.68Zm4.79-7.93v-3.04h8.06v3.04h-8.06Z"/>
        <path class="cls-1" d="m213.99,58.15c2.53-.31,4.49-1.3,5.86-2.99,1.38-1.68,2.06-3.94,2.06-6.75,0-2.53-.82-4.65-2.44-6.36-1.63-1.71-3.72-2.66-6.28-2.86-.51,4.23-1.11,7.78-1.8,10.67-.69,2.88-1.47,5.08-2.33,6.57-.86,1.5-1.72,2.54-2.59,3.14-.87.59-1.83.89-2.89.89-1.7,0-3.25-.99-4.66-2.97s-2.11-4.4-2.11-7.27c0-4.21,1.43-7.62,4.29-10.26,2.86-2.63,6.61-3.95,11.23-3.95,3.72,0,6.8,1.17,9.23,3.5,2.43,2.33,3.65,5.3,3.65,8.89s-.95,6.75-2.86,9.03c-1.91,2.28-4.48,3.56-7.71,3.85l-.66-3.14Zm-4.23-18.79c-2.95.46-5.3,1.67-7.04,3.62s-2.61,4.37-2.61,7.25c0,1.87.39,3.5,1.17,4.87.78,1.38,1.55,2.06,2.29,2.06.35,0,.72-.15,1.09-.45.37-.3.8-.86,1.27-1.68.47-.83.92-1.88,1.35-3.15.43-1.28.86-2.99,1.3-5.15.44-2.16.83-4.61,1.16-7.37Z"/>
        <path class="cls-1" d="m244.05,48.54c-1.87-1.76-3.88-3.45-6.01-5.05l2.01-2.38c2.25,1.61,4.26,3.26,6.04,4.95l-2.05,2.48Zm2.58,3.8c-1.21,3.99-2.87,7.53-4.99,10.64l-2.81-1.88c1.98-3.02,3.59-6.33,4.82-9.94l2.97,1.19Zm13.61-11.73l2.91-1.49c2.09,2.53,4.05,5.23,5.88,8.09l-2.81,1.65c-.15-.24-.32-.5-.5-.76-.18-.26-.38-.56-.59-.88-.22-.32-.39-.57-.5-.74-6.58.79-12.64,1.27-18.17,1.42l-.1-2.97c1.54-.04,2.71-.09,3.5-.13.99-2,1.9-4.08,2.74-6.24h-5.85l-1.82,2.21c-1.63-1.52-3.45-3.04-5.45-4.56l2.05-2.38c2.07,1.54,3.73,2.88,4.99,4.03v-2.28h9.02v-2.71h3.63v2.71h9.38v2.97h-12.29c-.73,1.92-1.57,3.92-2.54,6.01,3.5-.24,6.48-.5,8.95-.76-1.45-1.89-2.27-2.96-2.44-3.2Zm-11.23,8.19h3.37c0,4.07-.49,7.23-1.47,9.48-.98,2.25-2.58,3.99-4.81,5.22l-2.21-2.51c1.83-1.04,3.14-2.47,3.93-4.31.79-1.84,1.19-4.46,1.19-7.88Zm5.88,13.87v-13.87h3.37v13.87h-3.37Zm6.28-14.2h3.37v10.67c0,.51.03.8.1.88.07.08.31.12.73.12.46,0,.74-.25.84-.74.1-.5.2-2.23.31-5.2l2.97.33c-.04,1.21-.07,2.14-.08,2.79-.01.65-.06,1.34-.15,2.06s-.16,1.24-.21,1.54c-.05.3-.19.62-.41.97-.22.35-.41.57-.56.66-.15.09-.44.19-.86.3-.42.11-.79.17-1.11.17h-1.5c-1.56,0-2.53-.13-2.89-.4s-.54-.95-.54-2.05v-12.09Z"/>
        <path class="cls-1" d="m282.36,39.32h7.43v-5.28h3.3v9.48c2.38-2.14,4.27-3.62,5.67-4.44,1.4-.83,2.65-1.24,3.75-1.24,1.45,0,2.49.5,3.1,1.49.62.99.92,2.75.92,5.29,0,1.34-.13,2.86-.4,4.56-.26,1.76-.4,3.27-.4,4.53,0,1.01.07,1.8.21,2.36s.3.91.48,1.06c.18.14.41.21.69.21.86,0,2.19-.91,4-2.74l1.75,2.35c-1.06,1.17-2.2,2.1-3.43,2.81-1.23.7-2.31,1.06-3.24,1.06-1.39,0-2.39-.51-3.02-1.54s-.94-2.77-.94-5.24c0-1.14.14-2.66.43-4.56.29-1.83.43-3.34.43-4.53,0-.99-.07-1.77-.21-2.33-.14-.56-.31-.92-.5-1.07-.19-.15-.42-.23-.71-.23-1.06,0-3.92,2.18-8.59,6.54v14.6h-3.3v-11.43c-2.95,2.89-4.89,4.8-5.81,5.75l-2.25-2.18c3.13-3.17,5.81-5.82,8.06-7.96v-4.33h-7.43v-2.97Z"/>
      </g>
      <g>
        <path class="cls-1" d="m154.5,109.86c-.59-.11-1.16-.17-1.71-.17s-.97.11-1.2.34c-.23.22-.34.6-.34,1.13v.77h2.34v1.12h-2.34v5.88h-1.43v-5.88h-1.4v-1.12h1.4v-.77c0-.83.25-1.47.76-1.92.5-.45,1.24-.67,2.21-.67,1.17,0,2.23.14,3.19.42v9.94h-1.48v-9.07Z"/>
        <path class="cls-1" d="m159.23,112.54c.64-.68,1.49-1.02,2.54-1.02s1.9.34,2.54,1.02c.64.68.96,1.6.96,2.76s-.32,2.08-.96,2.76c-.64.68-1.49,1.02-2.54,1.02s-1.9-.34-2.54-1.02c-.64-.68-.96-1.6-.96-2.76s.32-2.08.96-2.76Zm1.03,4.72c.37.47.88.7,1.51.7s1.14-.23,1.51-.7c.37-.47.56-1.12.56-1.96s-.19-1.49-.56-1.96c-.37-.47-.88-.7-1.51-.7s-1.14.23-1.51.7c-.37.47-.56,1.12-.56,1.96s.19,1.49.56,1.96Z"/>
        <path class="cls-1" d="m168.65,111.65l1.32,6.02h.03l1.25-6.02h1.96l1.25,6.02h.03l1.32-6.02h1.51l-1.96,7.28h-1.89l-1.25-5.88h-.03l-1.25,5.88h-1.89l-1.96-7.28h1.57Z"/>
        <path class="cls-1" d="m184.92,112.54c.64-.68,1.49-1.02,2.54-1.02s1.9.34,2.54,1.02c.64.68.96,1.6.96,2.76s-.32,2.08-.96,2.76c-.64.68-1.49,1.02-2.54,1.02s-1.9-.34-2.54-1.02c-.64-.68-.96-1.6-.96-2.76s.32-2.08.96-2.76Zm1.03,4.72c.37.47.88.7,1.51.7s1.14-.23,1.51-.7c.37-.47.56-1.12.56-1.96s-.19-1.49-.56-1.96c-.37-.47-.88-.7-1.51-.7s-1.14.23-1.51.7c-.37.47-.56,1.12-.56,1.96s.19,1.49.56,1.96Z"/>
        <path class="cls-1" d="m192.91,113.05v-1.12h1.82v-.77c0-1.73.84-2.59,2.52-2.59.49,0,.95.07,1.4.21l-.28,1.12c-.32-.14-.64-.21-.98-.21-.46,0-.78.11-.96.33-.18.22-.27.6-.27,1.14v.77h2.35v1.12h-2.35v5.88h-1.43v-5.88h-1.82Z"/>
        <path class="cls-1" d="m208.77,111.93h2.63v1.12h-2.63v3.36c0,.61.08,1.02.24,1.23s.44.31.85.31c.47,0,.89-.08,1.26-.25l.21,1.09c-.53.19-1.09.28-1.68.28-.82,0-1.41-.18-1.77-.55-.36-.36-.54-.98-.54-1.83v-3.64h-1.54v-1.12h1.54v-2.66h1.43v2.66Z"/>
        <path class="cls-1" d="m218.88,111.51v1.18c-1.03,0-1.84.28-2.44.83-.6.56-.9,1.29-.9,2.19v3.22h-1.43v-7.28h1.36l.03,1.4h.03c.86-1.03,1.97-1.54,3.35-1.54Z"/>
        <path class="cls-1" d="m222.25,115.85c.03.65.25,1.17.68,1.55s.96.57,1.6.57c.7,0,1.4-.18,2.1-.53l.35,1.06c-.81.37-1.67.56-2.59.56-1.04,0-1.9-.34-2.57-1.03-.67-.69-1-1.6-1-2.75s.31-2.1.93-2.77c.62-.67,1.45-1.01,2.5-1.01s1.84.32,2.42.95c.58.63.87,1.55.87,2.76,0,.14,0,.35-.03.63h-5.26Zm0-1.09h3.93c0-.69-.18-1.22-.52-1.6-.34-.37-.81-.56-1.41-.56s-1.08.19-1.44.57c-.36.38-.55.91-.57,1.59Z"/>
        <path class="cls-1" d="m229.49,116.97c0-.81.34-1.46,1.03-1.95.69-.49,1.67-.73,2.96-.73h.7v-.07c0-.59-.12-1-.36-1.23-.24-.23-.66-.35-1.25-.35-.89,0-1.7.21-2.45.63l-.21-1.12c.78-.42,1.67-.63,2.66-.63,1.05,0,1.82.21,2.3.64.48.42.71,1.1.71,2.02v2.8c0,.66.07,1.32.21,1.96h-1.33c-.08-.41-.12-.78-.13-1.12h-.03c-.26.39-.62.7-1.08.92-.46.22-.98.34-1.56.34-.66,0-1.19-.19-1.58-.56-.39-.37-.59-.89-.59-1.54Zm4.69-1.65h-.7c-.84,0-1.49.14-1.94.43-.45.29-.68.67-.68,1.15,0,.35.1.62.31.82s.49.3.83.3c.59,0,1.1-.2,1.53-.61.43-.41.64-.9.64-1.49v-.6Z"/>
        <path class="cls-1" d="m240.99,111.93h2.63v1.12h-2.63v3.36c0,.61.08,1.02.24,1.23.16.21.44.31.85.31.47,0,.89-.08,1.26-.25l.21,1.09c-.53.19-1.09.28-1.68.28-.82,0-1.41-.18-1.77-.55-.36-.36-.54-.98-.54-1.83v-3.64h-1.54v-1.12h1.54v-2.66h1.43v2.66Z"/>
        <path class="cls-1" d="m247.67,111.65l.03.98h.03c.53-.75,1.14-1.12,1.83-1.12.89,0,1.54.42,1.95,1.26h.03c.55-.84,1.25-1.26,2.09-1.26.76,0,1.33.22,1.69.66.36.44.55,1.15.55,2.14v4.62h-1.37v-4.2c0-.82-.09-1.38-.27-1.67-.18-.29-.49-.43-.95-.43-.38,0-.72.21-1.02.62-.3.42-.45.91-.45,1.48v4.2h-1.37v-4.2c0-.82-.09-1.38-.27-1.67-.18-.29-.5-.43-.95-.43-.38,0-.72.21-1.02.62-.3.42-.45.91-.45,1.48v4.2h-1.4v-7.28h1.33Z"/>
        <path class="cls-1" d="m259.44,115.85c.03.65.25,1.17.68,1.55s.96.57,1.6.57c.7,0,1.4-.18,2.1-.53l.35,1.06c-.81.37-1.67.56-2.59.56-1.04,0-1.9-.34-2.57-1.03-.67-.69-1-1.6-1-2.75s.31-2.1.93-2.77c.62-.67,1.45-1.01,2.5-1.01s1.84.32,2.42.95c.58.63.87,1.55.87,2.76,0,.14,0,.35-.03.63h-5.26Zm0-1.09h3.93c0-.69-.18-1.22-.52-1.6-.34-.37-.81-.56-1.41-.56s-1.08.19-1.44.57c-.36.38-.55.91-.57,1.59Z"/>
        <path class="cls-1" d="m268.36,111.65l.03,1.05h.03c.3-.37.66-.67,1.08-.88s.86-.31,1.32-.31c1.59,0,2.38,1.07,2.38,3.22v4.2h-1.37v-4.06c0-.85-.11-1.43-.33-1.74-.22-.31-.61-.47-1.17-.47-.48,0-.91.24-1.3.71-.39.47-.59,1.02-.59,1.65v3.92h-1.4v-7.28h1.33Z"/>
        <path class="cls-1" d="m278.45,111.93h2.63v1.12h-2.63v3.36c0,.61.08,1.02.24,1.23.16.21.44.31.85.31.47,0,.89-.08,1.26-.25l.21,1.09c-.53.19-1.09.28-1.68.28-.82,0-1.41-.18-1.77-.55-.36-.36-.54-.98-.54-1.83v-3.64h-1.54v-1.12h1.54v-2.66h1.43v2.66Z"/>
      </g>
    </g>
  </g>
</svg>