<?xml version="1.0" encoding="UTF-8"?><svg id="_レイヤー_2" xmlns="http://www.w3.org/2000/svg" width="253.1467" height="205" viewBox="0 0 253.1467 205"><g id="_レイヤー_1-2"><g><path d="m13.3134,102.61c3.2734-6.1471,7.1737-12.0149,11.8116-17.221,4.4049-4.9445,9.769-9.9489,16.1673-12.104,6.853-2.3081,15.5458-1.3135,19.227,5.6219,2.9952,5.6433,2.3744,12.6597,1.6177,18.7658-.0899.7257,3.6994-.1957,4.0481-.9059,5.981-12.1817,16.1506-22.6408,28.6321-28.1852,3.9808-1.7683,8.4075-2.8667,12.7204-1.687,2.4937.6821,4.5705,2.2943,6.3587,4.1157,3.1145,3.1728,7.2773,9.1333,4.994,13.7768-.3357.6826,3.4608.1206,4.0201-.7195,3.7657-5.657,8.1223-11.297,13.92-15.0037,3.0447-1.9465,6.4001-3.1432,10.0452-3.077,4.2911.0779,8.5317,1.0482,12.7135,1.9189,15.7977,3.2896,31.971.1197,43.7017-7.3018,9.2362-5.8432,16.2135-13.7154,15.887-13.4428-9.3992,7.8501-21.3864,18.1275-43.2384,20.3647-8.1373.8332-15.8699-2.2724-23.9302-3.0414-6.3467-.6055-12.6052.9185-18.0181,4.2847-6.3039,3.9204-11.0381,9.9148-15.1008,16.0179,1.34-.2399,2.6801-.4798,4.0201-.7195,2.0217-4.1118-.7604-9.0515-3.2765-12.2711-3.1691-4.0554-7.0662-6.7116-12.2956-7.0294-12.1861-.7403-24.715,7.6078-33.017,15.8135-4.9706,4.913-9.0769,10.6341-12.1561,16.9056,1.3493-.3019,2.6987-.6039,4.0481-.9059.7054-5.6932,1.2473-11.9658-.9864-17.4056-2.2762-5.5433-7.41-8.3378-13.2406-8.6263-12.5-.6186-23.1301,6.6407-31.0241,15.6875-4.546,5.2098-8.4213,10.9949-11.6689,17.0935-.2893.5432,3.4674.318,4.0201-.7196h0Z" fill="#fff"/><polygon points="253.1467 0 245.1431 46.2959 229.9775 31.8832 253.1467 0" fill="#fff"/><polygon points="253.1467 0 208.7035 26.7071 218.905 29.2328 253.1467 0" fill="#fff"/><polygon points="253.1467 0 221.582 30.0063 224.9506 39.2992 229.7693 34.5333 226.7647 32.0606 253.1467 0" fill="#fff"/><g><path d="m31.5916,152.4879h-1.3261l-.3072-5.4607c-.0972-1.7354-.2262-3.9797-.2102-5.2222h-.0492c-.4044,1.3692-.9045,2.8662-1.5031,4.5537l-2.1988,6.0813h-.987l-2.0537-5.9534c-.5986-1.7514-1.0669-3.2804-1.406-4.6815h-.0492c-.032,1.4811-.129,3.4868-.2421,5.3501l-.3404,5.3328h-1.2769l.8567-12.1308h1.6493l2.1668,6.1612c.5174,1.5118.9218,2.801,1.245,4.0596h.0492c.3072-1.2266.7276-2.4999,1.2769-4.0596l2.248-6.1612h1.6813l.7768,12.1308Z" fill="#fff"/><path d="m38.1768,142.2831c-.5174,0-.8726-.3982-.8726-.907,0-.4941.3711-.8923.8885-.8923.5346,0,.8739.3982.8739.8923,0,.5568-.3724.907-.8899.907Zm.6797,10.2048h-1.3421v-8.6758h1.3421v8.6758Z" fill="#fff"/><path d="m48.7872,144.9256c-.1462-.016-.2914-.032-.4854-.032-1.4553,0-2.1988,1.4171-2.1988,2.8822v4.7121h-1.3421v-6.0813c0-.923-.016-1.7674-.0652-2.5945h1.1811l.0639,1.6715h.0491c.3873-1.0829,1.309-1.8633,2.393-1.8633.145,0,.2581.032.4044.048v1.2573Z" fill="#fff"/><path d="m59.6889,150.4182c0,.7165.016,1.4649.129,2.0697h-1.229l-.1291-1.1147h-.0491c-.4523.6845-1.3581,1.3052-2.6032,1.3052-1.6813,0-2.5712-1.2095-2.5712-2.4668,0-2.0857,1.8436-3.2163,5.1105-3.2005,0-.7325,0-2.388-2.0059-2.388-.7595,0-1.5523.2077-2.1507.6206l-.3233-.907c.7117-.462,1.6985-.7325,2.6842-.7325,2.4902,0,3.1378,1.7354,3.1378,3.4548v3.3591Zm-1.3261-2.436c-1.6654,0-3.7511.2398-3.7511,2.0698,0,1.1147.7105,1.6075,1.5192,1.6075,1.3101,0,2.2319-.987,2.2319-2.0377v-1.6396Z" fill="#fff"/><path d="m65.8526,142.2831c-.5175,0-.8727-.3982-.8727-.907,0-.4941.3711-.8923.8887-.8923.5346,0,.8738.3982.8738.8923,0,.5568-.3724.907-.8898.907Zm.6796,10.2048h-1.3421v-8.6758h1.3421v8.6758Z" fill="#fff"/><path d="m96.5002,152.4879h-1.3261l-.3072-5.4607c-.0972-1.7354-.2262-3.9797-.2102-5.2222h-.0492c-.4044,1.3692-.9045,2.8662-1.5031,4.5537l-2.1988,6.0813h-.987l-2.0537-5.9534c-.5986-1.7514-1.0669-3.2804-1.406-4.6815h-.0492c-.0318,1.4811-.129,3.4868-.242,5.3501l-.3404,5.3328h-1.277l.8567-12.1308h1.6493l2.1668,6.1612c.5174,1.5118.9218,2.801,1.2451,4.0596h.0491c.3073-1.2266.7276-2.4999,1.277-4.0596l2.2479-6.1612h1.6813l.7768,12.1308Z" fill="#fff"/><path d="m108.9886,152.1217c-.5015.2384-1.4233.5408-2.7654.5408-2.57,0-4.1063-1.7821-4.1063-4.3779,0-2.7224,1.5523-4.6803,3.9293-4.6803,2.7162,0,3.4118,2.452,3.4118,3.9637,0,.3036-.016.5261-.0331.7326h-5.999c.0171,2.404,1.4072,3.3122,2.9914,3.3122,1.1,0,1.7625-.2236,2.3131-.4462l.2581.955Zm-.8567-4.808c.016-1.1775-.4854-2.7064-2.2159-2.7064-1.6162,0-2.3278,1.5129-2.4569,2.7064h4.6729Z" fill="#fff"/><path d="m121.4905,150.3383c0,.7005.032,1.5609.0639,2.1496h-1.1959l-.0652-1.4809h-.048c-.4535.9082-1.4564,1.6715-2.8784,1.6715-2.0377,0-3.622-1.7343-3.622-4.4098,0-2.9289,1.7465-4.6483,3.7989-4.6483,1.2942,0,2.1668.6207,2.5712,1.3372h.0332v-5.2062h1.3421v10.587Zm-1.3421-3.0566c0-1.7354-1.2451-2.5945-2.377-2.5945-1.6653,0-2.6523,1.5276-2.6523,3.5188,0,1.8301.8726,3.3909,2.6031,3.3909,1.4553,0,2.4262-1.2585,2.4262-2.6437v-1.6715Z" fill="#fff"/><path d="m127.3961,142.2831c-.5175,0-.8727-.3982-.8727-.907,0-.4941.3711-.8923.8885-.8923.5348,0,.8739.3982.8739.8923,0,.5568-.3724.907-.8898.907Zm.6796,10.2048h-1.3421v-8.6758h1.3421v8.6758Z" fill="#fff"/><path d="m138.9602,152.1696c-.3871.1904-1.2609.4928-2.3929.4928-2.522,0-4.1874-1.7661-4.1874-4.4246,0-2.6757,1.7944-4.6336,4.5106-4.6336.987,0,1.7785.2864,2.1189.4621l-.3404,1.0669c-.3711-.2078-.9537-.4462-1.8104-.4462-2.0377,0-3.1046,1.6075-3.1046,3.4708,0,2.1016,1.277,3.4229,3.0566,3.4229.8727,0,1.4712-.2396,1.9075-.4302l.2421,1.0189Z" fill="#fff"/><path d="m149.8471,150.4182c0,.7165.016,1.4649.1291,2.0697h-1.2291l-.129-1.1147h-.0492c-.4523.6845-1.3581,1.3052-2.6032,1.3052-1.6813,0-2.5711-1.2095-2.5711-2.4668,0-2.0857,1.8435-3.2163,5.1103-3.2005,0-.7325,0-2.388-2.0057-2.388-.7597,0-1.5523.2077-2.1509.6206l-.3233-.907c.7117-.462,1.6987-.7325,2.6844-.7325,2.49,0,3.1377,1.7354,3.1377,3.4548v3.3591Zm-1.3261-2.436c-1.6653,0-3.7511.2398-3.7511,2.0698,0,1.1147.7105,1.6075,1.5192,1.6075,1.3101,0,2.2319-.987,2.2319-2.0377v-1.6396Z" fill="#fff"/><path d="m156.0428,152.4879h-1.3421v-12.7366h1.3421v12.7366Z" fill="#fff"/><path d="m179.3481,152.1217c-.5655.2703-1.6654.5408-3.0715.5408-3.1697,0-5.7249-2.0219-5.7249-6.1281,0-3.917,2.4741-6.3529,6.08-6.3529,1.4712,0,2.3291.3023,2.7163.4941l-.3553,1.1134c-.5666-.2703-1.3581-.4928-2.3291-.4928-2.7972,0-4.7047,1.8473-4.7047,5.1904,0,3.1832,1.7465,5.0624,4.6249,5.0624.9377,0,1.8595-.2077,2.4741-.4941l.2901,1.0669Z" fill="#fff"/><path d="m186.1606,152.4879h-1.3421v-12.7366h1.3421v12.7366Z" fill="#fff"/><path d="m192.4043,142.2831c-.5175,0-.8727-.3982-.8727-.907,0-.4941.3711-.8923.8887-.8923.5346,0,.8738.3982.8738.8923,0,.5568-.3724.907-.8898.907Zm.6796,10.2048h-1.3421v-8.6758h1.3421v8.6758Z" fill="#fff"/><path d="m206.3626,152.4879h-1.3421v-5.1263c0-1.4171-.5174-2.6584-2.0537-2.6584-1.148,0-2.312.955-2.312,2.4679v5.3169h-1.3421v-6.4475c0-.8911-.032-1.5437-.0651-2.2442h1.197l.0812,1.4159h.032c.4363-.8432,1.4551-1.6077,2.8292-1.6077,1.1001,0,2.9756.6527,2.9756,3.5987v5.2849Z" fill="#fff"/><path d="m212.8668,142.2831c-.5175,0-.8727-.3982-.8727-.907,0-.4941.3711-.8923.8887-.8923.5346,0,.8738.3982.8738.8923,0,.5568-.3724.907-.8898.907Zm.6796,10.2048h-1.3421v-8.6758h1.3421v8.6758Z" fill="#fff"/><path d="m224.7529,152.1696c-.3871.1904-1.2611.4928-2.393.4928-2.522,0-4.1873-1.7661-4.1873-4.4246,0-2.6757,1.7944-4.6336,4.5106-4.6336.9868,0,1.7785.2864,2.1189.4621l-.3404,1.0669c-.3713-.2078-.9539-.4462-1.8104-.4462-2.0378,0-3.1046,1.6075-3.1046,3.4708,0,2.1016,1.2769,3.4229,3.0566,3.4229.8727,0,1.4711-.2396,1.9075-.4302l.2421,1.0189Z" fill="#fff"/></g><g><path d="m13.3205,113.9105c-.8898,2.5367-1.7563,4.7318-2.6928,7.0007,1.3581.3404,3.1377.9746,4.4712,1.6088v-.1217l.0234-.1955v-3.0001c0-.2187-.0234-.5358-.0701-.8037l-.0467-.3417v-.0738l3.0899.2445c-.0701.4142-.1168.8051-.1168,1.2193v1.9025c0,.8776-.0701,1.6826-.1868,2.5847,1.0766.6342,1.615.9759,2.1298,1.3421.3515.2434.6318.4142.8665.4867l-1.5216,2.9522c-.3281-.44-.3982-.5125-1.6862-1.6838l-.2569-.2187-.2581-.2445c-1.1701,2.6105-3.1131,4.1713-6.2497,5.0489-.4449.1217-.6796.22-.9132.3417l-.4216-.9021c2.6217-.3909,4.8229-2.9031,5.4079-6.2202-1.4749-1.1455-3.2312-2.146-4.7761-2.6818-1.2168,2.8048-2.2234,4.8523-2.8784,5.902-1.0066,1.6088-2.2479,2.4139-3.6528,2.4139-2.1532,0-3.5814-1.5118-3.5814-3.804,0-2.0242,1.03-3.8776,2.833-4.9752,1.1701-.7325,2.3647-1.0496,4.0964-1.1221h.7252l.4449-1.1713c1.1245-2.8526,1.5916-4.1702,1.9898-5.4876h-5.3598c-.5864,0-.7264.0245-1.4049.0983v-1.1713c.515.0738.9599.0984,1.4049.0984h8.6377l-.0467.9746Zm-6.9527,7.6102c-2.9964,0-5.4311,2.3169-5.4311,5.1215,0,1.3901.7018,2.3905,1.6617,2.3905,1.1246,0,1.9665-1.3176,4.3312-6.8052l.3048-.6834-.8665-.0234Z" fill="#fff"/><path d="m28.7438,125.7155c.2114-.5616.8665-6.7069,1.1-10.2441l3.0911.3662c-.0946.3172-.1181.4634-.1413.6096-.0234.1217-.0234.1708-.0701.6834-.1401,1.5854-.5383,4.8043-.7952,6.4143,1.8951-2.1471,4.3066-3.2201,7.3264-3.2201,4.3312,0,6.8593,1.9272,6.8593,5.2198,0,2.3167-.9599,3.9515-3.0198,5.0723-2.0133,1.1221-4.2612,1.5609-8.1929,1.5854-.515.0247-.5629.0247-.8898.0492l-.2114-1.0004c.3048.0491.6096.0738.8898.0738,2.0599,0,4.4013-.6342,5.8295-1.561,1.4982-.9758,2.27-2.3905,2.27-4.2193,0-2.5614-1.7318-4.1702-4.4947-4.1702-2.2234,0-4.8216,1.4872-6.1563,3.536-.2815.4142-.4683.805-.5617,1.1467l-2.833-.3417Zm10.3707-9.122c-1.7796-1.658-5.3844-3.6098-7.491-4.0485l.6785-1.4393c.2113.0984.3982.1464.8431.2447,2.5749.6096,6.3443,1.9025,7.4677,2.5847l-1.4983,2.6584Z" fill="#fff"/><path d="m64.6284,124.7888c-.2114.2679-.2814.4634-.4449,1.0484-.4683,1.561-1.3114,3.4635-1.9198,4.2439-.6785.8776-1.4749,1.3409-2.3414,1.3409-1.4048,0-2.7149-1.1701-3.5814-3.2434-1.1934-2.8293-1.6383-6.0727-1.6383-11.95v-.7079c0-.6342-.0234-1.0484-.0701-1.4393l3.2533.22c-.0701.2925-.1168,1.0976-.1168,1.7072v1.4391c.0467,4.5844.2814,6.6578.9599,8.6329.5851,1.6591,1.3114,2.4875,2.1532,2.4875.6563,0,1.1713-.4633,1.8731-1.7796.515-.9267.7252-1.4884.9366-2.5367l.9365.537Zm6.2964,2.8526c-.1167-4.2918-2.3634-9.852-4.658-11.5113l1.1233-.9992c.0468.048.0701.097.1413.1462.0234.0234.1402.1217.327.2925,3.2779,2.9264,5.1743,5.951,6.2976,10.0242.0467.1695.0701.2679.1869.7067l.07.22-3.4881,1.1209Z" fill="#fff"/><path d="m98.5232,115.008c.8665,0,1.1468,0,1.7564-.0725-.0946.5604-.1181.9759-.1181,1.8288v13.8048c0,1.2918-.5617,2.0242-1.5916,2.0242-.7486,0-2.8551-.4154-4.2599-.8296l-1.0066-.1955-.1647-1.1221c1.0779.1475,2.0845.22,2.833.22.6318,0,.8198-.1953.8198-.8775v-5.1953l-2.2947,2.6831-.5383-.9267c-1.3348-2.1472-2.0599-4.6581-2.2946-7.9508-.7252,3.6576-2.4815,6.316-5.7114,8.6082l-.5384.5125-.6317-.7804.6317-.5125c2.1067-2.5847,3.1832-5.8528,3.3-10.2429h-4.1431v15.2428c0,.44.0234.7325.1168,1.4637h-3.6049l.0234-.2433c.07-.5371.0934-.7804.0934-1.2204v-14.4624c0-.9021-.0234-1.1699-.1168-1.8288.4449.0492.9132.0725,1.7563.0725h5.9461v-2.8047c0-.4879,0-.5604-.1179-1.4626h3.5593c-.0946.7313-.1179,1.0238-.1179,1.4626v2.8047h6.4143Zm-6.2263.9759c.3268,3.0973,1.7785,5.951,3.9797,7.829l.515.3896v-8.2187h-4.4947Z" fill="#fff"/><path d="m109.8268,124.1301c-.7952,1.8043-1.755,3.5606-2.6682,4.8781l-.3982.7312-.7719-.585.4683-.6096c1.2867-2.7814,2.3167-6.1957,2.7849-9.2929v-.097l.0234-.0738h-1.5216c-.585,0-.7252.0245-1.4048.0983v-1.1713c.515.0738.9599.0983,1.4048.0983h2.0833v-3.3172c-.842.1217-1.3802.1955-2.4815.2925l-.8186.1709-.3048-.8542.9366-.2189c1.8964-.6095,3.9797-1.6838,5.2664-2.7567l.7497-.6576,2.5983,2.8048-.9832.2433c-.7953.22-1.2636.3172-2.0133.4879l-.1868.0245v3.7806h1.3581c.5383,0,.8186-.0245,1.4035-.0983v1.1713c-.585-.0738-.8653-.0983-1.4035-.0983h-1.3581v1.5363c.7252.5862,2.2001,1.9516,3.2299,2.9509l.6096.4879-2.3647,2.1225-.2114-.9021c-.2335-.8787-.6317-1.9763-1.2635-3.4881v9.438c0,.44.0234.7325.1168,1.4637h-2.9965l.0234-.2433c.07-.5371.0934-.7804.0934-1.2204v-7.0966Zm12.2672-11.3171c0-.4867,0-.5604-.1168-1.4626h3.2533c-.0935.7312-.1168,1.0238-.1168,1.4626v11.4634l1.5216-.3172,1.0299-.3416.1869,1.1467-1.0534.1708-1.6849.3417v5.9499c0,.44.0233.7325.1168,1.4637h-3.2533l.0233-.2433c.0701-.5371.0935-.7804.0935-1.2204v-5.3157l-5.3612,1.1209-1.1.2926-.2347-1.1455,1.0778-.1462,5.618-1.1467v-12.073Zm-4.8696,6.2682l.6785.3662c1.1946.6342,1.7796.9512,2.5994,1.4871l.8186.3909-2.1999,2.8772-.3749-.8284c-.4449-.8542-.9599-1.6826-1.8264-3.0001l-.3036-.4634-.5617-.585.6084-.7079.5617.4634Zm.4916-5.8528c1.2647.6587,2.1767,1.1946,3.2779,1.9258l.8186.3909-2.2234,2.7801-.4215-.9021c-.5851-1.0976-1.3581-2.2922-2.1067-3.3418l-.5616-.585.585-.7068.6317.4389Z" fill="#fff"/><path d="m152.6407,116.301c-1.5215,8.9266-5.8293,13.6093-14.3269,15.6336-.3982.097-.7497.1953-1.0066.3416l-.3282-1.0004c2.0132-.097,5.4079-2.0967,7.421-4.341,2.5282-2.7556,4.0263-6.0973,4.6114-10.3167h-6.648c-1.5916,2.951-3.3246,4.6102-6.6946,6.3652-.3281.1709-.6096.3664-.7731.5371l-.5383-.8542c1.0066-.1942,2.833-2.146,4.073-4.2919,1.1468-1.9025,2.1067-4.8289,2.2246-6.6823l3.4401.7804-.1401.3404c-.0234.0738-.0701.22-.1401.3908l-.0935.2926c-.2814.805-.4916,1.2929-.8664,2.1458h9.9024l-.1168.6588Z" fill="#fff"/><path d="m161.1593,124.7888c.0701-.4387.1168-.805.1168-1.2204v-9.8041c0-.4389-.0234-.7313-.1168-1.2193h3.1832c-.0701.3909-.1168.8296-.1168,1.2193v9.8041c0,.4154.0467.8296.1168,1.2204h-3.1832Zm3.0665,6.6086c2.1767-.2679,4.3312-1.4871,5.7828-3.2926,1.2867-1.5843,1.7316-3.2435,1.7316-6.5607v-7.974c0-.4401-.0233-.7326-.1167-1.2205h3.3713c-.0714.3909-.1181.8296-.1181,1.2205v7.9986c0,6.122-2.4581,8.9266-9.1761,10.4875-.3982.0738-.6318.1709-1.0767.3662l-.3982-1.025Z" fill="#fff"/><path d="m202.0769,129.5686c-.4682-.0972-.7485-.1217-1.1701-.1217h-16.3402c-.3982,0-.7485.0492-1.1701.1217v-3.2681c.3737.0738.7953.1217,1.1701.1217h16.3402c.3749,0,.7953-.048,1.1701-.1217v3.2681Zm-1.9665-12.4626c-.4682-.097-.7485-.1217-1.1701-.1217h-12.4306c-.3982,0-.7497.048-1.1701.1217v-1.5609c.3737.0725.7952.1217,1.1701.1217h12.4306c.3749,0,.7953-.0492,1.1701-.1217v1.5609Z" fill="#fff"/><path d="m211.7434,125.0567c-.0234-1.4884-1.4282-5.4876-2.1312-6.0727l.9833-.7079c1.6162,1.9763,2.8096,4.0252,3.3246,5.7568l-2.1767,1.0238Zm.8186,5.7065c2.0844.0983,5.4778-2.2922,6.9293-4.8769,1.0767-1.7072,1.9432-4.9752,1.9432-7.2194l2.7862.4633c-.0934.3662-.1413.5851-.2113,1.0976-1.2635,6.6577-4.1431,9.8041-10.3461,11.2926-.4683.1216-.6096.1695-.7731.2678l-.3281-1.025Zm3.5113-6.4624c-.0467-1.7563-1.1-5.1214-1.8951-6.0727l1.0766-.6095c.0701.1708.1168.2187.3749.585,1.2168,1.6826,2.4335,4.024,2.6682,5.0723l-2.2246,1.025Z" fill="#fff"/><path d="m249.0795,116.301c-1.5216,8.9266-5.8293,13.6093-14.3271,15.6336-.3982.097-.7497.1953-1.0066.3416l-.3281-1.0004c2.0132-.097,5.4077-2.0967,7.4209-4.341,2.5282-2.7556,4.0265-6.0973,4.6114-10.3167h-6.6479c-1.5917,2.951-3.3246,4.6102-6.6947,6.3652-.3281.1709-.6095.3664-.773.5371l-.5383-.8542c1.0066-.1942,2.8329-2.146,4.073-4.2919,1.1467-1.9025,2.1066-4.8289,2.2246-6.6823l3.4401.7804-.1402.3404c-.0233.0738-.07.22-.1401.3908l-.0934.2926c-.2814.805-.4916,1.2929-.8665,2.1458h9.9025l-.1168.6588Z" fill="#fff"/></g></g><g><g><path d="m57.5963,195.8921c-1.1958,0-2.0801-.5093-2.6519-1.5283h-.0312l-.0156,1.3726h-1.0918v-11.7002h1.1387v4.9141h.0312c.5718-.9878,1.4453-1.4819,2.6206-1.4819,1.0195,0,1.8198.3613,2.4028,1.0845.582.7227.8735,1.7651.8735,3.1274,0,1.3418-.2964,2.3794-.8892,3.1123-.5928.7334-1.3887,1.0996-2.3872,1.0996Zm2.1528-4.2119c0-1.0605-.2104-1.8721-.6318-2.4336-.4209-.5615-1.0112-.8423-1.7705-.8423-.707,0-1.2847.2808-1.7314.8423-.4473.5615-.6709,1.3364-.6709,2.3247v.2183c0,1.0088.2236,1.7891.6709,2.3398.4468.5513,1.0244.8271,1.7314.8271.7383,0,1.3232-.2837,1.7554-.8506.4312-.5664.647-1.375.647-2.4258Z" fill="#fff"/><path d="m64.1481,192.1172c.021.8838.291,1.5811.811,2.0903.52.5098,1.1963.7646,2.0283.7646.8008,0,1.5962-.208,2.3867-.624l.312.8892c-.8735.4365-1.8096.6548-2.8081.6548-1.165,0-2.106-.3794-2.8237-1.1387-.7173-.7588-1.0762-1.7832-1.0762-3.0732,0-1.3101.3354-2.3398,1.0063-3.0889.6704-.7485,1.583-1.123,2.7378-1.123,1.123,0,1.9941.3564,2.6128,1.0688s.9282,1.7339.9282,3.0654c0,.1353-.0103.3066-.0312.5146h-6.084Zm0-.9048h4.9922c-.0107-.9048-.229-1.6016-.6553-2.0903-.4268-.4888-1.0142-.7334-1.7627-.7334-.7803,0-1.3965.2471-1.8486.7412-.4526.4941-.6943,1.188-.7256,2.0825Z" fill="#fff"/><path d="m75.879,187.4683c1.1338,0,1.9448.2339,2.4336.7021.4888.4678.7334,1.2378.7334,2.3086v3.0732c0,.7388.0781,1.4663.2339,2.1841h-1.0918c-.0835-.4058-.1353-.8838-.1562-1.4351h-.0312c-.2808.499-.686.8892-1.2168,1.1699-.5303.2808-1.1284.4209-1.7939.4209-.7485,0-1.3467-.2104-1.7939-.6313-.4473-.4214-.6709-.9907-.6709-1.7085,0-.9048.3955-1.6245,1.186-2.1606.79-.5352,1.9131-.8032,3.3691-.8032h.8271v-.0781c0-.79-.1484-1.3389-.4448-1.6455s-.8242-.4604-1.5835-.4604c-.9775,0-1.8872.2393-2.73.7178l-.2026-.9204c.8945-.4888,1.8721-.7334,2.9326-.7334Zm-2.2305,6.0371c0,.4683.1455.835.4365,1.1001s.6812.3975,1.1699.3975c.7178,0,1.3394-.2573,1.8643-.772.5254-.5146.7881-1.1465.7881-1.8955v-.8735h-.8271c-1.0918,0-1.937.1846-2.5347.5537-.5981.3691-.897.8657-.897,1.4897Z" fill="#fff"/><path d="m83.2892,187.6245v5.0386c0,.832.1377,1.4146.4131,1.7471.2754.333.7358.4995,1.3809.4995.603,0,1.1519-.291,1.6455-.8735.4941-.5825.7412-1.2739.7412-2.0752v-4.3364h1.1387v8.1118h-1.0918l-.0156-1.4507h-.0312c-.312.499-.71.8916-1.1934,1.1777-.4834.2856-1.0063.4287-1.5679.4287-.8735,0-1.5156-.2466-1.9268-.7407-.4106-.4937-.6162-1.2871-.6162-2.3789v-5.1479h1.1235Z" fill="#fff"/><path d="m94.3029,184.9722v2.9644h3.0732v.936h-3.0732v4.2588c0,.728.0986,1.2144.2964,1.4585.1973.2441.5664.3667,1.1074.3667.4785,0,.936-.0884,1.373-.2656l.187.9204c-.5303.1875-1.1025.2808-1.7158.2808-.8843,0-1.5083-.1895-1.8721-.5693-.3643-.3794-.5459-1.0371-.5459-1.9731v-4.4771h-1.7944v-.936h1.7944v-2.9644h1.1699Z" fill="#fff"/><path d="m101.1354,187.6245l2.418,6.6768h.0312l2.6675-6.6768h1.2168l-4.8359,11.5439h-1.2168l1.5288-3.479-3.0732-8.0649h1.2637Z" fill="#fff"/><path d="m117.8429,184.9722v2.9644h3.0732v.936h-3.0732v4.2588c0,.728.0986,1.2144.2964,1.4585.1973.2441.5664.3667,1.1074.3667.4785,0,.936-.0884,1.373-.2656l.187.9204c-.5303.1875-1.1025.2808-1.7158.2808-.8843,0-1.5083-.1895-1.8721-.5693-.3643-.3794-.5459-1.0371-.5459-1.9731v-4.4771h-1.7944v-.936h1.7944v-2.9644h1.1699Z" fill="#fff"/><path d="m124.0362,187.6245h1.1079l.0308,1.7314h.0312c.915-1.2583,2.2051-1.8877,3.8691-1.8877v.9829c-1.1548,0-2.0884.3174-2.8003.9517-.7124.6343-1.0688,1.4561-1.0688,2.4648v3.8687h-1.1699v-8.1118Z" fill="#fff"/><path d="m132.5065,192.1172c.021.8838.291,1.5811.811,2.0903.52.5098,1.1963.7646,2.0283.7646.8008,0,1.5962-.208,2.3867-.624l.312.8892c-.8735.4365-1.8096.6548-2.8081.6548-1.165,0-2.106-.3794-2.8237-1.1387-.7173-.7588-1.0762-1.7832-1.0762-3.0732,0-1.3101.3354-2.3398,1.0063-3.0889.6704-.7485,1.583-1.123,2.7378-1.123,1.123,0,1.9941.3564,2.6128,1.0688s.9282,1.7339.9282,3.0654c0,.1353-.0103.3066-.0312.5146h-6.084Zm0-.9048h4.9922c-.0107-.9048-.229-1.6016-.6553-2.0903-.4268-.4888-1.0142-.7334-1.7627-.7334-.7803,0-1.3965.2471-1.8486.7412-.4526.4941-.6943,1.188-.7256,2.0825Z" fill="#fff"/><path d="m144.2369,187.4683c1.1338,0,1.9448.2339,2.4336.7021.4888.4678.7334,1.2378.7334,2.3086v3.0732c0,.7388.0781,1.4663.2339,2.1841h-1.0918c-.0835-.4058-.1353-.8838-.1562-1.4351h-.0312c-.2808.499-.686.8892-1.2168,1.1699-.5303.2808-1.1284.4209-1.7939.4209-.7485,0-1.3467-.2104-1.7939-.6313-.4473-.4214-.6709-.9907-.6709-1.7085,0-.9048.3955-1.6245,1.186-2.1606.79-.5352,1.9131-.8032,3.3691-.8032h.8271v-.0781c0-.79-.1484-1.3389-.4448-1.6455s-.8242-.4604-1.5835-.4604c-.9775,0-1.8872.2393-2.73.7178l-.2026-.9204c.8945-.4888,1.8721-.7334,2.9326-.7334Zm-2.2305,6.0371c0,.4683.1455.835.4365,1.1001s.6812.3975,1.1699.3975c.7178,0,1.3394-.2573,1.8643-.772.5254-.5146.7881-1.1465.7881-1.8955v-.8735h-.8271c-1.0918,0-1.937.1846-2.5347.5537-.5981.3691-.897.8657-.897,1.4897Z" fill="#fff"/><path d="m153.1764,184.9722v2.9644h3.0732v.936h-3.0732v4.2588c0,.728.0986,1.2144.2964,1.4585.1973.2441.5664.3667,1.1074.3667.4785,0,.936-.0884,1.373-.2656l.187.9204c-.5303.1875-1.1025.2808-1.7158.2808-.8843,0-1.5083-.1895-1.8721-.5693-.3643-.3794-.5459-1.0371-.5459-1.9731v-4.4771h-1.7944v-.936h1.7944v-2.9644h1.1699Z" fill="#fff"/><path d="m159.3693,187.6245h1.0923l.0156,1.3413h.0308c.5723-.9985,1.2847-1.4976,2.1372-1.4976,1.04,0,1.7681.52,2.1841,1.5601h.0312c.5513-1.04,1.3364-1.5601,2.3555-1.5601.8428,0,1.4614.2471,1.8564.7412.3955.4941.5928,1.2866.5928,2.3789v5.1479h-1.123v-4.8359c0-.9463-.1196-1.5991-.3589-1.958s-.645-.5381-1.2168-.5381c-.499,0-.936.2495-1.3101.749-.3745.499-.562,1.1074-.562,1.8252v4.7578h-1.123v-4.8359c0-.936-.1226-1.5859-.3667-1.9502-.2441-.3638-.6528-.5459-1.2246-.5459-.4678,0-.897.2729-1.2866.8188-.3901.5464-.5854,1.1987-.5854,1.958v4.5552h-1.1387v-8.1118Z" fill="#fff"/><path d="m173.3317,192.1172c.021.8838.291,1.5811.811,2.0903.52.5098,1.1963.7646,2.0283.7646.8008,0,1.5962-.208,2.3867-.624l.312.8892c-.8735.4365-1.8096.6548-2.8081.6548-1.165,0-2.106-.3794-2.8237-1.1387-.7173-.7588-1.0762-1.7832-1.0762-3.0732,0-1.3101.3354-2.3398,1.0063-3.0889.6704-.7485,1.583-1.123,2.7378-1.123,1.123,0,1.9941.3564,2.6128,1.0688s.9282,1.7339.9282,3.0654c0,.1353-.0103.3066-.0312.5146h-6.084Zm0-.9048h4.9922c-.0107-.9048-.229-1.6016-.6553-2.0903-.4268-.4888-1.0142-.7334-1.7627-.7334-.7803,0-1.3965.2471-1.8486.7412-.4526.4941-.6943,1.188-.7256,2.0825Z" fill="#fff"/><path d="m182.0983,187.6245h1.0923l.0156,1.4507h.0308c.312-.499.71-.8916,1.1938-1.1777.4834-.2861,1.0059-.4292,1.5674-.4292.915,0,1.5938.2837,2.0361.8501.4419.5669.6631,1.4644.6631,2.6914v4.7266h-1.1235v-4.6333c0-1.0083-.1455-1.708-.4365-2.0981-.2915-.3901-.7905-.585-1.4976-.585-.6035,0-1.1548.2993-1.6538.897-.499.5981-.749,1.2925-.749,2.0825v4.3369h-1.1387v-8.1118Z" fill="#fff"/><path d="m194.3136,184.9722v2.9644h3.0732v.936h-3.0732v4.2588c0,.728.0986,1.2144.2964,1.4585.1973.2441.5664.3667,1.1074.3667.4785,0,.936-.0884,1.373-.2656l.187.9204c-.5303.1875-1.1025.2808-1.7158.2808-.8843,0-1.5083-.1895-1.8721-.5693-.3643-.3794-.5459-1.0371-.5459-1.9731v-4.4771h-1.7944v-.936h1.7944v-2.9644h1.1699Z" fill="#fff"/></g><rect x="32.4031" y="175.5245" width="188.3406" height="28.9755" rx="13" ry="13" fill="none" stroke="#fff" stroke-miterlimit="10"/></g></g></svg>