<?xml version="1.0" encoding="UTF-8"?><svg id="_レイヤー_2" xmlns="http://www.w3.org/2000/svg" viewBox="0 0 253.15 152.68"><defs><style>.cls-1{fill:#fff;}</style></defs><g id="_レイヤー_1-2"><g><path class="cls-1" d="m13.31,102.61c3.27-6.15,7.17-12.01,11.81-17.22,4.4-4.94,9.77-9.95,16.17-12.1,6.85-2.31,15.55-1.31,19.23,5.62,3,5.64,2.37,12.66,1.62,18.77-.09.73,3.7-.2,4.05-.91,5.98-12.18,16.15-22.64,28.63-28.19,3.98-1.77,8.41-2.87,12.72-1.69,2.49.68,4.57,2.29,6.36,4.12,3.11,3.17,7.28,9.13,4.99,13.78-.34.68,3.46.12,4.02-.72,3.77-5.66,8.12-11.3,13.92-15,3.04-1.95,6.4-3.14,10.05-3.08,4.29.08,8.53,1.05,12.71,1.92,15.8,3.29,31.97.12,43.7-7.3,9.24-5.84,16.21-13.72,15.89-13.44-9.4,7.85-21.39,18.13-43.24,20.36-8.14.83-15.87-2.27-23.93-3.04-6.35-.61-12.61.92-18.02,4.28-6.3,3.92-11.04,9.91-15.1,16.02,1.34-.24,2.68-.48,4.02-.72,2.02-4.11-.76-9.05-3.28-12.27-3.17-4.06-7.07-6.71-12.3-7.03-12.19-.74-24.71,7.61-33.02,15.81-4.97,4.91-9.08,10.63-12.16,16.91,1.35-.3,2.7-.6,4.05-.91.71-5.69,1.25-11.97-.99-17.41-2.28-5.54-7.41-8.34-13.24-8.63-12.5-.62-23.13,6.64-31.02,15.69-4.55,5.21-8.42,10.99-11.67,17.09-.29.54,3.47.32,4.02-.72h0Z"/><polygon class="cls-1" points="253.15 0 245.14 46.3 229.98 31.88 253.15 0"/><polygon class="cls-1" points="253.15 0 208.7 26.71 218.91 29.23 253.15 0"/><polygon class="cls-1" points="253.15 0 221.58 30.01 224.95 39.3 229.77 34.53 226.76 32.06 253.15 0"/><g><path class="cls-1" d="m31.59,152.49h-1.33l-.31-5.46c-.1-1.74-.23-3.98-.21-5.22h-.05c-.4,1.37-.9,2.87-1.5,4.55l-2.2,6.08h-.99l-2.05-5.95c-.6-1.75-1.07-3.28-1.41-4.68h-.05c-.03,1.48-.13,3.49-.24,5.35l-.34,5.33h-1.28l.86-12.13h1.65l2.17,6.16c.52,1.51.92,2.8,1.24,4.06h.05c.31-1.23.73-2.5,1.28-4.06l2.25-6.16h1.68l.78,12.13Z"/><path class="cls-1" d="m38.18,142.28c-.52,0-.87-.4-.87-.91s.37-.89.89-.89.87.4.87.89c0,.56-.37.91-.89.91Zm.68,10.2h-1.34v-8.68h1.34v8.68Z"/><path class="cls-1" d="m48.79,144.93c-.15-.02-.29-.03-.49-.03-1.46,0-2.2,1.42-2.2,2.88v4.71h-1.34v-6.08c0-.92-.02-1.77-.07-2.59h1.18l.06,1.67h.05c.39-1.08,1.31-1.86,2.39-1.86.14,0,.26.03.4.05v1.26Z"/><path class="cls-1" d="m59.69,150.42c0,.72.02,1.46.13,2.07h-1.23l-.13-1.11h-.05c-.45.68-1.36,1.31-2.6,1.31-1.68,0-2.57-1.21-2.57-2.47,0-2.09,1.84-3.22,5.11-3.2,0-.73,0-2.39-2.01-2.39-.76,0-1.55.21-2.15.62l-.32-.91c.71-.46,1.7-.73,2.68-.73,2.49,0,3.14,1.74,3.14,3.45v3.36Zm-1.33-2.44c-1.67,0-3.75.24-3.75,2.07,0,1.11.71,1.61,1.52,1.61,1.31,0,2.23-.99,2.23-2.04v-1.64Z"/><path class="cls-1" d="m65.85,142.28c-.52,0-.87-.4-.87-.91s.37-.89.89-.89.87.4.87.89c0,.56-.37.91-.89.91Zm.68,10.2h-1.34v-8.68h1.34v8.68Z"/><path class="cls-1" d="m96.5,152.49h-1.33l-.31-5.46c-.1-1.74-.23-3.98-.21-5.22h-.05c-.4,1.37-.9,2.87-1.5,4.55l-2.2,6.08h-.99l-2.05-5.95c-.6-1.75-1.07-3.28-1.41-4.68h-.05c-.03,1.48-.13,3.49-.24,5.35l-.34,5.33h-1.28l.86-12.13h1.65l2.17,6.16c.52,1.51.92,2.8,1.25,4.06h.05c.31-1.23.73-2.5,1.28-4.06l2.25-6.16h1.68l.78,12.13Z"/><path class="cls-1" d="m108.99,152.12c-.5.24-1.42.54-2.77.54-2.57,0-4.11-1.78-4.11-4.38s1.55-4.68,3.93-4.68c2.72,0,3.41,2.45,3.41,3.96,0,.3-.02.53-.03.73h-6c.02,2.4,1.41,3.31,2.99,3.31,1.1,0,1.76-.22,2.31-.45l.26.95Zm-.86-4.81c.02-1.18-.49-2.71-2.22-2.71-1.62,0-2.33,1.51-2.46,2.71h4.67Z"/><path class="cls-1" d="m121.49,150.34c0,.7.03,1.56.06,2.15h-1.2l-.07-1.48h-.05c-.45.91-1.46,1.67-2.88,1.67-2.04,0-3.62-1.73-3.62-4.41,0-2.93,1.75-4.65,3.8-4.65,1.29,0,2.17.62,2.57,1.34h.03v-5.21h1.34v10.59Zm-1.34-3.06c0-1.74-1.25-2.59-2.38-2.59-1.67,0-2.65,1.53-2.65,3.52,0,1.83.87,3.39,2.6,3.39,1.46,0,2.43-1.26,2.43-2.64v-1.67Z"/><path class="cls-1" d="m127.4,142.28c-.52,0-.87-.4-.87-.91s.37-.89.89-.89.87.4.87.89c0,.56-.37.91-.89.91Zm.68,10.2h-1.34v-8.68h1.34v8.68Z"/><path class="cls-1" d="m138.96,152.17c-.39.19-1.26.49-2.39.49-2.52,0-4.19-1.77-4.19-4.42s1.79-4.63,4.51-4.63c.99,0,1.78.29,2.12.46l-.34,1.07c-.37-.21-.95-.45-1.81-.45-2.04,0-3.1,1.61-3.1,3.47,0,2.1,1.28,3.42,3.06,3.42.87,0,1.47-.24,1.91-.43l.24,1.02Z"/><path class="cls-1" d="m149.85,150.42c0,.72.02,1.46.13,2.07h-1.23l-.13-1.11h-.05c-.45.68-1.36,1.31-2.6,1.31-1.68,0-2.57-1.21-2.57-2.47,0-2.09,1.84-3.22,5.11-3.2,0-.73,0-2.39-2.01-2.39-.76,0-1.55.21-2.15.62l-.32-.91c.71-.46,1.7-.73,2.68-.73,2.49,0,3.14,1.74,3.14,3.45v3.36Zm-1.33-2.44c-1.67,0-3.75.24-3.75,2.07,0,1.11.71,1.61,1.52,1.61,1.31,0,2.23-.99,2.23-2.04v-1.64Z"/><path class="cls-1" d="m156.04,152.49h-1.34v-12.74h1.34v12.74Z"/><path class="cls-1" d="m179.35,152.12c-.57.27-1.67.54-3.07.54-3.17,0-5.72-2.02-5.72-6.13s2.47-6.35,6.08-6.35c1.47,0,2.33.3,2.72.49l-.36,1.11c-.57-.27-1.36-.49-2.33-.49-2.8,0-4.7,1.85-4.7,5.19s1.75,5.06,4.62,5.06c.94,0,1.86-.21,2.47-.49l.29,1.07Z"/><path class="cls-1" d="m186.16,152.49h-1.34v-12.74h1.34v12.74Z"/><path class="cls-1" d="m192.4,142.28c-.52,0-.87-.4-.87-.91s.37-.89.89-.89.87.4.87.89c0,.56-.37.91-.89.91Zm.68,10.2h-1.34v-8.68h1.34v8.68Z"/><path class="cls-1" d="m206.36,152.49h-1.34v-5.13c0-1.42-.52-2.66-2.05-2.66-1.15,0-2.31.95-2.31,2.47v5.32h-1.34v-6.45c0-.89-.03-1.54-.07-2.24h1.2l.08,1.42h.03c.44-.84,1.46-1.61,2.83-1.61,1.1,0,2.98.65,2.98,3.6v5.28Z"/><path class="cls-1" d="m212.87,142.28c-.52,0-.87-.4-.87-.91s.37-.89.89-.89.87.4.87.89c0,.56-.37.91-.89.91Zm.68,10.2h-1.34v-8.68h1.34v8.68Z"/><path class="cls-1" d="m224.75,152.17c-.39.19-1.26.49-2.39.49-2.52,0-4.19-1.77-4.19-4.42s1.79-4.63,4.51-4.63c.99,0,1.78.29,2.12.46l-.34,1.07c-.37-.21-.95-.45-1.81-.45-2.04,0-3.1,1.61-3.1,3.47,0,2.1,1.28,3.42,3.06,3.42.87,0,1.47-.24,1.91-.43l.24,1.02Z"/></g><g><path class="cls-1" d="m13.32,113.91c-.89,2.54-1.76,4.73-2.69,7,1.36.34,3.14.97,4.47,1.61v-.12l.02-.2v-3c0-.22-.02-.54-.07-.8l-.05-.34v-.07l3.09.24c-.07.41-.12.81-.12,1.22v1.9c0,.88-.07,1.68-.19,2.58,1.08.63,1.61.98,2.13,1.34.35.24.63.41.87.49l-1.52,2.95c-.33-.44-.4-.51-1.69-1.68l-.26-.22-.26-.24c-1.17,2.61-3.11,4.17-6.25,5.05-.44.12-.68.22-.91.34l-.42-.9c2.62-.39,4.82-2.9,5.41-6.22-1.47-1.15-3.23-2.15-4.78-2.68-1.22,2.8-2.22,4.85-2.88,5.9-1.01,1.61-2.25,2.41-3.65,2.41-2.15,0-3.58-1.51-3.58-3.8,0-2.02,1.03-3.88,2.83-4.98,1.17-.73,2.36-1.05,4.1-1.12h.73l.44-1.17c1.12-2.85,1.59-4.17,1.99-5.49h-5.36c-.59,0-.73.02-1.4.1v-1.17c.51.07.96.1,1.4.1h8.64l-.05.97Zm-6.95,7.61c-3,0-5.43,2.32-5.43,5.12,0,1.39.7,2.39,1.66,2.39,1.12,0,1.97-1.32,4.33-6.81l.3-.68-.87-.02Z"/><path class="cls-1" d="m28.74,125.72c.21-.56.87-6.71,1.1-10.24l3.09.37c-.09.32-.12.46-.14.61-.02.12-.02.17-.07.68-.14,1.59-.54,4.8-.8,6.41,1.9-2.15,4.31-3.22,7.33-3.22,4.33,0,6.86,1.93,6.86,5.22,0,2.32-.96,3.95-3.02,5.07-2.01,1.12-4.26,1.56-8.19,1.59-.51.02-.56.02-.89.05l-.21-1c.3.05.61.07.89.07,2.06,0,4.4-.63,5.83-1.56,1.5-.98,2.27-2.39,2.27-4.22,0-2.56-1.73-4.17-4.49-4.17-2.22,0-4.82,1.49-6.16,3.54-.28.41-.47.8-.56,1.15l-2.83-.34Zm10.37-9.12c-1.78-1.66-5.38-3.61-7.49-4.05l.68-1.44c.21.1.4.15.84.24,2.57.61,6.34,1.9,7.47,2.58l-1.5,2.66Z"/><path class="cls-1" d="m64.63,124.79c-.21.27-.28.46-.44,1.05-.47,1.56-1.31,3.46-1.92,4.24-.68.88-1.47,1.34-2.34,1.34-1.4,0-2.71-1.17-3.58-3.24-1.19-2.83-1.64-6.07-1.64-11.95v-.71c0-.63-.02-1.05-.07-1.44l3.25.22c-.07.29-.12,1.1-.12,1.71v1.44c.05,4.58.28,6.66.96,8.63.59,1.66,1.31,2.49,2.15,2.49.66,0,1.17-.46,1.87-1.78.51-.93.73-1.49.94-2.54l.94.54Zm6.3,2.85c-.12-4.29-2.36-9.85-4.66-11.51l1.12-1s.07.1.14.15c.02.02.14.12.33.29,3.28,2.93,5.17,5.95,6.3,10.02.05.17.07.27.19.71l.07.22-3.49,1.12Z"/><path class="cls-1" d="m98.52,115.01c.87,0,1.15,0,1.76-.07-.09.56-.12.98-.12,1.83v13.8c0,1.29-.56,2.02-1.59,2.02-.75,0-2.86-.42-4.26-.83l-1.01-.2-.16-1.12c1.08.15,2.08.22,2.83.22.63,0,.82-.2.82-.88v-5.2l-2.29,2.68-.54-.93c-1.33-2.15-2.06-4.66-2.29-7.95-.73,3.66-2.48,6.32-5.71,8.61l-.54.51-.63-.78.63-.51c2.11-2.58,3.18-5.85,3.3-10.24h-4.14v15.24c0,.44.02.73.12,1.46h-3.6l.02-.24c.07-.54.09-.78.09-1.22v-14.46c0-.9-.02-1.17-.12-1.83.44.05.91.07,1.76.07h5.95v-2.8c0-.49,0-.56-.12-1.46h3.56c-.09.73-.12,1.02-.12,1.46v2.8h6.41Zm-6.23.98c.33,3.1,1.78,5.95,3.98,7.83l.51.39v-8.22h-4.49Z"/><path class="cls-1" d="m109.83,124.13c-.8,1.8-1.76,3.56-2.67,4.88l-.4.73-.77-.58.47-.61c1.29-2.78,2.32-6.2,2.78-9.29v-.1l.02-.07h-1.52c-.58,0-.73.02-1.4.1v-1.17c.51.07.96.1,1.4.1h2.08v-3.32c-.84.12-1.38.2-2.48.29l-.82.17-.3-.85.94-.22c1.9-.61,3.98-1.68,5.27-2.76l.75-.66,2.6,2.8-.98.24c-.8.22-1.26.32-2.01.49l-.19.02v3.78h1.36c.54,0,.82-.02,1.4-.1v1.17c-.58-.07-.87-.1-1.4-.1h-1.36v1.54c.73.59,2.2,1.95,3.23,2.95l.61.49-2.36,2.12-.21-.9c-.23-.88-.63-1.98-1.26-3.49v9.44c0,.44.02.73.12,1.46h-3l.02-.24c.07-.54.09-.78.09-1.22v-7.1Zm12.27-11.32c0-.49,0-.56-.12-1.46h3.25c-.09.73-.12,1.02-.12,1.46v11.46l1.52-.32,1.03-.34.19,1.15-1.05.17-1.68.34v5.95c0,.44.02.73.12,1.46h-3.25l.02-.24c.07-.54.09-.78.09-1.22v-5.32l-5.36,1.12-1.1.29-.23-1.15,1.08-.15,5.62-1.15v-12.07Zm-4.87,6.27l.68.37c1.19.63,1.78.95,2.6,1.49l.82.39-2.2,2.88-.37-.83c-.44-.85-.96-1.68-1.83-3l-.3-.46-.56-.58.61-.71.56.46Zm.49-5.85c1.26.66,2.18,1.19,3.28,1.93l.82.39-2.22,2.78-.42-.9c-.59-1.1-1.36-2.29-2.11-3.34l-.56-.58.58-.71.63.44Z"/><path class="cls-1" d="m152.64,116.3c-1.52,8.93-5.83,13.61-14.33,15.63-.4.1-.75.2-1.01.34l-.33-1c2.01-.1,5.41-2.1,7.42-4.34,2.53-2.76,4.03-6.1,4.61-10.32h-6.65c-1.59,2.95-3.32,4.61-6.69,6.37-.33.17-.61.37-.77.54l-.54-.85c1.01-.19,2.83-2.15,4.07-4.29,1.15-1.9,2.11-4.83,2.22-6.68l3.44.78-.14.34c-.02.07-.07.22-.14.39l-.09.29c-.28.8-.49,1.29-.87,2.15h9.9l-.12.66Z"/><path class="cls-1" d="m161.16,124.79c.07-.44.12-.8.12-1.22v-9.8c0-.44-.02-.73-.12-1.22h3.18c-.07.39-.12.83-.12,1.22v9.8c0,.42.05.83.12,1.22h-3.18Zm3.07,6.61c2.18-.27,4.33-1.49,5.78-3.29,1.29-1.58,1.73-3.24,1.73-6.56v-7.97c0-.44-.02-.73-.12-1.22h3.37c-.07.39-.12.83-.12,1.22v8c0,6.12-2.46,8.93-9.18,10.49-.4.07-.63.17-1.08.37l-.4-1.02Z"/><path class="cls-1" d="m202.08,129.57c-.47-.1-.75-.12-1.17-.12h-16.34c-.4,0-.75.05-1.17.12v-3.27c.37.07.8.12,1.17.12h16.34c.37,0,.8-.05,1.17-.12v3.27Zm-1.97-12.46c-.47-.1-.75-.12-1.17-.12h-12.43c-.4,0-.75.05-1.17.12v-1.56c.37.07.8.12,1.17.12h12.43c.37,0,.8-.05,1.17-.12v1.56Z"/><path class="cls-1" d="m211.74,125.06c-.02-1.49-1.43-5.49-2.13-6.07l.98-.71c1.62,1.98,2.81,4.03,3.32,5.76l-2.18,1.02Zm.82,5.71c2.08.1,5.48-2.29,6.93-4.88,1.08-1.71,1.94-4.98,1.94-7.22l2.79.46c-.09.37-.14.59-.21,1.1-1.26,6.66-4.14,9.8-10.35,11.29-.47.12-.61.17-.77.27l-.33-1.02Zm3.51-6.46c-.05-1.76-1.1-5.12-1.9-6.07l1.08-.61c.07.17.12.22.37.58,1.22,1.68,2.43,4.02,2.67,5.07l-2.22,1.02Z"/><path class="cls-1" d="m249.08,116.3c-1.52,8.93-5.83,13.61-14.33,15.63-.4.1-.75.2-1.01.34l-.33-1c2.01-.1,5.41-2.1,7.42-4.34,2.53-2.76,4.03-6.1,4.61-10.32h-6.65c-1.59,2.95-3.32,4.61-6.69,6.37-.33.17-.61.37-.77.54l-.54-.85c1.01-.19,2.83-2.15,4.07-4.29,1.15-1.9,2.11-4.83,2.22-6.68l3.44.78-.14.34c-.02.07-.07.22-.14.39l-.09.29c-.28.8-.49,1.29-.87,2.15h9.9l-.12.66Z"/></g></g></g></svg>