<?xml version="1.0" encoding="UTF-8"?>
<svg id="_レイヤー_2" data-name="レイヤー 2" xmlns="http://www.w3.org/2000/svg" viewBox="0 0 335 119.07">
  <defs>
    <style>
      .cls-1 {
        fill: #fff;
      }

      .cls-2 {
        fill: #af9890;
        opacity: .9;
      }
    </style>
  </defs>
  <g id="_レイヤー_1-2" data-name="レイヤー 1">
    <g>
      <path class="cls-2" d="m72,0h263v19c0,39.74-32.26,72-72,72H0v-19C0,32.26,32.26,0,72,0Z"/>
      <g>
        <path class="cls-1" d="m105.13,60.29v-24.11h3.57l11.3,18h.07v-18h3.57v24.11h-3.57l-11.3-18h-.07v18h-3.57Z"/>
        <path class="cls-1" d="m142.58,39.15v6.87h10.24v2.84h-10.24v8.46h10.9v2.97h-14.53v-24.11h14.53v2.97h-10.9Z"/>
        <path class="cls-1" d="m170.86,36.18l4.26,20.15h.07l4.26-20.15h4.62l4.26,20.15h.07l4.26-20.15h3.57l-5.78,24.11h-4.46l-4.26-20.15h-.07l-4.26,20.15h-4.46l-5.78-24.11h3.7Z"/>
        <path class="cls-1" d="m217.16,38.76c-1.34,0-2.38.3-3.11.91-.73.61-1.09,1.43-1.09,2.46,0,1.83,1.34,3.15,4.03,3.96,2.88.81,4.93,1.83,6.13,3.04,1.2,1.21,1.8,2.79,1.8,4.72,0,2.18-.7,3.85-2.1,5.02-1.4,1.17-3.4,1.75-5.99,1.75-2.73,0-5.21-.66-7.43-1.98l.99-2.97c1.98,1.32,4.13,1.98,6.44,1.98,1.43,0,2.53-.33,3.3-.99s1.16-1.6,1.16-2.81c0-1.15-.31-2.05-.93-2.71-.62-.66-1.74-1.24-3.37-1.75-2.62-.77-4.54-1.75-5.76-2.94-1.22-1.19-1.83-2.63-1.83-4.33,0-1.89.69-3.41,2.06-4.56,1.38-1.15,3.28-1.72,5.7-1.72s4.88.5,7.1,1.49l-.83,2.81c-1.92-.92-4.01-1.39-6.28-1.39Z"/>
      </g>
      <g>
        <path class="cls-1" d="m128.06,109.97v-1.54h1.48v1.54h-1.48Zm0,8.96v-7.28h1.48v7.28h-1.48Z"/>
        <path class="cls-1" d="m134.08,111.65l.03,1.05h.03c.3-.37.66-.67,1.08-.88.42-.21.86-.31,1.32-.31,1.59,0,2.38,1.07,2.38,3.22v4.2h-1.37v-4.06c0-.85-.11-1.43-.33-1.74-.22-.31-.61-.47-1.17-.47-.48,0-.91.24-1.3.71s-.59,1.02-.59,1.65v3.92h-1.4v-7.28h1.33Z"/>
        <path class="cls-1" d="m141.28,113.05v-1.12h1.82v-.77c0-1.73.84-2.59,2.52-2.59.49,0,.95.07,1.4.21l-.28,1.12c-.32-.14-.64-.21-.98-.21-.46,0-.78.11-.96.33-.18.22-.27.6-.27,1.14v.77h2.35v1.12h-2.35v5.88h-1.43v-5.88h-1.82Z"/>
        <path class="cls-1" d="m150.13,112.54c.64-.68,1.49-1.02,2.54-1.02s1.9.34,2.54,1.02c.64.68.96,1.6.96,2.76s-.32,2.08-.96,2.76c-.64.68-1.49,1.02-2.54,1.02s-1.9-.34-2.54-1.02c-.64-.68-.96-1.6-.96-2.76s.32-2.08.96-2.76Zm1.03,4.72c.37.47.88.7,1.51.7s1.14-.23,1.51-.7c.37-.47.56-1.12.56-1.96s-.19-1.49-.56-1.96c-.37-.47-.88-.7-1.51-.7s-1.14.23-1.51.7c-.37.47-.56,1.12-.56,1.96s.19,1.49.56,1.96Z"/>
        <path class="cls-1" d="m163.16,111.51v1.18c-1.03,0-1.84.28-2.44.83-.6.56-.9,1.29-.9,2.19v3.22h-1.43v-7.28h1.36l.03,1.4h.03c.86-1.03,1.97-1.54,3.35-1.54Z"/>
        <path class="cls-1" d="m166.93,111.65l.03.98h.03c.53-.75,1.14-1.12,1.83-1.12.89,0,1.54.42,1.95,1.26h.03c.55-.84,1.25-1.26,2.09-1.26.76,0,1.33.22,1.69.66.36.44.55,1.15.55,2.14v4.62h-1.37v-4.2c0-.82-.09-1.38-.27-1.67-.18-.29-.5-.43-.95-.43-.38,0-.72.21-1.02.62-.3.42-.45.91-.45,1.48v4.2h-1.37v-4.2c0-.82-.09-1.38-.27-1.67-.18-.29-.5-.43-.95-.43-.38,0-.72.21-1.02.62-.3.42-.45.91-.45,1.48v4.2h-1.4v-7.28h1.33Z"/>
        <path class="cls-1" d="m177.41,116.97c0-.81.34-1.46,1.03-1.95.69-.49,1.67-.73,2.96-.73h.7v-.07c0-.59-.12-1-.36-1.23-.24-.23-.66-.35-1.25-.35-.89,0-1.7.21-2.45.63l-.21-1.12c.78-.42,1.67-.63,2.66-.63,1.05,0,1.82.21,2.3.64.48.42.71,1.1.71,2.02v2.8c0,.66.07,1.32.21,1.96h-1.33c-.08-.41-.12-.78-.13-1.12h-.03c-.26.39-.62.7-1.08.92-.46.22-.98.34-1.56.34-.66,0-1.19-.19-1.58-.56-.39-.37-.59-.89-.59-1.54Zm4.69-1.65h-.7c-.84,0-1.49.14-1.94.43-.45.29-.68.67-.68,1.15,0,.35.11.62.32.82s.49.3.83.3c.59,0,1.1-.2,1.53-.61.43-.41.64-.9.64-1.49v-.6Z"/>
        <path class="cls-1" d="m188.91,111.93h2.63v1.12h-2.63v3.36c0,.61.08,1.02.24,1.23.16.21.44.31.85.31.47,0,.89-.08,1.26-.25l.21,1.09c-.53.19-1.09.28-1.68.28-.82,0-1.41-.18-1.77-.55-.36-.36-.54-.98-.54-1.83v-3.64h-1.54v-1.12h1.54v-2.66h1.43v2.66Z"/>
        <path class="cls-1" d="m194.74,109.97v-1.54h1.48v1.54h-1.48Zm0,8.96v-7.28h1.48v7.28h-1.48Z"/>
        <path class="cls-1" d="m199.9,112.54c.64-.68,1.49-1.02,2.54-1.02s1.9.34,2.54,1.02c.64.68.96,1.6.96,2.76s-.32,2.08-.96,2.76c-.64.68-1.49,1.02-2.54,1.02s-1.9-.34-2.54-1.02c-.64-.68-.96-1.6-.96-2.76s.32-2.08.96-2.76Zm1.03,4.72c.37.47.88.7,1.51.7s1.14-.23,1.51-.7c.37-.47.56-1.12.56-1.96s-.19-1.49-.56-1.96c-.37-.47-.88-.7-1.51-.7s-1.14.23-1.51.7c-.37.47-.56,1.12-.56,1.96s.19,1.49.56,1.96Z"/>
        <path class="cls-1" d="m209.5,111.65l.03,1.05h.03c.3-.37.66-.67,1.08-.88s.86-.31,1.32-.31c1.59,0,2.38,1.07,2.38,3.22v4.2h-1.37v-4.06c0-.85-.11-1.43-.33-1.74-.22-.31-.61-.47-1.17-.47-.48,0-.91.24-1.3.71-.39.47-.59,1.02-.59,1.65v3.92h-1.4v-7.28h1.33Z"/>
      </g>
    </g>
  </g>
</svg>