<?xml version="1.0" encoding="UTF-8"?><svg id="_レイヤー_2" xmlns="http://www.w3.org/2000/svg" xmlns:xlink="http://www.w3.org/1999/xlink" viewBox="0 0 666 180.7"><defs><style>.cls-1{letter-spacing:-.18em;}.cls-2,.cls-3,.cls-4,.cls-5,.cls-6{fill:none;}.cls-3{stroke-linejoin:round;}.cls-3,.cls-4{stroke:#f1de76;}.cls-3,.cls-4,.cls-5{stroke-linecap:round;}.cls-7{letter-spacing:-.02em;}.cls-8{letter-spacing:.1em;}.cls-9,.cls-10{letter-spacing:.1em;}.cls-11,.cls-12,.cls-13{letter-spacing:.1em;}.cls-14{letter-spacing:.1em;}.cls-15{letter-spacing:.1em;}.cls-10,.cls-12,.cls-16{fill:#06c755;}.cls-13{fill:#eace34;}.cls-17{clip-path:url(#clippath);}.cls-18{font-family:KiwiMaru-Medium, 'KiwiMaru Medium';font-size:11.62px;font-weight:500;glyph-orientation-vertical:0deg;letter-spacing:.07em;text-orientation:upright;writing-mode:tb;}.cls-19{fill:#ecbbaf;}.cls-20{fill:#fff;}.cls-21{fill:#edbdb8;}.cls-22{fill:#333;}.cls-23{fill:#decec6;}.cls-24{letter-spacing:-.06em;}.cls-25{letter-spacing:-.14em;}.cls-26{font-size:20.65px;}.cls-26,.cls-27,.cls-28{font-family:YuGo-Bold-83pv-RKSJ-H, YuGothic;font-weight:700;}.cls-29{letter-spacing:.08em;}.cls-30{letter-spacing:.04em;}.cls-31{letter-spacing:.08em;}.cls-32{clip-path:url(#clippath-1);}.cls-33{letter-spacing:-.16em;}.cls-34{letter-spacing:-.16em;}.cls-35{filter:url(#drop-shadow-1);}.cls-27{font-size:14.2px;}.cls-4{stroke-width:2px;}.cls-4,.cls-5,.cls-6{stroke-miterlimit:10;}.cls-28{fill:#f8f7f6;font-size:15.49px;}.cls-36{letter-spacing:.06em;}.cls-37{letter-spacing:-.1em;}.cls-5{stroke:#333;stroke-width:.75px;}.cls-38{fill:#dededc;opacity:.6;}.cls-6{stroke:#000;stroke-width:.5px;}.cls-39{letter-spacing:.15em;}</style><clipPath id="clippath"><rect class="cls-2" width="666" height="180.7"/></clipPath><clipPath id="clippath-1"><rect class="cls-2" x=".65" width="664.71" height="180.7"/></clipPath><filter id="drop-shadow-1" filterUnits="userSpaceOnUse"><feOffset dx="1" dy="1"/><feGaussianBlur result="blur" stdDeviation="2"/><feFlood flood-color="#999" flood-opacity=".75"/><feComposite in2="blur" operator="in"/><feComposite in="SourceGraphic"/></filter></defs><g id="_レイヤー_1-2"><g class="cls-17"><g><rect class="cls-20" x=".65" width="664.71" height="180.7"/><text class="cls-26" transform="translate(41.24 34.85)"><tspan class="cls-16"><tspan class="cls-11" x="0" y="0">通知登録いただく</tspan><tspan class="cls-1" x="181.73" y="0">と</tspan><tspan class="cls-11" x="198.67" y="0">「LINE</tspan><tspan class="cls-37" x="278.69" y="0">」</tspan><tspan class="cls-34" x="297.27" y="0">や</tspan><tspan class="cls-9" x="314.62" y="0">「メール</tspan><tspan class="cls-25" x="405.49" y="0">」</tspan><tspan class="cls-11" x="423.25" y="0">で</tspan></tspan><tspan class="cls-13" x="52.61" y="29.69">予約確認</tspan><tspan class="cls-10" x="143.47" y="29.69">の</tspan><tspan class="cls-13" x="166.19" y="29.69">通知</tspan><tspan class="cls-12" x="211.62" y="29.69">が受け取れます！</tspan></text><g class="cls-32"><path class="cls-38" d="m667.63,22.28c-19.39-6.04-45.58,7.88-56.76,28.83-15.12,28.34.36,63.71,24.78,79.28,12.76,8.13,36.52,16.33,51.35,5.86,28.2-19.91,17.37-102.52-19.37-113.97Z"/><path class="cls-38" d="m-18.81,63.25c16.51-13,56.36.04,62.55,18.66,4.21,12.7-9.35,21.59-4.02,35.11,5.42,13.75,21.72,10.3,35.29,27.11,8.09,10.02,15.27,27.31,9.38,38.66-8.41,16.22-42.59,18.62-65.23,8.44-48.2-21.67-62.53-108.65-37.98-127.98Z"/><path class="cls-19" d="m203.27,189.8c.44-3.5-13.38-4.52-46.02-20.5-32.2-15.76-37.41-23.9-51.88-23.43-22.55.73-46.76,21.7-43.93,33.89,6.1,26.32,140.48,20.87,141.84,10.04Z"/><path class="cls-19" d="m543.32-27.66c-8.68,7.76-12.14,20.14-6.9,30.11,7.33,13.92,25.48,11.44,46.68,27.85,22.29,17.25,14.94,29.84,33.42,37.26,17.83,7.16,45.62,3.86,59.95-6.4,26.82-19.21,11.95-66.78-28.65-87.69-31.67-16.31-84.37-19.14-104.51-1.13Z"/></g><text class="cls-18" transform="translate(619.1 19.03) rotate(18.15)"><tspan x="0" y="0">もう忘れない！</tspan></text><text class="cls-18" transform="translate(635.79 20.76) rotate(18.15)"><tspan x="0" y="0">予約日</tspan></text><g><g><path class="cls-20" d="m607.81,163.7c.03-.55.05-1.1.04-1.65-.01-1.63-.2-3.24-.41-4.86-.44-3.27-1.19-6.47-2.03-9.66-1.22-4.63-2.19-9.58-4.16-14-.26-2.06-.57-4.15-1.17-6.11-1.67-5.41-5.68-8.86-10.49-11.52-3.17-1.75-6.55-3.19-10.03-4.26-.46-.4-.93-.79-1.42-1.16-4.47-3.38-10.39-4.35-14.55-8.15-.26-.24-.54-.4-.82-.51-.03-.06-.06-.12-.08-.14-.22-.37-.48-.7-.77-1.01,0-1.85.06-2.31.06-4.16,5.41,2.01,13.59.54,17.98-2.79-.61-1.11-1.15-2.25-1.64-3.42-3.72-5.41-5.66-12.8-3.75-18.86-.27-1.29-.28-2.41.12-3.19.99-1.94,1.1-4.23-.23-6.41-.22-.36-.47-.69-.75-1.01.42-.29.82-.6,1.21-.92-.44-.67-.64-1.53-.38-2.53.28-1.11.5-2.23.71-3.35-.11-.38-.15-.79-.09-1.24.83-5.99-.5-12.21-2.74-17.8-.06-.08-.12-.16-.18-.24-.09-.3-.18-.59-.28-.89-.01-.03-.02-.06-.04-.08-.03-.06-.05-.12-.07-.18-1.09.19-2.17-.36-2.85-1.3-1.74-2.42-3.68-4.75-6.11-6.52-.65-.48-1.13-1.14-1.29-1.87-.2-.04-.39-.07-.59-.1-.06,0-.12-.02-.18-.03-.11-.09-.23-.18-.35-.27-3.12-2.29-7.15-2.73-10.94-2.64-3.35-1.93-7.48-1.79-11.14-.86-3.42.87-7.21,2.37-9.6,5.07-.36.41-.69.84-.99,1.28-3.73,3.15-9.02,6.62-9.89,11.41-.88,1.47-1.33,4.49-2.18,5.98-1.1,1.94-.19,3.29-1.06,5.35-.67,1.59-.79,3.29-.41,4.85-.18.7-.06,1.48.44,2.06.44,2.24.52,4.87.41,7.57.44.43.7,1.07.62,1.91-.88,9.04-2.19,18.02-4.63,26.78.08.03.17.07.26.1-.24.78-.47,1.56-.71,2.35-.35,1.16.42,2.8,1.71,3.01,6.11.98,12.31,1.84,18.31-.16.04-.01.08-.03.12-.05-.65,2.73-4.08,6.14-5.31,7.1,0,0,0,0,0,0-3.51,1.47-6.96,3.05-10.35,4.78-2.64,1.35-5.78,2.72-8.51,4.47-2.22,1.05-4.23,2.52-6.16,4.03-4.84,3.8-8.51,8.5-10.71,14.26-2.18,5.69-2.8,11.9-3.09,17.95-.26,5.4-.33,10.82-.28,16.23-.18.87-.16,1.79.03,2.67.01.92.03,1.84.05,2.76.05,2.36,2.81,2.95,4.16,1.78.43.09.89.12,1.37.09,29.14-2.15,58.33.28,87.49.62,8.2.1,16.4.02,24.59-.35,3.03-.14,5.95-2.57,5.81-5.81-.07-1.67-.85-3.31-2.07-4.42Z"/><g><path class="cls-23" d="m559.36,28.08c-9.88-7.69-25.19-6.91-34.05,2.06-10.58,10.71-8.95,27.18-8.98,40.93-.02,8.52-.71,17.38-5.43,24.73-.27.42-.29,1.09,0,1.51,1.4,2.05,3.73,2.94,6.17,2.65,2.68-.32,4.79-1.95,6.19-4.22,1.51-2.45,2.1-5.39,2.52-8.2.44-3.01.64-6.04.73-9.08.34-11.4-.64-24.59,8.76-32.89,4.62-4.08,10.84-6.13,16.97-5.63,1.92.16,1.91-2.85,0-3-10.74-.87-21.21,5.52-25.46,15.39-4.69,10.88-2.24,23-3.89,34.41-.43,2.94-.98,6.44-3.12,8.68-1.5,1.57-4.79,2.54-6.27.37v1.51c7.99-12.45,5.17-27.75,5.84-41.7.32-6.68,1.42-13.61,5-19.39,3.22-5.19,8.32-8.62,14.27-9.91,6.35-1.37,13.45-.16,18.64,3.88,1.51,1.17,3.64-.94,2.12-2.12h0Z"/><path class="cls-23" d="m532.33,46.27c-7.24,13.19-10.74,28.39-9.8,43.42.11,1.83.57,3.97-.06,5.75-.28.77-1.97,2.43-2.75,1.22-1.04-1.62-3.64-.12-2.59,1.51,1.76,2.74,5.8,2.12,7.49-.38,1.09-1.61,1.2-3.67,1.09-5.55-.12-2.03-.29-4.05-.32-6.09-.14-8.52,1.16-17.02,3.79-25.12,1.49-4.59,3.42-9.01,5.74-13.24.93-1.69-1.66-3.21-2.59-1.51h0Z"/><path class="cls-23" d="m521.67,95.02c1.39-14.85,2.78-29.69,4.16-44.54h-3c1.36,14.86-.66,29.85-5.92,43.82l2.89.8c.7-3.92,1.41-7.83,2.11-11.75h-2.89c.47,2.72.94,5.43,1.41,8.15.33,1.91,3.17,1.08,2.89-.8s-.56-3.74-.84-5.61c-.22-1.46-2.63-1.41-2.89,0-.51,2.76-1.03,5.52-1.54,8.28l2.74-.36c-1.16-2.15-2.31-4.3-3.47-6.45-.78-1.45-2.62-.58-2.8.76-.44,3.27-.87,6.54-1.31,9.81h3c.59-5.55,1.19-11.09,1.78-16.64h-3c.41,4.59.82,9.18,1.23,13.77l2.95-.4c-2.81-18.64-1.63-37.8,3.35-55.98.51-1.86-2.38-2.66-2.89-.8-5.13,18.73-6.24,38.38-3.35,57.57.25,1.66,3.1,1.28,2.95-.4-.41-4.59-.82-9.18-1.23-13.77-.17-1.94-2.79-1.92-3,0-.59,5.55-1.19,11.09-1.78,16.64-.09.81.75,1.49,1.5,1.5.9,0,1.39-.7,1.5-1.5.44-3.27.87-6.54,1.31-9.81l-2.8.76c1.16,2.15,2.31,4.3,3.47,6.45.58,1.08,2.5.92,2.74-.36.51-2.76,1.03-5.52,1.54-8.28h-2.89c.28,1.87.56,3.74.84,5.61l2.89-.8c-.47-2.72-.94-5.43-1.41-8.15-.25-1.44-2.64-1.43-2.89,0-.7,3.92-1.41,7.83-2.11,11.75-.34,1.91,2.21,2.61,2.89.8,5.33-14.19,7.4-29.53,6.02-44.62-.18-1.93-2.82-1.93-3,0-1.39,14.85-2.78,29.69-4.16,44.54-.18,1.92,2.82,1.91,3,0h0Z"/><path class="cls-23" d="m517.19,38.67c-1.07,5.89-2.14,11.77-3.21,17.66-.14.8.22,1.62,1.05,1.85.73.2,1.7-.25,1.85-1.05,1.07-5.89,2.14-11.77,3.21-17.66.14-.8-.22-1.62-1.05-1.85-.73-.2-1.7.25-1.85,1.05h0Z"/><path class="cls-23" d="m570.26,36.89c-2.51-3.57-5.09-7.16-8.62-9.8-3.83-2.87-8.54-3.95-13.24-3.19-.81.13-1.24,1.12-1.05,1.85.22.85,1.05,1.18,1.85,1.05,3.98-.64,8,.56,11.13,3.05,2.96,2.36,5.19,5.5,7.34,8.57,1.1,1.57,3.7.07,2.59-1.51h0Z"/><path class="cls-23" d="m568.68,38.96c.94,3.11,1.68,6.27,2.2,9.48.26,1.58.45,3.18.59,4.78.06.74.09,1.47.14,2.21.04.6-.12.1.11.15.12-.06.1-.09-.04-.1-.17-.05-.34-.11-.51-.17-2.27-.98-3.63-3.44-4.55-5.61-1.19-2.82-1.93-5.85-2.21-8.9-.17-1.91-3.17-1.93-3,0,.27,3.02.9,5.98,1.97,8.82.93,2.45,2.11,4.94,4.06,6.74,1.63,1.5,5.19,3.52,6.74.83.67-1.17.39-2.7.28-3.98-.14-1.58-.33-3.15-.56-4.72-.52-3.5-1.31-6.95-2.33-10.34-.56-1.84-3.45-1.06-2.89.8h0Z"/><path class="cls-23" d="m564.67,44.61c-2.8-4.41-7.72-7.22-12.94-7.36-.81-.02-1.5.71-1.5,1.5s.69,1.48,1.5,1.5c4.09.12,8.13,2.37,10.35,5.88,1.03,1.63,3.63.12,2.59-1.51h0Z"/><path class="cls-23" d="m572.3,53.96l-3.04-8.07-2.74,1.16c1.08,1.69,2.17,3.38,3.25,5.07.89,1.39,3.25.53,2.74-1.16-1.21-4-2.42-8.01-3.63-12.01-.56-1.87-3.25-1.08-2.89.8l.64,3.39,2.89-.8c-3.47-11.57-14.44-20.1-26.5-20.66-1.52-.07-2,2.07-.76,2.8,2.53,1.48,5.06,2.96,7.59,4.44l.76-2.8c-4.67-.62-9.33-1.24-14-1.86-1.45-.19-1.76,1.69-1.06,2.56,1.76,2.18,4.6,3.35,7.38,3.04,1.14-.13,2.16-1.63,1.06-2.56-1.55-1.3-3.43-1.95-5.46-1.69-.92.12-1.73.57-2.65.62-1.01.05-1.95-.05-2.84.57-1.46,1.01-1.59,3.55.27,4.22,1.75.64,3.53-1.42,2.49-3.02-.34-.52-1.06-.93-1.69-.69-2.87,1.08-5.06,3.47-5.58,6.54-.27,1.56,1.89,2.77,2.74,1.16.48-.91.96-1.83,1.44-2.74.75-1.43-1.2-3.18-2.36-1.82-1.47,1.73-2.94,3.45-4.4,5.18l2.51,1.46c.41-1.67.82-3.33,1.24-5,.35-1.41-1.44-2.58-2.51-1.46l-.93.98,2.12,2.12,2.76-3.15-2.12-2.12c-1.97,2.33-3.94,4.67-5.91,7l2.56,1.06c.24-1.81.47-3.62.71-5.43.22-1.72-2.49-1.97-2.95-.4-.71,2.46-1.42,4.92-2.13,7.39-.51,1.76,1.77,2.43,2.74,1.16s.77-3.24-.48-4.29-3.16-.82-4.32.31l2.51,1.46c.26-.82.51-1.63.77-2.45l-2.95-.4c-.48,5.35-.96,10.69-1.45,16.04h3c.19-2.59.38-5.18.57-7.77h-3c.07,6,.14,11.99.21,17.99.02,1.93,3.01,1.93,3,0,0-1.68-.01-3.37-.02-5.05,0-1.93-2.95-1.93-3,0-.27,10.41-.54,20.83-.81,31.24h3l.19-14.38-2.8.76c1.54,2.64,3.09,5.29,4.63,7.93.61,1.05,2.49.94,2.74-.36.72-3.68,1.43-7.36,2.15-11.04l-2.95-.4c.12,4.84.24,9.68.37,14.52l2.95-.4c-1.15-8.11-2.24-16.35-1.39-24.55.41-3.98,1.41-7.85,2.96-11.55.73-1.74,1.43-3.62.91-5.52-.44-1.6-1.59-2.92-3.23-3.31-1.09-.26-2.18.71-1.85,1.85s.69,2.36,1.03,3.54l2.51-1.46c-1.69-1.54-3.37-3.08-5.06-4.62-.87-.79-2.7-.32-2.56,1.06l.63,6.45,2.56-1.06-2.11-1.97c-1.17-1.09-2.74.03-2.51,1.46l.93,5.86,2.74-1.16-1.56-2.69c-.9-1.55-3.02-.45-2.74,1.16l1.25,7.24,2.74-1.16-.69-1.19c-.74-1.27-2.83-.74-2.8.76.09,3.95.17,7.9.26,11.86h3c-.48-4.67-.57-9.36-.22-14.04.08-1.04,0-3.74,1.26-4.21,2.02-.76,2.23,3.26,2.27,4.25l2.8-.76c-.82-1.3-1.64-2.6-2.46-3.9-.96-1.52-2.98-.47-2.74,1.16.2,1.35.39,2.71.59,4.06l2.2-1.69c-2.75-1.17-4.43-4.42-3.22-7.29,1.4-3.33,5.52-5.06,8.68-6.22,7.01-2.57,14.76-2.99,22.02-1.24,4.13.99,8.03,2.66,11.6,4.96,1.42.92,3.07-1.2,1.82-2.36-9.64-8.9-24.4-11.07-36.21-5.38l1.82,2.36c6.72-6.51,16.92-4.1,24.96-2.07,1.66.42,2.6-1.83,1.16-2.74-4.94-3.13-11.42-3.18-16.43-.16-1.12.68-.87,2.36.36,2.74,3.36,1.03,6.73,2.07,10.09,3.1,2.89.89,5.96,1.74,8.39,3.64,4.68,3.65,4.78,10.24,4.82,15.65l2.8-.76c-2.26-5.32-4.73-10.79-9.49-14.35s-10.75-4.49-16.32-3.26c-2.71.6-5.34,1.75-7.65,3.27-1.22.8-2.38,1.71-3.44,2.71-.45.42-.87.99-1.39,1.32-.44.28-.53.37-.71-.04-1.02-2.25,4.81-2.71,5.88-2.88,3.44-.54,6.92-.85,10.41-.96,3.86-.13,7.73,0,11.57.38,2.73.27,8.34.51,8.38,4.37l2.56-1.06c-1.34-1.24-2.67-2.47-4.01-3.71-1.03-.95-3.03-.03-2.51,1.46.56,1.62,1.13,3.25,1.69,4.87l2.51-1.46-3.05-3.22c-1.1-1.16-2.77.07-2.51,1.46.18.92.35,1.85.53,2.77.36,1.9,3.25,1.09,2.89-.8-1.31-6.97-8.62-9.72-14.82-10.66-7.52-1.13-15.19-.64-22.5,1.47-1.31.38-1.54,2.67,0,2.89,4.49.64,9.05,1.32,13.6.95,3.67-.3,7.85-1.1,10.29-4.14.65-.81.55-2.25-.66-2.51-4.68-1-9.5-1.05-14.18-.03-1.95.42-4.09.97-5.54,2.43s-1.86,3.58-.95,5.43l1.69-2.2c-1.16-.45-2.31-.89-3.47-1.34-.9-.35-1.94.54-1.9,1.45.18,4.15,4.96,6.14,7.98,3.23l-2.51-1.46c-.42,1.79-.84,3.59-1.27,5.38h2.89c-.66-3.38,3.99-4.42,6.37-4.69,3.71-.43,7.44-.77,11.16-1.15,1.9-.19,1.92-3.2,0-3-2.46.25-4.92.5-7.38.76-2.21.23-4.49.33-6.66.84-3.76.87-7.2,3.87-6.38,8.04.29,1.46,2.56,1.4,2.89,0,.42-1.79.84-3.59,1.27-5.38.34-1.45-1.41-2.52-2.51-1.46s-2.79.44-2.86-1.11l-1.9,1.45c1.16.45,2.31.89,3.47,1.34,1.33.51,2.21-1.15,1.69-2.2-.66-1.37,1.19-2.42,2.2-2.79,1.54-.56,3.23-.87,4.86-1.08,3.41-.44,6.88-.27,10.23.45l-.66-2.51c-2.13,2.66-5.92,3.16-9.12,3.32-3.97.2-7.92-.34-11.84-.91v2.89c6.46-1.87,13.23-2.43,19.92-1.61,5.41.67,12.53,2.44,13.71,8.7l2.89-.8c-.18-.92-.35-1.85-.53-2.77l-2.51,1.46c1.02,1.07,2.03,2.15,3.05,3.22s3-.03,2.51-1.46c-.56-1.62-1.13-3.25-1.69-4.87l-2.51,1.46c1.34,1.24,2.67,2.47,4.01,3.71.93.86,2.57.28,2.56-1.06-.04-3.55-3-5.84-6.21-6.64-3.59-.89-7.51-1.01-11.19-1.12s-7.73.02-11.57.41c-1.73.18-3.46.4-5.19.67s-3.62.49-5.25,1.26c-2.4,1.13-3.82,3.94-2.24,6.36.71,1.09,2.02,1.65,3.3,1.37,1.53-.34,2.53-1.64,3.63-2.64,4.77-4.31,11.47-6.44,17.77-4.75,7.82,2.09,11.2,9.18,14.11,16.05.6,1.42,2.81.63,2.8-.76-.05-6.1-.39-13.22-5.38-17.51-2.52-2.17-5.66-3.31-8.79-4.28-3.77-1.18-7.55-2.32-11.32-3.48l.36,2.74c4.12-2.49,9.33-2.41,13.4.16l1.16-2.74c-9.18-2.33-20.28-4.52-27.88,2.84-1.28,1.24.34,3.07,1.82,2.36,10.56-5.08,23.98-3.02,32.58,4.92l1.82-2.36c-7.33-4.74-16.22-6.93-24.92-6.33-4.36.3-8.65,1.27-12.68,2.96-3.79,1.58-7.87,3.86-9.24,8.01s.91,8.71,4.73,10.34c1.27.54,2.4-.34,2.2-1.69s-.39-2.71-.59-4.06l-2.74,1.16c.82,1.3,1.64,2.6,2.46,3.9.76,1.2,2.86.79,2.8-.76-.1-2.61-.53-5.53-3.12-6.83-2.35-1.17-4.72.09-5.66,2.4-1.01,2.5-.88,5.62-.94,8.26-.08,3.4.06,6.79.41,10.17.19,1.88,3.04,1.97,3,0-.09-3.95-.17-7.9-.26-11.86l-2.8.76.69,1.19c.9,1.55,3.02.45,2.74-1.16l-1.25-7.24-2.74,1.16,1.56,2.69c.91,1.57,3,.44,2.74-1.16l-.93-5.86-2.51,1.46c.7.66,1.41,1.32,2.11,1.97.87.81,2.7.31,2.56-1.06l-.63-6.45-2.56,1.06c1.69,1.54,3.37,3.08,5.06,4.62,1.07.98,2.94.03,2.51-1.46-.34-1.18-.69-2.36-1.03-3.54l-1.85,1.85c1.78.42,1.15,2.77.7,3.97-.65,1.73-1.41,3.39-1.94,5.16-1.07,3.56-1.62,7.29-1.82,11-.41,7.6.64,15.19,1.71,22.7.24,1.69,2.99,1.26,2.95-.4-.12-4.84-.24-9.68-.37-14.52-.04-1.62-2.61-2.12-2.95-.4-.72,3.68-1.43,7.36-2.15,11.04l2.74-.36c-1.54-2.64-3.09-5.29-4.63-7.93-.76-1.3-2.78-.72-2.8.76l-.19,14.38c-.03,1.93,2.95,1.93,3,0,.27-10.41.54-20.83.81-31.24h-3c0,1.68.01,3.37.02,5.05h3c-.07-6-.14-11.99-.21-17.99-.02-1.95-2.86-1.91-3,0-.19,2.59-.38,5.18-.57,7.77-.14,1.94,2.83,1.9,3,0,.48-5.35.96-10.69,1.45-16.04.16-1.74-2.46-1.95-2.95-.4-.26.82-.51,1.63-.77,2.45-.46,1.46,1.47,2.48,2.51,1.46.41-.4.29.09.1.35l2.74,1.16c.71-2.46,1.42-4.92,2.13-7.39l-2.95-.4c-.24,1.81-.47,3.62-.71,5.43-.17,1.27,1.76,2,2.56,1.06,1.97-2.33,3.94-4.67,5.91-7,1.23-1.46-.84-3.58-2.12-2.12l-2.76,3.15c-1.26,1.44.78,3.53,2.12,2.12l.93-.98-2.51-1.46c-.41,1.67-.82,3.33-1.24,5-.34,1.36,1.49,2.66,2.51,1.46,1.47-1.73,2.94-3.45,4.4-5.18l-2.36-1.82c-.48.91-.96,1.83-1.44,2.74l2.74,1.16c.34-1.99,1.56-3.72,3.49-4.45l-1.69-.69c-.16-.25,2.7-.26,3.11-.28.76-.04,1.37-.34,2.08-.55,1.19-.35,2.52-.06,3.47.74l1.06-2.56c-2.11.24-3.93-.51-5.26-2.16l-1.06,2.56c4.67.62,9.33,1.24,14,1.86,1.54.2,1.94-2.1.76-2.8-2.53-1.48-5.06-2.96-7.59-4.44l-.76,2.8c10.71.5,20.53,8.2,23.61,18.46.56,1.87,3.25,1.08,2.89-.8l-.64-3.39-2.89.8,3.63,12.01,2.74-1.16c-1.08-1.69-2.17-3.38-3.25-5.07-.87-1.36-3.37-.51-2.74,1.16l3.04,8.07c.67,1.79,3.58,1.01,2.89-.8h0Z"/><path class="cls-23" d="m523.23,41.85l1.84,3.23c.54.95,1.04,1.98,1.7,2.86.79,1.03,1.87,1.87,3.24,1.69s2.54-1.47,2.48-2.9c-.04-.82-.43-1.58-1.08-2.09-.72-.56-1.5-.7-2.39-.57-.34.05-.73.4-.9.69-.19.32-.27.8-.15,1.16.28.85,1.01,1.17,1.85,1.05-.24.03-.28.04-.11.04-.22-.04-.28-.04-.16-.02.36.14-.23-.12.04.02.24.12-.19-.21,0,.01-.24-.28,0,0-.01.01-.08-.2-.1-.24-.06-.13.03.11.03.06-.01-.16,0,.06,0,.13,0,.19l.02-.21c-.05.29.13-.3-.02.04-.06.12.2-.26-.01,0-.08.08-.04.05.11-.08-.14.08-.11.07.1-.02l-.09.03c-.16.04-.12.03.11,0-.05,0-.09,0-.14,0-.12,0-.06,0,.17.02-.06-.01-.12-.03-.17-.05l.19.08c-.06-.03-.11-.06-.16-.09-.1-.07-.1-.07,0,0,.1.08.1.08,0,0-.04-.03-.07-.07-.11-.1-.08-.08-.16-.17-.24-.25-.2-.21.17.25-.02-.02-.6-.87-1.09-1.83-1.61-2.75l-1.81-3.17c-.39-.68-1.38-.97-2.05-.54s-.95,1.32-.54,2.05h0Z"/><path class="cls-23" d="m571.11,56.85c.36.85.73,1.69,1.09,2.54.09.17.22.32.39.42.14.13.31.22.51.27.36.1.84.05,1.16-.15s.6-.51.69-.9l.05-.4c0-.27-.07-.52-.2-.76-.36-.85-.73-1.69-1.09-2.54-.09-.17-.22-.32-.39-.42-.14-.13-.31-.22-.51-.27-.36-.1-.84-.05-1.16.15s-.6.51-.69.9l-.05.4c0,.27.07.52.2.76h0Z"/><path class="cls-23" d="m565.11,54.74c.57.79,1.15,1.58,1.72,2.37.24.33.5.58.9.69.36.1.84.05,1.16-.15.67-.43.98-1.34.54-2.05-1.1-1.76-2.21-3.52-3.31-5.29-.42-.66-1.36-.99-2.05-.54s-.98,1.34-.54,2.05c1.1,1.76,2.21,3.52,3.31,5.29l2.59-1.51c-.57-.79-1.15-1.58-1.72-2.37-.24-.33-.5-.58-.9-.69-.36-.1-.84-.05-1.16.15-.63.4-1.03,1.37-.54,2.05h0Z"/><path class="cls-23" d="m577.28,89.29c-1.45-1.21-2.72-2.59-3.72-4.19-.49-.78-.94-1.61-1.31-2.46-.17-.41-.33-.83-.46-1.25-.04-.12-.08-.24-.1-.37-.05-.31.04-.31,0-.26,1.37-1.4-.67-3.37-2.12-2.12-1.24,1.07-1.85,2.62-2.54,4.06-.76,1.58-1.54,3.15-2.26,4.75s-1.27,3.19-1.5,4.93-.14,3.56-.04,5.34l2.95-.4c-.63-2.13-1.26-4.27-1.89-6.4-.47-1.6-2.96-1.33-2.95.4.02,2.05.22,4.29,1.85,5.75,1.82,1.63,3.98,1.06,5.98.15,3.33-1.52,6.59-3.39,8-6.95.27-.69-.24-1.52-.87-1.77-.73-.29-1.43-.01-1.87.61-.28.4-.61.63-.94.94-.21.2.03-.6.1.12-.02-.21-.08-.42-.11-.63-.21-1.38-.38-2.76-.57-4.14-.23-1.69-2.99-1.26-2.95.4.04,1.56.07,3.11.11,4.67l2.56-1.06c-1.65-1.5-2.78-3.35-3.33-5.51-.48-1.87-3.34-1.08-2.89.8.53,2.23,1.06,4.47,1.59,6.7.39,1.67,2.93,1.28,2.95-.4.02-2.04.03-4.07.05-6.11l-2.95.4c.25,1.3.5,2.59.75,3.89l2.74-1.16c-.37-.68-.74-1.36-1.11-2.03-.71-1.29-2.85-.73-2.8.76s.11,2.98.17,4.47l2.26-1.3c-1.41-.89-2.83-1.77-4.24-2.66-1.21-.76-2.4.49-2.2,1.69.33,2.03.66,4.05,1,6.08.18,1.12,1.79,1.43,2.51.66l1.45-1.55-2.51-.66c.05.14.09.29.14.43.3.92,1.33,1.39,2.2.9s1.78-1.02,2.67-1.52l-1.82-2.36c-.68.79-1.36,1.58-2.04,2.37-1.11,1.29.26,3.15,1.82,2.36,1.02-.52,2.03-1.04,3.05-1.56l-2.2-1.69c-.49,2.47-3.03,4.37-5.58,3.83-1.88-.4-2.69,2.49-.8,2.89,4.05.87,8.44-1.78,9.27-5.92.26-1.3-1-2.31-2.2-1.69l-3.05,1.56,1.82,2.36c.68-.79,1.36-1.58,2.04-2.37,1.08-1.25-.27-3.24-1.82-2.36-.89.51-1.78,1.02-2.67,1.52l2.2.9c-.05-.14-.09-.29-.14-.43-.33-1.03-1.7-1.52-2.51-.66l-1.45,1.55,2.51.66c-.33-2.03-.66-4.05-1-6.08l-2.2,1.69,4.24,2.66c.95.59,2.3-.17,2.26-1.3-.06-1.49-.11-2.98-.17-4.47l-2.8.76c.37.68.74,1.36,1.11,2.03.86,1.56,3.05.45,2.74-1.16-.25-1.3-.5-2.59-.75-3.89-.33-1.69-2.93-1.25-2.95.4-.02,2.04-.03,4.07-.05,6.11l2.95-.4c-.53-2.23-1.06-4.47-1.59-6.7l-2.89.8c.68,2.63,2.1,5.01,4.11,6.84.92.84,2.59.29,2.56-1.06-.04-1.56-.07-3.11-.11-4.67l-2.95.4c.17,1.21.33,2.42.5,3.63.15,1.07.36,2.12,1.32,2.76,2.05,1.35,4.02-.33,5.18-1.95l-2.74-1.16c-.9,2.28-3.34,3.59-5.42,4.6-.84.41-2.46,1.5-3.42.96-1.19-.68-1.08-2.55-1.09-3.7l-2.95.4c.63,2.13,1.26,4.27,1.89,6.4.46,1.57,3.05,1.34,2.95-.4-.09-1.55-.19-3.12-.04-4.68s.67-2.98,1.3-4.37,1.36-2.87,2.05-4.3c.59-1.23,1.09-2.7,2.14-3.61l-2.12-2.12c-1.89,1.93-.26,5.01.8,6.96,1.21,2.21,2.85,4.2,4.79,5.81.62.52,1.51.61,2.12,0,.53-.53.63-1.6,0-2.12h0Z"/></g><path class="cls-16" d="m482.58,181.79h127.85c-.27-4.27-.61-8.54-1.29-12.76-.02,0-.05-.02-.07-.03-.39-.83-1.09-1.51-1.95-1.83.06-.43.02-.88-.14-1.3-.46-1.25-.84-2.51-1.16-3.77-.4-3.35-.4-6.74-.03-10.14.11-1.03-.43-1.98-1.23-2.63-.16-3.97-.73-7.84-2.09-11.64-.06-.16-.13-.32-.21-.47-.41-3.82-1.44-7.52-3.55-10.79-1.77-2.73-4.09-5.11-6.8-6.89-1.32-2.12-3.8-2.99-6.01-3.93-1.39-.59-2.78-1.18-4.17-1.77-.51-.22-1.03-.46-1.54-.68-.42-.49-.98-.87-1.67-1.08-2.22-.69-4.2.36-5.52,2.12-.12.16-.22.34-.3.53-.08.07-.16.14-.24.21-1.11.96-2.19,1.94-3.25,2.95-1.78,1.7-3.8,3.49-4.5,5.85-2.26,1.81-4.56,3.57-6.81,5.39-4.83,3.91-9.15,8.28-12.91,13.19-.4-.34-.79-.68-1.17-1.04-.19-.34-.43-.66-.72-.96-.43-.44-.86-.88-1.29-1.32.28-.63.45-1.31.46-1.99-.11-.08-.21-.16-.31-.25-3.28-3.01-6.5-6.36-8.95-10.12-3.64-2.98-7.47-5.73-11.48-8.21-.97-2.7-1.26-5.68-4.7-6.49-2.79-.66-5.53.71-7.61,2.64-1.9.43-2.78-.41-4.33.97-.71.63-2.04.97-2.72,1.63-.97-.06-2.44.96-3.26,1.63-5.8,4.71-8.23,11.08-9.79,17.94-.78,3.42-1.77,7.41-2.18,10.88-.5,1.59.77,6.45.4,8.07-.8-.95-1.83-1.71-3.05-2.15-.8,9.4-1.45,18.81-1.71,28.25Z"/><g><g><path class="cls-22" d="m566.37,73.3c0,.97-.05,1.94-.16,2.9-.01.13-.03.26-.05.39-.05.43.05-.32-.02.11-.03.21-.06.43-.1.64-.08.46-.17.93-.28,1.38-.21.9-.46,1.8-.77,2.68-.15.43-.31.86-.48,1.29-.11.27-.01.03.01-.02-.05.11-.1.23-.15.34-.1.23-.2.45-.31.67-.39.81-.82,1.6-1.29,2.36-.22.36-.46.72-.7,1.06-.13.18-.25.36-.39.54-.06.08-.12.16-.18.24-.23.31.1-.12-.09.12-1.1,1.36-2.31,2.61-3.67,3.7,0,0-.31.25-.12.1.19-.15-.12.09-.13.09-.16.12-.31.23-.47.35-.38.27-.77.53-1.17.78-.73.45-1.49.85-2.27,1.21-.1.05-.64.28-.28.13-.18.07-.36.15-.54.22-.44.17-.88.32-1.33.46-.81.25-1.63.45-2.46.59-.21.04-.43.07-.65.1.41-.06-.21.02-.31.03-.46.05-.92.08-1.38.09-.9.03-1.81,0-2.71-.09-.13-.01-.27-.03-.4-.05-.45-.05.31.06-.13-.02-.22-.04-.44-.07-.66-.11-.48-.09-.96-.2-1.43-.32-.47-.12-.94-.27-1.4-.42-.21-.07-.42-.15-.62-.22-.12-.05-.25-.1-.37-.14-.03-.01-.43-.19-.12-.05-1.01-.45-1.99-.95-2.92-1.55-.45-.28-.89-.58-1.31-.9-.03-.02-.38-.29-.12-.08-.11-.08-.21-.16-.31-.25-.21-.17-.41-.34-.61-.51-.85-.73-1.64-1.53-2.37-2.38-.18-.21-.35-.41-.52-.63-.02-.03-.3-.38-.1-.12-.08-.11-.16-.22-.25-.33-.35-.48-.69-.97-1-1.47-.43-.67-1.38-1-2.08-.55-.67.43-1,1.37-.55,2.08,2.3,3.62,5.47,6.71,9.29,8.69,3.7,1.91,7.93,2.81,12.09,2.38,7.7-.79,14.38-5.65,18.06-12.39,2.19-4.01,3.32-8.55,3.33-13.12,0-.8-.7-1.56-1.52-1.52-.83.04-1.52.67-1.52,1.52h0Z"/><path class="cls-22" d="m567.75,60.16c.21,0,.42,0,.63.02.08,0,.17.02.25.02.4.04-.22-.05.02,0,.38.08.75.15,1.12.27.19.06.38.13.57.2-.35-.13.15.07.23.12.36.18.68.39,1.01.61.07.05.29.22.02,0,.06.05.12.1.18.15.14.11.27.23.39.35.13.12.25.25.37.38.07.07.13.15.19.22.03.03.27.34.14.17-.14-.19.09.12.09.13.05.06.09.13.13.2.1.15.19.3.28.46.09.16.17.31.25.47,0,0,.16.37.07.15-.08-.2.06.17.08.21.13.36.24.73.31,1.11.03.13.09.54.05.2.03.23.05.46.06.68.02.4,0,.8-.04,1.19,0,.08-.06.28,0-.04-.02.08-.03.16-.04.24-.05.24-.1.48-.17.71-.04.15-.09.31-.15.46-.03.09-.08.19-.11.28-.07.23.16-.32-.01.02-.18.36-.36.71-.57,1.04-.09.13-.18.26-.27.39.22-.31-.15.18-.21.24-.26.29-.54.57-.84.82-.06.05-.12.1-.18.15.29-.23-.02.01-.07.04-.18.12-.36.24-.55.35-.19.11-.38.21-.58.31-.07.03-.14.07-.22.1.33-.15,0,0-.08.03-.42.15-.85.27-1.28.36-.08.02-.16.03-.24.04.37-.07,0,0-.09,0-.25.02-.5.03-.75.04-.8,0-1.56.7-1.52,1.52.04.82.67,1.53,1.52,1.52,4.03-.03,7.56-2.57,8.96-6.33,1.34-3.61.17-7.96-2.8-10.41-1.75-1.44-3.88-2.25-6.15-2.27-.8,0-1.56.71-1.52,1.52.04.83.67,1.52,1.52,1.52h0Z"/></g><path class="cls-22" d="m543.56,74.95c1.56,1.6,4.35,1.6,5.92.02.48-.49.52-1.37,0-1.85-.52-.48-1.33-.52-1.85,0-.08.08-.16.15-.24.22.09-.07.18-.14.26-.2-.19.14-.39.26-.6.36.1-.04.21-.09.31-.13-.25.1-.51.17-.79.21.12-.02.23-.03.35-.05-.27.03-.54.03-.82,0,.12.02.23.03.35.05-.25-.04-.5-.1-.73-.2l.31.13c-.22-.09-.42-.21-.61-.35.09.07.18.14.26.2-.1-.08-.19-.16-.28-.25-.48-.49-1.37-.52-1.85,0-.48.53-.51,1.33,0,1.85h0Z"/><path class="cls-22" d="m551.13,80.63c-2.85,1.63-6.38,1.6-9.21-.08-1.45-.86-2.76,1.4-1.32,2.26,3.6,2.14,8.21,2.17,11.85.08,1.46-.84.14-3.09-1.32-2.26h0Z"/><g><path class="cls-22" d="m528.05,90.57v10.3c0,.8.7,1.56,1.52,1.52.83-.04,1.52-.67,1.52-1.52v-10.3c0-.8-.7-1.56-1.52-1.52-.83.04-1.52.67-1.52,1.52h0Z"/><path class="cls-22" d="m560.27,90.57v10.3c0,.8.7,1.56,1.52,1.52.83-.04,1.52-.67,1.52-1.52v-10.3c0-.8-.7-1.56-1.52-1.52-.83.04-1.52.67-1.52,1.52h0Z"/></g><path class="cls-22" d="m611.29,179.84c-.94-6.26-1.81-12.53-2.7-18.81-.69-4.9-1.38-9.8-2.21-14.68-.89-5.18-1.61-10.45-3.44-15.4-.93-2.52-2.14-4.86-3.77-7-1.62-2.14-3.46-4.07-5.54-5.77-4.16-3.4-8.94-5.86-13.97-7.71-.6-.22-1.21-.43-1.81-.63-.76-.25-1.7.29-1.87,1.06-.19.84.25,1.6,1.06,1.87,1.21.41,2.42.85,3.6,1.32.15.06.31.12.46.19.07.03.13.05.2.08-.03-.01-.2-.09-.04-.02.3.13.61.26.91.4.58.26,1.16.53,1.73.81,2.29,1.13,4.5,2.44,6.55,3.97.11.08.22.17.34.25.14.1,0,0-.03-.02.07.06.15.11.22.17.26.2.51.41.76.62.48.41.96.82,1.42,1.25.93.87,1.81,1.79,2.63,2.76.2.24.39.47.59.72.04.06.26.33.11.14.12.15.23.31.34.46.38.51.74,1.04,1.08,1.58.33.52.63,1.06.91,1.61.14.27.27.54.4.81.07.15.14.3.2.45.03.06.06.13.09.19.01.02.12.29.06.14-.06-.15.03.07.03.08.04.09.07.18.11.26.05.13.1.27.16.4.12.31.23.63.35.94.22.62.41,1.24.6,1.87.38,1.29.71,2.6.99,3.92.55,2.54.97,5.1,1.4,7.66.79,4.71,1.51,9.43,2.18,14.15.86,6.09,1.7,12.18,2.6,18.27.12.8.24,1.6.36,2.41.12.79,1.16,1.3,1.87,1.06.86-.28,1.19-1.03,1.06-1.87h0Z"/><path class="cls-22" d="m516.85,113.9c.94.97,1.87,1.94,2.81,2.91,2.25,2.33,4.5,4.66,6.75,6.99,2.71,2.81,5.42,5.62,8.13,8.42,2.35,2.44,4.7,4.87,7.05,7.31,1.14,1.18,2.25,2.4,3.42,3.55.02.02.03.03.05.05.55.57,1.61.6,2.16,0,.57-.62.59-1.54,0-2.16-.94-.97-1.87-1.94-2.81-2.91-2.25-2.33-4.5-4.66-6.75-6.99-2.71-2.81-5.42-5.62-8.13-8.42-2.35-2.44-4.7-4.87-7.05-7.31-1.14-1.18-2.25-2.4-3.42-3.55-.02-.02-.03-.03-.05-.05-.55-.57-1.61-.6-2.16,0-.57.62-.59,1.54,0,2.16h0Z"/><path class="cls-22" d="m570.81,112.51c-.85.94-1.7,1.88-2.56,2.82-2.06,2.27-4.11,4.54-6.17,6.82-2.48,2.74-4.95,5.48-7.43,8.21-2.14,2.37-4.28,4.73-6.43,7.1-1.04,1.15-2.11,2.29-3.13,3.46-.01.02-.03.03-.05.05-.53.59-.63,1.58,0,2.16.58.54,1.58.63,2.16,0,.85-.94,1.7-1.88,2.56-2.82,2.06-2.27,4.11-4.54,6.17-6.82,2.48-2.74,4.95-5.48,7.43-8.21,2.14-2.37,4.28-4.73,6.43-7.1,1.04-1.15,2.11-2.29,3.13-3.46.01-.02.03-.03.05-.05.53-.59.63-1.58,0-2.16-.58-.54-1.58-.63-2.16,0h0Z"/><path class="cls-22" d="m572.37,106.18c-2.87-1.94-5.75-3.89-8.62-5.83l-1.25-.84c-.66-.45-1.72-.15-2.08.55-.41.77-.16,1.61.55,2.08,2.87,1.94,5.75,3.89,8.62,5.83.42.28.83.56,1.25.84.66.45,1.72.15,2.08-.55.41-.77.16-1.61-.55-2.08h0Z"/><path class="cls-22" d="m560.87,24.2c-2.79-2.27-6.46-3.32-9.96-3.87-4.59-.72-9.28-.64-13.83.29-4.67.96-9.2,2.93-12.77,6.12-4.12,3.67-7.22,8.48-9.2,13.61-2.02,5.23-2.79,10.91-2.62,16.5.02.72.06,1.43.11,2.15.06.79.66,1.56,1.52,1.52.78-.03,1.58-.67,1.52-1.52-.2-2.76-.18-5.53.1-8.28.03-.33.07-.66.11-.98,0-.02.03-.25,0-.08-.03.19.01-.1.02-.15.03-.19.05-.37.08-.56.1-.64.22-1.29.35-1.92.27-1.28.6-2.55.99-3.8.19-.61.4-1.21.63-1.81.11-.3.23-.59.35-.89.03-.08.07-.17.1-.25,0,.02-.09.21-.02.05.07-.17.14-.33.22-.5.53-1.18,1.12-2.33,1.78-3.45.66-1.12,1.39-2.21,2.18-3.24.04-.06.08-.11.13-.16-.16.21-.01.02.02-.02.1-.13.2-.25.3-.38.22-.27.44-.54.67-.8.43-.5.87-.98,1.33-1.45.43-.45.87-.89,1.33-1.3.2-.18.41-.36.62-.54.1-.09.21-.17.32-.26.05-.04.09-.07.14-.11.3-.24-.17.12.01-.01.91-.64,1.81-1.27,2.79-1.81.48-.26.97-.51,1.46-.74.25-.12.5-.23.75-.34-.28.12,0,0,.12-.05.15-.06.29-.12.44-.17,1.04-.4,2.11-.74,3.19-1.03,1.08-.28,2.18-.51,3.29-.68.14-.02.27-.04.41-.06.15-.02.33-.04.06,0,.29-.04.58-.07.87-.1.56-.06,1.12-.11,1.68-.14,2.13-.13,4.28-.08,6.4.15.23.03.46.06.69.08.21.02-.3-.04-.09-.01.05,0,.1.01.16.02.14.02.28.04.42.06.49.08.98.16,1.47.26.9.18,1.8.41,2.68.68.4.12.8.26,1.2.4.19.07.38.14.57.22.06.02.39.16.13.05-.25-.11.11.05.16.07.67.3,1.32.64,1.93,1.04.13.08.25.17.38.26.06.04.13.11.19.14,0,0-.32-.26-.15-.12.03.03.07.06.1.08.62.5,1.56.65,2.15,0,.51-.56.66-1.62,0-2.15h0Z"/><path class="cls-22" d="m568.45,35.69c.29.28.56.58.82.89.04.05.09.11.13.16.23.27-.2-.27.01.02.14.2.28.39.42.59.45.68.84,1.4,1.18,2.14.08.17.15.33.22.5-.17-.39.1.25.14.35.16.42.31.84.44,1.26.26.82.48,1.66.66,2.51.09.4.16.81.23,1.22.04.22.07.44.11.67.01.09.03.18.04.28.06.41-.03-.23.01.09.1.83.18,1.66.22,2.49.08,1.51.07,3.02-.09,4.53-.02.16-.04.33-.06.49-.03.31.06-.39.01-.09-.02.1-.03.2-.05.3-.05.3-.11.6-.18.9-.06.25-.12.49-.21.73-.04.11-.09.22-.12.32.12-.51.09-.2,0-.02-.36.71-.21,1.69.55,2.08.7.37,1.69.21,2.08-.55.58-1.12.79-2.37.95-3.61.19-1.48.23-2.98.18-4.47-.13-3.73-.79-7.48-2.25-10.93-.78-1.85-1.86-3.6-3.3-5.01-.57-.56-1.59-.61-2.15,0-.55.6-.61,1.56,0,2.15h0Z"/><path class="cls-22" d="m520.57,108.66c2.87-1.94,5.75-3.89,8.62-5.83.42-.28.83-.56,1.25-.84.66-.45,1.01-1.36.55-2.08-.42-.66-1.38-1.02-2.08-.55-2.87,1.94-5.75,3.89-8.62,5.83-.42.28-.83.56-1.25.84-.66.45-1.01,1.36-.55,2.08.42.66,1.38,1.02,2.08.55h0Z"/><path class="cls-22" d="m484.05,182.28c.81-5.96,1.56-11.92,2.27-17.89.63-5.32,1.22-10.64,1.75-15.97.12-1.19.22-2.38.36-3.56.04-.33.08-.65.12-.98.04-.3-.02.14.02-.16.03-.19.05-.38.08-.57.1-.67.2-1.34.32-2.01.47-2.72,1.11-5.42,2.01-8.04.22-.64.46-1.28.72-1.91.03-.07.16-.39.07-.17.07-.15.13-.31.2-.46.15-.33.3-.65.45-.97.56-1.15,1.21-2.26,1.94-3.31.19-.28.39-.55.59-.82.04-.06.31-.41.15-.2.1-.13.21-.26.31-.39.42-.52.85-1.02,1.29-1.51.89-.97,1.83-1.88,2.83-2.74.23-.2.46-.39.7-.59.13-.1.25-.21.38-.31.05-.04.11-.09.17-.13.35-.28-.13.09.08-.06.52-.4,1.05-.78,1.59-1.15,1.08-.74,2.21-1.43,3.36-2.06,1.13-.63,2.3-1.21,3.48-1.74.3-.14.6-.27.91-.4.07-.03.39-.16.16-.07.17-.07.35-.15.53-.22.61-.25,1.23-.49,1.86-.72.62-.23,1.25-.45,1.88-.66.75-.25,1.33-1.06,1.06-1.87-.24-.75-1.07-1.34-1.87-1.06-5.12,1.71-10.11,4-14.43,7.28-4.4,3.34-8.09,7.57-10.27,12.69-2.22,5.22-3.27,10.85-3.85,16.47-.54,5.21-1.06,10.43-1.67,15.64-.69,5.98-1.43,11.95-2.22,17.91-.02.18-.05.36-.07.54-.02.18,0,.01,0-.02-.01.08-.02.15-.03.23-.05.38-.1.76-.16,1.15-.11.79.19,1.68,1.06,1.87.72.16,1.76-.22,1.87-1.06h0Z"/><path class="cls-22" d="m559.59,45.93c-.07,3.84,1.96,7.53,5.19,9.59.67.43,1.71.16,2.08-.55.4-.75.17-1.62-.55-2.08-.16-.1-.32-.21-.47-.32-.11-.08-.2-.16-.04-.03-.06-.05-.13-.11-.19-.16-.3-.26-.59-.53-.86-.83-.13-.14-.25-.28-.37-.43-.18-.22.07.11-.03-.04-.05-.07-.1-.14-.15-.2-.23-.33-.44-.67-.63-1.02-.09-.17-.17-.34-.25-.51-.01-.03-.13-.28-.05-.11.08.19-.05-.13-.07-.17-.13-.35-.25-.71-.34-1.08-.05-.2-.1-.41-.13-.61-.02-.08-.03-.17-.04-.25-.05-.3,0,.16,0-.03-.02-.4-.06-.79-.05-1.19.01-.8-.71-1.56-1.52-1.52-.84.04-1.51.67-1.52,1.52h0Z"/><path class="cls-22" d="m552.79,38.09c-4.57-.64-9.08.62-12.86,3.22-3.78,2.6-6.79,6.25-8.7,10.42-4.38,9.6-3.79,20.29-4.74,30.56-.07.72-.14,1.44-.22,2.15-.04.37-.09.74-.14,1.11.03-.23,0,.04-.01.07-.03.21-.06.42-.09.63-.21,1.42-.47,2.83-.8,4.22-.33,1.38-.72,2.75-1.2,4.09-.11.3-.22.59-.33.89-.06.15-.12.29-.17.44-.04.1-.08.2-.12.29.05-.12.04-.1-.03.07-.3.68-.62,1.35-.96,2-.37.71-.2,1.69.55,2.08.7.37,1.69.21,2.08-.55,4.8-9.18,4.56-19.72,5.28-29.78.36-4.93.91-9.6,2.59-14.38.19-.55.4-1.1.62-1.64.2-.48-.12.25.09-.22.06-.15.13-.29.19-.44.14-.32.29-.63.45-.94.48-.96,1.02-1.89,1.62-2.78.15-.23.31-.45.47-.68.05-.07.11-.15.16-.22.02-.02.29-.39.1-.13.34-.44.69-.86,1.06-1.27.73-.82,1.52-1.59,2.36-2.3.21-.18.42-.35.64-.52-.26.2.1-.07.12-.09.15-.11.29-.21.44-.32.48-.34.97-.66,1.48-.95.5-.29,1.01-.57,1.54-.81.12-.06.24-.11.36-.17.08-.04.16-.07.24-.11-.16.07-.16.07,0,0,.25-.09.49-.19.74-.28.54-.19,1.09-.35,1.65-.48.3-.07.6-.13.9-.19.13-.02.26-.04.39-.06.33-.05-.25.02.12-.01.57-.05,1.14-.1,1.71-.1.31,0,.62.01.93.03.13,0,.27.02.4.03.06,0,.63.08.26.03.79.11,1.67-.19,1.87-1.06.16-.72-.22-1.76-1.06-1.87h0Z"/><path class="cls-22" d="m514.01,76.36c.19,6.56-1.25,13.08-4.21,18.86-.36.71-.21,1.68.55,2.08.7.37,1.7.21,2.08-.55,3.22-6.28,4.84-13.34,4.63-20.4-.02-.8-.68-1.56-1.52-1.52-.8.04-1.55.67-1.52,1.52h0Z"/><path class="cls-22" d="m518.24,87.99c-.02.36-.05.73-.09,1.09-.01.1-.02.21-.04.31.02-.15.02-.13-.01.06-.03.15-.05.31-.08.46-.13.74-.3,1.48-.52,2.2-.1.35-.22.69-.34,1.04-.06.17-.13.34-.19.51-.04.1-.08.19-.12.29.04-.1.04-.1,0,0-.3.69-.64,1.36-1.01,2.02-.4.69-.18,1.7.55,2.08.72.38,1.66.19,2.08-.55,1.67-2.91,2.61-6.15,2.81-9.49.05-.8-.73-1.56-1.52-1.52-.86.04-1.47.67-1.52,1.52h0Z"/><path class="cls-22" d="m571.37,76.74c.05,4.89,1.52,9.74,4.21,13.83.44.66,1.37,1.01,2.08.55.66-.43,1.01-1.37.55-2.08-.62-.94-1.18-1.92-1.66-2.94-.43-.9-.79-1.82-1.13-2.93-.32-1.05-.57-2.13-.75-3.22-.03-.16-.05-.31-.07-.47.03.21,0-.06-.02-.14-.03-.29-.06-.57-.09-.86-.05-.58-.07-1.15-.08-1.73,0-.8-.69-1.56-1.52-1.52-.82.04-1.53.67-1.52,1.52h0Z"/><path class="cls-22" d="m566.56,91.31c.64,1.77,1.5,3.45,2.63,4.95.25.33.5.59.91.7.36.1.85.06,1.17-.15.33-.21.61-.52.7-.91.08-.37.09-.85-.15-1.17-.85-1.14-1.57-2.37-2.12-3.68.05.12.1.24.15.36-.13-.3-.25-.61-.36-.91-.14-.38-.34-.7-.7-.91-.33-.19-.81-.27-1.17-.15-.74.24-1.35,1.07-1.06,1.87h0Z"/><circle class="cls-22" cx="537.93" cy="64.61" r="1.81"/><circle class="cls-22" cx="555.33" cy="64.61" r="1.81"/></g><g><circle class="cls-21" cx="570.75" cy="75.03" r="3.26"/><path class="cls-22" d="m572.71,75.03c0,.09,0,.18-.01.27-.01.26,0-.09.01-.08.03.01-.09.38-.1.43,0,.03-.06.24-.09.25-.01,0,.15-.3.03-.08-.08.15-.17.29-.26.44-.15.23.16-.13.02-.03-.05.04-.1.11-.14.16-.04.04-.08.08-.12.12l-.06.06c-.11.09-.09.07.07-.04,0,.06-.32.21-.36.23-.05.03-.1.05-.15.08-.22.13.27-.08-.05.02-.14.04-.28.09-.42.12-.25.05.01.05.04,0-.01.02-.19.02-.22.02-.15,0-.3,0-.45-.01-.19,0,.33.07.04,0-.09-.02-.17-.04-.26-.06-.08-.02-.17-.05-.25-.08-.2-.06.08.02.07.03-.02.02-.33-.18-.38-.2-.06-.04-.12-.09-.18-.12-.15-.09.23.21.03.02-.04-.04-.38-.33-.36-.36,0,0,.16.23.05.06-.05-.07-.1-.14-.14-.21-.03-.05-.06-.1-.08-.15-.01-.03-.03-.05-.04-.08-.06-.13-.05-.1.03.08-.05-.01-.12-.36-.13-.41-.01-.06-.03-.11-.04-.17-.06-.26.02.29,0-.05,0-.14-.01-.27,0-.41v-.09c.02-.15.02-.12,0,.08.02-.04.02-.12.03-.17.03-.14.08-.28.12-.42.09-.28-.14.25,0,0,.04-.07.08-.15.12-.23.04-.06.08-.12.12-.18.14-.23-.03.02-.02.03-.01-.02.27-.29.29-.31.02-.02.04-.04.06-.06.09-.07.09-.07,0,0l-.07.05s.09-.07.14-.1c.05-.04.42-.28.45-.25,0,0-.32.11-.07.03.08-.03.16-.06.25-.08.06-.02.11-.03.17-.04.04,0,.29-.1.09-.02-.19.07.04,0,.09,0,.08,0,.15,0,.23,0,.08,0,.15,0,.23.01.29,0-.25-.06,0,0,.17.04.34.09.5.14.27.08-.17-.12-.03-.01.08.06.18.09.26.14.05.03.1.06.14.09.05.03.09.06.14.1-.15-.12-.17-.13-.07-.04.1.1.2.2.3.3.21.21-.15-.24,0,0,.05.07.1.14.14.21.04.07.08.15.12.23.13.22-.08-.26,0,0,.05.17.1.33.14.5.05.2-.01-.09,0-.08.04.02.02.32.02.36,0,.68.59,1.34,1.31,1.31.7-.03,1.32-.57,1.31-1.31-.03-1.95-1.24-3.62-3.05-4.31-1.71-.64-3.82-.08-4.97,1.33-1.23,1.5-1.48,3.62-.47,5.31,1.01,1.69,2.95,2.48,4.86,2.14,2.12-.38,3.61-2.37,3.64-4.47,0-.68-.61-1.34-1.31-1.31-.72.03-1.3.57-1.31,1.31Z"/></g><g><path class="cls-20" d="m475.88,101.95s.02-.06.03-.09c.06-.11.11-.22.19-.32.22-.3.33-.63.27-1.01-.06-.44-.29-.75-.65-.99-.38-.26-.77-.51-1.15-.77-.11-.16-.24-.29-.42-.41-1.23-.8-2.55-1.44-3.93-1.94-.66-.24-1.33-.43-2-.59-.67-.15-1.41-.35-2.1-.33-.05,0-.1,0-.16.01-.23,0-.46.04-.66.13-.52.18-.97.52-1.2,1.06-.03.07-.04.13-.06.2-.22.43-.3.93-.17,1.43.35,1.36,1.73,1.91,2.88,2.43.33.15.66.3.99.45.2.11.4.22.6.33.75.38,1.52.71,2.31.98.14.06.28.13.42.19.21.09.44.14.67.15.37.1.74.19,1.11.27.19.04.4.04.59,0,.04.06.09.11.13.17.09.07.18.14.28.21.16.1.32.15.51.16.29.04.61,0,.87-.16.2-.13.36-.29.49-.49.1-.16.15-.32.16-.51.02-.1.03-.2.02-.31,0-.09,0-.19,0-.28Z"/><path class="cls-20" d="m507.84,131.49c-.63-.59-1.44-.87-2.24-.86,0,0,0,0,0,0,.18-1.97.27-3.95.25-5.94-.02-3.04-4.55-3.73-5.34-.72-.95,3.61-1.9,7.23-2.85,10.84-.05.08-.1.16-.15.25-.44-.12-.96-.11-1.53.09-4.21,1.52-8.48,2.41-12.95,2.59-1.96.08-3.52,2.28-2.35,4.09,1.2,1.85,2.91,3.13,4.87,4.06,1.7,1.86,2.54,3.03,2.74,5.74.02.3.09.57.18.82-.47,1-.18,2.31.52,3.2,1.23,1.56,3.14,1.69,4.97,1.52,2.53-.24,5.9-.09,8.28-1.03,1.12-.44,1.66-1.23,1.9-2.17,1.52.21,3.19-.7,3.12-2.6-.11-2.82-.22-5.63-.33-8.45,1.26-2.01,1.9-4.57,2.07-6.6.13-1.62.13-3.6-1.16-4.8Z"/><path class="cls-20" d="m552.23,176.79c.74.93,1.37,1.92,1.92,2.94.51.72,1.03,1.44,1.56,2.16h24.02c-.7-2.07-1.46-4.11-2.28-6.13-.56-1.6-1.15-3.19-1.8-4.75-1.44-6.03-2.69-12.09-3.73-18.21-.14-.8-.55-1.3-1.08-1.56-.15-.8-.31-1.6-.46-2.39-.02-5.37-.04-10.75-.06-16.12,0-.7-.46-1.14-.99-1.27-.23-.44-.52-.85-.9-1.22-.66-.65-1.64-.44-2.14.28-.7,1.02-1.23,2.15-1.56,3.32-1.33,2.28-1.86,4.97-1.45,7.59-.13-.08-.26-.15-.42-.17-8.99-1.54-17.82-4.13-26.18-7.78-2.4-1.05-4.76-2.18-7.08-3.38-1.09-.57-2.17.16-2.29,1.32-.21,2.05,1.35,3.62,2.96,4.61,1.02.63,2.12,1.16,3.23,1.67.48.65.94,1.31,1.35,2-.12-.05-.24-.1-.37-.14-.13-.04-.25-.06-.37-.07,1.2,1.15,2.66,1.89,4.06,2.8.77.49,1.42,1.38,1.35,2.35-.01.16-.03.31-.05.46.7,2.19.76,4.5.1,6.78-.49,1.66-1.6,2.76-1.33,4.57.2,1.36.63,2.63.72,4.03,0,.04,0,.07,0,.11.11.08.22.17.33.25-.13.08-.25.17-.36.27-.1.68-.45,1.18-.93,1.51-.05.18-.09.36-.11.54-.22,2.06,1.45,4.09,2.86,5.53.69-.37,1.55-.38,2.41.26,3.21,2.38,6.59,4.7,9.08,7.86Zm-1.02-29.59s-.06.02-.08.04c-.05.03-.1.07-.14.1-.17-.19-.34-.38-.51-.58.25.15.49.29.74.43Z"/><path class="cls-22" d="m564.98,141.05c-4.66-1.68-9.29-3.42-13.95-5.1-4.41-1.58-8.92-2.84-13.32-4.43-.53-.19-1.05-.39-1.58-.59-.26-.1-.52-.2-.78-.31-.16-.06-.31-.13-.47-.19-.05-.02-.1-.04-.16-.06.11.04.07.03-.1-.04-1.08-.47-2.14-1.04-3.27-1.39-1.22-.38-2.52-.43-3.69.11-1.01.46-1.72,1.38-2.04,2.43-.62,2.02.26,4.19,1.8,5.54,1.72,1.51,3.97,2.37,6,3.36,5.08,2.49,10.17,4.98,15.25,7.47.71.35,1.68.22,2.08-.55.36-.69.22-1.71-.55-2.08-4.3-2.11-8.6-4.21-12.9-6.32-2.05-1-4.13-1.95-6.14-3.02-.4-.21-.8-.44-1.17-.7-.1-.07-.2-.13-.29-.21.2.15,0,0-.03-.02-.21-.19-.42-.37-.61-.58-.06-.07-.12-.14-.18-.21.16.21,0-.02-.04-.08-.09-.15-.18-.3-.25-.46.16.35-.05-.2-.07-.3,0-.02-.09-.4-.04-.14.05.23,0-.15-.01-.21,0-.17,0-.35.02-.52-.04.42.06-.14.09-.26.09-.3-.13.12,0,0,.05-.04.11-.18.14-.24-.11.24-.12.13-.03.05.12-.11.22-.2.03-.06.11-.08.22-.15.34-.21-.07.03-.24.07.03,0,0,0,.43-.08.2-.05-.23.03.22,0,.21,0,.1,0,.19,0,.28.01.43.02-.25-.09.17.03.24.07.48.12.72.2.12.04.24.08.36.13.06.02.36.14.13.04.23.1.46.21.69.32.51.24,1.02.46,1.54.68,1.1.47,2.21.91,3.34,1.32,4.18,1.52,8.47,2.7,12.66,4.19,4.94,1.77,9.84,3.61,14.78,5.39.75.27,1.7-.3,1.87-1.06.2-.86-.26-1.58-1.06-1.87h0Z"/><path class="cls-22" d="m563.85,139.9c.07-.64.1-.9.19-1.49.1-.63.22-1.25.35-1.87.24-1.1.52-2.19.87-3.26.07-.23.16-.45.24-.68.16-.44-.13.25.07-.17.04-.09.08-.17.12-.26.1-.21.22-.42.34-.62.06-.1.13-.2.2-.29.06-.09.05-.08-.03.03.06-.07.12-.14.18-.21.06-.07.13-.13.2-.2.04-.04.39-.3.11-.11.14-.1.32-.16.45-.27.15-.12-.32.09.02,0,.09-.03.19-.06.28-.08.1-.02.19-.04.29-.06-.38.07-.03.02.06.01.12,0,.23,0,.35.01-.06,0-.32-.08-.07,0,.08.02.19.07.27.08.17,0-.27-.17,0,0,.02.01.32.21.12.06-.19-.15.08.09.1.1.18.17.02.03-.01-.02.05.08.09.16.14.24-.06-.15-.06-.15,0,.02.02.09.05.18.07.27.1.4.02-.16,0,.08,0,.24.02.48,0,.72-.02.54-.08,1.08-.12,1.63-.16,2.29-.12,4.59.08,6.88.4,4.54,1.39,8.99,2.44,13.42,1.06,4.48,2.02,8.97,3.01,13.47,1.11,5.04,2.37,10.07,4.34,14.85.3.73,1.02,1.34,1.87,1.06.71-.23,1.39-1.09,1.06-1.87-1.85-4.49-3.08-9.21-4.14-13.94-1.06-4.74-2.05-9.49-3.17-14.21-.54-2.29-1.08-4.58-1.52-6.89-.46-2.39-.74-4.31-.91-6.7-.17-2.4-.11-4.78.08-7.18.09-1.16.03-2.42-.64-3.43-.69-1.03-1.77-1.58-2.99-1.68-1.23-.11-2.44.34-3.39,1.1-1.03.83-1.65,2-2.13,3.2-1.04,2.6-1.53,5.47-1.82,8.24-.08.8.76,1.56,1.52,1.52.9-.04,1.43-.67,1.52-1.52h0Z"/><g><g><rect class="cls-19" x="473.17" y="82.83" width="28.05" height="55.47" rx="7.09" ry="7.09"/><path class="cls-22" d="m494.44,136.77h-14.03c-.19,0-.39,0-.58,0-.15,0-.29-.01-.44-.02-.06,0-.12-.01-.19-.02.02,0,.27.05.1.01-.28-.05-.56-.11-.84-.19-.14-.04-.27-.08-.4-.13-.13-.05-.32-.14-.08-.03-.25-.12-.5-.24-.74-.39-.1-.06-.2-.13-.3-.19-.07-.04-.13-.09-.19-.14-.03-.02-.18-.14-.03-.02.14.12-.12-.11-.16-.15-.12-.1-.23-.21-.34-.33-.08-.08-.16-.17-.24-.26-.08-.09-.28-.35-.1-.1-.17-.22-.32-.45-.46-.69-.06-.1-.12-.21-.17-.31-.03-.06-.2-.43-.12-.25.07.17-.06-.16-.08-.21-.05-.13-.09-.27-.13-.4-.07-.26-.12-.52-.17-.78-.04-.22.02.26,0,.04,0-.06-.01-.12-.02-.19-.01-.15-.02-.29-.02-.44-.01-.91,0-1.83,0-2.74v-38.57c0-.32,0-.64,0-.96,0-.13.02-.25.03-.38,0-.18-.01.08-.02.1.01-.08.03-.16.04-.24.05-.28.12-.56.21-.83.04-.12.08-.23.12-.34.01-.03.09-.22.01-.04-.08.19.02-.05.05-.09.12-.23.24-.46.37-.68.07-.12.15-.23.23-.35.03-.05.07-.1.11-.14-.01.02-.17.19-.05.08.2-.19.36-.41.56-.61.1-.1.21-.18.31-.28.22-.19-.17.11.06-.05.23-.16.46-.31.7-.45.1-.06.21-.11.32-.17.07-.04.15-.07.22-.1-.02,0-.25.09-.09.04.27-.08.53-.19.81-.26.12-.03.24-.06.36-.08.12-.02.46-.06.15-.03.25-.02.5-.04.76-.04.18,0,.35,0,.53,0h12.24c.66,0,1.31-.02,1.97,0,.13,0,.25.02.38.02.29.02.02,0-.03,0,.06,0,.12.02.18.03.28.05.56.12.83.2.12.04.23.08.34.12.06.02.11.04.17.06-.3-.11-.1-.04-.03-.01.25.13.5.25.73.4.1.06.2.13.3.2.05.03.1.07.14.1.18.12-.18-.17-.03-.02.18.18.39.34.56.52.1.1.19.2.28.31.04.04.07.09.11.14-.01-.01-.15-.22-.06-.07.15.23.32.45.45.7.07.12.13.24.19.37.06.12.13.32.04.07.1.27.19.53.27.8.03.12.06.24.08.36.02.08.03.16.04.24,0,.03.03.24,0,.04-.02-.19.01.17.02.23,0,.15.01.3.01.44,0,.06,0,.12,0,.19v40.28c0,.43,0,.86,0,1.29,0,.17,0,.35-.01.52,0,.05-.04.49-.02.3.02-.19-.03.17-.04.23-.05.28-.13.56-.22.83-.04.13-.1.26-.14.4.09-.25.02-.05-.04.07-.12.25-.26.49-.41.73-.06.1-.13.2-.2.29-.16.23-.01.01.02-.03-.04.05-.07.09-.11.14-.17.19-.34.38-.53.56-.09.08-.18.16-.27.24-.02.02-.18.15-.03.03.15-.13-.04.03-.08.06-.21.15-.43.29-.65.41-.1.06-.21.11-.32.17-.12.06-.32.13-.07.04-.25.09-.49.18-.75.25-.26.07-.52.12-.78.16.31-.05-.02,0-.15,0-.15,0-.3.01-.44.01-.8,0-1.56.7-1.52,1.52.04.82.67,1.53,1.52,1.52,2.64-.02,5.07-1.26,6.66-3.36,1.09-1.43,1.64-3.21,1.65-5.01,0-1.18,0-2.35,0-3.53v-34.42c0-1.26,0-2.52,0-3.77,0-1.59-.41-3.18-1.27-4.53-1.42-2.22-3.74-3.59-6.34-3.86-.74-.08-1.51-.04-2.26-.04h-12.43c-1.52,0-2.97.25-4.33.94-2.18,1.11-3.85,3.31-4.29,5.71-.24,1.3-.17,2.63-.17,3.94v39.04c0,.48,0,.96.06,1.44.32,2.59,1.74,4.9,3.99,6.25,2.39,1.44,5.15,1.17,7.82,1.17h10.93c.8,0,1.56-.7,1.52-1.52-.04-.83-.67-1.52-1.52-1.52Z"/></g><rect class="cls-20" x="477.12" y="91.28" width="20.15" height="41.06"/></g><path class="cls-22" d="m540.82,142.44c-1.24.54-2.13,1.64-2.6,2.88-.49,1.3-.31,2.71.28,3.94,1.21,2.52,4.02,3.57,6.58,4.13.71.15,1.53-.21,1.7-.97.16-.7-.21-1.54-.97-1.7-.54-.12-1.08-.25-1.61-.41-.25-.08-.5-.17-.75-.26-.25-.09.06.04-.2-.08-.11-.05-.22-.1-.32-.16-.23-.12-.46-.25-.68-.4-.01,0-.35-.25-.13-.08-.1-.08-.2-.16-.29-.25-.16-.14-.3-.3-.45-.46-.21-.22.06.11-.1-.12-.07-.11-.14-.21-.21-.32-.05-.09-.1-.18-.15-.28-.03-.06-.06-.11-.08-.17.05.12.06.13.02.04-.05-.22-.14-.44-.17-.67.04.3,0-.09,0-.13,0-.1.01-.2.01-.3,0-.1,0-.08-.01.07,0-.06.02-.12.04-.18.02-.1.05-.2.08-.29.01-.05.17-.38.04-.12.06-.11.11-.22.17-.32.05-.09.11-.17.17-.26.07-.12-.13.12.05-.05.09-.09.17-.18.25-.26.04-.04.33-.22.1-.09.21-.13.41-.25.64-.35.67-.29.87-1.32.5-1.89-.45-.69-1.18-.81-1.89-.5h0Z"/><path class="cls-22" d="m539.76,149.98c-2.17,1.09-3.36,3.58-3,5.94.34,2.21,2.21,4.14,4.39,4.58.71.14,1.53-.2,1.7-.97.16-.69-.21-1.55-.97-1.7-.2-.04-.4-.09-.6-.16-.08-.03-.27-.15-.03-.01-.08-.05-.17-.08-.25-.13-.08-.05-.16-.09-.24-.14-.04-.02-.34-.25-.09-.05-.15-.12-.29-.24-.42-.38-.07-.07-.13-.14-.19-.21-.09-.1-.13-.19-.03-.03-.11-.17-.23-.34-.32-.53-.04-.08-.08-.17-.12-.25.08.18.04.1,0-.04-.07-.2-.11-.4-.15-.6.04.19.01.12,0-.03,0-.1,0-.19,0-.29,0-.1.01-.19.02-.29,0-.17-.05.23,0-.03.04-.21.09-.41.16-.61.04-.12.09-.22,0-.05.04-.09.08-.17.13-.26.1-.19.21-.36.33-.54-.11.16-.05.06.03-.04.06-.07.13-.14.2-.21.08-.08.17-.16.25-.24.1-.09.09-.06,0,0,.2-.13.38-.25.59-.35.65-.32.88-1.29.5-1.89-.43-.66-1.2-.84-1.89-.5h0Z"/><path class="cls-22" d="m537.57,158.71c-1.76,1.44-2.17,4.09-1.46,6.16.77,2.24,2.65,3.85,4.7,4.89.89.45,1.82.81,2.71,1.29.92.49,1.8,1.04,2.66,1.63.23.16.46.33.69.49.12.08.23.17.34.26.22.17.11.08.06.04.48.37.94.75,1.39,1.15.85.75,1.67,1.54,2.43,2.38.87.96,1.4,1.62,2.08,2.69.3.46.57.94.82,1.42.13.25.24.49.35.75-.12-.28.04.1.05.13.06.15.12.31.17.46.25.71.95,1.18,1.7.97.68-.19,1.22-.99.97-1.7-1.42-4.03-4.49-7.41-7.79-10.02-1.66-1.32-3.42-2.51-5.33-3.44-.89-.43-1.8-.78-2.65-1.29-.2-.12-.4-.25-.59-.38-.12-.08-.23-.16-.34-.24.2.15-.16-.13-.16-.13-.18-.15-.35-.31-.51-.47-.1-.1-.19-.2-.28-.3-.02-.02-.27-.32-.13-.15-.19-.25-.37-.53-.51-.81-.04-.07-.07-.15-.11-.22.13.27-.07-.19-.08-.25-.08-.24-.13-.48-.17-.73.06.32,0-.08,0-.13,0-.12-.01-.25-.01-.37,0-.12.01-.25.02-.37.02-.16.02-.16,0,0,.01-.08.03-.16.05-.24.02-.08.04-.16.06-.24.02-.06.19-.52.06-.24.1-.22.22-.42.35-.62-.17.25.05-.06.09-.09.11-.12.23-.22.36-.33.58-.47.49-1.47,0-1.96-.57-.57-1.38-.47-1.96,0h0Z"/><path class="cls-22" d="m472.23,94.44c-1.96-.42-3.74-1.39-5.75-1.6-1.65-.17-3.47.33-4.68,1.49-1.5,1.44-1.58,3.72-.53,5.45,1.05,1.72,2.84,2.57,4.59,3.39,2.07.97,4.05,2.12,5.93,3.42.66.45,1.72.14,2.08-.55.41-.78.16-1.6-.55-2.08-1.47-1.01-3-1.94-4.58-2.75-.76-.39-1.54-.74-2.31-1.11-.32-.15-.63-.31-.94-.48-.17-.1-.35-.2-.51-.31-.08-.05-.16-.11-.25-.17-.21-.14,0,.02-.11-.08-.15-.13-.29-.25-.42-.39-.06-.06-.31-.4-.16-.18-.1-.16-.2-.32-.29-.48-.03-.05-.11-.27-.02-.02-.04-.11-.08-.22-.11-.33-.01-.04-.08-.32-.04-.13.04.17,0-.04,0-.07,0-.09,0-.18,0-.27,0-.29,0-.07,0,0,.03-.13.2-.52.03-.2.07-.13.15-.25.22-.38-.13.24-.12.13-.03.05.05-.05.1-.11.15-.16.05-.05.11-.1.17-.15-.04.04-.27.18-.04.04.13-.08.26-.15.39-.23.03-.02.2-.11.03-.02-.19.1.1-.04.14-.05.15-.05.3-.1.46-.13.11-.03.57-.09.18-.05.32-.03.63-.05.95-.03.08,0,.16.01.23.02-.25-.03-.02,0,.11.03.24.04.47.1.7.16.47.12.92.28,1.38.44.91.32,1.81.66,2.76.87.78.17,1.68-.23,1.87-1.06.17-.77-.23-1.7-1.06-1.87h0Z"/><g><path class="cls-20" d="m482.07,110.02c4.38,1,5.98,5.82.29,5.85-3.42.02-6.83.04-10.25.06-.74,0-1.5,0-2.2-.24-1.45-.51-2.38-2.07-2.42-3.6-.1-4.48,3.25-4.65,6.65-3.87,2.64.6,5.27,1.21,7.91,1.81Z"/><path class="cls-22" d="m481.66,111.49c.28.07.55.14.81.24,0,0,.18.06.19.07-.02-.05-.28-.13-.09-.03.15.07.29.14.44.22.18.1.43.36.63.4-.18-.04-.22-.19-.1-.07.04.04.09.08.13.11.11.09.21.19.31.29.08.08.14.17.22.25.16.18-.2-.31,0,0,.05.09.11.17.16.26.02.04.04.09.07.13.12.23-.06.07-.04-.1,0,.06.07.19.08.26.06.22-.04.29,0-.08,0,.08.01.17.01.25,0,.33-.02.02.02-.07-.02.04-.08.22-.08.27,0-.03.19-.35.08-.19-.02.03-.05.08-.06.11-.14.28.17-.15.05-.05-.07.06-.17.15-.22.22-.1.14.29-.18.13-.1-.05.02-.09.06-.13.08-.09.06-.2.1-.29.15-.16.1.31-.1.12-.05-.06.02-.12.04-.17.06-.16.05-.32.09-.48.13-.06.01-.51.08-.29.06.22-.02-.04,0-.09,0-.08,0-.17.01-.25.02-.45.03-.91.02-1.36.02-1.02,0-2.04.01-3.06.02-2.04.01-4.08.02-6.11.03-.43,0-.86,0-1.29-.03-.04,0-.3-.04-.07,0-.1-.02-.21-.04-.31-.06-.1-.03-.2-.06-.3-.09.2.06.09.05-.04-.02-.09-.05-.18-.11-.27-.16-.06-.03-.21-.18,0,.01-.13-.11-.25-.23-.37-.35-.04-.04-.18-.22,0,.01-.05-.07-.1-.14-.15-.21-.11-.16-.19-.33-.28-.51-.1-.2.06.22,0,0-.02-.08-.06-.16-.08-.25-.02-.08-.05-.17-.07-.25-.01-.05-.07-.32-.03-.11.04.2,0-.06,0-.12,0-.09,0-.18-.01-.26,0-.22,0-.45.02-.67,0-.08.02-.17.02-.25.02-.22-.07.26,0,.05.04-.14.06-.29.1-.43.04-.13.09-.26.13-.39.06-.19-.14.26-.04.1.04-.06.07-.14.11-.21.02-.04.16-.3.2-.3.1,0-.26.26-.07.11.04-.03.08-.08.12-.12.05-.05.11-.09.16-.14.12-.14-.27.17-.11.08.11-.05.22-.14.32-.2.33-.19-.2.04.03-.02.11-.03.22-.08.33-.11.12-.03.23-.06.35-.08.42-.08-.29.02.15-.02.31-.03.62-.03.94-.02.15,0,.31.02.46.03.07,0,.14.01.21.02.16.02.34-.04.02,0,.28-.04.69.12.97.17.52.11,1.04.23,1.56.35,2.23.51,4.45,1.02,6.68,1.53.78.18,1.69-.24,1.87-1.06.18-.78-.23-1.68-1.06-1.87-2.29-.52-4.57-1.05-6.86-1.57-1.53-.35-3.11-.75-4.69-.64-1.58.11-3.02.68-3.98,1.99-1.01,1.37-1.2,3.43-.8,5.05.49,1.98,2.08,3.64,4.13,3.96,1.17.18,2.36.11,3.54.11,1.17,0,2.34-.01,3.51-.02,1.14,0,2.28-.01,3.42-.02,1.05,0,2.1.02,3.15-.14,1.31-.2,2.7-.86,3.3-2.11,1.53-3.17-1.98-5.96-4.72-6.61-.77-.18-1.69.24-1.87,1.06-.18.78.23,1.68,1.06,1.87Z"/></g><g><path class="cls-20" d="m481.28,121.8c.34.22.64.47.91.74,1.05,1.07,1.45,2.94.46,4.07-.81.92-2.2,1.03-3.43.95-3.35-.22-9.65-.32-10.82-4.31-1.96-6.69,10.42-3.06,12.88-1.44Z"/><path class="cls-22" d="m480.51,123.11s.4.3.17.11c.08.06.15.12.22.19.09.08.17.16.25.24.06.06.23.28.04.03.11.15.21.32.3.49.04.08.12.34.03.04.04.12.08.24.11.36,0,0,.09.41.05.17-.04-.24,0,.15,0,.17,0,.08,0,.16,0,.25,0,.33.09-.13,0,.01-.04.06-.06.22-.08.29.06-.26.07-.12,0-.03-.04.06-.28.34-.04.09-.05.05-.34.31-.07.11-.07.05-.14.1-.21.14-.06.03-.42.18-.1.06-.16.06-.33.11-.5.15-.05.01-.48.06-.12.03-.09,0-.18.02-.27.02-.27.02-.54.02-.81,0-.61-.02-1.23-.07-1.84-.11-.67-.04-1.34-.1-2-.17-.11-.01-.68-.02-.24-.03-.17,0-.37-.05-.54-.08-.36-.06-.71-.13-1.06-.21-.33-.07-.66-.16-.98-.26-.15-.05-.3-.1-.45-.15-.1-.03-.19-.07-.29-.11-.03-.01-.06-.03-.1-.04-.15-.06-.13-.05.08.03-.12.05-.68-.34-.8-.41-.14-.08-.27-.18-.41-.26-.27-.18.19.18.04.04-.07-.06-.15-.12-.22-.18-.1-.09-.2-.19-.3-.3-.03-.03-.14-.2-.18-.21.03,0,.21.31.07.08-.09-.13-.17-.26-.25-.4-.03-.06-.06-.11-.09-.17-.15-.28.09.29,0,0-.09-.28-.17-.56-.23-.86-.08-.4,0,.35,0-.04,0-.12-.01-.23-.01-.34,0-.05,0-.11,0-.16,0-.22.11.01-.03.19.04-.05.04-.23.06-.29.02-.07.06-.14.07-.21-.05.38-.16.31-.06.16.03-.04.06-.09.08-.14.02-.03.04-.06.06-.09.11-.2-.28.29-.11.14.06-.05.11-.12.17-.17.24-.24-.2.11-.08.05.1-.05.19-.12.29-.17.07-.04.37-.17.08-.05-.29.12.03,0,.1-.03.21-.07.43-.12.65-.16.06-.01.11-.02.17-.03.23-.05-.2.03-.2.03.11,0,.24-.03.35-.04.25-.02.5-.03.74-.03.53,0,1.07.04,1.6.1.07,0,.14.02.21.03.21.02-.42-.06-.12-.01.12.02.25.04.37.06.29.05.59.1.88.16,1.17.24,2.32.56,3.45.96.24.09.49.18.73.27.13.05.58.27.06.02.09.04.19.08.28.12.34.15.68.32.99.52.67.44,1.71.16,2.08-.55.4-.76.17-1.62-.55-2.08-.81-.52-1.74-.87-2.64-1.2-1.11-.4-2.26-.73-3.42-.98-2.32-.49-5.22-.94-7.4.27-2.79,1.56-2.2,5.45-.27,7.45,2.31,2.41,6.15,2.74,9.28,2.95,2.12.14,4.68.43,6.21-1.39.92-1.09,1.15-2.58.74-3.93-.41-1.38-1.33-2.38-2.5-3.17-.66-.45-1.72-.15-2.08.55-.41.77-.16,1.61.55,2.08Z"/></g><g><path class="cls-20" d="m480.04,133.64c-.14.87-.84,1.56-1.64,1.94-2.12,1-7.66-.31-8.66-2.65-.54-1.26.05-2.85,1.22-3.55,1.99-1.2,9.54,1.41,9.08,4.27Z"/><path class="cls-22" d="m478.57,133.24c-.03.13-.06.25-.1.38.08-.24-.02,0-.08.1-.14.23.11-.08-.09.1-.06.06-.13.12-.19.18.1-.1.11-.07,0,0-.11.07-.23.14-.34.2-.31.18.26-.07.05-.01-.16.05-.32.1-.49.14-.08.02-.17.03-.25.05-.19.04.34-.03.14-.02-.05,0-.09,0-.14.01-.21.02-.41.02-.62.02-.2,0-.4,0-.61-.02-.1,0-.21-.02-.31-.03-.37-.03.25.05-.13-.01-.45-.07-.9-.17-1.34-.29-.21-.06-.42-.12-.63-.2-.12-.04-.24-.09-.36-.13-.33-.12.15.08-.08-.03-.39-.18-.76-.37-1.12-.61-.06-.04-.2-.18-.27-.19.01,0,.23.2.13.09-.03-.03-.07-.06-.1-.09-.14-.12-.26-.28-.39-.4-.11-.1.11.13.11.15,0-.02-.06-.08-.07-.1-.04-.07-.08-.14-.12-.2-.15-.25.06.26-.02-.04-.01-.06-.03-.13-.05-.18-.08-.18,0,.24,0,.04,0-.12-.01-.24,0-.37,0-.06,0-.12.01-.18,0,.03-.06.26,0,.1.04-.11.07-.24.1-.36.04-.16-.02.05-.04.08.04-.07.07-.15.11-.22.03-.05.06-.11.1-.16.03-.04.19-.24.06-.1-.12.12.14-.12.17-.16.09-.12-.04.02-.07.04.05-.04.1-.07.15-.1.03-.02.18-.08.19-.11-.04.07-.41.14-.15.07.06-.02.12-.03.18-.05.06-.02.13-.02.19-.04.22-.05-.42.03-.06.01.33-.01.66-.01.99.02.09,0,.17.02.26.03.17.01-.2-.03-.18-.02.05.02.12.02.18.03.2.03.4.07.6.12.42.09.83.21,1.24.34.19.06.38.13.57.2.09.04.19.08.28.11.16.06-.14-.05-.13-.06.03,0,.15.07.18.08.43.19.85.41,1.25.66.18.11.35.25.53.36.13.08-.14-.1-.13-.1,0,0,.12.1.13.11.08.07.17.15.25.22.11.11.24.33.38.4,0,0-.2-.28-.12-.16.02.04.06.08.08.12.05.07.08.14.13.21.02.03.03.06.05.09.08.11-.1-.31-.08-.18.01.08.05.17.07.25.09.26,0-.3-.02-.12-.02.13-.04.47.04-.09-.11.79.19,1.68,1.06,1.87.72.16,1.75-.22,1.87-1.06.17-1.21-.17-2.19-.95-3.12-.63-.75-1.51-1.34-2.37-1.79-1.79-.94-3.99-1.68-6.04-1.58-1.15.06-2.19.44-2.96,1.34-1.15,1.34-1.49,3.17-.76,4.79.44.98,1.37,1.72,2.28,2.24,1.03.59,2.19.99,3.35,1.23,1.31.27,2.66.38,3.98.12,1.6-.31,3.15-1.6,3.47-3.24.15-.78-.22-1.68-1.06-1.87-.76-.17-1.71.23-1.87,1.06Z"/></g><path class="cls-20" d="m508.97,134.12c-.06-3.25-.51-6.49-1.25-9.66-.06-.24-.13-.45-.23-.64-.17-1.49-.34-2.98-.5-4.46-.05-.47-.28-.91-.64-1.16-.23-1.35-.5-2.7-.83-4.03-.02-.06-.04-.12-.06-.18-.12-1.35-.29-2.69-.51-4.02-.35-2.12-1.03-4.33-2.71-5.78-.6-.52-1.79-.6-2.18.28-1.1,2.48-1.23,5.27-.33,7.77.16.7.41,1.37.76,1.99.06.88.11,1.76.15,2.65-.2.24-.33.54-.31.86l.17,4.69c-.16.22-.26.5-.27.8,0,.32,0,.64.03.96-1.58,4.82-2.09,10.11,2.02,13.93.49.46,1.03.68,1.56.74,0,0,0,0,0,0,.78.53,1.64.56,2.38.27,2.25-.55,2.78-2.75,2.74-5.02Z"/><path class="cls-22" d="m510.33,171.45c-.32-2.18-.58-4.12-.84-6.36-.26-2.23-.49-4.46-.69-6.7-.19-2.21-.36-4.41-.49-6.62-.13-2.15-.33-4.33-.25-6.48,0-.25.03-.5.05-.75.03-.32.02-.16,0-.09.02-.14.04-.27.07-.41.1-.48.24-.94.42-1.39-.09.23,0,0,.02-.04.05-.11.1-.22.15-.33.1-.2.2-.39.3-.58.22-.41.45-.81.67-1.21.47-.85.92-1.73,1.21-2.66.31-.97.41-2.01.41-3.02,0-2.01-.37-4.01-.68-5.99-.34-2.2-.69-4.4-1.03-6.6-.34-2.2-.69-4.4-1.03-6.6-.28-1.81-.52-3.64-.86-5.44-.49-2.59-1.38-5.44-3.57-7.09-1.19-.9-2.78-1.16-4.21-.81-1.49.36-2.52,1.49-3.07,2.87-.46,1.18-.54,2.52-.46,3.77.08,1.26.28,2.54.64,3.75.27.91.63,1.8.96,2.69.34.92.59,1.83.81,2.78.06.27-.02-.34.02.12,0,.1.02.2.02.3.01.22.01.45,0,.67,0,.1-.02.2-.02.29,0,.27.07-.34-.01.11-.04.24-.09.48-.15.72-.22.91-.55,1.78-.88,2.66-.7,1.87-1.23,3.72-1.19,5.73.04,1.91.46,3.82,1.35,5.52.42.81.98,1.56,1.61,2.23.55.58,1.61.6,2.16,0,.57-.62.59-1.54,0-2.16-.15-.15-.28-.31-.42-.47-.16-.18.12.17-.02-.02-.07-.09-.14-.19-.2-.28-.23-.35-.44-.71-.62-1.08-.04-.08-.08-.17-.12-.25.11.24.01.03,0-.02-.07-.2-.15-.39-.21-.59-.14-.42-.24-.86-.33-1.3-.02-.09-.03-.19-.05-.28-.05-.3-.01-.08,0-.02-.03-.21-.05-.42-.06-.63-.03-.45-.04-.9-.02-1.34,0-.19.02-.38.03-.56,0-.1.02-.2.03-.31-.03.25,0,0,.01-.05.1-.48.2-.95.34-1.41.52-1.72,1.34-3.35,1.66-5.12.37-2.05-.03-3.96-.73-5.89-.52-1.42-1.09-2.81-1.37-4.31-.04-.24-.06-.49-.12-.72.12.46,0,0-.01-.12-.02-.16-.03-.32-.04-.49-.04-.59-.05-1.18,0-1.77,0-.06.02-.13.02-.19.01-.22-.07.4-.01.07.02-.12.04-.25.07-.37.06-.27.14-.52.23-.78.1-.29-.14.25-.03.08.03-.05.05-.1.08-.15.06-.11.14-.21.19-.32.11-.21-.08.17-.09.11,0-.01.09-.11.11-.12.06-.06.22-.29.3-.28.04,0-.31.2-.11.09.06-.03.12-.08.18-.11.05-.03.11-.05.15-.08.16-.1-.37.11-.08.04.12-.03.24-.07.36-.1,0,0,.18-.02.19-.03-.22.03-.27.04-.15.03.05,0,.1,0,.16-.01.13,0,.27,0,.4,0,.44.03-.21-.07.12.02.13.04.27.07.4.11.15.04.1-.04-.11-.05.06,0,.19.09.24.12.11.06.2.12.31.19.35.21-.16-.17.09.07.1.09.2.19.3.29.06.06.24.34.31.35-.02,0-.22-.3-.07-.08.04.05.07.1.11.16.07.11.14.22.21.33.16.27.31.55.44.84.03.06.11.17.1.23,0-.02-.14-.34-.04-.08.05.13.1.25.15.38.11.3.21.61.3.92.16.55.29,1.1.41,1.66.33,1.62.54,3.27.8,4.9.33,2.14.67,4.28,1,6.42.33,2.11.66,4.22.99,6.33.15.97.31,1.93.45,2.9.03.22.07.45.1.67,0,.06.05.39.02.13.01.1.03.21.04.31.06.47.1.94.13,1.41.03.47.04.93.03,1.4,0,.2-.02.4-.03.6,0,.1-.02.2-.03.29.03-.31-.02.13-.03.16-.07.4-.19.8-.33,1.18-.02.06-.14.35-.04.1-.04.09-.08.18-.12.26-.1.22-.21.43-.32.65-.85,1.62-1.88,3.18-2.21,5.02-.37,2.08-.18,4.21-.07,6.31.11,2.15.25,4.3.42,6.45.33,4.26.79,8.52,1.35,12.76.15,1.11.3,2.23.47,3.34.12.79,1.16,1.3,1.87,1.06.87-.28,1.19-1.03,1.06-1.87h0Z"/><path class="cls-22" d="m477.47,141.74c.91,1.5,2.2,2.68,3.55,3.78.63.51,1.26,1.02,1.87,1.56.3.26.59.53.86.82.12.13.24.26.36.39.06.07.13.15.19.22.1.12.2.26.05.06.22.31.44.63.62.97.04.07.07.14.1.21.18.34-.1-.3.03.07.09.24.17.48.23.73.13.52.14.72.16,1.31.01.61-.03,1.22-.08,1.83-.2,2.37-.45,4.74-.68,7.11-.26,2.75-.53,5.49-.79,8.24-.08.8.76,1.56,1.52,1.52.89-.04,1.44-.67,1.52-1.52.48-4.95.96-9.9,1.43-14.85.21-2.24.2-4.5-.98-6.5-.87-1.48-2.18-2.63-3.5-3.71-.72-.59-1.46-1.17-2.15-1.81-.35-.33-.69-.67-1.01-1.03-.07-.08-.13-.15-.19-.23-.25-.3.08.13-.09-.12-.13-.2-.27-.39-.39-.6-.41-.68-1.39-1-2.08-.55-.69.44-.99,1.36-.55,2.08h0Z"/><g><polyline class="cls-16" points="481.87 182.09 481.87 154.35 515.04 154.35 515.04 182.09"/><path class="cls-22" d="m483.4,182.09v-27.73l-1.52,1.52h29.08c1.34,0,2.7.07,4.03,0,.02,0,.04,0,.06,0l-1.52-1.52v27.73c0,.8.7,1.56,1.52,1.52.83-.04,1.52-.67,1.52-1.52v-27.73c0-.82-.7-1.52-1.52-1.52h-29.08c-1.34,0-2.69-.04-4.03,0-.02,0-.04,0-.06,0-.82,0-1.52.7-1.52,1.52v27.73c0,.8.7,1.56,1.52,1.52.83-.04,1.52-.67,1.52-1.52h0Z"/></g><path class="cls-22" d="m482.96,88.29h8.16c1.05,0,1.05-1.63,0-1.63h-8.16c-1.05,0-1.05,1.63,0,1.63h0Z"/></g></g><line class="cls-4" x1="477.14" y1="68.41" x2="481.01" y2="73.57"/><line class="cls-4" x1="499.08" y1="68.41" x2="495.21" y2="73.57"/><line class="cls-4" x1="488.11" y1="64.53" x2="488.11" y2="70.99"/></g><g><text class="cls-27" transform="translate(99.01 95.84)"><tspan class="cls-15" x="0" y="0">※We</tspan><tspan class="cls-39" x="39.78" y="0">b</tspan><tspan class="cls-15" x="50.61" y="0">予</tspan><tspan class="cls-33" x="66.23" y="0">約・</tspan><tspan class="cls-7" x="90.08" y="0">キ</tspan><tspan class="cls-30" x="104" y="0">ャ</tspan><tspan class="cls-31" x="118.76" y="0">ンセ</tspan><tspan class="cls-8" x="149.43" y="0">ルは現在使用できません</tspan><tspan class="cls-15"><tspan x="0" y="21.94">　ご希望される際にはお電話ください</tspan></tspan></text><line class="cls-6" x1="113.77" y1="98.09" x2="420.31" y2="98.09"/></g><line class="cls-5" x1="646.5" y1="61.41" x2="608.56" y2="108.42"/><line class="cls-5" x1="633.5" y1="97.41" x2="612.55" y2="112.7"/></g><g class="cls-35"><rect class="cls-16" x="242.65" y="131.65" width="181.99" height="36.14" rx="4.14" ry="4.14"/><text class="cls-28" transform="translate(287.35 154.92)"><tspan class="cls-14" x="0" y="0">登録</tspan><tspan class="cls-29" x="34.07" y="0">は</tspan><tspan x="50.8" y="0">こ</tspan><tspan class="cls-24" x="66.29" y="0">ち</tspan><tspan class="cls-36" x="80.85" y="0">ら</tspan></text><polyline class="cls-3" points="408.7 145.85 412.96 150.11 408.7 154.36"/></g></g></g></svg>