<?xml version="1.0" encoding="UTF-8"?><svg id="_レイヤー_2" xmlns="http://www.w3.org/2000/svg" xmlns:xlink="http://www.w3.org/1999/xlink" viewBox="0 0 265.85 160.34"><defs><style>.cls-1{fill:url(#_名称未設定グラデーション_150);}.cls-2{fill:#a9dbea;}.cls-3{fill:#bbd658;}.cls-4{fill:#444344;}.cls-5{fill:#888;}.cls-6{fill:#37ab65;}</style><linearGradient id="_名称未設定グラデーション_150" x1="11.14" y1="79.17" x2="228.8" y2="79.17" gradientUnits="userSpaceOnUse"><stop offset=".16" stop-color="#37ab65"/><stop offset=".57" stop-color="#bbd658"/><stop offset="1" stop-color="#93d3e9"/></linearGradient></defs><g id="_レイヤー_1-2"><g><g><polygon class="cls-3" points="265.85 0 257.45 48.62 241.52 33.48 265.85 0"/><polygon class="cls-2" points="265.85 0 219.18 28.05 229.89 30.7 265.85 0"/><polygon class="cls-6" points="265.85 0 232.7 31.51 236.24 41.27 241.3 36.27 238.14 33.67 265.85 0"/></g><path class="cls-1" d="m13.98,107.76c3.44-6.46,7.53-12.62,12.4-18.09,4.63-5.19,10.26-10.45,16.98-12.71,7.2-2.42,16.33-1.38,20.19,5.9,3.15,5.93,2.49,13.3,1.7,19.71-.09.76,3.89-.21,4.25-.95,6.28-12.79,16.96-23.78,30.07-29.6,4.18-1.86,8.83-3.01,13.36-1.77,2.62.72,4.8,2.41,6.68,4.32,3.27,3.33,7.64,9.59,5.24,14.47-.35.72,3.63.13,4.22-.76,3.95-5.94,8.53-11.86,14.62-15.76,3.2-2.04,6.72-3.3,10.55-3.23,4.51.08,8.96,1.1,13.35,2.02,16.59,3.45,33.58.13,45.89-7.67,9.7-6.14,17.03-14.4,16.68-14.12-9.87,8.24-22.46,19.04-45.41,21.39-8.55.87-16.67-2.39-25.13-3.19-6.67-.64-13.24.96-18.92,4.5-6.62,4.12-11.59,10.41-15.86,16.82,1.41-.25,2.81-.5,4.22-.76,2.12-4.32-.8-9.51-3.44-12.89-3.33-4.26-7.42-7.05-12.91-7.38-12.8-.78-25.96,7.99-34.67,16.61-5.22,5.16-9.53,11.17-12.77,17.75,1.42-.32,2.83-.63,4.25-.95.74-5.98,1.31-12.57-1.04-18.28-2.39-5.82-7.78-8.76-13.91-9.06-13.13-.65-24.29,6.97-32.58,16.47-4.77,5.47-8.84,11.55-12.25,17.95-.3.57,3.64.33,4.22-.76h0Z"/><g><path class="cls-5" d="m33.18,160.14h-1.39l-.32-5.73c-.1-1.82-.24-4.18-.22-5.48h-.05c-.42,1.44-.95,3.01-1.58,4.78l-2.31,6.39h-1.04l-2.16-6.25c-.63-1.84-1.12-3.45-1.48-4.92h-.05c-.03,1.56-.14,3.66-.25,5.62l-.36,5.6h-1.34l.9-12.74h1.73l2.28,6.47c.54,1.59.97,2.94,1.31,4.26h.05c.32-1.29.76-2.63,1.34-4.26l2.36-6.47h1.77l.82,12.74Z"/><path class="cls-5" d="m40.09,149.42c-.54,0-.92-.42-.92-.95s.39-.94.93-.94.92.42.92.94c0,.58-.39.95-.93.95Zm.71,10.72h-1.41v-9.11h1.41v9.11Z"/><path class="cls-5" d="m51.24,152.2c-.15-.02-.31-.03-.51-.03-1.53,0-2.31,1.49-2.31,3.03v4.95h-1.41v-6.39c0-.97-.02-1.86-.07-2.72h1.24l.07,1.76h.05c.41-1.14,1.37-1.96,2.51-1.96.15,0,.27.03.42.05v1.32Z"/><path class="cls-5" d="m62.68,157.97c0,.75.02,1.54.14,2.17h-1.29l-.14-1.17h-.05c-.48.72-1.43,1.37-2.73,1.37-1.77,0-2.7-1.27-2.7-2.59,0-2.19,1.94-3.38,5.37-3.36,0-.77,0-2.51-2.11-2.51-.8,0-1.63.22-2.26.65l-.34-.95c.75-.49,1.78-.77,2.82-.77,2.62,0,3.3,1.82,3.3,3.63v3.53Zm-1.39-2.56c-1.75,0-3.94.25-3.94,2.17,0,1.17.75,1.69,1.6,1.69,1.38,0,2.34-1.04,2.34-2.14v-1.72Z"/><path class="cls-5" d="m69.16,149.42c-.54,0-.92-.42-.92-.95s.39-.94.93-.94.92.42.92.94c0,.58-.39.95-.93.95Zm.71,10.72h-1.41v-9.11h1.41v9.11Z"/><path class="cls-5" d="m101.34,160.14h-1.39l-.32-5.73c-.1-1.82-.24-4.18-.22-5.48h-.05c-.42,1.44-.95,3.01-1.58,4.78l-2.31,6.39h-1.04l-2.16-6.25c-.63-1.84-1.12-3.45-1.48-4.92h-.05c-.03,1.56-.14,3.66-.25,5.62l-.36,5.6h-1.34l.9-12.74h1.73l2.28,6.47c.54,1.59.97,2.94,1.31,4.26h.05c.32-1.29.76-2.63,1.34-4.26l2.36-6.47h1.77l.82,12.74Z"/><path class="cls-5" d="m114.46,159.76c-.53.25-1.49.57-2.9.57-2.7,0-4.31-1.87-4.31-4.6s1.63-4.92,4.13-4.92c2.85,0,3.58,2.58,3.58,4.16,0,.32-.02.55-.03.77h-6.3c.02,2.52,1.48,3.48,3.14,3.48,1.16,0,1.85-.23,2.43-.47l.27,1Zm-.9-5.05c.02-1.24-.51-2.84-2.33-2.84-1.7,0-2.44,1.59-2.58,2.84h4.91Z"/><path class="cls-5" d="m127.59,157.88c0,.74.03,1.64.07,2.26h-1.26l-.07-1.56h-.05c-.48.95-1.53,1.76-3.02,1.76-2.14,0-3.8-1.82-3.8-4.63,0-3.08,1.83-4.88,3.99-4.88,1.36,0,2.28.65,2.7,1.4h.03v-5.47h1.41v11.12Zm-1.41-3.21c0-1.82-1.31-2.72-2.5-2.72-1.75,0-2.79,1.6-2.79,3.7,0,1.92.92,3.56,2.73,3.56,1.53,0,2.55-1.32,2.55-2.78v-1.76Z"/><path class="cls-5" d="m133.79,149.42c-.54,0-.92-.42-.92-.95s.39-.94.93-.94.92.42.92.94c0,.58-.39.95-.93.95Zm.71,10.72h-1.41v-9.11h1.41v9.11Z"/><path class="cls-5" d="m145.93,159.81c-.41.2-1.32.52-2.51.52-2.65,0-4.4-1.85-4.4-4.65s1.88-4.87,4.74-4.87c1.04,0,1.87.3,2.23.49l-.36,1.12c-.39-.22-1-.47-1.9-.47-2.14,0-3.26,1.69-3.26,3.65,0,2.21,1.34,3.59,3.21,3.59.92,0,1.55-.25,2-.45l.25,1.07Z"/><path class="cls-5" d="m157.37,157.97c0,.75.02,1.54.14,2.17h-1.29l-.14-1.17h-.05c-.48.72-1.43,1.37-2.73,1.37-1.77,0-2.7-1.27-2.7-2.59,0-2.19,1.94-3.38,5.37-3.36,0-.77,0-2.51-2.11-2.51-.8,0-1.63.22-2.26.65l-.34-.95c.75-.49,1.78-.77,2.82-.77,2.62,0,3.3,1.82,3.3,3.63v3.53Zm-1.39-2.56c-1.75,0-3.94.25-3.94,2.17,0,1.17.75,1.69,1.6,1.69,1.38,0,2.34-1.04,2.34-2.14v-1.72Z"/><path class="cls-5" d="m163.87,160.14h-1.41v-13.38h1.41v13.38Z"/><path class="cls-5" d="m188.35,159.76c-.59.28-1.75.57-3.23.57-3.33,0-6.01-2.12-6.01-6.44s2.6-6.67,6.39-6.67c1.55,0,2.45.32,2.85.52l-.37,1.17c-.6-.28-1.43-.52-2.45-.52-2.94,0-4.94,1.94-4.94,5.45s1.83,5.32,4.86,5.32c.98,0,1.95-.22,2.6-.52l.3,1.12Z"/><path class="cls-5" d="m195.5,160.14h-1.41v-13.38h1.41v13.38Z"/><path class="cls-5" d="m202.06,149.42c-.54,0-.92-.42-.92-.95s.39-.94.93-.94.92.42.92.94c0,.58-.39.95-.93.95Zm.71,10.72h-1.41v-9.11h1.41v9.11Z"/><path class="cls-5" d="m216.72,160.14h-1.41v-5.38c0-1.49-.54-2.79-2.16-2.79-1.21,0-2.43,1-2.43,2.59v5.58h-1.41v-6.77c0-.94-.03-1.62-.07-2.36h1.26l.09,1.49h.03c.46-.89,1.53-1.69,2.97-1.69,1.16,0,3.12.69,3.12,3.78v5.55Z"/><path class="cls-5" d="m223.55,149.42c-.54,0-.92-.42-.92-.95s.39-.94.93-.94.92.42.92.94c0,.58-.39.95-.93.95Zm.71,10.72h-1.41v-9.11h1.41v9.11Z"/><path class="cls-5" d="m236.03,159.81c-.41.2-1.32.52-2.51.52-2.65,0-4.4-1.85-4.4-4.65s1.88-4.87,4.74-4.87c1.04,0,1.87.3,2.23.49l-.36,1.12c-.39-.22-1-.47-1.9-.47-2.14,0-3.26,1.69-3.26,3.65,0,2.21,1.34,3.59,3.21,3.59.92,0,1.54-.25,2-.45l.25,1.07Z"/></g><g><path class="cls-4" d="m13.99,119.63c-.93,2.66-1.84,4.97-2.83,7.35,1.43.36,3.3,1.02,4.7,1.69v-.13l.02-.21v-3.15c0-.23-.02-.56-.07-.84l-.05-.36v-.08l3.24.26c-.07.43-.12.85-.12,1.28v2c0,.92-.07,1.77-.2,2.71,1.13.67,1.7,1.02,2.24,1.41.37.26.66.43.91.51l-1.6,3.1c-.34-.46-.42-.54-1.77-1.77l-.27-.23-.27-.26c-1.23,2.74-3.27,4.38-6.56,5.3-.47.13-.71.23-.96.36l-.44-.95c2.75-.41,5.06-3.05,5.68-6.53-1.55-1.2-3.39-2.25-5.02-2.82-1.28,2.95-2.33,5.1-3.02,6.2-1.06,1.69-2.36,2.54-3.84,2.54-2.26,0-3.76-1.59-3.76-3.99,0-2.13,1.08-4.07,2.98-5.22,1.23-.77,2.48-1.1,4.3-1.18h.76l.47-1.23c1.18-3,1.67-4.38,2.09-5.76h-5.63c-.62,0-.76.03-1.48.1v-1.23c.54.08,1.01.1,1.48.1h9.07l-.05,1.02Zm-7.3,7.99c-3.15,0-5.7,2.43-5.7,5.38,0,1.46.74,2.51,1.75,2.51,1.18,0,2.07-1.38,4.55-7.15l.32-.72-.91-.02Z"/><path class="cls-4" d="m30.19,132.02c.22-.59.91-7.04,1.16-10.76l3.25.38c-.1.33-.12.49-.15.64-.02.13-.02.18-.07.72-.15,1.66-.57,5.05-.84,6.74,1.99-2.25,4.52-3.38,7.69-3.38,4.55,0,7.2,2.02,7.2,5.48,0,2.43-1.01,4.15-3.17,5.33-2.11,1.18-4.48,1.64-8.6,1.66-.54.03-.59.03-.93.05l-.22-1.05c.32.05.64.08.93.08,2.16,0,4.62-.67,6.12-1.64,1.57-1.02,2.38-2.51,2.38-4.43,0-2.69-1.82-4.38-4.72-4.38-2.33,0-5.06,1.56-6.47,3.71-.3.43-.49.85-.59,1.2l-2.98-.36Zm10.89-9.58c-1.87-1.74-5.65-3.79-7.87-4.25l.71-1.51c.22.1.42.15.89.26,2.7.64,6.66,2,7.84,2.71l-1.57,2.79Z"/><path class="cls-4" d="m67.87,131.05c-.22.28-.3.49-.47,1.1-.49,1.64-1.38,3.64-2.02,4.46-.71.92-1.55,1.41-2.46,1.41-1.48,0-2.85-1.23-3.76-3.41-1.25-2.97-1.72-6.38-1.72-12.55v-.74c0-.67-.02-1.1-.07-1.51l3.42.23c-.07.31-.12,1.15-.12,1.79v1.51c.05,4.81.3,6.99,1.01,9.07.61,1.74,1.38,2.61,2.26,2.61.69,0,1.23-.49,1.97-1.87.54-.97.76-1.56.98-2.66l.98.56Zm6.61,3c-.12-4.51-2.48-10.35-4.89-12.09l1.18-1.05c.05.05.07.1.15.15.02.02.15.13.34.31,3.44,3.07,5.43,6.25,6.61,10.53.05.18.07.28.2.74l.07.23-3.66,1.18Z"/><path class="cls-4" d="m103.47,120.78c.91,0,1.2,0,1.84-.08-.1.59-.12,1.02-.12,1.92v14.5c0,1.36-.59,2.13-1.67,2.13-.79,0-3-.44-4.47-.87l-1.06-.21-.17-1.18c1.13.15,2.19.23,2.98.23.66,0,.86-.21.86-.92v-5.46l-2.41,2.82-.57-.97c-1.4-2.25-2.16-4.89-2.41-8.35-.76,3.84-2.61,6.63-6,9.04l-.57.54-.66-.82.66-.54c2.21-2.71,3.34-6.15,3.47-10.76h-4.35v16.01c0,.46.02.77.12,1.54h-3.79l.02-.26c.07-.56.1-.82.1-1.28v-15.19c0-.95-.02-1.23-.12-1.92.47.05.96.08,1.84.08h6.24v-2.95c0-.51,0-.59-.12-1.54h3.74c-.1.77-.12,1.08-.12,1.54v2.95h6.74Zm-6.54,1.02c.34,3.25,1.87,6.25,4.18,8.22l.54.41v-8.63h-4.72Z"/><path class="cls-4" d="m115.34,130.36c-.84,1.89-1.84,3.74-2.8,5.12l-.42.77-.81-.61.49-.64c1.35-2.92,2.43-6.51,2.92-9.76v-.1l.02-.08h-1.6c-.61,0-.76.03-1.48.1v-1.23c.54.08,1.01.1,1.48.1h2.19v-3.48c-.88.13-1.45.21-2.61.31l-.86.18-.32-.9.98-.23c1.99-.64,4.18-1.77,5.53-2.9l.79-.69,2.73,2.95-1.03.26c-.84.23-1.33.33-2.11.51l-.2.03v3.97h1.43c.57,0,.86-.03,1.47-.1v1.23c-.61-.08-.91-.1-1.47-.1h-1.43v1.61c.76.62,2.31,2.05,3.39,3.1l.64.51-2.48,2.23-.22-.95c-.25-.92-.66-2.08-1.33-3.66v9.91c0,.46.02.77.12,1.54h-3.15l.02-.26c.07-.56.1-.82.1-1.28v-7.45Zm12.88-11.89c0-.51,0-.59-.12-1.54h3.42c-.1.77-.12,1.08-.12,1.54v12.04l1.6-.33,1.08-.36.2,1.2-1.11.18-1.77.36v6.25c0,.46.02.77.12,1.54h-3.42l.02-.26c.07-.56.1-.82.1-1.28v-5.58l-5.63,1.18-1.16.31-.25-1.2,1.13-.15,5.9-1.2v-12.68Zm-5.11,6.58l.71.38c1.25.67,1.87,1,2.73,1.56l.86.41-2.31,3.02-.39-.87c-.47-.9-1.01-1.77-1.92-3.15l-.32-.49-.59-.61.64-.74.59.49Zm.52-6.15c1.33.69,2.29,1.25,3.44,2.02l.86.41-2.33,2.92-.44-.95c-.61-1.15-1.43-2.41-2.21-3.51l-.59-.61.61-.74.66.46Z"/><path class="cls-4" d="m160.3,122.14c-1.6,9.37-6.12,14.29-15.05,16.42-.42.1-.79.21-1.06.36l-.34-1.05c2.11-.1,5.68-2.2,7.79-4.56,2.66-2.89,4.23-6.4,4.84-10.83h-6.98c-1.67,3.1-3.49,4.84-7.03,6.68-.34.18-.64.38-.81.56l-.57-.9c1.06-.2,2.98-2.25,4.28-4.51,1.2-2,2.21-5.07,2.34-7.02l3.61.82-.15.36c-.02.08-.07.23-.15.41l-.1.31c-.3.85-.52,1.36-.91,2.25h10.4l-.12.69Z"/><path class="cls-4" d="m169.25,131.05c.07-.46.12-.85.12-1.28v-10.3c0-.46-.02-.77-.12-1.28h3.34c-.07.41-.12.87-.12,1.28v10.3c0,.44.05.87.12,1.28h-3.34Zm3.22,6.94c2.29-.28,4.55-1.56,6.07-3.46,1.35-1.66,1.82-3.41,1.82-6.89v-8.37c0-.46-.02-.77-.12-1.28h3.54c-.07.41-.12.87-.12,1.28v8.4c0,6.43-2.58,9.37-9.64,11.01-.42.08-.66.18-1.13.38l-.42-1.08Z"/><path class="cls-4" d="m212.22,136.07c-.49-.1-.79-.13-1.23-.13h-17.16c-.42,0-.79.05-1.23.13v-3.43c.39.08.84.13,1.23.13h17.16c.39,0,.84-.05,1.23-.13v3.43Zm-2.07-13.09c-.49-.1-.79-.13-1.23-.13h-13.05c-.42,0-.79.05-1.23.13v-1.64c.39.08.84.13,1.23.13h13.05c.39,0,.84-.05,1.23-.13v1.64Z"/><path class="cls-4" d="m222.37,131.33c-.02-1.56-1.5-5.76-2.24-6.38l1.03-.74c1.7,2.08,2.95,4.23,3.49,6.05l-2.29,1.08Zm.86,5.99c2.19.1,5.75-2.41,7.28-5.12,1.13-1.79,2.04-5.22,2.04-7.58l2.93.49c-.1.38-.15.61-.22,1.15-1.33,6.99-4.35,10.3-10.87,11.86-.49.13-.64.18-.81.28l-.34-1.08Zm3.69-6.79c-.05-1.84-1.16-5.38-1.99-6.38l1.13-.64c.07.18.12.23.39.61,1.28,1.77,2.56,4.23,2.8,5.33l-2.34,1.08Z"/><path class="cls-4" d="m261.58,122.14c-1.6,9.37-6.12,14.29-15.05,16.42-.42.1-.79.21-1.06.36l-.34-1.05c2.11-.1,5.68-2.2,7.79-4.56,2.66-2.89,4.23-6.4,4.84-10.83h-6.98c-1.67,3.1-3.49,4.84-7.03,6.68-.34.18-.64.38-.81.56l-.57-.9c1.06-.2,2.98-2.25,4.28-4.51,1.2-2,2.21-5.07,2.34-7.02l3.61.82-.15.36c-.02.08-.07.23-.15.41l-.1.31c-.3.85-.52,1.36-.91,2.25h10.4l-.12.69Z"/></g></g></g></svg>