<?xml version="1.0" encoding="UTF-8"?><svg id="_レイヤー_2" xmlns="http://www.w3.org/2000/svg" viewBox="0 0 80 135.38"><defs><style>.cls-1{fill:#ebe1d7;}.cls-2{fill:#fff;}.cls-3{fill:#fffddf;}.cls-4{fill:#fbf1e6;}.cls-5{fill:#fbebe0;}.cls-6,.cls-7{fill:#af9182;}.cls-8{fill:#decec6;}.cls-7{stroke:#fff;stroke-miterlimit:10;}</style></defs><g id="_レイヤー_1-2"><g><g><path class="cls-6" d="m19.48,135.38h41.04c11.67-5.64,19.48-15.94,19.48-27.71,0-17.83-17.91-32.29-40-32.29S0,89.84,0,107.67c0,11.78,7.81,22.07,19.48,27.71Z"/><ellipse class="cls-7" cx="40" cy="81.1" rx="26.57" ry="10.47"/><ellipse class="cls-7" cx="40" cy="77.67" rx="26.57" ry="10.47"/><g><path class="cls-3" d="m38.39,82.59c.06,0,.11-.01.09-.02-.06,0-.09.01-.09.02Z"/><path class="cls-3" d="m30.21,82.08l.22.05s-.11-.03-.22-.05Z"/><path class="cls-3" d="m26.55,81.93h-.07s-.04.02-.06.04l.13-.04Z"/><path class="cls-3" d="m23.88,81.46s-.09.05-.15.05c0,.02,0,.04.02.07.06.01.1-.08.13-.12Z"/><path class="cls-3" d="m18.24,77.1v-.04s-.03-.02-.05-.02l.05.07Z"/><path class="cls-3" d="m42.51,82.74h-.01c-.07.01-.03,0,.01,0Z"/><path class="cls-3" d="m60.14,74.58c.14.25-.42-.22-.17.14,0-.06.39.15.17-.14Z"/><path class="cls-3" d="m48.47,82.32s-.04-.03-.06-.04c0,.01.02.02.06.04Z"/><path class="cls-3" d="m50.76,81.96c.06,0,.08.01.16,0,0,0-.01,0-.03-.01-.03.02-.06.03-.13.02Z"/><polygon class="cls-3" points="53.15 81.69 53.1 81.68 53.03 81.69 53.15 81.69"/><path class="cls-4" d="m61.74,76.97c-.32-.74-.64-1.43-1.26-2.07.06.37-.19-.18-.3.02-.14-.12-.19-.17-.21-.19h0c-.12-.18-.25-.34-.38-.5-.08-.14.18.08.2.03-.35-.29-.08-.19-.31-.42,0,.1-.2,0-.42-.16.1.09.18.18.27.28-.6-.23-.4-.45-1.02-.6h.21c-.31-.09-1.12-.4-1.46-.31-.05-.04-.1-.12.04-.1-.72-.23-1.65-.21-2.19-.41l.06-.04c-.14-.01-.25.06-.41-.03.01-.02.06-.04,0-.06-.07,0-.37.03-.55-.03l.16-.03c-.7-.18-1.11-.02-1.71-.06.02-.16-.53-.28-.81-.34v-.02c-.81-.12-1.41-.02-2.18-.04-.46-.22-1.6-.22-2.36-.38.09.03.02.08-.07.11,0-.07-.1-.17-.25-.13.11.04.17.12.23.13-.03,0-.06.01-.08.01-.12-.03-.31.01-.41,0,.01-.05.03-.1.04-.16-.05,0-.11,0-.17,0-.09-.03-.21-.05-.34-.06,0,0,.01,0,.02,0,.1-.03.26-.03.38-.05-.07-.02-.23-.05-.34-.06-.09,0-.18.01-.22.05.05-.01.11-.05.15,0-.04.03-.09.04-.13.06-.06,0-.12,0-.18-.01l-.03.08c-.07,0-.15.02-.24,0,.11-.38-.55-.19-.66-.51-.41.08-.75-.18-1.19-.23.11.32-.13-.01-.15.3-.1,0-.13,0-.14-.03h0s0,0,0,0l-.27-.24c-.06-.1.11-.05.11-.12-.22-.06-.07-.15-.2-.25,0,.11-.11.14-.22.07l.15.18c-.34.1-.21-.3-.55-.21l.11-.07c-.17.02-.55-.13-.77.06-.01-.04-.02-.13.05-.14-.33-.13-.86-.02-.97-.28l.06-.05c-.05,0-.16.07-.16-.03.03-.02.06-.04.05-.06-.04,0-.19,0-.21-.08h.11c-.08-.25-.42-.25-.57-.5.21-.08.21-.33.22-.46h.03c-.01-.11-.03-.14-.07-.3l-.11-.49c-.06-.31-.13-.56-.13-.89l.05-.12c0-.24-.14-.36-.22-.46-.09-.1-.13-.19-.16-.27,0,.03-.02.06-.03.02v-.08s-.01.04-.01.01h0s0,.03-.02.06c0-.04.01-.07.01-.07,0,.04-.02.08-.03.13l-.04.1s0,0-.01,0c-.02,0-.12.04-.28.13-.16.08-.36.19-.51,0-.03.05-.04.03-.06.04-.07.17-.15.38-.22.47-.07.09-.14.19-.19.28l-.03-.16c-.2.15-.34.24-.48.33-.11.07-.18.12-.3.21v-.12c-.15.08.02.47-.13.56l-.15-.17c-.28.15-.64.11-.86.4,0-.03-.02-.09.02-.12-.14.05-.59.07-.44.33-.07-.18-.31.09-.46.23l-.02-.14c-.08.22-.07.27-.26.38-.04,0-.06-.05-.04-.07-.11.01-.07.16-.26.14l.05-.11c-.17.04-.14.08-.21.21-.09.09-.33.06-.39-.05,0,.08-.06.21-.17.21-.03-.04,0-.08.01-.1-.31,0-.36.29-.6.22-.02-.04-.04-.06-.06-.07.22-.07.4-.12.39-.11-.04-.13-.23-.09-.14-.31-.11.14-.29.43-.48.43-.01,0-.02-.02-.04-.03v-.02s-.06.03-.09.06c-.06,0-.1,0-.15.01-.06-.09-.23.02-.31.05.05.13-.07.15.08.22-.02,0,0-.02.07-.05,0,0,.02-.02.03-.03h0s.22-.07.22-.07c-.04.09-.1.18-.22.14-.01.1-.03.21-.04.26-.19-.14-.46-.16-.54-.26-.24.18-.61.31-.67.63-.06.06-.12-.03-.16-.06.03-.04.09-.06.09-.11-.12.13-.43.22-.38.41-.22,0,.03-.21-.21-.06v-.07c-.43-.01-.55.38-.8.62-.32.06-.63.15-.79.28-.15.04-.18-.03-.24-.05.08-.03.18-.04.22-.08-.29.09-.87.16-.91.3-.38,0,.18-.16-.32-.04l.06-.05c-1.04-.01-1.54.66-2.68.69.08,0,.12,0,.14,0-1.27.23-2.48.88-3.7,1.25-.34.12-.34.22-.51.37l-.12-.06-.27.29c-.41.34-.95.24-1.4.81h.11c-.2.14-.56.54-.58.45,0,.03,0,.11-.1.15l-.05-.03c-.12.17-.23.34-.32.52-.3.37-.16-.22-.54.41-.13.26-.11.79-.04.7.03-.1.11-.25.17-.24-.02.08-.03.15-.04.23,0,0,.02.01.03.02,0,.01,0,.02-.01.03-.24,1.01.07,1.79.76,2.41h-.04s.06.02.08.04c.08.07.17.14.26.21-.02.01-.05.01-.11-.02.16.22.21.09.35.28.01.02,0,.02-.02.02l.24.09c-.05,0-.01.12-.14.02.35.31.69.23.8.4h-.04c.44.13.28.02.36-.02.09.03.18.06.27.1l.14.25.09-.09c.06.02.18.07.14.1.25,0-.02-.06.13-.09.26.19.82.18.84.36.13-.05-.26-.13.06-.11.04.21.37.05.62.19-.1.08-.35-.02-.1.12.2-.13.53.14.77.15.03-.13.51.03.91.04-.03.04.72.17,1.08.26v.02c.07-.12.44-.06.72-.06-.02.08-.07.1-.22.13l.26.02c.06-.04.15-.05.31-.05l-.07.09c.34.02.7-.06,1.13.04.02-.06-.13-.17-.09-.24.08,0,.16,0,.23.02,0,.03-.04.06-.1.06.04,0,.15-.03.22,0l-.19.07c.2.05.11-.06.27-.04,0,.07.12.06.09.11-.04,0-.14-.04-.2-.02.18.03.4.08.46.14-.01-.04,0-.1.14-.1.35.01.11.09.31.14.08-.04.3.02.31-.09.1,0,.12.06.16.09.18-.04.83.03.64-.09h-.05s.03-.01.03-.01c.59-.08,1.21.11,1.79.1v.03c.34-.02.76.01,1.01-.05.1,0,.24.07.19.12.26-.01.29-.05.67.03-.27.04.09.06-.27.03.34.05.41.11.78.04-.13.08.24.13.4.12l-.23-.09c.18,0,.34.03.49.05l-.1.11c.69.23,1.3-.13,1.82.13.19-.08-.38-.07-.21-.17.33.03.66.21.76.21.44.08.41-.17.88-.12-.06-.04-.11-.16.23-.2.32.02.4.18.19.21-.08,0-.11-.01-.11-.02-.11.02-.25.03-.11.08l.04-.04c.16.04.61.04.5.11.25-.04.11-.07-.08-.09.41.06.65,0,1.07.03-.07-.02-.13-.07-.06-.07.63.04.27-.09.7-.11.24.06-.08.16.34.09.26.04.06.11-.04.15.39-.09.73.03.95.04l-.21.04c.12-.02.22-.03.32-.03l-.12-.08c.12.01.22,0,.22.04.12-.06-.1-.14.14-.22.16.04.49-.07.55.04-.51-.02.06.11-.37.15.08-.02.18-.02.31,0,.02.01-.01.02-.05.03.48.08.22-.14.72-.16-.06.07.12.12.2.1-.2,0-.1-.1.08-.16.32.03.35-.05.52-.06h-.2c.06-.08.22-.08.45-.11.02.05-.2.04-.12.06.24-.12.56.09.91,0,.16.03.02.12.16.14.38-.11.42.06.83-.03-.12-.08-.14-.06.14-.16l-.67.1.42-.15c-.21.01-.42.08-.55.07.2-.08.18-.06.08-.13.28.11.54-.11.86-.04v.21c.49.06.85-.17,1.48-.16l-.2-.02c.08-.09.38-.04.58-.09-.01.07.11.09.21.12-.01-.05.46-.03.5-.18l.28.07c.51,0,.56-.25,1.04-.28-.14.09.08.12-.23.21.16-.01.3-.02.3-.07.1.03.44-.14.59-.09.07-.04.08-.11.26-.13.02.01,0,.04,0,.04,0-.03.28-.08.11-.14.52.17,1.38-.17,1.83-.04.35-.07.77-.15,1.09-.2-.01.02,0,.03-.05.04.45,0,.24-.24.75-.24.27.07-.25.1-.09.12.11.22.6-.12.96-.05l-.08.03c.27.03.61-.2,1.03-.26,0,0-.01.02,0,.04.26-.17.79-.33,1.18-.46-.1.12-.17.09-.07.16.17-.06-.09-.13.26-.25.13.02.39-.01.46.07l-.34.1c.21.08.44-.13.62-.17v.06c.51-.2.46-.33.99-.56h-.07c.22-.28.27-.06.5-.31l.16.07c.17-.14.54-.55.73-.88-.04.24-.34.61-.54.82.19-.11.57-.5.58-.64-.05.08-.1.19-.18.23.11-.27.3-.56.45-.96.11.09.25-.18.29-.54.05-.35-.03-.74.02-.93Zm-28.86-7.39v.02s0-.05,0-.07c.05-.04.08-.02.1,0-.03.01-.05.03-.1.05Zm-13.2,10.45s0-.02,0-.03c.03.02.05.04.08.06-.03-.01-.05-.01-.08-.03Z"/><path class="cls-3" d="m30.13,82.06s-.02,0-.03-.02c0,0,0,0,.02.01h.01Z"/><path class="cls-3" d="m21.53,81.05c.51.27-.08-.11.47.06l-.42-.15c.06.06.15.14-.05.09Z"/><path class="cls-3" d="m23.34,81.46c-.24-.03,0,.06-.03.08.15,0,.2,0,.03-.08Z"/><path class="cls-3" d="m33.18,82.28l-.03.09c.18,0,0-.04.03-.09Z"/><polygon class="cls-3" points="36.07 82.7 36.39 82.68 36.16 82.69 36.07 82.7"/><path class="cls-3" d="m52.74,81.83l-.07-.11c-.12.03-.13.17.07.11Z"/><path class="cls-3" d="m60.17,80.03c-.16.08-.33.11-.39.16.1.02.31-.05.39-.16Z"/><path class="cls-3" d="m43.4,70.73c.12.15-.26.12-.07.3,0-.06.23-.19.07-.3Z"/><path class="cls-3" d="m35.14,69.03s.02-.01.03,0c-.02,0-.03,0-.03,0Z"/><path class="cls-3" d="m32.84,69.73s-.01.01-.02.02c.02,0,.03.01.04.02v-.05s-.02.01-.02.01Z"/><path class="cls-3" d="m39.57,66.35s-.03.04-.05.06h.02s.03-.06.03-.06Z"/></g><g><path class="cls-2" d="m48.42,73.52c-.05-.08-.11-.14-.17-.22h0c-.07-.12-.09-.17-.11-.35,0-.01-.02-.03-.03-.04h0c-.05-.06-.12-.12-.21-.14.01-.03.03-.05.05-.08,0,0-.02.03-.05.08-.05-.01-.1-.02-.16,0-.09-.08-.19-.15-.29-.22,0-.04-.02-.06-.06-.04-.13-.08-.26-.16-.39-.24l.02-.04s-.02.02-.02.04c-.05-.03-.1-.05-.14-.08h0c-.14-.07-.29-.14-.44-.21-.15-.08-.28-.13-.41-.17-.19-.07-.38-.14-.58-.21l.24.15c-.16,0-.32,0-.53.01-.04.13-.65-.38-.68-.23,0,0-.43.04-.38-.1-.03.04-.21-.07-.45-.23,0-.01,0-.03,0-.04,0,.01,0,.02-.01.04-.25-.16-.53-.38-.79-.58.83.42,1.74.68,2.6.97l-4.76-3.04c-.14-.2-.34-.24-.78.21.28,0,.25.54.08.61.59-.23.01.15.01.18-.01-.04.31.04.43.14.25-.14.06.53.14.42-.24.25,1.4,1.44,1.6,1.42l-.07.15c.06-.08,0-.07.1-.16.11.22,1.56.86,2.55,1.15v.04s0-.03,0-.04c.49.14.88.2.93.08.1,0,.8-.04.77.09.1-.2.13.13.1-.1,0,0,.89.49.9.43.15-.2.19-.11.21-.08-.06.04-.09.09-.06.18.2-.14.25.06.12.28.33-.18.47,0,.53.01-.05.04-.1.09-.15.14.1-.08.14-.12.17-.15.01,0,.04-.03.11-.1l.09.05Zm-7.56-3.2s.14-.18,0,0h0Zm-.02-1.28c.12.17.26.32.4.47-.2-.02-.31-.23-.4-.47Zm.43.51c.11.11.22.2.33.3-.23-.11-.4-.22-.33-.3Zm6.03,3.42s.03-.09.05-.13l.07.04s-.08.05-.12.08Zm.93.58s.01-.07.01-.13l.09.06c-.06.03-.02.02,0,0h0s-.06.05-.1.07Z"/><path class="cls-1" d="m48.15,73.72s.12-.08.09-.08c-.16.09-.19.12-.09.08Z"/><path class="cls-1" d="m48.22,73.56s.08-.06,0,0h0Z"/><path class="cls-1" d="m47.95,73.66c.07-.04.02-.02,0,0h0Z"/><path class="cls-1" d="m47.68,72.52l-.04.06s.04,0,.04-.06Z"/><path class="cls-2" d="m43.6,71.16s.02-.05.02-.08c0,.02,0,.05-.02.08Z"/><path class="cls-1" d="m45.18,71.68c-.02-.07,0,.04,0,0h0Z"/><path class="cls-1" d="m40.27,69.76l.11-.07c-.09.05-.14.03-.11.07Z"/><path class="cls-1" d="m48,73.6s-.09.11,0,0h0Z"/><path class="cls-1" d="m47.55,73.29s0,0,0,0h0s0,0,0,0Z"/><path class="cls-1" d="m41.46,71.37s.04-.07,0,0h0Z"/><path class="cls-1" d="m47.63,73.41c.08-.14,0-.01,0,0h0Z"/><path class="cls-2" d="m45.59,72.81s0,0,0,0c-.02.02,0,.01,0,0Z"/><path class="cls-1" d="m48.01,73.72s.05-.02,0,0h0Z"/><path class="cls-1" d="m48.04,73.7s0,0,.03-.02l-.03.02Z"/><path class="cls-1" d="m47.9,73.58s.05-.07,0,0h0Z"/><path class="cls-1" d="m47.9,73.58s.03.2,0,0h0Z"/><path class="cls-1" d="m47.94,72.77s.04-.07.05-.1c-.04.03-.05.05-.05.1Z"/><path class="cls-1" d="m46.55,72.97s0-.03-.02-.07c-.01-.06,0,.04.02.07Z"/><path class="cls-1" d="m46.55,72.97s0,0,0,0h0Z"/><path class="cls-1" d="m46.7,72.01l.03-.02s.02-.02-.03.02Z"/><path class="cls-1" d="m45.01,71.5l-.04.16s.07-.2.04-.16Z"/><path class="cls-1" d="m44.2,71.4s.01.08.03.06c.01-.08,0-.13-.03-.06Z"/><path class="cls-1" d="m27.22,77.54c-.06,0,.25.11,0,0h0Z"/><path class="cls-1" d="m27.41,77.45s.09.05,0,0h0Z"/><path class="cls-1" d="m27.56,77.5s-.04-.02-.03-.02c-.07-.04-.18-.1-.32-.13.11.05.17.08.2.1,0,0,.03,0,.15.05Z"/><path class="cls-1" d="m35.9,70.17s.04.07.06.11c-.05-.09-.01-.14-.06-.11Z"/><path class="cls-1" d="m27.34,77.15c-.14-.06-.01,0,0,0h0Z"/><path class="cls-1" d="m29.95,73.02c.13.13.07.05,0,0h0Z"/><path class="cls-1" d="m35.74,71.56l-.02-.07s.02.07.02.07Z"/><path class="cls-2" d="m36.98,69.63c.08.37-.72.29-.84.2.04-.01-.05.32-.18.45.14.26-.59.05-.5.13-.19-.22-2.18,1.08-2.23,1.16l-.08-.14c.03.1.05.04.07.17-.23-.01-4.59,1.96-4.15,2.41.09-.16-.51.96-.58.93.1.11-.09.14.05.14.03.05-.92,1.1-.73,1.13.18.17.08.24.06.27-.05-.07-.03-.14-.19-.06-.04.53,0,.79.06.87-.07.12-.13.23-.2.35l8.45-6.39s.01,0,.01.01c0,0,0-.02,0-.03l.92-.7c.56-.19,1-.3.04-.89Zm-1.83,1.1c.06,0,.16.16,0,0h0Zm-4.48,3.06c-.14.11-.28.23-.42.35.04-.05.08-.11.13-.17-.03-.04.11-.11.28-.18Zm-1.47,1.39c-.04.05-.09.1-.14.16.03-.09.07-.15.14-.16Zm-.29.34s-.07.09-.11.14h0c-.07.1-.14.19-.22.29-.05-.03-.04,0-.06,0h.06s-.05.06-.06.09c-.01-.03-.02-.06-.04-.09.05-.12.29-.4.43-.43Zm-.85.53c.15.07.26.12.35.14-.1.14-.2.29-.29.44.03-.21.02-.42-.06-.58Z"/><path class="cls-1" d="m33.8,71.04s.04.07,0,0h0Z"/><path class="cls-1" d="m27.25,77.34l-.03-.03s0,.01.03.03Z"/><path class="cls-1" d="m27.35,76.99s.07.05,0,0h0Z"/><path class="cls-1" d="m27.35,76.99s-.22.16,0,0h0Z"/><path class="cls-1" d="m28.39,75.08c-.19.04.05-.01,0,0h0Z"/><path class="cls-2" d="m56.42,75.58c.13-.18.27-.38.41-.59.05.03-.98-.26-1.65-.45.02-.02.05-.04.07-.05-.02-.02-.04-.03-.07.05-.31-.08-.53-.14-.53-.14-.21.14-2.35-.54-2.87-.41-.02-.02-.06-.05-.13-.09-.59.1-.99.2-1.25.28-.35,0-.69.03-1.04.07.25,0,.51.01.79.03-.43.24.39.38,1.26.25,0,.03,0,.07,0,.14.04.02.03-.09.01-.14.08-.01.16-.03.24-.04.15.03.3.06.44.1-2.33.77-3.91-.22-.83.77.2.05.43-.05.64-.15-.01.03-.02.04.04.05v-.06c.36-.16.7-.3.86.25,0-.05,1.18.78,1.27.73-.3.27-.48.42-.64.54h0s0,0,0,0c-.27.22-.43.36-.88.96-.15-.21-.16-.2-.02.04.09-.02.36.05.76.02-.41.3-.95.61-1.64.95,1.95.2,3.48-.36,4.61-1.67.09-.05.16-.09.24-.12l.07.08s-.02-.05-.05-.09c.12-.05.22-.07.28-.03-.01-.15-.05-.28-.11-.41.11-.17.23-.34.33-.52-.22-.13-.44-.24-.66-.36Zm-2.72-1.19c.06,0,0,.07-.04.07.02-.03.03-.05.04-.07Zm-1.12-.21v.14c-.06,0-.13-.02-.2-.03.07-.03.14-.07.2-.11Zm.99,1.4c-.07-.07,0-.24,0,0h0Z"/><path class="cls-1" d="m49.35,73.88c-.04.22.03.03,0,0h0Z"/><path class="cls-1" d="m49.62,74.22c.2-.48,0-.23,0,0h0Z"/><path class="cls-1" d="m49.4,74.12l-.02.1s.04-.05.02-.1Z"/><path class="cls-1" d="m50.1,73.84c0-.18,0,0,0,0h0Z"/><path class="cls-1" d="m57.48,77.89c-.1-.03-.28,0,0,0h0Z"/><path class="cls-1" d="m51.31,75.38s.01,0,.02,0c0,0-.02,0-.02,0Z"/><path class="cls-1" d="m51.32,75.38s.02,0,0,0h0Z"/><path class="cls-1" d="m51.32,73.81c-.02.17,0,.02,0,0h0Z"/><path class="cls-1" d="m56.95,74.97s.01,0,.02,0c.05,0,.02,0-.02,0Z"/><path class="cls-1" d="m55.26,74.49s.05.04.08.03c-.02-.04-.05-.04-.08-.03Z"/><path class="cls-1" d="m49.71,73.82l.04-.04s-.03,0-.04.04Z"/><path class="cls-1" d="m50.4,73.78s-.03.1,0,0h0Z"/><path class="cls-1" d="m50.4,73.78s-.39-.15,0,0h0Z"/><path class="cls-1" d="m51.33,74.61c-.06.03,0,.09,0,.13.04-.06.05-.07,0-.13Z"/><path class="cls-1" d="m54.52,74.21c-.13-.1-.04-.03,0,0h0Z"/></g><rect class="cls-5" x="16.71" y="98.14" width="48" height="28" rx="14" ry="14"/></g><g><ellipse class="cls-8" cx="53.29" cy="24.67" rx="10.02" ry="31.62" transform="translate(-3.03 41.29) rotate(-41.29)"/><path class="cls-8" d="m72.13,49.88c-4.93,1.95-16.67-5.53-27.39-17.74C34.03,19.94,28.12,7.33,30.7,2.69l-7.56,6.63c-2.53,4.66,3.37,17.24,14.06,29.42,10.72,12.2,22.46,19.69,27.39,17.74"/></g></g></g></svg>