<?xml version="1.0" encoding="UTF-8"?><svg id="_レイヤー_2" xmlns="http://www.w3.org/2000/svg" viewBox="0 0 80 135.38"><defs><style>.cls-1{fill:#ebe1d7;}.cls-2{fill:#e5e5e6;}.cls-3{fill:#dfc6be;}.cls-4{fill:#af9182;}.cls-5{fill:#decec6;}</style></defs><g id="_レイヤー_1-2"><g><path class="cls-5" d="m78.76,17.02l-8.1-13.09c-1.51-2.44-4.17-3.92-7.04-3.92H16.38c-2.87,0-5.53,1.48-7.04,3.92L1.24,17.02c-.81,1.31-1.24,2.82-1.24,4.36v69.54c0,1.54.43,3.05,1.24,4.36l8.1,13.09c1.51,2.44,4.17,3.92,7.04,3.92h47.24c2.87,0,5.53-1.48,7.04-3.92l8.1-13.09c.81-1.31,1.24-2.82,1.24-4.36V21.37c0-1.54-.43-3.05-1.24-4.36Zm-38.76.7c-3.48,0-6.31-2.82-6.31-6.31s2.82-6.31,6.31-6.31,6.31,2.82,6.31,6.31-2.82,6.31-6.31,6.31Z"/><g><path class="cls-1" d="m7.5,41.87v48.19c0,1.68.99,3.21,2.53,3.9l28.22,12.67c1.11.5,2.39.5,3.5,0l28.22-12.67c1.54-.69,2.53-2.22,2.53-3.9v-48.19H7.5Z"/><path class="cls-4" d="m72.5,25.47c0-2.36-1.92-4.28-4.28-4.28H11.78c-2.36,0-4.28,1.92-4.28,4.28v16.4h65v-16.4Z"/></g><rect class="cls-3" x="31.69" y="103.42" width="16.61" height="25.06"/><rect class="cls-2" x="31.69" y="126.05" width="16.61" height="9.33"/><rect class="cls-2" x="28.41" y="130.52" width="23.18" height="4.87"/></g></g></svg>