<?xml version="1.0" encoding="UTF-8"?><svg id="_レイヤー_2" xmlns="http://www.w3.org/2000/svg" xmlns:xlink="http://www.w3.org/1999/xlink" viewBox="0 0 80 135.38"><defs><style>.cls-1,.cls-2,.cls-3,.cls-4{fill:none;}.cls-5{clip-path:url(#clippath);}.cls-6,.cls-7,.cls-8,.cls-2,.cls-9,.cls-3,.cls-4{stroke-linecap:round;stroke-width:1.14px;}.cls-6,.cls-7,.cls-8,.cls-2,.cls-9,.cls-4{stroke-linejoin:round;}.cls-6,.cls-10,.cls-2,.cls-11{stroke:#af9182;}.cls-6,.cls-10,.cls-11{fill:#af9182;}.cls-7{stroke:#aab7ad;}.cls-7,.cls-8,.cls-9{fill:#decec6;}.cls-8,.cls-9,.cls-4{stroke:#decec6;}.cls-12{fill:#f9d7c1;}.cls-13{fill:#fadfce;}.cls-14,.cls-15{fill:#af9890;}.cls-10,.cls-11,.cls-3{stroke-miterlimit:10;}.cls-10,.cls-9,.cls-15,.cls-3,.cls-4{fill-rule:evenodd;}.cls-3{stroke:#af9890;}</style><clipPath id="clippath"><rect class="cls-1" width="80" height="135.38"/></clipPath></defs><g id="_レイヤー_1-2"><g class="cls-5"><g><path class="cls-8" d="m15.85,129.73l4.42-23.52,11.55-24.62c-7.71,1.2-16.47,1.15-24.06,16.73-6,12.34,0,68.47.43,69.56.44,1.09,8.83-12.23,8.83-12.23l-1.17-25.92Z"/><path class="cls-8" d="m40.02,82.91c10.17-.62,27.49,8.02,47.69,27.37l3.6,2.27s2.13,7.68-1.29,8.05c-9.05.98-38.34-14.21-38.34-14.21l-11.67-23.49Z"/><path class="cls-8" d="m75.73,60.93l-11.7,3.87s11.77,40.07,16.27,50.43c2.07,4.77,7.82,6.58,11.1,5.2,12.85-5.42-15.67-59.5-15.67-59.5Z"/><path class="cls-10" d="m66.4,13.09C64.08,5.57,52.38-.3,38.41.17c-12.17.41-21.23,6.22-26.99,16.32-4.93,8.62-5.16,22.76-5.16,22.76l64.43,14.63s9.78-17.9,4.38-31.41c-2.89-7.23-8.66-9.38-8.66-9.38Z"/><path class="cls-7" d="m61.81,170s-3.27-41.08-4.45-56.52c-1.18-15.43-5.83-22.33-9.65-27.11-3.26-4.07-7.58-5.18-11.49-5.02-3.91.17-8.93.94-12.19,5.02-3.82,4.78-8.47,11.68-9.65,27.11-1.18,15.44-4.45,56.52-4.45,56.52h51.9Z"/><path class="cls-12" d="m40.25,81s4.11,3.45-.29,6.32c-4.4,2.88-12.55-.58-7.53-6.32h7.82Z"/><path class="cls-12" d="m31.77,77.41l.65,3.59s4.24,3.59,7.82,0l.65-3.91-9.13.33Z"/><g><path class="cls-13" d="m13.87,40.57c-1.07-2.51-3-4.29-5.18-4.79-1.65-.38-3.34,0-4.91,1.11-1.09.77-2.58,2.04-3.43,3.67-1.04,1.96-1.14,4.25-.28,6.44,1.13,2.91,3.78,5.3,6.57,5.93,3,.68,5.61-.72,7.17-3.88,1.2-2.68,1.22-5.77.06-8.48Z"/><path class="cls-13" d="m62.97,51.72c2.05-1.8,4.57-2.58,6.74-2.09,1.65.37,3.01,1.45,3.94,3.13.65,1.16,1.45,2.94,1.52,4.78.09,2.21-.8,4.32-2.52,5.94-2.28,2.13-5.69,3.15-8.49,2.51-3.01-.68-4.75-3.08-4.79-6.59.08-2.94,1.39-5.74,3.61-7.68Z"/></g><path class="cls-13" d="m40.08,8.48c11.49-.03,24.02,6.14,28.76,20.19,4.76,14.06-.91,41.8-21.55,48.73-20.63,6.93-39.48-9.28-40.66-24.42-1.17-15.14,7.01-44.44,33.44-44.5Z"/><path class="cls-15" d="m47.16,53.23c-2.18-.65-1.34-4.6.67-5.09,2.02-.49,2.69,1.73,2.42,2.78-.27,1.04-1.16,2.89-3.1,2.31Z"/><path class="cls-15" d="m24.66,48.12c-2.19-.65-1.34-4.6.68-5.09,2.01-.5,2.68,1.73,2.41,2.78-.26,1.04-1.16,2.89-3.09,2.31Z"/><path class="cls-14" d="m35.79,50.61c-.97.78-1.84,1.67-2.7,2.56-.27.28-.3.79,0,1.06s.77.3,1.06,0c.86-.89,1.72-1.78,2.7-2.56.14-.11.22-.36.22-.53,0-.18-.08-.4-.22-.53s-.33-.23-.53-.22c-.21,0-.37.09-.53.22h0Z"/><path class="cls-14" d="m32.84,54.4c.51.54,1.03,1.08,1.54,1.62.13.14.34.22.53.22s.4-.08.53-.22c.28-.31.29-.76,0-1.06-.51-.54-1.02-1.08-1.54-1.62-.13-.14-.34-.22-.53-.22s-.4.08-.53.22c-.28.31-.29.76,0,1.06h0Z"/><path class="cls-8" d="m40.86,81.41s3.22.85,5.01,1.26l-4.4,9.54-4.93-3.99,4.33-6.8Z"/><path class="cls-8" d="m31.78,81.41s-3.35.74-5.38,1.26l4.4,9.54,4.94-3.99-3.96-6.8Z"/><polyline class="cls-2" points="41.47 92.21 36.12 88.33 30.8 92.21"/><path class="cls-6" d="m55.85,86.26l6.73,84.88h-26.3l.21-67.38,9.78-21.52s6.64,2.07,9.57,4.02Z"/><path class="cls-6" d="m16.43,86.26l-6.74,84.88h26.3l-.22-67.38-9.78-21.52s-6.62,2.07-9.56,4.02Z"/><path class="cls-14" d="m37.2,92.95c0,.54-.43.97-.97.97s-.97-.43-.97-.97.43-.97.97-.97.97.44.97.97Z"/><path class="cls-14" d="m37.2,98.08c0,.54-.43.97-.97.97s-.97-.43-.97-.97.43-.96.97-.96.97.43.97.96Z"/><path class="cls-11" d="m64.29,17.69s-6.07,10.9-23.68,11.99l2.03-3.35s-13.79,8.52-32.09.56c0,0,7.64-16.9,22.26-19.73,14.62-2.82,31.49,10.53,31.49,10.53Z"/><path class="cls-11" d="m62.27,19.14s4.37,25.55,7.48,30.49c0,0,6.91-16.43,2.1-23.23-4.81-6.81-7.56-8.71-7.56-8.71l-2.02,1.45Z"/><path class="cls-4" d="m47.44,16.41s-11.64,8.36-23.62,7.98"/><path class="cls-9" d="m33.27,14.46s-4.93,3.96-10.4,5.68"/><path class="cls-14" d="m38.68,68c-.73-1.9-1.95-3.66-3.93-4.37-1.6-.58-3.4-.19-4.73.82-.89.68-1.59,1.57-2.08,2.57-.43.86.87,1.63,1.3.76.79-1.59,2.22-2.96,4.02-2.92,1.94.05,3.31,1.8,3.98,3.54.15.38.51.64.93.53.36-.1.67-.54.53-.93h0Z"/><path class="cls-3" d="m48.56,37.44c.3.48.91,1.29,1.95,1.95,1.2.76,2.35.93,2.93.98"/></g></g></g></svg>