<?xml version="1.0" encoding="UTF-8"?><svg id="_レイヤー_2" xmlns="http://www.w3.org/2000/svg" xmlns:xlink="http://www.w3.org/1999/xlink" viewBox="0 0 80 135.38"><defs><style>.cls-1{fill:none;}.cls-2{clip-path:url(#clippath);}.cls-3{fill:#e9e8e8;}.cls-4{fill:#fff;}.cls-5{fill:#fbdbd6;}.cls-6{fill:#decec6;}</style><clipPath id="clippath"><rect class="cls-1" width="80" height="135.38"/></clipPath></defs><g id="_レイヤー_1-2"><g class="cls-2"><g><path class="cls-4" d="m24.91,98.85l5.32-5.45-4.55-4.44c-.72-.7-1.66-1.08-2.66-1.08s-2,.41-2.72,1.15c-.71.73-1.1,1.69-1.08,2.71.01,1.02.42,1.97,1.15,2.68l4.55,4.43Z"/><path class="cls-6" d="m23.86,102.15l5.65,5.52c1.3,1.27,3.01,1.96,4.82,1.96h0c1.88,0,3.63-.74,4.94-2.08,1.29-1.32,1.99-3.06,1.96-4.91-.02-1.84-.76-3.57-2.08-4.86l-5.65-5.52s0,0,0,0l-5.65-5.52c-1.3-1.27-3.01-1.96-4.82-1.96s-3.63.74-4.94,2.08c-1.29,1.32-1.99,3.06-1.96,4.91.02,1.84.76,3.57,2.08,4.86l5.65,5.52h0Zm-3.56-13.12c.72-.74,1.69-1.15,2.72-1.15s1.94.38,2.66,1.08l4.55,4.44-5.32,5.45-4.55-4.43c-.73-.71-1.14-1.66-1.15-2.68-.01-1.02.37-1.98,1.08-2.71Zm16.76,16.35c-.72.74-1.69,1.15-2.73,1.15h0c-1,0-1.94-.38-2.66-1.08l-4.54-4.44,5.32-5.45,4.55,4.44c.73.71,1.14,1.66,1.15,2.68.01,1.02-.37,1.98-1.08,2.71Z"/><path class="cls-6" d="m32.45,95.57l-5.32,5.45,4.54,4.44c.72.7,1.66,1.08,2.66,1.08h0c1.03,0,2-.41,2.73-1.15.71-.73,1.09-1.69,1.08-2.71-.01-1.02-.42-1.97-1.15-2.68l-4.55-4.44Z"/><path class="cls-4" d="m50.98,102.68l-3.81,5.08c-1.26,1.68-.92,4.07.76,5.33.66.5,1.45.76,2.28.76,1.21,0,2.32-.56,3.05-1.52l3.81-5.08-6.09-4.57Z"/><path class="cls-5" d="m61.97,94.36c-.66-.5-1.45-.76-2.28-.76-1.21,0-2.33.56-3.05,1.52l-3.81,5.08,6.09,4.57,3.81-5.08c1.26-1.68.92-4.07-.76-5.33Z"/><path class="cls-6" d="m63.83,91.88c-1.2-.9-2.63-1.38-4.14-1.38-2.17,0-4.23,1.03-5.53,2.76l-4.74,6.32-4.74,6.32c-2.28,3.05-1.66,7.38,1.38,9.67,1.2.9,2.64,1.38,4.14,1.38h0c2.16,0,4.23-1.03,5.53-2.76l4.74-6.32s0,0,0,0l4.74-6.32c2.28-3.05,1.66-7.38-1.38-9.67Zm-13.62,21.98c-.83,0-1.62-.26-2.28-.76-1.68-1.26-2.02-3.65-.76-5.33l3.81-5.08,6.09,4.57-3.81,5.08c-.73.97-1.84,1.52-3.05,1.52Zm12.53-14.17l-3.81,5.08-6.09-4.57,3.81-5.08c.73-.97,1.84-1.52,3.05-1.52.83,0,1.61.26,2.28.76,1.68,1.26,2.02,3.65.76,5.33Z"/><path class="cls-4" d="m46.19,122.77l-5.96-2.18-1.1,3-1.52,4.15,5.96,2.18c.42.15.86.23,1.31.23h0c1.59,0,3.03-1,3.58-2.5.35-.96.31-1.99-.12-2.91-.43-.92-1.19-1.62-2.15-1.97Z"/><path class="cls-6" d="m47.25,119.86l-7.42-2.71-7.42-2.71c-.77-.28-1.56-.42-2.37-.42-2.89,0-5.49,1.82-6.49,4.53-1.31,3.58.54,7.55,4.11,8.86l7.42,2.71s0,0,0,0l7.42,2.71c.76.28,1.56.42,2.37.42h0c2.89,0,5.49-1.82,6.49-4.53.63-1.73.56-3.61-.22-5.28-.78-1.67-2.16-2.94-3.89-3.58Zm1.2,7.79c-.55,1.5-1.98,2.5-3.58,2.5h0c-.44,0-.88-.08-1.31-.23l-5.96-2.18,1.52-4.15,1.1-3,5.96,2.18c.96.35,1.72,1.05,2.15,1.97.43.92.47,1.96.12,2.91Zm-21.99-8.04c.55-1.5,1.98-2.5,3.58-2.5.44,0,.88.08,1.31.23l5.96,2.18-2.61,7.15-5.96-2.18c-1.97-.72-2.99-2.91-2.27-4.88Z"/><path class="cls-6" d="m28.73,124.5l5.96,2.18,2.61-7.15-5.96-2.18c-.42-.15-.86-.23-1.31-.23-1.59,0-3.03,1-3.58,2.5-.72,1.97.3,4.16,2.27,4.88Z"/><g><path class="cls-3" d="m40.71,70.1l1.16-4.18c-.13,0-.27.02-.4.02-2.32,0-4.42-1.37-5.35-3.49-1.3-2.95.04-6.41,2.99-7.7.75-.33,1.54-.5,2.35-.5,1.23,0,2.39.39,3.35,1.06l1.99-7.16-14.61-33.17c-.41-.93-1.34-1.53-2.37-1.53-.35,0-.7.07-1.03.22L2.46,25.27c-1.3.57-1.89,2.09-1.32,3.39l20.68,46.95c.41.93,1.34,1.53,2.37,1.53.35,0,.7-.07,1.03-.22l15.5-6.83Zm.9-24.18c1.3,2.95-.04,6.4-2.99,7.7-.75.33-1.54.5-2.35.5-2.32,0-4.42-1.37-5.35-3.49-1.3-2.95.04-6.41,2.99-7.7.75-.33,1.54-.5,2.35-.5,2.32,0,4.42,1.37,5.35,3.49Zm-5.2-11.82c1.3,2.95-.04,6.41-2.99,7.7-.75.33-1.54.5-2.35.5-2.32,0-4.42-1.37-5.35-3.49-.63-1.43-.66-3.02-.1-4.47.57-1.46,1.66-2.6,3.09-3.23.75-.33,1.54-.5,2.35-.5,2.32,0,4.42,1.37,5.35,3.49Zm-16-11.58c.57-1.45,1.66-2.6,3.09-3.23.75-.33,1.54-.5,2.35-.5,2.32,0,4.42,1.37,5.35,3.49.63,1.43.66,3.02.1,4.47-.57,1.46-1.66,2.6-3.09,3.23-.75.33-1.54.5-2.35.5-2.32,0-4.42-1.37-5.35-3.49-.63-1.43-.66-3.02-.1-4.47Zm-13.2,10.33c-.63-1.43-.66-3.02-.1-4.47.57-1.46,1.66-2.6,3.09-3.23.75-.33,1.54-.5,2.35-.5,2.32,0,4.42,1.37,5.35,3.49,1.3,2.95-.04,6.4-2.99,7.7-.75.33-1.54.5-2.35.5-2.32,0-4.42-1.37-5.35-3.49Zm5.2,11.82c-1.3-2.95.04-6.41,2.99-7.7.75-.33,1.54-.5,2.35-.5,2.32,0,4.42,1.37,5.35,3.49.63,1.43.66,3.02.1,4.47-.57,1.45-1.66,2.6-3.09,3.23-.75.33-1.54.5-2.35.5-2.32,0-4.42-1.37-5.35-3.49Zm5.2,11.82c-1.3-2.95.04-6.4,2.99-7.7.75-.33,1.54-.5,2.35-.5,2.32,0,4.42,1.37,5.35,3.49.63,1.43.66,3.02.1,4.47-.57,1.45-1.66,2.6-3.09,3.23-.75.33-1.54.5-2.35.5-2.32,0-4.42-1.37-5.35-3.49Zm5.2,11.82c-.63-1.43-.66-3.02-.1-4.47.57-1.46,1.66-2.6,3.09-3.23.75-.33,1.54-.5,2.35-.5,2.32,0,4.42,1.37,5.35,3.49,1.3,2.95-.04,6.41-2.99,7.7-.75.33-1.54.5-2.35.5-2.32,0-4.42-1.37-5.35-3.49Z"/><path class="cls-5" d="m12.56,33.7c.44,0,.88-.09,1.29-.27,1.61-.71,2.35-2.6,1.64-4.22-.51-1.16-1.66-1.91-2.93-1.91-.44,0-.88.09-1.29.27-.78.34-1.38.97-1.69,1.77-.31.8-.29,1.67.05,2.45.51,1.16,1.66,1.91,2.93,1.91Z"/><path class="cls-6" d="m14.91,35.85c2.95-1.3,4.29-4.76,2.99-7.7-.93-2.12-3.03-3.49-5.35-3.49-.81,0-1.6.17-2.35.5-1.43.63-2.53,1.78-3.09,3.23-.57,1.45-.53,3.04.1,4.47.93,2.12,3.03,3.49,5.35,3.49.81,0,1.6-.17,2.35-.5Zm-5.34-6.51c.31-.8.91-1.42,1.69-1.77.41-.18.84-.27,1.29-.27,1.27,0,2.42.75,2.93,1.91.71,1.61-.02,3.51-1.64,4.22-.41.18-.84.27-1.29.27-1.27,0-2.42-.75-2.93-1.91-.34-.78-.36-1.65-.05-2.45Z"/><path class="cls-5" d="m17.76,45.52c.44,0,.88-.09,1.29-.27.78-.34,1.38-.97,1.69-1.77.31-.8.29-1.67-.05-2.45-.51-1.16-1.66-1.91-2.93-1.91-.44,0-.88.09-1.29.27-1.61.71-2.35,2.6-1.64,4.22.51,1.16,1.66,1.91,2.93,1.91Z"/><path class="cls-6" d="m20.11,47.66c1.43-.63,2.53-1.78,3.09-3.23.57-1.46.53-3.04-.1-4.47-.93-2.12-3.03-3.49-5.35-3.49-.81,0-1.6.17-2.35.5-2.95,1.3-4.29,4.75-2.99,7.7.93,2.12,3.03,3.49,5.35,3.49.81,0,1.6-.17,2.35-.5Zm-3.64-8.28c.41-.18.84-.27,1.29-.27,1.27,0,2.42.75,2.93,1.91.34.78.36,1.65.05,2.45-.31.8-.91,1.42-1.69,1.77-.41.18-.84.27-1.29.27-1.27,0-2.42-.75-2.93-1.91-.71-1.61.02-3.51,1.64-4.22Z"/><path class="cls-5" d="m22.97,57.34c.44,0,.88-.09,1.29-.27.78-.34,1.38-.97,1.69-1.77.31-.8.29-1.67-.05-2.45-.51-1.16-1.66-1.91-2.93-1.91-.44,0-.88.09-1.29.27-1.61.71-2.35,2.6-1.64,4.22.51,1.16,1.66,1.91,2.93,1.91Z"/><path class="cls-6" d="m25.32,59.48c1.43-.63,2.53-1.78,3.09-3.23.57-1.46.53-3.04-.1-4.47-.93-2.12-3.03-3.49-5.35-3.49-.81,0-1.6.17-2.35.5-2.95,1.3-4.29,4.75-2.99,7.7.93,2.12,3.03,3.49,5.35,3.49.81,0,1.6-.17,2.35-.5Zm-3.64-8.28c.41-.18.84-.27,1.29-.27,1.27,0,2.42.75,2.93,1.91.34.78.36,1.65.05,2.45-.31.8-.91,1.42-1.69,1.77-.41.18-.84.27-1.29.27-1.27,0-2.42-.75-2.93-1.91-.71-1.61.02-3.51,1.64-4.22Z"/><path class="cls-5" d="m28.17,69.15c.44,0,.88-.09,1.29-.27,1.61-.71,2.35-2.6,1.64-4.22-.51-1.16-1.66-1.91-2.93-1.91-.44,0-.88.09-1.29.27-.78.34-1.38.97-1.69,1.77-.31.8-.29,1.67.05,2.45.51,1.16,1.66,1.91,2.93,1.91Z"/><path class="cls-6" d="m30.52,71.3c2.95-1.3,4.29-4.75,2.99-7.7-.93-2.12-3.03-3.49-5.35-3.49-.81,0-1.6.17-2.35.5-1.43.63-2.53,1.78-3.09,3.23-.57,1.46-.53,3.04.1,4.47.93,2.12,3.03,3.49,5.35,3.49.81,0,1.6-.17,2.35-.5Zm-5.34-6.51c.31-.8.91-1.42,1.69-1.77.41-.18.84-.27,1.29-.27,1.27,0,2.42.75,2.93,1.91.71,1.61-.02,3.51-1.64,4.22-.41.18-.84.27-1.29.27-1.27,0-2.42-.75-2.93-1.91-.34-.78-.36-1.65-.05-2.45Z"/><path class="cls-5" d="m25.86,27.84c.44,0,.88-.09,1.29-.27.78-.34,1.38-.97,1.69-1.77.31-.8.29-1.67-.05-2.45-.51-1.16-1.66-1.91-2.93-1.91-.44,0-.88.09-1.29.27-.78.34-1.38.97-1.69,1.77-.31.8-.29,1.67.05,2.45.51,1.16,1.66,1.91,2.93,1.91Z"/><path class="cls-6" d="m25.86,30.48c.81,0,1.6-.17,2.35-.5,1.43-.63,2.53-1.78,3.09-3.23.57-1.45.53-3.04-.1-4.47-.93-2.12-3.03-3.49-5.35-3.49-.81,0-1.6.17-2.35.5-1.43.63-2.53,1.78-3.09,3.23-.57,1.46-.53,3.04.1,4.47.93,2.12,3.03,3.49,5.35,3.49Zm-2.98-7c.31-.8.91-1.42,1.69-1.77.41-.18.84-.27,1.29-.27,1.27,0,2.42.75,2.93,1.91.34.78.36,1.65.05,2.45-.31.8-.91,1.42-1.69,1.77-.41.18-.84.27-1.29.27-1.27,0-2.42-.75-2.93-1.91-.34-.78-.36-1.65-.05-2.45Z"/><path class="cls-5" d="m31.06,33.26c-.44,0-.88.09-1.29.27-.78.34-1.38.97-1.69,1.77-.31.8-.29,1.67.05,2.45.51,1.16,1.66,1.91,2.93,1.91.44,0,.88-.09,1.29-.27,1.61-.71,2.35-2.6,1.64-4.22-.51-1.16-1.66-1.91-2.93-1.91Z"/><path class="cls-6" d="m28.71,31.11c-1.43.63-2.53,1.78-3.09,3.23-.57,1.45-.53,3.04.1,4.47.93,2.12,3.03,3.49,5.35,3.49.81,0,1.6-.17,2.35-.5,2.95-1.3,4.29-4.76,2.99-7.7-.93-2.12-3.03-3.49-5.35-3.49-.81,0-1.6.17-2.35.5Zm3.64,8.28c-.41.18-.84.27-1.29.27-1.27,0-2.42-.75-2.93-1.91-.34-.78-.36-1.65-.05-2.45.31-.8.91-1.42,1.69-1.77.41-.18.84-.27,1.29-.27,1.27,0,2.42.75,2.93,1.91.71,1.61-.02,3.51-1.64,4.22Z"/><path class="cls-5" d="m36.26,45.08c-.44,0-.88.09-1.29.27-1.61.71-2.35,2.6-1.64,4.22.51,1.16,1.66,1.91,2.93,1.91.44,0,.88-.09,1.29-.27,1.61-.71,2.35-2.6,1.64-4.22-.51-1.16-1.66-1.91-2.93-1.91Z"/><path class="cls-6" d="m33.91,42.93c-2.95,1.3-4.29,4.75-2.99,7.7.93,2.12,3.03,3.49,5.35,3.49.81,0,1.6-.17,2.35-.5,2.95-1.3,4.29-4.75,2.99-7.7-.93-2.12-3.03-3.49-5.35-3.49-.81,0-1.6.17-2.35.5Zm3.64,8.28c-.41.18-.84.27-1.29.27-1.27,0-2.42-.75-2.93-1.91-.71-1.61.02-3.51,1.64-4.22.41-.18.84-.27,1.29-.27,1.27,0,2.42.75,2.93,1.91.71,1.61-.02,3.51-1.64,4.22Z"/><path class="cls-5" d="m41.47,56.86c-.44,0-.88.09-1.29.27-1.61.71-2.35,2.6-1.64,4.22.51,1.16,1.66,1.91,2.93,1.91.44,0,.88-.09,1.29-.27,1.61-.71,2.35-2.6,1.64-4.22-.51-1.16-1.66-1.91-2.93-1.91Z"/><path class="cls-6" d="m39.12,54.71c-2.95,1.3-4.29,4.75-2.99,7.7.93,2.12,3.03,3.49,5.35,3.49.81,0,1.6-.17,2.35-.5,2.95-1.3,4.29-4.75,2.99-7.7-.93-2.12-3.03-3.49-5.35-3.49-.81,0-1.6.17-2.35.5Zm3.64,8.28c-.41.18-.84.27-1.29.27-1.27,0-2.42-.75-2.93-1.91-.71-1.61.02-3.51,1.64-4.22.41-.18.84-.27,1.29-.27,1.27,0,2.42.75,2.93,1.91.71,1.61-.02,3.51-1.64,4.22Z"/></g><g><path class="cls-3" d="m78.84,22.17c-.34-.6-.89-1.03-1.55-1.22l-27.74-7.71c-.22-.06-.45-.09-.68-.09-1.16,0-2.18.77-2.49,1.88l-13.74,49.43c-.18.66-.1,1.35.24,1.95.34.6.89,1.03,1.55,1.22l27.74,7.71c.22.06.45.09.68.09,1.16,0,2.18-.77,2.49-1.88l13.74-49.43c.18-.66.1-1.35-.24-1.95Zm-30.42-.05c.7-2.52,3.01-4.28,5.63-4.28.53,0,1.05.07,1.57.21,3.11.86,4.93,4.09,4.07,7.2-.7,2.52-3.02,4.28-5.63,4.28-.53,0-1.06-.07-1.57-.21-3.1-.86-4.93-4.09-4.07-7.2Zm-3.46,12.44c.7-2.52,3.02-4.28,5.63-4.28.53,0,1.06.07,1.57.21,1.5.42,2.75,1.4,3.52,2.76.77,1.36.96,2.94.54,4.44-.7,2.52-3.02,4.28-5.63,4.28-.53,0-1.06-.07-1.57-.21-1.5-.42-2.76-1.4-3.52-2.76-.77-1.36-.96-2.94-.54-4.44Zm4.34,28.02c-.7,2.52-3.01,4.28-5.63,4.28-.53,0-1.06-.07-1.57-.21-3.1-.86-4.93-4.09-4.07-7.2.7-2.52,3.01-4.28,5.63-4.28.53,0,1.05.07,1.57.21,1.5.42,2.76,1.4,3.52,2.76.77,1.36.96,2.94.54,4.44Zm-2.17-8.16c-.53,0-1.06-.07-1.57-.21-1.5-.42-2.76-1.4-3.52-2.76-.77-1.36-.96-2.94-.54-4.44.7-2.52,3.01-4.28,5.63-4.28.53,0,1.06.07,1.57.21,3.1.86,4.93,4.09,4.07,7.2-.7,2.52-3.01,4.28-5.63,4.28Zm16.18,12.06c-.7,2.52-3.01,4.28-5.63,4.28-.53,0-1.06-.07-1.57-.21-1.5-.42-2.76-1.4-3.52-2.76-.77-1.36-.96-2.94-.54-4.44.7-2.52,3.02-4.28,5.63-4.28.53,0,1.05.07,1.57.21,1.5.42,2.76,1.4,3.52,2.76.77,1.36.96,2.94.54,4.44Zm3.46-12.44c-.7,2.52-3.01,4.28-5.63,4.28-.53,0-1.05-.07-1.57-.21-3.11-.86-4.93-4.09-4.07-7.2.7-2.52,3.01-4.28,5.63-4.28.53,0,1.06.07,1.57.21,3.1.86,4.93,4.09,4.07,7.2Zm3.46-12.44c-.7,2.52-3.01,4.28-5.63,4.28-.53,0-1.05-.07-1.57-.21-3.1-.86-4.93-4.09-4.07-7.2.7-2.52,3.02-4.28,5.63-4.28.53,0,1.05.07,1.57.21,1.5.42,2.76,1.4,3.52,2.76.77,1.36.96,2.94.54,4.44Zm3.46-12.44c-.7,2.52-3.02,4.28-5.63,4.28-.53,0-1.06-.07-1.57-.21-3.1-.86-4.93-4.09-4.07-7.2.7-2.52,3.02-4.28,5.63-4.28.53,0,1.05.07,1.57.21,3.1.86,4.93,4.09,4.07,7.2Z"/><path class="cls-4" d="m53.19,26.76c.28.08.57.12.86.12,1.43,0,2.7-.96,3.08-2.34.47-1.7-.53-3.47-2.23-3.94-.28-.08-.57-.12-.86-.12-1.43,0-2.7.96-3.08,2.34-.47,1.7.53,3.47,2.23,3.94Z"/><path class="cls-6" d="m52.49,29.31c.51.14,1.04.21,1.57.21,2.61,0,4.93-1.76,5.63-4.28.86-3.11-.96-6.33-4.07-7.2-.51-.14-1.04-.21-1.57-.21-2.61,0-4.93,1.76-5.63,4.28-.86,3.11.96,6.33,4.07,7.2Zm-1.52-6.49c.38-1.38,1.65-2.34,3.08-2.34.29,0,.58.04.86.12,1.7.47,2.7,2.24,2.23,3.94-.38,1.38-1.65,2.34-3.08,2.34-.29,0-.58-.04-.86-.12-1.7-.47-2.7-2.24-2.23-3.94Z"/><path class="cls-4" d="m49.74,39.2c.28.08.57.12.86.12,1.43,0,2.7-.96,3.08-2.34.23-.82.12-1.69-.3-2.43-.42-.74-1.11-1.28-1.93-1.51-.28-.08-.57-.12-.86-.12-1.43,0-2.7.96-3.08,2.34-.23.82-.12,1.69.3,2.43.42.74,1.11,1.28,1.93,1.51Z"/><path class="cls-6" d="m49.03,41.75c.51.14,1.04.21,1.57.21,2.61,0,4.93-1.76,5.63-4.28.42-1.5.23-3.08-.54-4.44-.77-1.36-2.02-2.34-3.52-2.76-.51-.14-1.04-.21-1.57-.21-2.61,0-4.93,1.76-5.63,4.28-.42,1.5-.23,3.08.54,4.44.77,1.36,2.02,2.34,3.52,2.76Zm-1.52-6.49c.38-1.38,1.65-2.34,3.08-2.34.29,0,.58.04.86.12.82.23,1.51.76,1.93,1.51.42.74.53,1.61.3,2.43-.38,1.38-1.65,2.34-3.08,2.34-.29,0-.58-.04-.86-.12-.82-.23-1.51-.76-1.93-1.51-.42-.74-.53-1.61-.3-2.43Z"/><path class="cls-4" d="m47.99,45.48c-.28-.08-.57-.12-.86-.12-1.43,0-2.7.96-3.08,2.34-.23.82-.12,1.69.3,2.43.42.74,1.11,1.28,1.93,1.51.28.08.57.12.86.12,1.43,0,2.7-.96,3.08-2.34.47-1.7-.53-3.47-2.23-3.94Z"/><path class="cls-6" d="m48.7,42.93c-.51-.14-1.04-.21-1.57-.21-2.61,0-4.93,1.76-5.63,4.28-.42,1.5-.23,3.08.54,4.44.77,1.36,2.02,2.34,3.52,2.76.51.14,1.04.21,1.57.21,2.61,0,4.93-1.76,5.63-4.28.86-3.11-.96-6.33-4.07-7.2Zm1.52,6.49c-.38,1.38-1.65,2.34-3.08,2.34-.29,0-.58-.04-.86-.12-.82-.23-1.51-.76-1.93-1.51-.42-.74-.53-1.61-.3-2.43.38-1.38,1.65-2.34,3.08-2.34.29,0,.58.04.86.12,1.7.47,2.7,2.24,2.23,3.94Z"/><path class="cls-4" d="m44.53,57.93c-.28-.08-.57-.12-.86-.12-1.43,0-2.7.96-3.08,2.34-.47,1.7.53,3.47,2.23,3.94.28.08.57.12.86.12,1.43,0,2.7-.96,3.08-2.34.23-.82.12-1.69-.3-2.43s-1.11-1.28-1.93-1.51Z"/><path class="cls-6" d="m45.24,55.38c-.51-.14-1.04-.21-1.57-.21-2.61,0-4.93,1.76-5.63,4.28-.86,3.1.96,6.33,4.07,7.2.51.14,1.04.21,1.57.21,2.61,0,4.93-1.76,5.63-4.28.42-1.5.23-3.08-.54-4.44-.77-1.36-2.02-2.34-3.52-2.76Zm1.52,6.49c-.38,1.38-1.65,2.34-3.08,2.34-.29,0-.58-.04-.86-.12-1.7-.47-2.7-2.24-2.23-3.94.38-1.38,1.65-2.34,3.08-2.34.29,0,.58.04.86.12.82.23,1.51.76,1.93,1.51s.53,1.61.3,2.43Z"/><path class="cls-4" d="m68.91,24.49c-.28-.08-.57-.12-.86-.12-1.43,0-2.7.96-3.08,2.34-.47,1.7.53,3.47,2.23,3.94.28.08.57.12.86.12,1.43,0,2.7-.96,3.08-2.34.47-1.7-.53-3.47-2.23-3.94Z"/><path class="cls-6" d="m69.62,21.94c-.51-.14-1.04-.21-1.57-.21-2.61,0-4.93,1.76-5.63,4.28-.86,3.11.96,6.33,4.07,7.2.51.14,1.04.21,1.57.21,2.61,0,4.93-1.76,5.63-4.28.86-3.11-.96-6.33-4.07-7.2Zm1.52,6.49c-.38,1.38-1.65,2.34-3.08,2.34-.29,0-.58-.04-.86-.12-1.7-.47-2.7-2.24-2.23-3.94.38-1.38,1.65-2.34,3.08-2.34.29,0,.58.04.86.12,1.7.47,2.7,2.24,2.23,3.94Z"/><path class="cls-4" d="m65.45,36.93c-.28-.08-.57-.12-.86-.12-1.43,0-2.7.96-3.08,2.34-.47,1.7.53,3.47,2.23,3.94.28.08.57.12.86.12,1.43,0,2.7-.96,3.08-2.34.23-.82.12-1.69-.3-2.43-.42-.74-1.11-1.28-1.93-1.51Z"/><path class="cls-6" d="m66.16,34.38c-.51-.14-1.04-.21-1.57-.21-2.61,0-4.93,1.76-5.63,4.28-.86,3.1.96,6.33,4.07,7.2.51.14,1.04.21,1.57.21,2.61,0,4.93-1.76,5.63-4.28.42-1.5.23-3.08-.54-4.44-.77-1.36-2.02-2.34-3.52-2.76Zm1.52,6.49c-.38,1.38-1.65,2.34-3.08,2.34-.29,0-.58-.04-.86-.12-1.7-.47-2.7-2.24-2.23-3.94.38-1.38,1.65-2.34,3.08-2.34.29,0,.58.04.86.12.82.23,1.51.76,1.93,1.51.42.74.53,1.61.3,2.43Z"/><path class="cls-4" d="m62,49.38c-.28-.08-.57-.12-.86-.12-1.43,0-2.7.96-3.08,2.34-.47,1.7.53,3.47,2.23,3.94.28.08.57.12.86.12,1.43,0,2.7-.96,3.08-2.34.47-1.7-.53-3.47-2.23-3.94Z"/><path class="cls-6" d="m62.7,46.83c-.51-.14-1.04-.21-1.57-.21-2.61,0-4.93,1.76-5.63,4.28-.86,3.1.96,6.33,4.07,7.2.51.14,1.04.21,1.57.21,2.61,0,4.93-1.76,5.63-4.28.86-3.1-.96-6.33-4.07-7.2Zm1.52,6.49c-.38,1.38-1.65,2.34-3.08,2.34-.29,0-.58-.04-.86-.12-1.7-.47-2.7-2.24-2.23-3.94.38-1.38,1.65-2.34,3.08-2.34.29,0,.58.04.86.12,1.7.47,2.7,2.24,2.23,3.94Z"/><path class="cls-4" d="m58.54,61.82c-.28-.08-.57-.12-.86-.12-1.43,0-2.7.96-3.08,2.34-.23.82-.12,1.69.3,2.43.42.74,1.11,1.28,1.93,1.51.28.08.57.12.86.12,1.43,0,2.7-.96,3.08-2.34.23-.82.12-1.69-.3-2.43-.42-.74-1.11-1.28-1.93-1.51Z"/><path class="cls-6" d="m59.25,59.27c-.51-.14-1.04-.21-1.57-.21-2.61,0-4.93,1.76-5.63,4.28-.42,1.5-.23,3.08.54,4.44.77,1.36,2.02,2.34,3.52,2.76.51.14,1.04.21,1.57.21,2.61,0,4.93-1.76,5.63-4.28.42-1.5.23-3.08-.54-4.44-.77-1.36-2.02-2.34-3.52-2.76Zm1.52,6.49c-.38,1.38-1.65,2.34-3.08,2.34-.29,0-.58-.04-.86-.12-.82-.23-1.51-.76-1.93-1.51-.42-.74-.53-1.61-.3-2.43.38-1.38,1.65-2.34,3.08-2.34.29,0,.58.04.86.12.82.23,1.51.76,1.93,1.51.42.74.53,1.61.3,2.43Z"/></g></g></g></g></svg>