<?xml version="1.0" encoding="UTF-8"?><svg id="_レイヤー_2" xmlns="http://www.w3.org/2000/svg" xmlns:xlink="http://www.w3.org/1999/xlink" viewBox="0 0 80 135.38"><defs><style>.cls-1,.cls-2{fill:none;}.cls-3{clip-path:url(#clippath);}.cls-4{fill:#f9cca3;}.cls-5{fill:#fbdbd6;}.cls-6{fill:#fbebe0;}.cls-7{fill:#fecfc4;}.cls-8{fill:#fec7b9;}.cls-9{fill:#af9182;}.cls-10{fill:#decec6;}.cls-2{stroke:#af9890;stroke-linecap:round;stroke-linejoin:round;stroke-width:1.3px;}</style><clipPath id="clippath"><rect class="cls-1" width="80" height="135.38"/></clipPath></defs><g id="_レイヤー_1-2"><g class="cls-3"><g><g><path class="cls-9" d="m77.35,35.11c0,19.43-16.69,35.19-37.28,35.19S2.78,54.54,2.78,35.11,19.47-.08,40.06-.08s37.28,15.76,37.28,35.19Z"/><path class="cls-10" d="m68.01,16.06s9.23,13.96,7.85,21.49c0,0-4.48-18.91-7.85-21.49Z"/><path class="cls-10" d="m7.13,29.01s1.37-14.41,13.06-20.3c0,0-12.1,15.06-13.06,20.3Z"/><path class="cls-9" d="m73.17,60.96s-15.73,38.73-2.24,37.45c0,0-22.25,11.76-23.52-1.78,0,0-3.38-37.56,25.76-35.67Z"/><path class="cls-10" d="m57.54,82.02s-3.43,7.82,3.89,13.66l-3.89-13.66Z"/><path class="cls-10" d="m64.55,70.42s-6.57,9.77,0,18.42c0,0-2.56-7.2,0-18.42Z"/><path class="cls-9" d="m6.96,60.96s15.73,38.73,2.23,37.45c0,0,22.25,11.76,23.52-1.78,0,0,3.38-37.56-25.76-35.67Z"/><path class="cls-10" d="m13.66,70.42s8.98,11.88,5.88,20.63l-5.88-20.63Z"/></g><g><path class="cls-6" d="m19.98,50.97c0,5.52-4.47,9.99-9.99,9.99S0,56.49,0,50.97s4.47-9.99,9.99-9.99,9.99,4.47,9.99,9.99Z"/><path class="cls-6" d="m80.12,50.97c0,5.52-4.47,9.99-9.99,9.99s-9.99-4.47-9.99-9.99,4.48-9.99,9.99-9.99,9.99,4.47,9.99,9.99Z"/></g><path class="cls-4" d="m72.61,49.66c0,18-14.52,32.59-32.43,32.59S7.75,67.66,7.75,49.66,22.27,17.08,40.19,17.08s32.43,14.59,32.43,32.59Z"/><path class="cls-6" d="m72.61,49.66c0,18-14.52,32.59-32.43,32.59S7.75,67.66,7.75,49.66,22.27,17.08,40.19,17.08s32.43,14.59,32.43,32.59Z"/><path class="cls-6" d="m30.52,80.74c-.39,1.96-.71,4.37-1.55,7.23-1.04,3.53-1.53,4.49-4.01,4.94,0,0,0,0,0,0,1.99,3.74,3.76,9.82,3.68,19.62h25.99c-.08-9.57,1.61-15.61,3.54-19.36.19.02.37.03.57.05-4.86-.42-5.26-.73-6.59-5.25-.82-2.77-1.14-5.12-1.51-7.04-3.1.86-6.36,1.33-9.73,1.33-3.61,0-7.1-.53-10.38-1.51Z"/><path class="cls-4" d="m50.75,81.17c-.02-.08-.03-.17-.05-.25-3.1.86-6.36,1.33-9.73,1.33-3.61,0-7.1-.53-10.38-1.51-.19.95-.37,2.02-.59,3.18,1.51.14,3.07.22,4.66.22,6.18,0,11.82-1.13,16.09-2.98Z"/><path class="cls-6" d="m57.54,90.79c-4.37,3.54-17.48,7.38-17.48,7.38,0,0-13.11-3.84-17.48-7.38,0,0-23.24-14.27-20.46,11.35l7.74,42.31h60.38l7.75-42.31c2.78-25.62-20.46-11.35-20.46-11.35Z"/><g><path class="cls-2" d="m40.12,55.65c-1.47,1.8-.39,2.95,1.67,2.89"/><g><g><path class="cls-2" d="m21.64,47.36s4.97,6.06,10.47.97"/><line class="cls-2" x1="23.71" y1="49.14" x2="22.69" y2="50.36"/><line class="cls-2" x1="25.2" y1="50.05" x2="24.37" y2="51.4"/><line class="cls-2" x1="26.55" y1="50.47" x2="26.46" y2="52.06"/></g><g><path class="cls-2" d="m59.6,47.36s-4.97,6.06-10.47.97"/><line class="cls-2" x1="57.53" y1="49.14" x2="58.54" y2="50.36"/><line class="cls-2" x1="56.03" y1="50.05" x2="56.87" y2="51.4"/><line class="cls-2" x1="54.69" y1="50.47" x2="54.78" y2="52.06"/></g></g></g><path class="cls-10" d="m61.81,110.96H17.08c-1,7.92-1.99,15.83-2.99,23.75-1.59,12.58-3.15,25.16-4.77,37.74-.36,2.75-1.56,6.57,1.07,8.54,3.33,2.51,9.97.32,13.7.24,5.12-.11,10.24-.34,15.37-.34,7.02,0,13.98,1.19,21.01,1.13,3.34-.03,7.9.49,9.7-3.04,2.01-3.92-.44-9.82-.91-13.9-1.17-10.05-2.76-20.09-4.21-30.11-.45-3.09-.95-6.17-1.35-9.27-.34-2.67-.69-5.35-1.03-8.02-.04-.36-.72-6.73-.85-6.73Z"/><path class="cls-4" d="m68.01,126.83s-6.85-21.33-9.26-26.54c0,0,8.49,15.06,9.26,26.54Z"/><path class="cls-9" d="m69.24,165.08c-1.17-10.05-2.76-20.09-4.21-30.11-.45-3.09-.95-6.17-1.35-9.27-.34-2.67-.69-5.35-1.03-8.02-.04-.36-.72-6.73-.85-6.73h-3.44c4.08,8.3,6.53,18.92,6.53,30.5,0,16.8-5.16,31.57-12.96,40.18,2.84.23,5.67.41,8.52.38,3.34-.03,7.9.49,9.7-3.04,2.01-3.92-.44-9.82-.91-13.9Z"/><g><path class="cls-4" d="m49.8,80.98c1.14-1.07,2.88-1.7,4.18-2.5,5.32-3.26,12.37-5.11,12.62-11.49,0,0-1.53-8.11.85-5.41,0,0,.66-7,3.04-4.3,0,0,1.95-1.66,2.38.83.9,5.18.42,10.67-1.75,15.52-1.41,3.15-3.65,5.68-6.29,7.95-3.36,2.9-4.69,3.73-2.88,8.05,1.23,2.94,2.71,5.81,3.86,8.78,1.87,4.84,3.64,9.72,5.38,14.62,3.51,9.93,6.84,19.92,10.5,29.8.73,1.99,1.6,3.97,2.22,5.99,0,0,4.54,14.9-10.17,13.24,0,0-11.25-1.86-12.54-22.99,0,0-4.32-38.09-8.86-48.66-.97-2.24-3.82-4.51-3.69-7.07.05-1,.5-1.75,1.15-2.36Z"/><path class="cls-4" d="m50.53,79.9c1.11-1.08,2.8-1.73,4.06-2.54,5.18-3.31,10.14-8.5,10.39-14.98,0,0,.21-7.82,2.52-5.08,0,0,.84-4.21,3.16-1.47,0,0,1.89-1.68,2.31.84.88,5.26.41,10.84-1.7,15.76-1.37,3.2-3.55,5.77-6.12,8.08-3.27,2.94-4.56,3.78-2.8,8.18,1.2,2.99,2.63,5.9,3.75,8.91,1.82,4.92,3.55,9.87,5.23,14.84,3.42,10.08,6.66,20.23,10.21,30.27.71,2.02,1.56,4.03,2.16,6.09,0,0,4.42,15.13-9.89,13.45,0,0-10.94-1.89-12.2-23.34,0,0-4.2-38.68-8.62-49.42-.94-2.28-3.72-4.58-3.59-7.18.05-1.02.49-1.78,1.12-2.4Z"/><path class="cls-6" d="m51.11,80.48c1.11-1.08,2.8-1.73,4.06-2.54,5.18-3.31,10.14-8.5,10.39-14.98,0,0,.21-7.82,2.52-5.08,0,0,.84-4.21,3.16-1.47,0,0,1.89-1.68,2.31.84.88,5.26.41,10.84-1.7,15.76-1.37,3.2-3.55,5.77-6.12,8.08-3.27,2.94-4.56,3.78-2.8,8.18,1.2,2.99,2.63,5.9,3.75,8.91,1.82,4.92,3.55,9.87,5.23,14.84,3.42,10.08,6.66,20.23,10.21,30.27.71,2.02,1.56,4.03,2.16,6.09,0,0,4.42,15.13-9.89,13.45,0,0-10.94-1.89-12.2-23.34,0,0-4.2-38.68-8.62-49.42-.94-2.28-3.72-4.58-3.59-7.18.05-1.02.49-1.78,1.12-2.4Z"/></g><path class="cls-4" d="m12.29,126.83s6.85-21.33,9.27-26.54c0,0-8.49,15.06-9.27,26.54Z"/><path class="cls-2" d="m34.27,67.5s5.19,4.04,12.84,0"/><g><g><path class="cls-5" d="m5.14,41.11s30.78-18.3,34.24-30.74C42.83-2.06,13.8.3,5.14,41.11Z"/><path class="cls-5" d="m74.72,41.11s-30.78-18.3-34.24-30.74c-3.46-12.44,25.58-10.07,34.24,30.74Z"/></g><g><g><path class="cls-8" d="m37.97,6.19c-1.2-1.8-4.29-2.44-6.62-2.64-3.51-.29-6.96.22-10.3,1.26-2.73.85-6.21,2.75-8.74.44,3.84,3.52,6.01,8.43,11.36,10.15,4.79,1.55,12.24-.62,14.36-5.57.67-1.56.54-2.74-.05-3.64Z"/><path class="cls-8" d="m41.89,6.19c1.2-1.8,4.29-2.44,6.63-2.64,3.5-.29,6.96.22,10.3,1.26,2.73.85,6.21,2.75,8.74.44-3.84,3.52-6.01,8.43-11.36,10.15-4.79,1.55-12.24-.62-14.37-5.57-.67-1.56-.54-2.74.05-3.64Z"/></g><path class="cls-7" d="m46.08,9.69c0,2.83-2.29,5.12-5.12,5.12s-5.12-2.29-5.12-5.12,2.29-5.12,5.12-5.12,5.12,2.29,5.12,5.12Z"/></g></g></g></g></g></svg>