<?xml version="1.0" encoding="UTF-8"?><svg id="_レイヤー_2" xmlns="http://www.w3.org/2000/svg" xmlns:xlink="http://www.w3.org/1999/xlink" viewBox="0 0 80 135.38"><defs><style>.cls-1{fill:none;}.cls-2{clip-path:url(#clippath);}.cls-3{fill:#fbebe0;}.cls-4{fill:#a48a81;}.cls-5{fill:#af9182;}.cls-6{fill:#decec6;}.cls-7{clip-path:url(#clippath-1);}</style><clipPath id="clippath"><rect class="cls-1" width="80" height="135.38"/></clipPath><clipPath id="clippath-1"><ellipse class="cls-1" cx="42.82" cy="32.65" rx="126" ry="102.5"/></clipPath></defs><g id="_レイヤー_1-2"><g class="cls-2"><g class="cls-7"><g><g><path class="cls-6" d="m51.77,59.15c0,.17.02.34.09.5,1.5,3.39,3.1,8.36,5.14,15.5,4.02,14.07-5.68,28-17,28s-22-11-17-29c1.96-7.06,5-11.44,5-15H-18v85h116V59.15h-46.23Z"/><path class="cls-3" d="m100,146.15H-20V57.15H30v2c0,2.36-.99,4.72-2.23,7.71-.93,2.24-1.99,4.77-2.84,7.82-2.21,7.96-1.31,15.12,2.53,20.18,3.04,4,7.61,6.29,12.54,6.29,4.3,0,8.55-2.36,11.65-6.48,4.02-5.33,5.3-12.42,3.42-18.97-2.16-7.57-3.67-12.13-5.05-15.24-.18-.4-.26-.84-.26-1.32v-1.99h50.23v89Zm-116-4h112V61.15h-41.36c1.2,3.12,2.54,7.34,4.29,13.45,2.22,7.75.69,16.16-4.08,22.48-3.87,5.13-9.28,8.07-14.85,8.07-6.19,0-11.92-2.87-15.72-7.87-4.62-6.08-5.75-14.48-3.2-23.67.91-3.29,2.02-5.95,3-8.29.67-1.59,1.24-2.98,1.59-4.17H-16v81Z"/></g><path class="cls-5" d="m47.2,70.05c1.92-12.73,2.7-43.56-30.03-60.5,0,0,27.35,26.33,18.66,57.39-4.74,1.82-8.2,7.22-8.2,13.68,0,7.95,5.22,14.4,11.68,14.4s11.69-6.44,11.69-14.4c0-4.21-1.47-7.95-3.8-10.58Z"/><path class="cls-4" d="m47.19,91.27c-2.07,2.34-4.83,3.76-7.88,3.76-6.45,0-11.68-6.44-11.68-14.4,0-4.38,1.59-8.28,4.09-10.9,0,0,.43,19.58,14.56,20.59l.9.94Z"/></g></g></g></g></svg>