<?xml version="1.0" encoding="UTF-8"?>
<svg id="_レイヤー_1" data-name="レイヤー 1" xmlns="http://www.w3.org/2000/svg" viewBox="0 0 196 205">
  <defs>
    <style>
      .cls-1 {
        fill: #fefdfd;
      }

      .cls-2 {
        fill: #bd896e;
      }

      .cls-3 {
        fill: #a2725b;
      }

      .cls-4 {
        fill: #a2725a;
      }

      .cls-5 {
        fill: #e0bbad;
      }

      .cls-6 {
        fill: #fed9d0;
      }

      .cls-7 {
        fill: #fdcfc3;
      }

      .cls-8 {
        fill: #fec7b9;
      }

      .cls-9 {
        fill: #deb8ab;
      }

      .cls-10 {
        fill: #fdd0c5;
      }

      .cls-11 {
        fill: #a57760;
      }

      .cls-12 {
        fill: #fdc1b2;
      }

      .cls-13 {
        isolation: isolate;
      }

      .cls-14 {
        fill: #fecdc1;
      }

      .cls-15 {
        fill: #a2735b;
      }

      .cls-16 {
        fill: #e2bdb0;
      }

      .cls-17 {
        fill: #a2735c;
      }

      .cls-18 {
        fill: #fff;
      }

      .cls-19 {
        fill: #a77a63;
      }

      .cls-20 {
        fill: #aa7f69;
      }

      .cls-21 {
        fill: #e0bbae;
      }

      .cls-22 {
        fill: #ae846f;
      }

      .cls-23 {
        fill: #fefefe;
      }

      .cls-24 {
        fill: #d1a48e;
      }

      .cls-25 {
        fill: #fed0c4;
      }

      .cls-26 {
        fill: #e1bcaf;
      }

      .cls-27 {
        fill: #fff7a4;
      }

      .cls-28 {
        fill: #ff7c5d;
      }

      .cls-29 {
        fill: #dbb5a6;
      }

      .cls-30 {
        fill: #fecdc0;
      }

      .cls-31 {
        fill: #a1725a;
      }

      .cls-32 {
        fill: #fed2c6;
      }

      .cls-33 {
        fill: #a3735b;
      }

      .cls-34 {
        fill: #c18d74;
      }

      .cls-35 {
        fill: #feccbf;
      }

      .cls-36 {
        fill: #fdd2c7;
      }
    </style>
  </defs>
  <g id="_グループ_103" data-name="グループ 103">
    <g id="_グループ_104" data-name="グループ 104">
      <g id="_グループ_18" data-name="グループ 18">
        <g id="_グループ_16" data-name="グループ 16">
          <circle id="_楕円形_11" data-name="楕円形 11" class="cls-18" cx="100" cy="109" r="96"/>
          <g id="_グループ_15" data-name="グループ 15">
            <path id="_パス_167" data-name="パス 167" class="cls-23" d="M145.4,190.63c-.31.06-.62.09-.93.11-29.69,0-59.39,0-89.08-.01-.34,0-.68-.06-1.03-.09.52-.31,1.06-.6,1.57-.92,3.38-2.12,6.83-4.14,10.11-6.4,3.92-2.63,7.03-6.29,9-10.57,1.15-2.55,2.1-5.19,2.85-7.89,1.36-5.03,1.8-10.27,1.3-15.46-.03-.37-.1-.74-.15-1.11l.18-.09c.23.16.46.31.68.48,1.18.93,2.33,1.9,3.55,2.79,3.3,2.54,6.93,4.63,10.79,6.21,2.69,1.03,5.6,1.3,8.44.81,1.82-.35,3.58-.96,5.22-1.81,4.16-2.09,8.07-4.67,11.62-7.68.35-.29.7-.57,1.14-.94-.07,1.37-.12,2.58-.21,3.79-.2,2.66-.07,5.33.38,7.95.51,2.75,1.18,5.47,2,8.15,1.93,6.84,6.35,12.72,12.4,16.46,3.37,2.13,6.79,4.17,10.19,6.25Z"/>
            <path id="_パス_168" data-name="パス 168" class="cls-31" d="M145.4,190.63c-3.4-2.08-6.83-4.12-10.21-6.24-6.05-3.74-10.47-9.61-12.4-16.46-.82-2.68-1.49-5.4-2-8.15-.45-2.63-.58-5.3-.38-7.95.08-1.21.14-2.42.21-3.79-.44.36-.79.65-1.14.94-3.56,3.01-7.46,5.59-11.62,7.68-1.65.85-3.4,1.46-5.22,1.81-2.83.5-5.75.22-8.44-.81-3.86-1.58-7.49-3.67-10.79-6.21-1.22-.89-2.36-1.86-3.55-2.79-.22-.17-.45-.32-.68-.48l-.18.09c.05.37.11.74.15,1.11.5,5.19.06,10.43-1.3,15.46-.74,2.7-1.69,5.34-2.85,7.89-1.97,4.29-5.08,7.95-9,10.57-3.28,2.26-6.73,4.28-10.11,6.4-.51.32-1.04.61-1.57.92-.18.08-.37.15-.55.25-.81.44-1.2.37-1.58-.31-.28-.49-.05-.97.66-1.38.95-.54,1.91-1.06,2.84-1.62,1.92-1.15,3.84-2.29,5.73-3.5,1.4-.89,2.79-1.81,4.09-2.83,1.21-.95,2.32-2.05,3.45-3.1,1.94-1.94,3.48-4.24,4.53-6.77,1.39-3.06,2.41-6.28,3.06-9.58.24-1.18.49-2.35.66-3.54.13-.91.2-1.83.22-2.74.03-1.47.04-2.95-.02-4.42-.06-1.52-.22-3.03-.36-4.55-.03-.25-.16-.48-.35-.65-1.55-1.34-2.96-2.82-4.23-4.42-2.93-3.51-5.48-7.33-7.59-11.38-.91-1.64-1.8-3.29-2.64-4.96-.19-.42-.55-.73-.99-.84-4.65-1.5-8.56-4.7-10.96-8.96-1.36-2.31-2.37-4.81-2.99-7.41-.47-1.93-.68-3.91-.63-5.89-.02-1.71.27-3.41.85-5.03-1.66-.84-2.76-2.49-2.9-4.34-.17-1.64.17-3.29.99-4.72.15-.31.14-.67-.02-.96-.83-1.9-1.28-3.94-1.34-6.01-.1-2.85.5-5.69,1.75-8.25.45-.93,1.05-1.8,1.41-2.75.33-1.03.59-2.08.78-3.14.03-.12-.16-.29-.26-.43-.66-1-.91-2.21-.69-3.39.33-1.97,1.27-3.79,2.69-5.2.65-.68,1.33-1.34,1.98-2.02.15-.18.26-.38.33-.6.66-1.81,1.18-3.68,1.99-5.42.99-2.31,2.29-4.47,3.88-6.41.98-1.13,1.86-2.35,2.92-3.39,1.41-1.56,3.08-2.86,4.94-3.84.16-.09.29-.24.36-.41.69-1.56,1.68-2.97,2.92-4.14,2.37-2.41,5.31-4.18,8.54-5.15.52-.15,1.01-.38,1.45-.69,3.71-2.5,7.9-4.21,12.3-5.03,1.67-.34,3.35-.56,5.05-.67,1.07,0,2.13.07,3.18.21.31.04.63.03.94-.03,3.66-1.01,7.54-.95,11.17.19,1.26.4,2.5.88,3.71,1.42.57.28,1.19.42,1.83.4,1.51-.1,3.01.33,4.24,1.22.72.58,1.31,1.3,1.75,2.12.14.23.36.4.62.47,1.91.16,3.73.87,5.26,2.03,2.25,1.55,4.03,3.67,5.18,6.15.44.81,1.04,1.52,1.76,2.09,2.14,1.9,3.98,4.11,5.47,6.55,1.75,2.99,3.19,6.15,4.3,9.43.2.5.51.95.91,1.32,1.97,1.81,3.37,4.15,4.02,6.74.53,2.2.59,4.48.17,6.7-.08.33.01.68.24.94,1.41,1.76,2.5,3.76,3.2,5.9.72,2.2.89,4.54.48,6.81-.23,1.16-.5,2.31-.73,3.46-.07.24-.06.49.03.73.66,1.38.66,2.98.01,4.36-.17.4-.14.84.06,1.22,1.32,2.57,1.16,5.66-.42,8.08-.03.05-.04.12-.09.15-1.12.75-1.02,1.83-1,3.02.13,5.82-1.75,11.51-5.32,16.11-2.04,2.65-4.78,4.68-7.91,5.85-1.31.46-2.38,1.44-2.96,2.7-2.23,4.47-4.81,8.75-7.74,12.8-1.74,2.31-3.68,4.46-5.8,6.42-.54.48-.84,1.18-.81,1.9-.02,2.74-.16,5.49-.15,8.23.11,3,.6,5.97,1.45,8.84.89,3.5,2.26,6.86,4.09,9.97,1.23,2.03,2.79,3.84,4.61,5.36,4.05,3.49,8.68,6.08,13.29,8.72.35.2.71.4,1.05.61.67.41.88,1.01.55,1.51-.29.45-.88.5-1.53.13-.12-.08-.23-.17-.34-.26ZM138.2,71.01c-1.91-2.92-3.81-5.85-5.74-8.75-.37-.47-.78-.9-1.22-1.29-.39-.42-.79-.83-1.16-1.27-.43-.51-.78-1.09-1.25-1.55-1.61-1.57-3.28-3.09-4.9-4.64-1.42-1.44-3.03-2.68-4.79-3.68-.42-.26-.83-.55-1.21-.86,1.08.37,2.18.68,3.22,1.14.81.36,1.52.96,2.31,1.36,2.22,1.11,4.45,2.2,6.7,3.26,2.81,1.36,5.73,2.49,8.72,3.4.3.09.61.15.91.22-.04-.24-.11-.32-.21-.38-3.41-2.08-6.82-4.14-10.22-6.23-2.51-1.62-5.29-2.77-8.2-3.41-1.15-.23-2.36.17-3.47-.41-.11-.06-.28.01-.43.03-.37.05-.74.11-1.11.17-.32-.16-.84.23-1.01-.36,1.68-.54,3.36-1.07,5.03-1.62,3.17-.92,6.19-2.3,8.96-4.09,1.44-.91,2.74-2.04,3.85-3.34.53-.66.8-1.49.76-2.33-.03-.95-.36-1.87-.94-2.63-1.66-2.53-3.98-4.56-6.7-5.87-.58-.32-1.24-.48-1.9-.45.05.43.11.79.14,1.16.17,2.49-.29,4.99-1.34,7.25-1.13,2.38-2.6,4.58-4.35,6.55-.8.91-1.67,1.76-2.58,2.55-.49.54-1.22.79-1.94.65.4-.37.74-.64,1.03-.94,2.06-2.23,3.88-4.68,5.41-7.3,1.04-1.71,1.77-3.58,2.17-5.55.33-1.29.35-2.65.05-3.95-.1-.28-.3-.52-.56-.68-.69-.41-1.43-.75-2.14-1.13-1.37-.74-2.73-1.5-4.09-2.25l-.91-.5c-.43-.22-.84-.48-1.29-.67-1.96-.77-4.01-1.3-6.1-1.58-.46-.1-.94.06-1.23.44-.9,1.09-1.91,2.1-2.7,3.26-1.8,2.7-2.91,5.81-3.23,9.04-.39,2.81-.08,5.68.91,8.34.14.38.37.71.67.97.89.68,1.84,1.28,2.77,1.91.18.14.34.29.5.45-.65.34-1.24-.04-1.85-.16-.08-.09-.16-.16-.25-.23-5.87-3.67-8.94-10.52-7.78-17.35.02-.17.02-.34,0-.51-.1.03-.18.04-.2.07-.12.2-.22.4-.32.61-.73,1.86-1.16,3.82-1.26,5.81-.39,3.75.72,7.49,3.08,10.42.12.21.22.44.28.67l-.21.16c-.37-.2-.7-.46-1-.75-.63-.72-1.16-1.51-1.6-2.35-1.03-2.32-2.03-4.67-2.85-7.07-1.13-3.32-1.06-6.93.22-10.19.42-.97.9-1.91,1.43-2.83-2.44.41-4.83,1.07-7.14,1.97-2.27.79-4.4,1.95-6.3,3.43-1.2.94-1.98,2.31-2.17,3.83-.17,1.62.12,3.25.81,4.72,1.49,3.22,4.19,5.72,7.51,6.96,2.59,1.09,5.27,1.93,8.02,2.51.3.11.58.27.83.46l-.32.04c-3.84.04-7.62-.94-10.96-2.83-3.56-1.84-6.08-5.21-6.83-9.14-.12-.9-.18-1.8-.19-2.7-.54.42-.42,1.26-1.23,1.58-.28-1.71.75-2.9,1.37-4.22-2.97,1.36-5.6,3.35-7.72,5.84-1.34,1.39-1.92,3.34-1.58,5.24.36,2.43,1.64,4.62,3.57,6.14.16.1.34.17.52.22,0-.24-.04-.34-.13-.41-2.97-2.41-3.74-8.29-1.27-11.87.2-.25.42-.49.66-.7l.19.11c-.05.36-.14.71-.25,1.06-.53,1.19-.84,2.47-.92,3.77-.22,2.19.44,4.37,1.83,6.07.94,1.01,1.95,1.97,3,2.88,1.32,1.25,3.12,1.88,4.93,1.72.16,0,.31.03.47.07-.06.1-.07.14-.09.15-.1.04-.21.08-.32.11-1.71.36-3.48.26-5.14-.28-.58-.19-1.2-.19-1.78-.02-4.21,1.17-8.29,2.79-12.16,4.82-4.3,2.18-7.71,5.79-9.62,10.22-.49,1.16-.85,2.38-1.27,3.57l.19.08c.16-.16.33-.3.49-.47,2.53-2.63,5.38-4.92,8.49-6.84,5.15-3.22,10.73-5.68,15.84-8.98,1.32-.79,2.8-1.29,4.32-1.49.76-.12.93.02.96.74l-.47.23c-1.31.36-2.59.79-3.84,1.29-2.62,1.31-5,3.04-7.06,5.13-1.63,1.56-3.22,3.16-4.88,4.69-2.23,2.06-4.5,4.08-6.75,6.12-.2.18-.39.36-.58.55l.18.2c6.71-3.65,12.11-8.89,17.33-14.65-.07.91-.36,1.78-.86,2.54-.59.67-1.19,1.34-1.78,2.02-.2.21-.36.45-.5.7-.96,2.01-1.87,4.03-2.85,6.03-1.94,4.14-4.16,8.14-6.65,11.97-.24.39-.42.82-.53,1.26-.76,2.88-1.35,5.8-1.75,8.75-.41,2.36-.7,4.82-2.05,6.85-.86,1.38-1.07,3.08-.57,4.63,1.19,5.95,2.75,11.81,4.67,17.56,2.52,7.3,6.05,14.22,10.48,20.55,4.57,6.62,10.58,11.75,17.32,16.06,2.11,1.38,4.36,2.51,6.73,3.38,2.13.77,4.42.99,6.66.65,2.03-.35,3.98-1.04,5.78-2.04,6.62-3.49,12.55-8.16,17.48-13.78,4.51-5.29,8.2-11.23,10.96-17.61,4.01-8.77,6.32-18.08,8.07-27.53.02-.28-.05-.55-.2-.78-1.42-2.29-2.5-4.77-3.2-7.37-.9-3.47-1.78-6.94-2.58-10.43-1.07-4.45-2.9-8.68-5.41-12.5l.28-.65c.65.9,1.22,1.65,1.74,2.43,1.08,1.61,2.12,3.23,3.18,4.85.99,1.73,1.95,3.48,2.98,5.18,1.6,2.96,3.65,5.64,6.09,7.95,1.78,1.63,3.83,2.95,6.04,3.91.62-2.25-.09-3.49-1.62-4.25-.44-.22-.91-.38-1.35-.58-.59-.25-1.16-.53-1.71-.84-2.38-1.45-4.45-3.34-6.11-5.58-1.41-1.96-2.75-3.99-4.13-5.98h0ZM131.6,60.03l-.07.14c.15.17.29.34.45.5.59.51,1.14,1.06,1.64,1.64,1.29,1.74,2.53,3.52,3.75,5.31,1.52,2.22,2.98,4.47,4.5,6.69,2.31,3.41,5.42,6.22,9.05,8.17.34.18.71.31,1.25.55-.1-1.68-.16-3.17-.28-4.66-.06-1.01-.19-2.01-.39-3-1.13-5.51-4.55-10.29-9.4-13.14-.48-.32-1.05-.47-1.63-.43-2.78.18-5.56-.35-8.09-1.53-.25-.09-.51-.17-.77-.22h0ZM67.92,61.79l-.16-.14c-.14.07-.27.15-.4.24-1.04.91-2.08,1.84-3.12,2.75-2.82,2.53-6.06,4.56-9.57,6-1.64.73-3.44,1.06-5.23.97-.62-.14-1.24.2-1.45.8-1.83,3.35-2.51,7.2-1.93,10.97.15.93.32,1.85.5,2.9.96-.93,1.83-1.72,2.64-2.58,3.48-3.71,6.99-7.39,10.38-11.18,2.25-2.51,4.36-5.16,6.47-7.8.68-.95,1.31-1.93,1.88-2.95h0ZM121.42,47.08l.03.22c.21.06.41.13.62.18,2.46.54,4.82,1.48,6.98,2.78,4.59,2.8,9.14,5.65,13.76,8.4,3.19,1.75,5.74,4.48,7.28,7.78.04.08.14.13.26.25.04-1.53-.11-3.07-.46-4.56-.46-3.03-2-5.8-4.34-7.79-1.8-1.59-3.77-2.97-5.89-4.11-4.77-2.47-9.74-4.12-15.19-3.85-1.03.14-2.05.38-3.04.7h-.01ZM54.75,101.9h.12c-.38-1.79-.77-3.56-1.12-5.33-.06-.35-.33-.62-.67-.68-1.51-.58-3.21.16-3.81,1.67-.55,1.28-.83,2.66-.82,4.05-.08,4.24.95,8.43,2.99,12.14,1.82,3.53,4.76,6.35,8.35,8.03.35.17.71.32,1.06.48-.44-1.54-.96-3.06-1.56-4.54-.1-.17-.26-.3-.45-.37-1.63-.76-3.09-1.85-4.28-3.2-1.82-1.93-2.97-4.39-3.28-7.03-.17-.45-.03-.96.35-1.27.16.24.3.49.42.76.15.41.25.83.38,1.24.48,1.76,1.3,3.41,2.42,4.86,1.05,1.24,2.31,2.3,3.71,3.12-.03-.2-.11-.4-.23-.56-.66-.95-1.27-1.94-1.99-2.84-.88-1.01-1.03-2.47-.37-3.64.16-.24.24-.52.24-.81-.15-1.05-.44-2.08-.87-3.06-.81-1.33-1.7-2.6-2.66-3.82l-1.07,1.38c-.2.26-.43.53-.79.32-.41-.25-.26-.61-.05-.9.37-.51.78-.99,1.23-1.55-.24-.16-.46-.34-.68-.52-.14-.15-.26-.32-.36-.5.18-.12.4-.38.54-.34.41.07.8.25,1.13.51.75.77,1.41,1.61,2.1,2.43h-.01ZM138.75,122.13l.14.13c.54-.26,1.11-.49,1.63-.79.9-.52,1.8-1.05,2.65-1.65,2.47-1.85,4.42-4.3,5.66-7.12,1.8-3.58,2.63-7.58,2.4-11.58-.12-1.14-.36-2.27-.7-3.37-.2-.71-.68-1.31-1.33-1.65-.83-.45-1.82-.5-2.68-.11-.63.27-.59.98-.72,1.56-.02.08-.05.17-.07.25-.28,1.3-.56,2.61-.83,3.91l.15.09c.18-.2.38-.4.55-.6.51-.59.97-1.23,1.53-1.77.31-.24.68-.39,1.07-.44.15-.03.36.22.54.34-.11.18-.23.34-.36.5-.21.2-.46.37-.66.53.45.56.84,1.02,1.2,1.5.21.29.38.65,0,.91s-.63-.06-.84-.34c-.31-.4-.62-.8-1.01-1.3-1.37,1.91-2.97,3.48-3.34,5.83-.2.71-.16,1.47.12,2.16.53,1,.41,2.22-.33,3.08-.85,1.15-1.62,2.36-2.48,3.63.2-.05.4-.13.59-.22,2.1-1.31,3.77-3.21,4.79-5.47.44-1.09.79-2.23,1.18-3.34.12-.33.13-.76.6-.84.29.54.34,1.18.14,1.76-.78,4.2-3.53,7.77-7.39,9.6-.23.1-.43.27-.55.48-.56,1.45-1.1,2.9-1.64,4.35h-.01ZM54.25,53.92c2.46-1.69,5.09-3.13,7.85-4.28,2.78-1.08,5.64-1.93,8.55-2.54-3.13-2.1-4.85-5.76-4.48-9.51-5.52,4.13-9.67,9.82-11.91,16.34h0ZM150.72,95.76c.64-.08.67-.08.73-.58.22-1.66.44-3.31.59-4.98.02-.43-.12-.84-.39-1.17-.42-.44-.9-.8-1.44-1.07-2.42-1.13-4.55-2.8-6.22-4.87-1.32-1.78-2.52-3.66-3.77-5.49-.18-.27-.35-.55-.52-.82-.07.3-.06.61.04.9.31,1.17.63,2.34.95,3.51,1.03,3.78,1.72,7.67,3.65,11.16.47.85.9,1.72,1.27,2.44.93-.32,1.9-.52,2.89-.59,1.02-.03,1.93.61,2.25,1.58h0ZM127.6,45.14c2.9.16,5.76.81,8.45,1.91,2.77,1.02,5.4,2.39,7.83,4.08.06-2.44-5.21-11.54-7.41-12.94-.27.83-.64,1.63-1.11,2.38-.7.84-1.53,1.57-2.44,2.17-1.65,1.05-3.44,1.86-5.32,2.41ZM49,95.11c2.79-1.15,5.11-3.21,6.58-5.84,1.52-2.55,2.39-5.43,2.52-8.4-.24.16-.45.36-.63.58-1.75,2.08-3.9,3.8-6.33,5.04-.97.6-2.14.81-3.26.58.37,2.71.74,5.34,1.11,8.04ZM104.98,20.99c-2.09.09-4.15.52-6.1,1.28-.25.14-.45.35-.57.61-1,1.9-1.64,3.97-1.89,6.1-.38,3.75.55,7.52,2.63,10.66.15.21.32.4.5.58-1.27-7.29.33-13.65,5.43-19.23h0ZM49.25,70.43c1.37-.14,2.72-.46,4.01-.96.13-.06.25-.14.36-.24.89-.82,1.78-1.64,2.65-2.48,3.01-2.87,6.02-5.75,9.03-8.64.23-.22.43-.46.65-.69-.14-.06-.29-.06-.42.02-4.41,2.55-8.85,5.04-12.62,8.54-1.44,1.29-2.67,2.79-3.66,4.45ZM62.9,71.23l-.34-.34c-.08.21-.19.41-.32.6-2.7,2.9-5.4,5.8-8.1,8.7-1.67,1.8-3.33,3.61-4.98,5.42-.27.29-.51.59-.77.89,6.8-3.27,10.85-9.09,14.52-15.27h0ZM92.42,33.86c.06-.12.11-.24.15-.37.16-1.05.31-2.1.49-3.15.47-3.18,2.11-6.06,4.6-8.09.23-.29.43-.61.58-.94-1.14.07-2.06.11-2.97.21-.28.04-.54.18-.72.4-.61.8-1.14,1.66-1.58,2.57-.97,2.45-1.28,5.12-.89,7.73.06.5.21.99.34,1.65h0ZM126.55,54.2c4.16,4.91,10.5,7.19,16.06,5.91-5.76-.99-10.9-3.48-16.06-5.92h0ZM51.87,57.98c-2.32,1.72-4.1,5.51-3.08,7.12.68-1.97,1.59-3.85,2.71-5.6.19-.49.32-1,.37-1.52h0ZM152.32,72.13c.55,1.76.88,3.58.97,5.42.21,1.89-.01,3.8-.66,5.59l.76.36c.72-3.99.87-7.8-1.08-11.38h0ZM52.68,94.25l1.9.51c.91-1.27,1.53-2.73,1.8-4.27l-3.7,3.77ZM46.98,89.12c-1.37,1.87-.75,5.73,1.09,6.47-.28-1.08-.62-2.11-.8-3.17-.18-1.09-.2-2.22-.29-3.31h0ZM131.22,42.38c2.81-.85,5.02-4.27,3.72-5.87.03,2.82-2.01,4.22-3.72,5.87h0ZM153.49,92.3c-.36,1.47-.69,2.96-1.09,4.43-.17.5-.1,1.05.2,1.48.92-1.97,1.66-3.86.89-5.91h0ZM143.57,61.59l3.23,2.35.14-.17c-.65-.64-1.3-1.27-1.94-1.92-.36-.4-.95-.51-1.43-.27h0ZM54.61,55.65c-.74.14-1.32.7-1.48,1.43.66-.27,1.19-.78,1.49-1.43h0Z"/>
            <path id="_パス_169" data-name="パス 169" class="cls-23" d="M103.53,45.29c.61.12,1.2.5,1.85.16l2.82.38h.68c1.9.52,3.8,1.05,5.69,1.6.21.09.41.2.59.33.17.59.69.2,1.01.36l1.76.85c.38.31.79.6,1.21.86,1.76,1,3.38,2.23,4.79,3.68,1.63,1.55,3.29,3.07,4.9,4.64.47.46.82,1.04,1.25,1.55.37.44.77.85,1.16,1.27.12.32.25.63.4.94.59.79.99,1.71,1.18,2.68,2.51,3.82,4.34,8.05,5.41,12.5.8,3.49,1.68,6.96,2.58,10.43.7,2.6,1.78,5.08,3.2,7.37.15.23.22.51.2.78-1.75,9.45-4.06,18.76-8.07,27.53-2.76,6.38-6.45,12.32-10.96,17.61-4.94,5.63-10.86,10.3-17.48,13.78-1.8,1-3.75,1.69-5.78,2.04-2.24.34-4.53.12-6.66-.65-2.36-.87-4.62-2-6.73-3.38-6.74-4.31-12.75-9.44-17.32-16.06-4.43-6.33-7.96-13.25-10.48-20.55-1.92-5.75-3.48-11.62-4.67-17.56-.5-1.55-.29-3.25.57-4.63,1.34-2.02,1.63-4.48,2.05-6.85.4-2.95.98-5.87,1.75-8.75.12-.45.3-.87.53-1.26,2.49-3.83,4.71-7.83,6.65-11.97.98-1.99,1.9-4.02,2.85-6.03.14-.25.3-.49.5-.7.59-.68,1.18-1.35,1.78-2.02.4-.41.82-.81,1.21-1.23,1.59-1.72,3.36-3.27,5.26-4.63l.47-.23c1.84-1.18,3.85-2.06,5.96-2.6l1.68.22.09-.22-.36-.37c1.67-.4,3.33-.81,5-1.18.75-.16,1.52-.22,2.28-.32l.32-.04c1.23-.11,2.46-.27,3.7-.32,1.73-.06,3.46-.03,5.19-.03ZM101.8,139.23s.1,0,.14-.01c.3-.07.6-.14.89-.21,1.66-.36,3.23-1.04,4.62-2.02,1.07-.67,1.98-1.57,2.67-2.62l.66-1.06c.39-.3.47-.87.16-1.26-.01-.02-.03-.03-.04-.05-.38-.44-.82-.29-1.25-.04-.18.08-.37.13-.57.17-.8.05-1.61.07-2.41.16-1.78.19-3.55.41-5.32.62-.56.13-1.13.2-1.71.2-1.8-.2-3.59-.53-5.39-.74-1.2-.14-2.41-.17-3.62-.25-.27-.14-.56-.25-.86-.31-.32-.03-.64.04-.92.21-.3.25-.34.69-.09.99,0,0,0,0,.01.01.15.17.31.33.49.46.11.29.23.58.34.87.69.8,1.43,1.55,2.21,2.25,1.68,1.41,3.77,2.27,5.96,2.44l.22.13c.83.48,1.8.64,2.74.46.37-.1.73-.23,1.07-.4ZM115.99,101.33c.47-.13.94-.23,1.41-.31.48-.09.95.19,1.1.65.16.42.01.89-.36,1.15-.36.28-.73.54-1.12.77l-1.04.43c1.46,2.08,5.25,2.53,7.36,1.17,1.27-.86,2.12-2.21,2.34-3.72.47-2-.11-4.11-1.54-5.59.99.2,1.97.47,2.92.81,1.64.56,2.77,2.06,2.85,3.79.03.75-.01,1.49-.13,2.23-.05.62.23.92.81.72.41-.14.78-.37,1.09-.67.89-.77,1.39-1.91,1.35-3.08.35-.07.66-.11.97-.19.65-.15,1.28-.33,1.91-.55.51-.11.83-.61.72-1.12,0-.02,0-.04-.02-.06-.95-.09-1.9-.12-2.84-.09-1.02.16-2.04-.34-2.52-1.26.8-.33,1.61-.64,2.38-1.02.24-.12.39-.45.58-.68-.25-.14-.53-.23-.82-.27-.78.05-1.55.18-2.32.28-1.05.23-2.15.09-3.11-.39-.77-.41-1.58-.72-2.42-.93-2.99-.74-6.14-.61-9.06.38-2.25.63-4.24,1.95-5.7,3.77-.27.34-.47.72-.59,1.14-.11.39.21.6.57.43.13-.06.23-.17.36-.24,1.52-.88,3.05-1.76,4.58-2.63.24-.1.48-.19.74-.25-1.54,1.54-2.15,3.78-1.61,5.88l1.17-.54ZM77.09,103.6l-1.15.48c1.28,2.15,5.49,2.64,8.02.53,1.09-.94,1.74-2.28,1.8-3.72.18-1.85-.52-3.68-1.88-4.94.24.06.47.14.7.24,1.6.91,3.2,1.84,4.81,2.75.22.09.45.16.69.19.02-.27.13-.59.03-.79-.24-.46-.54-.89-.89-1.27-1.7-1.8-3.9-3.04-6.32-3.56-3.43-.79-6.84-.95-10.08.67-1.34.62-2.84.8-4.28.51-.8-.11-1.61-.19-2.41-.25-.17-.01-.35.14-.53.21.06.2.15.4.28.57.19.18.42.31.66.4.74.29,1.49.55,2.2.81-.57,1.13-1.6,1.28-2.76,1.24-.95-.03-1.9.06-2.97.11.06.27.17.53.32.77.92.93,2.23.82,3.41,1.18-.01.2-.01.41,0,.61.14,1.38.99,2.59,2.24,3.19.24.13.53.14.78.03.16-.14.18-.51.17-.78-.05-.34-.12-.68-.21-1.02-.35-1.42.18-2.9,1.34-3.79,1.3-.97,2.8-1.64,4.4-1.95.24-.02.48,0,.71.03-1.48,1.57-1.99,3.81-1.34,5.86l1.22-.58c.49-.13.99-.23,1.5-.31.45-.09.89.19.98.64h0c.05.38-.05.77-.28,1.08-.35.33-.74.62-1.16.85h0ZM77.93,83.53c-2.13.17-4.27.28-6.39.52-2.16.26-4.24.95-6.13,2.04-.38.2-.73.47-1.03.77-.4.43-.24.81.34.91.23.03.46.01.69-.04.85-.16,1.7-.31,2.54-.53,4.26-1.01,8.67-1.17,12.99-.48,2.37.33,4.76.58,7.14.83.69.05,1.39.03,2.07-.06.65-.11,1.15-.62,1.24-1.27.04-.54-.25-.86-1.02-1.09-.28-.08-.56-.14-.84-.22-3.81-.88-7.7-1.34-11.61-1.37h0ZM121.86,83.58c-1.82.09-3.64.16-5.45.29-2.39.17-4.76.59-7.07,1.25-.51.15-1,.36-1.01,1.02.08.62.51,1.13,1.1,1.32.17.05.34.07.52.06,1.21-.03,2.43.02,3.63-.11,2.98-.31,5.96-.71,8.94-1.04,2.36-.21,4.75-.09,7.08.37,1.53.27,3.05.64,4.57.95.48.1,1.1.29,1.32-.25.24-.6-.38-.93-.82-1.14-3.91-2.13-8.37-3.08-12.81-2.72h0ZM68.4,93.85l.17.3c.9-.29,1.81-.55,2.7-.86,1.97-.76,4.04-1.24,6.14-1.43,4.05-.36,8.13.36,11.82,2.08.27.11.55.18.84.24.16-.4-.03-.86-.43-1.02,0,0-.01,0-.02,0-.57-.35-1.15-.65-1.76-.92-2.26-.9-4.66-1.41-7.09-1.51-3.79-.37-7.61.39-10.98,2.18-.48.29-.94.61-1.39.95ZM131.64,94.13c-.03-.23,0-.42-.06-.48-.3-.31-.64-.56-1.02-.77-1.28-.61-2.59-1.12-3.94-1.55-3.8-.96-7.79-.94-11.58.06-1.54.3-3,.9-4.3,1.77-.24.17-.54.64-.46.8.22.44.6.09.88-.04,5.32-2.51,11.4-2.85,16.96-.96,1.13.38,2.27.76,3.51,1.17h0ZM98.48,122.24c-.13-.42-.28-.81-.38-1.2-.27-1.03-.51-2.07-.8-3.09-.06-.22-.28-.54-.44-.55-.27,0-.53.12-.7.34-.32.48-.56,1-.72,1.56-.09.39,0,.8.24,1.11.78.67,1.59,1.31,2.43,1.9.04.03.15-.03.35-.07h0ZM103.44,120.38c-.82.39-1.68.77-2.5,1.21-.14.07-.2.46-.14.66.03.11.41.24.57.18.83-.31,1.66-.64,2.46-1.03.19-.15.3-.39.28-.63-.01-.11-.35-.21-.67-.38h0ZM129.95,105.8c0-.78-.96-1.7-1.58-1.63-.19.02-.36.13-.47.29-.05.18,0,.38.12.53.44.36.92.68,1.41.97.11.06.36-.11.5-.15h0ZM70.05,106.15c.6-.41,1.21-.77,1.74-1.21.18-.15.2-.41.05-.59-.08-.1-.2-.15-.33-.15-.44.07-.85.26-1.19.54-.46.29-.6.9-.31,1.35.01.02.02.03.03.05h0ZM127.35,106.89c.12-.51-.07-1.04-.49-1.36-.16-.11-.36-.13-.54-.06-.14.13-.2.31-.18.5.18.52.66.88,1.21.92h0ZM73.78,105.93c-.17-.24-.24-.43-.37-.48s-.4-.03-.46.06c-.23.35-.42.72-.58,1.11-.02.04.33.31.36.28.36-.3.69-.63,1.04-.97h0Z"/>
            <path id="_パス_170" data-name="パス 170" class="cls-16" d="M108.2,45.83l-2.82-.38c-.16-.16-.32-.31-.5-.45-.92-.64-1.87-1.24-2.77-1.91-.3-.26-.54-.6-.67-.97-.99-2.66-1.31-5.53-.91-8.34.31-3.23,1.42-6.34,3.23-9.04.79-1.16,1.8-2.18,2.7-3.26.29-.37.77-.54,1.23-.44,2.09.28,4.14.81,6.1,1.58.45.19.86.44,1.29.67.02.22.07.43.14.64.4.8.86,1.57,1.24,2.38.69,1.31,1.12,2.73,1.27,4.2.31,3.98-1.12,7.89-3.93,10.73-1.28,1.3-2.74,2.41-4.34,3.28-.54.31-1.12.61-1.27,1.32Z"/>
            <path id="_パス_171" data-name="パス 171" class="cls-16" d="M103.53,45.29c-1.73,0-3.47-.02-5.2.04-1.23.04-2.47.21-3.7.32-.25-.19-.53-.35-.83-.46-2.75-.58-5.43-1.42-8.02-2.51-3.32-1.24-6.02-3.74-7.51-6.96-.7-1.47-.98-3.11-.81-4.72.19-1.51.97-2.89,2.17-3.83,1.9-1.48,4.03-2.64,6.3-3.43,2.31-.9,4.7-1.56,7.14-1.97-.53.92-1,1.86-1.43,2.83-1.28,3.26-1.36,6.87-.22,10.19.82,2.4,1.83,4.74,2.85,7.07.44.85.97,1.64,1.6,2.35.3.29.63.55,1,.75l.21-.16c-.06-.24-.15-.46-.28-.67-2.36-2.93-3.47-6.68-3.08-10.42.1-1.99.52-3.96,1.26-5.81.09-.21.2-.41.32-.61.02-.04.1-.04.2-.07.02.17.02.34,0,.51-1.16,6.82,1.92,13.67,7.78,17.35.09.07.17.15.25.23Z"/>
            <path id="_パス_172" data-name="パス 172" class="cls-16" d="M94.31,45.69c-.76.1-1.53.16-2.28.32-1.67.36-3.33.78-5,1.18-1.61-.72-3.22-1.43-4.82-2.17-1.74-.82-3.22-2.1-4.28-3.7-1.43-1.87-2.29-4.12-2.45-6.47-.05-.38-.14-.76-.25-1.12-.2.28-.33.39-.34.5-.12.85-.15,1.71-.09,2.57.33,1.74,1.01,3.39,2,4.85,1.24,2.15,3.18,3.81,5.49,4.71,1.11.41,2.22.79,3.34,1.19-2.11.54-4.12,1.42-5.96,2.6-.02-.73-.2-.87-.96-.74-1.53.19-3,.7-4.32,1.49-5.11,3.3-10.69,5.75-15.84,8.98-3.1,1.92-5.96,4.21-8.49,6.84-.15.16-.33.31-.49.47l-.19-.08c.42-1.19.78-2.41,1.27-3.57,1.91-4.43,5.32-8.04,9.62-10.22,3.87-2.03,7.94-3.65,12.16-4.82.58-.17,1.2-.17,1.78.02,1.66.54,3.43.64,5.14.28.11-.03.22-.07.32-.11.02,0,.03-.04.09-.15-.15-.04-.31-.06-.47-.07-1.81.16-3.61-.47-4.93-1.72-1.05-.9-2.06-1.86-3-2.88-1.39-1.7-2.04-3.89-1.83-6.07.08-1.3.39-2.58.92-3.77.11-.35.2-.7.25-1.06l-.19-.11c-.24.21-.46.45-.66.7-2.47,3.58-1.7,9.46,1.27,11.87.08.07.14.17.13.41-.18-.05-.36-.13-.52-.22-1.93-1.52-3.21-3.71-3.57-6.14-.34-1.9.25-3.85,1.58-5.24,2.12-2.48,4.75-4.47,7.72-5.84-.62,1.32-1.65,2.52-1.37,4.22.81-.32.69-1.16,1.23-1.58,0,.9.07,1.8.19,2.7.75,3.93,3.27,7.31,6.83,9.14,3.34,1.89,7.12,2.87,10.96,2.83Z"/>
            <path id="_パス_173" data-name="パス 173" class="cls-16" d="M115.15,47.76c-.18-.13-.38-.24-.59-.33-1.89-.55-3.79-1.08-5.69-1.61.37-.16.73-.33,1.11-.49,2.37-.97,4.43-2.57,5.95-4.63,1.13-1.54,2.16-3.14,3.17-4.76.91-1.42,1.48-3.03,1.67-4.7.21-1.56-.12-3.14-.94-4.48-.18-.42-.6-.69-1.05-.67.07.33.11.62.18.91.21.87.48,1.72.64,2.6.17.96,0,1.95-.5,2.79-.12-.46-.17-.94-.13-1.42.1-1.72-.37-3.42-1.34-4.84-.51-.8-1.08-1.56-1.63-2.34,1.36.75,2.72,1.51,4.09,2.25.71.39,1.45.72,2.14,1.13.26.15.46.39.56.68.3,1.3.28,2.65-.05,3.95-.39,1.96-1.12,3.84-2.17,5.55-1.53,2.62-3.34,5.07-5.41,7.3-.29.31-.63.58-1.03.94.71.14,1.45-.11,1.94-.65.92-.79,1.78-1.64,2.58-2.55,1.75-1.97,3.22-4.17,4.35-6.55,1.05-2.27,1.51-4.76,1.34-7.25-.03-.37-.09-.74-.14-1.16.66-.03,1.32.13,1.9.45,2.72,1.32,5.04,3.34,6.7,5.87.58.76.91,1.68.94,2.63.04.84-.23,1.67-.76,2.33-1.11,1.3-2.4,2.43-3.85,3.34-2.77,1.79-5.79,3.17-8.96,4.09-1.68.56-3.36,1.09-5.03,1.63Z"/>
            <path id="_パス_174" data-name="パス 174" class="cls-16" d="M131.61,60.03c.27.06.53.13.78.22,2.53,1.18,5.31,1.71,8.09,1.53.58-.04,1.15.11,1.63.43,4.85,2.85,8.27,7.63,9.4,13.14.2.99.33,1.99.39,3,.12,1.49.18,2.98.28,4.66-.54-.23-.91-.36-1.25-.55-3.63-1.95-6.74-4.76-9.05-8.17-1.52-2.21-2.99-4.47-4.5-6.69-1.22-1.79-2.46-3.57-3.75-5.31-.51-.59-1.06-1.14-1.64-1.64-.16-.16-.3-.33-.45-.5l.06-.14Z"/>
            <path id="_パス_175" data-name="パス 175" class="cls-16" d="M67.93,61.8c-.56,1.02-1.18,2.01-1.86,2.95-2.11,2.64-4.22,5.28-6.47,7.8-3.4,3.79-6.9,7.47-10.38,11.18-.8.86-1.68,1.65-2.64,2.58-.18-1.05-.36-1.97-.5-2.9-.58-3.77.1-7.63,1.93-10.97.21-.6.83-.94,1.45-.8,1.8.09,3.59-.24,5.23-.97,3.51-1.44,6.75-3.47,9.57-6,1.04-.92,2.08-1.84,3.12-2.75.13-.09.26-.17.4-.24l.16.14Z"/>
            <path id="_パス_176" data-name="パス 176" class="cls-16" d="M121.43,47.08c.99-.32,2.01-.55,3.05-.69,5.45-.27,10.42,1.38,15.19,3.85,2.12,1.14,4.09,2.52,5.89,4.11,2.34,1.99,3.88,4.75,4.34,7.79.35,1.49.5,3.03.46,4.56-.12-.12-.22-.17-.26-.25-1.54-3.3-4.08-6.03-7.28-7.78-4.61-2.75-9.17-5.6-13.76-8.4-2.16-1.3-4.51-2.24-6.98-2.78-.21-.05-.42-.12-.62-.18l-.03-.22Z"/>
            <path id="_パス_177" data-name="パス 177" class="cls-23" d="M54.76,101.91c-.69-.81-1.35-1.66-2.09-2.42-.33-.27-.71-.44-1.13-.51-.14-.04-.36.22-.54.34.1.18.22.35.36.5.22.19.44.36.68.52-.45.56-.86,1.04-1.23,1.55-.21.29-.36.65.05.9.36.21.59-.06.79-.32l1.07-1.38c.96,1.22,1.85,2.5,2.66,3.82.42.98.72,2.01.87,3.06,0,.29-.08.57-.24.81-.65,1.17-.51,2.63.37,3.64.72.9,1.33,1.89,1.99,2.84.12.17.2.36.23.56-1.41-.82-2.66-1.88-3.71-3.12-1.12-1.44-1.94-3.09-2.42-4.86-.12-.42-.22-.84-.38-1.24-.12-.26-.26-.52-.42-.76-.37.3-.51.81-.35,1.27.31,2.63,1.46,5.1,3.28,7.03,1.19,1.35,2.65,2.44,4.28,3.2.19.07.35.2.45.37.6,1.48,1.12,3,1.56,4.54-.35-.16-.71-.31-1.06-.48-3.6-1.68-6.53-4.5-8.35-8.03-2.04-3.72-3.07-7.9-2.99-12.14-.01-1.39.26-2.77.82-4.05.6-1.51,2.3-2.25,3.81-1.67.35.06.61.33.67.68.35,1.78.74,3.55,1.12,5.32h-.12Z"/>
            <path id="_パス_178" data-name="パス 178" class="cls-23" d="M138.77,122.13c.55-1.45,1.08-2.9,1.65-4.34.13-.22.32-.39.55-.48,3.86-1.83,6.61-5.4,7.39-9.6.2-.58.15-1.22-.14-1.76-.47.08-.49.51-.6.84-.4,1.11-.74,2.25-1.18,3.34-1.03,2.25-2.7,4.15-4.79,5.47-.19.1-.38.17-.59.22.86-1.26,1.63-2.48,2.48-3.63.73-.86.86-2.09.33-3.08-.28-.69-.32-1.45-.12-2.16.36-2.34,1.96-3.91,3.34-5.83.39.5.7.9,1.01,1.3.22.28.45.61.84.34s.22-.63,0-.91c-.36-.48-.75-.94-1.2-1.5.2-.16.45-.33.66-.53.14-.16.26-.32.36-.5-.18-.12-.39-.37-.54-.34-.39.05-.76.2-1.07.44-.56.54-1.03,1.17-1.53,1.77-.18.21-.37.4-.55.6l-.15-.09c.28-1.31.55-2.61.83-3.91.02-.08.05-.17.07-.25.12-.58.08-1.29.72-1.56.86-.38,1.85-.34,2.68.11.65.34,1.13.94,1.33,1.65.34,1.1.58,2.23.7,3.37.23,4-.6,8-2.4,11.58-1.25,2.82-3.2,5.27-5.66,7.12-.84.6-1.75,1.13-2.65,1.65-.52.3-1.08.53-1.63.79l-.14-.13Z"/>
            <path id="_パス_179" data-name="パス 179" class="cls-16" d="M54.26,53.92c2.25-6.52,6.4-12.21,11.92-16.33-.37,3.75,1.35,7.41,4.48,9.51-2.92.61-5.78,1.46-8.55,2.54-2.76,1.15-5.39,2.59-7.85,4.28Z"/>
            <path id="_パス_180" data-name="パス 180" class="cls-16" d="M150.72,95.76c-.32-.96-1.23-1.61-2.24-1.58-.98.07-1.95.27-2.89.59-.37-.71-.8-1.58-1.27-2.44-1.92-3.49-2.62-7.38-3.65-11.16-.32-1.17-.63-2.34-.95-3.51-.1-.29-.11-.6-.04-.9.17.28.34.56.52.82,1.25,1.84,2.45,3.71,3.77,5.49,1.68,2.08,3.81,3.74,6.22,4.87.54.27,1.03.64,1.44,1.07.27.33.41.75.39,1.17-.15,1.66-.37,3.32-.59,4.98-.06.5-.09.5-.73.58Z"/>
            <path id="_パス_181" data-name="パス 181" class="cls-16" d="M127.6,45.14c1.88-.55,3.67-1.36,5.32-2.41.91-.6,1.73-1.33,2.44-2.17.47-.74.84-1.54,1.11-2.38,2.21,1.41,7.48,10.51,7.41,12.94-2.43-1.69-5.06-3.06-7.83-4.08-2.69-1.11-5.55-1.75-8.45-1.91Z"/>
            <path id="_パス_182" data-name="パス 182" class="cls-16" d="M49,95.11c-.37-2.7-.74-5.33-1.11-8.03,1.12.23,2.29.02,3.26-.58,2.42-1.24,4.57-2.96,6.33-5.04.18-.22.39-.42.63-.58-.13,2.97-1,5.85-2.52,8.4-1.48,2.63-3.8,4.68-6.58,5.84Z"/>
            <path id="_パス_183" data-name="パス 183" class="cls-16" d="M104.97,20.99c-5.1,5.58-6.7,11.95-5.44,19.23-.18-.18-.35-.38-.5-.58-2.08-3.14-3.01-6.91-2.63-10.66.25-2.13.89-4.2,1.89-6.1.12-.26.32-.47.57-.61,1.95-.76,4.01-1.19,6.11-1.28Z"/>
            <path id="_パス_184" data-name="パス 184" class="cls-4" d="M115.99,23.78c.54.78,1.11,1.54,1.63,2.34.97,1.42,1.45,3.12,1.34,4.84-.04.48,0,.96.13,1.42.49-.84.67-1.83.5-2.79-.15-.88-.42-1.73-.64-2.6-.07-.29-.12-.58-.18-.91.46-.02.88.25,1.05.67.82,1.34,1.15,2.93.94,4.48-.19,1.67-.77,3.28-1.67,4.7-1.01,1.61-2.04,3.22-3.17,4.76-1.52,2.06-3.58,3.66-5.95,4.63-.37.16-.74.33-1.11.49h-.68c.15-.69.73-1,1.28-1.31,1.6-.87,3.06-1.98,4.34-3.28,2.8-2.84,4.23-6.75,3.92-10.73-.15-1.47-.58-2.89-1.27-4.2-.38-.81-.84-1.58-1.24-2.38-.07-.21-.12-.42-.14-.64l.92.5Z"/>
            <path id="_パス_185" data-name="パス 185" class="cls-16" d="M117.93,48.97l-1.76-.85c.37-.06.74-.12,1.11-.17.14-.02.32-.09.43-.03,1.11.58,2.32.18,3.47.41,2.91.64,5.69,1.8,8.2,3.41,3.4,2.09,6.81,4.15,10.22,6.23.09.06.17.14.21.38-.3-.07-.61-.13-.91-.22-2.99-.91-5.9-2.04-8.72-3.4-2.25-1.06-4.48-2.14-6.7-3.26-.8-.4-1.5-1-2.31-1.36-1.04-.46-2.15-.76-3.23-1.14Z"/>
            <path id="_パス_186" data-name="パス 186" class="cls-16" d="M49.25,70.43c.99-1.66,2.22-3.16,3.66-4.44,3.76-3.5,8.21-5.99,12.62-8.54.13-.07.29-.08.42-.02-.22.23-.42.47-.65.69-3.01,2.88-6.02,5.76-9.03,8.64-.88.83-1.77,1.66-2.65,2.48-.11.1-.23.18-.36.24-1.29.5-2.64.83-4.01.96Z"/>
            <path id="_パス_187" data-name="パス 187" class="cls-16" d="M79.21,50.37c-1.9,1.36-3.67,2.92-5.26,4.63-.39.42-.8.82-1.21,1.23.5-.76.8-1.63.86-2.54-5.22,5.76-10.61,11-17.33,14.65l-.18-.2c.19-.18.38-.37.58-.55,2.25-2.04,4.52-4.05,6.75-6.12,1.65-1.53,3.24-3.14,4.88-4.69,2.06-2.08,4.44-3.82,7.06-5.13,1.26-.5,2.54-.93,3.85-1.29Z"/>
            <path id="_パス_188" data-name="パス 188" class="cls-16" d="M138.21,71.01c1.38,2,2.72,4.03,4.15,5.98,1.66,2.23,3.74,4.13,6.11,5.58.55.31,1.12.59,1.71.84.45.21.91.37,1.35.58,1.53.76,2.24,2,1.62,4.25-2.22-.96-4.26-2.28-6.04-3.91-2.44-2.31-4.49-5-6.09-7.95-1.03-1.7-1.99-3.45-2.98-5.18l.17-.19Z"/>
            <path id="_パス_189" data-name="パス 189" class="cls-16" d="M62.9,71.23c-3.66,6.18-7.72,12.01-14.52,15.27.26-.3.5-.6.77-.89,1.66-1.81,3.32-3.61,4.98-5.42,2.7-2.9,5.4-5.8,8.1-8.7.13-.19.24-.39.32-.6l.35.34Z"/>
            <path id="_パス_190" data-name="パス 190" class="cls-16" d="M92.42,33.86c-.14-.66-.28-1.15-.34-1.66-.39-2.61-.08-5.28.89-7.73.44-.9.97-1.76,1.58-2.57.18-.22.43-.36.72-.4.91-.1,1.83-.14,2.97-.21-.15.34-.34.66-.58.94-2.49,2.03-4.13,4.92-4.6,8.09-.18,1.05-.32,2.1-.49,3.15-.04.13-.09.25-.15.38Z"/>
            <path id="_パス_191" data-name="パス 191" class="cls-16" d="M126.55,54.19c5.16,2.44,10.3,4.92,16.06,5.91-5.56,1.28-11.9-1-16.06-5.91Z"/>
            <path id="_パス_192" data-name="パス 192" class="cls-26" d="M52.68,94.25l3.7-3.77c-.27,1.54-.89,3-1.8,4.27l-1.9-.51Z"/>
            <path id="_パス_193" data-name="パス 193" class="cls-5" d="M138.21,71.01l-.17.19c-1.06-1.62-2.11-3.24-3.18-4.85-.52-.78-1.09-1.52-1.74-2.43l-.28.65c-.19-.97-.6-1.89-1.18-2.68-.15-.31-.28-.62-.4-.94.44.39.85.83,1.22,1.29,1.93,2.9,3.83,5.83,5.74,8.75Z"/>
            <path id="_パス_194" data-name="パス 194" class="cls-21" d="M131.23,42.38c1.71-1.64,3.75-3.05,3.72-5.87,1.3,1.61-.91,5.02-3.72,5.87Z"/>
            <path id="_パス_195" data-name="パス 195" class="cls-9" d="M143.57,61.58c.48-.24,1.07-.14,1.44.26.64.65,1.29,1.28,1.94,1.92l-.14.17-3.23-2.35Z"/>
            <path id="_パス_196" data-name="パス 196" class="cls-29" d="M54.62,55.65c-.29.65-.82,1.16-1.48,1.43.16-.73.75-1.29,1.48-1.43Z"/>
            <path id="_パス_197" data-name="パス 197" class="cls-31" d="M76.05,101.33l-1.22.58c-.65-2.05-.13-4.29,1.34-5.86-.23-.04-.47-.05-.71-.03-1.6.31-3.1.97-4.4,1.95-1.16.88-1.69,2.37-1.34,3.79.09.33.16.67.21,1.02.02.27,0,.65-.17.78-.25.11-.54.1-.78-.03-1.25-.6-2.1-1.81-2.24-3.19-.01-.2-.01-.41,0-.61-1.18-.36-2.48-.25-3.41-1.18-.15-.24-.26-.5-.32-.77,1.07-.05,2.02-.14,2.97-.11,1.16.04,2.19-.11,2.76-1.24-.71-.26-1.46-.52-2.2-.81-.25-.09-.47-.22-.66-.4-.12-.17-.22-.37-.28-.57.18-.07.36-.22.53-.21.8.06,1.61.13,2.41.25,1.45.29,2.95.11,4.28-.51,3.24-1.61,6.65-1.46,10.08-.67,2.42.53,4.62,1.77,6.32,3.56.35.38.65.81.89,1.27.11.2-.01.52-.03.79-.24-.03-.47-.1-.69-.19-1.61-.91-3.2-1.83-4.81-2.75-.23-.1-.46-.18-.7-.24,1.36,1.26,2.06,3.09,1.88,4.94-.06,1.44-.71,2.78-1.8,3.72-2.53,2.11-6.74,1.62-8.02-.53l1.15-.48c.24.16.48.32.73.47,2.25,1.41,5.91.27,6.5-2.53.21-.94.16-1.91-.14-2.82-1.03-2.99-5.1-3.91-7.06-1.65-1.06,1.15-1.46,2.75-1.07,4.26Z"/>
            <path id="_パス_198" data-name="パス 198" class="cls-31" d="M115.98,101.34l-1.18.55c-.54-2.11.07-4.35,1.61-5.88-.25.06-.5.15-.74.25-1.53.87-3.06,1.74-4.58,2.63-.12.07-.23.19-.36.24-.37.17-.68-.04-.57-.43.12-.41.33-.8.59-1.14,1.46-1.82,3.45-3.13,5.7-3.77,2.92-.99,6.07-1.12,9.06-.38.84.21,1.65.52,2.42.93.96.48,2.06.62,3.11.39.77-.1,1.54-.23,2.32-.28.29.04.57.13.82.27-.19.23-.33.56-.58.68-.77.38-1.58.68-2.38,1.02.49.91,1.5,1.42,2.52,1.26.95-.03,1.9,0,2.84.09.15.5-.14,1.02-.64,1.17-.02,0-.04.01-.06.02-.62.22-1.26.4-1.91.55-.3.08-.61.12-.97.19.04,1.18-.46,2.31-1.35,3.08-.31.3-.68.53-1.09.67-.58.2-.86-.1-.81-.72.12-.74.16-1.48.13-2.23-.08-1.73-1.21-3.23-2.85-3.79-.96-.34-1.93-.6-2.92-.81,1.43,1.48,2.01,3.58,1.54,5.59-.23,1.51-1.08,2.86-2.34,3.72-2.11,1.36-5.9.91-7.36-1.17l1.04-.43c.5.23.99.47,1.49.69,1.96.98,4.34.22,5.36-1.71.5-1.01.68-2.15.53-3.27-.34-1.67-1.6-3.01-3.24-3.45-1.79-.27-3.57.53-4.55,2.05-.53,1.06-.75,2.26-.61,3.44Z"/>
            <path id="_パス_199" data-name="パス 199" class="cls-2" d="M77.93,83.54c3.91.03,7.8.49,11.61,1.37.28.07.56.13.84.22.77.23,1.06.55,1.02,1.09-.09.65-.59,1.16-1.24,1.27-.69.09-1.38.11-2.07.06-2.38-.24-4.77-.49-7.14-.83-4.32-.7-8.73-.53-12.99.48-.84.21-1.69.36-2.54.53-.22.05-.46.06-.69.04-.58-.09-.74-.48-.34-.91.3-.31.65-.57,1.03-.77,1.89-1.08,3.97-1.78,6.13-2.04,2.12-.24,4.26-.35,6.39-.52Z"/>
            <path id="_パス_200" data-name="パス 200" class="cls-2" d="M121.86,83.59c4.44-.36,8.9.58,12.81,2.72.44.21,1.06.54.82,1.14-.22.54-.84.35-1.32.25-1.53-.32-3.04-.69-4.57-.95-2.33-.46-4.71-.58-7.08-.37-2.98.33-5.96.73-8.94,1.04-1.2.12-2.42.08-3.63.11-.17,0-.35-.02-.52-.06-.59-.19-1.02-.7-1.1-1.32,0-.66.49-.87,1.01-1.02,2.3-.66,4.67-1.08,7.07-1.25,1.82-.13,3.64-.2,5.45-.29Z"/>
            <path id="_パス_201" data-name="パス 201" class="cls-24" d="M115.98,101.34c-.13-1.18.08-2.38.62-3.44.98-1.52,2.76-2.32,4.55-2.05,1.65.45,2.9,1.78,3.24,3.45.15,1.12-.03,2.26-.53,3.27-1.02,1.94-3.41,2.7-5.36,1.71-.5-.22-.99-.46-1.49-.69.39-.23.77-.49,1.12-.77.37-.26.51-.73.36-1.15-.15-.46-.62-.74-1.1-.65-.48.08-.95.18-1.41.31ZM120.06,101.28c.58,0,1.05-.45,1.08-1.03.02-.57-.43-1.06-1-1.09-.6,0-1.1.43-1.19,1.02.02.6.51,1.09,1.11,1.1Z"/>
            <path id="_パス_202" data-name="パス 202" class="cls-24" d="M76.05,101.33c-.39-1.51.01-3.11,1.07-4.26,1.96-2.26,6.03-1.34,7.06,1.65.3.91.35,1.89.14,2.82-.58,2.79-4.24,3.94-6.5,2.53-.24-.15-.48-.31-.73-.47.42-.23.81-.52,1.16-.85.23-.31.33-.69.28-1.08-.09-.45-.53-.74-.98-.65,0,0,0,0,0,0-.5.08-1,.18-1.5.31ZM80.29,101.28c.6.01,1.1-.44,1.16-1.04-.04-.6-.53-1.07-1.13-1.08-.57-.02-1.05.42-1.09.99,0,.6.47,1.1,1.07,1.14h0Z"/>
            <path id="_パス_203" data-name="パス 203" class="cls-4" d="M89.26,133.49c-.18-.14-.34-.29-.49-.46-.25-.29-.23-.73.07-.99,0,0,0,0,.01-.01.27-.17.6-.25.92-.21.3.06.59.17.86.31l1.55.52c.41.2.84.35,1.28.45,1.94.27,3.84.8,5.65,1.56.48.21,1.01.21,1.49.02,1.86-.79,3.81-1.34,5.82-1.61.39-.09.76-.22,1.12-.4l1.54-.52c.2-.03.39-.09.57-.17.43-.24.87-.4,1.25.04.33.37.3.94-.08,1.27-.02.01-.03.03-.05.04l-1.22.66-2.42.56c-1.26.06-2.51.26-3.72.62-1.37.52-2.84.73-4.3.61-.69.03-1.38-.08-2.03-.32-1.4-.53-2.87-.83-4.36-.9l-.69.02-2.79-1.07Z"/>
            <path id="_パス_204" data-name="パス 204" class="cls-3" d="M68.4,93.85c.45-.34.91-.66,1.39-.95,3.36-1.79,7.18-2.55,10.98-2.18,2.43.1,4.83.61,7.09,1.51.61.27,1.2.57,1.76.92.4.15.61.61.45,1.01,0,0,0,.01,0,.02-.29-.05-.57-.13-.84-.24-3.69-1.73-7.76-2.44-11.82-2.08-2.1.19-4.17.67-6.14,1.43-.89.31-1.8.58-2.7.86l-.17-.3Z"/>
            <path id="_パス_205" data-name="パス 205" class="cls-3" d="M131.64,94.13c-1.24-.41-2.37-.79-3.51-1.17-5.57-1.89-11.65-1.54-16.96.96-.29.13-.66.48-.88.04-.08-.16.22-.63.46-.8,1.3-.87,2.76-1.47,4.3-1.77,3.79-1,7.78-1.02,11.58-.06,1.35.43,2.66.95,3.94,1.55.38.2.72.46,1.02.77.07.06.04.24.07.48Z"/>
            <path id="_パス_206" data-name="パス 206" class="cls-4" d="M85.64,47.54c-1.11-.4-2.23-.78-3.34-1.19-2.31-.9-4.25-2.56-5.49-4.71-.99-1.47-1.67-3.12-2-4.85-.06-.86-.03-1.72.09-2.57,0-.11.14-.22.34-.5.12.37.2.74.25,1.12.16,2.35,1.01,4.6,2.45,6.47,1.06,1.6,2.54,2.88,4.28,3.7,1.6.74,3.21,1.44,4.82,2.17l.36.37-.09.22-1.68-.23Z"/>
            <path id="_パス_207" data-name="パス 207" class="cls-14" d="M109.09,132.13l-1.54.52c-1.76.25-3.54.41-5.27.79-1.53.36-3.13.38-4.67.04-1.79-.38-3.62-.57-5.43-.84l-1.55-.52c1.21.08,2.42.1,3.62.25,1.8.21,3.59.54,5.39.74.58,0,1.15-.07,1.71-.2,1.77-.21,3.55-.43,5.32-.62.8-.09,1.61-.12,2.41-.16Z"/>
            <path id="_パス_208" data-name="パス 208" class="cls-17" d="M98.48,122.24c-.21.04-.32.1-.36.06-.84-.59-1.66-1.23-2.43-1.9-.24-.32-.33-.72-.24-1.11.15-.55.4-1.08.72-1.56.17-.21.43-.34.7-.34.17.01.38.33.44.55.29,1.02.53,2.06.8,3.09.11.39.25.78.38,1.2Z"/>
            <path id="_パス_209" data-name="パス 209" class="cls-11" d="M103.44,120.38c.32.17.66.27.67.38.01.24-.1.48-.28.63-.8.39-1.62.72-2.46,1.03-.16.06-.54-.07-.57-.18-.05-.2,0-.58.14-.66.82-.44,1.68-.82,2.5-1.21Z"/>
            <path id="_パス_210" data-name="パス 210" class="cls-6" d="M110.12,134.37c-.69,1.06-1.6,1.95-2.67,2.62-1.39.97-2.96,1.66-4.62,2.02-.3.07-.59.14-.89.21l.69-.69,1.56-.52c.25-.06.51-.1.75-.19,1.32-.33,2.51-1.05,3.41-2.07l1.76-1.38Z"/>
            <path id="_パス_211" data-name="パス 211" class="cls-6" d="M97.77,139.06c-2.19-.18-4.27-1.03-5.96-2.44-.79-.7-1.52-1.45-2.21-2.25.76.09,1.05.8,1.57,1.21,1.12,1.3,2.65,2.16,4.34,2.43l1.56.52.69.53Z"/>
            <path id="_パス_212" data-name="パス 212" class="cls-7" d="M91.18,135.58c-.52-.41-.81-1.12-1.57-1.21-.11-.29-.23-.58-.34-.87l2.79,1.06c.4.32,1.01.48.86,1.2-.55-.24-1.15-.3-1.74-.18Z"/>
            <path id="_パス_213" data-name="パス 213" class="cls-36" d="M97.77,139.06l-.69-.53c.35-.17.74-.28,1.13-.32,1.47.16,3-.43,4.43.32l-.69.69s-.09.01-.14.01c-.28-.12-.57-.21-.86-.27-.77-.12-1.55-.2-2.33-.23-.2,0-.41.3-.62.46l-.22-.13Z"/>
            <path id="_パス_214" data-name="パス 214" class="cls-34" d="M97.99,139.19c.21-.16.41-.46.62-.46.78.03,1.56.11,2.33.23.3.07.58.16.86.27-.34.18-.7.31-1.07.41-.94.19-1.92.02-2.74-.46Z"/>
            <path id="_パス_215" data-name="パス 215" class="cls-19" d="M129.95,105.8c-.14.05-.39.22-.51.15-.5-.28-.97-.61-1.41-.97-.13-.14-.17-.34-.12-.53.11-.16.28-.27.47-.29.62-.07,1.58.84,1.58,1.63Z"/>
            <path id="_パス_216" data-name="パス 216" class="cls-19" d="M70.04,106.15c-.32-.44-.22-1.05.22-1.37.02-.01.03-.02.05-.03.34-.29.75-.47,1.19-.54.23,0,.42.18.43.41,0,.13-.05.25-.15.33-.53.44-1.13.8-1.74,1.21Z"/>
            <path id="_パス_217" data-name="パス 217" class="cls-10" d="M110.12,134.37l-1.76,1.38-1.04-.17,1.3-.47c-.02-.41.28-.78.69-.83.1-.02.17-.2.26-.31l1.22-.66-.67,1.06Z"/>
            <path id="_パス_218" data-name="パス 218" class="cls-22" d="M127.35,106.89c-.55-.04-1.03-.4-1.21-.92-.02-.19.04-.37.18-.5.18-.07.38-.05.54.06.42.31.61.85.49,1.36Z"/>
            <path id="_パス_219" data-name="パス 219" class="cls-20" d="M73.78,105.93c-.36.35-.69.68-1.04.98-.03.02-.38-.24-.36-.28.16-.39.35-.76.58-1.11.06-.09.33-.11.46-.06s.19.23.37.48Z"/>
            <path id="_パス_220" data-name="パス 220" class="cls-15" d="M120.06,101.28c-.6-.01-1.09-.5-1.11-1.1.09-.59.59-1.03,1.19-1.02.57.04,1.02.52,1,1.09-.03.58-.5,1.03-1.08,1.03Z"/>
            <path id="_パス_221" data-name="パス 221" class="cls-33" d="M80.29,101.28c-.6-.04-1.06-.54-1.07-1.14.04-.57.52-1.01,1.09-.99.6.02,1.09.49,1.13,1.08-.05.6-.56,1.05-1.16,1.04Z"/>
            <path id="_パス_222" data-name="パス 222" class="cls-8" d="M92.74,134.53c1.49.07,2.96.37,4.36.9.65.24,1.34.35,2.03.32,1.46.12,2.93-.09,4.3-.61,1.21-.35,2.46-.56,3.72-.62-.27.16-.54.3-.83.42-1.29.6-2.64,1.04-4.04,1.31l-1.21.53c-.16.52-.69.82-1.22.7-.17-.01-.35-.01-.52,0-.42-.33-.87-.62-1.35-.86-1.41-.56-2.85-1.04-4.28-1.57-.34-.15-.66-.33-.97-.53Z"/>
            <path id="_パス_223" data-name="パス 223" class="cls-12" d="M92.18,132.65c1.81.27,3.64.46,5.43.84,1.54.33,3.14.32,4.67-.04,1.73-.39,3.51-.54,5.27-.79-.35.18-.73.31-1.12.4-2,.28-3.96.82-5.82,1.61-.48.2-1.02.19-1.49-.02-1.81-.77-3.71-1.29-5.65-1.56-.44-.1-.88-.24-1.28-.44Z"/>
            <path id="_パス_224" data-name="パス 224" class="cls-30" d="M102.29,136.26c1.39-.27,2.75-.71,4.04-1.31.28-.12.56-.27.83-.42l2.42-.56c-.09.11-.16.29-.26.31-.41.05-.71.41-.69.83l-1.3.47-1.39.69c-.39.06-.78.12-1.17.16-.3.03-.6.01-.9.01l-1.57-.18Z"/>
            <path id="_パス_225" data-name="パス 225" class="cls-35" d="M92.74,134.53c.31.2.64.37.97.52,1.42.53,2.86,1.01,4.28,1.57.48.24.93.53,1.35.86-1.04-.23-2.08-.43-3.11-.7-1-.26-1.98-.57-2.97-.87l-.35-.17c.15-.71-.46-.88-.86-1.2h.69Z"/>
            <path id="_パス_226" data-name="パス 226" class="cls-25" d="M93.26,135.93c.99.29,1.97.61,2.97.87,1.03.26,2.07.47,3.11.7.17-.01.35-.01.52,0,.53.12,1.06-.18,1.22-.7.07.65.5.73,1.05.71.75.06,1.44-.37,1.73-1.06.3,0,.6.02.9-.01.39-.04.78-.1,1.17-.16-.76.36-1.38.97-1.74,1.74l-1.56.52c-1.43-.75-2.95-.16-4.43-.32-.39.04-.78.14-1.13.32l-1.56-.52c-.27-.8-.92-1.42-1.73-1.67-.2-.07-.35-.27-.52-.41Z"/>
            <path id="_パス_227" data-name="パス 227" class="cls-32" d="M104.2,138.01c.36-.76.97-1.38,1.74-1.74l1.39-.69,1.04.17c-.87,1.03-2.04,1.76-3.34,2.11-.27.08-.55.13-.83.15Z"/>
            <path id="_パス_228" data-name="パス 228" class="cls-32" d="M93.26,135.93c.17.14.33.35.53.42.81.24,1.46.86,1.73,1.67-1.69-.27-3.22-1.14-4.34-2.43.58-.13,1.19-.07,1.74.17l.35.17Z"/>
            <path id="_パス_229" data-name="パス 229" class="cls-1" d="M103.86,136.45c-.06.62-.84,1.01-1.73,1.06-.54.03-1.17-.05-1.16-.69,0-.67.68-.77,1.29-.79.57-.03,1.13.12,1.6.43Z"/>
            <circle id="_楕円形_71" data-name="楕円形 71" class="cls-28" cx="98" cy="57.53" r="2"/>
            <circle id="_楕円形_72" data-name="楕円形 72" class="cls-28" cx="112" cy="64.53" r="2"/>
            <circle id="_楕円形_73" data-name="楕円形 73" class="cls-28" cx="128" cy="124.53" r="2"/>
            <circle id="_楕円形_74" data-name="楕円形 74" class="cls-28" cx="113" cy="147.53" r="2"/>
          </g>
        </g>
      </g>
      <circle id="_楕円形_70" data-name="楕円形 70" class="cls-27" cx="29.43" cy="87" r="29"/>
      <g id="_肌質" data-name="肌質" class="cls-13">
        <g class="cls-13">
          <path d="M15.85,82.04h2.52c.31,0,.57.11.79.32.22.21.33.48.33.78v11.83c0,1.11-.72,1.64-2.16,1.6-.18,0-.33-.07-.46-.21-.12-.14-.19-.31-.19-.5,0-.2.08-.38.24-.53s.34-.21.54-.2c.06,0,.11,0,.16,0,.05,0,.1,0,.14,0,.12,0,.2-.01.22-.04.02-.03.03-.07.03-.13v-4.08c0-.07-.03-.1-.1-.1h-1.73c-.07,0-.1.03-.1.1-.03.83-.1,1.67-.19,2.53s-.22,1.73-.39,2.6c-.05.19-.14.35-.29.47-.15.12-.32.18-.51.18-.22,0-.39-.08-.52-.25s-.18-.36-.14-.56c.34-1.7.54-3.37.59-5.02.06-1.64.08-3.16.08-4.56v-3.15c0-.29.11-.55.33-.77.22-.22.48-.33.79-.33ZM16.14,89.24c0,.07.03.1.1.1h1.68c.07,0,.1-.03.1-.1v-2.01c0-.07-.03-.1-.1-.1h-1.65c-.07,0-.1.03-.1.08v.99c0,.34-.01.69-.03,1.04ZM17.92,85.69c.07,0,.1-.03.1-.1v-2.01c0-.07-.03-.1-.1-.1h-1.65c-.07,0-.1.03-.1.1v2.01c0,.07.03.1.1.1h1.65ZM27.99,94.5c.26.14.39.36.39.66,0,.14-.03.25-.08.34-.19.35-.44.6-.76.76-.31.15-.72.23-1.22.23-.66,0-1.17-.18-1.54-.54-.37-.36-.55-.86-.55-1.5v-10.71c0-.07-.03-.1-.1-.1h-1.84c-.07,0-.1.03-.1.1v2.28c0,2.3-.12,4.28-.35,5.93-.23,1.65-.5,3.01-.79,4.08-.05.18-.15.33-.31.44s-.33.17-.53.17-.35-.07-.48-.2-.2-.29-.2-.47c0-.04,0-.08,0-.12,0-.03.01-.07.03-.1.31-.99.57-2.26.81-3.83.23-1.57.35-3.54.35-5.91v-2.69c0-.31.11-.57.33-.79.22-.22.48-.33.79-.33h2.74c.31,0,.57.11.79.32.22.21.33.48.33.8v11.12c0,.24.04.4.13.48s.25.13.48.13c.33,0,.58-.1.75-.31.17-.23.37-.34.61-.34.11,0,.22.03.31.08Z"/>
          <path d="M34.97,94.29c.09-.03.18-.05.27-.05.17,0,.32.06.46.19.14.12.2.3.2.53,0,.15-.04.29-.12.43s-.2.24-.36.3c-.6.23-1.27.42-2.02.58-.75.16-1.42.27-2.02.32-.22.01-.41-.06-.58-.2s-.25-.33-.25-.54c0-.19.06-.35.18-.48.12-.13.27-.21.45-.23.69-.06,1.36-.16,2.01-.31.65-.15,1.24-.32,1.78-.53ZM31.2,88c-.11-.07-.2-.16-.25-.27s-.08-.23-.08-.34c0-.14.03-.25.08-.36.26-.46.43-.91.51-1.34.08-.43.12-.79.12-1.07v-.94c0-.31.11-.57.32-.8.22-.23.48-.35.78-.37.79-.06,1.52-.14,2.17-.25.65-.11,1.2-.23,1.66-.34.02-.01.05-.02.08-.02h.08c.17,0,.32.06.44.18.12.12.19.28.19.47,0,.18-.05.34-.16.48-.11.14-.25.23-.42.27-.45.11-1,.22-1.63.33-.64.11-1.3.19-2.01.25-.07,0-.1.03-.1.1v.05c0,.07.03.1.1.1h4.15c.17,0,.32.06.44.18.12.12.19.27.19.45s-.06.33-.19.45c-.12.12-.27.18-.44.18h-1.19c-.07,0-.1.03-.1.1v.83c0,.19-.07.36-.2.49-.14.14-.3.2-.49.2s-.36-.07-.5-.2c-.14-.14-.21-.3-.21-.49v-.83c0-.07-.03-.1-.1-.1h-1.39c-.06,0-.1.03-.12.08-.05.33-.12.69-.24,1.09-.11.4-.28.79-.49,1.19-.12.24-.33.36-.63.36-.12,0-.25-.03-.37-.1ZM33.87,87.07h3.93c.08,0,.1-.04.05-.12-.01-.04-.03-.09-.04-.14-.02-.05-.03-.09-.03-.14,0-.11.03-.23.08-.34.18-.33.29-.63.32-.92.03-.28.05-.56.05-.83v-.9c0-.31.11-.57.32-.8.22-.23.48-.35.8-.36.95-.05,1.78-.13,2.5-.25.71-.12,1.31-.23,1.8-.35.02-.01.05-.02.08-.02h.08c.17,0,.32.06.45.18.13.12.2.27.2.47,0,.18-.05.34-.16.48-.11.14-.25.23-.42.26-.5.11-1.1.23-1.82.34s-1.49.2-2.33.25c-.07,0-.1.03-.1.1v.02c0,.07.03.1.1.1h4.68c.17,0,.32.06.44.18.12.12.19.27.19.45s-.06.33-.19.45c-.12.12-.27.18-.44.18h-1.29c-.07,0-.1.03-.1.1v.83c0,.18-.07.34-.21.48-.14.14-.31.21-.5.21s-.36-.07-.49-.21c-.14-.14-.2-.3-.2-.48v-.83c0-.07-.03-.1-.1-.1h-1.82c-.06,0-.1.03-.12.1-.02.19-.07.4-.13.62-.06.22-.14.45-.25.67-.01.03-.03.07-.04.09-.02.03-.04.05-.06.08-.06.08-.04.12.05.12h2.84c.31,0,.57.11.79.33s.33.48.33.79v4.9c0,.31-.11.57-.33.79-.22.22-.48.33-.79.33h-8.13c-.31,0-.57-.11-.79-.32-.22-.21-.33-.48-.33-.8v-4.9c0-.31.11-.57.33-.79s.48-.33.79-.33ZM34.21,88.85c0,.07.03.1.1.1h7.21c.07,0,.1-.03.1-.1v-.27c0-.07-.03-.1-.1-.1h-7.21c-.07,0-.1.03-.1.1v.27ZM34.21,90.72c0,.07.03.1.1.1h7.21c.07,0,.1-.03.1-.1v-.27c0-.07-.03-.1-.1-.1h-7.21c-.07,0-.1.03-.1.1v.27ZM34.31,92.22c-.07,0-.1.03-.1.1v.37c0,.07.03.1.1.1h7.21c.07,0,.1-.03.1-.1v-.37c0-.07-.03-.1-.1-.1h-7.21ZM44.63,95.14c.19.02.35.1.47.24s.18.29.18.48c0,.21-.08.4-.24.54-.16.15-.34.21-.54.2-.4-.05-.84-.11-1.33-.2s-.98-.19-1.47-.32c-.49-.13-.94-.27-1.35-.42-.15-.06-.26-.14-.35-.26s-.13-.25-.13-.4c0-.24.08-.42.24-.56.16-.14.33-.2.53-.2.09,0,.18.02.25.05.53.2,1.12.38,1.76.53s1.3.25,1.98.32Z"/>
        </g>
      </g>
      <circle id="_楕円形_67" data-name="楕円形 67" class="cls-27" cx="29" cy="29" r="29"/>
      <g id="_ニキビ" data-name="ニキビ" class="cls-13">
        <g class="cls-13">
          <path d="M9.1,34.75c-.17-.02-.31-.1-.42-.23-.11-.13-.17-.29-.17-.47,0-.2.08-.37.24-.5.16-.13.34-.18.54-.17.33.04.73.07,1.19.08.46.01.96.02,1.49.02.59,0,1.2,0,1.84-.02.64-.02,1.27-.03,1.88-.05.61-.02,1.19-.04,1.73-.06.53-.02,1-.03,1.39-.04.2,0,.37.07.52.22.15.15.22.32.22.52s-.07.35-.2.48c-.14.13-.3.19-.49.19-1.58,0-2.99.01-4.24.06s-2.35.07-3.31.07c-.42,0-.81,0-1.19-.02-.37-.01-.71-.04-1.03-.08ZM10.35,28.32c-.17-.02-.31-.09-.42-.22-.11-.12-.17-.27-.17-.43,0-.2.08-.37.23-.51.15-.14.32-.2.51-.18.51.03,1.07.05,1.68.05s1.21-.01,1.84-.03c.63-.02,1.23-.04,1.81-.06.58-.02,1.08-.03,1.52-.03.19,0,.35.06.47.19.12.13.19.29.19.48s-.07.35-.2.47c-.13.12-.29.19-.47.2-.43,0-.94,0-1.52.03-.58.02-1.19.04-1.83.06-.64.02-1.26.03-1.86.03-.33,0-.65,0-.95-.01-.3-.01-.58-.03-.84-.05Z"/>
          <path d="M34.29,30.03c0,.14-.04.27-.13.38-.08.12-.2.2-.35.25-.5.13-1.07.26-1.7.38-.63.12-1.29.24-1.97.35-.09,0-.13.05-.1.15.15.64.3,1.26.46,1.85.16.59.32,1.15.48,1.66.02.04.03.08.03.11v.11c0,.16-.06.31-.18.45-.12.14-.29.21-.5.21-.14,0-.27-.04-.38-.12-.12-.08-.2-.19-.25-.33-.17-.54-.34-1.13-.51-1.77-.17-.64-.33-1.3-.49-1.98-.02-.09-.08-.12-.17-.11-.7.11-1.37.21-2.01.32-.64.1-1.19.2-1.63.3-.03,0-.08.01-.14.01-.17,0-.32-.06-.45-.18-.13-.12-.2-.28-.2-.46,0-.16.05-.31.15-.44.1-.13.23-.21.39-.24.49-.11,1.04-.21,1.66-.31.61-.1,1.26-.19,1.93-.29.08,0,.11-.06.1-.15-.07-.37-.15-.73-.22-1.08-.08-.35-.15-.7-.21-1.04-.02-.1-.07-.14-.16-.12-.55.08-1.09.16-1.61.24s-1,.16-1.44.24c-.19.03-.37-.01-.54-.13s-.25-.29-.25-.5c0-.17.05-.32.16-.44s.24-.2.4-.23c.43-.08.9-.16,1.42-.23.51-.08,1.05-.15,1.61-.23.08,0,.11-.06.1-.15-.07-.36-.13-.69-.18-1-.05-.31-.1-.59-.15-.84,0-.03-.01-.08-.01-.13,0-.17.06-.32.19-.45.12-.13.28-.2.47-.2.16,0,.31.05.44.16.13.1.21.24.24.41.05.25.1.53.15.85.05.31.11.65.18,1.01.02.1.07.14.17.12.51-.08,1.01-.16,1.5-.24.49-.08.95-.17,1.4-.25.2-.03.38.02.55.14s.25.3.25.52c0,.15-.05.29-.14.41-.1.12-.22.2-.38.23-.43.08-.89.16-1.39.25s-1,.17-1.52.25c-.09,0-.12.05-.1.15l.45,2.08c.02.1.08.14.17.12.68-.11,1.33-.22,1.95-.34s1.17-.25,1.65-.38c.03,0,.06-.01.09-.01h.08c.18,0,.34.06.48.18s.21.28.21.48Z"/>
          <path d="M48.14,34.08c.2-.02.38.03.52.16s.23.29.23.49c0,.18-.06.34-.17.47-.11.13-.25.21-.42.23-.32.04-.71.08-1.18.11-.46.04-.96.06-1.48.08-.52.02-1.04.04-1.56.05-.52.01-.99.02-1.43.02-1.09-.01-1.88-.25-2.37-.73-.49-.48-.71-1.23-.67-2.26v-7.16c0-.19.07-.35.2-.48.13-.13.29-.2.47-.2.19,0,.35.07.48.2.13.14.2.29.2.47v3.09c0,.09.04.13.13.12,1.1-.09,2.16-.25,3.17-.48,1.01-.23,2.05-.56,3.1-.99.08-.03.16-.04.24-.04.17,0,.32.06.46.18.13.12.2.29.2.5,0,.14-.04.28-.13.41s-.2.22-.34.27c-1.04.4-2.12.73-3.24.98-1.12.26-2.28.43-3.47.53-.09,0-.13.06-.13.15v2.46c0,.49.05.85.15,1.07s.27.36.52.43c.25.06.59.11,1.04.13.11.01.23.02.35.02h.4c.48,0,1.01-.01,1.59-.04.58-.02,1.15-.06,1.71-.1.56-.04,1.04-.09,1.43-.15ZM48,26.76c-.16-.23-.35-.49-.57-.76-.22-.28-.42-.52-.6-.71-.1-.1-.15-.22-.15-.36,0-.1.04-.2.12-.3.1-.1.22-.15.36-.15.13,0,.24.04.33.14.22.22.44.47.67.76s.44.58.63.87c.05.06.08.14.08.24,0,.19-.08.33-.23.42-.06.05-.14.07-.24.07-.18,0-.31-.07-.41-.22ZM49.92,25.6c.05.06.08.14.08.24,0,.19-.08.33-.23.42-.08.05-.17.08-.25.08-.17,0-.3-.08-.39-.22-.16-.24-.34-.49-.55-.76-.21-.26-.4-.49-.59-.68-.1-.1-.15-.21-.15-.33,0-.13.05-.23.15-.31.09-.1.2-.15.34-.15.13,0,.24.04.33.13.2.19.4.42.61.7.21.28.43.57.65.89Z"/>
        </g>
      </g>
    </g>
  </g>
</svg>