<svg xmlns="http://www.w3.org/2000/svg" width="192" height="205.951" viewBox="0 0 192 205.951">
  <g id="グループ_102" data-name="グループ 102" transform="translate(-201 -1475.516)">
    <g id="グループ_14" data-name="グループ 14">
      <g id="グループ_11" data-name="グループ 11">
        <circle id="楕円形_5" data-name="楕円形 5" cx="96" cy="96" r="96" transform="translate(201 1489.467)" fill="#fff"/>
        <g id="グループ_10" data-name="グループ 10">
          <path id="パス_85" data-name="パス 85" d="M342.4,1667.1a7.584,7.584,0,0,1-.932.113q-44.541,0-89.082-.013c-.342,0-.684-.06-1.026-.092.524-.306,1.056-.6,1.569-.92,3.378-2.119,6.827-4.136,10.107-6.4a25.618,25.618,0,0,0,9-10.574,53.994,53.994,0,0,0,2.847-7.892,43.275,43.275,0,0,0,1.295-15.464c-.032-.372-.1-.741-.147-1.111l.177-.095c.226.158.46.308.677.478,1.182.929,2.331,1.9,3.546,2.787a46.637,46.637,0,0,0,10.788,6.208,15.936,15.936,0,0,0,8.438.807,19.388,19.388,0,0,0,5.223-1.811,58.74,58.74,0,0,0,11.621-7.683c.349-.286.7-.574,1.135-.936-.074,1.369-.125,2.581-.209,3.791a32.6,32.6,0,0,0,.375,7.954,72.693,72.693,0,0,0,2,8.149,28.414,28.414,0,0,0,12.4,16.458C335.578,1662.98,339,1665.026,342.4,1667.1Z" fill="#fefefe"/>
          <path id="パス_86" data-name="パス 86" d="M342.4,1667.1c-3.4-2.079-6.826-4.125-10.2-6.243a28.414,28.414,0,0,1-12.4-16.458,72.693,72.693,0,0,1-2-8.149,32.6,32.6,0,0,1-.375-7.954c.084-1.21.135-2.422.209-3.791-.438.362-.786.65-1.135.936a58.74,58.74,0,0,1-11.621,7.683,19.388,19.388,0,0,1-5.223,1.811,15.936,15.936,0,0,1-8.438-.807,46.637,46.637,0,0,1-10.788-6.208c-1.215-.885-2.364-1.858-3.546-2.787-.217-.17-.451-.32-.677-.478l-.177.095c.05.37.115.739.147,1.111a43.275,43.275,0,0,1-1.295,15.464,53.994,53.994,0,0,1-2.847,7.892,25.618,25.618,0,0,1-9,10.574c-3.28,2.261-6.729,4.278-10.107,6.4-.513.322-1.045.614-1.569.92-.183.081-.373.15-.549.246-.812.442-1.2.37-1.577-.309-.275-.488-.053-.967.66-1.378.945-.544,1.908-1.057,2.843-1.618,1.92-1.15,3.845-2.294,5.733-3.5,1.4-.892,2.792-1.807,4.1-2.83,1.214-.953,2.317-2.049,3.446-3.1a21.193,21.193,0,0,0,4.535-6.771,43.284,43.284,0,0,0,3.056-9.579c.244-1.175.487-2.352.659-3.539a22.123,22.123,0,0,0,.215-2.745c.031-1.474.045-2.95-.016-4.422-.064-1.518-.215-3.033-.36-4.546a1.034,1.034,0,0,0-.35-.645,32.081,32.081,0,0,1-4.228-4.422,63.452,63.452,0,0,1-7.587-11.384c-.9-1.64-1.8-3.288-2.642-4.959a1.517,1.517,0,0,0-.994-.844,19.405,19.405,0,0,1-10.96-8.956,26.878,26.878,0,0,1-2.989-7.412,22.636,22.636,0,0,1-.628-5.887,14.39,14.39,0,0,1,.85-5.026,5.306,5.306,0,0,1-2.9-4.342,7.869,7.869,0,0,1,.991-4.723,1.042,1.042,0,0,0-.022-.964,16.151,16.151,0,0,1-1.34-6.006,17.452,17.452,0,0,1,1.748-8.252c.455-.926,1.052-1.795,1.409-2.754a22.741,22.741,0,0,0,.778-3.139c.026-.118-.163-.285-.257-.426a4.633,4.633,0,0,1-.691-3.388,9.6,9.6,0,0,1,2.686-5.2c.652-.683,1.334-1.337,1.982-2.024a1.747,1.747,0,0,0,.326-.6c.659-1.809,1.185-3.678,1.99-5.418a26.814,26.814,0,0,1,3.88-6.411c.977-1.129,1.856-2.355,2.924-3.388a17.8,17.8,0,0,1,4.939-3.842.82.82,0,0,0,.361-.411,12.84,12.84,0,0,1,2.922-4.141,20.105,20.105,0,0,1,8.545-5.149,4.881,4.881,0,0,0,1.452-.692,32.636,32.636,0,0,1,12.3-5.03,36.761,36.761,0,0,1,5.05-.671,23.777,23.777,0,0,1,3.185.206,2.957,2.957,0,0,0,.936-.028,19.754,19.754,0,0,1,11.169.191,36.162,36.162,0,0,1,3.709,1.417,3.793,3.793,0,0,0,1.827.4,6.527,6.527,0,0,1,4.243,1.222,7.057,7.057,0,0,1,1.752,2.116,1.021,1.021,0,0,0,.622.47,10.067,10.067,0,0,1,5.256,2.031,15.217,15.217,0,0,1,5.176,6.152,6.841,6.841,0,0,0,1.764,2.092,28.564,28.564,0,0,1,5.469,6.551,51.1,51.1,0,0,1,4.3,9.432,3.761,3.761,0,0,0,.909,1.325,13.642,13.642,0,0,1,4.023,6.744,15.79,15.79,0,0,1,.167,6.7,1.044,1.044,0,0,0,.243.937,18.784,18.784,0,0,1,3.2,5.9,13.918,13.918,0,0,1,.483,6.812c-.23,1.157-.5,2.305-.731,3.461a1.2,1.2,0,0,0,.026.726,5.083,5.083,0,0,1,.011,4.357,1.417,1.417,0,0,0,.06,1.222,8.038,8.038,0,0,1-.42,8.08c-.03.049-.043.12-.085.149-1.119.754-1.023,1.832-1,3.024a25.419,25.419,0,0,1-5.317,16.113,17.854,17.854,0,0,1-7.91,5.854,5.139,5.139,0,0,0-2.961,2.7,91.152,91.152,0,0,1-7.741,12.795,48.26,48.26,0,0,1-5.8,6.419,2.412,2.412,0,0,0-.809,1.9c-.015,2.743-.16,5.487-.147,8.23a36.335,36.335,0,0,0,1.445,8.845,38.445,38.445,0,0,0,4.087,9.975,21.5,21.5,0,0,0,4.608,5.358c4.052,3.486,8.68,6.085,13.29,8.716.351.2.7.395,1.049.606.67.41.883,1.007.551,1.514-.3.451-.884.5-1.535.131A4,4,0,0,1,342.4,1667.1Zm-7.195-119.626c-1.909-2.92-3.806-5.849-5.741-8.752a10.142,10.142,0,0,0-1.219-1.292c-.388-.422-.789-.832-1.159-1.269-.429-.507-.78-1.089-1.253-1.548-1.615-1.568-3.275-3.09-4.9-4.643a21.612,21.612,0,0,0-4.8-3.677,10.522,10.522,0,0,1-1.211-.86c1.078.373,2.184.68,3.223,1.139.813.359,1.516.961,2.314,1.362q3.332,1.671,6.7,3.259a60.936,60.936,0,0,0,8.719,3.4c.3.088.61.148.915.221-.037-.239-.115-.319-.208-.375-3.406-2.077-6.82-4.143-10.22-6.229a25.07,25.07,0,0,0-8.2-3.412c-1.149-.23-2.365.172-3.471-.411-.107-.057-.283.01-.426.03-.372.053-.742.112-1.113.169-.324-.157-.842.228-1.011-.362,1.676-.54,3.356-1.071,5.028-1.622a33.959,33.959,0,0,0,8.958-4.093,17.087,17.087,0,0,0,3.846-3.34,3.467,3.467,0,0,0,.756-2.335,4.582,4.582,0,0,0-.941-2.633,16.722,16.722,0,0,0-6.7-5.871,3.58,3.58,0,0,0-1.9-.449c.051.426.108.794.137,1.164a14.881,14.881,0,0,1-1.344,7.252,27.764,27.764,0,0,1-4.353,6.55,26.613,26.613,0,0,1-2.584,2.553,2.072,2.072,0,0,1-1.936.647c.4-.369.739-.638,1.031-.945a41.406,41.406,0,0,0,5.406-7.3,17.063,17.063,0,0,0,2.166-5.545,8.414,8.414,0,0,0,.05-3.947,1.286,1.286,0,0,0-.556-.676c-.693-.411-1.429-.747-2.138-1.133-1.368-.743-2.729-1.5-4.093-2.25l-.912-.5c-.429-.224-.845-.479-1.291-.666a25.858,25.858,0,0,0-6.1-1.581,1.231,1.231,0,0,0-1.235.435c-.9,1.087-1.913,2.1-2.7,3.263a19.715,19.715,0,0,0-3.228,9.044,17.133,17.133,0,0,0,.914,8.343,2.3,2.3,0,0,0,.672.972c.893.676,1.844,1.275,2.766,1.914a5.563,5.563,0,0,1,.5.446c-.65.34-1.237-.043-1.847-.16a1.708,1.708,0,0,0-.252-.231,17.1,17.1,0,0,1-7.782-17.346,2.587,2.587,0,0,0,0-.507c-.1.033-.176.035-.2.071a5.441,5.441,0,0,0-.318.611,18.163,18.163,0,0,0-1.255,5.813,14.257,14.257,0,0,0,3.083,10.424,2.533,2.533,0,0,1,.278.674l-.214.159a4.64,4.64,0,0,1-1-.749,11.753,11.753,0,0,1-1.6-2.353c-1.026-2.324-2.033-4.667-2.854-7.069a14.8,14.8,0,0,1,.223-10.19,27.774,27.774,0,0,1,1.426-2.83,35.849,35.849,0,0,0-7.139,1.967,22.1,22.1,0,0,0-6.3,3.427,5.734,5.734,0,0,0-2.169,3.828,8.932,8.932,0,0,0,.812,4.725,13.478,13.478,0,0,0,7.509,6.958,44.272,44.272,0,0,0,8.015,2.511,3.277,3.277,0,0,1,.83.459l-.319.044a21.734,21.734,0,0,1-10.955-2.834,13.046,13.046,0,0,1-6.829-9.144,21.414,21.414,0,0,1-.187-2.7c-.538.424-.423,1.26-1.23,1.584-.279-1.707.751-2.9,1.368-4.224a22.487,22.487,0,0,0-7.721,5.836,6.03,6.03,0,0,0-1.582,5.241,9.626,9.626,0,0,0,3.569,6.141,2.2,2.2,0,0,0,.524.223c.009-.237-.045-.342-.128-.409-2.973-2.411-3.741-8.287-1.271-11.867a5.737,5.737,0,0,1,.665-.7l.187.111a6.49,6.49,0,0,1-.249,1.06,10.964,10.964,0,0,0-.922,3.771,8.326,8.326,0,0,0,1.827,6.071,36.733,36.733,0,0,0,3,2.876,6.355,6.355,0,0,0,4.933,1.72,2.255,2.255,0,0,1,.465.067c-.064.1-.073.139-.093.147a2.3,2.3,0,0,1-.321.11,9.934,9.934,0,0,1-5.137-.279,3,3,0,0,0-1.778-.019,61.74,61.74,0,0,0-12.155,4.816,20.641,20.641,0,0,0-9.62,10.219c-.492,1.161-.85,2.38-1.27,3.573l.189.085c.164-.155.334-.3.489-.466a43.525,43.525,0,0,1,8.487-6.839c5.149-3.223,10.729-5.682,15.839-8.977a11.215,11.215,0,0,1,4.323-1.488c.759-.125.934.016.956.744l-.472.231a35.335,35.335,0,0,0-3.845,1.289,26.68,26.68,0,0,0-7.061,5.127c-1.634,1.555-3.221,3.161-4.875,4.694-2.227,2.064-4.5,4.079-6.751,6.117-.2.178-.386.364-.579.547l.184.2c6.713-3.647,12.109-8.885,17.327-14.649a5.307,5.307,0,0,1-.864,2.537c-.593.672-1.191,1.34-1.776,2.02a3.3,3.3,0,0,0-.5.7c-.958,2.005-1.868,4.034-2.853,6.026a100.664,100.664,0,0,1-6.651,11.97,4.736,4.736,0,0,0-.534,1.264,71.293,71.293,0,0,0-1.746,8.746c-.414,2.364-.7,4.825-2.048,6.847a5.516,5.516,0,0,0-.57,4.628,145.958,145.958,0,0,0,4.675,17.562,83.389,83.389,0,0,0,10.481,20.553c4.57,6.625,10.583,11.747,17.32,16.062a33.463,33.463,0,0,0,6.726,3.379,13.556,13.556,0,0,0,6.66.645,18.174,18.174,0,0,0,5.775-2.038,61.184,61.184,0,0,0,17.484-13.784,69.939,69.939,0,0,0,10.96-17.613c4.01-8.772,6.321-18.077,8.073-27.528a1.251,1.251,0,0,0-.2-.782,27.842,27.842,0,0,1-3.2-7.372c-.9-3.467-1.778-6.94-2.581-10.43a39.619,39.619,0,0,0-5.41-12.5l.28-.654c.651.9,1.222,1.646,1.743,2.425,1.075,1.606,2.123,3.23,3.181,4.847.992,1.728,1.951,3.476,2.984,5.179a31.779,31.779,0,0,0,6.087,7.953,21.735,21.735,0,0,0,6.043,3.906c.623-2.25-.087-3.49-1.618-4.248-.439-.218-.906-.378-1.352-.584a15.784,15.784,0,0,1-1.707-.839,21.681,21.681,0,0,1-6.115-5.577C337.924,1551.5,336.589,1549.475,335.209,1547.479Zm-6.6-10.977-.07.138c.148.167.288.342.446.5a15.729,15.729,0,0,1,1.643,1.643c1.291,1.739,2.527,3.519,3.751,5.306,1.517,2.217,2.979,4.473,4.5,6.686a25.537,25.537,0,0,0,9.047,8.173c.342.183.711.312,1.247.545-.1-1.677-.162-3.17-.284-4.657a22.162,22.162,0,0,0-.386-3,19.885,19.885,0,0,0-9.4-13.144,2.605,2.605,0,0,0-1.629-.432,16.621,16.621,0,0,1-8.089-1.531A5.714,5.714,0,0,0,328.609,1536.5Zm-63.682,1.765-.158-.135a2.62,2.62,0,0,0-.4.243c-1.043.914-2.077,1.838-3.119,2.753a33.044,33.044,0,0,1-9.573,6,11.455,11.455,0,0,1-5.233.974,1.234,1.234,0,0,0-1.446.8,17.4,17.4,0,0,0-1.931,10.974c.146.926.32,1.849.5,2.9.957-.933,1.833-1.723,2.638-2.581,3.478-3.709,6.986-7.391,10.381-11.176,2.254-2.513,4.365-5.157,6.475-7.795A29.651,29.651,0,0,0,264.927,1538.267Zm53.5-14.718.027.218c.208.06.413.131.624.178a22.9,22.9,0,0,1,6.977,2.781c4.586,2.8,9.141,5.65,13.756,8.4a17.1,17.1,0,0,1,7.276,7.78c.036.081.135.134.26.254a18.03,18.03,0,0,0-.459-4.56,12.7,12.7,0,0,0-4.335-7.786,30.993,30.993,0,0,0-5.889-4.108c-4.768-2.473-9.745-4.119-15.19-3.849A17.6,17.6,0,0,0,318.43,1523.549Zm-66.675,54.827.125-.014c-.377-1.773-.767-3.543-1.122-5.32a.829.829,0,0,0-.672-.681,2.956,2.956,0,0,0-3.81,1.666,9.972,9.972,0,0,0-.815,4.048,24.193,24.193,0,0,0,2.99,12.141,17.926,17.926,0,0,0,8.353,8.025c.351.166.708.319,1.062.478a43.841,43.841,0,0,0-1.557-4.541.845.845,0,0,0-.445-.371,13.131,13.131,0,0,1-4.277-3.2,12.357,12.357,0,0,1-3.279-7.029,1.132,1.132,0,0,1,.348-1.266,5.725,5.725,0,0,1,.421.757c.15.406.25.829.375,1.244a13.939,13.939,0,0,0,2.419,4.856,14.377,14.377,0,0,0,3.712,3.123,1.325,1.325,0,0,0-.228-.564c-.655-.951-1.269-1.936-1.988-2.838a3.184,3.184,0,0,1-.372-3.639,1.475,1.475,0,0,0,.24-.809,12.012,12.012,0,0,0-.868-3.062,39.614,39.614,0,0,0-2.656-3.823l-1.069,1.377c-.2.261-.43.534-.789.319-.411-.247-.264-.611-.052-.9.371-.509.783-.988,1.231-1.546a7.915,7.915,0,0,1-.678-.524,2.929,2.929,0,0,1-.357-.5c.183-.122.4-.376.54-.34a2.423,2.423,0,0,1,1.128.513C250.406,1576.719,251.064,1577.564,251.755,1578.376Zm84.007,20.223.142.129c.543-.262,1.107-.491,1.626-.793.9-.523,1.8-1.046,2.645-1.651a17.969,17.969,0,0,0,5.663-7.123,22.925,22.925,0,0,0,2.4-11.583,17.338,17.338,0,0,0-.7-3.373,2.663,2.663,0,0,0-1.33-1.65,3.023,3.023,0,0,0-2.68-.114c-.633.268-.592.984-.716,1.56-.019.085-.051.166-.069.251q-.417,1.956-.832,3.913l.148.092c.185-.2.377-.395.555-.6.509-.592.974-1.228,1.534-1.766a2.2,2.2,0,0,1,1.068-.445c.152-.03.359.219.541.341a3.393,3.393,0,0,1-.365.5c-.213.2-.461.373-.66.531.449.558.841,1.017,1.2,1.5.212.287.383.651,0,.914s-.627-.058-.844-.342c-.309-.4-.623-.8-1.012-1.3-1.372,1.913-2.972,3.485-3.335,5.827a3.326,3.326,0,0,0,.121,2.162,2.755,2.755,0,0,1-.325,3.083c-.852,1.152-1.623,2.364-2.483,3.628a2.786,2.786,0,0,0,.587-.223,12.648,12.648,0,0,0,4.794-5.467c.444-1.095.787-2.231,1.185-3.345.119-.332.13-.757.605-.84a2.2,2.2,0,0,1,.142,1.76,13.321,13.321,0,0,1-7.393,9.6,1.177,1.177,0,0,0-.553.485C336.842,1595.7,336.309,1597.151,335.762,1598.6Zm-84.5-68.21a43.4,43.4,0,0,1,7.852-4.283,54.021,54.021,0,0,1,8.552-2.543,10.251,10.251,0,0,1-4.483-9.509A34.425,34.425,0,0,0,251.258,1530.389Zm96.462,41.841c.638-.083.666-.079.73-.578.215-1.657.441-3.315.587-4.979a1.714,1.714,0,0,0-.39-1.172,5.246,5.246,0,0,0-1.441-1.073,17.562,17.562,0,0,1-6.225-4.871c-1.322-1.782-2.52-3.656-3.769-5.492-.183-.268-.349-.548-.523-.823a1.644,1.644,0,0,0,.037.9q.471,1.757.95,3.51c1.026,3.781,1.721,7.67,3.645,11.159.47.851.9,1.723,1.271,2.435a11.183,11.183,0,0,1,2.885-.592A2.3,2.3,0,0,1,347.72,1572.23ZM324.6,1521.607a25.976,25.976,0,0,1,8.452,1.912,34.778,34.778,0,0,1,7.831,4.077c.064-2.436-5.206-11.535-7.414-12.945a10.588,10.588,0,0,1-1.109,2.376,11.412,11.412,0,0,1-2.439,2.17A20.6,20.6,0,0,1,324.6,1521.607ZM246,1571.573a13.429,13.429,0,0,0,6.583-5.839,17.918,17.918,0,0,0,2.522-8.4,2.792,2.792,0,0,0-.63.58,20.471,20.471,0,0,1-6.326,5.04,4.5,4.5,0,0,1-3.263.583C245.258,1566.247,245.623,1568.876,246,1571.573Zm55.974-74.118a18.934,18.934,0,0,0-6.1,1.281,1.319,1.319,0,0,0-.567.611,17.3,17.3,0,0,0-1.891,6.1,16.353,16.353,0,0,0,2.628,10.659,5.452,5.452,0,0,0,.5.583C295.27,1509.4,296.872,1503.034,301.971,1497.455ZM246.249,1546.9a15.188,15.188,0,0,0,4.01-.964,1.417,1.417,0,0,0,.356-.237c.887-.822,1.777-1.642,2.652-2.477q4.52-4.312,9.03-8.638c.227-.217.433-.457.648-.686a.468.468,0,0,0-.422.015c-4.406,2.551-8.855,5.038-12.617,8.542A19.17,19.17,0,0,0,246.249,1546.9Zm13.645.8-.342-.344a2.689,2.689,0,0,1-.322.6q-4.044,4.356-8.1,8.7-2.5,2.7-4.985,5.419c-.265.289-.512.594-.767.892C252.175,1559.7,256.229,1553.88,259.894,1547.7Zm29.525-37.37a2.69,2.69,0,0,0,.148-.372c.165-1.051.311-2.1.489-3.154a12.922,12.922,0,0,1,4.6-8.093,4.121,4.121,0,0,0,.578-.945c-1.142.075-2.06.11-2.97.211a1.094,1.094,0,0,0-.715.4,15.749,15.749,0,0,0-1.582,2.566,14.951,14.951,0,0,0-.892,7.733C289.136,1509.174,289.281,1509.67,289.419,1510.326Zm34.13,20.335c4.156,4.909,10.5,7.189,16.059,5.911C333.846,1535.584,328.706,1533.1,323.549,1530.661Zm-74.685,3.78c-2.321,1.721-4.1,5.514-3.082,7.119a26.642,26.642,0,0,1,2.712-5.605A5.605,5.605,0,0,0,248.864,1534.441Zm100.453,14.149a21.865,21.865,0,0,1,.975,5.424,12.518,12.518,0,0,1-.655,5.594l.763.361C351.119,1555.979,351.272,1552.175,349.317,1548.59Zm-99.638,22.126,1.9.506a10.417,10.417,0,0,0,1.8-4.271Zm-5.7-5.13c-1.366,1.872-.753,5.731,1.093,6.472-.279-1.077-.624-2.109-.8-3.168C244.09,1567.8,244.071,1566.679,243.981,1565.586Zm84.243-46.742c2.813-.85,5.02-4.265,3.72-5.872C331.972,1515.8,329.929,1517.2,328.224,1518.844Zm22.263,49.918c-.356,1.471-.689,2.957-1.087,4.426a1.646,1.646,0,0,0,.2,1.482C350.521,1572.709,351.256,1570.815,350.487,1568.762Zm-9.923-30.711,3.233,2.351.14-.169c-.646-.638-1.3-1.268-1.936-1.918A1.21,1.21,0,0,0,340.564,1538.051Zm-88.95-5.938a1.867,1.867,0,0,0-1.484,1.425A2.75,2.75,0,0,0,251.614,1532.113Z" fill="#a1725a"/>
          <path id="パス_87" data-name="パス 87" d="M300.523,1521.757c.61.117,1.2.5,1.847.16l2.824.378.678-.011c1.9.534,3.8,1.064,5.69,1.61a2.91,2.91,0,0,1,.59.332c.169.59.687.205,1.011.362l1.764.85a10.522,10.522,0,0,0,1.211.86,21.612,21.612,0,0,1,4.8,3.677c1.629,1.553,3.289,3.075,4.9,4.643.473.459.824,1.041,1.253,1.548.37.437.771.847,1.159,1.269a9.5,9.5,0,0,0,.4.938,6.641,6.641,0,0,1,1.185,2.679,39.619,39.619,0,0,1,5.41,12.5c.8,3.49,1.685,6.963,2.581,10.43a27.842,27.842,0,0,0,3.2,7.372,1.251,1.251,0,0,1,.2.782c-1.752,9.451-4.063,18.756-8.073,27.528a69.939,69.939,0,0,1-10.96,17.613,61.184,61.184,0,0,1-17.484,13.784,18.174,18.174,0,0,1-5.775,2.038,13.556,13.556,0,0,1-6.66-.645,33.463,33.463,0,0,1-6.726-3.379c-6.737-4.315-12.75-9.437-17.32-16.062a83.389,83.389,0,0,1-10.481-20.553,145.958,145.958,0,0,1-4.675-17.562,5.516,5.516,0,0,1,.57-4.628c1.344-2.022,1.634-4.483,2.048-6.847a71.293,71.293,0,0,1,1.746-8.746,4.736,4.736,0,0,1,.534-1.264,100.664,100.664,0,0,0,6.651-11.97c.985-1.992,1.895-4.021,2.853-6.026a3.3,3.3,0,0,1,.5-.7c.585-.68,1.183-1.348,1.776-2.02.4-.409.817-.806,1.2-1.227a34.935,34.935,0,0,1,5.259-4.632l.472-.231a20.521,20.521,0,0,1,5.958-2.6l1.676.225.086-.217-.365-.369c1.666-.4,3.327-.813,5-1.176.746-.162,1.516-.216,2.275-.319l.319-.044c1.233-.11,2.463-.274,3.7-.316C297.056,1521.733,298.79,1521.764,300.523,1521.757ZM298.8,1615.7a.951.951,0,0,0,.142-.014c.3-.071.6-.137.892-.212a12.745,12.745,0,0,0,4.623-2.016,8.789,8.789,0,0,0,2.666-2.623l.663-1.058a.9.9,0,0,0,.124-1.311c-.381-.438-.815-.285-1.249-.04a2.618,2.618,0,0,1-.568.168c-.8.051-1.612.074-2.413.16-1.776.188-3.549.406-5.322.616a7.786,7.786,0,0,1-1.709.2c-1.8-.2-3.592-.529-5.394-.741-1.2-.141-2.414-.168-3.622-.246a3.2,3.2,0,0,0-.864-.311,1.477,1.477,0,0,0-.918.215.7.7,0,0,0-.08,1,3.385,3.385,0,0,0,.49.465q.172.437.344.874a24.009,24.009,0,0,0,2.212,2.251,10.6,10.6,0,0,0,5.956,2.442l.215.128a3.954,3.954,0,0,0,2.745.458A5.326,5.326,0,0,0,298.8,1615.7Zm14.183-37.9a13.183,13.183,0,0,1,1.414-.311.975.975,0,0,1,1.1.648.987.987,0,0,1-.356,1.153,10.845,10.845,0,0,1-1.124.768l-1.041.427c1.461,2.08,5.251,2.532,7.363,1.169a5.465,5.465,0,0,0,2.342-3.719,6.037,6.037,0,0,0-1.541-5.586,22.234,22.234,0,0,1,2.925.807,4.215,4.215,0,0,1,2.851,3.792,11.128,11.128,0,0,1-.131,2.23c-.053.616.233.919.809.72a2.973,2.973,0,0,0,1.09-.671,3.915,3.915,0,0,0,1.351-3.085c.354-.067.665-.108.966-.187a17.436,17.436,0,0,0,1.907-.549.941.941,0,0,0,.7-1.182,23.153,23.153,0,0,0-2.845-.09,2.427,2.427,0,0,1-2.522-1.256c.8-.334,1.61-.636,2.383-1.016.244-.12.386-.447.575-.679a2.4,2.4,0,0,0-.82-.27c-.776.048-1.548.179-2.321.277a4.711,4.711,0,0,1-3.11-.385,10.641,10.641,0,0,0-2.42-.929,16.1,16.1,0,0,0-9.062.38,11.221,11.221,0,0,0-5.7,3.767,3.33,3.33,0,0,0-.6,1.135c-.113.389.2.6.571.427.129-.059.233-.172.358-.244q2.286-1.32,4.58-2.629a4.851,4.851,0,0,1,.737-.251,6.148,6.148,0,0,0-1.608,5.884Zm-38.894,2.263-1.154.48c1.276,2.148,5.486,2.635,8.018.527a5.171,5.171,0,0,0,1.8-3.719,5.964,5.964,0,0,0-1.882-4.941,4.878,4.878,0,0,1,.7.243c1.6.914,3.2,1.842,4.807,2.749a2.9,2.9,0,0,0,.691.191c.015-.267.131-.586.025-.79a5.606,5.606,0,0,0-.892-1.267,12.326,12.326,0,0,0-6.318-3.565c-3.431-.79-6.842-.946-10.078.666a6.92,6.92,0,0,1-4.283.514c-.8-.115-1.606-.192-2.411-.249-.17-.012-.35.136-.526.21a1.854,1.854,0,0,0,.276.57,1.986,1.986,0,0,0,.665.4c.741.29,1.493.553,2.2.811-.573,1.127-1.6,1.276-2.761,1.236-.946-.033-1.9.064-2.966.109a2.515,2.515,0,0,0,.323.77c.922.925,2.227.816,3.407,1.175a4.435,4.435,0,0,0,0,.612,3.977,3.977,0,0,0,2.238,3.188.915.915,0,0,0,.784.03c.164-.135.185-.514.17-.781a7.915,7.915,0,0,0-.208-1.015,3.659,3.659,0,0,1,1.337-3.786,10.717,10.717,0,0,1,4.4-1.948,3.134,3.134,0,0,1,.711.034,5.943,5.943,0,0,0-1.342,5.861l1.224-.577a14.458,14.458,0,0,1,1.5-.306.832.832,0,0,1,.985.646,1.512,1.512,0,0,1-.281,1.076A5.626,5.626,0,0,1,274.086,1580.07Zm.84-20.065c-2.13.167-4.266.277-6.387.516a16.155,16.155,0,0,0-6.129,2.035,4.253,4.253,0,0,0-1.032.774c-.4.428-.239.814.343.906a2.038,2.038,0,0,0,.686-.038c.849-.164,1.7-.314,2.541-.527a33.3,33.3,0,0,1,12.991-.477c2.372.334,4.757.585,7.141.826a10.368,10.368,0,0,0,2.074-.059,1.5,1.5,0,0,0,1.238-1.272c.038-.541-.253-.859-1.019-1.094-.276-.084-.559-.144-.838-.218A53.036,53.036,0,0,0,274.926,1560.005Zm43.932.053c-1.817.095-3.637.158-5.451.292a34.064,34.064,0,0,0-7.066,1.251c-.514.15-1,.357-1.008,1.019a1.583,1.583,0,0,0,1.1,1.318,1.866,1.866,0,0,0,.515.064c1.212-.026,2.432.015,3.634-.109,2.985-.308,5.961-.714,8.944-1.041a25.062,25.062,0,0,1,7.075.366c1.533.268,3.049.635,4.574.953.48.1,1.1.291,1.32-.253.24-.6-.379-.934-.823-1.142a22.891,22.891,0,0,0-12.81-2.718ZM265.4,1570.314l.17.3c.9-.286,1.809-.549,2.7-.864a22.6,22.6,0,0,1,6.143-1.43,23.043,23.043,0,0,1,11.816,2.084,4.673,4.673,0,0,0,.84.237.783.783,0,0,0-.448-1.027,14.4,14.4,0,0,0-1.763-.92,21.815,21.815,0,0,0-7.088-1.51,19.367,19.367,0,0,0-10.979,2.184A16.732,16.732,0,0,0,265.4,1570.314Zm63.235.284c-.026-.234.008-.416-.063-.478a4.273,4.273,0,0,0-1.018-.767,31.477,31.477,0,0,0-3.937-1.552,23.167,23.167,0,0,0-11.578.065,11.863,11.863,0,0,0-4.3,1.767c-.24.171-.541.644-.462.8.22.438.6.09.883-.04a22.691,22.691,0,0,1,16.964-.961C326.258,1569.807,327.394,1570.187,328.632,1570.6Zm-33.157,28.108c-.134-.419-.275-.805-.379-1.2-.271-1.029-.51-2.067-.8-3.09-.062-.22-.275-.54-.441-.553a.887.887,0,0,0-.7.339,5.285,5.285,0,0,0-.717,1.555,1.354,1.354,0,0,0,.244,1.114,30.484,30.484,0,0,0,2.435,1.9C295.157,1598.8,295.269,1598.746,295.475,1598.706Zm4.962-1.855c-.822.389-1.68.767-2.5,1.211-.137.074-.2.457-.144.655.031.11.413.236.572.177.834-.305,1.658-.642,2.457-1.028a.771.771,0,0,0,.285-.631C301.1,1597.121,300.756,1597.025,300.437,1596.851Zm26.5-14.583c0-.782-.96-1.7-1.575-1.627a.65.65,0,0,0-.467.289.569.569,0,0,0,.124.525,10.526,10.526,0,0,0,1.413.966C326.553,1582.486,326.8,1582.314,326.942,1582.268Zm-59.9.351c.6-.412,1.206-.766,1.736-1.207a.42.42,0,0,0-.278-.742,2.44,2.44,0,0,0-1.186.544A.983.983,0,0,0,267.04,1582.619Zm57.3.736a1.31,1.31,0,0,0-.492-1.358.575.575,0,0,0-.54-.063.593.593,0,0,0-.18.5A1.388,1.388,0,0,0,324.344,1583.355Zm-53.568-.96c-.174-.24-.243-.43-.368-.48s-.4-.028-.461.063a6.411,6.411,0,0,0-.575,1.11c-.017.041.333.306.36.284C270.088,1583.072,270.418,1582.741,270.776,1582.4Z" fill="#fefefe"/>
          <path id="パス_88" data-name="パス 88" d="M305.194,1522.3l-2.824-.378a5.563,5.563,0,0,0-.5-.446c-.922-.639-1.873-1.238-2.766-1.914a2.3,2.3,0,0,1-.672-.972,17.133,17.133,0,0,1-.914-8.343,19.715,19.715,0,0,1,3.228-9.044c.79-1.163,1.8-2.176,2.7-3.263a1.231,1.231,0,0,1,1.235-.435,25.858,25.858,0,0,1,6.1,1.581c.446.187.862.442,1.291.666a2.668,2.668,0,0,0,.142.642c.4.8.857,1.57,1.24,2.377a11.5,11.5,0,0,1,1.272,4.2A13.762,13.762,0,0,1,310.8,1517.7a18.437,18.437,0,0,1-4.335,3.278C305.926,1521.285,305.344,1521.59,305.194,1522.3Z" fill="#e2bdb0"/>
          <path id="パス_89" data-name="パス 89" d="M300.523,1521.757c-1.733.007-3.467-.024-5.2.036-1.235.042-2.465.206-3.7.316a3.277,3.277,0,0,0-.83-.459,44.272,44.272,0,0,1-8.015-2.511,13.478,13.478,0,0,1-7.509-6.958,8.932,8.932,0,0,1-.812-4.725,5.734,5.734,0,0,1,2.169-3.828,22.1,22.1,0,0,1,6.3-3.427,35.849,35.849,0,0,1,7.139-1.967,27.774,27.774,0,0,0-1.426,2.83,14.8,14.8,0,0,0-.223,10.19c.821,2.4,1.828,4.745,2.854,7.069a11.753,11.753,0,0,0,1.6,2.353,4.64,4.64,0,0,0,1,.749l.214-.159a2.533,2.533,0,0,0-.278-.674,14.257,14.257,0,0,1-3.083-10.424,18.163,18.163,0,0,1,1.255-5.813,5.441,5.441,0,0,1,.318-.611c.021-.036.1-.038.2-.071a2.587,2.587,0,0,1,0,.507,17.1,17.1,0,0,0,7.782,17.346A1.708,1.708,0,0,1,300.523,1521.757Z" fill="#e2bdb0"/>
          <path id="パス_90" data-name="パス 90" d="M291.307,1522.153c-.759.1-1.529.157-2.275.319-1.672.363-3.333.78-5,1.176-1.606-.721-3.219-1.427-4.817-2.166a10.512,10.512,0,0,1-4.281-3.7,11.957,11.957,0,0,1-2.445-6.472,6.505,6.505,0,0,0-.254-1.122c-.2.28-.331.385-.338.5a12.125,12.125,0,0,0-.092,2.568,13.019,13.019,0,0,0,2,4.855,10.9,10.9,0,0,0,5.49,4.706c1.107.409,2.224.794,3.336,1.19a20.521,20.521,0,0,0-5.958,2.6c-.022-.728-.2-.869-.956-.744a11.215,11.215,0,0,0-4.323,1.488c-5.11,3.3-10.69,5.754-15.839,8.977a43.525,43.525,0,0,0-8.487,6.839c-.155.162-.325.311-.489.466l-.189-.085c.42-1.193.778-2.412,1.27-3.573a20.641,20.641,0,0,1,9.62-10.219,61.74,61.74,0,0,1,12.155-4.816,3,3,0,0,1,1.778.019,9.934,9.934,0,0,0,5.137.279,2.3,2.3,0,0,0,.321-.11c.02-.008.029-.043.093-.147a2.255,2.255,0,0,0-.465-.067,6.355,6.355,0,0,1-4.933-1.72,36.733,36.733,0,0,1-3-2.876,8.326,8.326,0,0,1-1.827-6.071,10.964,10.964,0,0,1,.922-3.771,6.49,6.49,0,0,0,.249-1.06l-.187-.111a5.737,5.737,0,0,0-.665.7c-2.47,3.58-1.7,9.456,1.271,11.867.083.067.137.172.128.409a2.2,2.2,0,0,1-.524-.223,9.626,9.626,0,0,1-3.569-6.141,6.03,6.03,0,0,1,1.582-5.241,22.487,22.487,0,0,1,7.721-5.836c-.617,1.322-1.647,2.517-1.368,4.224.807-.324.692-1.16,1.23-1.584a21.414,21.414,0,0,0,.187,2.7,13.046,13.046,0,0,0,6.829,9.144A21.734,21.734,0,0,0,291.307,1522.153Z" fill="#e2bdb0"/>
          <path id="パス_91" data-name="パス 91" d="M312.152,1524.226a2.91,2.91,0,0,0-.59-.332c-1.894-.546-3.793-1.076-5.69-1.61.369-.164.734-.335,1.106-.492a13.966,13.966,0,0,0,5.947-4.629c1.126-1.535,2.157-3.144,3.168-4.759a11.049,11.049,0,0,0,1.675-4.7,6.83,6.83,0,0,0-.942-4.485,1.091,1.091,0,0,0-1.055-.671c.065.33.111.621.181.906.212.867.483,1.722.637,2.6a4.112,4.112,0,0,1-.5,2.793,4.128,4.128,0,0,1-.127-1.417,7.751,7.751,0,0,0-1.345-4.839c-.513-.8-1.082-1.563-1.626-2.343,1.364.751,2.725,1.507,4.093,2.25.709.386,1.445.722,2.138,1.133a1.286,1.286,0,0,1,.556.676,8.414,8.414,0,0,1-.05,3.947,17.063,17.063,0,0,1-2.166,5.545,41.406,41.406,0,0,1-5.406,7.3c-.292.307-.626.576-1.031.945a2.072,2.072,0,0,0,1.936-.647,26.613,26.613,0,0,0,2.584-2.553,27.764,27.764,0,0,0,4.353-6.55,14.881,14.881,0,0,0,1.344-7.252c-.029-.37-.086-.738-.137-1.164a3.58,3.58,0,0,1,1.9.449,16.722,16.722,0,0,1,6.7,5.871,4.582,4.582,0,0,1,.941,2.633,3.467,3.467,0,0,1-.756,2.335,17.087,17.087,0,0,1-3.846,3.34,33.959,33.959,0,0,1-8.958,4.093C315.508,1523.155,313.828,1523.686,312.152,1524.226Z" fill="#e2bdb0"/>
          <path id="パス_92" data-name="パス 92" d="M328.609,1536.5a5.714,5.714,0,0,1,.783.224,16.621,16.621,0,0,0,8.089,1.531,2.605,2.605,0,0,1,1.629.432,19.885,19.885,0,0,1,9.4,13.144,22.162,22.162,0,0,1,.386,3c.122,1.487.185,2.98.284,4.657-.536-.233-.9-.362-1.247-.545a25.537,25.537,0,0,1-9.047-8.173c-1.524-2.213-2.986-4.469-4.5-6.686-1.224-1.787-2.46-3.567-3.751-5.306a15.729,15.729,0,0,0-1.643-1.643c-.158-.157-.3-.332-.446-.5Z" fill="#e2bdb0"/>
          <path id="パス_93" data-name="パス 93" d="M264.927,1538.267a29.651,29.651,0,0,1-1.86,2.955c-2.11,2.638-4.221,5.282-6.475,7.795-3.4,3.785-6.9,7.467-10.381,11.176-.8.858-1.681,1.648-2.638,2.581-.184-1.048-.358-1.971-.5-2.9A17.4,17.4,0,0,1,245,1548.9a1.234,1.234,0,0,1,1.446-.8,11.455,11.455,0,0,0,5.233-.974,33.044,33.044,0,0,0,9.573-6c1.042-.915,2.076-1.839,3.119-2.753a2.62,2.62,0,0,1,.4-.243Z" fill="#e2bdb0"/>
          <path id="パス_94" data-name="パス 94" d="M318.43,1523.549a17.6,17.6,0,0,1,3.047-.691c5.445-.27,10.422,1.376,15.19,3.849a30.993,30.993,0,0,1,5.889,4.108,12.7,12.7,0,0,1,4.335,7.786,18.03,18.03,0,0,1,.459,4.56c-.125-.12-.224-.173-.26-.254a17.1,17.1,0,0,0-7.276-7.78c-4.615-2.751-9.17-5.6-13.756-8.4a22.9,22.9,0,0,0-6.977-2.781c-.211-.047-.416-.118-.624-.178Z" fill="#e2bdb0"/>
          <path id="パス_95" data-name="パス 95" d="M251.755,1578.376c-.691-.812-1.349-1.657-2.09-2.42a2.423,2.423,0,0,0-1.128-.513c-.142-.036-.357.218-.54.34a2.929,2.929,0,0,0,.357.5,7.915,7.915,0,0,0,.678.524c-.448.558-.86,1.037-1.231,1.546-.212.289-.359.653.052.9.359.215.587-.058.789-.319l1.069-1.377a39.614,39.614,0,0,1,2.656,3.823,12.012,12.012,0,0,1,.868,3.062,1.475,1.475,0,0,1-.24.809,3.184,3.184,0,0,0,.372,3.639c.719.9,1.333,1.887,1.988,2.838a1.325,1.325,0,0,1,.228.564,14.377,14.377,0,0,1-3.712-3.123,13.939,13.939,0,0,1-2.419-4.856c-.125-.415-.225-.838-.375-1.244a5.725,5.725,0,0,0-.421-.757,1.132,1.132,0,0,0-.348,1.266,12.357,12.357,0,0,0,3.279,7.029,13.131,13.131,0,0,0,4.277,3.2.845.845,0,0,1,.445.371,43.841,43.841,0,0,1,1.557,4.541c-.354-.159-.711-.312-1.062-.478a17.926,17.926,0,0,1-8.353-8.025,24.193,24.193,0,0,1-2.99-12.141,9.972,9.972,0,0,1,.815-4.048,2.956,2.956,0,0,1,3.81-1.666.829.829,0,0,1,.672.681c.355,1.777.745,3.547,1.122,5.32Z" fill="#fefefe"/>
          <path id="パス_96" data-name="パス 96" d="M335.762,1598.6c.547-1.448,1.08-2.9,1.654-4.339a1.177,1.177,0,0,1,.553-.485,13.321,13.321,0,0,0,7.393-9.6,2.2,2.2,0,0,0-.142-1.76c-.475.083-.486.508-.605.84-.4,1.114-.741,2.25-1.185,3.345a12.648,12.648,0,0,1-4.794,5.467,2.786,2.786,0,0,1-.587.223c.86-1.264,1.631-2.476,2.483-3.628a2.755,2.755,0,0,0,.325-3.083,3.326,3.326,0,0,1-.121-2.162c.363-2.342,1.963-3.914,3.335-5.827.389.5.7.9,1.012,1.3.217.284.449.61.844.342s.216-.627,0-.914c-.357-.485-.749-.944-1.2-1.5.2-.158.447-.326.66-.531a3.393,3.393,0,0,0,.365-.5c-.182-.122-.389-.371-.541-.341a2.2,2.2,0,0,0-1.068.445c-.56.538-1.025,1.174-1.534,1.766-.178.207-.37.4-.555.6l-.148-.092q.416-1.958.832-3.913c.018-.085.05-.166.069-.251.124-.576.083-1.292.716-1.56a3.023,3.023,0,0,1,2.68.114,2.663,2.663,0,0,1,1.33,1.65,17.338,17.338,0,0,1,.7,3.373,22.925,22.925,0,0,1-2.4,11.583,17.969,17.969,0,0,1-5.663,7.123c-.842.6-1.747,1.128-2.645,1.651-.519.3-1.083.531-1.626.793Z" fill="#fefefe"/>
          <path id="パス_97" data-name="パス 97" d="M251.258,1530.389a34.425,34.425,0,0,1,11.921-16.335,10.251,10.251,0,0,0,4.483,9.509,54.021,54.021,0,0,0-8.552,2.543A43.4,43.4,0,0,0,251.258,1530.389Z" fill="#e2bdb0"/>
          <path id="パス_98" data-name="パス 98" d="M347.72,1572.23a2.3,2.3,0,0,0-2.243-1.581,11.183,11.183,0,0,0-2.885.592c-.37-.712-.8-1.584-1.271-2.435-1.924-3.489-2.619-7.378-3.645-11.159q-.475-1.755-.95-3.51a1.644,1.644,0,0,1-.037-.9c.174.275.34.555.523.823,1.249,1.836,2.447,3.71,3.769,5.492a17.562,17.562,0,0,0,6.225,4.871,5.246,5.246,0,0,1,1.441,1.073,1.714,1.714,0,0,1,.39,1.172c-.146,1.664-.372,3.322-.587,4.979C348.386,1572.151,348.358,1572.147,347.72,1572.23Z" fill="#e2bdb0"/>
          <path id="パス_99" data-name="パス 99" d="M324.6,1521.607a20.6,20.6,0,0,0,5.321-2.41,11.412,11.412,0,0,0,2.439-2.17,10.588,10.588,0,0,0,1.109-2.376c2.208,1.41,7.478,10.509,7.414,12.945a34.778,34.778,0,0,0-7.831-4.077A25.976,25.976,0,0,0,324.6,1521.607Z" fill="#e2bdb0"/>
          <path id="パス_100" data-name="パス 100" d="M246,1571.573c-.374-2.7-.739-5.326-1.114-8.033a4.5,4.5,0,0,0,3.263-.583,20.471,20.471,0,0,0,6.326-5.04,2.792,2.792,0,0,1,.63-.58,17.918,17.918,0,0,1-2.522,8.4A13.429,13.429,0,0,1,246,1571.573Z" fill="#e2bdb0"/>
          <path id="パス_101" data-name="パス 101" d="M301.971,1497.455c-5.1,5.579-6.7,11.948-5.437,19.233a5.452,5.452,0,0,1-.5-.583,16.353,16.353,0,0,1-2.628-10.659,17.3,17.3,0,0,1,1.891-6.1,1.319,1.319,0,0,1,.567-.611A18.934,18.934,0,0,1,301.971,1497.455Z" fill="#e2bdb0"/>
          <path id="パス_102" data-name="パス 102" d="M312.988,1500.25c.544.78,1.113,1.544,1.626,2.343a7.751,7.751,0,0,1,1.345,4.839,4.128,4.128,0,0,0,.127,1.417,4.112,4.112,0,0,0,.5-2.793c-.154-.877-.425-1.732-.637-2.6-.07-.285-.116-.576-.181-.906a1.091,1.091,0,0,1,1.055.671,6.83,6.83,0,0,1,.942,4.485,11.049,11.049,0,0,1-1.675,4.7c-1.011,1.615-2.042,3.224-3.168,4.759a13.966,13.966,0,0,1-5.947,4.629c-.372.157-.737.328-1.106.492l-.678.011c.15-.705.732-1.01,1.276-1.321a18.437,18.437,0,0,0,4.335-3.278,13.762,13.762,0,0,0,3.925-10.728,11.5,11.5,0,0,0-1.272-4.2c-.383-.807-.84-1.578-1.24-2.377a2.668,2.668,0,0,1-.142-.642Z" fill="#a2725a"/>
          <path id="パス_103" data-name="パス 103" d="M314.927,1525.438l-1.764-.85c.371-.057.741-.116,1.113-.169.143-.02.319-.087.426-.03,1.106.583,2.322.181,3.471.411a25.07,25.07,0,0,1,8.2,3.412c3.4,2.086,6.814,4.152,10.22,6.229.093.056.171.136.208.375-.3-.073-.614-.133-.915-.221a60.936,60.936,0,0,1-8.719-3.4q-3.373-1.584-6.7-3.259c-.8-.4-1.5-1-2.314-1.362C317.111,1526.118,316.005,1525.811,314.927,1525.438Z" fill="#e2bdb0"/>
          <path id="パス_104" data-name="パス 104" d="M246.249,1546.9a19.17,19.17,0,0,1,3.657-4.445c3.762-3.5,8.211-5.991,12.617-8.542a.468.468,0,0,1,.422-.015c-.215.229-.421.469-.648.686q-4.512,4.323-9.03,8.638c-.875.835-1.765,1.655-2.652,2.477a1.417,1.417,0,0,1-.356.237A15.188,15.188,0,0,1,246.249,1546.9Z" fill="#e2bdb0"/>
          <path id="パス_105" data-name="パス 105" d="M276.206,1526.837a34.935,34.935,0,0,0-5.259,4.632c-.388.421-.8.818-1.2,1.227a5.307,5.307,0,0,0,.864-2.537c-5.218,5.764-10.614,11-17.327,14.649l-.184-.2c.193-.183.382-.369.579-.547,2.252-2.038,4.524-4.053,6.751-6.117,1.654-1.533,3.241-3.139,4.875-4.694a26.68,26.68,0,0,1,7.061-5.127A35.335,35.335,0,0,1,276.206,1526.837Z" fill="#e2bdb0"/>
          <path id="パス_106" data-name="パス 106" d="M335.209,1547.479c1.38,2,2.715,4.025,4.15,5.981a21.681,21.681,0,0,0,6.115,5.577,15.784,15.784,0,0,0,1.707.839c.446.206.913.366,1.352.584,1.531.758,2.241,2,1.618,4.248a21.735,21.735,0,0,1-6.043-3.906,31.779,31.779,0,0,1-6.087-7.953c-1.033-1.7-1.992-3.451-2.984-5.179Z" fill="#e2bdb0"/>
          <path id="パス_107" data-name="パス 107" d="M259.894,1547.7c-3.665,6.184-7.719,12.005-14.519,15.266.255-.3.5-.6.767-.892q2.488-2.713,4.985-5.419,4.046-4.353,8.1-8.7a2.689,2.689,0,0,0,.322-.6Z" fill="#e2bdb0"/>
          <path id="パス_108" data-name="パス 108" d="M289.419,1510.326c-.138-.656-.283-1.152-.341-1.658a14.951,14.951,0,0,1,.892-7.733,15.749,15.749,0,0,1,1.582-2.566,1.094,1.094,0,0,1,.715-.4c.91-.1,1.828-.136,2.97-.211a4.121,4.121,0,0,1-.578.945,12.922,12.922,0,0,0-4.6,8.093c-.178,1.049-.324,2.1-.489,3.154A2.69,2.69,0,0,1,289.419,1510.326Z" fill="#e2bdb0"/>
          <path id="パス_109" data-name="パス 109" d="M323.549,1530.661c5.157,2.438,10.3,4.923,16.059,5.911C334.048,1537.85,327.7,1535.57,323.549,1530.661Z" fill="#e2bdb0"/>
          <path id="パス_110" data-name="パス 110" d="M249.679,1570.716l3.7-3.765a10.417,10.417,0,0,1-1.8,4.271Z" fill="#e1bcaf"/>
          <path id="パス_111" data-name="パス 111" d="M335.209,1547.479l-.172.191c-1.058-1.617-2.106-3.241-3.181-4.847-.521-.779-1.092-1.523-1.743-2.425l-.28.654a6.641,6.641,0,0,0-1.185-2.679,9.5,9.5,0,0,1-.4-.938,10.142,10.142,0,0,1,1.219,1.292C331.4,1541.63,333.3,1544.559,335.209,1547.479Z" fill="#e0bbad"/>
          <path id="パス_112" data-name="パス 112" d="M328.224,1518.844c1.7-1.643,3.748-3.047,3.72-5.872C333.244,1514.579,331.037,1517.994,328.224,1518.844Z" fill="#e0bbae"/>
          <path id="パス_113" data-name="パス 113" d="M340.564,1538.051a1.21,1.21,0,0,1,1.437.264c.635.65,1.29,1.28,1.936,1.918l-.14.169Z" fill="#deb8ab"/>
          <path id="パス_114" data-name="パス 114" d="M251.614,1532.113a2.75,2.75,0,0,1-1.484,1.425A1.867,1.867,0,0,1,251.614,1532.113Z" fill="#dbb5a6"/>
          <path id="パス_115" data-name="パス 115" d="M273.044,1577.8l-1.224.577a5.943,5.943,0,0,1,1.342-5.861,3.134,3.134,0,0,0-.711-.034,10.717,10.717,0,0,0-4.4,1.948,3.659,3.659,0,0,0-1.337,3.786,7.915,7.915,0,0,1,.208,1.015c.015.267-.006.646-.17.781a.915.915,0,0,1-.784-.03,3.977,3.977,0,0,1-2.238-3.188,4.435,4.435,0,0,1,0-.612c-1.18-.359-2.485-.25-3.407-1.175a2.515,2.515,0,0,1-.323-.77c1.069-.045,2.02-.142,2.966-.109,1.161.04,2.188-.109,2.761-1.236-.706-.258-1.458-.521-2.2-.811a1.986,1.986,0,0,1-.665-.4,1.854,1.854,0,0,1-.276-.57c.176-.074.356-.222.526-.21.8.057,1.611.134,2.411.249a6.92,6.92,0,0,0,4.283-.514c3.236-1.612,6.647-1.456,10.078-.666a12.326,12.326,0,0,1,6.318,3.565,5.606,5.606,0,0,1,.892,1.267c.106.2-.01.523-.025.79a2.9,2.9,0,0,1-.691-.191c-1.608-.907-3.2-1.835-4.807-2.749a4.878,4.878,0,0,0-.7-.243,5.964,5.964,0,0,1,1.882,4.941,5.171,5.171,0,0,1-1.8,3.719c-2.532,2.108-6.742,1.621-8.018-.527l1.154-.48c.242.157.482.318.726.472,2.253,1.41,5.914.266,6.5-2.526a5.245,5.245,0,0,0-.14-2.822c-1.027-2.986-5.1-3.91-7.057-1.648A4.6,4.6,0,0,0,273.044,1577.8Z" fill="#a1725a"/>
          <path id="パス_116" data-name="パス 116" d="M312.98,1577.807l-1.181.545a6.148,6.148,0,0,1,1.608-5.884,4.851,4.851,0,0,0-.737.251q-2.3,1.3-4.58,2.629c-.125.072-.229.185-.358.244-.366.169-.684-.038-.571-.427a3.33,3.33,0,0,1,.6-1.135,11.221,11.221,0,0,1,5.7-3.767,16.1,16.1,0,0,1,9.062-.38,10.641,10.641,0,0,1,2.42.929,4.711,4.711,0,0,0,3.11.385c.773-.1,1.545-.229,2.321-.277a2.4,2.4,0,0,1,.82.27c-.189.232-.331.559-.575.679-.773.38-1.583.682-2.383,1.016a2.427,2.427,0,0,0,2.522,1.256,23.153,23.153,0,0,1,2.845.09.941.941,0,0,1-.7,1.182,17.436,17.436,0,0,1-1.907.549c-.3.079-.612.12-.966.187a3.915,3.915,0,0,1-1.351,3.085,2.973,2.973,0,0,1-1.09.671c-.576.2-.862-.1-.809-.72a11.128,11.128,0,0,0,.131-2.23,4.215,4.215,0,0,0-2.851-3.792,22.234,22.234,0,0,0-2.925-.807,6.037,6.037,0,0,1,1.541,5.586,5.465,5.465,0,0,1-2.342,3.719c-2.112,1.363-5.9.911-7.363-1.169l1.041-.427c.5.231.989.468,1.489.692a4.02,4.02,0,0,0,5.363-1.714,5.693,5.693,0,0,0,.529-3.269,4.525,4.525,0,0,0-3.245-3.455,4.613,4.613,0,0,0-4.551,2.05A6.1,6.1,0,0,0,312.98,1577.807Z" fill="#a1725a"/>
          <path id="パス_117" data-name="パス 117" d="M274.926,1560.005a53.036,53.036,0,0,1,11.609,1.372c.279.074.562.134.838.218.766.235,1.057.553,1.019,1.094a1.5,1.5,0,0,1-1.238,1.272,10.368,10.368,0,0,1-2.074.059c-2.384-.241-4.769-.492-7.141-.826a33.3,33.3,0,0,0-12.991.477c-.838.213-1.692.363-2.541.527a2.038,2.038,0,0,1-.686.038c-.582-.092-.743-.478-.343-.906a4.253,4.253,0,0,1,1.032-.774,16.155,16.155,0,0,1,6.129-2.035C270.66,1560.282,272.8,1560.172,274.926,1560.005Z" fill="#bd896e"/>
          <path id="パス_118" data-name="パス 118" d="M318.858,1560.058a22.891,22.891,0,0,1,12.81,2.718c.444.208,1.063.542.823,1.142-.217.544-.84.352-1.32.253-1.525-.318-3.041-.685-4.574-.953a25.062,25.062,0,0,0-7.075-.366c-2.983.327-5.959.733-8.944,1.041-1.2.124-2.422.083-3.634.109a1.866,1.866,0,0,1-.515-.064,1.583,1.583,0,0,1-1.1-1.318c.005-.662.494-.869,1.008-1.019a34.064,34.064,0,0,1,7.066-1.251C315.221,1560.216,317.041,1560.153,318.858,1560.058Z" fill="#bd896e"/>
          <path id="パス_119" data-name="パス 119" d="M312.98,1577.807a6.1,6.1,0,0,1,.616-3.438,4.613,4.613,0,0,1,4.551-2.05,4.525,4.525,0,0,1,3.245,3.455,5.693,5.693,0,0,1-.529,3.269,4.02,4.02,0,0,1-5.363,1.714c-.5-.224-.993-.461-1.489-.692a10.845,10.845,0,0,0,1.124-.768.987.987,0,0,0,.356-1.153.975.975,0,0,0-1.1-.648A13.183,13.183,0,0,0,312.98,1577.807Zm4.078-.06a1.081,1.081,0,0,0,1.079-1.031,1.068,1.068,0,0,0-1-1.095,1.2,1.2,0,0,0-1.189,1.024A1.135,1.135,0,0,0,317.058,1577.747Z" fill="#d1a48e"/>
          <path id="パス_120" data-name="パス 120" d="M273.044,1577.8a4.6,4.6,0,0,1,1.069-4.258c1.955-2.262,6.03-1.338,7.057,1.648a5.245,5.245,0,0,1,.14,2.822c-.584,2.792-4.245,3.936-6.5,2.526-.244-.154-.484-.315-.726-.472a5.626,5.626,0,0,0,1.162-.85,1.512,1.512,0,0,0,.281-1.076.832.832,0,0,0-.985-.646A14.458,14.458,0,0,0,273.044,1577.8Zm4.242-.058a1.139,1.139,0,0,0,1.158-1.038,1.17,1.17,0,0,0-1.132-1.085,1.059,1.059,0,0,0-1.091.987A1.144,1.144,0,0,0,277.286,1577.746Z" fill="#d1a48e"/>
          <path id="パス_121" data-name="パス 121" d="M286.258,1609.962a3.385,3.385,0,0,1-.49-.465.7.7,0,0,1,.08-1,1.477,1.477,0,0,1,.918-.215,3.2,3.2,0,0,1,.864.311l1.55.523a5.755,5.755,0,0,0,1.285.446,22.477,22.477,0,0,1,5.653,1.561,1.931,1.931,0,0,0,1.494.016,22.69,22.69,0,0,1,5.817-1.613,4.875,4.875,0,0,0,1.118-.4l1.543-.522a2.618,2.618,0,0,0,.568-.168c.434-.245.868-.4,1.249.04a.9.9,0,0,1-.124,1.311l-1.217.657-2.417.56a15.734,15.734,0,0,0-3.723.616,9.78,9.78,0,0,1-4.3.611,5.217,5.217,0,0,1-2.025-.325,14.29,14.29,0,0,0-4.361-.9l-.688.021Z" fill="#a2725a"/>
          <path id="パス_122" data-name="パス 122" d="M265.4,1570.314a16.732,16.732,0,0,1,1.39-.951,19.367,19.367,0,0,1,10.979-2.184,21.815,21.815,0,0,1,7.088,1.51,14.4,14.4,0,0,1,1.763.92.783.783,0,0,1,.448,1.027,4.673,4.673,0,0,1-.84-.237,23.043,23.043,0,0,0-11.816-2.084,22.6,22.6,0,0,0-6.143,1.43c-.89.315-1.8.578-2.7.864Z" fill="#a2725b"/>
          <path id="パス_123" data-name="パス 123" d="M328.632,1570.6c-1.238-.411-2.374-.791-3.513-1.165a22.691,22.691,0,0,0-16.964.961c-.288.13-.663.478-.883.04-.079-.157.222-.63.462-.8a11.863,11.863,0,0,1,4.3-1.767,23.167,23.167,0,0,1,11.578-.065,31.477,31.477,0,0,1,3.937,1.552,4.273,4.273,0,0,1,1.018.767C328.64,1570.182,328.606,1570.364,328.632,1570.6Z" fill="#a2725b"/>
          <path id="パス_124" data-name="パス 124" d="M282.636,1524.009c-1.112-.4-2.229-.781-3.336-1.19a10.9,10.9,0,0,1-5.49-4.706,13.019,13.019,0,0,1-2-4.855,12.125,12.125,0,0,1,.092-2.568c.007-.113.143-.218.338-.5a6.505,6.505,0,0,1,.254,1.122,11.957,11.957,0,0,0,2.445,6.472,10.512,10.512,0,0,0,4.281,3.7c1.6.739,3.211,1.445,4.817,2.166l.365.369-.086.217Z" fill="#a2725a"/>
          <path id="パス_125" data-name="パス 125" d="M306.09,1608.6l-1.543.522c-1.758.254-3.538.405-5.265.791a10.621,10.621,0,0,1-4.67.044c-1.789-.382-3.62-.569-5.432-.841l-1.55-.523c1.208.078,2.422.1,3.622.246,1.8.212,3.591.54,5.394.741a7.786,7.786,0,0,0,1.709-.2c1.773-.21,3.546-.428,5.322-.616C304.478,1608.671,305.286,1608.648,306.09,1608.6Z" fill="#fecdc1"/>
          <path id="パス_126" data-name="パス 126" d="M295.475,1598.706c-.206.04-.318.1-.362.065a30.484,30.484,0,0,1-2.435-1.9,1.354,1.354,0,0,1-.244-1.114,5.285,5.285,0,0,1,.717-1.555.887.887,0,0,1,.7-.339c.166.013.379.333.441.553.291,1.023.53,2.061.8,3.09C295.2,1597.9,295.341,1598.287,295.475,1598.706Z" fill="#a2735c"/>
          <path id="パス_127" data-name="パス 127" d="M300.437,1596.851c.319.174.661.27.667.384a.771.771,0,0,1-.285.631c-.8.386-1.623.723-2.457,1.028-.159.059-.541-.067-.572-.177-.055-.2.007-.581.144-.655C298.757,1597.618,299.615,1597.24,300.437,1596.851Z" fill="#a57760"/>
          <path id="パス_128" data-name="パス 128" d="M307.12,1610.838a8.789,8.789,0,0,1-2.666,2.623,12.745,12.745,0,0,1-4.623,2.016c-.3.075-.6.141-.892.212l.694-.691,1.563-.521c.251-.062.51-.1.753-.188a6.762,6.762,0,0,0,3.413-2.069Z" fill="#fed9d0"/>
          <path id="パス_129" data-name="パス 129" d="M294.77,1615.529a10.6,10.6,0,0,1-5.956-2.442,24.009,24.009,0,0,1-2.212-2.251c.763.093,1.052.8,1.572,1.211a7.274,7.274,0,0,0,4.341,2.43l1.563.521Z" fill="#fed9d0"/>
          <path id="パス_130" data-name="パス 130" d="M288.174,1612.047c-.52-.409-.809-1.118-1.572-1.211q-.171-.438-.344-.874l2.79,1.061c.4.319,1.014.482.862,1.2A2.842,2.842,0,0,0,288.174,1612.047Z" fill="#fdcfc3"/>
          <path id="パス_131" data-name="パス 131" d="M294.77,1615.529l-.692-.531a3.229,3.229,0,0,1,1.129-.318c1.473.158,3-.43,4.426.318l-.694.691a.951.951,0,0,1-.142.014,5.169,5.169,0,0,0-.864-.273,21.014,21.014,0,0,0-2.331-.231c-.2-.006-.411.3-.617.458Z" fill="#fdd2c7"/>
          <path id="パス_132" data-name="パス 132" d="M294.985,1615.657c.206-.161.415-.464.617-.458a21.014,21.014,0,0,1,2.331.231,5.169,5.169,0,0,1,.864.273,5.326,5.326,0,0,1-1.067.412A3.954,3.954,0,0,1,294.985,1615.657Z" fill="#c18d74"/>
          <path id="パス_133" data-name="パス 133" d="M326.942,1582.268c-.139.046-.389.218-.5.153a10.526,10.526,0,0,1-1.413-.966.569.569,0,0,1-.124-.525.65.65,0,0,1,.467-.289C325.982,1580.569,326.944,1581.486,326.942,1582.268Z" fill="#a77a63"/>
          <path id="パス_134" data-name="パス 134" d="M267.04,1582.619a.983.983,0,0,1,.272-1.405,2.44,2.44,0,0,1,1.186-.544.42.42,0,0,1,.278.742C268.246,1581.853,267.643,1582.207,267.04,1582.619Z" fill="#a77a63"/>
          <path id="パス_135" data-name="パス 135" d="M307.12,1610.838l-1.758,1.382-1.041-.173,1.3-.471a.791.791,0,0,1,.69-.828c.1-.018.173-.2.258-.311l1.217-.657Z" fill="#fdd0c5"/>
          <path id="パス_136" data-name="パス 136" d="M324.344,1583.355a1.388,1.388,0,0,1-1.212-.919.593.593,0,0,1,.18-.5.575.575,0,0,1,.54.063A1.31,1.31,0,0,1,324.344,1583.355Z" fill="#ae846f"/>
          <path id="パス_137" data-name="パス 137" d="M270.776,1582.4c-.358.346-.688.677-1.044.977-.027.022-.377-.243-.36-.284a6.411,6.411,0,0,1,.575-1.11c.06-.091.331-.115.461-.063S270.6,1582.155,270.776,1582.4Z" fill="#aa7f69"/>
          <path id="パス_138" data-name="パス 138" d="M317.058,1577.747a1.135,1.135,0,0,1-1.108-1.1,1.2,1.2,0,0,1,1.189-1.024,1.068,1.068,0,0,1,1,1.095A1.081,1.081,0,0,1,317.058,1577.747Z" fill="#a2735b"/>
          <path id="パス_139" data-name="パス 139" d="M277.286,1577.746a1.144,1.144,0,0,1-1.065-1.136,1.059,1.059,0,0,1,1.091-.987,1.17,1.17,0,0,1,1.132,1.085A1.139,1.139,0,0,1,277.286,1577.746Z" fill="#a3735b"/>
          <path id="パス_140" data-name="パス 140" d="M289.736,1611a14.29,14.29,0,0,1,4.361.9,5.217,5.217,0,0,0,2.025.325,9.78,9.78,0,0,0,4.3-.611,15.734,15.734,0,0,1,3.723-.616,8.12,8.12,0,0,1-.827.421,17.478,17.478,0,0,1-4.038,1.311l-1.212.533a1.036,1.036,0,0,1-1.219.7,3.441,3.441,0,0,0-.518,0,8.2,8.2,0,0,0-1.349-.864c-1.411-.56-2.854-1.036-4.276-1.569A7.8,7.8,0,0,1,289.736,1611Z" fill="#fec7b9"/>
          <path id="パス_141" data-name="パス 141" d="M289.18,1609.113c1.812.272,3.643.459,5.432.841a10.621,10.621,0,0,0,4.67-.044c1.727-.386,3.507-.537,5.265-.791a4.875,4.875,0,0,1-1.118.4,22.69,22.69,0,0,0-5.817,1.613,1.931,1.931,0,0,1-1.494-.016,22.477,22.477,0,0,0-5.653-1.561A5.755,5.755,0,0,1,289.18,1609.113Z" fill="#fdc1b2"/>
          <path id="パス_142" data-name="パス 142" d="M299.284,1612.729a17.478,17.478,0,0,0,4.038-1.311,8.12,8.12,0,0,0,.827-.421l2.417-.56c-.085.108-.157.293-.258.311a.791.791,0,0,0-.69.828l-1.3.471-1.389.694c-.391.055-.781.125-1.175.16-.3.027-.6.01-.9.012Z" fill="#fecdc0"/>
          <path id="パス_143" data-name="パス 143" d="M289.736,1611a7.8,7.8,0,0,0,.974.521c1.422.533,2.865,1.009,4.276,1.569a8.2,8.2,0,0,1,1.349.864c-1.037-.229-2.081-.431-3.109-.7-1-.256-1.98-.575-2.969-.867l-.347-.174c.152-.715-.463-.878-.862-1.2Z" fill="#feccbf"/>
          <path id="パス_144" data-name="パス 144" d="M290.257,1612.394c.989.292,1.971.611,2.969.867,1.028.264,2.072.466,3.109.7a3.441,3.441,0,0,1,.518,0,1.036,1.036,0,0,0,1.219-.7c.07.65.5.735,1.047.707a1.736,1.736,0,0,0,1.735-1.056c.3,0,.6.015.9-.012.394-.035.784-.1,1.175-.16a3.6,3.6,0,0,0-1.736,1.736l-1.563.521c-1.426-.748-2.953-.16-4.426-.318a3.229,3.229,0,0,0-1.129.318l-1.563-.521a2.62,2.62,0,0,0-1.732-1.667C290.584,1612.743,290.431,1612.536,290.257,1612.394Z" fill="#fed0c4"/>
          <path id="パス_145" data-name="パス 145" d="M301.2,1614.477a3.6,3.6,0,0,1,1.736-1.736l1.389-.694,1.041.173a6.619,6.619,0,0,1-3.336,2.108A3.98,3.98,0,0,1,301.2,1614.477Z" fill="#fed2c6"/>
          <path id="パス_146" data-name="パス 146" d="M290.257,1612.394c.174.142.327.349.526.416a2.62,2.62,0,0,1,1.732,1.667,7.274,7.274,0,0,1-4.341-2.43,2.842,2.842,0,0,1,1.736.173Z" fill="#fed2c6"/>
          <path id="パス_147" data-name="パス 147" d="M300.854,1612.913c-.057.625-.838,1.01-1.735,1.056-.543.028-1.17-.05-1.157-.694,0-.672.685-.772,1.29-.79A2.691,2.691,0,0,1,300.854,1612.913Z" fill="#fefdfd"/>
        </g>
      </g>
      <g id="グループ_13" data-name="グループ 13" opacity="0.7">
        <path id="パス_153" data-name="パス 153" d="M325.019,1587.922c.25-1.539,2.847-2.594,4.383-1.839a2.3,2.3,0,0,1,1.1,2.759,2.732,2.732,0,0,1-2.192,1.839C326.6,1590.894,324.788,1589.344,325.019,1587.922Z" fill="#a2725b"/>
        <circle id="楕円形_8" data-name="楕円形 8" cx="0.92" cy="0.92" r="0.92" transform="translate(321.32 1590.681)" fill="#a2725b"/>
        <ellipse id="楕円形_9" data-name="楕円形 9" cx="0.933" cy="1.057" rx="0.933" ry="1.057" transform="translate(324.526 1594.222)" fill="#a2725b"/>
        <path id="パス_154" data-name="パス 154" d="M310.285,1585.163c.282-.092.741.442.92.92.07.187.248.662,0,.92a.767.767,0,0,1-.92,0C309.706,1586.585,309.907,1585.287,310.285,1585.163Z" fill="#a2725b"/>
        <path id="パス_155" data-name="パス 155" d="M313.964,1589.761a1.283,1.283,0,0,1,1.839,0,1.15,1.15,0,1,1-1.839,0Z" fill="#a2725b"/>
        <path id="パス_156" data-name="パス 156" d="M312.124,1593.44c.378-.223,1.84.261,1.84.919s-1.462,1.142-1.84.92c-.28-.165-.919-.264-.919-.92S311.844,1593.6,312.124,1593.44Z" fill="#a2725b"/>
        <path id="パス_157" data-name="パス 157" d="M316.722,1597.118c-.028-.9,1.421-1.845,2.759-1.839a3.068,3.068,0,0,1,2.759,1.839c.062.15.512,1.243,0,1.839-.57.662-1.932.25-2.759,0S316.754,1598.132,316.722,1597.118Z" fill="#a2725b"/>
      </g>
      <g id="グループ_12" data-name="グループ 12" opacity="0.7">
        <path id="パス_148" data-name="パス 148" d="M268.591,1588.922c-.251-1.539-2.848-2.594-4.384-1.839a2.3,2.3,0,0,0-1.1,2.759,2.733,2.733,0,0,0,2.192,1.839C267.006,1591.894,268.822,1590.344,268.591,1588.922Z" fill="#a2725b"/>
        <circle id="楕円形_6" data-name="楕円形 6" cx="0.92" cy="0.92" r="0.92" transform="translate(270.45 1591.681)" fill="#a2725b"/>
        <ellipse id="楕円形_7" data-name="楕円形 7" cx="0.933" cy="1.057" rx="0.933" ry="1.057" transform="translate(267.218 1595.222)" fill="#a2725b"/>
        <path id="パス_149" data-name="パス 149" d="M283.324,1586.163c-.282-.092-.741.442-.92.92-.069.187-.247.662,0,.92a.768.768,0,0,0,.92,0C283.9,1587.585,283.7,1586.287,283.324,1586.163Z" fill="#a2725b"/>
        <path id="パス_150" data-name="パス 150" d="M279.646,1590.761a1.284,1.284,0,0,0-1.84,0,1.15,1.15,0,1,0,1.84,0Z" fill="#a2725b"/>
        <path id="パス_151" data-name="パス 151" d="M281.485,1594.44c-.378-.223-1.839.261-1.839.919s1.461,1.142,1.839.92c.28-.165.919-.264.919-.92S281.765,1594.6,281.485,1594.44Z" fill="#a2725b"/>
        <path id="パス_152" data-name="パス 152" d="M276.887,1598.118c.028-.9-1.421-1.845-2.759-1.839a3.069,3.069,0,0,0-2.759,1.839c-.061.15-.512,1.243,0,1.839.57.662,1.932.25,2.759,0S276.855,1599.132,276.887,1598.118Z" fill="#a2725b"/>
      </g>
    </g>
    <circle id="楕円形_10" data-name="楕円形 10" cx="29" cy="29" r="29" transform="translate(203 1476.467)" fill="#fff7a4"/>
    <circle id="楕円形_69" data-name="楕円形 69" cx="29" cy="29" r="29" transform="translate(331.428 1475.516)" fill="#fff7a4"/>
    <text id="シミ" transform="translate(215.997 1512.016)" font-size="17" font-family="KiwiMaru-Medium, Kiwi Maru" font-weight="500"><tspan x="0" y="0">シミ</tspan></text>
    <text id="ほくろ" transform="translate(339.672 1511.967)" font-size="15" font-family="KiwiMaru-Medium, Kiwi Maru" font-weight="500"><tspan x="0" y="0">ほくろ</tspan></text>
    <circle id="楕円形_28" data-name="楕円形 28" cx="29" cy="29" r="29" transform="translate(201 1534.467)" fill="#fff7a4"/>
    <text id="そば_かす" data-name="そば
かす" transform="translate(214.997 1562.016)" font-size="15" font-family="KiwiMaru-Medium, Kiwi Maru" font-weight="500"><tspan x="0" y="0">そば</tspan><tspan x="0" y="16">かす</tspan></text>
    <g id="グループ_101" data-name="グループ 101" transform="translate(-263.5)" opacity="0.7">
      <circle id="楕円形_12" data-name="楕円形 12" cx="0.598" cy="0.598" r="0.598" transform="translate(580.731 1589.751)" fill="#a2725b"/>
      <circle id="楕円形_13" data-name="楕円形 13" cx="0.598" cy="0.598" r="0.598" transform="translate(593.731 1586.751)" fill="#a2725b"/>
      <ellipse id="楕円形_14" data-name="楕円形 14" cx="0.607" cy="0.688" rx="0.607" ry="0.688" transform="translate(581.817 1593.055)" fill="#a2725b"/>
      <ellipse id="楕円形_15" data-name="楕円形 15" cx="0.607" cy="0.688" rx="0.607" ry="0.688" transform="translate(563.817 1585.055)" fill="#a2725b"/>
      <ellipse id="楕円形_16" data-name="楕円形 16" cx="0.607" cy="0.688" rx="0.607" ry="0.688" transform="translate(590.817 1590.055)" fill="#a2725b"/>
      <path id="パス_230" data-name="パス 230" d="M573.549,1586.16c.184-.06.482.287.6.6.045.122.161.431,0,.6a.5.5,0,0,1-.6,0C573.172,1587.085,573.3,1586.24,573.549,1586.16Z" fill="#a2725b"/>
      <path id="パス_231" data-name="パス 231" d="M578.549,1587.16c.184-.06.482.287.6.6.045.122.161.431,0,.6a.5.5,0,0,1-.6,0C578.172,1588.085,578.3,1587.24,578.549,1587.16Z" fill="#a2725b"/>
      <path id="パス_232" data-name="パス 232" d="M575.943,1591.152a.833.833,0,0,1,1.2,0,.748.748,0,1,1-1.2,0Z" fill="#a2725b"/>
      <path id="パス_233" data-name="パス 233" d="M570.943,1589.152a.833.833,0,0,1,1.2,0,.748.748,0,1,1-1.2,0Z" fill="#a2725b"/>
      <path id="パス_234" data-name="パス 234" d="M586.943,1595.152a.833.833,0,0,1,1.2,0,.748.748,0,1,1-1.2,0Z" fill="#a2725b"/>
      <path id="パス_235" data-name="パス 235" d="M585.943,1589.152a.833.833,0,0,1,1.2,0,.748.748,0,1,1-1.2,0Z" fill="#a2725b"/>
      <path id="パス_236" data-name="パス 236" d="M565.746,1589.546c.246-.145,1.2.17,1.2.6s-.951.744-1.2.6c-.182-.107-.6-.172-.6-.6S565.564,1589.653,565.746,1589.546Z" fill="#a2725b"/>
      <circle id="楕円形_17" data-name="楕円形 17" cx="0.5" cy="0.5" r="0.5" transform="translate(568 1586.467)" fill="#a2725b"/>
      <circle id="楕円形_18" data-name="楕円形 18" cx="0.5" cy="0.5" r="0.5" transform="translate(569 1592.467)" fill="#a2725b"/>
      <circle id="楕円形_19" data-name="楕円形 19" cx="0.598" cy="0.598" r="0.598" transform="translate(539.072 1589.751)" fill="#a2725b"/>
      <circle id="楕円形_20" data-name="楕円形 20" cx="0.598" cy="0.598" r="0.598" transform="translate(526.072 1586.751)" fill="#a2725b"/>
      <ellipse id="楕円形_21" data-name="楕円形 21" cx="0.607" cy="0.688" rx="0.607" ry="0.688" transform="translate(537.969 1593.055)" fill="#a2725b"/>
      <ellipse id="楕円形_22" data-name="楕円形 22" cx="0.607" cy="0.688" rx="0.607" ry="0.688" transform="translate(555.969 1585.055)" fill="#a2725b"/>
      <ellipse id="楕円形_23" data-name="楕円形 23" cx="0.607" cy="0.688" rx="0.607" ry="0.688" transform="translate(528.969 1590.055)" fill="#a2725b"/>
      <path id="パス_237" data-name="パス 237" d="M547.451,1586.16c-.184-.06-.482.287-.6.6-.045.122-.161.431,0,.6a.5.5,0,0,0,.6,0C547.828,1587.085,547.7,1586.24,547.451,1586.16Z" fill="#a2725b"/>
      <path id="パス_238" data-name="パス 238" d="M542.451,1587.16c-.184-.06-.482.287-.6.6-.045.122-.161.431,0,.6a.5.5,0,0,0,.6,0C542.828,1588.085,542.7,1587.24,542.451,1587.16Z" fill="#a2725b"/>
      <path id="パス_239" data-name="パス 239" d="M545.057,1591.152a.833.833,0,0,0-1.2,0,.748.748,0,1,0,1.2,0Z" fill="#a2725b"/>
      <path id="パス_240" data-name="パス 240" d="M550.057,1589.152a.833.833,0,0,0-1.2,0,.748.748,0,1,0,1.2,0Z" fill="#a2725b"/>
      <path id="パス_241" data-name="パス 241" d="M534.057,1595.152a.833.833,0,0,0-1.2,0,.748.748,0,1,0,1.2,0Z" fill="#a2725b"/>
      <path id="パス_242" data-name="パス 242" d="M535.057,1589.152a.833.833,0,0,0-1.2,0,.748.748,0,1,0,1.2,0Z" fill="#a2725b"/>
      <path id="パス_243" data-name="パス 243" d="M555.254,1589.546c-.246-.145-1.2.17-1.2.6s.951.744,1.2.6c.182-.107.6-.172.6-.6S555.436,1589.653,555.254,1589.546Z" fill="#a2725b"/>
      <circle id="楕円形_24" data-name="楕円形 24" cx="0.5" cy="0.5" r="0.5" transform="translate(552 1586.467)" fill="#a2725b"/>
      <circle id="楕円形_25" data-name="楕円形 25" cx="0.5" cy="0.5" r="0.5" transform="translate(560 1581.467)" fill="#a2725b"/>
      <circle id="楕円形_26" data-name="楕円形 26" cx="0.5" cy="0.5" r="0.5" transform="translate(551 1592.467)" fill="#a2725b"/>
      <circle id="楕円形_27" data-name="楕円形 27" cx="0.5" cy="0.5" r="0.5" transform="translate(560 1586.467)" fill="#a2725b"/>
    </g>
  </g>
</svg>
