<?xml version="1.0" encoding="utf-8"?>
<!-- Generator: Adobe Illustrator 28.1.0, SVG Export Plug-In . SVG Version: 6.00 Build 0)  -->
<svg version="1.1" id="_レイヤー_2" xmlns="http://www.w3.org/2000/svg" xmlns:xlink="http://www.w3.org/1999/xlink" x="0px"
	 y="0px" viewBox="0 0 192 205" style="enable-background:new 0 0 192 205;" xml:space="preserve">
<style type="text/css">
	.st0{fill:#FFFFFF;}
	.st1{fill:#FEFEFE;}
	.st2{fill:#A1725A;}
	.st3{fill:#E2BDB0;}
	.st4{fill:#A2725A;}
	.st5{fill:#E1BCAF;}
	.st6{fill:#E0BBAD;}
	.st7{fill:#E0BBAE;}
	.st8{fill:#DEB8AB;}
	.st9{fill:#DBB5A6;}
	.st10{fill:#BD896E;}
	.st11{fill:#D1A48E;}
	.st12{fill:#A2725B;}
	.st13{fill:#FECDC1;}
	.st14{fill:#A2735C;}
	.st15{fill:#A57760;}
	.st16{fill:#FED9D0;}
	.st17{fill:#FDCFC3;}
	.st18{fill:#FDD2C7;}
	.st19{fill:#C18D74;}
	.st20{fill:#A77A63;}
	.st21{fill:#FDD0C5;}
	.st22{fill:#AE846F;}
	.st23{fill:#AA7F69;}
	.st24{fill:#A2735B;}
	.st25{fill:#A3735B;}
	.st26{fill:#FEC7B9;}
	.st27{fill:#FDC1B2;}
	.st28{fill:#FECDC0;}
	.st29{fill:#FECCBF;}
	.st30{fill:#FED0C4;}
	.st31{fill:#FED2C6;}
	.st32{fill:#FEFDFD;}
	.st33{fill:#FFF7A4;}
	.st34{filter:url(#Adobe_OpacityMaskFilter);}
	.st35{mask:url(#SVGID_1_);}
	.st36{fill:#ED857A;}
	.st37{filter:url(#Adobe_OpacityMaskFilter_00000094609762731439987680000017245246440942927033_);}
	.st38{mask:url(#SVGID_00000015340324248423852440000015757086714181816231_);}
	.st39{filter:url(#Adobe_OpacityMaskFilter_00000152222353657133041930000007490049744684233899_);}
	.st40{mask:url(#SVGID_00000096045212150145481340000004630178028751050888_);}
	.st41{filter:url(#Adobe_OpacityMaskFilter_00000020391844922004759550000010097477651353700283_);}
	.st42{mask:url(#SVGID_00000118375093565179637700000011415725480282666942_);}
	.st43{filter:url(#Adobe_OpacityMaskFilter_00000133509984984891624610000001701818090967124360_);}
	.st44{mask:url(#SVGID_00000055705343653174637400000018180904007090296744_);}
	.st45{filter:url(#Adobe_OpacityMaskFilter_00000019657468745581441660000017371901768607032195_);}
	.st46{mask:url(#SVGID_00000023965413595008589820000007711355206502614716_);}
</style>
<g>
	<circle class="st0" cx="96" cy="109" r="96"/>
	<path class="st1" d="M141.4,190.6c-0.3,0-0.6,0.1-0.9,0.1c-29.7,0-59.4,0-89.1,0c-0.3,0-0.7-0.1-1-0.1c0.5-0.3,1.1-0.6,1.6-0.9
		c3.4-2.1,6.8-4.1,10.1-6.4c3.9-2.7,7-6.2,9-10.6c1.2-2.6,2.1-5.2,2.8-7.9c1.4-5.1,1.7-10.2,1.3-15.5c0-0.4-0.1-0.7-0.2-1.1
		c0.1,0,0.1-0.1,0.2-0.1c0.2,0.2,0.5,0.3,0.7,0.5c1.2,0.9,2.3,1.9,3.6,2.8c3.4,2.5,6.9,4.7,10.8,6.2c2.8,1.1,5.6,1.3,8.4,0.8
		c1.8-0.3,3.6-1,5.2-1.8c4.2-2,8-4.7,11.6-7.7c0.3-0.3,0.7-0.6,1.1-0.9c-0.1,1.4-0.1,2.6-0.2,3.8c-0.2,2.7-0.1,5.3,0.4,7.9
		c0.5,2.8,1.2,5.5,2,8.1c2.1,7,6.2,12.6,12.4,16.5C134.6,186.5,138,188.6,141.4,190.6L141.4,190.6L141.4,190.6z"/>
	<path class="st2" d="M141.4,190.6c-3.4-2.1-6.8-4.1-10.2-6.2c-6.2-3.9-10.3-9.5-12.4-16.5c-0.8-2.7-1.5-5.4-2-8.1
		c-0.5-2.6-0.6-5.3-0.4-7.9c0.1-1.2,0.1-2.4,0.2-3.8c-0.4,0.4-0.8,0.6-1.1,0.9c-3.6,3-7.4,5.6-11.6,7.7c-1.7,0.8-3.4,1.5-5.2,1.8
		c-2.9,0.5-5.7,0.2-8.4-0.8c-3.9-1.5-7.4-3.8-10.8-6.2c-1.2-0.9-2.4-1.9-3.6-2.8c-0.2-0.2-0.4-0.3-0.7-0.5c-0.1,0-0.1,0.1-0.2,0.1
		c0.1,0.4,0.1,0.7,0.2,1.1c0.4,5.2,0.1,10.4-1.3,15.5c-0.8,2.7-1.7,5.3-2.8,7.9c-2,4.4-5.1,7.9-9,10.6c-3.3,2.3-6.7,4.3-10.1,6.4
		c-0.5,0.3-1,0.6-1.6,0.9c-0.2,0.1-0.4,0.1-0.5,0.2c-0.8,0.4-1.2,0.4-1.6-0.3c-0.3-0.5,0-1,0.7-1.4c0.9-0.5,1.9-1.1,2.8-1.6
		c1.9-1.1,3.8-2.3,5.7-3.5c1.4-0.9,2.8-1.8,4.1-2.8c1.2-0.9,2.3-2.1,3.4-3.1c2-1.9,3.4-4.3,4.5-6.8c1.4-3.1,2.4-6.3,3.1-9.6
		c0.2-1.2,0.5-2.4,0.7-3.5c0.1-0.9,0.2-1.8,0.2-2.8c0-1.5,0.1-2.9,0-4.4c-0.1-1.5-0.2-3-0.4-4.6c0-0.2-0.2-0.5-0.3-0.6
		c-1.6-1.3-2.9-2.9-4.2-4.4c-3-3.5-5.4-7.4-7.6-11.4c-0.9-1.6-1.8-3.3-2.6-5c-0.2-0.5-0.5-0.7-1-0.8c-2.2-0.7-4.1-1.8-5.9-3.1
		c-2.1-1.6-3.7-3.6-5-5.8c-1.4-2.3-2.3-4.8-3-7.4c-0.5-1.9-0.7-3.9-0.6-5.9c0-1.7,0.2-3.4,0.8-5c-1.9-0.9-2.6-2.5-2.9-4.3
		c-0.3-1.7,0.3-3.2,1-4.7c0.2-0.4,0.1-0.6,0-1c-0.8-1.9-1.3-3.9-1.3-6c-0.1-2.9,0.5-5.7,1.8-8.2c0.5-0.9,1-1.8,1.4-2.8
		c0.4-1,0.5-2.1,0.8-3.1c0-0.1-0.2-0.3-0.3-0.4c-0.7-1-0.9-2.2-0.7-3.4c0.3-2,1.3-3.7,2.7-5.2c0.7-0.7,1.3-1.3,2-2
		c0.2-0.2,0.2-0.4,0.3-0.6c0.7-1.8,1.2-3.7,2-5.4c1-2.3,2.2-4.5,3.9-6.4c1-1.1,1.9-2.3,2.9-3.4c1.5-1.5,3-3,4.9-3.8
		c0.2-0.1,0.3-0.2,0.4-0.4c0.7-1.6,1.7-3,2.9-4.1c2.4-2.4,5.2-4.2,8.6-5.1c0.5-0.1,1-0.4,1.4-0.7c3.7-2.6,7.9-4.1,12.3-5
		c1.7-0.4,3.4-0.5,5.1-0.7c1.1-0.1,2.1,0.1,3.2,0.2c0.3,0,0.6,0,0.9,0c3.7-1,7.5-1,11.2,0.2c1.3,0.4,2.5,0.9,3.7,1.4
		c0.6,0.3,1.2,0.5,1.8,0.4c1.6-0.1,3,0.3,4.2,1.2c0.8,0.5,1.2,1.4,1.8,2.1c0.1,0.2,0.4,0.5,0.6,0.5c2,0.1,3.7,0.9,5.3,2
		c2.3,1.6,4,3.6,5.2,6.2c0.4,0.8,1.1,1.5,1.8,2.1c2.2,1.9,3.9,4.1,5.5,6.5c1.9,3,3.1,6.2,4.3,9.4c0.2,0.5,0.5,1,0.9,1.3
		c2,1.9,3.4,4.1,4,6.7c0.5,2.2,0.6,4.5,0.2,6.7c-0.1,0.4,0,0.6,0.2,0.9c1.4,1.8,2.5,3.7,3.2,5.9c0.7,2.2,0.9,4.5,0.5,6.8
		c-0.2,1.2-0.5,2.3-0.7,3.5c-0.1,0.2-0.1,0.5,0,0.7c0.8,1.5,0.6,2.9,0,4.4c-0.2,0.5-0.1,0.8,0.1,1.2c1.3,2.8,1.2,5.5-0.4,8.1
		c0,0.1,0,0.1-0.1,0.2c-1.1,0.8-1,1.8-1,3c0.1,6-1.7,11.4-5.3,16.1c-2,2.7-4.8,4.6-7.9,5.8c-1.4,0.6-2.3,1.3-3,2.7
		c-2.3,4.5-4.8,8.8-7.7,12.8c-1.7,2.3-3.7,4.4-5.8,6.4c-0.6,0.5-0.8,1.1-0.8,1.9c0,2.7-0.2,5.5-0.2,8.2c0,3,0.7,5.9,1.4,8.9
		c0.9,3.5,2.2,6.9,4.1,10c1.2,2.1,2.8,3.8,4.6,5.4c4.1,3.5,8.7,6.1,13.3,8.7c0.4,0.2,0.7,0.4,1.1,0.6c0.7,0.4,0.9,1,0.6,1.5
		c-0.3,0.4-0.9,0.5-1.5,0.1C141.6,190.8,141.5,190.7,141.4,190.6L141.4,190.6L141.4,190.6z M134.2,71c-1.9-2.9-3.8-5.8-5.7-8.8
		c-0.3-0.5-0.8-0.9-1.2-1.3c-0.4-0.4-0.8-0.8-1.2-1.3c-0.4-0.5-0.8-1.1-1.2-1.5c-1.6-1.6-3.3-3.1-4.9-4.6c-1.5-1.4-3-2.7-4.8-3.7
		c-0.4-0.2-0.8-0.6-1.2-0.9c1.1,0.4,2.2,0.7,3.2,1.1c0.8,0.4,1.5,1,2.3,1.4c2.2,1.1,4.4,2.2,6.7,3.3c2.8,1.3,5.7,2.5,8.7,3.4
		c0.3,0.1,0.6,0.2,0.9,0.2c0-0.2-0.1-0.3-0.2-0.4c-3.4-2.1-6.8-4.1-10.2-6.2c-2.6-1.6-5.2-2.8-8.2-3.4c-1.2-0.2-2.4,0.2-3.5-0.4
		c-0.1-0.1-0.3,0-0.4,0c-0.4,0-0.7,0.1-1.1,0.2c-0.3-0.2-0.8,0.2-1-0.4c1.7-0.5,3.4-1.1,5-1.6c3.1-1,6.2-2.2,9-4.1
		c1.4-1,2.8-2,3.8-3.3c0.5-0.7,0.8-1.5,0.8-2.3c0-1-0.4-1.8-0.9-2.6c-1.8-2.5-3.9-4.6-6.7-5.9c-0.6-0.3-1.2-0.5-1.9-0.5
		c0.1,0.4,0.1,0.8,0.1,1.2c0.2,2.5-0.3,4.9-1.3,7.2c-1.1,2.4-2.7,4.5-4.3,6.5c-0.8,0.9-1.7,1.7-2.6,2.5c-0.5,0.5-1.1,0.8-1.9,0.7
		c0.4-0.4,0.7-0.6,1-1c2.1-2.2,3.8-4.7,5.4-7.3c1-1.7,1.8-3.6,2.2-5.5c0.3-1.3,0.4-2.6,0.1-4c-0.1-0.3-0.3-0.5-0.6-0.7
		c-0.7-0.4-1.4-0.8-2.1-1.1c-1.4-0.7-2.7-1.5-4.1-2.2l-0.9-0.5c-0.4-0.2-0.8-0.5-1.3-0.7c-2-0.8-4-1.3-6.1-1.6
		c-0.5-0.1-0.9,0-1.2,0.4c-0.9,1.1-1.9,2.1-2.7,3.3c-1.8,2.7-2.9,5.8-3.2,9c-0.3,2.9-0.2,5.7,0.9,8.3c0.1,0.4,0.4,0.8,0.7,1
		c0.9,0.7,1.8,1.3,2.8,1.9c0.2,0.1,0.3,0.3,0.5,0.5c-0.7,0.3-1.2,0-1.8-0.2c-0.1-0.1-0.2-0.2-0.2-0.2c-3.1-1.9-5.3-4.5-6.7-7.8
		c-1.3-3.1-1.8-6.2-1.1-9.6c0-0.2,0-0.3,0-0.5c-0.1,0-0.2,0-0.2,0.1c-0.1,0.2-0.2,0.4-0.3,0.6c-0.8,1.9-1.1,3.8-1.3,5.8
		c-0.3,3.9,0.6,7.4,3.1,10.4c0.2,0.2,0.2,0.5,0.3,0.7c-0.1,0-0.1,0.1-0.2,0.2c-0.3-0.2-0.8-0.4-1-0.8c-0.6-0.8-1.2-1.5-1.6-2.3
		c-1-2.3-2-4.7-2.8-7.1c-1.2-3.4-1-6.8,0.2-10.2c0.4-1,0.9-1.9,1.4-2.8c-2.4,0.4-4.8,1.1-7.1,2c-2.2,0.9-4.4,1.9-6.3,3.4
		c-1.2,1-2,2.3-2.2,3.8c-0.2,1.6,0.1,3.2,0.8,4.7c1.5,3.4,4.2,5.5,7.5,7c2.6,1.1,5.3,1.9,8,2.5c0.3,0.1,0.6,0.3,0.8,0.5
		c-0.1,0-0.2,0-0.3,0c-3.9,0-7.6-0.9-10.9-2.8c-3.6-2-6-5-6.8-9.1c-0.2-0.9-0.1-1.8-0.2-2.7c-0.5,0.4-0.4,1.3-1.2,1.6
		c-0.3-1.7,0.8-2.9,1.4-4.2c-3,1.4-5.6,3.3-7.7,5.8c-1.3,1.5-2,3.2-1.6,5.2c0.5,2.5,1.6,4.6,3.6,6.1c0.1,0.1,0.3,0.2,0.5,0.2
		c0-0.2,0-0.3-0.1-0.4c-3-2.4-3.7-8.3-1.3-11.9c0.2-0.3,0.4-0.5,0.7-0.7c0.1,0,0.1,0.1,0.2,0.1c-0.1,0.3-0.1,0.7-0.2,1.1
		c-0.5,1.2-0.9,2.5-0.9,3.8c-0.1,2.2,0.3,4.3,1.8,6.1c0.9,1,2,1.9,3,2.9c1.4,1.3,3,1.9,4.9,1.7c0.1,0,0.3,0,0.5,0.1
		c-0.1,0.1-0.1,0.1-0.1,0.2c-0.1,0-0.2,0.1-0.3,0.1c-1.7,0.4-3.4,0.2-5.1-0.3c-0.6-0.2-1.2-0.2-1.8,0c-4.2,1.2-8.3,2.7-12.2,4.8
		c-4.3,2.3-7.7,5.6-9.6,10.2c-0.5,1.2-0.8,2.4-1.3,3.6c0.1,0,0.1,0.1,0.2,0.1c0.2-0.2,0.3-0.3,0.5-0.5c2.5-2.7,5.4-4.9,8.5-6.8
		c5.2-3.2,10.7-5.7,15.8-9c1.3-0.8,2.8-1.2,4.3-1.5c0.8-0.1,0.9,0,1,0.7l-0.5,0.2c-1.3,0.4-2.6,0.7-3.8,1.3
		c-2.7,1.2-4.9,3.1-7.1,5.1c-1.6,1.6-3.2,3.2-4.9,4.7c-2.2,2.1-4.5,4.1-6.8,6.1c-0.2,0.2-0.4,0.4-0.6,0.6c0.1,0.1,0.1,0.1,0.2,0.2
		c6.7-3.7,12.1-8.9,17.3-14.7c0.1,1.1-0.6,1.8-0.9,2.5c-0.6,0.7-1.2,1.3-1.8,2c-0.2,0.2-0.4,0.4-0.5,0.7c-1,2-1.9,4-2.8,6
		c-2,4.1-4.1,8.2-6.7,12c-0.2,0.4-0.4,0.8-0.5,1.3c-0.9,2.9-1.2,5.8-1.8,8.8c-0.4,2.4-0.7,4.8-2,6.8c-1,1.6-0.9,3-0.6,4.6
		c1.2,5.9,2.7,11.8,4.7,17.6c2.5,7.4,6.1,14.2,10.5,20.6c4.6,6.6,10.6,11.8,17.3,16.1c2.1,1.4,4.3,2.5,6.7,3.4
		c2.2,0.8,4.4,1,6.7,0.6c2.1-0.3,4-1.1,5.8-2c6.7-3.5,12.5-8.1,17.5-13.8c4.7-5.2,8.1-11.3,11-17.6c4-8.8,6.3-18.1,8.1-27.5
		c0.1-0.2-0.1-0.6-0.2-0.8c-1.4-2.3-2.5-4.8-3.2-7.4c-0.9-3.5-1.8-6.9-2.6-10.4c-1-4.5-2.9-8.6-5.4-12.5c0.1-0.1,0.1-0.3,0.3-0.7
		c0.6,0.9,1.2,1.7,1.7,2.4c1.1,1.6,2.1,3.2,3.2,4.8c1,1.7,1.9,3.5,3,5.2c1.7,2.9,3.5,5.7,6.1,7.9c1.8,1.6,3.8,3,6,3.9
		c0.6-2.2-0.1-3.5-1.6-4.2c-0.4-0.2-0.9-0.4-1.4-0.6c-0.6-0.3-1.2-0.5-1.7-0.8c-2.4-1.5-4.5-3.3-6.1-5.6
		C136.9,75.1,135.6,73.1,134.2,71L134.2,71L134.2,71z M127.6,60l-0.1,0.1c0.2,0.2,0.3,0.3,0.4,0.5c0.5,0.5,1.2,1,1.6,1.6
		c1.3,1.7,2.5,3.5,3.8,5.3c1.5,2.2,3,4.5,4.5,6.7c2.4,3.4,5.4,6.2,9.1,8.2c0.3,0.2,0.7,0.3,1.2,0.6c-0.1-1.7-0.2-3.2-0.3-4.7
		c-0.1-1-0.2-2-0.4-3c-1.3-5.7-4.4-10.1-9.4-13.1c-0.5-0.3-1-0.5-1.6-0.4c-2.8,0.2-5.5-0.4-8.1-1.5C128.1,60.2,127.9,60.1,127.6,60
		L127.6,60L127.6,60z M63.9,61.8c0,0-0.1-0.1-0.2-0.1c-0.1,0.1-0.3,0.1-0.4,0.2c-1,0.9-2.1,1.8-3.1,2.8c-2.9,2.5-6,4.6-9.6,6
		c-1.7,0.7-3.4,1.1-5.2,1c-0.8-0.1-1.1,0.2-1.5,0.8c-1.8,3.5-2.5,7.1-1.9,11c0.2,0.9,0.3,1.8,0.5,2.9c1-0.9,1.8-1.7,2.6-2.6
		c3.5-3.7,7-7.4,10.4-11.2c2.2-2.5,4.4-5.2,6.5-7.8C62.8,63.8,63.3,62.8,63.9,61.8L63.9,61.8L63.9,61.8z M117.4,47.1
		c0,0.1,0,0.2,0,0.2c0.2,0.1,0.4,0.1,0.6,0.2c2.5,0.5,4.8,1.5,7,2.8c4.6,2.8,9.1,5.7,13.8,8.4c3.2,1.9,5.8,4.3,7.3,7.8
		c0,0.1,0.1,0.1,0.3,0.2c0.1-1.6-0.2-3.1-0.5-4.6c-0.5-3.1-1.9-5.7-4.3-7.8c-1.8-1.6-3.7-3-5.9-4.1c-4.8-2.5-9.7-4.1-15.2-3.8
		C119.5,46.4,118.5,46.8,117.4,47.1L117.4,47.1L117.4,47.1z M50.8,101.9c0,0,0.1,0,0.1,0c-0.4-1.8-0.8-3.5-1.1-5.3
		c-0.1-0.4-0.3-0.6-0.7-0.7c-1.7-0.5-3.1,0.1-3.8,1.7c-0.6,1.3-0.8,2.7-0.8,4.1c-0.1,4.3,1,8.3,3,12.1c1.9,3.6,4.7,6.3,8.3,8
		c0.3,0.2,0.7,0.3,1.1,0.5c-0.4-1.6-1-3.1-1.6-4.5c-0.1-0.2-0.3-0.3-0.4-0.4c-1.7-0.7-3-1.9-4.3-3.2c-1.9-2-2.9-4.3-3.3-7
		c0-0.4-0.2-0.9,0.3-1.3c0.2,0.3,0.3,0.5,0.4,0.8c0.2,0.4,0.2,0.8,0.4,1.2c0.5,1.8,1.3,3.4,2.4,4.9c1,1.3,2.3,2.3,3.7,3.1
		c0-0.2-0.1-0.4-0.2-0.6c-0.7-0.9-1.3-1.9-2-2.8c-0.9-1.2-1-2.3-0.4-3.6c0.1-0.3,0.3-0.6,0.2-0.8c-0.2-1-0.4-2.2-0.9-3.1
		c-0.7-1.3-1.7-2.5-2.7-3.8c-0.4,0.5-0.7,1-1.1,1.4c-0.2,0.3-0.4,0.5-0.8,0.3c-0.4-0.2-0.3-0.6,0-0.9c0.4-0.5,0.8-1,1.2-1.6
		c-0.2-0.2-0.5-0.3-0.7-0.5c-0.2-0.1-0.2-0.3-0.4-0.5c0.2-0.1,0.4-0.4,0.5-0.3c0.4,0.1,0.9,0.2,1.1,0.5
		C49.4,100.3,50,101.1,50.8,101.9L50.8,101.9L50.8,101.9z M134.8,122.1c0,0,0.1,0.1,0.1,0.1c0.5-0.3,1.1-0.5,1.6-0.8
		c0.9-0.5,1.8-1.1,2.6-1.7c2.6-1.8,4.3-4.3,5.7-7.1c1.7-3.7,2.7-7.5,2.4-11.6c-0.1-1.1-0.4-2.3-0.7-3.4c-0.2-0.7-0.7-1.3-1.3-1.7
		c-0.9-0.5-1.8-0.5-2.7-0.1c-0.6,0.3-0.6,1-0.7,1.6c0,0.1-0.1,0.2-0.1,0.2c-0.3,1.3-0.6,2.6-0.8,3.9c0.1,0,0.1,0.1,0.1,0.1
		c0.2-0.2,0.4-0.4,0.6-0.6c0.5-0.6,1-1.2,1.5-1.8c0.3-0.2,0.7-0.4,1.1-0.4c0.1,0,0.4,0.2,0.5,0.3c-0.1,0.2-0.2,0.4-0.4,0.5
		c-0.2,0.2-0.5,0.4-0.7,0.5c0.4,0.6,0.8,1,1.2,1.5c0.2,0.3,0.4,0.7,0,0.9c-0.4,0.3-0.6-0.1-0.8-0.3c-0.3-0.4-0.6-0.8-1-1.3
		c-1.4,1.9-3,3.5-3.3,5.8c-0.1,0.8-0.2,1.4,0.1,2.2c0.5,1.1,0.4,2.1-0.3,3.1c-0.9,1.2-1.6,2.4-2.5,3.6c0.2-0.1,0.4-0.1,0.6-0.2
		c2-1.4,3.8-3.1,4.8-5.5c0.4-1.1,0.8-2.2,1.2-3.3c0.1-0.3,0.1-0.8,0.6-0.8c0.3,0.6,0.3,0.9,0.1,1.8c-0.9,4.4-3.4,7.5-7.4,9.6
		c-0.2,0.1-0.5,0.3-0.6,0.5C135.9,119.2,135.3,120.7,134.8,122.1L134.8,122.1L134.8,122.1z M50.3,53.9c2.6-1.7,5.1-3.2,7.8-4.3
		s5.5-1.9,8.5-2.5c-3.2-2.4-4.8-5.5-4.5-9.5C56.6,41.8,52.7,47.2,50.3,53.9L50.3,53.9L50.3,53.9z M146.7,95.8
		c0.6-0.1,0.7-0.1,0.7-0.6c0.2-1.7,0.4-3.3,0.6-5c0-0.4-0.1-0.9-0.4-1.2c-0.4-0.4-0.9-0.8-1.4-1.1c-2.4-1.2-4.6-2.7-6.2-4.9
		c-1.3-1.8-2.5-3.7-3.8-5.5c-0.2-0.3-0.4-0.6-0.5-0.8c-0.1,0.3,0,0.6,0,0.9c0.3,1.2,0.6,2.3,0.9,3.5c1,3.8,1.7,7.7,3.6,11.2
		c0.5,0.8,0.9,1.7,1.3,2.4c1.1-0.2,2-0.7,2.9-0.6C145.4,94.2,146.4,94.7,146.7,95.8L146.7,95.8L146.7,95.8z M123.6,45.1
		c2.9,0.1,5.7,0.9,8.5,1.9c2.8,1.1,5.4,2.3,7.8,4.1c0.1-2.4-5.2-11.5-7.4-13c-0.4,0.8-0.6,1.7-1.1,2.4c-0.7,0.8-1.6,1.6-2.4,2.2
		C127.3,43.8,125.5,44.5,123.6,45.1z M45,95.1c3-1.3,5.1-3.2,6.6-5.8c1.5-2.6,2.4-5.4,2.5-8.4c-0.3,0.2-0.5,0.4-0.6,0.6
		c-1.8,2.1-3.9,3.8-6.3,5c-1,0.5-2.1,0.9-3.3,0.6C44.3,89.8,44.6,92.4,45,95.1L45,95.1L45,95.1z M101,21c-2.2,0.1-4.2,0.5-6.1,1.3
		c-0.2,0.1-0.4,0.4-0.6,0.6c-1,1.9-1.7,4-1.9,6.1C92,32.8,93,36.4,95,39.6c0.1,0.2,0.3,0.4,0.5,0.6C94.3,32.9,95.9,26.6,101,21
		C101,21,101,21,101,21z M45.2,70.4c1.4-0.2,2.7-0.4,4-1c0.1-0.1,0.2-0.1,0.4-0.2c0.9-0.8,1.8-1.6,2.7-2.5c3-2.9,6-5.8,9-8.6
		c0.2-0.2,0.4-0.5,0.7-0.7c-0.2-0.1-0.3,0-0.4,0c-4.4,2.5-8.9,5-12.6,8.5C47.5,67.3,46.3,68.7,45.2,70.4L45.2,70.4L45.2,70.4z
		 M58.9,71.2c-0.1-0.1-0.2-0.2-0.3-0.3c-0.1,0.2-0.2,0.4-0.3,0.6c-2.7,2.9-5.4,5.8-8.1,8.7c-1.7,1.8-3.3,3.6-5,5.4
		c-0.3,0.3-0.5,0.6-0.8,0.9C51.2,83.2,55.2,77.4,58.9,71.2z M88.4,33.9c0.1-0.2,0.1-0.3,0.2-0.4c0.2-1,0.3-2.1,0.5-3.1
		c0.6-3.2,2-6,4.6-8.1c0.2-0.2,0.3-0.5,0.6-1c-1.1,0.1-2.1,0.1-3,0.2c-0.2,0-0.6,0.2-0.7,0.4c-0.6,0.8-1.2,1.6-1.6,2.6
		c-1.1,2.5-1.2,5.1-0.9,7.7C88.1,32.7,88.3,33.2,88.4,33.9L88.4,33.9L88.4,33.9z M122.6,54.2c4.2,4.9,10.5,7.2,16.1,5.9
		C132.9,59.1,127.7,56.6,122.6,54.2z M47.9,58c-2.3,1.7-4.1,5.5-3.1,7.1c0.7-2,1.6-3.8,2.7-5.6C47.7,59.1,47.7,58.6,47.9,58L47.9,58
		L47.9,58z M148.3,72.1c0.5,1.8,0.9,3.6,1,5.4c0.1,1.9,0.2,3.8-0.7,5.6c0.2,0.1,0.5,0.2,0.8,0.4C150.1,79.5,150.3,75.7,148.3,72.1
		L148.3,72.1L148.3,72.1z M48.7,94.3c0.6,0.2,1.3,0.3,1.9,0.5c0.8-1.1,1.8-3.4,1.8-4.3C51.2,91.7,49.9,93,48.7,94.3L48.7,94.3
		L48.7,94.3z M43,89.1c-1.4,1.9-0.8,5.7,1.1,6.5c-0.3-1.1-0.6-2.1-0.8-3.2C43.1,91.3,43.1,90.2,43,89.1z M127.2,42.4
		c2.8-0.8,5-4.3,3.7-5.9C131,39.3,128.9,40.7,127.2,42.4z M149.5,92.3c-0.4,1.5-0.7,3-1.1,4.4c-0.1,0.5-0.1,0.9,0.2,1.5
		C149.5,96.3,150.2,94.4,149.5,92.3z M139.6,61.6c1.1,0.8,2.2,1.6,3.2,2.3c0.1-0.1,0.1-0.1,0.1-0.2c-0.6-0.6-1.3-1.3-1.9-1.9
		C140.6,61.4,140.1,61.4,139.6,61.6L139.6,61.6L139.6,61.6z M50.6,55.7c-0.8,0.2-1.3,0.7-1.5,1.4C49.7,56.9,50.3,56.3,50.6,55.7z"/>
	<path class="st1" d="M99.5,45.3c0.6,0.1,1.2,0.5,1.8,0.2c0.9,0.1,1.9,0.2,2.8,0.4c0.2,0,0.4,0,0.7,0c1.9,0.5,3.8,1.1,5.7,1.6
		c0.2,0.1,0.4,0.2,0.6,0.3c0.2,0.6,0.7,0.2,1,0.4c0.6,0.3,1.2,0.6,1.8,0.8c0.4,0.3,0.8,0.6,1.2,0.9c1.8,1,3.3,2.3,4.8,3.7
		c1.6,1.5,3.3,3.1,4.9,4.6c0.5,0.5,0.8,1,1.2,1.5c0.4,0.4,0.8,0.8,1.2,1.3c0.1,0.3,0.2,0.6,0.4,0.9c0.5,0.9,1.1,1.6,1.2,2.7
		c2.5,3.9,4.4,8,5.4,12.5c0.8,3.5,1.7,7,2.6,10.4c0.7,2.6,1.8,5.1,3.2,7.4c0.1,0.2,0.2,0.5,0.2,0.8c-1.8,9.4-4.1,18.8-8.1,27.5
		c-2.9,6.3-6.3,12.4-11,17.6c-5,5.6-10.8,10.3-17.5,13.8c-1.8,0.9-3.7,1.7-5.8,2c-2.3,0.3-4.5,0.1-6.7-0.6c-2.4-0.9-4.6-2-6.7-3.4
		c-6.7-4.3-12.8-9.4-17.3-16.1c-4.4-6.4-8-13.2-10.5-20.6c-2-5.8-3.5-11.6-4.7-17.6c-0.3-1.7-0.5-3.1,0.6-4.6c1.3-2,1.6-4.5,2-6.8
		c0.5-2.9,0.9-5.9,1.8-8.8c0.1-0.4,0.3-0.9,0.5-1.3c2.6-3.8,4.6-7.9,6.7-12c1-2,1.9-4,2.9-6c0.1-0.2,0.3-0.5,0.5-0.7
		c0.6-0.7,1.2-1.3,1.8-2c0.4-0.4,0.8-0.8,1.2-1.2c1.6-1.7,3.4-3.3,5.3-4.6l0.5-0.2c1.9-1.2,3.8-2.1,6-2.6c0.6,0.1,1.1,0.2,1.7,0.2
		c0-0.1,0.1-0.1,0.1-0.2c-0.1-0.1-0.2-0.2-0.4-0.4c1.7-0.4,3.3-0.8,5-1.2c0.8-0.2,1.5-0.2,2.3-0.3c0.1,0,0.2,0,0.3,0
		c1.2-0.1,2.5-0.3,3.7-0.3C96.1,45.3,97.8,45.3,99.5,45.3L99.5,45.3L99.5,45.3z M97.8,139.2c0,0,0.1,0,0.1,0
		c0.3-0.1,0.6-0.1,0.9-0.2c1.7-0.4,3.2-1,4.6-2c1-0.8,2-1.5,2.7-2.6c0.2-0.4,0.4-0.7,0.7-1.1c0.4-0.4,0.5-0.9,0.1-1.3
		c-0.4-0.4-0.8-0.3-1.2,0c-0.2,0.1-0.4,0.1-0.6,0.2c-0.8,0.1-1.6,0.1-2.4,0.2c-1.8,0.2-3.6,0.4-5.3,0.6c-0.6,0.1-1.2,0.3-1.7,0.2
		c-1.8-0.2-3.6-0.5-5.4-0.7c-1.2-0.1-2.4-0.2-3.6-0.2c-0.3-0.1-0.6-0.3-0.9-0.3c-0.3,0-0.7,0-0.9,0.2c-0.3,0.2-0.3,0.7-0.1,1
		c0.1,0.2,0.3,0.3,0.5,0.5c0.1,0.3,0.2,0.6,0.3,0.9c0.7,0.8,1.4,1.6,2.2,2.2c1.7,1.4,3.7,2.3,6,2.4c0.1,0,0.1,0.1,0.2,0.1
		c0.8,0.5,1.8,0.6,2.8,0.5C97.1,139.6,97.4,139.4,97.8,139.2L97.8,139.2L97.8,139.2z M112,101.3c0.5-0.1,0.9-0.3,1.4-0.3
		c0.5-0.1,0.9,0.2,1.1,0.7c0.2,0.5,0,0.9-0.4,1.2c-0.3,0.3-0.8,0.5-1.1,0.8c-0.3,0.1-0.7,0.3-1,0.4c1.5,2.1,5.2,2.5,7.4,1.2
		c1.3-0.9,2-2.2,2.3-3.7c0.4-2.1,0-4-1.5-5.6c1,0.2,2,0.5,2.9,0.8c1.8,0.6,2.6,2,2.8,3.8c0.1,0.7-0.1,1.5-0.1,2.2
		c-0.1,0.6,0.2,0.9,0.8,0.7c0.4-0.1,0.8-0.4,1.1-0.7c0.9-0.8,1.4-1.8,1.4-3.1c0.4-0.1,0.7-0.1,1-0.2c0.6-0.2,1.3-0.3,1.9-0.6
		c0.5-0.2,0.9-0.5,0.7-1.2c-0.9,0-1.9-0.2-2.9-0.1c-1.2,0.1-2-0.3-2.5-1.3c0.8-0.3,1.6-0.6,2.4-1c0.2-0.1,0.4-0.4,0.6-0.7
		c-0.3-0.1-0.6-0.3-0.8-0.3c-0.8,0.1-1.6,0.2-2.3,0.3c-1.1,0.1-2.1,0.2-3.1-0.4c-0.7-0.4-1.6-0.7-2.4-0.9c-3.1-0.9-6.1-0.5-9.1,0.4
		c-2.3,0.7-4.2,1.9-5.7,3.8c-0.3,0.3-0.5,0.7-0.6,1.1c-0.1,0.4,0.2,0.6,0.6,0.4c0.1-0.1,0.2-0.2,0.4-0.2c1.5-0.9,3.1-1.8,4.6-2.6
		c0.2-0.1,0.4-0.1,0.7-0.2c-1.6,1.8-2.1,3.7-1.6,5.9C111.2,101.7,111.6,101.5,112,101.3C112,101.4,112,101.3,112,101.3z M73.1,103.6
		c-0.4,0.2-0.8,0.3-1.2,0.5c1.3,2.2,5.5,2.6,8,0.5c1.2-1,1.7-2.3,1.8-3.7c0.2-1.9-0.4-3.5-1.9-4.9c0.3,0.1,0.5,0.2,0.7,0.2
		c1.6,0.9,3.2,1.8,4.8,2.8c0.2,0.1,0.5,0.1,0.7,0.2c0-0.3,0.1-0.6,0-0.8c-0.2-0.5-0.5-0.9-0.9-1.3c-1.7-1.8-3.9-3-6.3-3.6
		c-3.4-0.8-6.8-0.9-10.1,0.7c-1.4,0.7-2.8,0.7-4.3,0.5c-0.8-0.1-1.6-0.2-2.4-0.2c-0.2,0-0.3,0.1-0.5,0.2c0.1,0.2,0.1,0.4,0.3,0.6
		c0.2,0.2,0.4,0.3,0.7,0.4c0.7,0.3,1.5,0.6,2.2,0.8c-0.6,1.1-1.6,1.3-2.8,1.2c-1,0-1.9,0.1-3,0.1c0.1,0.3,0.2,0.6,0.3,0.8
		c0.9,0.9,2.2,0.8,3.4,1.2c0,0.2,0,0.4,0,0.6c0.2,1.4,0.9,2.5,2.2,3.2c0.2,0.1,0.6,0.2,0.8,0c0.2-0.1,0.2-0.5,0.2-0.8
		c0-0.3-0.1-0.7-0.2-1c-0.3-1.5,0.1-2.8,1.3-3.8c1.3-1,2.8-1.6,4.4-1.9c0.2,0,0.4,0,0.7,0c-1.5,1.8-1.9,3.7-1.3,5.9
		c0.4-0.2,0.8-0.4,1.2-0.6c0.5-0.1,1-0.2,1.5-0.3c0.5-0.1,0.9,0.2,1,0.7c0.1,0.3-0.1,0.8-0.3,1.1C74,103.1,73.5,103.3,73.1,103.6
		C73.1,103.6,73.1,103.6,73.1,103.6z M73.9,83.5c-2.1,0.2-4.3,0.3-6.4,0.5c-2.2,0.2-4.2,1-6.1,2c-0.4,0.2-0.7,0.5-1,0.8
		c-0.4,0.4-0.2,0.8,0.3,0.9c0.2,0,0.5,0,0.7,0c0.8-0.2,1.7-0.3,2.5-0.5c4.3-1.1,8.6-1.1,13-0.5c2.4,0.3,4.8,0.6,7.1,0.8
		c0.7,0.1,1.4,0,2.1-0.1c0.6-0.1,1.2-0.7,1.2-1.3c0-0.5-0.2-0.9-1-1.1c-0.3-0.1-0.6-0.1-0.8-0.2C81.7,83.9,77.8,83.7,73.9,83.5
		L73.9,83.5L73.9,83.5z M117.8,83.6c-1.8,0.1-3.6,0.2-5.4,0.3c-2.4,0.2-4.8,0.6-7.1,1.2c-0.5,0.2-1,0.4-1,1c0,0.5,0.5,1.2,1.1,1.3
		c0.2,0,0.3,0.1,0.5,0.1c1.2,0,2.4,0,3.6-0.1c3-0.3,6-0.7,8.9-1c2.4-0.3,4.7,0,7.1,0.4c1.5,0.3,3,0.6,4.6,0.9
		c0.5,0.1,1.1,0.3,1.3-0.2c0.2-0.6-0.4-0.9-0.8-1.1c-1.3-0.6-2.7-1.3-4.1-1.7C123.8,83.7,120.8,83.6,117.8,83.6
		C117.8,83.6,117.8,83.6,117.8,83.6z M64.4,93.8c0.1,0.1,0.1,0.2,0.2,0.3c0.9-0.3,1.8-0.6,2.7-0.9c2-0.7,4-1.3,6.1-1.4
		c4.1-0.2,8.1,0.2,11.8,2.1c0.3,0.1,0.6,0.2,0.8,0.2c0.2-0.6-0.1-0.8-0.4-1c-0.6-0.3-1.2-0.7-1.8-0.9c-2.3-1-4.7-1.3-7.1-1.5
		c-3.8-0.3-7.6,0.3-11,2.2C65.3,93.1,64.8,93.5,64.4,93.8L64.4,93.8L64.4,93.8z M127.6,94.1c0-0.2,0-0.4-0.1-0.5
		c-0.3-0.3-0.6-0.6-1-0.8c-1.3-0.6-2.6-1.2-3.9-1.6c-3.8-1.1-7.7-0.8-11.6,0.1c-1.5,0.3-3,0.8-4.3,1.8c-0.2,0.2-0.5,0.6-0.5,0.8
		c0.2,0.4,0.6,0.1,0.9,0c5.5-2.5,11.2-2.9,17-1C125.2,93.3,126.4,93.7,127.6,94.1L127.6,94.1z M94.5,122.2c-0.1-0.4-0.3-0.8-0.4-1.2
		c-0.3-1-0.5-2.1-0.8-3.1c-0.1-0.2-0.3-0.5-0.4-0.6c-0.2,0-0.6,0.1-0.7,0.3c-0.3,0.5-0.6,1-0.7,1.6c-0.1,0.3,0,0.9,0.2,1.1
		c0.8,0.7,1.6,1.3,2.4,1.9C94.1,122.3,94.2,122.3,94.5,122.2L94.5,122.2L94.5,122.2z M99.4,120.4c-0.8,0.4-1.7,0.8-2.5,1.2
		c-0.1,0.1-0.2,0.5-0.1,0.7c0,0.1,0.4,0.2,0.6,0.2c0.8-0.3,1.7-0.6,2.5-1c0.2-0.1,0.3-0.4,0.3-0.6
		C100.1,120.7,99.8,120.6,99.4,120.4L99.4,120.4L99.4,120.4z M125.9,105.8c0-0.8-1-1.7-1.6-1.6c-0.2,0-0.4,0.2-0.5,0.3
		s0,0.4,0.1,0.5c0.4,0.4,0.9,0.7,1.4,1C125.5,106,125.8,105.8,125.9,105.8L125.9,105.8L125.9,105.8z M66,106.1
		c0.6-0.4,1.2-0.8,1.7-1.2c0.3-0.2,0.1-0.8-0.3-0.7c-0.4,0.1-0.9,0.3-1.2,0.5C65.9,105,65.6,105.4,66,106.1L66,106.1L66,106.1z
		 M123.3,106.9c0.2-0.6-0.1-1-0.5-1.4c-0.1-0.1-0.4-0.1-0.5-0.1c-0.1,0.1-0.2,0.3-0.2,0.5C122.2,106.4,122.8,106.8,123.3,106.9z
		 M69.8,105.9c-0.2-0.2-0.2-0.4-0.4-0.5c-0.1-0.1-0.4,0-0.5,0.1c-0.2,0.3-0.4,0.7-0.6,1.1c0,0,0.3,0.3,0.4,0.3
		C69.1,106.6,69.4,106.3,69.8,105.9L69.8,105.9L69.8,105.9z"/>
	<path class="st3" d="M104.2,45.8c-0.9-0.1-1.9-0.2-2.8-0.4c-0.2-0.2-0.3-0.3-0.5-0.5c-0.9-0.6-1.9-1.2-2.8-1.9
		c-0.3-0.2-0.5-0.6-0.7-1c-1.1-2.7-1.2-5.5-0.9-8.3c0.4-3.3,1.4-6.3,3.2-9c0.8-1.2,1.8-2.2,2.7-3.3c0.3-0.4,0.7-0.5,1.2-0.4
		c2.1,0.3,4.2,0.8,6.1,1.6c0.4,0.2,0.9,0.4,1.3,0.7c0,0.2,0.1,0.5,0.1,0.6c0.4,0.8,0.9,1.6,1.2,2.4c0.6,1.3,1.2,2.7,1.3,4.2
		c0.2,4.1-1.1,7.7-3.9,10.7c-1.3,1.3-2.8,2.4-4.3,3.3C104.9,44.8,104.3,45.1,104.2,45.8L104.2,45.8L104.2,45.8z"/>
	<path class="st3" d="M99.5,45.3c-1.7,0-3.5,0-5.2,0c-1.2,0-2.5,0.2-3.7,0.3c-0.3-0.2-0.5-0.4-0.8-0.5c-2.8-0.6-5.4-1.4-8-2.5
		c-3.3-1.4-6-3.6-7.5-7c-0.7-1.5-1-3.1-0.8-4.7c0.2-1.6,1-2.9,2.2-3.8c1.9-1.5,4-2.6,6.3-3.4c2.3-0.9,4.7-1.6,7.1-2
		c-0.5,1-1.1,1.9-1.4,2.8c-1.2,3.4-1.4,6.8-0.2,10.2c0.8,2.4,1.8,4.7,2.8,7.1c0.4,0.8,1,1.6,1.6,2.3c0.2,0.3,0.7,0.5,1,0.8
		c0.1,0,0.1-0.1,0.2-0.2c-0.1-0.2-0.1-0.5-0.3-0.7c-2.5-3-3.4-6.5-3.1-10.4c0.1-2,0.5-4,1.3-5.8c0.1-0.2,0.2-0.4,0.3-0.6
		c0,0,0.1,0,0.2-0.1c0,0.2,0,0.4,0,0.5c-0.7,3.3-0.1,6.5,1.1,9.6c1.4,3.3,3.6,5.9,6.7,7.8C99.4,45.1,99.4,45.2,99.5,45.3z"/>
	<path class="st3" d="M90.3,45.7c-0.8,0.1-1.5,0.2-2.3,0.3c-1.7,0.4-3.3,0.8-5,1.2c-1.6-0.7-3.2-1.4-4.8-2.2
		c-1.8-0.8-3.2-2.1-4.3-3.7c-1.3-2-2.4-4-2.4-6.5c0-0.3-0.1-0.6-0.2-1.1c-0.2,0.3-0.3,0.4-0.3,0.5c-0.1,0.9-0.2,1.7-0.1,2.6
		c0.3,1.8,1.1,3.3,2,4.9c1.3,2.1,3.1,3.8,5.5,4.7c1.1,0.4,2.2,0.8,3.3,1.2c-2.1,0.5-4.1,1.4-6,2.6c0-0.7-0.2-0.9-1-0.7
		c-1.5,0.2-3,0.7-4.3,1.5c-5.1,3.3-10.7,5.8-15.8,9c-3.1,2-6,4.2-8.5,6.8c-0.2,0.2-0.3,0.3-0.5,0.5c-0.1,0-0.1-0.1-0.2-0.1
		c0.4-1.2,0.8-2.4,1.3-3.6c1.9-4.6,5.3-7.9,9.6-10.2c3.9-2.1,7.9-3.6,12.2-4.8c0.6-0.2,1.2-0.2,1.8,0c1.7,0.5,3.4,0.7,5.1,0.3
		c0.1,0,0.2-0.1,0.3-0.1c0,0,0,0,0.1-0.2c-0.2,0-0.3-0.1-0.5-0.1c-1.9,0.1-3.5-0.5-4.9-1.7c-1-0.9-2.1-1.8-3-2.9
		c-1.5-1.7-1.9-3.8-1.8-6.1c0.1-1.3,0.4-2.6,0.9-3.8c0.1-0.3,0.2-0.7,0.2-1.1c-0.1,0-0.1-0.1-0.2-0.1c-0.2,0.2-0.5,0.4-0.7,0.7
		c-2.5,3.6-1.7,9.5,1.3,11.9c0.1,0.1,0.1,0.2,0.1,0.4c-0.2-0.1-0.4-0.1-0.5-0.2c-2-1.6-3.1-3.6-3.6-6.1c-0.4-2.1,0.3-3.7,1.6-5.2
		c2.1-2.5,4.7-4.4,7.7-5.8c-0.6,1.3-1.7,2.5-1.4,4.2c0.8-0.3,0.7-1.2,1.2-1.6c0.1,1,0,1.9,0.2,2.7c0.8,4.1,3.2,7.1,6.8,9.1
		C82.7,44.8,86.4,45.7,90.3,45.7L90.3,45.7L90.3,45.7z"/>
	<path class="st3" d="M111.2,47.8c-0.2-0.1-0.4-0.3-0.6-0.3c-1.9-0.5-3.8-1.1-5.7-1.6c0.4-0.2,0.7-0.3,1.1-0.5
		c2.4-1,4.4-2.5,5.9-4.6c1.1-1.5,2.2-3.1,3.2-4.8c0.9-1.4,1.5-3,1.7-4.7c0.2-1.6-0.1-3.1-0.9-4.5c-0.2-0.3-0.4-0.7-1.1-0.7
		c0.1,0.3,0.1,0.6,0.2,0.9c0.2,0.9,0.5,1.7,0.6,2.6c0.2,1,0,1.9-0.5,2.8c-0.1-0.5-0.2-1-0.1-1.4c0.1-1.8-0.4-3.4-1.3-4.8
		c-0.5-0.8-1.1-1.6-1.6-2.3c1.4,0.8,2.7,1.5,4.1,2.2c0.7,0.4,1.4,0.7,2.1,1.1c0.2,0.1,0.5,0.4,0.6,0.7c0.4,1.3,0.2,2.6-0.1,4
		c-0.4,2-1.1,3.8-2.2,5.5c-1.6,2.6-3.3,5.1-5.4,7.3c-0.3,0.3-0.6,0.6-1,1c0.9,0.2,1.4-0.2,1.9-0.7c0.9-0.8,1.8-1.6,2.6-2.5
		c1.7-2,3.3-4.1,4.3-6.5c1-2.3,1.6-4.7,1.3-7.2c0-0.4-0.1-0.7-0.1-1.2c0.7-0.1,1.3,0.2,1.9,0.5c2.8,1.3,4.9,3.4,6.7,5.9
		c0.6,0.8,0.9,1.6,0.9,2.6c0,0.9-0.2,1.7-0.8,2.3c-1.1,1.4-2.4,2.4-3.8,3.3c-2.7,1.9-5.8,3.1-9,4.1
		C114.5,46.7,112.8,47.2,111.2,47.8L111.2,47.8L111.2,47.8z"/>
	<path class="st3" d="M127.6,60c0.3,0.1,0.5,0.1,0.8,0.2c2.6,1.1,5.3,1.8,8.1,1.5c0.6,0,1.1,0.1,1.6,0.4c5,3.1,8.1,7.4,9.4,13.1
		c0.2,1,0.3,2,0.4,3c0.1,1.5,0.2,3,0.3,4.7c-0.5-0.2-0.9-0.4-1.2-0.6c-3.7-2-6.7-4.7-9.1-8.2c-1.5-2.2-3-4.5-4.5-6.7
		c-1.2-1.8-2.5-3.6-3.8-5.3c-0.5-0.6-1.1-1.1-1.6-1.6c-0.2-0.2-0.3-0.3-0.4-0.5L127.6,60C127.6,60,127.6,60,127.6,60z"/>
	<path class="st3" d="M63.9,61.8c-0.6,1-1.1,2-1.9,3c-2.1,2.6-4.2,5.3-6.5,7.8c-3.4,3.8-6.9,7.5-10.4,11.2c-0.8,0.9-1.7,1.7-2.6,2.6
		c-0.2-1.1-0.4-2-0.5-2.9c-0.6-3.9,0.1-7.5,1.9-11c0.3-0.6,0.6-0.9,1.5-0.8c1.8,0.2,3.6-0.3,5.2-1c3.5-1.4,6.7-3.5,9.6-6
		c1-0.9,2.1-1.8,3.1-2.8c0.1-0.1,0.3-0.2,0.4-0.2C63.8,61.7,63.9,61.8,63.9,61.8L63.9,61.8L63.9,61.8z"/>
	<path class="st3" d="M117.4,47.1c1-0.2,2-0.6,3.1-0.7c5.4-0.3,10.4,1.4,15.2,3.8c2.1,1.1,4.1,2.5,5.9,4.1c2.4,2.1,3.8,4.7,4.3,7.8
		c0.2,1.5,0.6,2.9,0.5,4.6c-0.1-0.1-0.2-0.2-0.3-0.2c-1.5-3.4-4.1-5.9-7.3-7.8c-4.6-2.8-9.2-5.6-13.8-8.4c-2.2-1.3-4.5-2.2-7-2.8
		c-0.2,0-0.4-0.1-0.6-0.2C117.5,47.2,117.4,47.2,117.4,47.1L117.4,47.1L117.4,47.1z"/>
	<path class="st1" d="M50.8,101.9c-0.7-0.8-1.3-1.7-2.1-2.4c-0.3-0.3-0.7-0.4-1.1-0.5c-0.1,0-0.4,0.2-0.5,0.3
		c0.1,0.2,0.2,0.4,0.4,0.5c0.2,0.2,0.5,0.4,0.7,0.5c-0.5,0.6-0.9,1-1.2,1.6c-0.2,0.3-0.4,0.7,0,0.9c0.4,0.2,0.6-0.1,0.8-0.3
		c0.3-0.4,0.7-0.8,1.1-1.4c1,1.4,2,2.5,2.7,3.8c0.5,0.9,0.6,2,0.9,3.1c0,0.2-0.1,0.6-0.2,0.8c-0.6,1.3-0.5,2.5,0.4,3.6
		c0.7,0.9,1.3,1.9,2,2.8c0.1,0.2,0.2,0.3,0.2,0.6c-1.4-0.9-2.7-1.8-3.7-3.1c-1.2-1.4-1.9-3.1-2.4-4.9c-0.1-0.4-0.2-0.8-0.4-1.2
		c-0.1-0.2-0.3-0.5-0.4-0.8c-0.5,0.4-0.4,0.9-0.3,1.3c0.4,2.7,1.4,5.1,3.3,7c1.2,1.3,2.6,2.5,4.3,3.2c0.2,0.1,0.4,0.2,0.4,0.4
		c0.6,1.5,1.1,2.9,1.6,4.5c-0.3-0.2-0.7-0.3-1.1-0.5c-3.7-1.7-6.5-4.4-8.3-8c-2-3.8-3.1-7.8-3-12.1c0-1.4,0.2-2.8,0.8-4.1
		c0.8-1.6,2.2-2.2,3.8-1.7c0.4,0.1,0.6,0.3,0.7,0.7c0.4,1.8,0.7,3.6,1.1,5.3C50.9,101.9,50.8,101.9,50.8,101.9L50.8,101.9
		L50.8,101.9z"/>
	<path class="st1" d="M134.8,122.1c0.6-1.4,1.1-2.9,1.6-4.3c0.1-0.2,0.3-0.4,0.6-0.5c3.9-2.1,6.5-5.2,7.4-9.6
		c0.2-0.9,0.1-1.2-0.1-1.8c-0.5,0.1-0.5,0.5-0.6,0.8c-0.4,1.1-0.7,2.2-1.2,3.3c-1,2.4-2.8,4-4.8,5.5c-0.1,0.1-0.4,0.1-0.6,0.2
		c0.9-1.3,1.6-2.5,2.5-3.6c0.7-1,0.9-2,0.3-3.1c-0.4-0.7-0.2-1.4-0.1-2.2c0.4-2.3,2-3.9,3.3-5.8c0.4,0.5,0.7,0.9,1,1.3
		c0.2,0.3,0.4,0.6,0.8,0.3c0.4-0.3,0.2-0.6,0-0.9c-0.4-0.5-0.8-0.9-1.2-1.5c0.2-0.2,0.4-0.3,0.7-0.5c0.1-0.1,0.2-0.3,0.4-0.5
		c-0.2-0.1-0.4-0.4-0.5-0.3c-0.4,0.1-0.8,0.2-1.1,0.4c-0.6,0.5-1,1.2-1.5,1.8c-0.2,0.2-0.4,0.4-0.6,0.6c-0.1,0-0.1-0.1-0.1-0.1
		c0.3-1.3,0.6-2.6,0.8-3.9c0-0.1,0.1-0.2,0.1-0.2c0.1-0.6,0.1-1.3,0.7-1.6c0.9-0.4,1.8-0.3,2.7,0.1c0.7,0.4,1.1,0.9,1.3,1.7
		c0.3,1.1,0.6,2.2,0.7,3.4c0.3,4.1-0.7,7.9-2.4,11.6c-1.3,2.8-3.1,5.3-5.7,7.1c-0.8,0.6-1.8,1.1-2.6,1.7c-0.5,0.3-1.1,0.5-1.6,0.8
		C134.8,122.2,134.8,122.2,134.8,122.1L134.8,122.1L134.8,122.1z"/>
	<path class="st3" d="M50.3,53.9c2.4-6.7,6.3-12.1,11.9-16.3c-0.3,4,1.2,7.1,4.5,9.5c-3,0.7-5.8,1.5-8.5,2.5
		C55.4,50.7,52.9,52.2,50.3,53.9L50.3,53.9L50.3,53.9z"/>
	<path class="st3" d="M146.7,95.8c-0.3-1.1-1.3-1.5-2.2-1.6c-0.9-0.1-1.8,0.3-2.9,0.6c-0.4-0.7-0.8-1.6-1.3-2.4
		c-1.9-3.5-2.6-7.4-3.6-11.2c-0.3-1.2-0.6-2.3-0.9-3.5c-0.1-0.3-0.1-0.5,0-0.9c0.2,0.3,0.3,0.6,0.5,0.8c1.2,1.8,2.4,3.7,3.8,5.5
		c1.6,2.2,3.9,3.6,6.2,4.9c0.5,0.3,1.1,0.6,1.4,1.1c0.3,0.3,0.4,0.8,0.4,1.2c-0.1,1.7-0.4,3.3-0.6,5
		C147.4,95.7,147.4,95.7,146.7,95.8L146.7,95.8L146.7,95.8z"/>
	<path class="st3" d="M123.6,45.1c1.9-0.6,3.7-1.3,5.3-2.4c0.9-0.6,1.8-1.3,2.4-2.2c0.5-0.7,0.8-1.6,1.1-2.4
		c2.2,1.4,7.5,10.5,7.4,13c-2.4-1.7-5.1-3-7.8-4.1C129.3,46,126.6,45.2,123.6,45.1z"/>
	<path class="st3" d="M45,95.1c-0.4-2.7-0.7-5.3-1.1-8c1.2,0.3,2.2-0.1,3.3-0.6c2.4-1.3,4.6-2.9,6.3-5c0.2-0.2,0.4-0.4,0.6-0.6
		c-0.1,3-1,5.8-2.5,8.4C50.1,91.9,48,93.8,45,95.1L45,95.1L45,95.1z"/>
	<path class="st3" d="M101,21c-5.1,5.6-6.7,11.9-5.4,19.2c-0.2-0.2-0.4-0.4-0.5-0.6c-2.1-3.3-3-6.8-2.6-10.7
		c0.2-2.1,0.9-4.2,1.9-6.1c0.1-0.2,0.3-0.5,0.6-0.6C96.8,21.5,98.8,21.1,101,21C101,21,101,21,101,21z"/>
	<path class="st4" d="M112,23.8c0.5,0.8,1.1,1.5,1.6,2.3c0.9,1.5,1.5,3.1,1.3,4.8c0,0.5,0,0.9,0.1,1.4c0.5-0.9,0.7-1.8,0.5-2.8
		c-0.2-0.9-0.4-1.7-0.6-2.6c-0.1-0.3-0.1-0.6-0.2-0.9c0.6,0,0.8,0.4,1.1,0.7c0.9,1.4,1.1,2.9,0.9,4.5c-0.2,1.7-0.8,3.3-1.7,4.7
		c-1,1.6-2,3.2-3.2,4.8c-1.5,2.1-3.6,3.6-5.9,4.6c-0.4,0.2-0.7,0.3-1.1,0.5c-0.2,0-0.4,0-0.7,0c0.2-0.7,0.7-1,1.3-1.3
		c1.6-0.9,3.1-1.9,4.3-3.3c2.9-3,4.2-6.6,3.9-10.7c-0.1-1.5-0.6-2.9-1.3-4.2c-0.4-0.8-0.8-1.6-1.2-2.4c-0.1-0.2-0.1-0.4-0.1-0.6
		L112,23.8L112,23.8L112,23.8z"/>
	<path class="st3" d="M113.9,49c-0.6-0.3-1.2-0.6-1.8-0.8c0.4-0.1,0.7-0.1,1.1-0.2c0.1,0,0.3-0.1,0.4,0c1.1,0.6,2.3,0.2,3.5,0.4
		c3,0.6,5.6,1.8,8.2,3.4c3.4,2.1,6.8,4.2,10.2,6.2c0.1,0.1,0.2,0.1,0.2,0.4c-0.3-0.1-0.6-0.1-0.9-0.2c-3-0.9-5.9-2.1-8.7-3.4
		c-2.2-1.1-4.5-2.2-6.7-3.3c-0.8-0.4-1.5-1-2.3-1.4C116.1,49.6,115,49.3,113.9,49L113.9,49L113.9,49z"/>
	<path class="st3" d="M45.2,70.4c1-1.7,2.3-3.1,3.7-4.4c3.8-3.5,8.2-6,12.6-8.5c0.1,0,0.2-0.1,0.4,0c-0.2,0.2-0.4,0.5-0.7,0.7
		c-3,2.9-6,5.8-9,8.6c-0.9,0.8-1.8,1.7-2.7,2.5c-0.1,0.1-0.2,0.2-0.4,0.2C48,70.1,46.6,70.2,45.2,70.4L45.2,70.4L45.2,70.4z"/>
	<path class="st3" d="M75.2,50.4c-1.9,1.4-3.7,2.9-5.3,4.6c-0.4,0.4-0.8,0.8-1.2,1.2c0.3-0.8,0.9-1.4,0.9-2.5
		c-5.2,5.8-10.6,11-17.3,14.6c-0.1-0.1-0.1-0.1-0.2-0.2c0.2-0.2,0.4-0.4,0.6-0.6c2.2-2,4.5-4,6.8-6.1c1.7-1.5,3.2-3.1,4.9-4.7
		c2.1-2,4.4-3.9,7.1-5.1C72.6,51.1,73.9,50.8,75.2,50.4L75.2,50.4L75.2,50.4z"/>
	<path class="st3" d="M134.2,71c1.4,2,2.7,4,4.1,6c1.7,2.3,3.7,4.1,6.1,5.6c0.5,0.3,1.1,0.6,1.7,0.8c0.4,0.2,0.9,0.4,1.4,0.6
		c1.5,0.8,2.2,2,1.6,4.2c-2.3-0.9-4.2-2.3-6-3.9c-2.6-2.2-4.4-5.1-6.1-7.9c-1-1.7-2-3.4-3-5.2C134.1,71.1,134.2,71.1,134.2,71
		L134.2,71L134.2,71z"/>
	<path class="st3" d="M58.9,71.2c-3.7,6.2-7.7,12-14.5,15.3c0.3-0.3,0.5-0.6,0.8-0.9c1.7-1.8,3.3-3.6,5-5.4c2.7-2.9,5.4-5.8,8.1-8.7
		c0.2-0.2,0.2-0.4,0.3-0.6C58.7,71,58.8,71.1,58.9,71.2z"/>
	<path class="st3" d="M88.4,33.9c-0.1-0.7-0.3-1.2-0.3-1.7c-0.3-2.6-0.2-5.3,0.9-7.7c0.4-0.9,1-1.7,1.6-2.6c0.1-0.2,0.5-0.4,0.7-0.4
		c0.9-0.1,1.8-0.1,3-0.2c-0.3,0.5-0.4,0.8-0.6,1c-2.6,2.1-4.1,4.8-4.6,8.1c-0.2,1-0.3,2.1-0.5,3.1C88.6,33.5,88.5,33.6,88.4,33.9
		L88.4,33.9L88.4,33.9z"/>
	<path class="st3" d="M122.6,54.2c5.2,2.4,10.3,4.9,16.1,5.9C133.1,61.4,126.7,59.1,122.6,54.2z"/>
	<path class="st5" d="M48.7,94.2c1.2-1.3,2.5-2.5,3.7-3.8c0,0.8-1,3.2-1.8,4.3C49.9,94.6,49.3,94.4,48.7,94.2L48.7,94.2L48.7,94.2z"
		/>
	<path class="st6" d="M134.2,71c-0.1,0.1-0.1,0.1-0.2,0.2c-1.1-1.6-2.1-3.2-3.2-4.8c-0.5-0.8-1.1-1.5-1.7-2.4
		c-0.2,0.4-0.2,0.5-0.3,0.7c-0.1-1-0.7-1.8-1.2-2.7c-0.2-0.3-0.3-0.6-0.4-0.9c0.4,0.4,0.9,0.8,1.2,1.3
		C130.4,65.1,132.3,68.1,134.2,71L134.2,71L134.2,71z"/>
	<path class="st7" d="M127.2,42.4c1.7-1.6,3.8-3,3.7-5.9C132.2,38.1,130,41.5,127.2,42.4z"/>
	<path class="st8" d="M139.6,61.6c0.6-0.2,1-0.2,1.4,0.3c0.6,0.7,1.3,1.3,1.9,1.9c-0.1,0.1-0.1,0.1-0.1,0.2
		C141.8,63.2,140.7,62.4,139.6,61.6L139.6,61.6L139.6,61.6z"/>
	<path class="st9" d="M50.6,55.6c-0.3,0.7-0.9,1.2-1.5,1.4C49.3,56.3,49.8,55.8,50.6,55.6z"/>
	<path class="st2" d="M72,101.3c-0.4,0.2-0.8,0.4-1.2,0.6c-0.6-2.2-0.2-4.1,1.3-5.9c-0.3,0-0.5-0.1-0.7,0c-1.6,0.4-3.1,0.9-4.4,1.9
		c-1.2,1-1.6,2.3-1.3,3.8c0.1,0.3,0.2,0.7,0.2,1c0,0.3,0,0.7-0.2,0.8c-0.2,0.1-0.6,0.1-0.8,0c-1.3-0.7-2-1.8-2.2-3.2
		c0-0.2,0-0.4,0-0.6c-1.2-0.4-2.5-0.2-3.4-1.2c-0.2-0.2-0.2-0.4-0.3-0.8c1.1,0,2-0.1,3-0.1c1.2,0,2.2-0.1,2.8-1.2
		c-0.7-0.3-1.5-0.5-2.2-0.8c-0.2-0.1-0.5-0.2-0.7-0.4c-0.1-0.1-0.2-0.4-0.3-0.6c0.2-0.1,0.4-0.2,0.5-0.2c0.8,0.1,1.6,0.1,2.4,0.2
		c1.5,0.2,2.9,0.2,4.3-0.5c3.2-1.6,6.7-1.5,10.1-0.7c2.5,0.6,4.6,1.7,6.3,3.6c0.3,0.4,0.7,0.8,0.9,1.3c0.1,0.2,0,0.5,0,0.8
		c-0.2-0.1-0.5-0.1-0.7-0.2c-1.6-0.9-3.2-1.8-4.8-2.8c-0.2-0.1-0.4-0.1-0.7-0.2c1.4,1.4,2,3.1,1.9,4.9c-0.1,1.5-0.7,2.8-1.8,3.7
		c-2.5,2.1-6.7,1.6-8-0.5c0.4-0.2,0.8-0.3,1.2-0.5c0.2,0.2,0.5,0.3,0.7,0.5c2.2,1.4,5.9,0.3,6.5-2.5c0.2-0.9,0.2-1.9-0.1-2.8
		c-1-3-5.1-3.9-7.1-1.7C72,98.4,71.7,99.8,72,101.3C72,101.4,72,101.3,72,101.3z"/>
	<path class="st2" d="M112,101.3c-0.4,0.2-0.7,0.3-1.2,0.5c-0.5-2.2,0-4.1,1.6-5.9c-0.4,0.1-0.6,0.2-0.7,0.2
		c-1.5,0.9-3.1,1.8-4.6,2.6c-0.1,0.1-0.2,0.2-0.4,0.2c-0.4,0.2-0.7,0-0.6-0.4c0.1-0.4,0.3-0.8,0.6-1.1c1.5-1.9,3.4-3.1,5.7-3.8
		c3-0.9,6-1.2,9.1-0.4c0.8,0.2,1.7,0.5,2.4,0.9c1,0.6,2,0.5,3.1,0.4c0.8-0.1,1.5-0.2,2.3-0.3c0.3,0,0.6,0.2,0.8,0.3
		c-0.2,0.2-0.3,0.6-0.6,0.7c-0.8,0.4-1.6,0.7-2.4,1c0.6,0.9,1.4,1.3,2.5,1.3c0.9-0.1,1.9,0.1,2.9,0.1c0.2,0.7-0.2,1-0.7,1.2
		c-0.6,0.2-1.3,0.4-1.9,0.6c-0.3,0.1-0.6,0.1-1,0.2c0.1,1.3-0.5,2.2-1.3,3.1c-0.3,0.3-0.7,0.5-1.1,0.7c-0.6,0.2-0.9-0.1-0.8-0.7
		c0.1-0.7,0.2-1.5,0.1-2.2c-0.2-1.8-1.1-3.2-2.8-3.8c-0.9-0.3-1.9-0.6-2.9-0.8c1.5,1.6,1.9,3.5,1.5,5.6c-0.3,1.5-1,2.9-2.3,3.7
		c-2.1,1.4-5.9,0.9-7.4-1.2c0.4-0.2,0.7-0.3,1-0.4c0.5,0.2,1,0.5,1.5,0.7c2.1,0.9,4.4,0.2,5.4-1.7c0.5-1,0.7-2.1,0.5-3.3
		c-0.2-1.6-1.9-3.2-3.2-3.4c-1.8-0.3-3.7,0.6-4.6,2.1C111.9,99,112,100.1,112,101.3L112,101.3L112,101.3z"/>
	<path class="st10" d="M73.9,83.5c3.9,0.2,7.8,0.4,11.6,1.4c0.3,0.1,0.6,0.1,0.8,0.2c0.8,0.2,1.1,0.6,1,1.1c0,0.6-0.6,1.2-1.2,1.3
		c-0.7,0.1-1.4,0.1-2.1,0.1c-2.4-0.2-4.8-0.5-7.1-0.8c-4.4-0.6-8.7-0.6-13,0.5c-0.8,0.2-1.7,0.4-2.5,0.5c-0.2,0-0.5,0.1-0.7,0
		c-0.6-0.1-0.7-0.5-0.3-0.9c0.3-0.3,0.7-0.6,1-0.8c1.9-1.1,4-1.8,6.1-2C69.7,83.8,71.8,83.7,73.9,83.5L73.9,83.5L73.9,83.5z"/>
	<path class="st10" d="M117.9,83.6c3,0.1,5.9,0.1,8.8,1c1.4,0.4,2.7,1.1,4,1.7c0.4,0.2,1.1,0.5,0.8,1.1c-0.2,0.5-0.8,0.3-1.3,0.2
		c-1.5-0.3-3-0.7-4.6-0.9c-2.3-0.4-4.7-0.6-7.1-0.4c-3,0.3-6,0.7-8.9,1c-1.2,0.1-2.4,0.1-3.6,0.1c-0.2,0-0.3,0-0.5-0.1
		c-0.6-0.2-1.1-0.8-1.1-1.3c0-0.7,0.5-0.9,1-1c2.3-0.7,4.7-1.1,7.1-1.2C114.2,83.7,116.1,83.7,117.9,83.6
		C117.9,83.6,117.9,83.6,117.9,83.6z"/>
	<path class="st11" d="M112,101.3c0-1.2,0-2.3,0.6-3.4c0.9-1.4,2.8-2.3,4.6-2.1c1.3,0.2,3.1,1.8,3.2,3.4c0.1,1.2,0,2.3-0.5,3.3
		c-0.9,1.9-3.3,2.6-5.4,1.7c-0.5-0.2-1-0.5-1.5-0.7c0.4-0.2,0.8-0.5,1.1-0.8c0.3-0.3,0.5-0.7,0.4-1.2c-0.2-0.5-0.6-0.7-1.1-0.7
		C112.9,101.1,112.5,101.2,112,101.3L112,101.3L112,101.3z M116.1,101.3c0.6,0,1.1-0.4,1.1-1c0-0.6-0.5-1.1-1-1.1
		c-0.6,0-1.2,0.5-1.2,1C114.9,100.7,115.5,101.3,116.1,101.3L116.1,101.3L116.1,101.3z"/>
	<path class="st11" d="M72,101.3c-0.3-1.6,0-3,1.1-4.3c2-2.3,6-1.3,7.1,1.7c0.3,0.9,0.3,1.9,0.1,2.8c-0.6,2.8-4.2,3.9-6.5,2.5
		c-0.2-0.2-0.5-0.3-0.7-0.5c0.4-0.3,0.9-0.5,1.2-0.8c0.2-0.3,0.3-0.7,0.3-1.1c-0.1-0.5-0.5-0.7-1-0.7C73,101.1,72.5,101.2,72,101.3z
		 M76.3,101.3c0.6,0,1.2-0.5,1.2-1c0-0.6-0.5-1-1.1-1.1c-0.6,0-1.1,0.4-1.1,1C75.2,100.7,75.7,101.3,76.3,101.3z"/>
	<path class="st4" d="M85.3,133.5c-0.2-0.1-0.4-0.3-0.5-0.5c-0.2-0.3-0.2-0.8,0.1-1c0.2-0.2,0.6-0.2,0.9-0.2c0.3,0,0.6,0.2,0.9,0.3
		c0.5,0.2,1,0.4,1.6,0.5c0.4,0.1,0.8,0.4,1.3,0.4c2,0.2,3.8,0.9,5.7,1.6c0.5,0.2,1,0.2,1.5,0c1.9-0.7,3.8-1.4,5.8-1.6
		c0.4,0,0.8-0.3,1.1-0.4c0.5-0.2,1-0.4,1.5-0.5c0.2-0.1,0.4-0.1,0.6-0.2c0.4-0.2,0.9-0.4,1.2,0c0.4,0.5,0.2,0.9-0.1,1.3l-1.2,0.7
		c-0.8,0.2-1.6,0.4-2.4,0.6c-1.2,0.2-2.6,0.1-3.7,0.6c-1.4,0.6-2.8,0.7-4.3,0.6c-0.7,0-1.4,0-2-0.3c-1.4-0.7-2.9-0.7-4.4-0.9
		c-0.2,0-0.5,0-0.7,0C87.1,134.2,86.2,133.9,85.3,133.5L85.3,133.5L85.3,133.5z"/>
	<path class="st12" d="M64.4,93.8c0.5-0.3,0.9-0.7,1.4-0.9c3.4-1.9,7.1-2.5,11-2.2c2.4,0.2,4.8,0.5,7.1,1.5c0.6,0.3,1.2,0.6,1.8,0.9
		c0.3,0.2,0.6,0.4,0.4,1c-0.3-0.1-0.6-0.1-0.8-0.2c-3.7-1.8-7.7-2.3-11.8-2.1c-2.1,0.1-4.2,0.7-6.1,1.4c-0.9,0.3-1.8,0.6-2.7,0.9
		C64.5,94,64.5,93.9,64.4,93.8L64.4,93.8L64.4,93.8z"/>
	<path class="st12" d="M127.6,94.1c-1.2-0.4-2.4-0.8-3.5-1.2c-5.8-1.9-11.4-1.5-17,1c-0.3,0.1-0.7,0.5-0.9,0
		c-0.1-0.2,0.2-0.6,0.5-0.8c1.3-0.9,2.8-1.4,4.3-1.8c3.8-0.9,7.7-1.1,11.6-0.1c1.3,0.4,2.6,1,3.9,1.6c0.4,0.2,0.7,0.5,1,0.8
		C127.7,93.7,127.6,93.9,127.6,94.1L127.6,94.1z"/>
	<path class="st4" d="M81.6,47.5c-1.1-0.4-2.2-0.8-3.3-1.2c-2.4-0.9-4.2-2.6-5.5-4.7c-0.9-1.5-1.7-3.1-2-4.9c-0.1-0.8,0-1.7,0.1-2.6
		c0-0.1,0.1-0.2,0.3-0.5c0.1,0.5,0.2,0.8,0.2,1.1c0.1,2.4,1.1,4.5,2.4,6.5c1.1,1.6,2.5,2.9,4.3,3.7c1.6,0.7,3.2,1.5,4.8,2.2
		c0.1,0.1,0.2,0.2,0.4,0.4c0,0.1-0.1,0.1-0.1,0.2C82.7,47.7,82.2,47.6,81.6,47.5L81.6,47.5L81.6,47.5z"/>
	<path class="st13" d="M105.1,132.1c-0.5,0.2-1,0.4-1.5,0.5c-1.8,0.2-3.5,0.4-5.3,0.8c-1.6,0.4-3.1,0.4-4.7,0
		c-1.8-0.4-3.6-0.6-5.4-0.8c-0.5-0.2-1-0.4-1.6-0.5c1.2,0.1,2.4,0.1,3.6,0.2c1.8,0.2,3.6,0.5,5.4,0.7c0.6,0.1,1.1-0.1,1.7-0.2
		c1.8-0.2,3.6-0.4,5.3-0.6C103.5,132.2,104.3,132.2,105.1,132.1z"/>
	<path class="st14" d="M94.5,122.2c-0.2,0-0.3,0.1-0.4,0.1c-0.8-0.6-1.7-1.2-2.4-1.9c-0.2-0.2-0.3-0.8-0.2-1.1
		c0.1-0.6,0.4-1.1,0.7-1.6c0.1-0.2,0.5-0.4,0.7-0.3c0.2,0,0.4,0.3,0.4,0.6c0.3,1,0.5,2.1,0.8,3.1C94.2,121.4,94.4,121.8,94.5,122.2
		L94.5,122.2L94.5,122.2z"/>
	<path class="st15" d="M99.4,120.4c0.3,0.2,0.7,0.3,0.7,0.4c0,0.2-0.1,0.6-0.3,0.6c-0.8,0.4-1.6,0.7-2.5,1c-0.2,0.1-0.5-0.1-0.6-0.2
		c-0.1-0.2,0-0.6,0.1-0.7C97.8,121.1,98.6,120.8,99.4,120.4L99.4,120.4L99.4,120.4z"/>
	<path class="st16" d="M106.1,134.4c-0.6,1.1-1.7,1.9-2.7,2.6c-1.4,1-3,1.6-4.6,2c-0.3,0.1-0.6,0.1-0.9,0.2l0.7-0.7
		c0.5-0.2,1-0.4,1.6-0.5c0.2-0.1,0.5-0.1,0.8-0.2c1.3-0.4,2.5-0.9,3.4-2.1C104.9,135.3,105.5,134.8,106.1,134.4L106.1,134.4
		L106.1,134.4z"/>
	<path class="st16" d="M93.8,139.1c-2.3-0.1-4.2-1.1-6-2.4c-0.8-0.6-1.5-1.5-2.2-2.2c0.8,0.1,1.1,0.8,1.6,1.2
		c1.1,1.4,2.6,2.1,4.3,2.4l1.6,0.5C93.3,138.7,93.5,138.9,93.8,139.1L93.8,139.1z"/>
	<path class="st17" d="M87.2,135.6c-0.5-0.4-0.8-1.1-1.6-1.2c-0.1-0.3-0.2-0.6-0.3-0.9c0.9,0.4,1.9,0.7,2.8,1.1
		c0.4,0.3,1,0.5,0.9,1.2C88.3,135.6,87.8,135.4,87.2,135.6L87.2,135.6L87.2,135.6z"/>
	<path class="st18" d="M93.8,139.1c-0.2-0.2-0.5-0.4-0.7-0.5c0.4-0.1,0.8-0.4,1.1-0.3c1.5,0.2,3-0.4,4.4,0.3l-0.7,0.7
		c0,0-0.1,0-0.1,0c-0.3-0.1-0.6-0.2-0.9-0.3c-0.8-0.1-1.6-0.2-2.3-0.2c-0.2,0-0.4,0.3-0.6,0.5C93.9,139.1,93.9,139.1,93.8,139.1
		L93.8,139.1L93.8,139.1z"/>
	<path class="st19" d="M94,139.2c0.2-0.2,0.4-0.5,0.6-0.5c0.8,0,1.6,0.1,2.3,0.2c0.3,0,0.6,0.2,0.9,0.3c-0.3,0.1-0.7,0.4-1.1,0.4
		C95.8,139.8,94.8,139.7,94,139.2L94,139.2L94,139.2z"/>
	<path class="st20" d="M125.9,105.8c-0.1,0.1-0.4,0.2-0.5,0.2c-0.5-0.3-1-0.6-1.4-1c-0.1-0.1-0.2-0.4-0.1-0.5
		c0.1-0.1,0.3-0.3,0.5-0.3C125,104.1,125.9,105,125.9,105.8L125.9,105.8L125.9,105.8z"/>
	<path class="st20" d="M66,106.1c-0.4-0.7-0.1-1.1,0.3-1.4c0.3-0.3,0.8-0.5,1.2-0.5c0.4-0.1,0.6,0.5,0.3,0.7
		C67.2,105.4,66.7,105.7,66,106.1L66,106.1L66,106.1z"/>
	<path class="st21" d="M106.1,134.4c-0.6,0.5-1.2,0.9-1.8,1.4c-0.3-0.1-0.7-0.1-1-0.2c0.4-0.1,0.8-0.3,1.3-0.5
		c0-0.3,0.2-0.7,0.7-0.8c0.1,0,0.2-0.2,0.3-0.3l1.2-0.7C106.6,133.7,106.4,134,106.1,134.4L106.1,134.4z"/>
	<path class="st22" d="M123.3,106.9c-0.6-0.1-1.2-0.5-1.2-0.9c0-0.2,0.1-0.4,0.2-0.5c0.1-0.1,0.4,0,0.5,0.1
		C123.2,105.9,123.5,106.3,123.3,106.9z"/>
	<path class="st23" d="M69.8,105.9c-0.4,0.3-0.7,0.7-1,1c0,0-0.4-0.2-0.4-0.3c0.2-0.4,0.3-0.8,0.6-1.1c0.1-0.1,0.3-0.1,0.5-0.1
		C69.5,105.5,69.6,105.7,69.8,105.9L69.8,105.9L69.8,105.9z"/>
	<path class="st24" d="M116.1,101.3c-0.6,0-1.1-0.5-1.1-1.1c0-0.5,0.6-1,1.2-1c0.5,0,1,0.5,1,1.1
		C117.1,100.8,116.6,101.3,116.1,101.3L116.1,101.3L116.1,101.3z"/>
	<path class="st25" d="M76.3,101.3c-0.6,0-1.1-0.6-1.1-1.1c0-0.6,0.5-1,1.1-1c0.6,0.1,1.1,0.5,1.1,1.1
		C77.4,100.8,76.9,101.3,76.3,101.3z"/>
	<path class="st26" d="M88.7,134.5c1.5,0.2,3,0.2,4.4,0.9c0.6,0.3,1.3,0.3,2,0.3c1.5,0.1,2.9,0,4.3-0.6c1.1-0.5,2.5-0.4,3.7-0.6
		c-0.3,0.1-0.5,0.3-0.8,0.4c-1.3,0.5-2.6,1.1-4,1.3l-1.2,0.5c-0.2,0.5-0.6,0.8-1.2,0.7c-0.2,0-0.3,0-0.5,0c-0.4-0.3-0.9-0.7-1.3-0.9
		c-1.4-0.6-2.8-1-4.3-1.6C89.4,134.9,89,134.7,88.7,134.5L88.7,134.5L88.7,134.5z"/>
	<path class="st27" d="M88.2,132.6c1.8,0.3,3.6,0.5,5.4,0.8c1.6,0.3,3.1,0.3,4.7,0c1.7-0.4,3.5-0.5,5.3-0.8
		c-0.4,0.1-0.7,0.4-1.1,0.4c-2,0.2-3.9,0.9-5.8,1.6c-0.5,0.2-1,0.2-1.5,0c-1.8-0.7-3.7-1.4-5.7-1.6C89,133,88.6,132.8,88.2,132.6
		L88.2,132.6L88.2,132.6z"/>
	<path class="st28" d="M98.3,136.3c1.4-0.2,2.7-0.8,4-1.3c0.3-0.1,0.6-0.3,0.8-0.4c0.8-0.2,1.6-0.4,2.4-0.6
		c-0.1,0.1-0.2,0.3-0.3,0.3c-0.5,0.1-0.7,0.5-0.7,0.8c-0.5,0.2-0.9,0.3-1.3,0.5c-0.5,0.2-0.9,0.5-1.4,0.7c-0.4,0.1-0.8,0.1-1.2,0.2
		c-0.3,0-0.6,0-0.9,0C99.3,136.4,98.8,136.3,98.3,136.3L98.3,136.3L98.3,136.3z"/>
	<path class="st29" d="M88.7,134.5c0.3,0.2,0.6,0.4,1,0.5c1.4,0.5,2.9,1,4.3,1.6c0.5,0.2,0.9,0.6,1.3,0.9c-1-0.2-2.1-0.4-3.1-0.7
		c-1-0.3-2-0.6-3-0.9c-0.1-0.1-0.2-0.1-0.3-0.2c0.2-0.7-0.5-0.9-0.9-1.2C88.3,134.6,88.5,134.6,88.7,134.5L88.7,134.5L88.7,134.5z"
		/>
	<path class="st30" d="M89.3,135.9c1,0.3,2,0.6,3,0.9c1,0.3,2.1,0.5,3.1,0.7c0.2,0,0.3,0,0.5,0c0.6,0.1,1-0.2,1.2-0.7
		c0.1,0.6,0.5,0.7,1.1,0.7c0.9-0.1,1.5-0.4,1.7-1.1c0.3,0,0.6,0,0.9,0c0.4,0,0.8-0.1,1.2-0.2c-0.7,0.4-1.4,0.9-1.7,1.7
		c-0.5,0.2-1,0.4-1.6,0.5c-1.4-0.8-2.9-0.2-4.4-0.3c-0.4,0-0.8,0.2-1.1,0.3l-1.6-0.5c-0.3-0.8-0.9-1.4-1.7-1.7
		C89.6,136.3,89.4,136.1,89.3,135.9L89.3,135.9L89.3,135.9z"/>
	<path class="st31" d="M100.2,138c0.3-0.9,1-1.3,1.7-1.7c0.5-0.2,0.9-0.5,1.4-0.7c0.3,0.1,0.7,0.1,1,0.2c-0.9,1.1-2.1,1.7-3.3,2.1
		C100.8,137.9,100.5,138,100.2,138L100.2,138L100.2,138z"/>
	<path class="st31" d="M89.3,135.9c0.2,0.1,0.3,0.4,0.5,0.4c0.8,0.3,1.4,0.8,1.7,1.7c-1.7-0.4-3.2-1.1-4.3-2.4
		c0.6-0.2,1.2,0,1.7,0.2C89,135.8,89.2,135.9,89.3,135.9L89.3,135.9z"/>
	<path class="st32" d="M99.8,136.4c-0.1,0.6-0.8,1-1.7,1.1c-0.5,0-1.2-0.1-1.2-0.7c0-0.7,0.7-0.8,1.3-0.8
		C98.8,136.1,99.5,136.1,99.8,136.4L99.8,136.4L99.8,136.4z"/>
</g>
<circle class="st33" cx="31.1" cy="31.7" r="29"/>
<path d="M10.7,36.5c-0.2,0-0.3-0.1-0.4-0.2c-0.1-0.1-0.2-0.3-0.2-0.5c0-0.2,0.1-0.4,0.2-0.5c0.2-0.1,0.3-0.2,0.5-0.2
	c0.3,0,0.7,0.1,1.2,0.1c0.5,0,1,0,1.5,0c0.6,0,1.2,0,1.8,0c0.6,0,1.3,0,1.9,0c0.6,0,1.2,0,1.7-0.1c0.5,0,1,0,1.4,0
	c0.2,0,0.4,0.1,0.5,0.2s0.2,0.3,0.2,0.5s-0.1,0.3-0.2,0.5c-0.1,0.1-0.3,0.2-0.5,0.2c-1.6,0-3,0-4.2,0.1c-1.2,0-2.4,0.1-3.3,0.1
	c-0.4,0-0.8,0-1.2,0S11,36.5,10.7,36.5L10.7,36.5z M12,30c-0.2,0-0.3-0.1-0.4-0.2c-0.1-0.1-0.2-0.3-0.2-0.4c0-0.2,0.1-0.4,0.2-0.5
	s0.3-0.2,0.5-0.2c0.5,0,1.1,0,1.7,0s1.2,0,1.8,0c0.6,0,1.2,0,1.8-0.1s1.1,0,1.5,0c0.2,0,0.4,0.1,0.5,0.2s0.2,0.3,0.2,0.5
	s-0.1,0.4-0.2,0.5C19.3,29.9,19.2,30,19,30c-0.4,0-0.9,0-1.5,0s-1.2,0-1.8,0.1c-0.6,0-1.3,0-1.9,0c-0.3,0-0.6,0-0.9,0
	C12.5,30.1,12.2,30,12,30L12,30z"/>
<path d="M35.9,31.7c0,0.1,0,0.3-0.1,0.4c-0.1,0.1-0.2,0.2-0.3,0.2c-0.5,0.1-1.1,0.3-1.7,0.4c-0.6,0.1-1.3,0.2-2,0.3
	c-0.1,0-0.1,0-0.1,0.2c0.1,0.6,0.3,1.3,0.5,1.8s0.3,1.2,0.5,1.7c0,0,0,0.1,0,0.1V37c0,0.2-0.1,0.3-0.2,0.5s-0.3,0.2-0.5,0.2
	c-0.1,0-0.3,0-0.4-0.1c-0.1-0.1-0.2-0.2-0.2-0.3c-0.2-0.5-0.3-1.1-0.5-1.8s-0.3-1.3-0.5-2c0-0.1-0.1-0.1-0.2-0.1
	c-0.7,0.1-1.4,0.2-2,0.3c-0.6,0.1-1.2,0.2-1.6,0.3c0,0-0.1,0-0.1,0c-0.2,0-0.3-0.1-0.5-0.2c-0.1-0.1-0.2-0.3-0.2-0.5
	c0-0.2,0-0.3,0.1-0.4c0.1-0.1,0.2-0.2,0.4-0.2c0.5-0.1,1-0.2,1.7-0.3c0.6-0.1,1.3-0.2,1.9-0.3C30,32,30,32,30,31.9
	c-0.1-0.4-0.1-0.7-0.2-1.1c-0.1-0.4-0.1-0.7-0.2-1c0-0.1-0.1-0.1-0.2-0.1c-0.5,0.1-1.1,0.2-1.6,0.2s-1,0.2-1.4,0.2
	c-0.2,0-0.4,0-0.5-0.1s-0.2-0.3-0.2-0.5c0-0.2,0-0.3,0.2-0.4c0.1-0.1,0.2-0.2,0.4-0.2c0.4-0.1,0.9-0.2,1.4-0.2
	c0.5-0.1,1-0.1,1.6-0.2c0.1,0,0.1-0.1,0.1-0.1c-0.1-0.4-0.1-0.7-0.2-1c0-0.3-0.1-0.6-0.1-0.8c0,0,0-0.1,0-0.1c0-0.2,0.1-0.3,0.2-0.5
	c0.1-0.1,0.3-0.2,0.5-0.2c0.2,0,0.3,0,0.4,0.2s0.2,0.2,0.2,0.4c0,0.2,0.1,0.5,0.1,0.9c0,0.3,0.1,0.6,0.2,1c0,0.1,0.1,0.1,0.2,0.1
	c0.5-0.1,1-0.2,1.5-0.2s1-0.2,1.4-0.2c0.2,0,0.4,0,0.5,0.1s0.2,0.3,0.2,0.5c0,0.1,0,0.3-0.1,0.4c-0.1,0.1-0.2,0.2-0.4,0.2
	c-0.4,0.1-0.9,0.2-1.4,0.2s-1,0.2-1.5,0.2c-0.1,0-0.1,0-0.1,0.1l0.5,2.1c0,0.1,0.1,0.1,0.2,0.1c0.7-0.1,1.3-0.2,2-0.4
	s1.2-0.2,1.7-0.4c0,0,0.1,0,0.1,0h0.1c0.2,0,0.3,0.1,0.5,0.2S36,31.5,35.9,31.7L35.9,31.7z"/>
<path d="M49.8,35.8c0.2,0,0.4,0,0.5,0.2s0.2,0.3,0.2,0.5c0,0.2-0.1,0.3-0.2,0.5c-0.1,0.1-0.2,0.2-0.4,0.2c-0.3,0-0.7,0.1-1.2,0.1
	c-0.5,0-1,0.1-1.5,0.1s-1,0-1.6,0s-1,0-1.4,0c-1.1,0-1.9-0.2-2.4-0.7c-0.5-0.5-0.7-1.2-0.7-2.3v-7.2c0-0.2,0.1-0.4,0.2-0.5
	s0.3-0.2,0.5-0.2c0.2,0,0.3,0.1,0.5,0.2c0.1,0.1,0.2,0.3,0.2,0.5v3.1c0,0.1,0,0.1,0.1,0.1c1.1-0.1,2.2-0.2,3.2-0.5
	c1-0.2,2-0.6,3.1-1c0.1,0,0.2,0,0.2,0c0.2,0,0.3,0.1,0.5,0.2c0.1,0.1,0.2,0.3,0.2,0.5c0,0.1,0,0.3-0.1,0.4s-0.2,0.2-0.3,0.3
	c-1,0.4-2.1,0.7-3.2,1c-1.1,0.2-2.3,0.4-3.5,0.5c-0.1,0-0.1,0.1-0.1,0.1v2.5c0,0.5,0,0.8,0.2,1.1s0.3,0.4,0.5,0.4s0.6,0.1,1,0.1
	c0.1,0,0.2,0,0.3,0h0.4c0.5,0,1,0,1.6,0c0.6,0,1.2-0.1,1.7-0.1S49.4,35.8,49.8,35.8L49.8,35.8z M49.7,28.5c-0.2-0.2-0.3-0.5-0.6-0.8
	c-0.2-0.3-0.4-0.5-0.6-0.7c-0.1-0.1-0.2-0.2-0.2-0.4c0-0.1,0-0.2,0.1-0.3c0.1-0.1,0.2-0.1,0.4-0.1c0.1,0,0.2,0,0.3,0.1
	c0.2,0.2,0.4,0.5,0.7,0.8s0.4,0.6,0.6,0.9c0,0.1,0.1,0.1,0.1,0.2c0,0.2-0.1,0.3-0.2,0.4c-0.1,0-0.1,0.1-0.2,0.1
	C49.9,28.7,49.7,28.6,49.7,28.5L49.7,28.5z M51.6,27.3c0,0.1,0.1,0.1,0.1,0.2c0,0.2-0.1,0.3-0.2,0.4c-0.1,0-0.2,0.1-0.2,0.1
	c-0.2,0-0.3-0.1-0.4-0.2c-0.2-0.2-0.3-0.5-0.5-0.8s-0.4-0.5-0.6-0.7c-0.1-0.1-0.2-0.2-0.2-0.3c0-0.1,0-0.2,0.2-0.3
	c0.1-0.1,0.2-0.1,0.3-0.1c0.1,0,0.2,0,0.3,0.1c0.2,0.2,0.4,0.4,0.6,0.7C51.1,26.7,51.4,27,51.6,27.3z"/>
<g>
	<defs>
		<filter id="Adobe_OpacityMaskFilter" filterUnits="userSpaceOnUse" x="116.8" y="129.2" width="3.6" height="3.6">
			<feFlood  style="flood-color:white;flood-opacity:1" result="back"/>
			<feBlend  in="SourceGraphic" in2="back" mode="normal"/>
		</filter>
	</defs>
	<mask maskUnits="userSpaceOnUse" x="116.8" y="129.2" width="3.6" height="3.6" id="SVGID_1_">
		<g class="st34">
			
				<image style="overflow:visible;" width="51" height="50" xlink:href="79599D2094B6B1FC.jpg"  transform="matrix(0.1126 0 0 0.1126 115.7039 128.2358)">
			</image>
		</g>
	</mask>
	<g class="st35">
		<path class="st36" d="M120.4,131c0,1-0.8,1.8-1.8,1.8s-1.8-0.8-1.8-1.8c0-1,0.8-1.8,1.8-1.8S120.4,130,120.4,131z"/>
	</g>
</g>
<g>
	<defs>
		
			<filter id="Adobe_OpacityMaskFilter_00000103964029585736211940000011994691716309667232_" filterUnits="userSpaceOnUse" x="70.3" y="129.5" width="3.6" height="3.6">
			<feFlood  style="flood-color:white;flood-opacity:1" result="back"/>
			<feBlend  in="SourceGraphic" in2="back" mode="normal"/>
		</filter>
	</defs>
	
		<mask maskUnits="userSpaceOnUse" x="70.3" y="129.5" width="3.6" height="3.6" id="SVGID_00000027585665169353485300000001246075464254400640_">
		<g style="filter:url(#Adobe_OpacityMaskFilter_00000103964029585736211940000011994691716309667232_);">
			
				<image style="overflow:visible;" width="50" height="50" xlink:href="79599D2094B6B1FB.jpg"  transform="matrix(0.1126 0 0 0.1126 69.3166 128.5735)">
			</image>
		</g>
	</mask>
	<g style="mask:url(#SVGID_00000027585665169353485300000001246075464254400640_);">
		<path class="st36" d="M73.9,131.4c0,1-0.8,1.8-1.8,1.8c-1,0-1.8-0.8-1.8-1.8c0-1,0.8-1.8,1.8-1.8
			C73.1,129.5,73.9,130.3,73.9,131.4z"/>
	</g>
</g>
<g>
	<defs>
		
			<filter id="Adobe_OpacityMaskFilter_00000156571028258634104500000015868091513171032464_" filterUnits="userSpaceOnUse" x="103" y="58.5" width="3.6" height="3.6">
			<feFlood  style="flood-color:white;flood-opacity:1" result="back"/>
			<feBlend  in="SourceGraphic" in2="back" mode="normal"/>
		</filter>
	</defs>
	
		<mask maskUnits="userSpaceOnUse" x="103" y="58.5" width="3.6" height="3.6" id="SVGID_00000176038882695102805250000010005303839072785304_">
		<g style="filter:url(#Adobe_OpacityMaskFilter_00000156571028258634104500000015868091513171032464_);">
			
				<image style="overflow:visible;" width="50" height="50" xlink:href="79599D2094B6B206.jpg"  transform="matrix(0.1126 0 0 0.1126 101.9678 57.5289)">
			</image>
		</g>
	</mask>
	<g style="mask:url(#SVGID_00000176038882695102805250000010005303839072785304_);">
		<circle class="st36" cx="104.8" cy="60.4" r="1.8"/>
	</g>
</g>
<g>
	<defs>
		
			<filter id="Adobe_OpacityMaskFilter_00000023281386334843288780000005230491737921186725_" filterUnits="userSpaceOnUse" x="64.2" y="117.6" width="4.1" height="4.1">
			<feFlood  style="flood-color:white;flood-opacity:1" result="back"/>
			<feBlend  in="SourceGraphic" in2="back" mode="normal"/>
		</filter>
	</defs>
	
		<mask maskUnits="userSpaceOnUse" x="64.2" y="117.6" width="4.1" height="4.1" id="SVGID_00000114045285756800244600000010155479608259149488_">
		<g style="filter:url(#Adobe_OpacityMaskFilter_00000023281386334843288780000005230491737921186725_);">
			
				<image style="overflow:visible;" width="54" height="53" xlink:href="79599D2094B6B209.jpg"  transform="matrix(0.1126 0 0 0.1126 63.2367 116.6389)">
			</image>
		</g>
	</mask>
	<g style="mask:url(#SVGID_00000114045285756800244600000010155479608259149488_);">
		<circle class="st36" cx="66.3" cy="119.6" r="2"/>
	</g>
</g>
<g>
	<defs>
		
			<filter id="Adobe_OpacityMaskFilter_00000043426584334910186240000000400710362474840995_" filterUnits="userSpaceOnUse" x="115.1" y="65.4" width="4.1" height="4.1">
			<feFlood  style="flood-color:white;flood-opacity:1" result="back"/>
			<feBlend  in="SourceGraphic" in2="back" mode="normal"/>
		</filter>
	</defs>
	
		<mask maskUnits="userSpaceOnUse" x="115.1" y="65.4" width="4.1" height="4.1" id="SVGID_00000106845246065664622830000012509574072356606360_">
		<g style="filter:url(#Adobe_OpacityMaskFilter_00000043426584334910186240000000400710362474840995_);">
			
				<image style="overflow:visible;" width="54" height="54" xlink:href="79599D2094B6B20A.jpg"  transform="matrix(0.1126 0 0 0.1126 114.1276 64.3969)">
			</image>
		</g>
	</mask>
	<g style="mask:url(#SVGID_00000106845246065664622830000012509574072356606360_);">
		<path class="st36" d="M119.2,67.4c0,1.1-0.9,2-2,2c-1.1,0-2-0.9-2-2s0.9-2,2-2C118.3,65.4,119.2,66.3,119.2,67.4z"/>
	</g>
</g>
<g>
	<defs>
		
			<filter id="Adobe_OpacityMaskFilter_00000066479003174328046210000013759996904485934772_" filterUnits="userSpaceOnUse" x="100.3" y="147.6" width="4.1" height="4.1">
			<feFlood  style="flood-color:white;flood-opacity:1" result="back"/>
			<feBlend  in="SourceGraphic" in2="back" mode="normal"/>
		</filter>
	</defs>
	
		<mask maskUnits="userSpaceOnUse" x="100.3" y="147.6" width="4.1" height="4.1" id="SVGID_00000007401644531077385150000014459757302758541233_">
		<g style="filter:url(#Adobe_OpacityMaskFilter_00000066479003174328046210000013759996904485934772_);">
			
				<image style="overflow:visible;" width="53" height="53" xlink:href="79599D2094B6B20B.jpg"  transform="matrix(0.1126 0 0 0.1126 99.3783 146.588)">
			</image>
		</g>
	</mask>
	<g style="mask:url(#SVGID_00000007401644531077385150000014459757302758541233_);">
		<circle class="st36" cx="102.4" cy="149.6" r="2"/>
	</g>
</g>
</svg>
