<?xml version="1.0" encoding="UTF-8"?><svg id="_レイヤー_2" xmlns="http://www.w3.org/2000/svg" viewBox="0 0 192 205"><defs><style>.cls-1{fill:#fdd0c5;}.cls-2{fill:#fdcfc3;}.cls-3{fill:#fff;}.cls-4{fill:#fff7a4;}.cls-5{fill:#fefefe;}.cls-6{fill:#fefdfd;}.cls-7{fill:#fdc1b2;}.cls-8{fill:#fdd2c7;}.cls-9{fill:#fed0c4;}.cls-10{fill:#fecdc1;}.cls-11{fill:#fecdc0;}.cls-12{fill:#feccbf;}.cls-13{fill:#fed9d0;}.cls-14{fill:#fec7b9;}.cls-15{fill:#fed2c6;}.cls-16{fill:#a1725a;}.cls-17{fill:#ae846f;}.cls-18{fill:#bd896e;}.cls-19{fill:#a77a63;}.cls-20{fill:#a57760;}.cls-21{fill:#c18d74;}.cls-22{fill:#aa7f69;}.cls-23{fill:#deb8ab;}.cls-24{fill:#d1a48e;}.cls-25{fill:#e0bbad;}.cls-26{fill:#e0bbae;}.cls-27{fill:#dbb5a6;}.cls-28{fill:#e1bcaf;}.cls-29{fill:#e2bdb0;}.cls-30{fill:#a2725a;}.cls-31{fill:#a2725b;}.cls-32{fill:#a2735b;}.cls-33{fill:#a2735c;}.cls-34{fill:#a3735b;}</style></defs><g id="_レイヤー_1-2"><g><g><g><circle class="cls-3" cx="96" cy="109" r="96"/><g><path class="cls-5" d="m141.4,190.64c-.31.04-.62.11-.93.11-29.69,0-59.39,0-89.08-.01-.34,0-.68-.06-1.03-.09.52-.31,1.06-.6,1.57-.92,3.38-2.12,6.83-4.14,10.11-6.4,3.92-2.7,7-6.18,9-10.57,1.17-2.56,2.09-5.19,2.85-7.89,1.42-5.08,1.74-10.24,1.29-15.46-.03-.37-.1-.74-.15-1.11.06-.03.12-.06.18-.1.23.16.46.31.68.48,1.18.93,2.33,1.9,3.55,2.79,3.37,2.46,6.86,4.71,10.79,6.21,2.75,1.05,5.56,1.29,8.44.81,1.84-.31,3.56-1.01,5.22-1.81,4.22-2.04,8.01-4.73,11.62-7.68.35-.29.7-.57,1.14-.94-.07,1.37-.13,2.58-.21,3.79-.18,2.67-.09,5.34.38,7.95.49,2.75,1.2,5.47,2,8.15,2.1,6.99,6.17,12.56,12.4,16.46,3.38,2.12,6.8,4.16,10.2,6.24Z"/><path class="cls-16" d="m141.4,190.64c-3.4-2.08-6.83-4.12-10.2-6.24-6.22-3.9-10.3-9.46-12.4-16.46-.8-2.68-1.51-5.4-2-8.15-.46-2.61-.56-5.29-.38-7.95.08-1.21.13-2.42.21-3.79-.44.36-.79.65-1.14.94-3.61,2.96-7.4,5.65-11.62,7.68-1.67.8-3.39,1.51-5.22,1.81-2.88.48-5.69.24-8.44-.81-3.93-1.5-7.42-3.75-10.79-6.21-1.21-.88-2.36-1.86-3.55-2.79-.22-.17-.45-.32-.68-.48-.06.03-.12.06-.18.1.05.37.12.74.15,1.11.45,5.23.12,10.39-1.29,15.46-.76,2.7-1.68,5.33-2.85,7.89-2,4.39-5.08,7.87-9,10.57-3.28,2.26-6.73,4.28-10.11,6.4-.51.32-1.05.61-1.57.92-.18.08-.37.15-.55.25-.81.44-1.19.37-1.58-.31-.27-.49-.05-.97.66-1.38.94-.54,1.91-1.06,2.84-1.62,1.92-1.15,3.85-2.29,5.73-3.5,1.4-.89,2.79-1.81,4.1-2.83,1.21-.95,2.32-2.05,3.45-3.11,2.03-1.9,3.37-4.28,4.54-6.77,1.43-3.06,2.37-6.28,3.06-9.58.24-1.17.49-2.35.66-3.54.13-.91.2-1.83.21-2.75.03-1.47.05-2.95-.02-4.42-.06-1.52-.21-3.03-.36-4.55-.02-.23-.17-.51-.35-.64-1.63-1.27-2.88-2.89-4.23-4.42-3.03-3.46-5.38-7.38-7.59-11.38-.9-1.64-1.8-3.29-2.64-4.96-.23-.46-.53-.7-.99-.84-2.17-.66-4.11-1.79-5.92-3.12-2.12-1.55-3.68-3.61-5.04-5.84-1.41-2.31-2.32-4.82-2.99-7.41-.49-1.92-.65-3.89-.63-5.89.02-1.74.24-3.42.85-5.03-1.86-.89-2.59-2.48-2.9-4.34-.28-1.69.28-3.23.99-4.72.17-.36.12-.63-.02-.96-.82-1.92-1.29-3.91-1.34-6.01-.07-2.89.47-5.65,1.75-8.25.46-.93,1.05-1.79,1.41-2.75.37-1,.55-2.08.78-3.14.03-.12-.16-.28-.26-.43-.69-1.04-.88-2.19-.69-3.39.32-2.02,1.28-3.73,2.69-5.2.65-.68,1.33-1.34,1.98-2.02.15-.16.25-.39.33-.6.66-1.81,1.18-3.68,1.99-5.42,1.05-2.27,2.22-4.49,3.88-6.41.98-1.13,1.86-2.35,2.92-3.39,1.5-1.45,2.98-2.97,4.94-3.84.15-.07.29-.25.36-.41.68-1.59,1.71-2.96,2.92-4.14,2.43-2.37,5.23-4.2,8.55-5.15.51-.15,1.02-.39,1.45-.69,3.71-2.62,7.9-4.1,12.3-5.03,1.66-.35,3.36-.55,5.05-.67,1.05-.07,2.12.14,3.19.21.31.02.64.05.94-.03,3.74-1.01,7.47-.95,11.17.19,1.26.39,2.49.89,3.71,1.42.6.26,1.17.45,1.83.4,1.56-.11,2.96.34,4.24,1.22.79.54,1.24,1.35,1.75,2.12.14.21.4.46.62.47,1.98.1,3.67.94,5.26,2.03,2.29,1.58,3.98,3.63,5.18,6.15.38.8,1.08,1.5,1.76,2.09,2.19,1.88,3.93,4.12,5.47,6.55,1.87,2.95,3.07,6.19,4.3,9.43.19.49.53.96.91,1.33,1.97,1.88,3.39,4.1,4.02,6.74.52,2.2.6,4.46.17,6.7-.08.4.02.64.24.94,1.36,1.8,2.54,3.71,3.2,5.9.67,2.24.94,4.5.48,6.81-.23,1.16-.5,2.3-.73,3.46-.05.23-.08.53.03.73.76,1.46.56,2.92.01,4.36-.17.46-.14.8.06,1.22,1.29,2.76,1.2,5.46-.42,8.08-.03.05-.04.12-.09.15-1.12.75-1.02,1.83-1,3.02.11,5.98-1.74,11.36-5.32,16.11-2.04,2.71-4.78,4.63-7.91,5.85-1.42.56-2.27,1.34-2.96,2.7-2.27,4.45-4.77,8.77-7.74,12.8-1.72,2.33-3.7,4.44-5.8,6.42-.57.54-.8,1.11-.81,1.9-.01,2.74-.16,5.49-.15,8.23.01,3.02.7,5.94,1.45,8.85.9,3.52,2.25,6.85,4.09,9.97,1.2,2.05,2.8,3.8,4.61,5.36,4.05,3.49,8.68,6.08,13.29,8.72.35.2.7.4,1.05.61.67.41.88,1.01.55,1.51-.3.45-.88.5-1.54.13-.12-.07-.23-.16-.35-.25Zm-7.19-119.63c-1.91-2.92-3.81-5.85-5.74-8.75-.32-.49-.81-.86-1.22-1.29-.39-.42-.79-.83-1.16-1.27-.43-.51-.78-1.09-1.25-1.55-1.61-1.57-3.27-3.09-4.9-4.64-1.47-1.4-2.98-2.73-4.8-3.68-.43-.23-.81-.57-1.21-.86,1.08.37,2.18.68,3.22,1.14.81.36,1.52.96,2.31,1.36,2.22,1.11,4.45,2.2,6.7,3.26,2.83,1.33,5.72,2.51,8.72,3.4.3.09.61.15.92.22-.04-.24-.12-.32-.21-.37-3.41-2.08-6.82-4.14-10.22-6.23-2.56-1.57-5.24-2.82-8.2-3.41-1.15-.23-2.37.17-3.47-.41-.11-.06-.28.01-.43.03-.37.05-.74.11-1.11.17-.32-.16-.84.23-1.01-.36,1.68-.54,3.36-1.07,5.03-1.62,3.14-1.03,6.22-2.19,8.96-4.09,1.4-.97,2.78-1.98,3.85-3.34.54-.69.78-1.45.76-2.33-.03-.99-.36-1.82-.94-2.63-1.78-2.48-3.86-4.6-6.7-5.87-.6-.27-1.2-.53-1.9-.45.05.43.11.79.14,1.16.2,2.54-.33,4.94-1.34,7.25-1.07,2.44-2.67,4.53-4.35,6.55-.77.93-1.69,1.74-2.58,2.55-.49.45-1.07.83-1.94.65.41-.37.74-.64,1.03-.95,2.1-2.21,3.84-4.7,5.41-7.3,1.03-1.72,1.78-3.57,2.17-5.54.26-1.31.42-2.63.05-3.95-.07-.26-.32-.53-.56-.68-.69-.41-1.43-.75-2.14-1.13-1.37-.74-2.73-1.5-4.09-2.25l-.91-.5c-.43-.22-.85-.48-1.29-.67-1.96-.82-4.01-1.26-6.1-1.58-.5-.08-.91.04-1.24.44-.9,1.09-1.91,2.1-2.7,3.26-1.85,2.72-2.86,5.77-3.23,9.04-.32,2.86-.15,5.65.91,8.34.14.36.37.75.67.97.89.68,1.84,1.28,2.77,1.91.18.13.34.3.5.45-.65.34-1.24-.04-1.85-.16-.08-.08-.16-.17-.25-.23-3.05-1.88-5.29-4.46-6.65-7.77-1.26-3.08-1.83-6.25-1.13-9.57.03-.16,0-.33,0-.51-.1.03-.18.03-.2.07-.11.2-.23.4-.32.61-.78,1.86-1.11,3.81-1.26,5.81-.28,3.87.61,7.37,3.08,10.42.15.18.19.45.28.67-.07.05-.14.11-.21.16-.34-.25-.75-.43-1-.75-.58-.75-1.22-1.5-1.6-2.35-1.03-2.32-2.03-4.67-2.85-7.07-1.16-3.39-1.03-6.83.22-10.19.36-.98.94-1.87,1.43-2.83-2.44.38-4.82,1.09-7.14,1.97-2.25.85-4.42,1.89-6.3,3.43-1.19.98-1.99,2.26-2.17,3.83-.19,1.64.13,3.21.81,4.73,1.52,3.4,4.18,5.55,7.51,6.96,2.59,1.09,5.26,1.93,8.02,2.51.3.06.55.3.83.46-.11.01-.21.03-.32.04-3.91.04-7.57-.94-10.95-2.83-3.61-2.02-6.02-5.02-6.83-9.14-.17-.86-.13-1.75-.19-2.7-.54.42-.42,1.26-1.23,1.58-.28-1.71.75-2.9,1.37-4.22-3,1.44-5.61,3.3-7.72,5.84-1.29,1.54-1.96,3.16-1.58,5.24.46,2.51,1.56,4.57,3.57,6.14.14.11.35.15.52.22,0-.24-.04-.34-.13-.41-2.97-2.41-3.74-8.29-1.27-11.87.18-.26.44-.46.66-.69.06.04.12.07.19.11-.08.35-.11.73-.25,1.06-.5,1.21-.87,2.46-.92,3.77-.09,2.23.32,4.35,1.83,6.07.91,1.04,1.97,1.94,3,2.88,1.39,1.27,3.04,1.86,4.93,1.72.14-.01.29.04.47.07-.06.1-.07.14-.09.15-.11.04-.21.09-.32.11-1.74.39-3.45.23-5.14-.28-.6-.18-1.17-.2-1.78-.02-4.2,1.23-8.29,2.73-12.16,4.82-4.33,2.34-7.68,5.63-9.62,10.22-.49,1.16-.85,2.38-1.27,3.57.06.03.13.06.19.09.16-.15.33-.3.49-.47,2.53-2.65,5.38-4.89,8.49-6.84,5.15-3.22,10.73-5.68,15.84-8.98,1.29-.83,2.8-1.24,4.32-1.49.76-.12.93.02.96.74l-.47.23c-1.29.42-2.63.72-3.85,1.29-2.68,1.24-4.94,3.1-7.06,5.13-1.63,1.56-3.22,3.16-4.88,4.69-2.23,2.06-4.5,4.08-6.75,6.12-.2.18-.39.36-.58.55.06.07.12.13.18.2,6.71-3.65,12.11-8.88,17.33-14.65.05,1.11-.55,1.78-.86,2.54-.59.67-1.19,1.34-1.78,2.02-.19.22-.38.44-.5.7-.96,2.01-1.87,4.03-2.85,6.03-2.02,4.1-4.08,8.17-6.65,11.97-.25.37-.4.83-.53,1.26-.88,2.86-1.23,5.82-1.75,8.75-.41,2.36-.7,4.83-2.05,6.85-1.03,1.55-.91,2.97-.57,4.63,1.23,5.95,2.72,11.81,4.67,17.56,2.5,7.37,6.08,14.18,10.48,20.55,4.57,6.62,10.58,11.75,17.32,16.06,2.12,1.36,4.35,2.52,6.73,3.38,2.17.78,4.38.98,6.66.65,2.06-.3,3.96-1.09,5.78-2.04,6.69-3.5,12.49-8.15,17.48-13.78,4.65-5.24,8.07-11.29,10.96-17.61,4.01-8.77,6.32-18.08,8.07-27.53.05-.24-.06-.56-.2-.78-1.39-2.32-2.52-4.75-3.2-7.37-.9-3.47-1.78-6.94-2.58-10.43-1.04-4.51-2.93-8.62-5.41-12.5.06-.14.12-.29.28-.65.65.9,1.22,1.65,1.74,2.42,1.07,1.61,2.12,3.23,3.18,4.85.99,1.73,1.95,3.48,2.98,5.18,1.74,2.87,3.5,5.73,6.09,7.95,1.83,1.58,3.77,3,6.04,3.91.62-2.25-.09-3.49-1.62-4.25-.44-.22-.91-.38-1.35-.58-.58-.27-1.17-.51-1.71-.84-2.38-1.48-4.46-3.32-6.12-5.58-1.43-1.96-2.77-3.98-4.15-5.98Zm-6.6-10.98l-.07.14c.15.17.29.34.45.5.55.55,1.19,1.03,1.64,1.64,1.29,1.74,2.53,3.52,3.75,5.31,1.52,2.22,2.98,4.47,4.5,6.69,2.37,3.44,5.36,6.2,9.05,8.17.34.18.71.31,1.25.55-.1-1.68-.16-3.17-.28-4.66-.08-1-.17-2.02-.39-3-1.27-5.7-4.4-10.09-9.4-13.14-.52-.32-1.03-.48-1.63-.43-2.83.22-5.51-.39-8.09-1.53-.25-.11-.52-.15-.78-.22Zm-63.68,1.77c-.05-.05-.11-.09-.16-.14-.13.08-.28.14-.4.24-1.04.91-2.08,1.84-3.12,2.75-2.87,2.52-6.02,4.59-9.57,6-1.68.67-3.44,1.13-5.23.97-.83-.07-1.13.2-1.45.8-1.79,3.46-2.54,7.1-1.93,10.97.15.93.32,1.85.5,2.9.96-.93,1.83-1.72,2.64-2.58,3.48-3.71,6.99-7.39,10.38-11.18,2.25-2.51,4.37-5.16,6.47-7.8.72-.9,1.25-1.96,1.86-2.95Zm53.5-14.72c0,.07.02.15.03.22.21.06.41.13.62.18,2.47.55,4.81,1.46,6.98,2.78,4.59,2.8,9.14,5.65,13.76,8.4,3.19,1.9,5.75,4.34,7.28,7.78.04.08.13.13.26.25.13-1.62-.21-3.08-.46-4.56-.52-3.12-1.94-5.73-4.33-7.79-1.82-1.57-3.74-2.99-5.89-4.11-4.77-2.47-9.74-4.12-15.19-3.85-1.02.05-2.03.45-3.05.69Zm-66.68,54.83s.08,0,.12-.01c-.38-1.77-.77-3.54-1.12-5.32-.08-.41-.31-.57-.67-.68-1.65-.52-3.06.09-3.81,1.67-.61,1.28-.78,2.66-.82,4.05-.12,4.32.98,8.35,2.99,12.14,1.9,3.59,4.67,6.28,8.35,8.02.35.17.71.32,1.06.48-.44-1.6-.98-3.08-1.56-4.54-.06-.16-.27-.3-.44-.37-1.68-.72-3.04-1.9-4.28-3.2-1.87-1.97-2.92-4.35-3.28-7.03-.05-.4-.18-.86.35-1.27.16.29.33.51.42.76.15.41.25.83.37,1.24.53,1.76,1.26,3.42,2.42,4.86,1.03,1.28,2.32,2.26,3.71,3.12-.04-.23-.12-.41-.23-.56-.66-.95-1.27-1.94-1.99-2.84-.92-1.16-.98-2.35-.37-3.64.12-.26.29-.57.24-.81-.23-1.04-.37-2.15-.87-3.06-.71-1.31-1.69-2.47-2.66-3.82-.41.53-.74.96-1.07,1.38-.2.26-.43.53-.79.32-.41-.25-.26-.61-.05-.9.37-.51.78-.99,1.23-1.55-.2-.15-.46-.32-.68-.52-.15-.14-.24-.33-.36-.5.18-.12.4-.38.54-.34.4.1.86.23,1.13.51.74.76,1.4,1.61,2.09,2.42Zm84.01,20.22s.09.09.14.13c.54-.26,1.11-.49,1.63-.79.9-.52,1.8-1.05,2.64-1.65,2.55-1.84,4.33-4.32,5.66-7.12,1.73-3.66,2.69-7.51,2.4-11.58-.08-1.14-.39-2.27-.7-3.37-.2-.7-.66-1.29-1.33-1.65-.87-.47-1.8-.49-2.68-.11-.63.27-.59.98-.72,1.56-.02.08-.05.17-.07.25-.28,1.3-.55,2.61-.83,3.91.05.03.1.06.15.09.19-.2.38-.39.56-.6.51-.59.97-1.23,1.53-1.77.26-.25.69-.37,1.07-.45.15-.03.36.22.54.34-.12.17-.22.36-.36.5-.21.2-.46.37-.66.53.45.56.84,1.02,1.2,1.5.21.29.38.65,0,.91-.4.27-.63-.06-.84-.34-.31-.4-.62-.8-1.01-1.3-1.37,1.91-2.97,3.49-3.34,5.83-.12.76-.24,1.44.12,2.16.54,1.08.41,2.09-.33,3.08-.85,1.15-1.62,2.36-2.48,3.63.24-.09.44-.12.59-.22,2.04-1.43,3.83-3.1,4.79-5.47.44-1.09.79-2.23,1.19-3.34.12-.33.13-.76.61-.84.29.56.32.86.14,1.76-.87,4.43-3.44,7.54-7.39,9.6-.21.11-.47.28-.55.49-.57,1.44-1.11,2.89-1.65,4.34ZM50.26,53.92c2.59-1.72,5.12-3.19,7.85-4.28,2.73-1.09,5.55-1.88,8.55-2.54-3.24-2.41-4.77-5.51-4.48-9.51-5.62,4.2-9.48,9.62-11.92,16.34Zm96.46,41.84c.64-.08.67-.08.73-.58.22-1.66.44-3.31.59-4.98.03-.38-.13-.89-.39-1.17-.4-.44-.91-.8-1.44-1.07-2.37-1.25-4.61-2.69-6.23-4.87-1.32-1.78-2.52-3.66-3.77-5.49-.18-.27-.35-.55-.52-.82-.09.35-.04.63.04.9.31,1.17.63,2.34.95,3.51,1.03,3.78,1.72,7.67,3.65,11.16.47.85.9,1.72,1.27,2.43,1.07-.24,1.99-.65,2.88-.59.94.06,1.92.47,2.24,1.58Zm-23.12-50.62c2.95.1,5.73.87,8.45,1.91,2.76,1.06,5.4,2.34,7.83,4.08.06-2.44-5.21-11.54-7.41-12.95-.35.79-.57,1.71-1.11,2.38-.67.84-1.55,1.56-2.44,2.17-1.61,1.1-3.42,1.78-5.32,2.41Zm-78.6,49.97c2.97-1.27,5.1-3.25,6.58-5.84,1.47-2.57,2.43-5.36,2.52-8.4-.26.17-.45.37-.63.58-1.77,2.11-3.89,3.77-6.33,5.04-1.03.53-2.08.88-3.26.58.38,2.71.74,5.34,1.11,8.03ZM100.97,20.99c-2.18.14-4.19.49-6.1,1.28-.24.1-.44.37-.57.61-.98,1.92-1.68,3.97-1.89,6.1-.39,3.84.55,7.4,2.63,10.66.14.21.33.39.5.58-1.26-7.28.34-13.65,5.44-19.23Zm-55.72,49.44c1.37-.23,2.74-.37,4.01-.96.13-.06.25-.14.36-.24.89-.82,1.78-1.64,2.65-2.48,3.01-2.88,6.02-5.76,9.03-8.64.23-.22.43-.46.65-.69-.22-.07-.33-.04-.42.01-4.41,2.55-8.86,5.04-12.62,8.54-1.4,1.3-2.66,2.72-3.66,4.44Zm13.64.8c-.11-.11-.23-.23-.34-.34-.11.2-.17.44-.32.6-2.7,2.9-5.41,5.79-8.1,8.7-1.67,1.8-3.33,3.61-4.99,5.42-.26.29-.51.59-.77.89,6.8-3.26,10.85-9.08,14.52-15.27Zm29.53-37.37c.09-.23.14-.3.15-.37.16-1.05.31-2.11.49-3.15.55-3.25,2.03-5.98,4.6-8.09.21-.18.31-.5.58-.95-1.14.07-2.06.11-2.97.21-.25.03-.58.19-.71.4-.57.83-1.19,1.65-1.58,2.57-1.06,2.47-1.2,5.09-.89,7.73.06.51.2,1,.34,1.66Zm34.13,20.34c4.16,4.91,10.5,7.19,16.06,5.91-5.76-.99-10.9-3.47-16.06-5.91Zm-74.69,3.78c-2.32,1.72-4.1,5.51-3.08,7.12.67-2,1.61-3.84,2.71-5.6.23-.37.22-.88.37-1.51Zm100.45,14.15c.51,1.78.93,3.57.98,5.42.05,1.87.16,3.75-.66,5.59.25.12.46.22.76.36.72-3.99.87-7.79-1.08-11.38Zm-99.64,22.13c.6.16,1.26.34,1.9.51.83-1.06,1.8-3.42,1.8-4.27-1.21,1.23-2.45,2.49-3.7,3.77Zm-5.7-5.13c-1.37,1.87-.75,5.73,1.09,6.47-.28-1.08-.62-2.11-.8-3.17-.18-1.09-.2-2.21-.29-3.3Zm84.24-46.74c2.81-.85,5.02-4.26,3.72-5.87.03,2.83-2.01,4.23-3.72,5.87Zm22.26,49.92c-.36,1.47-.69,2.96-1.09,4.43-.14.51-.15.95.2,1.48.92-1.96,1.66-3.85.89-5.91Zm-9.92-30.71c1.13.82,2.18,1.59,3.23,2.35.05-.06.09-.11.14-.17-.65-.64-1.3-1.27-1.94-1.92-.41-.42-.86-.48-1.44-.26Zm-88.95-5.94c-.79.19-1.29.67-1.48,1.42.6-.21,1.2-.78,1.48-1.42Z"/><path class="cls-5" d="m99.52,45.29c.61.12,1.2.5,1.85.16.94.13,1.88.25,2.82.38.23,0,.45,0,.68-.01,1.9.53,3.8,1.06,5.69,1.61.21.06.39.22.59.33.17.59.69.21,1.01.36.59.28,1.18.57,1.76.85.4.29.78.63,1.21.86,1.81.95,3.33,2.28,4.8,3.68,1.63,1.55,3.29,3.07,4.9,4.64.47.46.82,1.04,1.25,1.55.37.44.77.85,1.16,1.27.13.31.24.64.4.94.47.86,1.11,1.64,1.19,2.68,2.48,3.87,4.37,7.99,5.41,12.5.8,3.49,1.69,6.96,2.58,10.43.68,2.62,1.8,5.05,3.2,7.37.13.22.24.54.2.78-1.75,9.45-4.06,18.76-8.07,27.53-2.89,6.32-6.31,12.37-10.96,17.61-4.99,5.63-10.8,10.29-17.48,13.78-1.82.95-3.72,1.74-5.78,2.04-2.28.33-4.49.13-6.66-.65-2.38-.86-4.6-2.02-6.73-3.38-6.74-4.32-12.75-9.44-17.32-16.06-4.4-6.38-7.98-13.18-10.48-20.55-1.96-5.76-3.45-11.62-4.67-17.56-.34-1.66-.46-3.07.57-4.63,1.34-2.02,1.63-4.48,2.05-6.85.51-2.93.87-5.89,1.75-8.75.13-.44.28-.89.53-1.26,2.57-3.8,4.63-7.87,6.65-11.97.98-1.99,1.9-4.02,2.85-6.03.12-.25.31-.48.5-.7.58-.68,1.18-1.35,1.78-2.02.4-.41.82-.81,1.21-1.23,1.59-1.73,3.36-3.26,5.26-4.63l.47-.23c1.86-1.16,3.83-2.07,5.96-2.6.56.08,1.12.15,1.68.23.03-.07.06-.14.09-.22-.12-.12-.24-.25-.36-.37,1.67-.4,3.33-.81,5-1.18.75-.16,1.52-.22,2.27-.32.11-.01.21-.03.32-.04,1.23-.11,2.46-.27,3.7-.32,1.73-.06,3.47-.03,5.2-.04Zm-1.73,93.95s.09,0,.14-.01c.3-.07.6-.14.89-.21,1.65-.42,3.24-.98,4.62-2.02,1.01-.75,2.04-1.49,2.67-2.62.22-.35.44-.71.66-1.06.37-.41.52-.85.12-1.31-.38-.44-.81-.28-1.25-.04-.17.09-.38.11-.57.17-.8.05-1.61.07-2.41.16-1.78.19-3.55.41-5.32.62-.57.07-1.15.27-1.71.2-1.8-.2-3.59-.53-5.39-.74-1.2-.14-2.41-.17-3.62-.25-.29-.11-.57-.29-.86-.31-.31-.02-.69.04-.92.21-.32.25-.32.66-.08,1,.13.18.32.31.49.47.11.29.23.58.34.87.73.76,1.39,1.61,2.21,2.25,1.74,1.37,3.7,2.3,5.96,2.44.07.04.14.09.21.13.85.52,1.79.61,2.75.46.37-.06.71-.27,1.07-.41Zm14.18-37.9c.47-.11.94-.26,1.41-.31.5-.06.9.15,1.1.65.19.47-.02.86-.36,1.15-.34.3-.75.51-1.12.77-.34.14-.69.28-1.04.43,1.46,2.08,5.25,2.53,7.36,1.17,1.34-.86,2.04-2.19,2.34-3.72.41-2.08-.03-3.96-1.54-5.59,1.02.21,1.98.48,2.92.81,1.78.63,2.64,2.01,2.85,3.79.09.73-.07,1.49-.13,2.23-.05.62.23.92.81.72.4-.14.79-.38,1.09-.67.85-.83,1.42-1.82,1.35-3.08.35-.07.66-.11.97-.19.64-.17,1.29-.31,1.91-.55.46-.18.86-.5.7-1.18-.95-.04-1.9-.17-2.85-.09-1.17.1-1.97-.32-2.52-1.26.8-.33,1.61-.64,2.38-1.02.24-.12.39-.45.58-.68-.27-.1-.55-.29-.82-.27-.78.05-1.55.18-2.32.28-1.07.13-2.1.2-3.11-.38-.74-.42-1.59-.7-2.42-.93-3.06-.86-6.09-.5-9.06.38-2.26.67-4.21,1.9-5.7,3.77-.26.33-.48.73-.6,1.14-.11.39.21.6.57.43.13-.06.23-.17.36-.24,1.52-.88,3.05-1.76,4.58-2.63.17-.1.38-.13.74-.25-1.6,1.78-2.12,3.66-1.61,5.88.45-.21.82-.38,1.18-.54Zm-38.89,2.26c-.38.16-.76.32-1.15.48,1.28,2.15,5.49,2.63,8.02.53,1.16-.97,1.68-2.26,1.81-3.72.15-1.87-.43-3.49-1.88-4.94.33.11.53.15.7.24,1.6.91,3.2,1.84,4.81,2.75.2.11.46.13.69.19.02-.27.13-.59.03-.79-.24-.46-.54-.89-.89-1.27-1.74-1.83-3.86-3-6.32-3.57-3.43-.79-6.84-.95-10.08.67-1.42.71-2.81.73-4.28.51-.8-.11-1.61-.19-2.41-.25-.17-.01-.35.14-.53.21.09.19.13.43.28.57.18.18.43.3.67.4.74.29,1.49.55,2.2.81-.57,1.13-1.6,1.28-2.76,1.24-.95-.03-1.9.06-2.97.11.13.32.16.61.32.77.92.93,2.23.82,3.41,1.17,0,.22-.02.42,0,.61.21,1.43.92,2.54,2.24,3.19.23.11.63.16.78.03.16-.13.19-.51.17-.78-.02-.34-.14-.68-.21-1.02-.28-1.52.11-2.81,1.34-3.79,1.29-1.03,2.81-1.58,4.4-1.95.18-.04.38.01.71.03-1.52,1.75-1.95,3.65-1.34,5.86.45-.21.84-.4,1.22-.58.5-.11,1-.25,1.5-.31.47-.05.91.17.98.65.05.34-.06.81-.28,1.08-.3.36-.77.57-1.16.85Zm.84-20.07c-2.13.17-4.27.28-6.39.52-2.17.25-4.22.96-6.13,2.03-.37.21-.74.46-1.03.77-.4.43-.24.81.34.91.22.04.46,0,.69-.04.85-.16,1.7-.31,2.54-.53,4.3-1.09,8.63-1.09,12.99-.48,2.37.33,4.76.59,7.14.83.68.07,1.39,0,2.07-.06.63-.06,1.2-.7,1.24-1.27.04-.54-.25-.86-1.02-1.09-.28-.08-.56-.14-.84-.22-3.8-1.01-7.69-1.22-11.61-1.37Zm43.93.05c-1.82.09-3.64.16-5.45.29-2.4.18-4.76.58-7.07,1.25-.51.15-1,.36-1.01,1.02,0,.52.54,1.17,1.1,1.32.17.04.34.07.51.06,1.21-.03,2.43.02,3.63-.11,2.99-.31,5.96-.71,8.94-1.04,2.37-.26,4.74-.04,7.07.37,1.53.27,3.05.64,4.57.95.48.1,1.1.29,1.32-.25.24-.6-.38-.93-.82-1.14-1.33-.62-2.65-1.3-4.05-1.73-2.84-.88-5.8-.93-8.76-.99Zm-53.46,10.26c.06.1.11.2.17.29.9-.29,1.81-.55,2.7-.86,2-.71,4.03-1.3,6.14-1.43,4.09-.25,8.08.25,11.82,2.08.26.13.56.16.84.24.19-.59-.14-.84-.45-1.03-.57-.34-1.15-.66-1.76-.92-2.26-.97-4.66-1.33-7.09-1.51-3.85-.28-7.55.3-10.98,2.18-.49.27-.93.63-1.39.95Zm63.23.28c-.03-.23,0-.42-.06-.48-.32-.28-.64-.6-1.02-.77-1.3-.56-2.58-1.18-3.94-1.55-3.85-1.07-7.73-.82-11.58.07-1.52.35-3.01.85-4.3,1.77-.24.17-.54.64-.46.8.22.44.59.09.88-.04,5.53-2.5,11.18-2.86,16.96-.96,1.14.37,2.27.75,3.51,1.16Zm-33.16,28.11c-.13-.42-.27-.81-.38-1.2-.27-1.03-.51-2.07-.8-3.09-.06-.22-.28-.54-.44-.55-.23-.02-.58.14-.7.34-.3.48-.59,1.01-.72,1.55-.08.34,0,.9.24,1.11.75.7,1.61,1.28,2.43,1.9.04.03.16-.03.36-.07Zm4.96-1.85c-.82.39-1.68.77-2.5,1.21-.14.07-.2.46-.14.66.03.11.41.24.57.18.83-.3,1.66-.64,2.46-1.03.17-.08.3-.42.29-.63,0-.11-.35-.21-.67-.38Zm26.5-14.58c0-.78-.96-1.7-1.58-1.63-.17.02-.41.15-.47.29-.06.14,0,.43.12.52.44.36.92.69,1.41.97.12.07.37-.11.51-.15Zm-59.9.35c.6-.41,1.21-.77,1.74-1.21.31-.25.1-.79-.28-.74-.42.06-.86.27-1.19.54-.34.29-.68.71-.27,1.4Zm57.3.74c.16-.57-.12-1-.49-1.36-.11-.11-.41-.14-.54-.06-.12.07-.2.34-.18.5.07.44.64.85,1.21.92Zm-53.57-.96c-.17-.24-.24-.43-.37-.48-.13-.05-.4-.03-.46.06-.23.35-.42.73-.57,1.11-.02.04.33.31.36.28.36-.3.69-.63,1.04-.98Z"/><path class="cls-29" d="m104.19,45.83c-.94-.13-1.88-.25-2.82-.38-.17-.15-.32-.32-.5-.45-.92-.64-1.87-1.24-2.77-1.91-.3-.23-.53-.61-.67-.97-1.06-2.69-1.23-5.48-.91-8.34.37-3.28,1.38-6.32,3.23-9.04.79-1.16,1.8-2.18,2.7-3.26.33-.4.74-.51,1.24-.44,2.09.32,4.15.76,6.1,1.58.45.19.86.44,1.29.67.04.22.05.45.14.64.4.8.86,1.57,1.24,2.38.63,1.33,1.18,2.71,1.27,4.2.25,4.14-1.07,7.71-3.92,10.73-1.27,1.34-2.75,2.37-4.33,3.28-.54.31-1.13.62-1.28,1.32Z"/><path class="cls-29" d="m99.52,45.29c-1.73,0-3.47-.02-5.2.04-1.23.04-2.47.21-3.7.32-.28-.16-.53-.4-.83-.46-2.75-.59-5.43-1.42-8.02-2.51-3.33-1.4-5.99-3.56-7.51-6.96-.68-1.52-1-3.08-.81-4.73.18-1.56.98-2.85,2.17-3.83,1.87-1.54,4.04-2.57,6.3-3.43,2.32-.88,4.7-1.59,7.14-1.97-.49.96-1.06,1.85-1.43,2.83-1.25,3.36-1.38,6.8-.22,10.19.82,2.4,1.83,4.74,2.85,7.07.38.85,1.02,1.61,1.6,2.35.25.32.66.5,1,.75.07-.05.14-.11.21-.16-.09-.23-.13-.49-.28-.67-2.47-3.05-3.36-6.55-3.08-10.42.14-2.01.47-3.95,1.26-5.81.09-.21.2-.41.32-.61.02-.04.1-.04.2-.07,0,.18.03.35,0,.51-.69,3.32-.12,6.49,1.13,9.57,1.36,3.32,3.6,5.9,6.65,7.77.1.06.17.15.25.23Z"/><path class="cls-29" d="m90.31,45.69c-.76.1-1.53.16-2.27.32-1.67.36-3.33.78-5,1.18-1.61-.72-3.22-1.43-4.82-2.17-1.78-.82-3.18-2.09-4.28-3.7-1.34-1.95-2.38-4.03-2.44-6.47,0-.32-.14-.64-.25-1.12-.19.28-.33.38-.34.5-.05.86-.22,1.74-.09,2.57.27,1.76,1.07,3.35,2,4.86,1.34,2.14,3.08,3.82,5.49,4.71,1.11.41,2.22.79,3.34,1.19-2.13.53-4.1,1.43-5.96,2.6-.02-.73-.2-.87-.96-.74-1.53.25-3.03.66-4.32,1.49-5.11,3.3-10.69,5.75-15.84,8.98-3.11,1.95-5.96,4.19-8.49,6.84-.16.16-.33.31-.49.47-.06-.03-.13-.06-.19-.09.42-1.19.78-2.41,1.27-3.57,1.94-4.59,5.29-7.87,9.62-10.22,3.86-2.09,7.95-3.59,12.16-4.82.61-.18,1.18-.16,1.78.02,1.69.51,3.4.67,5.14.28.11-.02.22-.07.32-.11.02,0,.03-.04.09-.15-.18-.03-.32-.08-.47-.07-1.9.14-3.54-.45-4.93-1.72-1.02-.93-2.09-1.84-3-2.88-1.51-1.72-1.91-3.85-1.83-6.07.05-1.31.42-2.56.92-3.77.14-.33.17-.71.25-1.06-.06-.04-.12-.07-.19-.11-.22.23-.49.43-.66.69-2.47,3.58-1.7,9.46,1.27,11.87.08.07.14.17.13.41-.18-.07-.38-.11-.52-.22-2.01-1.57-3.11-3.63-3.57-6.14-.38-2.08.3-3.7,1.58-5.24,2.11-2.53,4.72-4.4,7.72-5.84-.62,1.32-1.65,2.52-1.37,4.22.81-.32.69-1.16,1.23-1.58.06.95.02,1.85.19,2.7.81,4.13,3.22,7.13,6.83,9.14,3.39,1.89,7.05,2.87,10.95,2.83Z"/><path class="cls-29" d="m111.15,47.76c-.2-.11-.38-.27-.59-.33-1.89-.55-3.79-1.08-5.69-1.61.37-.16.73-.34,1.11-.49,2.4-1.01,4.41-2.54,5.95-4.63,1.13-1.54,2.16-3.14,3.17-4.76.9-1.43,1.49-3.01,1.68-4.7.17-1.59-.08-3.11-.94-4.49-.2-.32-.43-.7-1.05-.67.07.33.11.62.18.91.21.87.48,1.72.64,2.6.17.97,0,1.91-.5,2.79-.13-.48-.16-.95-.13-1.42.13-1.78-.4-3.37-1.34-4.84-.51-.8-1.08-1.56-1.63-2.34,1.36.75,2.72,1.51,4.09,2.25.71.39,1.45.72,2.14,1.13.24.14.48.41.56.68.37,1.31.21,2.64-.05,3.95-.39,1.98-1.13,3.82-2.17,5.54-1.57,2.61-3.3,5.09-5.41,7.3-.29.31-.63.58-1.03.95.87.18,1.44-.2,1.94-.65.9-.81,1.81-1.63,2.58-2.55,1.69-2.02,3.29-4.11,4.35-6.55,1.01-2.31,1.55-4.71,1.34-7.25-.03-.37-.09-.74-.14-1.16.7-.08,1.3.18,1.9.45,2.84,1.27,4.91,3.39,6.7,5.87.58.81.91,1.64.94,2.63.02.88-.22,1.65-.76,2.33-1.07,1.36-2.44,2.37-3.85,3.34-2.74,1.9-5.82,3.06-8.96,4.09-1.67.55-3.35,1.08-5.03,1.62Z"/><path class="cls-29" d="m127.61,60.03c.26.07.54.12.78.22,2.58,1.14,5.26,1.75,8.09,1.53.6-.05,1.11.11,1.63.43,5,3.06,8.13,7.44,9.4,13.14.22.98.3,2,.39,3,.12,1.49.18,2.98.28,4.66-.54-.23-.91-.36-1.25-.55-3.69-1.98-6.68-4.74-9.05-8.17-1.52-2.21-2.99-4.47-4.5-6.69-1.22-1.79-2.46-3.57-3.75-5.31-.46-.61-1.09-1.1-1.64-1.64-.16-.16-.3-.33-.45-.5l.07-.14Z"/><path class="cls-29" d="m63.93,61.8c-.61.99-1.14,2.05-1.86,2.95-2.11,2.64-4.22,5.28-6.47,7.8-3.39,3.78-6.9,7.47-10.38,11.18-.8.86-1.68,1.65-2.64,2.58-.18-1.05-.36-1.97-.5-2.9-.61-3.88.14-7.52,1.93-10.97.31-.6.61-.87,1.45-.8,1.8.16,3.56-.31,5.23-.97,3.55-1.42,6.71-3.48,9.57-6,1.04-.91,2.08-1.84,3.12-2.75.12-.1.26-.16.4-.24.05.05.11.09.16.14Z"/><path class="cls-29" d="m117.43,47.08c1.02-.24,2.02-.64,3.05-.69,5.45-.27,10.42,1.38,15.19,3.85,2.15,1.11,4.07,2.54,5.89,4.11,2.39,2.06,3.82,4.67,4.33,7.79.25,1.48.59,2.94.46,4.56-.13-.12-.22-.17-.26-.25-1.52-3.44-4.08-5.88-7.28-7.78-4.62-2.75-9.17-5.6-13.76-8.4-2.17-1.32-4.5-2.23-6.98-2.78-.21-.05-.42-.12-.62-.18,0-.07-.02-.15-.03-.22Z"/><path class="cls-5" d="m50.76,101.91c-.69-.81-1.35-1.66-2.09-2.42-.27-.28-.73-.41-1.13-.51-.14-.04-.36.22-.54.34.12.17.21.36.36.5.22.21.48.37.68.52-.45.56-.86,1.04-1.23,1.55-.21.29-.36.65.05.9.36.22.59-.06.79-.32.33-.42.65-.84,1.07-1.38.96,1.36,1.95,2.51,2.66,3.82.49.91.63,2.03.87,3.06.05.24-.12.55-.24.81-.61,1.29-.55,2.48.37,3.64.72.9,1.33,1.89,1.99,2.84.11.16.19.34.23.56-1.39-.86-2.68-1.84-3.71-3.12-1.16-1.44-1.89-3.1-2.42-4.86-.12-.41-.22-.84-.37-1.24-.09-.25-.26-.47-.42-.76-.53.41-.4.87-.35,1.27.36,2.68,1.41,5.06,3.28,7.03,1.23,1.3,2.59,2.48,4.28,3.2.17.07.38.21.44.37.57,1.46,1.12,2.94,1.56,4.54-.35-.16-.71-.31-1.06-.48-3.68-1.74-6.45-4.43-8.35-8.02-2.01-3.79-3.11-7.82-2.99-12.14.04-1.39.21-2.77.82-4.05.75-1.58,2.16-2.18,3.81-1.67.36.11.59.27.67.68.36,1.78.74,3.55,1.12,5.32-.04,0-.08,0-.12.01Z"/><path class="cls-5" d="m134.76,122.13c.55-1.45,1.08-2.9,1.65-4.34.08-.2.34-.37.55-.49,3.95-2.06,6.52-5.17,7.39-9.6.18-.9.14-1.2-.14-1.76-.47.08-.49.51-.61.84-.4,1.11-.74,2.25-1.19,3.34-.96,2.37-2.76,4.03-4.79,5.47-.15.1-.35.14-.59.22.86-1.26,1.63-2.48,2.48-3.63.73-.99.86-2.01.33-3.08-.36-.73-.24-1.4-.12-2.16.36-2.34,1.96-3.91,3.34-5.83.39.5.7.9,1.01,1.3.22.28.45.61.84.34.39-.26.22-.63,0-.91-.36-.48-.75-.94-1.2-1.5.2-.16.45-.33.66-.53.15-.14.24-.33.36-.5-.18-.12-.39-.37-.54-.34-.38.07-.81.19-1.07.45-.56.54-1.03,1.17-1.53,1.77-.18.21-.37.4-.56.6-.05-.03-.1-.06-.15-.09.28-1.3.55-2.61.83-3.91.02-.08.05-.17.07-.25.12-.58.08-1.29.72-1.56.88-.37,1.81-.35,2.68.11.67.36,1.13.95,1.33,1.65.31,1.11.62,2.24.7,3.37.29,4.08-.67,7.93-2.4,11.58-1.33,2.8-3.11,5.29-5.66,7.12-.84.61-1.75,1.13-2.64,1.65-.52.3-1.08.53-1.63.79-.05-.04-.09-.09-.14-.13Z"/><path class="cls-29" d="m50.26,53.92c2.44-6.71,6.3-12.13,11.92-16.34-.28,4,1.24,7.1,4.48,9.51-3,.66-5.82,1.45-8.55,2.54-2.74,1.09-5.26,2.57-7.85,4.28Z"/><path class="cls-29" d="m146.72,95.76c-.32-1.11-1.3-1.52-2.24-1.58-.89-.06-1.82.35-2.88.59-.37-.71-.8-1.58-1.27-2.43-1.92-3.49-2.62-7.38-3.65-11.16-.32-1.17-.64-2.34-.95-3.51-.07-.27-.13-.54-.04-.9.17.27.34.55.52.82,1.25,1.84,2.45,3.71,3.77,5.49,1.62,2.18,3.85,3.62,6.23,4.87.53.28,1.05.64,1.44,1.07.26.28.42.79.39,1.17-.15,1.66-.37,3.32-.59,4.98-.06.5-.09.5-.73.58Z"/><path class="cls-29" d="m123.6,45.14c1.9-.63,3.72-1.31,5.32-2.41.89-.61,1.77-1.33,2.44-2.17.53-.66.75-1.58,1.11-2.38,2.21,1.41,7.48,10.51,7.41,12.95-2.43-1.73-5.07-3.02-7.83-4.08-2.72-1.04-5.5-1.81-8.45-1.91Z"/><path class="cls-29" d="m45,95.11c-.37-2.7-.74-5.33-1.11-8.03,1.18.29,2.24-.05,3.26-.58,2.44-1.27,4.56-2.93,6.33-5.04.18-.21.37-.41.63-.58-.09,3.03-1.05,5.82-2.52,8.4-1.48,2.59-3.62,4.57-6.58,5.84Z"/><path class="cls-29" d="m100.97,20.99c-5.1,5.58-6.7,11.95-5.44,19.23-.17-.19-.36-.37-.5-.58-2.08-3.26-3.01-6.82-2.63-10.66.21-2.13.91-4.18,1.89-6.1.12-.24.33-.51.57-.61,1.91-.79,3.92-1.14,6.1-1.28Z"/><path class="cls-30" d="m111.99,23.78c.54.78,1.11,1.54,1.63,2.34.94,1.47,1.47,3.06,1.34,4.84-.03.47,0,.94.13,1.42.5-.89.67-1.83.5-2.79-.15-.88-.43-1.73-.64-2.6-.07-.28-.12-.58-.18-.91.62-.02.85.35,1.05.67.86,1.37,1.11,2.9.94,4.49-.18,1.69-.78,3.26-1.68,4.7-1.01,1.61-2.04,3.22-3.17,4.76-1.53,2.09-3.55,3.62-5.95,4.63-.37.16-.74.33-1.11.49-.23,0-.45,0-.68.01.15-.71.73-1.01,1.28-1.32,1.59-.91,3.07-1.94,4.33-3.28,2.86-3.01,4.18-6.59,3.92-10.73-.09-1.49-.64-2.87-1.27-4.2-.38-.81-.84-1.58-1.24-2.38-.1-.19-.1-.43-.14-.64l.91.5Z"/><path class="cls-29" d="m113.93,48.97c-.59-.28-1.18-.57-1.76-.85.37-.06.74-.12,1.11-.17.14-.02.32-.09.43-.03,1.11.58,2.32.18,3.47.41,2.97.59,5.64,1.84,8.2,3.41,3.4,2.09,6.81,4.15,10.22,6.23.09.06.17.14.21.37-.31-.07-.61-.13-.92-.22-3-.88-5.89-2.07-8.72-3.4-2.25-1.06-4.48-2.15-6.7-3.26-.8-.4-1.5-1-2.31-1.36-1.04-.46-2.15-.77-3.22-1.14Z"/><path class="cls-29" d="m45.25,70.43c1-1.73,2.26-3.14,3.66-4.44,3.76-3.5,8.21-5.99,12.62-8.54.09-.05.2-.08.42-.01-.22.23-.42.47-.65.69-3.01,2.88-6.02,5.76-9.03,8.64-.88.83-1.76,1.65-2.65,2.48-.1.1-.23.18-.36.24-1.27.59-2.64.73-4.01.96Z"/><path class="cls-29" d="m75.21,50.37c-1.9,1.37-3.67,2.9-5.26,4.63-.39.42-.8.82-1.21,1.23.32-.76.91-1.43.86-2.54-5.22,5.76-10.61,11-17.33,14.65-.06-.07-.12-.13-.18-.2.19-.18.38-.37.58-.55,2.25-2.04,4.52-4.05,6.75-6.12,1.65-1.53,3.24-3.14,4.88-4.69,2.12-2.02,4.38-3.89,7.06-5.13,1.22-.56,2.56-.87,3.85-1.29Z"/><path class="cls-29" d="m134.21,71.01c1.38,2,2.71,4.03,4.15,5.98,1.66,2.26,3.73,4.1,6.12,5.58.54.33,1.13.57,1.71.84.45.21.91.37,1.35.58,1.53.76,2.24,2,1.62,4.25-2.27-.91-4.21-2.33-6.04-3.91-2.58-2.22-4.35-5.08-6.09-7.95-1.03-1.7-1.99-3.45-2.98-5.18.06-.06.11-.13.17-.19Z"/><path class="cls-29" d="m58.89,71.23c-3.66,6.18-7.72,12-14.52,15.27.26-.3.5-.6.77-.89,1.66-1.81,3.31-3.62,4.99-5.42,2.7-2.9,5.41-5.79,8.1-8.7.15-.16.22-.4.32-.6.11.11.23.23.34.34Z"/><path class="cls-29" d="m88.42,33.86c-.14-.66-.28-1.15-.34-1.66-.3-2.65-.17-5.26.89-7.73.39-.91,1.02-1.74,1.58-2.57.14-.2.46-.37.71-.4.91-.1,1.83-.14,2.97-.21-.27.45-.36.77-.58.95-2.57,2.11-4.05,4.84-4.6,8.09-.18,1.05-.32,2.1-.49,3.15-.01.07-.05.14-.15.37Z"/><path class="cls-29" d="m122.55,54.19c5.16,2.44,10.3,4.92,16.06,5.91-5.56,1.28-11.9-1-16.06-5.91Z"/><path class="cls-28" d="m48.68,94.25c1.25-1.27,2.49-2.54,3.7-3.77,0,.85-.97,3.21-1.8,4.27-.64-.17-1.3-.35-1.9-.51Z"/><path class="cls-25" d="m134.21,71.01c-.06.06-.11.13-.17.19-1.06-1.62-2.11-3.24-3.18-4.85-.52-.78-1.09-1.52-1.74-2.42-.16.36-.22.51-.28.65-.07-1.04-.71-1.82-1.19-2.68-.16-.3-.27-.62-.4-.94.41.43.9.81,1.22,1.29,1.93,2.9,3.83,5.83,5.74,8.75Z"/><path class="cls-26" d="m127.22,42.38c1.71-1.64,3.75-3.05,3.72-5.87,1.3,1.61-.91,5.02-3.72,5.87Z"/><path class="cls-23" d="m139.56,61.58c.57-.22,1.03-.15,1.44.26.64.65,1.29,1.28,1.94,1.92-.05.06-.09.11-.14.17-1.05-.76-2.1-1.53-3.23-2.35Z"/><path class="cls-27" d="m50.61,55.65c-.29.65-.88,1.22-1.48,1.42.19-.75.69-1.23,1.48-1.42Z"/><path class="cls-16" d="m72.04,101.34c-.39.18-.77.36-1.22.58-.61-2.21-.18-4.11,1.34-5.86-.33-.02-.53-.07-.71-.03-1.59.36-3.11.92-4.4,1.95-1.22.98-1.62,2.27-1.34,3.79.06.34.19.67.21,1.02.01.27,0,.65-.17.78-.16.13-.56.08-.78-.03-1.32-.65-2.03-1.75-2.24-3.19-.03-.19,0-.4,0-.61-1.18-.36-2.49-.25-3.41-1.17-.16-.16-.19-.45-.32-.77,1.07-.04,2.02-.14,2.97-.11,1.16.04,2.19-.11,2.76-1.24-.71-.26-1.46-.52-2.2-.81-.24-.09-.49-.22-.67-.4-.14-.14-.19-.38-.28-.57.18-.07.36-.22.53-.21.81.06,1.61.13,2.41.25,1.48.21,2.86.19,4.28-.51,3.24-1.61,6.65-1.46,10.08-.67,2.46.57,4.58,1.74,6.32,3.57.35.37.66.81.89,1.27.11.2-.01.52-.03.79-.23-.06-.49-.08-.69-.19-1.61-.91-3.2-1.84-4.81-2.75-.17-.09-.37-.13-.7-.24,1.45,1.45,2.04,3.07,1.88,4.94-.12,1.46-.65,2.75-1.81,3.72-2.53,2.11-6.74,1.62-8.02-.53.39-.16.77-.32,1.15-.48.24.16.48.32.73.47,2.25,1.41,5.91.27,6.5-2.53.2-.95.18-1.9-.14-2.82-1.03-2.99-5.1-3.91-7.06-1.65-1.11,1.28-1.42,2.66-1.07,4.26Z"/><path class="cls-16" d="m111.98,101.34c-.37.17-.73.34-1.18.54-.51-2.22,0-4.1,1.61-5.88-.36.12-.57.15-.74.25-1.53.87-3.06,1.75-4.58,2.63-.12.07-.23.18-.36.24-.37.17-.68-.04-.57-.43.12-.4.33-.81.6-1.14,1.49-1.86,3.44-3.1,5.7-3.77,2.97-.88,6.01-1.24,9.06-.38.83.23,1.68.5,2.42.93,1.01.58,2.04.52,3.11.38.77-.1,1.55-.23,2.32-.28.27-.02.55.17.82.27-.19.23-.33.56-.58.68-.77.38-1.58.68-2.38,1.02.55.94,1.36,1.35,2.52,1.26.94-.08,1.9.05,2.85.09.16.68-.24,1-.7,1.18-.61.24-1.27.38-1.91.55-.3.08-.61.12-.97.19.07,1.27-.51,2.25-1.35,3.08-.3.29-.69.53-1.09.67-.58.2-.86-.1-.81-.72.06-.74.22-1.5.13-2.23-.21-1.78-1.07-3.17-2.85-3.79-.94-.33-1.91-.6-2.92-.81,1.51,1.63,1.95,3.5,1.54,5.59-.3,1.53-1.01,2.86-2.34,3.72-2.11,1.36-5.9.91-7.36-1.17.36-.15.7-.29,1.04-.43.5.23.99.47,1.49.69,2.08.93,4.41.22,5.36-1.71.5-1.01.66-2.09.53-3.27-.18-1.6-1.9-3.23-3.25-3.45-1.75-.3-3.67.6-4.55,2.05-.66,1.08-.63,2.25-.62,3.44Z"/><path class="cls-18" d="m73.93,83.54c3.92.15,7.81.37,11.61,1.37.28.07.56.13.84.22.77.23,1.06.55,1.02,1.09-.04.57-.61,1.21-1.24,1.27-.69.07-1.39.13-2.07.06-2.38-.24-4.77-.49-7.14-.83-4.36-.61-8.69-.62-12.99.48-.84.21-1.69.36-2.54.53-.22.04-.46.07-.69.04-.58-.09-.74-.48-.34-.91.29-.31.66-.56,1.03-.77,1.91-1.07,3.96-1.79,6.13-2.03,2.12-.24,4.26-.35,6.39-.52Z"/><path class="cls-18" d="m117.86,83.59c2.96.06,5.92.12,8.76.99,1.4.43,2.72,1.1,4.05,1.73.44.21,1.06.54.82,1.14-.22.54-.84.35-1.32.25-1.52-.32-3.04-.68-4.57-.95-2.34-.41-4.7-.63-7.07-.37-2.98.33-5.96.73-8.94,1.04-1.2.12-2.42.08-3.63.11-.17,0-.35-.02-.51-.06-.56-.15-1.1-.8-1.1-1.32,0-.66.49-.87,1.01-1.02,2.31-.67,4.67-1.08,7.07-1.25,1.81-.13,3.63-.2,5.45-.29Z"/><path class="cls-24" d="m111.98,101.34c-.02-1.19-.04-2.35.62-3.44.88-1.45,2.8-2.35,4.55-2.05,1.34.23,3.06,1.85,3.25,3.45.14,1.18-.03,2.26-.53,3.27-.95,1.93-3.28,2.64-5.36,1.71-.5-.22-.99-.46-1.49-.69.38-.25.78-.47,1.12-.77.33-.29.54-.68.36-1.15-.2-.5-.6-.7-1.1-.65-.48.05-.94.2-1.41.31Zm4.08-.06c.57,0,1.05-.45,1.08-1.03.03-.56-.47-1.1-1-1.1-.61,0-1.18.5-1.19,1.02,0,.58.51,1.09,1.11,1.1Z"/><path class="cls-24" d="m72.04,101.34c-.35-1.6-.04-2.98,1.07-4.26,1.96-2.26,6.03-1.34,7.06,1.65.32.92.34,1.87.14,2.82-.58,2.79-4.25,3.94-6.5,2.53-.24-.15-.48-.31-.73-.47.4-.28.86-.49,1.16-.85.22-.26.33-.73.28-1.08-.07-.47-.52-.69-.98-.65-.51.05-1,.2-1.5.31Zm4.24-.06c.59.02,1.15-.48,1.16-1.04,0-.55-.5-1.04-1.13-1.09-.55-.04-1.07.43-1.09.99-.02.57.49,1.12,1.06,1.14Z"/><path class="cls-30" d="m85.26,133.49c-.17-.15-.36-.28-.49-.47-.24-.34-.24-.76.08-1,.23-.18.61-.23.92-.21.29.02.58.2.86.31.52.17,1.03.35,1.55.52.43.15.85.4,1.29.45,1.98.2,3.82.87,5.65,1.56.52.2.97.22,1.49.02,1.88-.74,3.79-1.39,5.82-1.61.38-.04.75-.26,1.12-.4.51-.17,1.03-.35,1.54-.52.19-.05.4-.07.57-.17.43-.24.87-.4,1.25.04.4.46.24.9-.12,1.31l-1.22.66c-.81.19-1.61.37-2.42.56-1.25.19-2.59.14-3.72.62-1.43.6-2.84.67-4.3.61-.68-.03-1.43-.04-2.02-.32-1.4-.68-2.89-.68-4.36-.9-.23,0-.46.01-.69.02-.93-.35-1.86-.71-2.79-1.06Z"/><path class="cls-31" d="m64.4,93.85c.46-.32.9-.68,1.39-.95,3.43-1.88,7.12-2.46,10.98-2.18,2.43.18,4.83.54,7.09,1.51.61.26,1.2.58,1.76.92.31.19.64.43.45,1.03-.28-.08-.58-.11-.84-.24-3.74-1.84-7.72-2.33-11.82-2.08-2.11.13-4.15.72-6.14,1.43-.89.32-1.8.58-2.7.86-.06-.1-.11-.2-.17-.29Z"/><path class="cls-31" d="m127.63,94.13c-1.24-.41-2.37-.79-3.51-1.16-5.78-1.9-11.43-1.54-16.96.96-.29.13-.66.48-.88.04-.08-.16.22-.63.46-.8,1.29-.92,2.78-1.42,4.3-1.77,3.85-.89,7.73-1.14,11.58-.07,1.35.38,2.64.99,3.94,1.55.38.16.7.49,1.02.77.07.06.04.24.06.48Z"/><path class="cls-30" d="m81.64,47.54c-1.11-.4-2.23-.78-3.34-1.19-2.41-.89-4.15-2.57-5.49-4.71-.94-1.5-1.73-3.09-2-4.86-.13-.83.04-1.71.09-2.57,0-.11.14-.22.34-.5.11.48.25.8.25,1.12.06,2.44,1.11,4.52,2.44,6.47,1.1,1.6,2.51,2.87,4.28,3.7,1.6.74,3.21,1.45,4.82,2.17.12.12.24.25.36.37-.03.07-.06.14-.09.22-.56-.08-1.12-.15-1.68-.23Z"/><path class="cls-10" d="m105.09,132.13c-.51.17-1.03.35-1.54.52-1.76.25-3.54.4-5.26.79-1.58.35-3.09.38-4.67.04-1.79-.38-3.62-.57-5.43-.84-.52-.17-1.03-.35-1.55-.52,1.21.08,2.42.1,3.62.25,1.8.21,3.59.54,5.39.74.56.06,1.14-.14,1.71-.2,1.77-.21,3.55-.43,5.32-.62.8-.09,1.61-.11,2.41-.16Z"/><path class="cls-33" d="m94.47,122.24c-.21.04-.32.1-.36.07-.82-.62-1.68-1.21-2.43-1.9-.24-.22-.32-.77-.24-1.11.13-.55.41-1.07.72-1.55.12-.2.47-.36.7-.34.17.01.38.33.44.55.29,1.02.53,2.06.8,3.09.1.4.25.78.38,1.2Z"/><path class="cls-20" d="m99.44,120.38c.32.17.66.27.67.38.01.21-.12.55-.29.63-.8.39-1.62.72-2.46,1.03-.16.06-.54-.07-.57-.18-.05-.2,0-.58.14-.66.82-.44,1.68-.82,2.5-1.21Z"/><path class="cls-13" d="m106.12,134.37c-.63,1.14-1.66,1.87-2.67,2.62-1.38,1.03-2.97,1.6-4.62,2.02-.3.08-.59.14-.89.21l.69-.69c.52-.17,1.04-.35,1.56-.52.25-.06.51-.1.75-.19,1.29-.44,2.54-.94,3.41-2.07.59-.46,1.17-.92,1.76-1.38Z"/><path class="cls-13" d="m93.77,139.06c-2.26-.14-4.22-1.07-5.96-2.44-.82-.65-1.48-1.49-2.21-2.25.76.09,1.05.8,1.57,1.21,1.13,1.37,2.64,2.08,4.34,2.43l1.56.52c.23.18.46.35.69.53Z"/><path class="cls-2" d="m87.17,135.58c-.52-.41-.81-1.12-1.57-1.21-.11-.29-.23-.58-.34-.87.93.35,1.86.71,2.79,1.06.4.32,1.01.48.86,1.2-.57-.18-1.13-.36-1.74-.17Z"/><path class="cls-8" d="m93.77,139.06c-.23-.18-.46-.35-.69-.53.38-.11.77-.36,1.13-.32,1.47.16,3-.43,4.43.32l-.69.69s-.09.01-.14.01c-.29-.09-.57-.23-.86-.27-.77-.11-1.55-.21-2.33-.23-.2,0-.41.3-.62.46-.07-.04-.14-.09-.21-.13Z"/><path class="cls-21" d="m93.98,139.19c.21-.16.42-.46.62-.46.78.02,1.56.12,2.33.23.29.04.58.18.86.27-.35.14-.7.35-1.07.41-.96.15-1.89.06-2.75-.46Z"/><path class="cls-19" d="m125.94,105.8c-.14.05-.39.22-.51.15-.5-.28-.97-.61-1.41-.97-.12-.09-.18-.39-.12-.52.06-.14.3-.27.47-.29.62-.07,1.58.85,1.58,1.63Z"/><path class="cls-19" d="m66.04,106.15c-.41-.69-.07-1.11.27-1.4.32-.28.77-.49,1.19-.54.38-.05.58.49.28.74-.53.44-1.13.79-1.74,1.21Z"/><path class="cls-1" d="m106.12,134.37c-.59.46-1.17.92-1.76,1.38-.35-.06-.69-.12-1.04-.17.4-.15.8-.29,1.3-.47.01-.34.15-.73.69-.83.1-.02.17-.2.26-.31l1.22-.66c-.22.35-.44.71-.66,1.06Z"/><path class="cls-17" d="m123.34,106.89c-.57-.07-1.15-.48-1.21-.92-.02-.16.06-.43.18-.5.13-.08.43-.04.54.06.38.36.65.79.49,1.36Z"/><path class="cls-22" d="m69.78,105.93c-.36.35-.69.68-1.04.98-.03.02-.38-.24-.36-.28.16-.38.34-.76.57-1.11.06-.09.33-.12.46-.06.12.05.19.24.37.48Z"/><path class="cls-32" d="m116.06,101.28c-.6,0-1.11-.52-1.11-1.1,0-.52.58-1.02,1.19-1.02.53,0,1.03.54,1,1.1-.03.58-.51,1.04-1.08,1.03Z"/><path class="cls-34" d="m76.29,101.28c-.58-.02-1.09-.56-1.06-1.14.02-.55.54-1.03,1.09-.99.63.05,1.14.54,1.13,1.09,0,.55-.57,1.06-1.16,1.04Z"/><path class="cls-14" d="m88.74,134.54c1.47.21,2.96.22,4.36.9.59.29,1.34.3,2.02.32,1.46.06,2.87-.01,4.3-.61,1.13-.47,2.47-.43,3.72-.62-.28.14-.54.31-.83.42-1.33.5-2.61,1.14-4.04,1.31l-1.21.53c-.23.54-.62.79-1.22.7-.17-.03-.35,0-.52,0-.45-.29-.86-.67-1.35-.86-1.41-.56-2.85-1.04-4.28-1.57-.34-.13-.65-.34-.97-.52Z"/><path class="cls-7" d="m88.18,132.65c1.81.27,3.64.46,5.43.84,1.58.34,3.09.31,4.67-.04,1.73-.39,3.51-.54,5.26-.79-.37.14-.73.36-1.12.4-2.03.22-3.94.87-5.82,1.61-.52.2-.97.18-1.49-.02-1.83-.69-3.68-1.36-5.65-1.56-.44-.04-.86-.29-1.29-.45Z"/><path class="cls-11" d="m98.28,136.26c1.43-.17,2.71-.81,4.04-1.31.29-.11.55-.28.83-.42.81-.19,1.61-.37,2.42-.56-.09.11-.16.29-.26.31-.54.1-.67.49-.69.83-.49.18-.9.32-1.3.47-.46.23-.93.46-1.39.69-.39.06-.78.12-1.17.16-.3.03-.6,0-.9.01-.52-.06-1.05-.12-1.57-.18Z"/><path class="cls-12" d="m88.74,134.54c.32.18.63.39.97.52,1.42.53,2.87,1.01,4.28,1.57.49.19.9.57,1.35.86-1.04-.23-2.08-.43-3.11-.69-1-.26-1.98-.58-2.97-.87-.12-.06-.23-.12-.35-.17.15-.72-.46-.88-.86-1.2.23,0,.46-.01.69-.02Z"/><path class="cls-9" d="m89.26,135.93c.99.29,1.97.61,2.97.87,1.03.26,2.07.47,3.11.69.17,0,.35-.02.52,0,.6.09.99-.16,1.22-.7.07.65.5.73,1.05.71.9-.05,1.52-.41,1.73-1.06.3,0,.6.01.9-.01.39-.04.78-.11,1.17-.16-.71.45-1.44.88-1.74,1.74-.52.17-1.04.35-1.56.52-1.43-.75-2.95-.16-4.43-.32-.36-.04-.75.2-1.13.32l-1.56-.52c-.3-.84-.88-1.38-1.73-1.67-.2-.07-.35-.27-.53-.42Z"/><path class="cls-15" d="m100.2,138.01c.3-.86,1.03-1.28,1.74-1.74.46-.23.93-.46,1.39-.69.35.06.69.12,1.04.17-.87,1.13-2.05,1.66-3.34,2.11-.24.08-.57.12-.83.15Z"/><path class="cls-15" d="m89.26,135.93c.17.14.33.35.53.42.85.28,1.43.83,1.73,1.67-1.7-.35-3.21-1.06-4.34-2.43.6-.18,1.17,0,1.74.17.12.06.23.12.35.17Z"/><path class="cls-6" d="m99.85,136.45c-.06.62-.84,1.01-1.73,1.06-.54.03-1.17-.05-1.16-.69,0-.67.68-.77,1.29-.79.58.03,1.23.1,1.6.43Z"/></g></g><g><g><path d="m113.35,176.38s-.08-.01-.11-.03c-.03,0-.05,0-.08,0h-.08c-.08,0-.17,0-.25,0-.01,0-.03,0-.04,0-.07,0-.14-.02-.19-.06-.28-.11-.31-.37-.34-.54,0-.04-.01-.08-.02-.12l-.04-.15c-.04-.17-.09-.35-.11-.53-.04-.42.08-.95.55-1.21.2-.11.43-.13.61-.15.06,0,.12-.02.18-.04.13-.04.29-.08.46-.04.21.04.5.18.63.37.07.11.12.23.15.33l.03.07s.03.07.04.1c.03.08.07.16.09.26.06.29,0,.67-.03.81-.06.28-.2.47-.36.64-.23.25-.65.28-.96.29h-.13s-.01,0-.02,0Zm-.39-.48c.05,0,.1,0,.13,0h.08c.16,0,.29,0,.42-.03.03,0,.04-.01.05-.02,0,0,0-.02,0-.05v-.12c-.03-.13-.04-.26-.08-.35-.05-.1-.11-.12-.12-.13-.05-.02-.16-.01-.36.1l-.04.02c-.09.05-.1.06-.11.08-.04.13,0,.32.03.49Zm.42-1.15c.06,0,.13,0,.19.03.17.05.3.17.39.35.08.17.1.35.12.51v.11s.02.04.02.06c.02-.01.03-.02.04-.03.13-.15.22-.27.25-.43.04-.19.07-.46.03-.63-.01-.05-.04-.1-.06-.16-.02-.04-.04-.09-.06-.13l-.03-.07c-.03-.09-.06-.17-.1-.23-.05-.07-.21-.16-.34-.18-.07-.01-.16.01-.26.04-.08.02-.17.04-.25.05-.14.01-.31.03-.43.1-.28.15-.35.52-.32.78,0,.07.02.13.03.2.07-.09.16-.14.23-.17l.04-.02c.19-.11.36-.16.52-.16Z"/><path d="m114.79,177.15s-.07,0-.1,0c-.03,0-.06,0-.1,0-.05,0-.09,0-.14-.01-.06,0-.12-.01-.17-.02-.21-.02-.44-.04-.67-.15-.07-.03-.14-.07-.21-.11-.04-.02-.08-.05-.12-.07-.27-.14-.46-.3-.68-.49l-.08-.07c-.09-.08-.11-.22-.03-.31.08-.09.22-.11.31-.03l.08.07c.21.18.38.32.6.43.05.02.09.05.14.08.06.03.12.07.18.1.16.08.33.09.52.11.06,0,.12.01.19.02.04,0,.08,0,.11.01.04,0,.08,0,.12.01.04,0,.11,0,.15,0,.03,0,.07-.03.11-.05.08-.04.18-.09.31-.09h0c.12,0,.22.1.22.22,0,.12-.1.22-.22.23-.03,0-.07.02-.12.05-.06.03-.13.07-.22.09-.06.01-.13.02-.2.02Z"/><path d="m113.02,179c-.2,0-.41-.03-.61-.12-.16-.07-.25-.19-.33-.28-.04-.05-.08-.1-.12-.13l-.09-.07c-.11-.08-.22-.16-.31-.28-.23-.28-.23-.66-.22-.97v-.12c0-.32.09-.58.26-.75.08-.08.14-.16.21-.26l.04-.06c.08-.11.38-.4.52-.48.11-.06.24-.02.3.09.06.11.02.24-.09.3-.06.04-.31.27-.38.36l-.04.06c-.08.11-.15.2-.26.31-.11.11-.13.29-.13.43v.13c0,.24,0,.52.12.68.06.08.14.14.24.21.03.03.07.05.1.08.08.06.14.13.19.19.06.07.11.13.17.16.25.11.56.08.86.04h.1c.21-.03.37-.08.5-.16.12-.07.24-.17.36-.27l.11-.09c.24-.2.33-.44.44-.75l.03-.09c.09-.25.15-.42.15-.64,0-.13,0-.25-.01-.38,0-.15-.01-.29-.01-.43,0-.14-.01-.25-.04-.33,0-.02-.02-.04-.03-.07v-.03s-.07-.06-.09-.09c-.04-.04-.06-.07-.06-.07-.01-.01-.14-.12-.25-.21l-.2-.17c-.09-.08-.1-.22-.02-.31.08-.09.22-.1.32-.02l.19.16c.22.19.29.25.33.31l.02.02c.11.11.12.13.14.17l.02.04s.05.09.06.13c.06.17.06.35.06.48,0,.14,0,.27.01.41,0,.13.01.26.01.4,0,.3-.08.52-.17.77l-.04.11c-.12.35-.24.67-.57.95l-.1.08c-.13.11-.27.23-.43.32-.19.11-.4.17-.67.2h-.1c-.16.03-.32.05-.49.05Z"/><path d="m112.14,179.78c-.06,0-.13,0-.2-.03-.06-.02-.12-.04-.18-.07-.05-.02-.1-.04-.15-.05-.18-.06-.34-.15-.49-.25-.08-.05-.16-.1-.25-.15-.28-.14-.55-.29-.75-.58-.09-.13-.16-.27-.23-.4-.04-.08-.09-.17-.14-.25-.04-.07-.09-.15-.14-.22-.04-.06-.08-.13-.13-.19-.07-.1-.1-.21-.14-.31-.01-.04-.02-.07-.04-.11-.07-.19-.13-.39-.19-.58l-.05-.18c-.06-.2-.06-.42-.05-.6,0-.05,0-.1,0-.15,0-.36.02-.71.32-1.04.12-.13.23-.24.38-.35.1-.07.21-.19.3-.29.24-.28.54-.38.82-.47.05-.02.1-.04.16-.05.04-.01.07-.03.11-.04.05-.02.1-.04.15-.06.11-.04.21-.04.3-.04h.05c.14,0,.24.01.35.02.27.03.45.17.63.29.05.03.09.07.14.1.1.07.13.21.06.31-.07.1-.21.13-.31.06-.05-.04-.11-.07-.16-.11-.16-.11-.27-.2-.43-.21-.09-.01-.2-.02-.29-.02h-.06c-.06,0-.11,0-.15.01-.04.01-.08.03-.11.05-.05.02-.09.04-.14.06-.06.02-.11.04-.17.06-.25.08-.47.16-.63.34-.11.13-.24.26-.38.37-.12.08-.2.17-.31.29-.17.19-.2.38-.2.73,0,.06,0,.11,0,.17,0,.17,0,.33.03.46l.05.18c.05.18.11.37.18.54.02.04.03.08.04.12.03.08.05.16.09.22.04.06.08.12.12.18.05.08.1.16.15.23.05.09.1.18.15.27.07.13.13.25.2.35.14.2.35.32.59.43.1.05.19.11.29.17.13.08.25.16.38.2.06.02.12.04.18.06.05.02.1.04.15.06.05.02.1.01.19,0h.08c.06-.02.12-.02.18-.02.05,0,.1,0,.16,0,.16-.02.33-.02.47,0,.03,0,.06,0,.1.01.05,0,.09.02.12.01.07,0,.18-.08.26-.13.3-.18.49-.35.61-.52l.06-.08c.1-.14.19-.26.26-.41.02-.04.03-.07.04-.11.04-.12.09-.25.18-.36.07-.1.21-.12.31-.04.1.07.12.21.04.31-.05.06-.08.15-.12.25-.02.04-.03.09-.05.13-.08.19-.2.35-.31.5l-.06.08c-.16.22-.39.42-.72.63-.14.09-.3.18-.47.2-.1.01-.18,0-.25-.01-.02,0-.05,0-.07-.01-.11-.01-.24,0-.37,0-.07,0-.13,0-.2.01-.05,0-.1,0-.15,0h-.07c-.06.02-.11.02-.18.02Z"/><path d="m115.22,177.61s-.08-.01-.12-.03c-.1-.07-.14-.2-.07-.31.2-.31.36-.56.61-.83l.1-.1c.06-.06.12-.12.17-.18.15-.18.25-.43.32-.78.03-.15.03-.29.03-.44,0-.09-.02-.19-.04-.29-.01-.07-.03-.14-.03-.21-.03-.28-.13-.58-.26-.85-.11-.22-.27-.38-.47-.58-.06-.06-.11-.12-.16-.18-.04-.05-.08-.09-.12-.14-.06-.06-.13-.11-.2-.16-.05-.04-.09-.07-.14-.11-.06-.05-.14-.1-.23-.14-.04-.02-.08-.04-.12-.07-.14-.08-.24-.17-.33-.26l-.06-.06s-.12-.08-.19-.12c-.05-.03-.1-.05-.14-.08-.05-.03-.11-.07-.16-.1-.06-.04-.12-.08-.18-.12-.25-.15-.53-.25-.8-.35-.21-.07-.51.25-.61.36-.11.12-.19.25-.28.4-.08.14-.17.28-.28.41-.13.16-.27.29-.39.42-.1.1-.22.17-.33.23-.09.05-.18.1-.24.16-.01.01-.03.05-.04.08-.01.03-.03.06-.04.09-.04.08-.1.15-.15.22-.03.04-.07.09-.09.13l-.06.09c-.07.11-.14.22-.22.33-.03.05-.06.11-.08.18-.01.03-.02.06-.03.09-.02.04-.04.1-.07.16-.09.18-.22.46-.19.66.02.12-.07.24-.19.25-.12.02-.23-.07-.25-.19-.05-.33.12-.68.23-.91.02-.05.04-.09.06-.13l.03-.08c.03-.1.07-.21.15-.31.07-.1.14-.2.2-.3l.06-.1c.04-.05.07-.11.11-.16.04-.06.09-.11.12-.18,0-.02.02-.04.03-.06.03-.06.06-.14.13-.21.1-.11.23-.18.34-.24.09-.05.17-.1.23-.16.12-.12.25-.24.36-.38.09-.11.17-.23.25-.36.1-.16.19-.32.33-.46.16-.18.59-.65,1.08-.48.3.1.6.21.89.39.07.04.14.09.2.13.05.03.1.07.15.1.04.02.08.04.12.07.09.05.18.1.27.18l.07.06c.09.08.16.15.26.2.04.02.07.04.11.06.1.05.21.11.31.2.04.03.08.07.12.1.08.06.17.13.24.2.05.05.1.11.15.17.04.05.08.1.13.14.22.22.42.42.56.7.16.32.27.66.31,1,0,.06.02.12.03.18.02.12.05.24.04.37,0,.16,0,.33-.04.52-.08.42-.22.75-.41.98-.06.07-.13.14-.2.21l-.09.1c-.23.24-.37.46-.56.77-.04.07-.12.1-.19.1Z"/><path d="m113.63,180.11c-.1,0-.2,0-.31-.03-.16-.04-.28-.12-.39-.2-.04-.02-.07-.05-.11-.07-.04-.02-.2-.05-.36-.06-.12,0-.22-.11-.22-.23,0-.12.1-.23.23-.22.09,0,.41.02.57.12.04.03.09.06.13.09.08.06.16.11.23.13.25.06.52,0,.81-.07.14-.03.29-.07.43-.09.16-.02.31-.1.47-.17.08-.04.16-.08.25-.11.07-.03.13-.07.2-.1.1-.06.22-.13.36-.17.05-.02.11-.03.16-.03.04,0,.09-.01.12-.03.02,0,.05-.04.08-.07.03-.03.06-.06.09-.09.04-.03.08-.06.13-.09.05-.03.09-.06.12-.09.04-.04.08-.09.12-.13.05-.05.09-.11.14-.16.38-.39.59-.73.66-1.07.06-.33.04-.73-.07-1.23-.06-.28-.05-.56-.03-.83.01-.25.03-.48-.02-.69-.07-.31-.15-.63-.24-.96l-.03-.13c-.04-.14-.08-.32-.14-.42-.06-.1-.15-.19-.25-.28-.04-.04-.08-.08-.12-.12-.06-.07-.21-.22-.34-.28-.1-.05-.22-.06-.39-.06-.07,0-.19.04-.21.06-.14.21-.37.21-.54.22-.05,0-.1,0-.15,0-.12.02-.24-.06-.26-.19-.02-.12.06-.24.18-.26.07-.01.14-.01.21-.01.07,0,.17,0,.19-.03.16-.24.56-.25.57-.25.16,0,.37,0,.58.1.19.08.35.24.48.38.03.04.07.07.11.11.11.11.23.23.32.37.09.15.14.36.19.54l.03.12c.09.33.18.66.25.98.06.27.04.55.03.81-.01.25-.03.49.02.7.12.56.15,1.02.07,1.41-.08.43-.33.84-.78,1.3-.04.04-.08.09-.12.14-.04.05-.09.1-.14.15-.07.07-.14.12-.2.16-.03.02-.06.04-.09.06-.02.02-.04.03-.06.05-.06.06-.13.13-.24.17-.06.02-.13.04-.21.05-.04,0-.07.01-.11.02-.09.03-.17.07-.26.13-.08.05-.17.1-.26.13-.07.03-.15.07-.22.1-.19.09-.38.18-.61.21-.13.02-.25.05-.38.08-.23.05-.46.11-.7.11Z"/><path d="m110.01,178.25s-.07,0-.1-.02c-.08-.04-.15-.12-.32-.29-.06-.06-.11-.12-.13-.14-.05-.04-.1-.1-.2-.21-.05-.06-.1-.12-.14-.16-.17-.18-.32-.33-.45-.44-.04-.03-.08-.06-.11-.08-.08-.05-.17-.12-.25-.21-.12-.14-.21-.28-.28-.4-.21-.35-.37-.74-.45-1.11-.01-.05-.04-.11-.08-.18-.05-.1-.12-.22-.13-.36-.01-.15,0-.28.01-.41,0-.06.01-.13.01-.19.02-.61.29-1.14.54-1.65.04-.08.08-.16.12-.25.03-.05.05-.11.07-.16.06-.14.13-.29.24-.44.17-.22.32-.4.51-.58.19-.19.38-.37.54-.56.03-.04.06-.07.08-.11.07-.09.14-.19.24-.27.16-.13.28-.23.38-.36.08-.12.18-.24.31-.34.26-.2.55-.32.77-.41.1-.04.19-.08.28-.13.13-.06.26-.13.41-.18.14-.05.3-.1.47-.04.09.04.16.09.22.13.04.03.07.05.11.07.06.03.13.06.19.09.12.05.24.11.36.17l.13.07c.14.08.27.15.4.2.24.09.45.21.66.33l.19.11c.17.09.34.19.5.36.16.18.32.36.47.56.25.32.47.78.65,1.19.05.11,0,.24-.11.29-.11.05-.24,0-.29-.11-.17-.38-.37-.82-.59-1.1-.15-.19-.29-.36-.45-.53-.11-.12-.23-.19-.39-.27l-.19-.11c-.2-.12-.39-.22-.59-.3-.17-.06-.32-.15-.47-.23l-.13-.07c-.11-.06-.22-.11-.33-.16-.07-.03-.14-.06-.2-.09-.06-.03-.12-.07-.18-.11-.04-.03-.09-.06-.12-.08-.02,0-.09.02-.14.03-.14.05-.26.1-.38.16-.1.05-.21.1-.32.14-.19.08-.45.18-.66.35-.08.06-.15.16-.22.25-.13.18-.29.31-.44.43-.07.06-.12.13-.18.2-.03.04-.07.09-.1.13-.18.21-.37.4-.56.59-.18.17-.32.34-.47.54-.08.11-.13.22-.19.35-.03.06-.05.11-.08.17-.04.08-.08.17-.13.25-.25.49-.48.95-.5,1.46,0,.07,0,.15-.02.22-.01.12-.02.23-.01.33,0,.05.04.11.08.19.04.08.1.18.12.29.07.32.22.67.4.98.09.14.15.24.23.33.05.05.1.09.17.14.05.03.09.07.14.1.15.12.32.28.5.48.05.05.1.12.15.18.05.06.1.12.13.15.03.02.1.1.18.18.06.06.17.18.21.21.11.06.15.19.09.3-.04.08-.12.12-.2.12Z"/><path d="m113.93,182.12c-.5,0-1.02-.05-1.62-.15l-.15-.02c-.23-.04-.48-.07-.72-.17-.14-.05-.27-.1-.41-.14l-.08-.03c-.2-.07-.36-.13-.5-.21-.15-.08-.23-.19-.31-.29l-.05-.06c-.09-.12-.23-.22-.35-.31-.05-.04-.1-.07-.15-.09-.08-.04-.16-.09-.24-.16-.15-.13-.25-.29-.33-.43-.04-.07-.09-.14-.13-.21-.11-.14-.23-.27-.36-.4-.11-.11-.22-.23-.32-.35-.16-.19-.29-.4-.41-.6l-.09-.15s-.07-.09-.12-.13c-.07-.07-.14-.14-.2-.25-.03-.06-.07-.11-.1-.16-.03-.05-.06-.09-.09-.14-.11-.19-.11-.38-.1-.54v-.09c0-.22.06-.44.13-.64.04-.1.09-.19.13-.27.02-.04.05-.08.07-.12.11-.23.21-.44.16-.73-.02-.12.06-.24.18-.26.12-.02.24.06.26.18.07.43-.08.73-.2.99-.03.05-.05.1-.08.15-.04.07-.07.13-.1.19-.05.15-.11.32-.11.49v.1c0,.14,0,.23.04.31.02.04.05.08.08.12.04.06.08.13.12.19.03.05.07.1.12.15.06.06.12.12.18.21l.1.16c.12.2.23.38.37.55.09.11.19.22.29.32.13.14.27.28.39.44.06.08.11.16.16.24.08.12.15.24.24.32.04.04.1.07.17.11.07.04.15.08.21.13.13.1.29.23.42.38l.06.07c.07.09.11.13.17.17.12.06.26.12.43.18l.08.03c.14.05.28.09.43.15.2.08.41.11.63.14l.16.03c.59.1,1.12.14,1.61.14.18,0,.37-.03.56-.07l.16-.03s.08-.01.11-.02c.1-.01.21-.03.28-.06.06-.03.11-.08.17-.13.08-.07.17-.15.29-.2.15-.07.23-.12.32-.21.09-.09.19-.16.28-.22.08-.05.16-.11.21-.17.25-.29.52-.59.77-.92.27-.36.76-.8,1.09-1.07.1-.08.24-.06.31.03.08.1.06.24-.03.31-.34.27-.78.68-1.01.99-.26.34-.53.66-.79.95-.09.1-.2.18-.3.24-.08.05-.15.1-.21.16-.13.14-.26.22-.44.31-.06.03-.12.08-.19.14-.07.06-.15.13-.24.18-.14.08-.3.1-.44.12-.03,0-.07,0-.1.01l-.15.03c-.2.04-.41.07-.63.07-.02,0-.05,0-.07,0Z"/><path d="m116.88,179.16c-.14,0-.29-.02-.43-.07-.12-.04-.18-.17-.13-.29.04-.12.17-.17.29-.13.25.09.55.03.87-.04.23-.05.46-.1.7-.1h.05c.29,0,.56,0,.82-.06.08-.02.14-.08.23-.17.04-.04.08-.08.12-.12.1-.09.18-.22.26-.35.04-.07.09-.14.14-.21.28-.39.27-.89.25-1.42,0-.12,0-.23,0-.34,0-.25-.06-.48-.14-.74l-.04-.15c-.02-.09-.04-.17-.06-.26-.02-.08-.04-.15-.06-.23-.04-.16-.11-.28-.2-.44l-.02-.04c-.07-.13-.11-.28-.13-.4-.01-.04-.02-.09-.03-.13-.02-.07-.05-.14-.08-.21-.03-.08-.07-.17-.09-.26-.11-.4-.25-.74-.43-1.07-.07-.12-.13-.24-.19-.37-.24-.45-.46-.88-.81-1.21-.12-.11-.22-.23-.32-.34-.22-.26-.43-.5-.72-.55-.09-.02-.23-.01-.3.02-.04.01-.07.03-.1.04-.09.04-.2.09-.35.09-.06,0-.12,0-.18,0-.13,0-.26,0-.37,0-.05,0-.11.02-.16.03-.08.02-.18.04-.28.04-.19,0-.38.03-.54.07-.03,0-.06.02-.1.03-.1.04-.23.09-.38.06-.12-.02-.2-.14-.18-.26.02-.12.14-.2.26-.18.03,0,.1-.02.14-.04.05-.02.1-.04.14-.05.19-.05.41-.08.63-.08.06,0,.13-.02.2-.03.07-.02.14-.03.21-.04.15-.01.29,0,.43,0,.06,0,.12,0,.17,0,.06,0,.09-.01.17-.05.04-.02.08-.04.13-.05.15-.05.37-.07.54-.03.44.09.72.41.97.7.1.11.19.22.28.31.41.38.66.86.91,1.33.06.12.12.24.19.36.2.37.35.74.47,1.17.02.07.05.14.08.21.03.08.07.17.09.26.01.05.02.1.04.15.03.11.05.21.09.29l.02.04c.09.17.18.33.23.54.02.08.04.16.06.24.02.08.04.16.06.24l.04.15c.08.27.16.55.16.87,0,.11,0,.22,0,.33.01.55.03,1.17-.34,1.69-.04.06-.08.12-.12.19-.09.15-.19.3-.33.44-.04.03-.07.07-.1.1-.11.11-.24.26-.45.31-.31.07-.62.07-.92.07h-.05c-.19,0-.39.04-.61.09-.23.05-.46.1-.69.1Z"/></g><g><path d="m116.35,71.38s-.08-.01-.11-.03c-.03,0-.05,0-.08,0h-.08c-.08,0-.17,0-.25,0-.01,0-.03,0-.04,0-.07,0-.14-.02-.19-.06-.28-.11-.31-.37-.34-.54,0-.04-.01-.08-.02-.12l-.04-.15c-.04-.17-.09-.35-.11-.53-.04-.42.08-.95.55-1.21.2-.11.43-.13.61-.15.06,0,.12-.02.18-.04.13-.04.29-.08.46-.04.21.04.5.18.63.37.07.11.12.23.15.33l.03.07s.03.07.04.1c.03.08.07.16.09.26.06.29,0,.67-.03.81-.06.28-.2.47-.36.64-.23.25-.65.28-.96.29h-.13s-.01,0-.02,0Zm-.39-.48c.05,0,.1,0,.13,0h.08c.16,0,.29,0,.42-.03.03,0,.04-.01.05-.02,0,0,0-.02,0-.05v-.12c-.03-.13-.04-.26-.08-.35-.05-.1-.11-.12-.12-.13-.05-.02-.16-.01-.36.1l-.04.02c-.09.05-.1.06-.11.08-.04.13,0,.32.03.49Zm.42-1.15c.06,0,.13,0,.19.03.17.05.3.17.39.35.08.17.1.35.12.51v.11s.02.04.02.06c.02-.01.03-.02.04-.03.13-.15.22-.27.25-.43.04-.19.07-.46.03-.63-.01-.05-.04-.1-.06-.16-.02-.04-.04-.09-.06-.13l-.03-.07c-.03-.09-.06-.17-.1-.23-.05-.07-.21-.16-.34-.18-.07-.01-.16.01-.26.04-.08.02-.17.04-.25.05-.14.01-.31.03-.43.1-.28.15-.35.52-.32.78,0,.07.02.13.03.2.07-.09.16-.14.23-.17l.04-.02c.19-.11.36-.16.52-.16Z"/><path d="m117.79,72.15s-.07,0-.1,0c-.03,0-.06,0-.1,0-.05,0-.09,0-.14-.01-.06,0-.12-.01-.17-.02-.21-.02-.44-.04-.67-.15-.07-.03-.14-.07-.21-.11-.04-.02-.08-.05-.12-.07-.27-.14-.46-.3-.68-.49l-.08-.07c-.09-.08-.11-.22-.03-.31.08-.09.22-.11.31-.03l.08.07c.21.18.38.32.6.43.05.02.09.05.14.08.06.03.12.07.18.1.16.08.33.09.52.11.06,0,.12.01.19.02.04,0,.08,0,.11.01.04,0,.08,0,.12.01.04,0,.11,0,.15,0,.03,0,.07-.03.11-.05.08-.04.18-.09.31-.09h0c.12,0,.22.1.22.22,0,.12-.1.22-.22.23-.03,0-.07.02-.12.05-.06.03-.13.07-.22.09-.06.01-.13.02-.2.02Z"/><path d="m116.02,74c-.2,0-.41-.03-.61-.12-.16-.07-.25-.19-.33-.28-.04-.05-.08-.1-.12-.13l-.09-.07c-.11-.08-.22-.16-.31-.28-.23-.28-.23-.66-.22-.97v-.12c0-.32.09-.58.26-.75.08-.08.14-.16.21-.26l.04-.06c.08-.11.38-.4.52-.48.11-.06.24-.02.3.09.06.11.02.24-.09.3-.06.04-.31.27-.38.36l-.04.06c-.08.11-.15.2-.26.31-.11.11-.13.29-.13.43v.13c0,.24,0,.52.12.68.06.08.14.14.24.21.03.03.07.05.1.08.08.06.14.13.19.19.06.07.11.13.17.16.25.11.56.08.86.04h.1c.21-.03.37-.08.5-.16.12-.07.24-.17.36-.27l.11-.09c.24-.2.33-.44.44-.75l.03-.09c.09-.25.15-.42.15-.64,0-.13,0-.25-.01-.38,0-.15-.01-.29-.01-.43,0-.14-.01-.25-.04-.33,0-.02-.02-.04-.03-.07v-.03s-.07-.06-.09-.09c-.04-.04-.06-.07-.06-.07-.01-.01-.14-.12-.25-.21l-.2-.17c-.09-.08-.1-.22-.02-.31.08-.09.22-.1.32-.02l.19.16c.22.19.29.25.33.31l.02.02c.11.11.12.13.14.17l.02.04s.05.09.06.13c.06.17.06.35.06.48,0,.14,0,.27.01.41,0,.13.01.26.01.4,0,.3-.08.52-.17.77l-.04.11c-.12.35-.24.67-.57.95l-.1.08c-.13.11-.27.23-.43.32-.19.11-.4.17-.67.2h-.1c-.16.03-.32.05-.49.05Z"/><path d="m115.14,74.78c-.06,0-.13,0-.2-.03-.06-.02-.12-.04-.18-.07-.05-.02-.1-.04-.15-.05-.18-.06-.34-.15-.49-.25-.08-.05-.16-.1-.25-.15-.28-.14-.55-.29-.75-.58-.09-.13-.16-.27-.23-.4-.04-.08-.09-.17-.14-.25-.04-.07-.09-.15-.14-.22-.04-.06-.08-.13-.13-.19-.07-.1-.1-.21-.14-.31-.01-.04-.02-.07-.04-.11-.07-.19-.13-.39-.19-.58l-.05-.18c-.06-.2-.06-.42-.05-.6,0-.05,0-.1,0-.15,0-.36.02-.71.32-1.04.12-.13.23-.24.38-.35.1-.07.21-.19.3-.29.24-.28.54-.38.82-.47.05-.02.1-.04.16-.05.04-.01.07-.03.11-.04.05-.02.1-.04.15-.06.11-.04.21-.04.3-.04h.05c.14,0,.24.01.35.02.27.03.45.17.63.29.05.03.09.07.14.1.1.07.13.21.06.31-.07.1-.21.13-.31.06-.05-.04-.11-.07-.16-.11-.16-.11-.27-.2-.43-.21-.09-.01-.2-.02-.29-.02h-.06c-.06,0-.11,0-.15.01-.04.01-.08.03-.11.05-.05.02-.09.04-.14.06-.06.02-.11.04-.17.06-.25.08-.47.16-.63.34-.11.13-.24.26-.38.37-.12.08-.2.17-.31.29-.17.19-.2.38-.2.73,0,.06,0,.11,0,.17,0,.17,0,.33.03.46l.05.18c.05.18.11.37.18.54.02.04.03.08.04.12.03.08.05.16.09.22.04.06.08.12.12.18.05.08.1.16.15.23.05.09.1.18.15.27.07.13.13.25.2.35.14.2.35.32.59.43.1.05.19.11.29.17.13.08.25.16.38.2.06.02.12.04.18.06.05.02.1.04.15.06.05.02.1.01.19,0h.08c.06-.02.12-.02.18-.02.05,0,.1,0,.16,0,.16-.02.33-.02.47,0,.03,0,.06,0,.1.01.05,0,.09.02.12.01.07,0,.18-.08.26-.13.3-.18.49-.35.61-.52l.06-.08c.1-.14.19-.26.26-.41.02-.04.03-.07.04-.11.04-.12.09-.25.18-.36.07-.1.21-.12.31-.04.1.07.12.21.04.31-.05.06-.08.15-.12.25-.02.04-.03.09-.05.13-.08.19-.2.35-.31.5l-.06.08c-.16.22-.39.42-.72.63-.14.09-.3.18-.47.2-.1.01-.18,0-.25-.01-.02,0-.05,0-.07-.01-.11-.01-.24,0-.37,0-.07,0-.13,0-.2.01-.05,0-.1,0-.15,0h-.07c-.06.02-.11.02-.18.02Z"/><path d="m118.22,72.61s-.08-.01-.12-.03c-.1-.07-.14-.2-.07-.31.2-.31.36-.56.61-.83l.1-.1c.06-.06.12-.12.17-.18.15-.18.25-.43.32-.78.03-.15.03-.29.03-.44,0-.09-.02-.19-.04-.29-.01-.07-.03-.14-.03-.21-.03-.28-.13-.58-.26-.85-.11-.22-.27-.38-.47-.58-.06-.06-.11-.12-.16-.18-.04-.05-.08-.09-.12-.14-.06-.06-.13-.11-.2-.16-.05-.04-.09-.07-.14-.11-.06-.05-.14-.1-.23-.14-.04-.02-.08-.04-.12-.07-.14-.08-.24-.17-.33-.26l-.06-.06s-.12-.08-.19-.12c-.05-.03-.1-.05-.14-.08-.05-.03-.11-.07-.16-.1-.06-.04-.12-.08-.18-.12-.25-.15-.53-.25-.8-.35-.21-.07-.51.25-.61.36-.11.12-.19.25-.28.4-.08.14-.17.28-.28.41-.13.16-.27.29-.39.42-.1.1-.22.17-.33.23-.09.05-.18.1-.24.16-.01.01-.03.05-.04.08-.01.03-.03.06-.04.09-.04.08-.1.15-.15.22-.03.04-.07.09-.09.13l-.06.09c-.07.11-.14.22-.22.33-.03.05-.06.11-.08.18-.01.03-.02.06-.03.09-.02.04-.04.1-.07.16-.09.18-.22.46-.19.66.02.12-.07.24-.19.25-.12.02-.23-.07-.25-.19-.05-.33.12-.68.23-.91.02-.05.04-.09.06-.13l.03-.08c.03-.1.07-.21.15-.31.07-.1.14-.2.2-.3l.06-.1c.04-.05.07-.11.11-.16.04-.06.09-.11.12-.18,0-.02.02-.04.03-.06.03-.06.06-.14.13-.21.1-.11.23-.18.34-.24.09-.05.17-.1.23-.16.12-.12.25-.24.36-.38.09-.11.17-.23.25-.36.1-.16.19-.32.33-.46.16-.18.59-.65,1.08-.48.3.1.6.21.89.39.07.04.14.09.2.13.05.03.1.07.15.1.04.02.08.04.12.07.09.05.18.1.27.18l.07.06c.09.08.16.15.26.2.04.02.07.04.11.06.1.05.21.11.31.2.04.03.08.07.12.1.08.06.17.13.24.2.05.05.1.11.15.17.04.05.08.1.13.14.22.22.42.42.56.7.16.32.27.66.31,1,0,.06.02.12.03.18.02.12.05.24.04.37,0,.16,0,.33-.04.52-.08.42-.22.75-.41.98-.06.07-.13.14-.2.21l-.09.1c-.23.24-.37.46-.56.77-.04.07-.12.1-.19.1Z"/><path d="m116.63,75.11c-.1,0-.2,0-.31-.03-.16-.04-.28-.12-.39-.2-.04-.02-.07-.05-.11-.07-.04-.02-.2-.05-.36-.06-.12,0-.22-.11-.22-.23,0-.12.1-.23.23-.22.09,0,.41.02.57.12.04.03.09.06.13.09.08.06.16.11.23.13.25.06.52,0,.81-.07.14-.03.29-.07.43-.09.16-.02.31-.1.47-.17.08-.04.16-.08.25-.11.07-.03.13-.07.2-.1.1-.06.22-.13.36-.17.05-.02.11-.03.16-.03.04,0,.09-.01.12-.03.02,0,.05-.04.08-.07.03-.03.06-.06.09-.09.04-.03.08-.06.13-.09.05-.03.09-.06.12-.09.04-.04.08-.09.12-.13.05-.05.09-.11.14-.16.38-.39.59-.73.66-1.07.06-.33.04-.73-.07-1.23-.06-.28-.05-.56-.03-.83.01-.25.03-.48-.02-.69-.07-.31-.15-.63-.24-.96l-.03-.13c-.04-.14-.08-.32-.14-.42-.06-.1-.15-.19-.25-.28-.04-.04-.08-.08-.12-.12-.06-.07-.21-.22-.34-.28-.1-.05-.22-.06-.39-.06-.07,0-.19.04-.21.06-.14.21-.37.21-.54.22-.05,0-.1,0-.15,0-.12.02-.24-.06-.26-.19-.02-.12.06-.24.18-.26.07-.01.14-.01.21-.01.07,0,.17,0,.19-.03.16-.24.56-.25.57-.25.16,0,.37,0,.58.1.19.08.35.24.48.38.03.04.07.07.11.11.11.11.23.23.32.37.09.15.14.36.19.54l.03.12c.09.33.18.66.25.98.06.27.04.55.03.81-.01.25-.03.49.02.7.12.56.15,1.02.07,1.41-.08.43-.33.84-.78,1.3-.04.04-.08.09-.12.14-.04.05-.09.1-.14.15-.07.07-.14.12-.2.16-.03.02-.06.04-.09.06-.02.02-.04.03-.06.05-.06.06-.13.13-.24.17-.06.02-.13.04-.21.05-.04,0-.07.01-.11.02-.09.03-.17.07-.26.13-.08.05-.17.1-.26.13-.07.03-.15.07-.22.1-.19.09-.38.18-.61.21-.13.02-.25.05-.38.08-.23.05-.46.11-.7.11Z"/><path d="m113.01,73.25s-.07,0-.1-.02c-.08-.04-.15-.12-.32-.29-.06-.06-.11-.12-.13-.14-.05-.04-.1-.1-.2-.21-.05-.06-.1-.12-.14-.16-.17-.18-.32-.33-.45-.44-.04-.03-.08-.06-.11-.08-.08-.05-.17-.12-.25-.21-.12-.14-.21-.28-.28-.4-.21-.35-.37-.74-.45-1.11-.01-.05-.04-.11-.08-.18-.05-.1-.12-.22-.13-.36-.01-.15,0-.28.01-.41,0-.06.01-.13.01-.19.02-.61.29-1.14.54-1.65.04-.08.08-.16.12-.25.03-.05.05-.11.07-.16.06-.14.13-.29.24-.44.17-.22.32-.4.51-.58.19-.19.38-.37.54-.56.03-.04.06-.07.08-.11.07-.09.14-.19.24-.27.16-.13.28-.23.38-.36.08-.12.18-.24.31-.34.26-.2.55-.32.77-.41.1-.04.19-.08.28-.13.13-.06.26-.13.41-.18.14-.05.3-.1.47-.04.09.04.16.09.22.13.04.03.07.05.11.07.06.03.13.06.19.09.12.05.24.11.36.17l.13.07c.14.08.27.15.4.2.24.09.45.21.66.33l.19.11c.17.09.34.19.5.36.16.18.32.36.47.56.25.32.47.78.65,1.19.05.11,0,.24-.11.29-.11.05-.24,0-.29-.11-.17-.38-.37-.82-.59-1.1-.15-.19-.29-.36-.45-.53-.11-.12-.23-.19-.39-.27l-.19-.11c-.2-.12-.39-.22-.59-.3-.17-.06-.32-.15-.47-.23l-.13-.07c-.11-.06-.22-.11-.33-.16-.07-.03-.14-.06-.2-.09-.06-.03-.12-.07-.18-.11-.04-.03-.09-.06-.12-.08-.02,0-.09.02-.14.03-.14.05-.26.1-.38.16-.1.05-.21.1-.32.14-.19.08-.45.18-.66.35-.08.06-.15.16-.22.25-.13.18-.29.31-.44.43-.07.06-.12.13-.18.2-.03.04-.07.09-.1.13-.18.21-.37.4-.56.59-.18.17-.32.34-.47.54-.08.11-.13.22-.19.35-.03.06-.05.11-.08.17-.04.08-.08.17-.13.25-.25.49-.48.95-.5,1.46,0,.07,0,.15-.02.22-.01.12-.02.23-.01.33,0,.05.04.11.08.19.04.08.1.18.12.29.07.32.22.67.4.98.09.14.15.24.23.33.05.05.1.09.17.14.05.03.09.07.14.1.15.12.32.28.5.48.05.05.1.12.15.18.05.06.1.12.13.15.03.02.1.1.18.18.06.06.17.18.21.21.11.06.15.19.09.3-.04.08-.12.12-.2.12Z"/><path d="m116.93,77.12c-.5,0-1.02-.05-1.62-.15l-.15-.02c-.23-.04-.48-.07-.72-.17-.14-.05-.27-.1-.41-.14l-.08-.03c-.2-.07-.36-.13-.5-.21-.15-.08-.23-.19-.31-.29l-.05-.06c-.09-.12-.23-.22-.35-.31-.05-.04-.1-.07-.15-.09-.08-.04-.16-.09-.24-.16-.15-.13-.25-.29-.33-.43-.04-.07-.09-.14-.13-.21-.11-.14-.23-.27-.36-.4-.11-.11-.22-.23-.32-.35-.16-.19-.29-.4-.41-.6l-.09-.15s-.07-.09-.12-.13c-.07-.07-.14-.14-.2-.25-.03-.06-.07-.11-.1-.16-.03-.05-.06-.09-.09-.14-.11-.19-.11-.38-.1-.54v-.09c0-.22.06-.44.13-.64.04-.1.09-.19.13-.27.02-.04.05-.08.07-.12.11-.23.21-.44.16-.73-.02-.12.06-.24.18-.26.12-.02.24.06.26.18.07.43-.08.73-.2.99-.03.05-.05.1-.08.15-.04.07-.07.13-.1.19-.05.15-.11.32-.11.49v.1c0,.14,0,.23.04.31.02.04.05.08.08.12.04.06.08.13.12.19.03.05.07.1.12.15.06.06.12.12.18.21l.1.16c.12.2.23.38.37.55.09.11.19.22.29.32.13.14.27.28.39.44.06.08.11.16.16.24.08.12.15.24.24.32.04.04.1.07.17.11.07.04.15.08.21.13.13.1.29.23.42.38l.06.07c.07.09.11.13.17.17.12.06.26.12.43.18l.08.03c.14.05.28.09.43.15.2.08.41.11.63.14l.16.03c.59.1,1.12.14,1.61.14.18,0,.37-.03.56-.07l.16-.03s.08-.01.11-.02c.1-.01.21-.03.28-.06.06-.03.11-.08.17-.13.08-.07.17-.15.29-.2.15-.07.23-.12.32-.21.09-.09.19-.16.28-.22.08-.05.16-.11.21-.17.25-.29.52-.59.77-.92.27-.36.76-.8,1.09-1.07.1-.08.24-.06.31.03.08.1.06.24-.03.31-.34.27-.78.68-1.01.99-.26.34-.53.66-.79.95-.09.1-.2.18-.3.24-.08.05-.15.1-.21.16-.13.14-.26.22-.44.31-.06.03-.12.08-.19.14-.07.06-.15.13-.24.18-.14.08-.3.1-.44.12-.03,0-.07,0-.1.01l-.15.03c-.2.04-.41.07-.63.07-.02,0-.05,0-.07,0Z"/><path d="m119.88,74.16c-.14,0-.29-.02-.43-.07-.12-.04-.18-.17-.13-.29.04-.12.17-.17.29-.13.25.09.55.03.87-.04.23-.05.46-.1.7-.1h.05c.29,0,.56,0,.82-.06.08-.02.14-.08.23-.17.04-.04.08-.08.12-.12.1-.09.18-.22.26-.35.04-.07.09-.14.14-.21.28-.39.27-.89.25-1.42,0-.12,0-.23,0-.34,0-.25-.06-.48-.14-.74l-.04-.15c-.02-.09-.04-.17-.06-.26-.02-.08-.04-.15-.06-.23-.04-.16-.11-.28-.2-.44l-.02-.04c-.07-.13-.11-.28-.13-.4-.01-.04-.02-.09-.03-.13-.02-.07-.05-.14-.08-.21-.03-.08-.07-.17-.09-.26-.11-.4-.25-.74-.43-1.07-.07-.12-.13-.24-.19-.37-.24-.45-.46-.88-.81-1.21-.12-.11-.22-.23-.32-.34-.22-.26-.43-.5-.72-.55-.09-.02-.23-.01-.3.02-.04.01-.07.03-.1.04-.09.04-.2.09-.35.09-.06,0-.12,0-.18,0-.13,0-.26,0-.37,0-.05,0-.11.02-.16.03-.08.02-.18.04-.28.04-.19,0-.38.03-.54.07-.03,0-.06.02-.1.03-.1.04-.23.09-.38.06-.12-.02-.2-.14-.18-.26.02-.12.14-.2.26-.18.03,0,.1-.02.14-.04.05-.02.1-.04.14-.05.19-.05.41-.08.63-.08.06,0,.13-.02.2-.03.07-.02.14-.03.21-.04.15-.01.29,0,.43,0,.06,0,.12,0,.17,0,.06,0,.09-.01.17-.05.04-.02.08-.04.13-.05.15-.05.37-.07.54-.03.44.09.72.41.97.7.1.11.19.22.28.31.41.38.66.86.91,1.33.06.12.12.24.19.36.2.37.35.74.47,1.17.02.07.05.14.08.21.03.08.07.17.09.26.01.05.02.1.04.15.03.11.05.21.09.29l.02.04c.09.17.18.33.23.54.02.08.04.16.06.24.02.08.04.16.06.24l.04.15c.08.27.16.55.16.87,0,.11,0,.22,0,.33.01.55.03,1.17-.34,1.69-.04.06-.08.12-.12.19-.09.15-.19.3-.33.44-.04.03-.07.07-.1.1-.11.11-.24.26-.45.31-.31.07-.62.07-.92.07h-.05c-.19,0-.39.04-.61.09-.23.05-.46.1-.69.1Z"/></g><g><path d="m101.61,190.49c-.06,0-.13-.03-.17-.08-.07-.08-.07-.19-.01-.28.02-.03.03-.17.03-.24,0-.09.01-.17.03-.23.03-.12.05-.24.07-.36l.02-.11c.1-.52.19-.91.31-1.28.25-.81.6-1.58.95-2.3.29-.6.61-1.23,1.07-1.8.4-.5.92-1.01,1.6-1.56.23-.18.46-.32.7-.45.08-.05.16-.09.24-.14.04-.03.08-.05.12-.08.12-.08.24-.16.4-.21.44-.16.9-.18,1.35-.2.13,0,.27-.01.4-.02.11,0,.2.06.23.17.11.43-.04.78-.14,1.02-.02.04-.03.07-.04.11-.12.33-.24.66-.36,1-.21.6-.49,1.12-.78,1.67-.08.15-.16.3-.24.45-.16.32-.38.57-.6.81-.07.07-.13.15-.2.23-.11.13-.22.26-.32.39-.17.21-.34.42-.52.63l-.16.18c-.31.35-.62.71-1,1.01-.12.09-.24.19-.36.28-.19.14-.37.28-.55.43l-.07.06c-.24.2-.52.44-.83.57-.17.07-.37.12-.55.17-.19.05-.38.09-.51.16-.03.02-.07.02-.1.02Zm6.93-8.88c-.07,0-.14,0-.21,0-.43.02-.84.04-1.22.17-.11.04-.2.1-.31.17-.04.03-.09.06-.14.09-.08.05-.17.1-.25.15-.23.13-.44.25-.64.41-.65.53-1.15,1.02-1.53,1.49-.43.53-.74,1.14-1.01,1.71-.35.73-.69,1.46-.93,2.23-.11.35-.2.74-.3,1.24l-.02.11c-.02.13-.05.25-.08.37,0,.04-.01.1-.02.16h0c.07-.02.14-.04.21-.05.17-.04.34-.08.48-.14.25-.11.49-.31.72-.5l.07-.06c.18-.15.38-.3.57-.45.12-.09.24-.18.36-.27.35-.28.64-.6.95-.95l.16-.18c.18-.2.34-.4.51-.61.11-.13.22-.27.33-.4.07-.08.14-.16.21-.24.2-.23.4-.45.53-.71.08-.15.16-.31.24-.46.28-.54.55-1.04.75-1.61.12-.34.23-.67.36-1.01.01-.04.03-.08.05-.13.07-.16.14-.34.14-.55Z"/><path d="m101.68,190.24c-.08,0-.15-.04-.19-.11-.06-.11-.03-.24.08-.31.11-.06.34-.28.47-.5l.15-.25c.08-.14.16-.28.24-.41.08-.13.16-.26.24-.38.08-.13.16-.25.24-.38.22-.38.47-.72.73-.99.13-.14.24-.3.35-.47.09-.14.19-.28.3-.41l.27-.33c.16-.2.32-.39.48-.58.13-.15.24-.31.37-.48.11-.15.22-.3.34-.45.08-.1.18-.2.27-.3.1-.1.19-.19.27-.3.13-.18.27-.35.41-.52.23-.27.46-.51.68-.71.07-.07.14-.14.21-.21.05-.05.11-.11.16-.16.25-.24.51-.4.82-.58.11-.06.24-.03.31.08.06.11.03.24-.08.31-.29.17-.52.31-.73.51-.05.05-.1.1-.16.15-.07.08-.15.15-.23.22-.2.19-.43.42-.64.67-.14.16-.27.33-.4.5-.1.12-.2.23-.3.34-.08.09-.17.17-.24.26-.11.14-.22.28-.32.43-.12.17-.25.34-.39.51-.16.19-.32.38-.48.58l-.27.33c-.1.12-.18.24-.27.38-.12.18-.24.36-.4.53-.23.24-.46.56-.67.91-.08.13-.16.27-.25.4-.08.12-.16.25-.23.37-.08.13-.16.27-.24.41l-.15.25c-.16.28-.45.55-.63.66-.04.02-.07.03-.11.03Z"/></g></g></g><circle class="cls-4" cx="31" cy="29" r="29"/><g><path d="m20.75,38.28c0,.47-.07.87-.22,1.17-.14.31-.33.55-.56.73-.23.18-.47.3-.72.38-.25.07-.49.11-.72.11s-.4-.07-.52-.22c-.05-.07-.07-.06-.07.03v2.34c0,.18-.06.33-.19.45-.12.12-.27.19-.44.19-.18,0-.33-.06-.44-.19s-.18-.28-.18-.44v-11.19c0-.27.09-.5.28-.69.19-.19.42-.29.7-.29h2.3c.27,0,.49.1.67.3.18.2.24.43.19.69-.12.64-.27,1.25-.47,1.82-.19.57-.43,1.1-.7,1.59-.01.04-.01.08,0,.12.29.46.54.94.76,1.45.22.51.33,1.06.33,1.65Zm-2.03-2.31c-.17-.28-.25-.56-.25-.86,0-.27.06-.52.18-.76.2-.37.37-.73.52-1.1.15-.37.27-.79.37-1.26,0-.07-.03-.1-.09-.1h-1.41c-.06,0-.09.03-.09.09v7.64c0,.08.03.09.09.03.13-.16.32-.24.58-.24.6,0,.9-.38.9-1.13,0-.42-.08-.81-.23-1.19-.15-.38-.34-.75-.57-1.12Zm4.21,2.98c.28.12.42.31.42.58,0,.09-.02.17-.06.25-.22.51-.53,1.04-.93,1.58-.4.54-.82,1-1.25,1.39-.13.11-.27.16-.42.16-.18,0-.34-.07-.49-.22-.1-.11-.15-.25-.15-.42,0-.18.07-.34.21-.47.39-.38.74-.78,1.05-1.2.32-.42.58-.86.79-1.31.13-.26.33-.39.59-.39.09,0,.17.01.24.04Zm-2.82-4.04c0-.11.03-.22.09-.33.06-.11.14-.19.25-.25.4-.23.81-.52,1.25-.89.44-.37.87-.77,1.3-1.22.43-.44.8-.9,1.11-1.36.16-.22.36-.33.59-.33.22,0,.4.09.55.27.32.39.68.79,1.1,1.21.42.42.84.82,1.28,1.19.43.38.84.69,1.22.93.23.15.34.36.34.64,0,.19-.06.34-.18.44-.12.11-.25.16-.39.16-.12,0-.22-.02-.3-.07-.33-.2-.66-.43-1.01-.7-.35-.27-.68-.56-1-.85s-.61-.58-.88-.86c-.26-.28-.48-.51-.65-.7-.04-.06-.08-.06-.12,0-.54.7-1.14,1.35-1.8,1.93-.66.58-1.29,1.03-1.91,1.35-.08.04-.17.06-.27.06-.16,0-.3-.06-.42-.17s-.18-.26-.18-.45Zm8.22,3.55h-2.86c-.06,0-.09.03-.09.09v3.47c0,.97-.65,1.43-1.96,1.39-.17,0-.31-.08-.42-.2-.11-.12-.17-.26-.17-.42,0-.19.06-.35.19-.47s.28-.19.44-.19c.25,0,.42,0,.5-.02s.13-.04.13-.08v-3.47c0-.06-.03-.09-.09-.09h-2.6c-.17,0-.31-.06-.44-.19-.12-.13-.19-.27-.19-.43,0-.17.06-.31.19-.44s.27-.19.44-.19h2.6c.06,0,.09-.03.09-.09v-1.22c0-.06-.03-.09-.09-.09h-1.39c-.17,0-.31-.06-.44-.19-.12-.12-.19-.27-.19-.45,0-.17.06-.31.18-.44.12-.12.27-.19.44-.19h4.33c.17,0,.32.06.45.19.13.12.19.27.19.44,0,.18-.06.33-.19.45-.13.12-.28.19-.45.19h-1.48c-.06,0-.09.03-.09.09v1.22c0,.06.03.09.09.09h2.86c.17,0,.31.06.44.18.12.12.19.27.19.44,0,.17-.06.31-.19.44s-.27.19-.44.19Zm.65,3.29c.18.15.27.34.27.58,0,.12-.03.23-.09.34-.11.21-.27.31-.49.31-.11,0-.22-.04-.33-.12-.47-.4-.9-.87-1.32-1.42-.42-.55-.75-1.11-1.01-1.68-.01-.04-.02-.08-.04-.12-.01-.04-.02-.08-.02-.12,0-.16.06-.3.19-.42s.27-.18.44-.18c.31,0,.52.14.65.43.42.91,1,1.71,1.75,2.39Z"/><path d="m39.25,36.44c0,.06.03.09.09.09h4.87c.17,0,.31.06.44.19.12.12.19.27.19.44,0,.18-.06.33-.19.45s-.27.19-.44.19h-5.15c-.06,0-.09.02-.1.07-.19.47-.44.93-.76,1.38-.32.46-.67.88-1.03,1.28s-.72.74-1.07,1.02c-.07.07-.05.1.04.1,1-.09,1.96-.21,2.89-.36.92-.15,1.76-.31,2.5-.47.06-.02.07-.06.04-.12-.16-.24-.32-.47-.48-.71s-.33-.47-.51-.68c-.09-.12-.13-.25-.13-.39,0-.22.09-.39.28-.5.14-.08.27-.12.4-.12.27,0,.47.1.61.3.25.33.52.73.82,1.2.3.47.58.96.85,1.47.27.5.48.97.64,1.41.03.07.04.14.04.22,0,.16-.06.3-.18.44-.12.13-.28.2-.47.2-.13,0-.25-.04-.37-.12-.12-.08-.2-.18-.25-.31-.07-.18-.15-.36-.23-.54-.08-.18-.17-.36-.26-.54-.02-.06-.05-.08-.1-.06-.69.16-1.48.31-2.37.47-.89.15-1.81.29-2.78.4-.97.11-1.94.19-2.91.23-.25.01-.44-.06-.57-.22-.13-.16-.2-.34-.2-.53,0-.15.04-.29.12-.44.08-.14.2-.26.37-.35.47-.25.93-.57,1.39-.96.47-.4.89-.83,1.28-1.29.39-.46.7-.92.94-1.36.02-.03.02-.05,0-.07-.01-.02-.04-.03-.07-.03h-4.44c-.17,0-.31-.06-.44-.19-.12-.12-.19-.27-.19-.45,0-.17.06-.31.19-.44s.27-.19.44-.19h4.85c.06,0,.09-.03.09-.09v-2.14c0-.06-.03-.09-.09-.09h-3.61c-.17,0-.32-.06-.45-.19-.13-.12-.19-.27-.19-.45,0-.17.06-.32.19-.44.12-.13.27-.19.45-.19h3.61c.06,0,.09-.03.09-.09v-1.68c0-.18.06-.33.19-.46.12-.13.28-.19.47-.19.18,0,.33.06.47.19.13.12.2.28.2.47v1.68c0,.06.03.09.09.09h3.62c.17,0,.32.06.45.19.13.12.19.27.19.45,0,.17-.06.32-.19.44-.12.13-.27.19-.45.19h-3.62c-.06,0-.09.03-.09.09v2.14Z"/></g><g><path d="m14.08,16.59s-.02.04-.02.06c0,.07.04.1.12.1h1.1c.59,0,1.06.09,1.4.26.35.18.59.4.74.68.15.28.22.59.22.93,0,.28-.04.57-.12.86-.08.3-.19.57-.33.83-.43.85-.94,1.65-1.52,2.4s-1.27,1.47-2.08,2.16c-.8.69-1.77,1.38-2.89,2.07-.12.07-.24.1-.35.1-.23,0-.41-.11-.54-.33-.06-.11-.09-.22-.09-.33,0-.24.11-.42.33-.56.8-.47,1.52-.97,2.15-1.49.63-.53,1.2-1.06,1.69-1.6.06-.06.06-.12.02-.2-.24-.31-.54-.6-.89-.87s-.71-.48-1.09-.65c-.26-.11-.39-.31-.39-.58,0-.09.02-.17.06-.26.15-.28.37-.42.66-.42.09,0,.17.02.25.06.44.19.85.44,1.23.73.38.3.71.61.99.93.07.07.14.07.2,0,.22-.3.42-.6.6-.9.18-.3.34-.59.48-.87.19-.37.28-.69.28-.96,0-.51-.34-.77-1.03-.77h-2.04c-.06,0-.12.03-.17.08-.46.63-.98,1.25-1.56,1.84-.58.6-1.18,1.14-1.8,1.62-.11.08-.24.12-.38.12-.23,0-.41-.08-.53-.25-.08-.11-.12-.24-.12-.39,0-.23.08-.4.25-.52.82-.64,1.52-1.29,2.1-1.95.58-.66,1.06-1.28,1.43-1.86s.66-1.07.86-1.48c.06-.12.14-.21.25-.27.11-.06.23-.09.36-.09.1,0,.19.02.26.05.13.05.23.13.29.24.06.11.1.23.1.35,0,.1-.02.19-.06.27-.13.28-.28.56-.46.84Z"/><path d="m28.59,22.21c.13.13.2.29.2.5s-.07.37-.2.51c-.1.13-.25.2-.44.2-.18,0-.33-.06-.46-.2-.61-.66-1.23-1.18-1.88-1.56-.64-.38-1.34-.64-2.1-.78h-.03c-.08,0-.12.04-.12.12v5.22c0,.18-.06.34-.19.47-.13.13-.3.2-.5.2-.18,0-.34-.07-.47-.2-.13-.13-.2-.29-.2-.48v-10.17c0-.19.07-.35.2-.49s.29-.2.47-.2c.19,0,.35.07.49.2.14.13.2.3.2.49v3.36c0,.07.04.12.14.14.64.09,1.26.27,1.85.53.59.27,1.15.58,1.66.95.52.37.97.77,1.37,1.19Z"/><path d="m36.34,18.99c0,.09.04.14.13.14h1.05c.65,0,1.15.16,1.48.49.34.33.51.78.51,1.37,0,.35-.06.73-.18,1.15-.34,1.16-.87,2.14-1.59,2.94-.72.8-1.66,1.45-2.82,1.95-.07.03-.15.04-.24.04-.14,0-.28-.06-.41-.17s-.19-.26-.19-.45c0-.13.03-.25.1-.37.07-.11.17-.2.3-.25.81-.34,1.46-.74,1.94-1.19.48-.46.85-.93,1.11-1.43s.45-.98.58-1.44c.05-.19.09-.36.12-.5.03-.15.05-.27.05-.37,0-.22-.06-.37-.19-.44-.13-.08-.32-.11-.58-.11h-3.85c-.38,0-.57.19-.57.57,0,.04,0,.08,0,.13,0,.04.01.09.02.14.02.1.06.27.13.52s.14.48.2.71c0,.02.01.04.01.08v.07c0,.16-.06.31-.17.44-.12.13-.27.19-.46.19-.14,0-.27-.04-.38-.13-.12-.09-.19-.21-.23-.35-.05-.2-.11-.42-.17-.65-.06-.23-.12-.45-.16-.64-.04-.16-.06-.33-.06-.51,0-.51.17-.94.51-1.28.34-.34.78-.52,1.32-.52h1.27c.09,0,.13-.05.13-.14,0-.23,0-.44-.02-.65-.01-.2-.04-.4-.08-.58,0-.02,0-.04,0-.06s0-.04,0-.06c0-.18.06-.33.18-.45s.27-.18.44-.18c.16,0,.3.05.42.15.12.1.2.23.23.39.04.22.07.45.08.69.02.24.03.49.04.75Z"/><path d="m54.18,21.66h-9.36c-.18,0-.33-.06-.46-.19s-.19-.29-.19-.46c0-.19.06-.35.19-.47s.29-.19.46-.19h9.36c.18,0,.33.06.46.19.13.13.19.29.19.47,0,.19-.06.35-.19.47-.13.13-.29.19-.46.19Z"/></g></g></g></svg>