<?xml version="1.0" encoding="utf-8"?>
<!-- Generator: Adobe Illustrator 27.4.1, SVG Export Plug-In . SVG Version: 6.00 Build 0)  -->
<svg version="1.1" id="_レイヤー_2" xmlns="http://www.w3.org/2000/svg" xmlns:xlink="http://www.w3.org/1999/xlink" x="0px"
	 y="0px" viewBox="0 0 411.8 84.8" style="enable-background:new 0 0 411.8 84.8;" xml:space="preserve">
<style type="text/css">
	.st0{fill:none;stroke:#000000;stroke-miterlimit:10;}
	.st1{fill:#333333;}
	.st2{fill:none;stroke:#333333;stroke-width:0.75;stroke-miterlimit:10;}
</style>
<path class="st0" d="M75.5,48.6c-0.7-1-2-1.2-2.9-0.5c-0.6,0.5-1.9,1.5-2.5,2.3c-0.3,0.4-0.7,0.6-1.1,0.8c-2.5,1.6-9.8-9.7-7.4-11.3
	c0.4-0.2,0.7-0.6,1.2-0.7c1-0.2,2.5-1,3.2-1.4c1-0.5,1.3-1.9,0.7-2.9l-3.6-5.5c-0.7-1-2.1-1.2-3-0.5c-1.4,1.2-2.9,2.9-3.4,3.6
	c-0.3,0.4-0.5,0.9-0.5,1.5c-0.3,2-0.8,7.3,4,14.7s9.9,9,11.9,9.6c0.5,0.1,1,0.2,1.5,0.1c0.9-0.1,3.1-0.9,4.7-1.7
	c1.1-0.5,1.4-1.9,0.8-2.9L75.5,48.6L75.5,48.6z"/>
<path class="st1" d="M103.1,43c0-8.7,3.4-12.9,8-12.9s7.6,4.4,7.6,12.5c0,8.6-3,13-7.9,13C106.3,55.7,103.1,51.2,103.1,43z
	 M115.9,42.8c0-6.2-1.5-10.4-5-10.4c-2.9,0-5,3.9-5,10.4s1.8,10.6,4.9,10.6C114.5,53.4,115.9,48.7,115.9,42.8L115.9,42.8z"/>
<path class="st1" d="M128.2,42.1c-2.7-1.3-3.9-3.5-3.9-5.6c0-3.8,3-6.4,7-6.4c4.5,0,6.6,3,6.6,6c0,2.1-1.1,4.4-4.1,5.8v0.1
	c3,1.3,4.9,3.5,4.9,6.5c0,4.2-3.4,7.1-7.8,7.1c-4.7,0-7.6-3-7.6-6.6c0-3.2,1.9-5.5,4.8-6.8L128.2,42.1L128.2,42.1z M136,48.9
	c0-3.1-2.1-4.7-5.4-5.8c-2.9,1-4.5,3.1-4.5,5.5c0,2.8,1.9,5,4.9,5C134.2,53.6,136,51.5,136,48.9L136,48.9z M126.9,36.3
	c0,2.6,1.9,4.1,4.6,4.9c2.1-0.8,3.8-2.5,3.8-4.9c0-2.1-1.2-4.2-4.1-4.2S127,34.1,126.9,36.3L126.9,36.3z"/>
<path class="st1" d="M157.5,30.5v2.3h-8.9l-1,7c0.5-0.1,1.1-0.1,1.9-0.1c4.4,0,8.3,2.6,8.3,7.6s-3.6,8.4-8.5,8.4
	c-2.5,0-4.6-0.7-5.7-1.5l0.8-2.2c0.9,0.6,2.7,1.4,4.9,1.4c3.1,0,5.8-2.3,5.8-5.8c0-3.4-2.2-5.8-6.8-5.8c-1.3,0-2.3,0.1-3.2,0.2
	l1.6-11.5L157.5,30.5L157.5,30.5z"/>
<path class="st1" d="M326.2,29.8v2.3h-8.9l-1,7c0.5-0.1,1.1-0.1,1.9-0.1c4.4,0,8.3,2.6,8.3,7.6s-3.6,8.4-8.5,8.4
	c-2.5,0-4.6-0.7-5.7-1.5l0.8-2.2c0.9,0.6,2.7,1.4,4.9,1.4c3.1,0,5.8-2.3,5.8-5.8c0-3.4-2.2-5.8-6.8-5.8c-1.3,0-2.3,0.1-3.2,0.2
	l1.5-11.5L326.2,29.8L326.2,29.8z"/>
<path class="st1" d="M168.6,42.1c-2.7-1.3-3.9-3.5-3.9-5.6c0-3.8,3-6.4,7-6.4c4.5,0,6.6,3,6.6,6c0,2.1-1.1,4.4-4.1,5.8v0.1
	c3,1.3,4.9,3.5,4.9,6.5c0,4.2-3.4,7.1-7.8,7.1c-4.7,0-7.6-3-7.6-6.6c0-3.2,1.9-5.5,4.8-6.8L168.6,42.1L168.6,42.1z M176.4,48.9
	c0-3.1-2.1-4.7-5.4-5.8c-2.9,1-4.5,3.1-4.5,5.5c0,2.8,1.9,5,4.9,5C174.6,53.6,176.4,51.5,176.4,48.9L176.4,48.9z M167.3,36.3
	c0,2.6,1.9,4.1,4.6,4.9c2.1-0.8,3.8-2.5,3.8-4.9c0-2.1-1.2-4.2-4.1-4.2S167.3,34.1,167.3,36.3L167.3,36.3z"/>
<path class="st1" d="M183.6,44.1h9v2.1h-9V44.1z"/>
<path class="st1" d="M212,55.3h-14.6v-1.7l2.4-2.5c5.9-6,8.9-9.5,8.9-13.6c0-2.6-1.2-5.1-4.7-5.1c-2,0-3.8,1.1-5,2l-0.9-1.9
	c1.5-1.4,3.8-2.4,6.4-2.4c5,0,7,3.6,7,7c0,4.7-3.3,8.6-8.4,13.8l-1.9,2V53H212L212,55.3L212,55.3z"/>
<path class="st1" d="M218,30.5h14.5v1.8l-10.3,23h-2.8l10.3-22.4v-0.1H218V30.5L218,30.5z"/>
<path class="st1" d="M237.3,44.1h9v2.1h-9V44.1z"/>
<path class="st1" d="M258,55.3V33.1h-0.1l-4.1,2.3l-0.7-2l5.1-2.9h2.4v24.7C260.6,55.3,258,55.3,258,55.3z"/>
<path class="st1" d="M278.1,55.3V33.1h-0.1l-4.1,2.3l-0.7-2l5.1-2.9h2.4v24.7C280.8,55.3,278.1,55.3,278.1,55.3z"/>
<path class="st1" d="M303.8,55.3h-2.6v-6.9h-10.8v-1.8l10.6-16h2.8v15.7h3.4v2.1h-3.4L303.8,55.3L303.8,55.3z M293.2,46.2h8v-8.8
	c0-1.3,0.1-2.7,0.1-4h-0.1c-0.8,1.5-1.4,2.6-2,3.7L293.2,46.2L293.2,46.2L293.2,46.2z"/>
<g style="display:none;">
</g>
<path class="st2" d="M42.4,0.4h327c23.2,0,42,18.8,42,42v0c0,23.2-18.8,42-42,42h-327c-23.2,0-42-18.8-42-42v0
	C0.4,19.2,19.2,0.4,42.4,0.4z"/>
</svg>
