<?xml version="1.0" encoding="UTF-8"?><svg id="_レイヤー_2" xmlns="http://www.w3.org/2000/svg" viewBox="0 0 495.9 108.77"><defs><style>.cls-1{fill:#fff;}.cls-2{stroke:#545555;stroke-width:.75px;}.cls-2,.cls-3{fill:none;stroke-miterlimit:10;}.cls-3{stroke:#000;}</style></defs><g id="_レイヤー_1-2"><g><g><path d="m22.51,62.71c-.75,0-1.39-.15-1.91-.46-.53-.3-.93-.71-1.21-1.21-.28-.5-.42-1.06-.42-1.66,0-.72.16-1.34.49-1.87.32-.52.77-.93,1.32-1.21.56-.29,1.18-.43,1.88-.43.5,0,.99.08,1.47.25s.92.44,1.31.82.7.89.94,1.54c.23.65.35,1.45.35,2.42,0,.85-.08,1.65-.25,2.4s-.42,1.41-.77,1.97c-.35.56-.79,1-1.33,1.32-.54.32-1.18.48-1.93.48-.63,0-1.17-.1-1.6-.31-.44-.21-.78-.46-1.01-.77s-.34-.62-.34-.92c0-.26.08-.49.25-.68s.38-.29.62-.29c.26,0,.46.09.61.26.14.18.22.37.22.58,0,.17-.04.33-.13.46-.05.07-.05.13,0,.18.14.16.32.27.55.34.23.06.5.1.81.1.59,0,1.14-.19,1.64-.58.5-.38.91-.94,1.21-1.68s.45-1.62.43-2.65c0-.04-.02-.06-.04-.06-.08,0-.17.07-.27.2-.27.37-.58.66-.94.88-.35.21-.71.37-1.06.46s-.65.13-.89.13Zm.24-5.79c-.63,0-1.15.12-1.54.35-.4.23-.69.52-.88.88-.19.36-.28.74-.28,1.12,0,.54.08.97.25,1.3.17.32.38.57.65.73s.55.27.85.32c.3.05.58.07.85.05.46-.03.9-.17,1.31-.41s.75-.57,1.02-.97c.26-.4.4-.84.4-1.32,0-.09-.01-.16-.03-.21-.22-.62-.54-1.08-.96-1.39-.42-.3-.96-.46-1.63-.46Z"/><path d="m34.66,59.95c-.23,0-.43-.08-.61-.25-.18-.17-.26-.38-.26-.62s.09-.44.26-.62c.17-.17.38-.25.61-.25s.43.08.61.25c.17.17.26.38.26.62s-.09.45-.26.62-.38.25-.61.25Zm0,5.04c-.23,0-.43-.08-.61-.25-.18-.17-.26-.37-.26-.61s.09-.45.26-.62c.17-.17.38-.25.61-.25s.43.08.61.25.26.38.26.62-.09.44-.26.61-.38.25-.61.25Z"/><path d="m46.84,55.86c.84,0,1.58.2,2.23.61.65.41,1.16,1.02,1.53,1.84.37.82.56,1.84.56,3.07,0,1.29-.19,2.36-.56,3.2-.37.84-.88,1.47-1.53,1.89-.65.42-1.4.62-2.23.62s-1.59-.21-2.24-.62-1.16-1.04-1.52-1.89c-.37-.85-.55-1.91-.55-3.2s.19-2.25.56-3.07c.37-.82.88-1.43,1.53-1.84.65-.41,1.39-.61,2.22-.61Zm0,10.16c.58,0,1.1-.17,1.57-.5s.85-.84,1.13-1.52c.29-.68.43-1.54.43-2.58s-.14-1.82-.43-2.47c-.28-.66-.66-1.16-1.13-1.49s-1-.5-1.57-.5-1.09.17-1.57.5-.85.83-1.13,1.49c-.28.66-.42,1.48-.42,2.47,0,1.04.14,1.9.42,2.58.28.68.66,1.19,1.13,1.52s1,.5,1.57.5Z"/><path d="m61.59,55.86c.84,0,1.58.2,2.23.61.65.41,1.16,1.02,1.53,1.84.37.82.56,1.84.56,3.07,0,1.29-.19,2.36-.56,3.2-.37.84-.88,1.47-1.53,1.89-.65.42-1.4.62-2.23.62s-1.59-.21-2.24-.62-1.16-1.04-1.52-1.89c-.37-.85-.55-1.91-.55-3.2s.19-2.25.56-3.07c.37-.82.88-1.43,1.53-1.84.65-.41,1.39-.61,2.22-.61Zm0,10.16c.58,0,1.1-.17,1.57-.5s.85-.84,1.13-1.52c.29-.68.43-1.54.43-2.58s-.14-1.82-.43-2.47c-.28-.66-.66-1.16-1.13-1.49s-1-.5-1.57-.5-1.09.17-1.57.5-.85.83-1.13,1.49c-.28.66-.42,1.48-.42,2.47,0,1.04.14,1.9.42,2.58.28.68.66,1.19,1.13,1.52s1,.5,1.57.5Z"/><path d="m78.48,62.5c-.37,0-.71-.07-1.03-.2-.32-.13-.62-.29-.92-.46s-.58-.33-.85-.46c-.28-.14-.57-.2-.87-.2-.27,0-.56.08-.85.25s-.62.47-.98.91c-.1.15-.25.22-.45.22-.12,0-.23-.03-.33-.1-.15-.13-.23-.28-.23-.45,0-.13.04-.24.13-.33.48-.56.95-.95,1.4-1.16.45-.21.89-.32,1.31-.32.5,0,.97.1,1.41.31.44.21.84.42,1.21.62.21.11.4.2.57.27.17.07.33.11.48.11.18,0,.35-.06.52-.17.17-.11.34-.3.52-.55.11-.14.25-.21.44-.21.1,0,.19.03.29.09.15.1.23.25.23.45,0,.13-.04.24-.11.32-.28.39-.56.67-.85.85-.29.17-.63.26-1.03.25Z"/><path d="m91.56,65.92c.17-.02.31.03.44.15.12.12.18.26.18.43s-.06.31-.18.43c-.12.12-.27.17-.44.16-.33-.03-.68-.05-1.04-.07-.36-.02-.72-.03-1.08-.03s-.69,0-1.03.03c-.34.02-.66.04-.96.07-.17.01-.32-.04-.44-.16-.12-.11-.19-.26-.19-.43s.06-.31.19-.43.27-.17.44-.15c.45.04.9.07,1.36.09.09,0,.14-.05.14-.14v-8.17c0-.13-.06-.17-.17-.1l-1.17.57c-.08.04-.16.06-.25.06-.25,0-.43-.11-.54-.33,0-.05-.02-.09-.04-.13-.01-.04-.02-.08-.02-.12,0-.24.12-.42.35-.53l2.21-1.06c.07-.04.15-.06.24-.06.15,0,.28.05.4.16.12.11.17.24.17.41v9.31c0,.09.05.14.15.14.46-.02.89-.05,1.29-.09Z"/><path d="m105.64,64.15c.18,0,.33.06.46.19s.18.28.16.46l-.09,1.26c0,.25-.1.46-.28.64-.18.17-.4.26-.65.26h-6.24c-.25,0-.46-.09-.64-.26-.18-.17-.25-.39-.23-.64.09-.75.31-1.39.66-1.92.35-.53.82-1,1.4-1.4.58-.4,1.26-.78,2.03-1.12.62-.28,1.13-.53,1.52-.76.4-.22.68-.49.85-.8.17-.31.24-.73.19-1.25-.08-.55-.31-1-.71-1.33-.39-.34-.97-.51-1.74-.51-.6,0-1.11.11-1.53.33-.42.22-.73.55-.92.98,0,0-.01.03-.01.06,0,.05.03.09.09.12.16.08.28.19.35.34.07.14.11.29.11.44,0,.23-.08.44-.24.64-.16.19-.39.29-.69.29-.32,0-.56-.11-.72-.34-.16-.23-.24-.5-.24-.82,0-.39.1-.78.3-1.18.35-.65.84-1.13,1.47-1.45.63-.32,1.28-.47,1.96-.47.55,0,1.08.1,1.58.3.5.2.94.5,1.3.9.37.4.61.91.73,1.51.03.19.05.38.05.55,0,.51-.11.95-.32,1.31-.22.37-.5.68-.85.95-.35.27-.75.5-1.19.72-.44.22-.89.43-1.33.65-.45.21-.88.45-1.28.71s-.74.56-1.03.91c-.29.35-.48.78-.58,1.28v.03c0,.08.04.12.12.12h5.49c.08,0,.12-.04.12-.1,0-.18,0-.35-.03-.51-.02-.16-.03-.31-.03-.46,0-.17.06-.31.18-.43.12-.12.27-.17.44-.17Z"/><path d="m114.22,59.95c-.23,0-.43-.08-.61-.25-.18-.17-.26-.38-.26-.62s.09-.44.26-.62c.17-.17.38-.25.61-.25s.43.08.61.25c.17.17.26.38.26.62s-.09.45-.26.62-.38.25-.61.25Zm0,5.04c-.23,0-.43-.08-.61-.25-.18-.17-.26-.37-.26-.61s.09-.45.26-.62c.17-.17.38-.25.61-.25s.43.08.61.25.26.38.26.62-.09.44-.26.61-.38.25-.61.25Z"/><path d="m127.57,61.32c-.12.03-.12.07,0,.1.59.16,1.07.44,1.44.83.37.4.55.97.55,1.73,0,.59-.17,1.12-.5,1.58-.33.47-.79.83-1.37,1.1-.58.27-1.24.41-1.98.41-.98,0-1.79-.23-2.43-.68-.64-.46-1.06-1.06-1.25-1.81-.05-.22-.08-.41-.08-.57,0-.35.09-.65.26-.89.17-.24.42-.36.74-.36.29,0,.52.1.68.3s.25.42.25.64c0,.17-.04.33-.13.48-.09.15-.23.26-.42.34-.09.03-.12.09-.09.18.13.36.33.63.58.82.26.19.56.32.89.38.33.07.66.1.99.1.27,0,.56-.04.88-.12.31-.08.61-.2.89-.36.28-.16.51-.36.69-.61.18-.24.27-.54.27-.88,0-.23-.02-.46-.07-.7-.05-.24-.17-.46-.36-.66-.19-.21-.49-.38-.89-.52-.41-.14-.96-.23-1.67-.25-.13,0-.25-.06-.34-.16-.1-.09-.15-.21-.15-.35s.05-.26.15-.35c.1-.09.22-.15.36-.16.77-.04,1.36-.16,1.77-.36.41-.2.69-.45.84-.74.15-.29.23-.6.23-.91s-.1-.62-.28-.92c-.19-.3-.47-.55-.83-.76-.36-.2-.81-.31-1.33-.31-1.2,0-2,.42-2.4,1.25-.01.02-.02.04-.02.06,0,.05.02.09.08.12.17.09.29.21.37.35.08.14.11.3.11.46,0,.22-.08.43-.24.62-.16.2-.39.29-.67.29-.32,0-.57-.12-.74-.34-.17-.23-.25-.5-.25-.83,0-.09,0-.18.02-.27.02-.09.03-.18.05-.27.12-.42.33-.82.64-1.2s.71-.69,1.22-.93c.5-.24,1.12-.36,1.84-.36.61,0,1.14.1,1.59.29.45.19.82.44,1.12.74.29.31.51.64.66.99.14.36.22.69.22,1.01,0,.6-.18,1.11-.54,1.53s-.8.71-1.32.88Z"/><path d="m139.99,55.86c.84,0,1.58.2,2.23.61.65.41,1.16,1.02,1.53,1.84.37.82.56,1.84.56,3.07,0,1.29-.19,2.36-.56,3.2-.37.84-.88,1.47-1.53,1.89-.65.42-1.4.62-2.23.62s-1.59-.21-2.24-.62-1.16-1.04-1.52-1.89c-.37-.85-.55-1.91-.55-3.2s.19-2.25.56-3.07c.37-.82.88-1.43,1.53-1.84.65-.41,1.39-.61,2.22-.61Zm0,10.16c.58,0,1.1-.17,1.57-.5s.85-.84,1.13-1.52c.29-.68.43-1.54.43-2.58s-.14-1.82-.43-2.47c-.28-.66-.66-1.16-1.13-1.49s-1-.5-1.57-.5-1.09.17-1.57.5-.85.83-1.13,1.49c-.28.66-.42,1.48-.42,2.47,0,1.04.14,1.9.42,2.58.28.68.66,1.19,1.13,1.52s1,.5,1.57.5Z"/></g><g><path d="m21.1,107.59c.17-.02.31.03.44.15.12.12.18.26.18.43s-.06.31-.18.43c-.12.12-.27.17-.44.16-.33-.03-.68-.05-1.04-.07-.36-.02-.72-.03-1.08-.03s-.69,0-1.03.03c-.34.02-.66.04-.96.07-.17.01-.32-.04-.44-.16-.12-.11-.19-.26-.19-.43s.06-.31.19-.43.27-.17.44-.15c.45.04.9.07,1.36.09.09,0,.14-.05.14-.14v-8.17c0-.13-.06-.17-.17-.1l-1.17.57c-.08.04-.16.06-.25.06-.25,0-.43-.11-.54-.33,0-.05-.02-.09-.04-.13-.01-.04-.02-.08-.02-.12,0-.24.12-.42.35-.53l2.21-1.06c.07-.04.15-.06.24-.06.15,0,.28.05.4.16.12.11.17.24.17.41v9.31c0,.09.05.14.15.14.46-.02.89-.05,1.29-.09Z"/><path d="m26.5,98.83c-.1,0-.15.04-.15.13l-.25,3.21c0,.11.05.15.15.12.4-.1.78-.17,1.14-.22s.69-.07,1-.07c.89,0,1.61.16,2.17.47.56.32.97.72,1.23,1.22.27.5.4,1.04.4,1.62,0,.38-.09.77-.26,1.17-.17.4-.43.77-.77,1.12-.34.35-.77.62-1.27.83s-1.1.31-1.78.31-1.33-.11-1.88-.34c-.55-.23-1.01-.54-1.36-.95-.13-.16-.25-.33-.34-.53-.1-.19-.15-.38-.15-.57,0-.18.04-.33.12-.46.18-.31.45-.46.81-.46.29,0,.52.1.67.29.16.2.24.41.24.64,0,.2-.05.37-.15.51-.06.07-.06.14.01.2.24.18.52.33.84.44.32.11.71.17,1.19.17.54,0,1.03-.1,1.48-.29.44-.2.8-.46,1.07-.8.27-.34.41-.72.42-1.15.02-.7-.21-1.27-.67-1.72-.47-.45-1.28-.67-2.43-.67-.42,0-.81.04-1.18.12-.37.08-.74.19-1.13.33-.08.02-.15.03-.19.03-.16,0-.3-.06-.41-.18-.12-.12-.17-.27-.16-.44l.34-4.3c.02-.26.12-.47.31-.65.19-.17.4-.25.65-.25h4.65c.16,0,.29.06.41.17.11.11.17.25.17.41,0,.15-.06.28-.17.39-.11.11-.25.17-.41.17h-4.35Z"/><path d="m39.91,101.62c-.23,0-.43-.08-.61-.25-.18-.17-.26-.38-.26-.62s.09-.44.26-.62c.17-.17.38-.25.61-.25s.43.08.61.25c.17.17.26.38.26.62s-.09.45-.26.62-.38.25-.61.25Zm0,5.04c-.23,0-.43-.08-.61-.25-.18-.17-.26-.37-.26-.61s.09-.45.26-.62c.17-.17.38-.25.61-.25s.43.08.61.25.26.38.26.62-.09.44-.26.61-.38.25-.61.25Z"/><path d="m52.09,97.52c.84,0,1.58.2,2.23.61.65.41,1.16,1.02,1.53,1.84.37.82.56,1.84.56,3.07,0,1.29-.19,2.36-.56,3.2-.37.84-.88,1.47-1.53,1.89-.65.42-1.4.62-2.23.62s-1.59-.21-2.24-.62-1.16-1.04-1.52-1.89c-.37-.85-.55-1.91-.55-3.2s.19-2.25.56-3.07c.37-.82.88-1.43,1.53-1.84.65-.41,1.39-.61,2.22-.61Zm0,10.16c.58,0,1.1-.17,1.57-.5s.85-.84,1.13-1.52c.29-.68.43-1.54.43-2.58s-.14-1.82-.43-2.47c-.28-.66-.66-1.16-1.13-1.49s-1-.5-1.57-.5-1.09.17-1.57.5-.85.83-1.13,1.49c-.28.66-.42,1.48-.42,2.47,0,1.04.14,1.9.42,2.58.28.68.66,1.19,1.13,1.52s1,.5,1.57.5Z"/><path d="m66.24,97.52c.84,0,1.58.2,2.23.61.65.41,1.16,1.02,1.53,1.84.37.82.56,1.84.56,3.07,0,1.29-.19,2.36-.56,3.2-.37.84-.88,1.47-1.53,1.89-.65.42-1.4.62-2.23.62s-1.59-.21-2.24-.62-1.16-1.04-1.52-1.89c-.37-.85-.55-1.91-.55-3.2s.19-2.25.56-3.07c.37-.82.88-1.43,1.53-1.84.65-.41,1.39-.61,2.22-.61Zm0,10.16c.58,0,1.1-.17,1.57-.5s.85-.84,1.13-1.52c.29-.68.43-1.54.43-2.58s-.14-1.82-.43-2.47c-.28-.66-.66-1.16-1.13-1.49s-1-.5-1.57-.5-1.09.17-1.57.5-.85.83-1.13,1.49c-.28.66-.42,1.48-.42,2.47,0,1.04.14,1.9.42,2.58.28.68.66,1.19,1.13,1.52s1,.5,1.57.5Z"/><path d="m83.13,104.17c-.37,0-.71-.07-1.03-.2-.32-.13-.62-.29-.92-.46s-.58-.33-.85-.46c-.28-.14-.57-.2-.87-.2-.27,0-.56.08-.85.25s-.62.47-.98.91c-.1.15-.25.22-.45.22-.12,0-.23-.03-.33-.1-.15-.13-.23-.28-.23-.45,0-.13.04-.24.13-.33.48-.56.95-.95,1.4-1.16.45-.21.89-.32,1.31-.32.5,0,.97.1,1.41.31.44.21.84.42,1.21.62.21.11.4.2.57.27.17.07.33.11.48.11.18,0,.35-.06.52-.17.17-.11.34-.3.52-.55.11-.14.25-.21.44-.21.1,0,.19.03.29.09.15.1.23.25.23.45,0,.13-.04.24-.11.32-.28.39-.56.67-.85.85-.29.17-.63.26-1.03.25Z"/><path d="m96.21,107.59c.17-.02.31.03.44.15.12.12.18.26.18.43s-.06.31-.18.43c-.12.12-.27.17-.44.16-.33-.03-.68-.05-1.04-.07-.36-.02-.72-.03-1.08-.03s-.69,0-1.03.03c-.34.02-.66.04-.96.07-.17.01-.32-.04-.44-.16-.12-.11-.19-.26-.19-.43s.06-.31.19-.43.27-.17.44-.15c.45.04.9.07,1.36.09.09,0,.14-.05.14-.14v-8.17c0-.13-.06-.17-.17-.1l-1.17.57c-.08.04-.16.06-.25.06-.25,0-.43-.11-.54-.33,0-.05-.02-.09-.04-.13-.01-.04-.02-.08-.02-.12,0-.24.12-.42.35-.53l2.21-1.06c.07-.04.15-.06.24-.06.15,0,.28.05.4.16.12.11.17.24.17.41v9.31c0,.09.05.14.15.14.46-.02.89-.05,1.29-.09Z"/><path d="m106.83,102.62c-.12.07-.12.12.02.15.71.24,1.24.61,1.58,1.12.34.5.52,1.04.52,1.6,0,.65-.18,1.22-.54,1.72-.36.5-.86.88-1.5,1.15-.64.28-1.38.41-2.22.41s-1.58-.14-2.21-.41c-.64-.27-1.13-.66-1.49-1.15s-.54-1.07-.54-1.72.19-1.17.56-1.64c.37-.47.84-.83,1.41-1.06.11-.05.11-.1,0-.17-.43-.23-.77-.55-1.01-.95-.24-.41-.36-.82-.36-1.25,0-.56.15-1.06.46-1.5.31-.44.73-.78,1.28-1.04.55-.25,1.18-.38,1.9-.38s1.37.13,1.91.38c.54.25.97.6,1.27,1.04.31.44.46.94.46,1.5,0,.43-.13.85-.38,1.25-.26.41-.63.72-1.12.95Zm-2.15,5.16c.95,0,1.71-.21,2.27-.62.56-.42.84-.97.84-1.67,0-.42-.13-.8-.38-1.13-.26-.33-.62-.6-1.08-.8s-1.01-.3-1.64-.3c-.58,0-1.1.1-1.58.3-.47.2-.84.47-1.12.81-.28.34-.42.71-.42,1.12,0,.76.29,1.33.85,1.72.57.38,1.33.58,2.27.58Zm-2.49-7.35c0,.54.23.98.7,1.33s1.06.52,1.79.52c.47,0,.89-.08,1.27-.25.38-.17.67-.39.89-.67.22-.28.33-.59.33-.93,0-.53-.23-.98-.68-1.35-.45-.37-1.06-.55-1.81-.55-.46,0-.88.08-1.26.25-.38.17-.68.4-.9.69-.22.29-.33.61-.33.96Z"/><path d="m116.74,101.62c-.23,0-.43-.08-.61-.25-.18-.17-.26-.38-.26-.62s.09-.44.26-.62c.17-.17.38-.25.61-.25s.43.08.61.25c.17.17.26.38.26.62s-.09.45-.26.62-.38.25-.61.25Zm0,5.04c-.23,0-.43-.08-.61-.25-.18-.17-.26-.37-.26-.61s.09-.45.26-.62c.17-.17.38-.25.61-.25s.43.08.61.25.26.38.26.62-.09.44-.26.61-.38.25-.61.25Z"/><path d="m128.92,97.52c.84,0,1.58.2,2.23.61.65.41,1.16,1.02,1.53,1.84.37.82.56,1.84.56,3.07,0,1.29-.19,2.36-.56,3.2-.37.84-.88,1.47-1.53,1.89-.65.42-1.4.62-2.23.62s-1.59-.21-2.24-.62-1.16-1.04-1.52-1.89c-.37-.85-.55-1.91-.55-3.2s.19-2.25.56-3.07c.37-.82.88-1.43,1.53-1.84.65-.41,1.39-.61,2.22-.61Zm0,10.16c.58,0,1.1-.17,1.57-.5s.85-.84,1.13-1.52c.29-.68.43-1.54.43-2.58s-.14-1.82-.43-2.47c-.28-.66-.66-1.16-1.13-1.49s-1-.5-1.57-.5-1.09.17-1.57.5-.85.83-1.13,1.49c-.28.66-.42,1.48-.42,2.47,0,1.04.14,1.9.42,2.58.28.68.66,1.19,1.13,1.52s1,.5,1.57.5Z"/><path d="m142.47,97.52c.84,0,1.58.2,2.23.61.65.41,1.16,1.02,1.53,1.84.37.82.56,1.84.56,3.07,0,1.29-.19,2.36-.56,3.2-.37.84-.88,1.47-1.53,1.89-.65.42-1.4.62-2.23.62s-1.59-.21-2.24-.62-1.16-1.04-1.52-1.89c-.37-.85-.55-1.91-.55-3.2s.19-2.25.56-3.07c.37-.82.88-1.43,1.53-1.84.65-.41,1.39-.61,2.22-.61Zm0,10.16c.58,0,1.1-.17,1.57-.5s.85-.84,1.13-1.52c.29-.68.43-1.54.43-2.58s-.14-1.82-.43-2.47c-.28-.66-.66-1.16-1.13-1.49s-1-.5-1.57-.5-1.09.17-1.57.5-.85.83-1.13,1.49c-.28.66-.42,1.48-.42,2.47,0,1.04.14,1.9.42,2.58.28.68.66,1.19,1.13,1.52s1,.5,1.57.5Z"/></g><rect width="495.9" height="32.53"/><g><path class="cls-1" d="m45.46,13.58h-3.72c-.15,0-.28-.05-.38-.16-.1-.1-.16-.23-.16-.38s.05-.28.16-.38.23-.16.38-.16h3.72c.14,0,.26.05.38.16.11.11.17.23.17.38s-.06.28-.17.38c-.11.11-.24.16-.38.16Zm-.39-1.94h-2.94c-.15,0-.28-.05-.39-.16-.11-.11-.17-.23-.17-.38s.06-.28.17-.38c.11-.11.24-.16.39-.16h2.94c.15,0,.28.05.38.16.1.1.16.23.16.38s-.05.28-.16.38c-.1.1-.23.16-.38.16Zm-.06,3.87h-2.82c-.15,0-.28-.05-.39-.16-.11-.11-.17-.23-.17-.38s.06-.28.17-.39.24-.17.39-.17h2.82c.15,0,.28.05.38.17s.16.24.16.39-.05.28-.16.38c-.1.1-.23.16-.38.16Zm0,1.94h-2.82c-.15,0-.28-.05-.39-.16-.11-.1-.17-.23-.17-.38s.06-.28.17-.39c.11-.11.24-.17.39-.17h2.82c.15,0,.28.06.38.17.1.11.16.24.16.39s-.05.28-.16.38c-.1.11-.23.16-.38.16Zm-.31,5.5h-2.16c-.25,0-.46-.09-.64-.26-.18-.17-.26-.39-.26-.64v-2.87c0-.25.09-.46.26-.64.17-.17.39-.26.64-.26h2.16c.25,0,.46.09.64.26.17.18.26.39.26.64v2.87c0,.25-.09.46-.26.64-.18.17-.39.26-.64.26Zm-1.9-3.66c-.06,0-.09.03-.09.09v2.49c0,.06.03.09.09.09h1.67c.06,0,.09-.03.09-.09v-2.49c0-.06-.03-.09-.09-.09h-1.67Zm10.6-4.65c-.42-.21-.85-.47-1.29-.78-.44-.31-.86-.64-1.25-1-.4-.35-.75-.7-1.06-1.03-.03-.05-.07-.05-.12,0-.1.14-.26.33-.49.55-.23.23-.48.48-.77.75-.29.27-.58.53-.9.79-.31.25-.62.47-.92.65-.07.05-.16.08-.27.08-.1,0-.2-.03-.29-.08s-.16-.13-.21-.23c-.01-.04-.02-.08-.04-.12s-.02-.08-.02-.12c0-.23.11-.42.33-.55.38-.23.76-.51,1.14-.83.38-.32.74-.67,1.08-1.03.34-.36.63-.69.87-1,.15-.18.33-.27.54-.27s.36.08.5.24c.32.37.68.74,1.09,1.11.41.37.82.71,1.25,1.02.42.31.82.56,1.19.75.26.13.39.33.39.6,0,.17-.05.3-.16.41-.1.1-.23.15-.37.15-.07,0-.15-.01-.23-.04Zm-6.9,8.31c-.16.03-.31-.01-.44-.13-.13-.12-.2-.26-.2-.44,0-.14.05-.26.14-.37.09-.11.2-.18.34-.22,1.25-.27,2.46-.63,3.62-1.09,1.16-.46,2.18-.98,3.06-1.56.08-.05.17-.08.25-.08.21,0,.35.1.44.29.04.08.06.18.06.3,0,.25-.1.44-.3.56-.41.27-.91.54-1.49.83-.58.28-1.21.54-1.86.79-.65.25-1.3.47-1.93.67s-1.2.35-1.69.46Zm.28-2.99s-.07.01-.13.01c-.14,0-.27-.05-.38-.16-.11-.1-.17-.24-.17-.4,0-.13.04-.25.12-.34.08-.1.18-.17.31-.21.99-.27,1.95-.62,2.88-1.06.93-.44,1.75-.9,2.44-1.4.11-.07.21-.11.3-.11.2,0,.34.09.42.27.05.12.08.22.08.31,0,.23-.1.42-.3.56-.82.55-1.72,1.04-2.69,1.48-.98.44-1.94.78-2.89,1.04Zm.35-2.78s-.08.02-.15.02c-.13,0-.25-.05-.36-.16-.11-.1-.17-.24-.17-.4,0-.13.04-.25.12-.35.08-.1.19-.18.31-.22.75-.24,1.48-.54,2.18-.88.7-.35,1.32-.73,1.88-1.12.11-.07.2-.11.28-.11.19,0,.33.09.41.27.05.12.07.23.07.32,0,.24-.1.43-.3.57-.34.23-.76.48-1.25.74s-1.01.52-1.54.76c-.53.24-1.02.43-1.48.57Z"/><path class="cls-1" d="m72.84,11.99h-9.42c-.06,0-.09.03-.09.09v5.05c0,.44-.02.92-.07,1.45-.04.53-.12,1.06-.22,1.59-.1.54-.22,1.04-.37,1.52-.15.47-.32.88-.52,1.22-.12.2-.31.3-.55.3-.13,0-.26-.03-.38-.09-.18-.09-.27-.24-.27-.45,0-.11.03-.21.09-.3.31-.47.55-1.01.73-1.63.17-.62.3-1.25.37-1.91,0-.1-.04-.12-.1-.04-.11.08-.23.17-.37.25-.14.09-.27.18-.41.27-.07.04-.15.06-.23.06-.13,0-.24-.04-.34-.14-.1-.09-.14-.21-.14-.38,0-.15.04-.29.12-.43.08-.14.19-.24.31-.31.26-.15.49-.32.68-.5s.37-.37.52-.55c.03-.03.04-.07.04-.11v-2.12s-.02,0-.02,0,0,0-.02,0c-.06.03-.12.04-.19.04-.24,0-.4-.12-.48-.35-.2-.59-.49-1.15-.87-1.68-.07-.11-.1-.21-.1-.31,0-.2.09-.36.27-.47.11-.06.22-.09.33-.09.22,0,.4.1.52.29.08.13.16.26.23.41.08.14.15.28.22.42.02.04.04.06.07.05s.04-.03.04-.07v-1.38c0-.23.08-.42.24-.58.16-.16.35-.24.58-.24h3.99c.06,0,.09-.03.09-.09v-.31c0-.16.06-.29.17-.41.11-.11.25-.17.41-.17s.29.06.4.17c.11.11.17.25.17.41v.31c0,.06.03.09.09.09h4.47c.15,0,.28.05.39.16.11.1.17.23.17.38s-.06.28-.17.38c-.11.11-.24.16-.39.16Zm-5.96,8.79c-.38.47-.85.89-1.4,1.25-.55.36-1.06.62-1.53.79-.03,0-.06.02-.08.02-.03,0-.05,0-.08,0-.13,0-.25-.05-.36-.16-.11-.11-.16-.23-.16-.38,0-.24.12-.42.38-.54.47-.2.91-.43,1.31-.71.4-.27.74-.55,1-.84.14-.14.31-.21.5-.21.05,0,.1,0,.15.01.05.01.1.03.14.06.17.09.25.23.25.42,0,.07-.04.16-.1.27Zm3.83-.9h-1.59c-.06,0-.09.03-.09.09v1.83c0,.55-.17.91-.52,1.09-.34.17-.83.24-1.46.2-.16,0-.29-.07-.39-.18-.1-.11-.15-.25-.15-.41,0-.15.07-.28.18-.38.11-.1.24-.14.39-.12.07,0,.14,0,.2,0s.11,0,.17,0c.26,0,.41-.02.45-.07s.06-.1.06-.16v-1.83c0-.06-.03-.09-.09-.09h-1.6c-.25,0-.46-.09-.64-.26s-.26-.39-.26-.64v-1.89c0-.08-.04-.1-.1-.06-.16.1-.33.19-.51.28s-.37.17-.56.25c-.06.03-.12.04-.19.04-.13,0-.24-.05-.34-.15-.1-.1-.14-.23-.14-.38,0-.27.13-.47.39-.6.32-.14.63-.3.94-.5.07-.03.08-.07.03-.12-.09-.11-.19-.22-.3-.34s-.22-.22-.33-.32c-.1-.09-.15-.21-.15-.36,0-.18.07-.31.21-.39.13-.08.27-.12.41-.12.22,0,.4.08.54.25.16.19.32.4.48.64.02.02.03.04.04.08h0c.35-.27.67-.6.96-.97.05-.07.03-.11-.04-.11h-2.29c-.14,0-.26-.05-.37-.15-.1-.1-.16-.23-.16-.38s.05-.28.16-.38c.1-.1.23-.15.37-.15h3c.06,0,.09-.02.1-.06.05-.11.09-.22.13-.33.03-.11.07-.22.11-.32.08-.27.25-.41.52-.41.15,0,.28.05.38.16.1.1.16.23.16.37,0,.04,0,.09-.03.15-.01.05-.03.1-.05.16s-.05.11-.07.17c-.03.07,0,.11.08.11h3.84c.15,0,.27.05.38.15.1.1.15.22.15.38s-.05.27-.15.38c-.1.1-.23.15-.38.15h-2c-.1,0-.11.04-.04.11.11.16.23.31.38.46.14.15.29.3.45.45.05.04.09.04.12.01.12-.1.23-.2.33-.3s.19-.21.27-.33c.1-.16.24-.24.42-.24.14,0,.25.05.34.15.08.1.13.21.13.34,0,.08-.02.15-.04.21-.07.13-.16.26-.26.41-.1.14-.22.27-.35.39-.04.04-.04.08,0,.13.15.1.3.19.45.28.15.09.3.17.46.25.23.11.34.29.34.54,0,.14-.05.26-.14.36-.1.1-.21.15-.34.15-.06,0-.12-.01-.18-.04-.19-.08-.38-.18-.58-.3s-.4-.25-.61-.41c-.07-.05-.1-.03-.1.06v2.07c0,.25-.08.46-.25.64-.17.17-.39.26-.65.26Zm-4.28-2.55c0,.06.03.09.09.09h3.92c.06,0,.09-.03.09-.09v-.36c0-.06-.03-.09-.09-.09h-3.92c-.06,0-.09.03-.09.09v.36Zm4.1,1.15c0-.06-.03-.09-.09-.09h-3.92c-.06,0-.09.03-.09.09v.33c0,.06.03.09.09.09h3.92c.06,0,.09-.03.09-.09v-.33Zm-1.35-4.2s-.07-.06-.12-.06h-.88c-.06,0-.1.02-.1.06-.15.25-.32.5-.52.76s-.42.51-.67.76c-.03.02-.04.04-.03.07,0,.03.03.04.07.04h3.47s.06-.01.07-.04c0-.02,0-.05-.03-.08-.23-.23-.46-.47-.68-.73-.22-.26-.42-.51-.58-.77Zm4,7.42c.25.12.38.31.38.58,0,.16-.05.29-.15.39s-.21.15-.34.15c-.07,0-.14-.02-.2-.04-.43-.18-.88-.44-1.34-.78s-.9-.71-1.31-1.09c-.1-.1-.15-.23-.15-.38,0-.17.07-.31.21-.42.1-.07.21-.11.33-.11.19,0,.35.07.49.21.28.28.62.56,1.02.83.4.27.75.49,1.06.65Z"/><path class="cls-1" d="m81.45,11.15h1.85c.25,0,.46.09.64.26s.26.39.26.64v7.83c0,.25-.09.46-.26.64s-.39.26-.64.26h-1.85c-.25,0-.46-.09-.64-.26-.18-.17-.26-.39-.26-.64v-7.83c0-.25.09-.46.26-.64.17-.17.39-.26.64-.26Zm1.59,3.89c.06,0,.09-.03.09-.09v-2.61c0-.06-.03-.09-.09-.09h-1.34c-.06,0-.09.03-.09.09v2.61c0,.06.03.09.09.09h1.34Zm-1.34,1.09c-.06,0-.09.03-.09.09v3.38c0,.06.03.09.09.09h1.34c.06,0,.09-.03.09-.09v-3.38c0-.06-.03-.09-.09-.09h-1.34Zm10.6-.58h-7.3c-.16,0-.29-.05-.4-.17s-.16-.24-.16-.39.05-.28.16-.38c.1-.11.24-.16.4-.16h3.02c.06,0,.09-.03.09-.09v-1.15c0-.06-.03-.09-.09-.09h-2.18c-.15,0-.28-.05-.39-.16-.11-.1-.16-.23-.16-.38s.05-.28.16-.39c.11-.11.24-.17.39-.17h2.18c.06,0,.09-.03.09-.09v-1.2c0-.15.05-.28.17-.39.11-.11.24-.17.39-.17.16,0,.29.05.4.17s.16.24.16.39v1.2c0,.06.03.09.09.09h2.31c.16,0,.29.06.4.17.1.11.16.24.16.39s-.05.28-.16.38c-.1.11-.24.16-.4.16h-2.31c-.06,0-.09.03-.09.09v1.15c0,.06.03.09.09.09h3c.15,0,.28.05.39.16.11.1.17.23.17.38s-.06.28-.17.39-.24.17-.39.17Zm-1.33,1.62c0,.06.03.09.09.09h1.24c.15,0,.28.05.38.16.1.11.16.23.16.38s-.05.28-.16.39c-.1.11-.23.17-.38.17h-1.24c-.06,0-.09.03-.09.09v2.48c0,.75-.25,1.29-.73,1.63-.49.34-1.23.5-2.21.5-.16,0-.29-.06-.4-.18-.11-.12-.17-.26-.17-.42s.06-.29.17-.4c.11-.1.25-.15.4-.14.08.01.15.02.22.02h.2c.44,0,.79-.07,1.04-.2.25-.13.38-.4.38-.8v-2.48c0-.06-.03-.09-.09-.09h-4.75c-.15,0-.28-.05-.38-.17-.1-.11-.16-.24-.16-.39s.05-.28.16-.38c.1-.1.23-.16.38-.16h4.75c.06,0,.09-.03.09-.09v-.9c0-.15.05-.28.16-.39s.24-.17.4-.17.29.05.4.17.16.24.16.39v.9Zm-3.13,3.71c.03.07.04.14.04.21,0,.24-.12.42-.34.54-.04,0-.08.02-.11.04-.03.01-.06.02-.1.02-.22,0-.38-.11-.48-.33-.12-.26-.27-.55-.45-.87-.18-.32-.35-.6-.52-.85-.06-.09-.09-.2-.09-.32,0-.19.08-.33.24-.42.11-.06.21-.09.31-.09.21,0,.38.09.51.29.16.25.33.54.52.86s.34.63.47.92Z"/><path class="cls-1" d="m105.46,11.24v3.42c0,.25-.09.46-.26.64-.17.18-.39.26-.64.26h-3.17c-.06,0-.09.03-.09.09v6.87c0,.16-.05.29-.16.41-.11.11-.24.17-.39.17-.16,0-.29-.06-.41-.17-.11-.11-.17-.25-.17-.41v-11.28c0-.25.09-.46.26-.64s.39-.26.64-.26h3.48c.25,0,.46.09.64.26s.26.39.26.64Zm-1.19,1.19c.06,0,.09-.03.09-.09v-.84c0-.06-.03-.09-.09-.09h-2.88c-.06,0-.09.03-.09.09v.84c0,.06.03.09.09.09h2.88Zm-2.88,1.06c-.06,0-.09.03-.09.09v.84c0,.06.03.09.09.09h2.88c.06,0,.09-.03.09-.09v-.84c0-.06-.03-.09-.09-.09h-2.88Zm3.04,2.91h3.21c.25,0,.46.09.64.26.17.17.26.39.26.64v3.87c0,.25-.09.46-.26.64-.18.17-.39.26-.64.26h-3.21c-.25,0-.46-.09-.64-.26s-.26-.39-.26-.64v-3.87c0-.25.09-.46.26-.64s.39-.26.64-.26Zm2.94,2.31c.06,0,.09-.03.09-.09v-1.1c0-.06-.03-.09-.09-.09h-2.67c-.06,0-.09.03-.09.09v1.1c0,.06.03.09.09.09h2.67Zm-2.67,1.05c-.06,0-.09.03-.09.09v1.09c0,.06.03.09.09.09h2.67c.06,0,.09-.03.09-.09v-1.09c0-.06-.03-.09-.09-.09h-2.67Zm2.67-9.42h3.63c.25,0,.46.09.64.26.17.17.26.39.26.64v10.29c0,.58-.18.98-.53,1.2s-.87.33-1.54.32c-.15,0-.28-.06-.38-.17s-.16-.25-.16-.4c0-.17.06-.31.17-.42.11-.11.25-.16.41-.15.4.01.65,0,.75-.04s.15-.15.15-.34v-5.88c0-.06-.03-.09-.09-.09h-3.31c-.25,0-.46-.09-.64-.26-.17-.17-.26-.39-.26-.64v-3.42c0-.25.09-.46.26-.64.18-.17.39-.26.64-.26Zm3.31,2.08c.06,0,.09-.03.09-.09v-.84c0-.06-.03-.09-.09-.09h-3.02c-.06,0-.09.03-.09.09v.84c0,.06.03.09.09.09h3.02Zm-3.02,1.06c-.06,0-.09.03-.09.09v.84c0,.06.03.09.09.09h3.02c.06,0,.09-.03.09-.09v-.84c0-.06-.03-.09-.09-.09h-3.02Z"/></g><path class="cls-1" d="m185.81,10.54h5.98c.25,0,.46.09.64.26.17.18.26.39.26.64v10.02c0,.52-.14.91-.43,1.18-.29.27-.8.4-1.54.4h-.22c-.08,0-.16,0-.24-.01-.15,0-.28-.07-.38-.19s-.16-.24-.16-.38c0-.17.06-.31.17-.42.12-.11.25-.16.41-.15.12,0,.23.01.33.01h.25c.33,0,.52-.03.58-.1.06-.06.09-.18.09-.34v-2.73c0-.06-.03-.09-.09-.09h-5.65c-.05,0-.08.03-.1.09-.11.71-.27,1.4-.47,2.08-.21.68-.46,1.32-.76,1.94-.06.11-.15.19-.25.25-.11.06-.23.09-.35.09-.04,0-.08,0-.11,0-.04,0-.07-.01-.11-.02-.22-.07-.33-.22-.33-.46,0-.04,0-.08.02-.11.02-.04.03-.07.04-.11.44-.87.77-1.75.98-2.64.22-.89.36-1.76.43-2.62.07-.86.1-1.66.1-2.41v-3.27c0-.25.09-.46.26-.64.17-.17.39-.26.64-.26Zm.09,6.9c-.01.06.01.09.07.09h5.5c.06,0,.09-.03.09-.09v-2.21c0-.06-.03-.09-.09-.09h-5.35c-.06,0-.09.03-.09.09-.01.73-.06,1.46-.13,2.21Zm5.58-3.41c.06,0,.09-.03.09-.09v-2.21c0-.06-.03-.09-.09-.09h-5.35c-.06,0-.09.03-.09.09v2.21c0,.06.03.09.09.09h5.35Z"/><path class="cls-1" d="m243.99,21.92c.13.04.23.11.31.22.08.1.12.22.12.35,0,.15-.05.28-.16.4-.1.11-.23.17-.38.17-.05,0-.09,0-.12-.01-.51-.11-1.03-.32-1.56-.62-.53-.3-1.04-.68-1.53-1.13-.49-.45-.94-.95-1.36-1.49s-.77-1.1-1.06-1.7c0-.04-.03-.06-.05-.06s-.05.02-.07.06c-.33.76-.79,1.48-1.38,2.15-.59.67-1.25,1.25-1.99,1.73-.73.48-1.5.82-2.29,1.02-.03,0-.07.01-.12.01-.15,0-.28-.05-.4-.17-.11-.11-.17-.25-.17-.4,0-.13.04-.25.12-.35.08-.11.19-.17.31-.2.76-.22,1.43-.52,2.01-.9.58-.38,1.08-.8,1.49-1.28.42-.47.76-.95,1.03-1.45.27-.5.47-.96.59-1.41.12-.44.19-.83.19-1.16v-4.96c0-.15.05-.28.17-.4.11-.12.24-.17.4-.17s.29.06.41.17c.11.11.17.25.17.4v4.92c.12.79.36,1.53.73,2.22.36.69.8,1.31,1.31,1.85.51.54,1.05,1,1.62,1.37.57.37,1.12.64,1.65.81Zm-9.36-5.4c-.15-.66-.37-1.29-.65-1.91-.29-.61-.6-1.15-.95-1.63-.07-.1-.1-.21-.1-.34,0-.24.1-.41.29-.5.11-.06.23-.09.36-.09.12,0,.23.03.34.08.1.06.19.14.25.25.17.3.36.67.57,1.12.21.45.41.91.6,1.4.19.48.33.94.44,1.37,0,.03.02.08.02.13,0,.15-.06.28-.17.4-.12.12-.26.17-.43.17-.13,0-.25-.04-.34-.13-.1-.08-.17-.19-.2-.32Zm5.93.39c-.14-.1-.21-.24-.21-.42,0-.06,0-.12.03-.19.02-.06.05-.12.09-.17.35-.44.68-.97.98-1.58.3-.61.53-1.27.69-1.96.03-.13.1-.24.2-.32.1-.08.21-.12.34-.12.06,0,.1,0,.14.02.31.1.46.3.46.62v.07s0,.06-.02.08c-.11.46-.26.94-.46,1.44-.19.5-.41.96-.65,1.39-.23.43-.47.79-.71,1.08-.12.14-.27.21-.46.21-.15,0-.29-.05-.42-.15Z"/><path class="cls-1" d="m284.55,14.15h3.69c.24,0,.44.09.6.27.16.18.22.38.18.62-.19,1.01-.52,1.95-1,2.83-.47.88-1.04,1.64-1.68,2.29s-1.32,1.17-2.02,1.55c-.07.04-.14.06-.22.06-.23,0-.4-.11-.5-.34-.03-.08-.04-.15-.04-.21,0-.25.11-.44.34-.57.66-.38,1.25-.85,1.77-1.42.52-.57.96-1.19,1.32-1.86.36-.67.62-1.33.79-2,.02-.07,0-.1-.08-.1h-3.17c-.15,0-.28-.05-.38-.17-.11-.11-.16-.24-.16-.39,0-.16.05-.29.16-.4.1-.11.23-.16.38-.16Zm11.84,6.38c.23.16.34.37.34.63,0,.08-.02.16-.04.24-.1.22-.27.33-.5.33-.08,0-.16-.02-.24-.08-.62-.41-1.25-.95-1.9-1.62-.64-.67-1.25-1.4-1.83-2.2s-1.08-1.58-1.51-2.36c-.02-.04-.04-.06-.07-.05-.02,0-.04.03-.04.08v6.25c0,.42-.13.75-.4.98-.27.23-.71.35-1.34.35-.12,0-.25,0-.38-.02-.13-.02-.28-.03-.43-.04-.14-.02-.25-.08-.35-.19-.09-.11-.13-.23-.13-.36,0-.17.07-.31.2-.43s.28-.17.45-.15c.15,0,.29.02.4.04.12.02.23.02.33.02.35,0,.53-.1.53-.3v-10.9c0-.16.05-.29.17-.41.11-.11.25-.17.41-.17.15,0,.28.05.39.17s.17.25.17.41v1.2c0,.05,0,.09.01.12.16.64.37,1.27.63,1.9.26.62.56,1.22.9,1.79.03.05.07.06.12.03.44-.31.89-.7,1.35-1.16s.89-.98,1.28-1.55c.12-.17.27-.25.46-.25.1,0,.2.04.3.11.18.13.27.29.27.48,0,.1-.04.21-.11.32-.4.59-.86,1.15-1.38,1.68-.52.53-1.04.97-1.58,1.32-.05.03-.04.08.02.17.58.83,1.18,1.56,1.81,2.19.63.63,1.19,1.12,1.68,1.46Z"/><path class="cls-1" d="m351.89,20.26c.22.14.33.34.33.6,0,.17-.05.31-.15.41-.1.1-.22.15-.36.15-.09,0-.17-.02-.24-.06-.62-.38-1.24-.85-1.85-1.41-.61-.56-1.19-1.16-1.72-1.79s-1-1.25-1.39-1.85c-.02-.04-.04-.05-.07-.04-.03,0-.04.04-.04.09v6.17c0,.16-.06.29-.17.41-.11.11-.25.17-.41.17-.15,0-.28-.06-.4-.17-.12-.11-.17-.25-.17-.41v-6.06s-.01-.06-.04-.07c-.03,0-.05,0-.07.04-.4.62-.88,1.24-1.43,1.85-.55.61-1.13,1.19-1.75,1.72-.62.53-1.24.99-1.86,1.37-.08.05-.17.08-.25.08-.22,0-.38-.11-.48-.33-.03-.08-.04-.16-.04-.24,0-.27.12-.47.34-.6.5-.31,1.01-.69,1.53-1.14.52-.45,1.02-.94,1.49-1.46.48-.53.9-1.05,1.28-1.58.38-.53.67-1.03.89-1.51.04-.07.01-.1-.08-.1h-4.51c-.16,0-.29-.06-.4-.17-.11-.11-.16-.25-.16-.41s.05-.29.16-.41c.1-.11.24-.17.4-.17h4.89c.06,0,.09-.03.09-.09v-2.47c0-.15.06-.28.17-.4.11-.12.25-.17.4-.17.16,0,.29.06.41.17.11.11.17.25.17.4v2.47c0,.06.03.09.09.09h4.92c.16,0,.29.06.41.17.11.11.16.25.16.41s-.05.29-.16.41c-.11.11-.25.17-.41.17h-4.47c-.09,0-.11.04-.06.12.24.52.56,1.06.95,1.61.4.55.83,1.09,1.31,1.6.47.52.95.99,1.42,1.42.47.43.92.78,1.33,1.05Z"/><path class="cls-1" d="m455.08,21.41c0,.06.03.09.09.09h4.99c.16,0,.29.05.41.17.11.11.17.25.17.4s-.06.29-.17.41c-.11.11-.25.17-.41.17h-11.31c-.16,0-.3-.05-.41-.17s-.17-.25-.17-.41.06-.29.17-.4c.11-.11.25-.17.41-.17h4.96c.06,0,.09-.03.09-.09v-5.33c0-.06-.03-.09-.09-.09h-3.9c-.16,0-.3-.06-.41-.17-.11-.11-.17-.25-.17-.41s.06-.29.17-.41c.11-.11.25-.17.41-.17h3.9c.06,0,.09-.03.09-.09v-3.96c0-.17.06-.31.17-.43.12-.11.25-.17.41-.17.17,0,.31.06.42.17.11.12.17.26.17.43v3.96c0,.06.03.09.09.09h3.93c.16,0,.29.06.41.17.11.11.17.25.17.41s-.06.29-.17.41c-.11.11-.25.17-.41.17h-3.93c-.06,0-.09.03-.09.09v5.33Z"/><path class="cls-1" d="m407.64,13.4c.26.13.39.33.39.6,0,.16-.05.29-.15.39-.1.1-.22.15-.35.15-.03,0-.06,0-.08,0s-.05-.01-.08-.02c-.45-.19-.94-.43-1.48-.74-.53-.3-1.07-.63-1.6-.99-.53-.36-1.04-.73-1.53-1.1-.49-.38-.9-.73-1.25-1.06-.02-.04-.06-.04-.12,0-.34.36-.74.73-1.2,1.11-.46.38-.95.75-1.46,1.1-.52.35-1.03.67-1.54.96-.51.29-.99.52-1.44.71-.06.03-.12.04-.18.04-.13,0-.25-.05-.35-.16-.1-.1-.15-.23-.15-.38,0-.28.13-.48.4-.6.61-.27,1.24-.61,1.89-1.02s1.27-.85,1.87-1.33c.59-.48,1.11-.94,1.55-1.39.18-.18.4-.27.65-.27.23,0,.42.08.58.23.35.32.75.66,1.22,1.01.46.36.94.71,1.45,1.05.51.34,1.02.67,1.52.96.5.29.98.55,1.43.76Zm-5.52,7.22c0,.06.03.09.09.09h4.95c.16,0,.29.05.4.16.1.1.16.23.16.38s-.05.28-.16.39-.24.17-.4.17h-11.22c-.16,0-.29-.05-.4-.17s-.16-.24-.16-.39.05-.28.16-.38c.1-.11.24-.16.4-.16h4.95c.06,0,.09-.03.09-.09v-3.17c0-.06-.03-.09-.09-.09h-4.24c-.16,0-.29-.05-.4-.17-.1-.11-.16-.24-.16-.39s.05-.28.16-.39c.11-.11.24-.17.4-.17h4.24c.06,0,.09-.03.09-.09v-1.53c0-.06-.03-.09-.09-.09h-2.08c-.16,0-.29-.05-.4-.17s-.16-.24-.16-.39.05-.28.16-.39.24-.17.4-.17h5.49c.16,0,.29.05.4.17s.16.24.16.39-.05.28-.16.39-.24.17-.4.17h-2.08c-.06,0-.09.03-.09.09v1.53c0,.06.03.09.09.09h4.24c.16,0,.29.05.4.17.1.11.16.24.16.39s-.05.28-.16.39c-.11.11-.24.17-.4.17h-4.24c-.06,0-.09.03-.09.09v3.17Zm-3.01-.41c-.35-.66-.78-1.21-1.28-1.63-.13-.12-.19-.26-.19-.42,0-.14.05-.26.15-.36.12-.12.26-.18.42-.18s.3.06.42.18c.26.28.52.59.77.94.25.34.47.69.65,1.03.04.07.06.15.06.22,0,.22-.1.38-.31.48-.07.03-.14.04-.21.04-.22,0-.38-.1-.48-.3Zm5.37-2.45c.1-.19.25-.29.45-.29.15,0,.27.06.38.17.1.12.15.24.15.38,0,.08-.02.15-.04.21-.18.35-.42.73-.72,1.15-.3.42-.59.76-.87,1.02-.1.09-.22.13-.35.13-.17,0-.31-.06-.44-.18-.09-.09-.13-.21-.13-.35s.05-.26.17-.38c.27-.26.52-.55.76-.86.24-.31.46-.66.65-1.03Z"/><line class="cls-2" x1=".93" y1="79.94" x2="495.9" y2="79.94"/><circle cx="189.14" cy="59.07" r="6.97"/><circle cx="189.14" cy="100.81" r="6.97"/><circle cx="239.63" cy="59.07" r="6.97"/><circle cx="239.63" cy="100.81" r="6.97"/><circle cx="291.65" cy="59.07" r="6.97"/><circle cx="291.65" cy="100.81" r="6.97"/><circle cx="403.05" cy="59.07" r="6.97"/><circle cx="347.35" cy="59.07" r="6.97"/><circle cx="456.01" cy="59.07" r="6.97"/><circle cx="403.05" cy="100.81" r="6.97"/><line class="cls-3" x1="340.4" y1="100.81" x2="354.3" y2="100.81"/><line class="cls-3" x1="449.06" y1="100.81" x2="462.96" y2="100.81"/></g></g></svg>