<?xml version="1.0" encoding="UTF-8"?><svg id="_レイヤー_2" xmlns="http://www.w3.org/2000/svg" viewBox="0 0 395 122.41"><defs><style>.cls-1{fill:#fff;}.cls-2{fill:#af9890;opacity:.9;}</style></defs><g id="_レイヤー_1-2"><g><path class="cls-2" d="m72,0h323v19c0,39.74-32.26,72-72,72H0v-19C0,32.26,32.26,0,72,0Z"/><g><path class="cls-1" d="m135.43,60.29h-2.91l-2.71-8.16h-8.75l-2.64,8.16h-2.81l8.33-25.17h3.17l8.33,25.17Zm-6.18-10.34l-2.48-7.47c-.53-1.72-.96-3.3-1.29-4.79h-.1c-.33,1.52-.79,3.11-1.26,4.69l-2.51,7.57h7.63Z"/><path class="cls-1" d="m166.94,59.27c-1.35.53-4,1.29-7.17,1.29-9.88,0-12.22-7.37-12.22-12.69,0-7.66,4.99-12.98,12.88-12.98,2.41,0,4.56.46,5.81,1.06l-.73,2.28c-1.22-.56-2.81-1.02-5.15-1.02-5.95,0-9.94,3.83-9.94,10.51s3.8,10.6,9.55,10.6c2.11,0,3.54-.33,4.26-.73v-8.06h-5.09v-2.21h7.8v11.96Z"/><path class="cls-1" d="m199.71,60.29h-2.91l-2.71-8.16h-8.75l-2.64,8.16h-2.81l8.33-25.17h3.17l8.33,25.17Zm-6.18-10.34l-2.48-7.47c-.53-1.72-.96-3.3-1.29-4.79h-.1c-.33,1.52-.79,3.11-1.26,4.69l-2.51,7.57h7.63Z"/><path class="cls-1" d="m212.62,61.78h-2.21l10.47-27.06h2.28l-10.54,27.06Z"/><path class="cls-1" d="m249.06,60.29h-13.28v-25.17h12.72v2.31h-9.98v8.52h9.38v2.28h-9.38v9.75h10.54v2.31Z"/><path class="cls-1" d="m263.03,35.45c1.85-.3,4-.53,6.34-.53,10.11,0,13.02,5.98,13.02,12.16,0,4-1.06,7.4-3.44,9.88-2.21,2.28-5.88,3.53-10.47,3.53-2.08,0-3.87-.07-5.45-.26v-24.78Zm2.74,22.66c.83.13,2.02.17,3.2.17,6.81,0,10.54-3.87,10.54-11.07,0-6.54-3.5-10.08-10.04-10.08-1.59,0-2.84.17-3.7.33v20.65Z"/></g><g><path class="cls-1" d="m35.22,118.93h-1.23l-1.15-3.46h-3.71l-1.12,3.46h-1.19l3.53-10.67h1.34l3.53,10.67Zm-2.62-4.38l-1.05-3.17c-.22-.73-.41-1.4-.55-2.03h-.04c-.14.64-.34,1.32-.53,1.99l-1.06,3.21h3.24Z"/><path class="cls-1" d="m43.54,118.93h-1.16v-4.51c0-1.25-.45-2.34-1.78-2.34-.99,0-2,.84-2,2.17v4.68h-1.16v-5.67c0-.78-.03-1.36-.06-1.98h1.04l.07,1.25h.03c.38-.74,1.26-1.42,2.45-1.42.95,0,2.58.57,2.58,3.17v4.65Z"/><path class="cls-1" d="m52.65,117.04c0,.62.03,1.37.06,1.89h-1.04l-.06-1.3h-.04c-.39.8-1.26,1.47-2.49,1.47-1.77,0-3.14-1.53-3.14-3.88,0-2.58,1.51-4.09,3.29-4.09,1.12,0,1.88.55,2.23,1.18h.03v-4.58h1.16v9.31Zm-1.16-2.69c0-1.53-1.08-2.28-2.06-2.28-1.44,0-2.3,1.34-2.3,3.1,0,1.61.76,2.98,2.26,2.98,1.26,0,2.1-1.11,2.1-2.33v-1.47Z"/><path class="cls-1" d="m59.13,112.28c-.13-.01-.25-.03-.42-.03-1.26,0-1.91,1.25-1.91,2.54v4.15h-1.16v-5.35c0-.81-.01-1.55-.06-2.28h1.02l.06,1.47h.04c.34-.95,1.13-1.64,2.07-1.64.13,0,.22.03.35.04v1.11Z"/><path class="cls-1" d="m67.67,115.05c0,2.84-1.88,4.05-3.57,4.05-1.96,0-3.47-1.47-3.47-3.94,0-2.61,1.62-4.05,3.57-4.05,2.09,0,3.47,1.6,3.47,3.94Zm-3.52-3.03c-1.65,0-2.34,1.62-2.34,3.1,0,1.69.94,3.07,2.31,3.07s2.35-1.37,2.35-3.1c0-1.36-.66-3.07-2.33-3.07Z"/><path class="cls-1" d="m76.34,111.29c-.04.55-.07,1.16-.07,2.1v4.45c0,1.33-.03,4.38-3.64,4.38-.87,0-1.82-.21-2.4-.6l.31-.91c.49.29,1.23.57,2.14.57,1.4,0,2.42-.74,2.42-2.76v-.91h-.03c-.39.71-1.2,1.3-2.37,1.3-1.82,0-3.12-1.61-3.12-3.75,0-2.65,1.65-4.05,3.31-4.05,1.3,0,1.99.7,2.31,1.32h.03l.06-1.15h1.05Zm-1.25,2.94c0-1.33-.97-2.17-2.03-2.17-1.34,0-2.28,1.19-2.28,3.04,0,1.62.78,2.9,2.27,2.9.87,0,2.05-.66,2.05-2.24v-1.53Z"/><path class="cls-1" d="m84.67,118.61c-.43.21-1.23.48-2.4.48-2.23,0-3.56-1.57-3.56-3.85,0-2.4,1.34-4.12,3.4-4.12,2.35,0,2.96,2.16,2.96,3.49,0,.27-.01.46-.03.64h-5.2c.01,2.12,1.22,2.91,2.59,2.91.95,0,1.53-.2,2-.39l.22.84Zm-.74-4.23c.01-1.04-.42-2.38-1.92-2.38-1.4,0-2.02,1.33-2.13,2.38h4.05Z"/><path class="cls-1" d="m93.61,118.93h-1.16v-4.51c0-1.25-.45-2.34-1.78-2.34-.99,0-2,.84-2,2.17v4.68h-1.16v-5.67c0-.78-.03-1.36-.06-1.98h1.04l.07,1.25h.03c.38-.74,1.26-1.42,2.45-1.42.95,0,2.58.57,2.58,3.17v4.65Z"/><path class="cls-1" d="m101.97,118.61c-.43.21-1.23.48-2.4.48-2.23,0-3.56-1.57-3.56-3.85,0-2.4,1.34-4.12,3.4-4.12,2.35,0,2.96,2.16,2.96,3.49,0,.27-.01.46-.03.64h-5.2c.01,2.12,1.22,2.91,2.59,2.91.95,0,1.53-.2,2-.39l.22.84Zm-.74-4.23c.01-1.04-.42-2.38-1.92-2.38-1.4,0-2.02,1.33-2.13,2.38h4.05Z"/><path class="cls-1" d="m105.12,109.91l1.15-.39v1.78h1.97v.91h-1.97v4.41c0,.97.29,1.5,1.04,1.5.35,0,.59-.04.79-.11l.07.9c-.25.11-.64.18-1.13.18-1.85,0-1.9-1.68-1.9-2.49v-4.38h-1.18v-.91h1.18v-1.39Z"/><path class="cls-1" d="m111.04,109.95c-.45,0-.76-.35-.76-.8s.32-.78.77-.78.76.35.76.78c0,.49-.32.8-.77.8Zm.59,8.98h-1.16v-7.63h1.16v7.63Z"/><path class="cls-1" d="m119.79,118.65c-.34.17-1.09.43-2.07.43-2.19,0-3.63-1.56-3.63-3.89s1.55-4.08,3.91-4.08c.85,0,1.54.25,1.83.41l-.29.94c-.32-.18-.83-.39-1.57-.39-1.76,0-2.69,1.42-2.69,3.05,0,1.85,1.11,3.01,2.65,3.01.76,0,1.27-.21,1.65-.38l.21.9Z"/><path class="cls-1" d="m133.75,118.93h-1.23l-1.15-3.46h-3.71l-1.12,3.46h-1.19l3.53-10.67h1.34l3.53,10.67Zm-2.62-4.38l-1.05-3.17c-.22-.73-.41-1.4-.55-2.03h-.04c-.14.64-.34,1.32-.53,1.99l-1.06,3.21h3.24Z"/><path class="cls-1" d="m137.12,118.93h-1.16v-11.21h1.16v11.21Z"/><path class="cls-1" d="m146.61,115.05c0,2.84-1.88,4.05-3.57,4.05-1.96,0-3.47-1.47-3.47-3.94,0-2.61,1.62-4.05,3.57-4.05,2.09,0,3.47,1.6,3.47,3.94Zm-3.52-3.03c-1.65,0-2.34,1.62-2.34,3.1,0,1.69.94,3.07,2.31,3.07s2.35-1.37,2.35-3.1c0-1.36-.66-3.07-2.33-3.07Z"/><path class="cls-1" d="m150.17,112.59c.53-.94,1.42-1.47,2.61-1.47,1.81,0,3.11,1.56,3.11,3.89,0,2.8-1.64,4.09-3.32,4.09-1.01,0-1.85-.46-2.3-1.22h-.03v4.17h-1.16v-8.31c0-.99-.03-1.77-.06-2.47h1.05l.07,1.3h.03Zm.07,3.31c0,1.48,1.11,2.27,2.14,2.27,1.5,0,2.33-1.29,2.33-3.11,0-1.58-.8-2.98-2.28-2.98-1.3,0-2.18,1.26-2.18,2.37v1.46Z"/><path class="cls-1" d="m163.74,118.61c-.43.21-1.23.48-2.4.48-2.23,0-3.56-1.57-3.56-3.85,0-2.4,1.34-4.12,3.4-4.12,2.35,0,2.96,2.16,2.96,3.49,0,.27-.01.46-.03.64h-5.2c.01,2.12,1.22,2.91,2.59,2.91.95,0,1.53-.2,2-.39l.22.84Zm-.74-4.23c.01-1.04-.42-2.38-1.92-2.38-1.4,0-2.02,1.33-2.13,2.38h4.05Z"/><path class="cls-1" d="m171.73,118.65c-.34.17-1.09.43-2.07.43-2.19,0-3.63-1.56-3.63-3.89s1.55-4.08,3.91-4.08c.85,0,1.54.25,1.83.41l-.29.94c-.32-.18-.83-.39-1.57-.39-1.76,0-2.69,1.42-2.69,3.05,0,1.85,1.11,3.01,2.65,3.01.76,0,1.27-.21,1.65-.38l.21.9Z"/><path class="cls-1" d="m174.62,109.95c-.45,0-.76-.35-.76-.8s.32-.78.77-.78.76.35.76.78c0,.49-.32.8-.77.8Zm.59,8.98h-1.16v-7.63h1.16v7.63Z"/><path class="cls-1" d="m183.22,117.11c0,.63.01,1.29.11,1.82h-1.06l-.11-.98h-.04c-.39.6-1.18,1.15-2.26,1.15-1.46,0-2.23-1.06-2.23-2.17,0-1.83,1.6-2.83,4.43-2.82,0-.64,0-2.1-1.74-2.1-.66,0-1.34.18-1.86.55l-.28-.8c.62-.41,1.47-.64,2.33-.64,2.16,0,2.72,1.53,2.72,3.04v2.96Zm-1.15-2.14c-1.44,0-3.25.21-3.25,1.82,0,.98.62,1.41,1.32,1.41,1.13,0,1.93-.87,1.93-1.79v-1.44Z"/><path class="cls-1" d="m189.88,119.56h-.94l4.44-11.47h.97l-4.47,11.47Z"/><path class="cls-1" d="m205.79,118.93h-5.63v-10.67h5.39v.98h-4.23v3.61h3.98v.97h-3.98v4.13h4.47v.98Z"/><path class="cls-1" d="m211.66,112.28c-.13-.01-.25-.03-.42-.03-1.26,0-1.9,1.25-1.9,2.54v4.15h-1.16v-5.35c0-.81-.01-1.55-.06-2.28h1.02l.06,1.47h.04c.34-.95,1.13-1.64,2.07-1.64.13,0,.22.03.35.04v1.11Z"/><path class="cls-1" d="m219.12,118.61c-.43.21-1.23.48-2.4.48-2.23,0-3.56-1.57-3.56-3.85,0-2.4,1.34-4.12,3.4-4.12,2.35,0,2.96,2.16,2.96,3.49,0,.27-.01.46-.03.64h-5.2c.01,2.12,1.22,2.91,2.59,2.91.95,0,1.53-.2,2-.39l.22.84Zm-.74-4.23c.01-1.04-.42-2.38-1.92-2.38-1.4,0-2.02,1.33-2.13,2.38h4.05Z"/><path class="cls-1" d="m227.11,118.65c-.34.17-1.09.43-2.07.43-2.19,0-3.63-1.56-3.63-3.89s1.55-4.08,3.91-4.08c.85,0,1.54.25,1.83.41l-.29.94c-.32-.18-.83-.39-1.57-.39-1.76,0-2.69,1.42-2.69,3.05,0,1.85,1.11,3.01,2.65,3.01.76,0,1.27-.21,1.65-.38l.21.9Z"/><path class="cls-1" d="m229.74,109.91l1.15-.39v1.78h1.97v.91h-1.97v4.41c0,.97.29,1.5,1.04,1.5.35,0,.59-.04.79-.11l.07.9c-.25.11-.64.18-1.13.18-1.85,0-1.91-1.68-1.91-2.49v-4.38h-1.18v-.91h1.18v-1.39Z"/><path class="cls-1" d="m235.66,109.95c-.45,0-.76-.35-.76-.8s.32-.78.77-.78.76.35.76.78c0,.49-.32.8-.77.8Zm.59,8.98h-1.16v-7.63h1.16v7.63Z"/><path class="cls-1" d="m240.42,118.93h-1.16v-11.21h1.16v11.21Z"/><path class="cls-1" d="m248.84,118.61c-.43.21-1.23.48-2.4.48-2.23,0-3.56-1.57-3.56-3.85,0-2.4,1.34-4.12,3.4-4.12,2.35,0,2.96,2.16,2.96,3.49,0,.27-.01.46-.03.64h-5.2c.01,2.12,1.22,2.91,2.59,2.91.95,0,1.53-.2,2-.39l.22.84Zm-.74-4.23c.01-1.04-.42-2.38-1.92-2.38-1.4,0-2.02,1.33-2.13,2.38h4.05Z"/><path class="cls-1" d="m255.68,108.4c.78-.13,1.7-.22,2.69-.22,4.29,0,5.52,2.54,5.52,5.15,0,1.69-.45,3.14-1.46,4.19-.94.97-2.49,1.5-4.44,1.5-.88,0-1.64-.03-2.31-.11v-10.51Zm1.16,9.61c.35.06.85.07,1.36.07,2.89,0,4.47-1.64,4.47-4.69,0-2.77-1.49-4.27-4.26-4.27-.67,0-1.2.07-1.57.14v8.75Z"/><path class="cls-1" d="m272.07,111.3l-2.03,5.41c-.91,2.48-1.56,3.91-2.51,4.8-.64.59-1.27.83-1.55.9l-.32-.98c1.78-.66,2.47-2.59,2.47-2.75,0-.07-.03-.18-.08-.32l-2.7-7.06h1.27l1.67,4.64c.2.53.36,1.13.49,1.6h.04c.13-.46.31-1.04.49-1.62l1.54-4.61h1.23Z"/><path class="cls-1" d="m277.62,112.46c-.28-.18-.8-.45-1.49-.45-.84,0-1.29.52-1.29,1.13,0,.66.43.97,1.42,1.39,1.23.5,1.95,1.15,1.95,2.3,0,1.36-1.04,2.26-2.7,2.26-.76,0-1.49-.21-2-.52l.32-.9c.41.24,1.06.52,1.72.52,1.02,0,1.53-.55,1.53-1.23s-.41-1.11-1.41-1.51c-1.29-.52-1.95-1.23-1.95-2.16,0-1.19.95-2.17,2.49-2.17.73,0,1.34.21,1.75.46l-.34.88Z"/><path class="cls-1" d="m280.81,111.3c0-.95,0-2.2.84-3.05.5-.49,1.16-.69,1.76-.69.49,0,.88.11,1.13.22l-.2.91c-.21-.08-.48-.18-.88-.18-1.21,0-1.5,1.12-1.5,2.35v.43h1.85v.91h-1.85v6.72h-1.16v-6.72h-1.05v-.91h1.05Z"/><path class="cls-1" d="m291.71,116.9c0,.78.04,1.44.07,2.03h-1.05l-.06-1.2h-.04c-.35.6-1.13,1.37-2.44,1.37-1.15,0-2.51-.66-2.51-3.29v-4.51h1.16v4.3c0,1.48.43,2.52,1.71,2.52.91,0,1.99-.73,1.99-2.07v-4.75h1.16v5.6Z"/><path class="cls-1" d="m300.81,118.93h-1.16v-4.51c0-1.25-.45-2.34-1.78-2.34-1,0-2,.84-2,2.17v4.68h-1.16v-5.67c0-.78-.03-1.36-.06-1.98h1.04l.07,1.25h.03c.38-.74,1.26-1.42,2.45-1.42.95,0,2.58.57,2.58,3.17v4.65Z"/><path class="cls-1" d="m308.91,118.65c-.34.17-1.09.43-2.07.43-2.19,0-3.63-1.56-3.63-3.89s1.55-4.08,3.91-4.08c.85,0,1.54.25,1.83.41l-.29.94c-.32-.18-.83-.39-1.57-.39-1.76,0-2.69,1.42-2.69,3.05,0,1.85,1.11,3.01,2.65,3.01.76,0,1.27-.21,1.65-.38l.21.9Z"/><path class="cls-1" d="m311.54,109.91l1.15-.39v1.78h1.97v.91h-1.97v4.41c0,.97.29,1.5,1.04,1.5.35,0,.59-.04.79-.11l.07.9c-.25.11-.64.18-1.13.18-1.85,0-1.9-1.68-1.9-2.49v-4.38h-1.18v-.91h1.18v-1.39Z"/><path class="cls-1" d="m317.46,109.95c-.45,0-.76-.35-.76-.8s.32-.78.77-.78.76.35.76.78c0,.49-.32.8-.77.8Zm.59,8.98h-1.16v-7.63h1.16v7.63Z"/><path class="cls-1" d="m327.55,115.05c0,2.84-1.88,4.05-3.57,4.05-1.96,0-3.47-1.47-3.47-3.94,0-2.61,1.62-4.05,3.57-4.05,2.09,0,3.47,1.6,3.47,3.94Zm-3.52-3.03c-1.65,0-2.34,1.62-2.34,3.1,0,1.69.94,3.07,2.31,3.07s2.35-1.37,2.35-3.1c0-1.36-.66-3.07-2.33-3.07Z"/><path class="cls-1" d="m336.11,118.93h-1.16v-4.51c0-1.25-.45-2.34-1.78-2.34-1,0-2,.84-2,2.17v4.68h-1.16v-5.67c0-.78-.03-1.36-.06-1.98h1.04l.07,1.25h.03c.38-.74,1.26-1.42,2.45-1.42.95,0,2.58.57,2.58,3.17v4.65Z"/></g></g></g></svg>